<svg width="16" height="16" viewBox="0 0 16 16" fill="none" xmlns="http://www.w3.org/2000/svg">
<path d="M0 4C0 1.79086 1.79086 0 4 0H12C14.2091 0 16 1.79086 16 4V12C16 14.2091 14.2091 16 12 16H4C1.79086 16 0 14.2091 0 12V4Z" fill="white"/>
<path fill-rule="evenodd" clip-rule="evenodd" d="M8.16683 16C12.4931 16 16.0002 12.4183 16.0002 8C16.0002 3.58172 12.4931 0 8.16683 0C3.8406 0 0.333496 3.58172 0.333496 8C0.333496 12.4183 3.8406 16 8.16683 16ZM7.72908 2.87677C7.1858 2.6967 6.60128 2.99176 6.42352 3.5358L6.29079 3.94203H5.51936C4.97508 3.94203 4.53385 4.38326 4.53385 4.92754C4.53385 5.47182 4.97508 5.91304 5.51936 5.91304H5.64678L5.07854 7.65217H4.32633C3.81407 7.65217 3.3988 8.06744 3.3988 8.57971C3.3988 9.09197 3.81407 9.50724 4.32633 9.50724H4.47242L3.72631 11.7907C3.54855 12.3348 3.84487 12.9218 4.38815 13.1019C4.93143 13.2819 5.51595 12.9869 5.69371 12.4428L6.65288 9.50724H10.3046C10.8169 9.50724 11.2321 9.09197 11.2321 8.57971C11.2321 8.06744 10.8169 7.65217 10.3046 7.65217H7.259L7.82724 5.91304L12.9711 5.91304C13.5153 5.91304 13.9566 5.47182 13.9566 4.92754C13.9566 4.38326 13.5153 3.94203 12.971 3.94203L8.43965 3.94203C8.47435 3.47712 8.19098 3.02987 7.72908 2.87677Z" fill="#FFC857"/>
<path fill-rule="evenodd" clip-rule="evenodd" d="M7.66667 16C11.9008 16 15.3333 12.4183 15.3333 8C15.3333 3.58172 11.9008 0 7.66667 0C3.43248 0 0 3.58172 0 8C0 12.4183 3.43248 16 7.66667 16ZM7.23797 2.87677C6.70625 2.6967 6.13659 2.98419 5.96559 3.5189L5.83028 3.94203H5.09662C4.55234 3.94203 4.11111 4.38326 4.11111 4.92754C4.11111 5.47182 4.55234 5.91304 5.09662 5.91304H5.19998L4.64383 7.65217H3.92754C3.41527 7.65217 3 8.06744 3 8.57971C3 9.09197 3.41527 9.50724 3.92753 9.50724H4.0506L3.31497 11.8076C3.14397 12.3423 3.4364 12.9218 3.96812 13.1019C4.49985 13.2819 5.06951 12.9944 5.2405 12.4597L6.18467 9.50724H9.73913C10.2514 9.50724 10.6667 9.09197 10.6667 8.57971C10.6667 8.06744 10.2514 7.65217 9.73913 7.65217H6.7779L7.33405 5.91304L12.1256 5.91304C12.6699 5.91304 13.1111 5.47182 13.1111 4.92754C13.1111 4.38326 12.6699 3.94203 12.1256 3.94203L7.93656 3.94203C7.97435 3.47994 7.69427 3.0313 7.23797 2.87677Z" fill="#2B3D51"/>
</svg>
