<svg width="288" height="248" viewBox="0 0 288 248" fill="none" xmlns="http://www.w3.org/2000/svg">
<g filter="url(#filter0_d)">
<path d="M44.9285 215.571C99.4981 247.672 187.975 247.672 242.544 215.571C297.114 183.47 297.114 131.496 242.544 99.4254C187.975 67.3543 99.4981 67.3244 44.9285 99.4254C-9.64119 131.526 -9.64119 183.493 44.9285 215.571Z" fill="#F5F5F5"/>
<path d="M75.0731 68.0337L88.2244 59.4934L75.0731 50.9531L61.8022 59.4934L75.0731 68.0337Z" stroke="#EBEBEB" stroke-width="1.08419" stroke-linecap="round" stroke-linejoin="round"/>
<path d="M64.8613 59.5007L75.0799 26.2725V66.1374L64.8613 59.5007Z" fill="#E0E0E0"/>
<path d="M75.0798 66.1374L85.2917 59.5007L75.0798 26.2725V66.1374Z" fill="#E6E6E6"/>
<path d="M59.0023 78.4548L72.1537 69.9144L59.0023 61.374L45.7314 69.9144L59.0023 78.4548Z" stroke="#EBEBEB" stroke-width="1.08419" stroke-linecap="round" stroke-linejoin="round"/>
<path d="M48.79 69.9225L59.002 20.5767V76.5591L48.79 69.9225Z" fill="#E0E0E0"/>
<path d="M59.0022 76.5591L69.2141 69.9225L59.0022 20.5767V76.5591Z" fill="#E6E6E6"/>
<path d="M42.931 88.8771L56.0824 80.3368L42.931 71.7964L29.6536 80.3368L42.931 88.8771Z" stroke="#EBEBEB" stroke-width="1.08419" stroke-linecap="round" stroke-linejoin="round"/>
<path d="M32.7192 80.3441L42.9312 50.9531V86.9808L32.7192 80.3441Z" fill="#E0E0E0"/>
<path d="M42.9312 86.9808L53.1431 80.3441L42.9312 50.9531V86.9808Z" fill="#E6E6E6"/>
<path d="M26.86 99.2984L40.0114 90.7581L26.86 82.2178L13.5825 90.7581L26.86 99.2984Z" stroke="#EBEBEB" stroke-width="1.08419" stroke-linecap="round" stroke-linejoin="round"/>
<path d="M16.6416 90.7651L26.8602 40.8667V97.4018L16.6416 90.7651Z" fill="#E0E0E0"/>
<path d="M26.8601 97.4018L37.072 90.7651L26.8601 40.8667V97.4018Z" fill="#E6E6E6"/>
<path d="M202.135 56.6787L272.271 102.232" stroke="#EBEBEB" stroke-width="1.08419" stroke-miterlimit="10" stroke-linecap="round"/>
<path d="M272.271 97.4023C272.186 91.684 271.83 85.9748 271.203 80.2993C270.54 74.1329 269.212 63.7262 263.937 60.2922C258.662 56.8581 256.672 63.0693 255.908 66.1226C254.913 70.0867 249.744 67.5783 249.028 61.0462C248.311 54.514 247.84 33.7007 241.642 29.6918C235.445 25.6829 233.448 35.3505 232.744 38.053C231.357 43.3608 227.29 41.8976 225.963 38.3814C224.636 34.8653 221.013 34.0067 219.646 38.9563C218.279 43.9058 217.436 49.5869 213.01 46.6679C209.122 44.1073 210.907 39.4415 207.118 37.2243C204.119 35.4774 202.726 43.8087 202.726 52.2371L272.271 97.4023Z" fill="#E0E0E0"/>
<path d="M267.175 53.9614C267.175 54.8721 266.445 55.1334 265.556 54.5586L260.247 51.0947C259.811 50.8165 259.438 50.4284 259.157 49.9609C258.876 49.4934 258.695 48.9591 258.628 48.3998C258.628 47.4965 259.358 47.2278 260.247 47.81L265.556 51.2739C265.992 51.5505 266.365 51.9372 266.646 52.4035C266.927 52.8698 267.108 53.4031 267.175 53.9614Z" fill="#E6E6E6"/>
<path d="M245.384 24.6743C245.384 25.585 244.661 25.8463 243.765 25.2715L238.457 21.8076C238.02 21.5307 237.646 21.143 237.365 20.6752C237.084 20.2075 236.903 19.6725 236.838 19.1127C236.838 18.2094 237.561 17.9407 238.457 18.5229L243.765 21.9868C244.202 22.2625 244.576 22.6489 244.857 23.1154C245.138 23.5819 245.319 24.1156 245.384 24.6743Z" fill="#E6E6E6"/>
<path d="M228.125 30.0652C228.125 30.976 227.402 31.2373 226.513 30.6624L221.205 27.1984C220.767 26.9215 220.393 26.5338 220.112 26.066C219.831 25.5982 219.651 25.0632 219.586 24.5033C219.586 23.6 220.309 23.3313 221.205 23.9136L226.513 27.3776C226.948 27.6546 227.32 28.0416 227.6 28.5079C227.88 28.9743 228.06 29.5074 228.125 30.0652Z" fill="#E6E6E6"/>
<path d="M211.763 31.8487C211.763 32.7595 211.039 33.0208 210.144 32.4385L204.835 28.982C204.4 28.7033 204.028 28.315 203.748 27.8474C203.468 27.3799 203.289 26.8458 203.223 26.287C203.223 25.3837 203.946 25.115 204.835 25.6973L210.144 29.1537C210.58 29.4315 210.954 29.8195 211.235 30.2871C211.516 30.7547 211.696 31.2893 211.763 31.8487Z" fill="#E6E6E6"/>
<path d="M199.215 49.9524V0.599121" stroke="#EBEBEB" stroke-width="1.08419" stroke-miterlimit="10" stroke-linecap="round"/>
<path d="M29.2091 159.117C29.2091 159.117 30.2973 148.158 27.2782 137.721C24.4383 127.852 18.7318 122.619 15.2747 121.051C8.73884 118.117 8.15493 126.217 13.0519 131.824C16.6416 135.945 25.281 144.44 26.7673 158.848L29.2091 159.117Z" fill="#72A276"/>
<path opacity="0.7" d="M29.2091 159.117C29.2091 159.117 30.2973 148.158 27.2782 137.721C24.4383 127.852 18.7318 122.619 15.2747 121.051C8.73884 118.117 8.15493 126.217 13.0519 131.824C16.6416 135.945 25.281 144.44 26.7673 158.848L29.2091 159.117Z" fill="white"/>
<path d="M13.51 123.314C17.4581 126.301 28.0681 134.923 28.4529 159.036" stroke="#FAFAFA" stroke-width="1.08419" stroke-miterlimit="10" stroke-linecap="round"/>
<path d="M26.4289 166.606C24.3984 155.557 20.2513 151.548 12.8395 147.278C9.66778 145.456 5.95195 143.426 4.61159 141.104C3.27124 138.782 3.94805 135.662 8.51322 135.729C16.8539 135.856 26.3559 147.166 27.6232 159.558L26.4289 166.606Z" fill="#72A276"/>
<path opacity="0.8" d="M26.4289 166.606C24.3984 155.557 20.2513 151.548 12.8395 147.278C9.66778 145.456 5.95195 143.426 4.61159 141.104C3.27124 138.782 3.94805 135.662 8.51322 135.729C16.8539 135.856 26.3559 147.166 27.6232 159.558L26.4289 166.606Z" fill="white"/>
<path d="M7.80981 138.132C14.1068 139.095 24.0533 147.352 27.2117 162.021" stroke="#FAFAFA" stroke-width="1.08419" stroke-miterlimit="10" stroke-linecap="round"/>
<path d="M259.06 153.944C261.615 148.42 263.599 132.922 260.314 125.755C257.029 118.588 252.146 119.163 251.389 121.485C250.726 123.628 252.365 127.457 254.488 132.019C256.611 136.58 258.403 146.352 256.392 150.906L259.06 153.944Z" fill="#72A276"/>
<path opacity="0.7" d="M259.06 153.944C261.615 148.42 263.599 132.922 260.314 125.755C257.029 118.588 252.146 119.163 251.389 121.485C250.726 123.628 252.365 127.457 254.488 132.019C256.611 136.58 258.403 146.352 256.392 150.906L259.06 153.944Z" fill="white"/>
<path d="M254.614 121.858C256.704 123.747 262.689 135.296 258.502 151.145" stroke="#FAFAFA" stroke-width="1.08419" stroke-miterlimit="10" stroke-linecap="round"/>
<path d="M258.25 159.797C256.711 156.333 253.34 150.6 255.636 146.666C257.932 142.732 260.334 146.21 262.178 143.642C264.023 141.074 261.913 136.924 263.505 134.684C266.584 130.279 268.814 135.393 271.229 134.721C272.974 134.236 274.918 129.884 279.941 130.414C284.964 130.944 284.712 135.423 282.476 137.528C280.24 139.633 277.586 141.731 279.311 144.889C280.837 147.689 281.627 152.862 276.405 154.87C271.415 156.789 273.883 159.223 273.087 161.97C272.291 164.717 267.58 167.322 262.57 165.202L258.25 159.797Z" fill="#72A276"/>
<path opacity="0.8" d="M258.25 159.797C256.711 156.333 253.34 150.6 255.636 146.666C257.932 142.732 260.334 146.21 262.178 143.642C264.023 141.074 261.913 136.924 263.505 134.684C266.584 130.279 268.814 135.393 271.229 134.721C272.974 134.236 274.918 129.884 279.941 130.414C284.964 130.944 284.712 135.423 282.476 137.528C280.24 139.633 277.586 141.731 279.311 144.889C280.837 147.689 281.627 152.862 276.405 154.87C271.415 156.789 273.883 159.223 273.087 161.97C272.291 164.717 267.58 167.322 262.57 165.202L258.25 159.797Z" fill="white"/>
<path d="M280.632 132.952C275.191 134.595 262.159 146.509 261.057 161.462" stroke="#FAFAFA" stroke-width="1.08419" stroke-miterlimit="10" stroke-linecap="round"/>
<path d="M276.71 148.651C274.023 147.964 267.195 147.867 264.64 149.263" stroke="#FAFAFA" stroke-width="1.08419" stroke-miterlimit="10" stroke-linecap="round"/>
<path d="M266.16 135.998C266.16 135.998 268.15 140.335 267.865 143.986" stroke="#FAFAFA" stroke-width="1.08419" stroke-miterlimit="10" stroke-linecap="round"/>
<path d="M191.936 93.6321C191.046 90.1675 189.457 86.9814 187.291 84.3228C184.732 81.1825 181.738 78.528 178.426 76.4618C174.581 74.0109 170.491 72.079 166.244 70.706C161.564 69.1864 156.764 68.1863 151.911 67.7198C146.899 67.2047 141.855 67.2047 136.842 67.7198C131.992 68.1862 127.193 69.1864 122.516 70.706C118.266 72.0776 114.174 74.0096 110.327 76.4618C107.015 78.546 104.024 81.2182 101.469 84.375C99.3049 87.0352 97.7155 90.2208 96.8238 93.6843C96.0311 96.8883 96.0311 100.275 96.8238 103.479C97.7084 106.944 99.2988 110.128 101.469 112.781C104.025 115.94 107.019 118.615 110.334 120.701C114.176 123.152 118.263 125.081 122.51 126.45C127.189 127.976 131.989 128.986 136.842 129.466C141.855 129.973 146.898 129.973 151.911 129.466C156.767 128.984 161.569 127.972 166.25 126.442C170.496 125.074 174.583 123.144 178.426 120.694C181.742 118.61 184.736 115.935 187.291 112.773C189.458 110.119 191.048 106.934 191.936 103.471C192.73 100.252 192.73 96.851 191.936 93.6321Z" fill="#37474F"/>
<path d="M96.2271 93.6475H192.527V99.172L96.2271 98.8659V93.6475Z" fill="#37474F"/>
<path d="M136.842 62.7705L144.367 93.6321L122.516 65.7865C127.192 64.2568 131.991 63.2467 136.842 62.7705Z" fill="#455A64"/>
<path d="M151.911 62.7703L144.387 93.632L136.862 62.7553C141.868 62.2465 146.906 62.2515 151.911 62.7703Z" fill="#455A64"/>
<path d="M166.244 65.7863L144.387 93.632L151.911 62.7554C156.765 63.2364 161.566 64.2516 166.244 65.7863Z" fill="#455A64"/>
<path d="M187.285 79.4478C189.449 82.1102 191.039 85.2984 191.929 88.7644L144.393 93.6318L187.285 79.4478Z" fill="#455A64"/>
<path d="M191.936 88.772C192.722 91.9743 192.722 95.3566 191.936 98.5589L144.393 93.6319L191.936 88.772Z" fill="#455A64"/>
<path d="M191.936 98.56C191.047 102.025 189.457 105.211 187.291 107.869L144.393 93.6851L191.936 98.56Z" fill="#455A64"/>
<path d="M187.291 107.869C184.735 111.028 181.741 113.7 178.426 115.782L144.38 93.6323L187.291 107.869Z" fill="#455A64"/>
<path d="M144.387 93.6699L166.25 121.538C161.569 123.058 156.766 124.058 151.911 124.524L144.38 93.6475L144.387 93.6699Z" fill="#455A64"/>
<path d="M144.38 93.6777L151.911 124.554C146.899 125.07 141.855 125.07 136.842 124.554L144.38 93.6777Z" fill="#455A64"/>
<path d="M144.367 93.6699L136.829 124.547C131.974 124.081 127.171 123.081 122.49 121.56L144.367 93.6699Z" fill="#455A64"/>
<path d="M144.367 93.6699L122.47 121.538C118.224 120.164 114.138 118.232 110.294 115.782L144.367 93.6699Z" fill="#455A64"/>
<path d="M144.36 93.6323L101.462 107.816C99.2934 105.16 97.7033 101.973 96.8174 98.5072L144.36 93.6323Z" fill="#455A64"/>
<path d="M144.36 93.6319L96.8239 98.5589C96.031 95.3576 96.031 91.9733 96.8239 88.772L144.36 93.6319Z" fill="#455A64"/>
<path d="M144.36 93.6319L96.824 88.7421C97.7169 85.2769 99.3061 82.0892 101.469 79.4253L144.36 93.6319Z" fill="#455A64"/>
<path d="M110.327 71.5503L144.36 93.6328L101.469 79.4486C104.025 76.2969 107.016 73.6298 110.327 71.5503Z" fill="#455A64"/>
<path d="M178.426 71.5501L144.387 93.6326L166.244 65.772C170.494 67.149 174.583 69.0886 178.426 71.5501Z" fill="#455A64"/>
<path d="M178.426 71.5503C181.739 73.6278 184.73 76.2951 187.285 79.4486L144.393 93.6328L178.426 71.5503Z" fill="#455A64"/>
<path d="M144.367 93.6323L110.314 115.752C106.999 113.668 104.006 110.996 101.449 107.839L144.347 93.6547L144.367 93.6323Z" fill="#455A64"/>
<path d="M122.516 65.7871L144.367 93.6329L110.327 71.5205C114.174 69.0731 118.266 67.1485 122.516 65.7871Z" fill="#455A64"/>
<path d="M144.387 93.6699L178.426 115.782C174.583 118.232 170.496 120.164 166.25 121.538L144.387 93.6699Z" fill="#455A64"/>
<path d="M115.257 62.4874L142.296 80.046L140.969 55.2236C131.023 55.7014 122.576 58.0903 115.257 62.4874Z" fill="#72A276"/>
<path opacity="0.2" d="M115.257 62.4874L142.296 80.046L140.969 55.2236C131.023 55.7014 122.576 58.0903 115.257 62.4874Z" fill="white"/>
<path d="M142.296 80.0453V89.6308L115.257 72.0648V62.4868L142.296 80.0453Z" fill="#72A276"/>
<path opacity="0.1" d="M142.296 80.0453V89.6308L115.257 72.0648V62.4868L142.296 80.0453Z" fill="black"/>
<path d="M177.351 64.9507L146.317 80.7026V90.2807L177.351 74.5288V64.9507Z" fill="#72A276"/>
<path opacity="0.3" d="M177.351 64.9507L146.317 80.7026V90.2807L177.351 74.5288V64.9507Z" fill="black"/>
<path d="M177.351 64.9507C168.997 58.5529 157.857 55.1786 144.944 55.1338L145.774 70.6542L146.318 80.7026L177.351 64.9507Z" fill="#72A276"/>
<path opacity="0.1" d="M177.351 64.9507C168.997 58.5529 157.857 55.1786 144.944 55.1338L145.774 70.6542L146.318 80.7026L177.351 64.9507Z" fill="black"/>
<path d="M144.938 55.1338V64.7118L146.318 90.2806V80.7026L144.938 55.1338Z" fill="#263238"/>
<path d="M152.628 99.1489L168.493 116.319C169.382 115.938 170.205 115.573 171.147 115.065C182.076 109.526 187.789 101.224 187.782 92.8482V83.3672C186.581 79.7615 183.277 79.769 179.82 76.5962L147.419 93.0199L147.094 93.1841L152.628 99.1489Z" fill="#72A276"/>
<path opacity="0.6" d="M152.628 99.1489L168.493 116.319C169.382 115.938 170.205 115.573 171.147 115.065C182.076 109.526 187.789 101.224 187.782 92.8482V83.3672C186.581 79.7615 183.277 79.769 179.82 76.5962L147.419 93.0199L147.094 93.1841L152.628 99.1489Z" fill="white"/>
<path d="M152.628 89.571L168.493 106.741C169.383 106.361 170.205 105.995 171.148 105.48C189.441 96.1853 193.104 79.1643 179.833 66.9883L147.433 83.412L147.107 83.5763L152.628 89.571Z" fill="#72A276"/>
<path opacity="0.8" d="M152.628 89.571L168.493 106.741C169.383 106.361 170.205 105.995 171.148 105.48C189.441 96.1853 193.104 79.1643 179.833 66.9883L147.433 83.412L147.107 83.5763L152.628 89.571Z" fill="white"/>
<path d="M168.467 116.304V106.719L147.074 83.5986V93.1766L168.467 116.304Z" fill="#72A276"/>
<path opacity="0.6" d="M168.467 116.304V106.719L147.074 83.5986V93.1766L168.467 116.304Z" fill="white"/>
<path d="M112.444 73.894C107.885 77.1265 102.822 79.1646 100.978 83.0913V92.6768C100.978 97.6711 103.041 102.733 107.321 107.361C113.293 113.804 122.749 118.358 133.982 120.172C144.379 121.898 154.985 121.029 165.049 117.626V108.048L151.082 102.524L142.88 93.6324L112.444 73.894Z" fill="#72A276"/>
<path opacity="0.6" d="M112.444 73.894C107.885 77.1265 102.822 79.1646 100.978 83.0913V92.6768C100.978 97.6711 103.041 102.733 107.321 107.361C113.293 113.804 122.749 118.358 133.982 120.172C144.379 121.898 154.985 121.029 165.049 117.626V108.048L151.082 102.524L142.88 93.6324L112.444 73.894Z" fill="black"/>
<path d="M112.444 64.3159C99.3455 73.5879 97.2354 86.8762 107.321 97.7755C113.293 104.226 122.749 108.772 133.982 110.594C144.379 112.316 154.985 111.447 165.049 108.048L151.082 92.9455L142.88 84.0841L112.444 64.3159Z" fill="#72A276"/>
<path opacity="0.3" d="M112.444 64.3159C99.3455 73.5879 97.2354 86.8762 107.321 97.7755C113.293 104.226 122.749 108.772 133.982 110.594C144.379 112.316 154.985 111.447 165.049 108.048L151.082 92.9455L142.88 84.0841L112.444 64.3159Z" fill="black"/>
<path d="M264.428 168.771C263.538 165.307 261.949 162.12 259.783 159.462C257.229 156.304 254.238 153.631 250.925 151.549C247.079 149.098 242.99 147.166 238.742 145.793C234.063 144.273 229.262 143.273 224.41 142.807C219.397 142.292 214.353 142.292 209.341 142.807C204.49 143.274 199.692 144.274 195.015 145.793C190.767 147.166 186.678 149.098 182.832 151.549C179.517 153.631 176.523 156.303 173.967 159.462C171.803 162.122 170.214 165.308 169.322 168.771C168.53 171.975 168.53 175.362 169.322 178.566C170.207 182.03 171.797 185.215 173.967 187.868C176.524 191.027 179.517 193.702 182.832 195.788C186.676 198.236 190.763 200.165 195.008 201.537C199.69 203.052 204.493 204.053 209.347 204.523C214.36 205.03 219.403 205.03 224.416 204.523C229.271 204.053 234.073 203.053 238.755 201.537C243.003 200.169 247.09 198.236 250.931 195.781C254.249 193.699 257.245 191.027 259.803 187.868C261.968 185.211 263.558 182.028 264.448 178.566C265.231 175.359 265.224 171.974 264.428 168.771Z" fill="#37474F"/>
<path d="M168.719 168.764H265.019V174.289L168.719 173.983V168.764Z" fill="#37474F"/>
<path d="M209.334 137.887L216.865 168.764L195.008 140.903C199.684 139.374 204.483 138.364 209.334 137.887Z" fill="#455A64"/>
<path d="M224.403 137.887L216.879 168.764L209.347 137.887C214.356 137.373 219.395 137.373 224.403 137.887Z" fill="#455A64"/>
<path d="M238.736 140.903L216.879 168.764L224.403 137.887C229.257 138.363 234.057 139.374 238.736 140.903Z" fill="#455A64"/>
<path d="M259.777 154.572C261.942 157.234 263.532 160.422 264.421 163.889L216.885 168.779L259.777 154.572Z" fill="#455A64"/>
<path d="M264.428 163.889C265.217 167.091 265.217 170.474 264.428 173.676L216.892 168.779L264.428 163.889Z" fill="#455A64"/>
<path d="M264.428 173.676C263.537 177.139 261.947 180.325 259.783 182.985L216.885 168.801L264.428 173.676Z" fill="#455A64"/>
<path d="M259.79 182.984C257.229 186.14 254.233 188.812 250.918 190.898L216.872 168.778L259.79 182.984Z" fill="#455A64"/>
<path d="M216.879 168.787L238.742 196.655C234.06 198.171 229.258 199.172 224.403 199.641L216.872 168.764L216.879 168.787Z" fill="#455A64"/>
<path d="M216.872 168.793L224.403 199.64C219.391 200.151 214.347 200.151 209.334 199.64L216.872 168.793Z" fill="#455A64"/>
<path d="M216.865 168.786L209.334 199.64C204.48 199.17 199.677 198.17 194.995 196.654L216.865 168.786Z" fill="#455A64"/>
<path d="M216.865 168.786L194.968 196.654C190.724 195.277 186.637 193.345 182.792 190.898L216.865 168.786Z" fill="#455A64"/>
<path d="M216.852 168.778L173.954 182.962C171.785 180.306 170.195 177.119 169.309 173.653L216.852 168.778Z" fill="#455A64"/>
<path d="M216.852 168.779L169.316 173.676C168.523 170.475 168.523 167.091 169.316 163.889L216.852 168.779Z" fill="#455A64"/>
<path d="M216.852 168.771L169.316 163.882C170.207 160.416 171.797 157.228 173.961 154.565L216.852 168.771Z" fill="#455A64"/>
<path d="M182.826 146.636L216.852 168.741L173.961 154.557C176.516 151.395 179.51 148.721 182.826 146.636Z" fill="#455A64"/>
<path d="M250.918 146.636L216.879 168.741L238.736 140.88C242.985 142.25 247.074 144.182 250.918 146.636Z" fill="#455A64"/>
<path d="M250.918 146.636C254.231 148.716 257.223 151.386 259.777 154.542L216.892 168.726L250.918 146.636Z" fill="#455A64"/>
<path d="M216.865 168.771L182.819 190.898C179.506 188.812 176.513 186.14 173.954 182.985L216.852 168.801L216.865 168.771Z" fill="#455A64"/>
<path d="M195.009 140.902L216.866 168.763L182.826 146.636C186.671 144.19 190.761 142.265 195.009 140.902Z" fill="#455A64"/>
<path d="M216.879 168.786L250.918 190.898C247.075 193.348 242.988 195.279 238.742 196.654L216.879 168.786Z" fill="#455A64"/>
<path d="M174.452 156.647V172.16C174.102 170.742 173.924 169.279 173.921 167.808V156.647H174.452Z" fill="#72A276"/>
<path opacity="0.3" d="M174.452 156.647V172.16C174.102 170.742 173.924 169.279 173.921 167.808V156.647H174.452Z" fill="black"/>
<path d="M216.852 156.663L174.452 161.022C173.748 158.167 173.748 155.151 174.452 152.295L216.852 156.663Z" fill="#72A276"/>
<path d="M216.852 156.647L174.452 152.28C175.249 149.189 176.668 146.346 178.599 143.971L216.852 156.647Z" fill="#72A276"/>
<path d="M186.502 136.931L216.852 156.647L178.599 143.956C180.881 141.152 183.549 138.78 186.502 136.931Z" fill="#72A276"/>
<path d="M197.37 131.795L216.865 156.64L186.501 136.931C189.931 134.742 193.58 133.018 197.37 131.795Z" fill="#72A276"/>
<path d="M210.15 129.108L216.865 156.64L197.37 131.795C201.542 130.43 205.822 129.53 210.15 129.108Z" fill="#72A276"/>
<path d="M223.627 129.107L216.878 156.64L210.163 129.107C214.642 128.643 219.148 128.643 223.627 129.107Z" fill="#72A276"/>
<path d="M236.374 131.795L216.879 156.64L223.627 129.108C227.944 129.532 232.213 130.433 236.374 131.795Z" fill="#72A276"/>
<g opacity="0.2">
<path opacity="0.2" d="M216.852 156.663L174.452 161.023C173.748 158.168 173.748 155.151 174.452 152.296L216.852 156.663Z" fill="white"/>
<path opacity="0.2" d="M216.852 156.648L174.452 152.281C175.249 149.189 176.668 146.346 178.599 143.972L216.852 156.648Z" fill="white"/>
<path opacity="0.2" d="M186.501 136.932L216.852 156.648L178.599 143.957C180.88 141.153 183.549 138.781 186.501 136.932Z" fill="white"/>
<path opacity="0.2" d="M197.371 131.796L216.865 156.64L186.502 136.932C189.932 134.743 193.58 133.019 197.371 131.796Z" fill="white"/>
<path opacity="0.2" d="M210.15 129.107L216.865 156.64L197.37 131.795C201.542 130.43 205.822 129.53 210.15 129.107Z" fill="white"/>
<path opacity="0.2" d="M223.627 129.108L216.878 156.641L210.163 129.108C214.642 128.644 219.148 128.644 223.627 129.108Z" fill="white"/>
<path opacity="0.2" d="M236.373 131.795L216.878 156.64L223.627 129.107C227.943 129.532 232.213 130.432 236.373 131.795Z" fill="white"/>
</g>
<path d="M252.822 164.098L246.459 170.817L241.622 175.96L237.01 180.842L236.393 181.492V192.638C240.183 191.416 243.831 189.694 247.262 187.509C250.218 185.644 252.888 183.257 255.171 180.439C257.102 178.072 258.517 175.233 259.305 172.145C259.657 170.728 259.838 169.264 259.843 167.793V156.655L252.822 164.098Z" fill="#72A276"/>
<path opacity="0.3" d="M252.822 164.098L246.459 170.817L241.622 175.96L237.01 180.842L236.393 181.492V192.638C240.183 191.416 243.831 189.694 247.262 187.509C250.218 185.644 252.888 183.257 255.171 180.439C257.102 178.072 258.517 175.233 259.305 172.145C259.657 170.728 259.838 169.264 259.843 167.793V156.655L252.822 164.098Z" fill="black"/>
<path d="M255.145 143.986C257.074 146.362 258.492 149.205 259.292 152.295L216.885 156.662L255.145 143.986Z" fill="#72A276"/>
<path d="M259.823 156.67C259.818 158.144 259.637 159.61 259.286 161.03L246.439 159.701L216.885 156.655L252.803 152.922L259.286 152.258C259.641 153.695 259.821 155.179 259.823 156.67Z" fill="#72A276"/>
<path d="M259.286 161.029C258.496 164.116 257.081 166.955 255.152 169.323L241.602 164.844L216.885 156.632L246.439 159.678L259.286 161.029Z" fill="#72A276"/>
<path d="M255.152 169.324C252.869 172.142 250.198 174.529 247.242 176.393L236.991 169.719L216.892 156.67L241.609 164.882L255.152 169.324Z" fill="#72A276"/>
<path d="M247.242 136.931L216.879 156.655L236.374 131.81C240.163 133.031 243.811 134.75 247.242 136.931Z" fill="#72A276"/>
<path d="M247.242 136.931C250.196 138.791 252.864 141.173 255.145 143.986L216.885 156.677L247.242 136.931Z" fill="#72A276"/>
<path d="M247.242 176.393C243.811 178.576 240.163 180.295 236.373 181.515L216.892 156.67L236.991 169.719L247.242 176.393Z" fill="#72A276"/>
<g opacity="0.2">
<path opacity="0.2" d="M255.145 143.986C257.074 146.363 258.492 149.205 259.292 152.295L216.885 156.662L255.145 143.986Z" fill="white"/>
<path opacity="0.2" d="M259.823 156.67C259.817 158.144 259.637 159.61 259.285 161.03L246.439 159.701L216.885 156.655L252.803 152.923L259.285 152.258C259.64 153.695 259.821 155.179 259.823 156.67Z" fill="white"/>
<path opacity="0.2" d="M259.285 161.03C258.496 164.117 257.081 166.956 255.151 169.324L241.602 164.845L216.885 156.633L246.439 159.679L259.285 161.03Z" fill="white"/>
<path opacity="0.2" d="M255.152 169.323C252.869 172.141 250.198 174.528 247.242 176.393L236.991 169.719L216.892 156.669L241.609 164.881L255.152 169.323Z" fill="white"/>
<path opacity="0.2" d="M247.242 136.931L216.879 156.655L236.374 131.81C240.163 133.031 243.811 134.75 247.242 136.931Z" fill="white"/>
<path opacity="0.2" d="M247.242 136.932C250.195 138.792 252.864 141.174 255.145 143.986L216.885 156.677L247.242 136.932Z" fill="white"/>
<path opacity="0.2" d="M247.242 176.393C243.811 178.576 240.163 180.295 236.373 181.514L216.892 156.669L236.991 169.719L247.242 176.393Z" fill="white"/>
</g>
<path d="M236.38 181.522V192.667L216.865 167.793V156.64L236.38 181.522Z" fill="#263238"/>
<path d="M216.865 167.793L174.452 172.175V161.022L216.865 156.64V167.793Z" fill="#72A276"/>
<path opacity="0.1" d="M216.865 167.793L174.452 172.175V161.022L216.865 156.64V167.793Z" fill="black"/>
<path d="M119.451 168.771C118.562 165.307 116.972 162.12 114.806 159.462C112.251 156.305 109.26 153.633 105.948 151.549C102.101 149.097 98.0091 147.165 93.7586 145.793C89.0815 144.273 84.2833 143.273 79.4328 142.807C74.4202 142.292 69.3763 142.292 64.3637 142.807C59.5111 143.274 54.7107 144.274 50.0312 145.793C45.7788 147.165 41.6851 149.097 37.8353 151.549C34.5224 153.631 31.531 156.304 28.9771 159.462C26.8114 162.12 25.2217 165.307 24.3323 168.771C23.5458 171.976 23.5458 175.361 24.3323 178.566C25.2202 182.029 26.8102 185.213 28.9771 187.868C31.5305 191.028 34.5219 193.703 37.8353 195.788C41.6781 198.238 45.7652 200.168 50.0113 201.537C54.6936 203.053 59.4959 204.053 64.3505 204.523C69.3634 205.03 74.4066 205.03 79.4195 204.523C84.274 204.053 89.0764 203.053 93.7586 201.537C98.006 200.169 102.093 198.236 105.935 195.781C109.253 193.7 112.249 191.028 114.806 187.868C116.973 185.213 118.563 182.029 119.451 178.566C120.237 175.361 120.237 171.976 119.451 168.771Z" fill="#37474F"/>
<path d="M23.7349 168.764H120.035V174.289L23.7349 173.983V168.764Z" fill="#37474F"/>
<path d="M64.3767 137.887L71.9012 168.764L50.0442 140.903C54.7228 139.374 59.5232 138.364 64.3767 137.887Z" fill="#455A64"/>
<path d="M79.4192 137.887L71.8946 168.764L64.3767 137.887C69.3805 137.374 74.4154 137.374 79.4192 137.887Z" fill="#455A64"/>
<path d="M93.7452 140.903L71.8948 168.764L79.4193 137.887C84.2708 138.363 89.069 139.374 93.7452 140.903Z" fill="#455A64"/>
<path d="M114.806 154.572C116.972 157.234 118.561 160.422 119.451 163.889L71.908 168.779L114.806 154.572Z" fill="#455A64"/>
<path d="M119.451 163.889C120.237 167.092 120.237 170.474 119.451 173.676L71.908 168.779L119.451 163.889Z" fill="#455A64"/>
<path d="M119.451 173.676C118.561 177.14 116.972 180.326 114.806 182.985L71.908 168.801L119.451 173.676Z" fill="#455A64"/>
<path d="M114.806 182.984C112.247 186.14 109.254 188.812 105.941 190.898L71.8884 168.778L114.806 182.984Z" fill="#455A64"/>
<path d="M71.8949 168.787L93.7586 196.655C89.0763 198.171 84.274 199.172 79.4194 199.641L71.8816 168.764L71.8949 168.787Z" fill="#455A64"/>
<path d="M71.8814 168.793L79.4192 199.64C74.4153 200.149 69.3806 200.149 64.3767 199.64L71.8814 168.793Z" fill="#455A64"/>
<path d="M71.875 168.786L64.377 199.64C59.5224 199.171 54.7201 198.17 50.0378 196.654L71.875 168.786Z" fill="#455A64"/>
<path d="M71.8749 168.786L49.978 196.654C45.7441 195.277 41.6686 193.345 37.8352 190.898L71.8749 168.786Z" fill="#455A64"/>
<path d="M71.8682 168.778L28.9702 182.962C26.8044 180.304 25.2147 177.117 24.3254 173.653L71.8682 168.778Z" fill="#455A64"/>
<path d="M71.8682 168.779L24.3255 173.676C23.5393 170.474 23.5393 167.092 24.3255 163.889L71.8682 168.779Z" fill="#455A64"/>
<path d="M71.8682 168.771L24.3254 163.882C25.2149 160.415 26.8045 157.226 28.9702 154.565L71.8682 168.771Z" fill="#455A64"/>
<path d="M37.8348 146.636L71.8679 168.741L28.9766 154.557C31.5295 151.395 34.521 148.721 37.8348 146.636Z" fill="#455A64"/>
<path d="M105.934 146.636L71.8948 168.741L93.7452 140.88C97.9966 142.249 102.088 144.181 105.934 146.636Z" fill="#455A64"/>
<path d="M105.935 146.636C109.253 148.726 112.249 151.406 114.806 154.572L71.9148 168.756L105.935 146.636Z" fill="#455A64"/>
<path d="M71.8749 168.771L37.8351 190.898C34.5212 188.814 31.5277 186.142 28.9702 182.985L71.8682 168.801L71.8749 168.771Z" fill="#455A64"/>
<path d="M50.0178 140.902L71.8749 168.763L37.8352 146.636C41.6804 144.19 45.7698 142.265 50.0178 140.902Z" fill="#455A64"/>
<path d="M71.8948 168.786L105.934 190.898C102.091 193.348 98.0038 195.279 93.7585 196.654L71.8948 168.786Z" fill="#455A64"/>
<path d="M84.6879 149.622L90.1754 142.62C90.1754 134.408 81.2574 134.206 77.316 133.811C73.3745 133.415 66.613 130.869 66.613 140.216L68.4975 147.95C73.9388 147.557 79.4013 148.121 84.6879 149.622Z" fill="#72A276"/>
<path opacity="0.6" d="M84.6879 149.622L90.1754 142.62C90.1754 134.408 81.2574 134.206 77.316 133.811C73.3745 133.415 66.613 130.869 66.613 140.216L68.4975 147.95C73.9388 147.557 79.4013 148.121 84.6879 149.622Z" fill="white"/>
<path d="M84.6879 138.627L90.1754 131.632C82.4916 129.382 74.5312 128.57 66.613 129.228L68.4975 136.932C73.9398 136.546 79.4023 137.118 84.6879 138.627Z" fill="#72A276"/>
<path opacity="0.8" d="M84.6879 138.627L90.1754 131.632C82.4916 129.382 74.5312 128.57 66.613 129.228L68.4975 136.932C73.9398 136.546 79.4023 137.118 84.6879 138.627Z" fill="white"/>
<path d="M68.4975 136.961V147.965L66.613 140.231V129.227L68.4975 136.961Z" fill="#72A276"/>
<path d="M90.1753 131.631L84.6877 138.626V149.638L90.1753 142.635V131.631Z" fill="#72A276"/>
<g opacity="0.6">
<path opacity="0.6" d="M68.4975 136.961V147.965L66.613 140.231V129.227L68.4975 136.961Z" fill="white"/>
<path opacity="0.6" d="M90.1755 131.631L84.688 138.626V149.637L90.1755 142.635V131.631Z" fill="white"/>
</g>
<path d="M87.3687 139.514V150.518C89.6582 151.349 91.8678 152.437 93.9643 153.765C95.7937 154.934 97.4744 156.375 98.9607 158.05L109.723 154.489C107.583 152.032 105.146 149.926 102.484 148.233C99.5447 146.337 96.3995 138.648 87.3687 139.514Z" fill="#72A276"/>
<path opacity="0.6" d="M87.3687 139.514V150.518C89.6582 151.349 91.8678 152.437 93.9643 153.765C95.7937 154.934 97.4744 156.375 98.9607 158.05L109.723 154.489C107.583 152.032 105.146 149.926 102.484 148.233C99.5447 146.337 96.3995 138.648 87.3687 139.514Z" fill="black"/>
<path d="M92.8561 132.527L87.3687 139.514C89.6603 140.34 91.8705 141.428 93.9643 142.762C95.7937 143.93 97.4744 145.372 98.9607 147.047L109.723 143.486C107.587 141.024 105.149 138.917 102.484 137.23C99.4335 135.279 96.2057 133.703 92.8561 132.527Z" fill="#72A276"/>
<path opacity="0.3" d="M92.8561 132.527L87.3687 139.514C89.6603 140.34 91.8705 141.428 93.9643 142.762C95.7937 143.93 97.4744 145.372 98.9607 147.047L109.723 143.486C107.587 141.024 105.149 138.917 102.484 137.23C99.4335 135.279 96.2057 133.703 92.8561 132.527Z" fill="black"/>
<path d="M98.9604 147.046L109.723 143.478V154.489L98.9604 158.05V147.046Z" fill="#72A276"/>
<path opacity="0.6" d="M98.9604 147.046L109.723 143.478V154.489L98.9604 158.05V147.046Z" fill="black"/>
<path d="M115.124 156.811H111.488C111.355 156.617 111.243 156.423 111.11 156.229L100.334 148.764V159.775C102.63 163.097 103.499 166.725 102.902 170.286L114.806 171.533C115.007 170.423 115.107 169.292 115.104 168.159L115.124 156.811Z" fill="#72A276"/>
<path opacity="0.6" d="M115.124 156.811H111.488C111.355 156.617 111.243 156.423 111.11 156.229L100.334 148.764V159.775C102.63 163.097 103.499 166.725 102.902 170.286L114.806 171.533C115.007 170.423 115.107 169.292 115.104 168.159L115.124 156.811Z" fill="black"/>
<path d="M102.896 159.327L114.806 160.529C115.775 155.356 114.547 150.033 111.104 145.225L100.328 148.786C102.623 152.108 103.526 155.744 102.896 159.327Z" fill="#72A276"/>
<path opacity="0.3" d="M102.896 159.327L114.806 160.529C115.775 155.356 114.547 150.033 111.104 145.225L100.328 148.786C102.623 152.108 103.526 155.744 102.896 159.327Z" fill="black"/>
<path d="M114.806 160.529V171.54L102.896 170.309V159.305L114.806 160.529Z" fill="#72A276"/>
<path opacity="0.6" d="M114.806 160.529V171.54L102.896 170.309V159.305L114.806 160.529Z" fill="black"/>
<path d="M65.5249 148.279V137.267C58.8895 133.826 46.5343 137.32 42.3938 147.57L50.9137 153.109C55.49 150.534 60.4379 148.898 65.5249 148.279Z" fill="#72A276"/>
<path opacity="0.3" d="M65.5249 148.279V137.267C58.8895 133.826 46.5343 137.32 42.3938 147.57L50.9137 153.109C55.49 150.534 60.4379 148.898 65.5249 148.279Z" fill="black"/>
<path d="M65.5246 137.267L63.6335 129.511C55.6113 130.526 48.2659 133.012 42.4001 136.566L50.92 142.097C55.4942 139.523 60.4399 137.888 65.5246 137.267Z" fill="#72A276"/>
<path opacity="0.1" d="M65.5246 137.267L63.6335 129.511C55.6113 130.526 48.2659 133.012 42.4001 136.566L50.92 142.097C55.4942 139.523 60.4399 137.888 65.5246 137.267Z" fill="black"/>
<path d="M50.9137 142.098V153.109L42.3938 147.57V136.566L50.9137 142.098Z" fill="#263238"/>
<path d="M42.0021 143.485L40.2504 148.943C34.524 152.929 30.9077 157.729 29.4214 162.753L41.3651 163.978C42.46 160.536 44.9549 157.259 48.8167 154.497V143.485H42.0021Z" fill="#72A276"/>
<path opacity="0.3" d="M42.0021 143.485L40.2504 148.943C34.524 152.929 30.9077 157.729 29.4214 162.753L41.3651 163.978C42.46 160.536 44.9549 157.259 48.8167 154.497V143.485H42.0021Z" fill="black"/>
<path d="M48.7902 143.486L40.2504 137.939C34.524 141.919 30.9077 146.726 29.4214 151.743L41.3651 152.975C42.4334 149.533 44.9284 146.248 48.7902 143.486Z" fill="#72A276"/>
<path opacity="0.1" d="M48.7902 143.486L40.2504 137.939C34.524 141.919 30.9077 146.726 29.4214 151.743L41.3651 152.975C42.4334 149.533 44.9284 146.248 48.7902 143.486Z" fill="black"/>
<path d="M29.4214 151.743V162.754L41.3386 163.978V152.974L29.4214 151.743Z" fill="#263238"/>
<path d="M40.8675 165.912V154.901L37.3242 154.542L28.645 157.088V168.085C28.7006 172.454 30.1085 176.665 32.6263 179.992L43.4022 176.431C41.1528 173.109 40.2769 169.473 40.8675 165.912Z" fill="#72A276"/>
<path opacity="0.3" d="M40.8675 165.912V154.901L37.3242 154.542L28.645 157.088V168.085C28.7006 172.454 30.1085 176.665 32.6263 179.992L43.4022 176.431C41.1528 173.109 40.2769 169.473 40.8675 165.912Z" fill="black"/>
<path d="M32.6663 168.988L43.4422 165.419V176.431L32.6663 179.992V168.988Z" fill="#263238"/>
<path d="M40.8744 154.901L28.9306 153.676C27.9619 158.857 29.1894 164.173 32.6332 168.988L43.4091 165.419C41.1531 162.097 40.2772 158.462 40.8744 154.901Z" fill="#72A276"/>
<path opacity="0.1" d="M40.8744 154.901L28.9306 153.676C27.9619 158.857 29.1894 164.173 32.6332 168.988L43.4091 165.419C41.1531 162.097 40.2772 158.462 40.8744 154.901Z" fill="black"/>
<path d="M53.6208 179.977C48.5713 176.699 46.0498 172.407 46.0498 168.114V157.088H97.7198V168.092C97.7198 172.392 95.1983 176.684 90.1488 179.962C80.063 186.531 63.7133 186.531 53.6208 179.977Z" fill="#37474F"/>
<path d="M71.8878 173.885C86.1543 173.885 97.7195 166.371 97.7195 157.103C97.7195 147.834 86.1543 140.321 71.8878 140.321C57.6214 140.321 46.0562 147.834 46.0562 157.103C46.0562 166.371 57.6214 173.885 71.8878 173.885Z" fill="#455A64"/>
<path d="M50.9132 183.126V181.723L34.0393 170.727V181.723C36.18 184.183 38.6195 186.289 41.2852 187.979C44.3358 189.929 47.5636 191.506 50.9132 192.682L56.394 185.695C54.5091 185.004 52.6763 184.146 50.9132 183.126Z" fill="#72A276"/>
<path opacity="0.3" d="M50.9132 183.126V181.723L34.0393 170.727V181.723C36.18 184.183 38.6195 186.289 41.2852 187.979C44.3358 189.929 47.5636 191.506 50.9132 192.682L56.394 185.695C54.5091 185.004 52.6763 184.146 50.9132 183.126Z" fill="black"/>
<path d="M49.7789 171.444C47.9475 170.278 46.2645 168.839 44.7758 167.166L34.0132 170.727C36.1556 173.185 38.5948 175.291 41.2591 176.983C44.311 178.931 47.5385 180.507 50.8871 181.686L56.3679 174.691C54.0783 173.866 51.8704 172.778 49.7789 171.444Z" fill="#72A276"/>
<path opacity="0.1" d="M49.7789 171.444C47.9475 170.278 46.2645 168.839 44.7758 167.166L34.0132 170.727C36.1556 173.185 38.5948 175.291 41.2591 176.983C44.311 178.931 47.5385 180.507 50.8871 181.686L56.3679 174.691C54.0783 173.866 51.8704 172.778 49.7789 171.444Z" fill="black"/>
<path d="M50.9136 192.69V181.686L56.3944 174.691V185.702L50.9136 192.69Z" fill="#263238"/>
<path d="M53.5945 182.575V193.586C61.2783 195.836 69.2387 196.648 77.1568 195.99V184.986L53.5945 182.575Z" fill="#72A276"/>
<path opacity="0.1" d="M53.5945 182.575V193.586C61.2783 195.836 69.2387 196.648 77.1568 195.99V184.986L53.5945 182.575Z" fill="black"/>
<path d="M59.0685 175.58L53.5811 182.575C61.265 184.823 69.2249 185.638 77.1434 184.986L75.2722 177.244C69.8269 177.642 64.3598 177.08 59.0685 175.58Z" fill="#72A276"/>
<path opacity="0.2" d="M59.0685 175.58L53.5811 182.575C61.265 184.823 69.2249 185.638 77.1434 184.986L75.2722 177.244C69.8269 177.642 64.3598 177.08 59.0685 175.58Z" fill="white"/>
<path d="M94.9792 181.722L103.526 187.277C109.252 183.298 112.868 178.49 114.355 173.466V162.462L102.411 172.242C101.336 175.683 98.8411 178.968 94.9792 181.722Z" fill="#72A276"/>
<path opacity="0.1" d="M94.9792 181.722L103.526 187.277C109.252 183.298 112.868 178.49 114.355 173.466V162.462L102.411 172.242C101.336 175.683 98.8411 178.968 94.9792 181.722Z" fill="black"/>
<path d="M94.9792 170.72L103.526 176.274C109.252 172.287 112.868 167.487 114.355 162.463L102.411 161.239C101.336 164.68 98.8411 167.957 94.9792 170.72Z" fill="#72A276"/>
<path opacity="0.2" d="M94.9792 170.72L103.526 176.274C109.252 172.287 112.868 167.487 114.355 162.463L102.411 161.239C101.336 164.68 98.8411 167.957 94.9792 170.72Z" fill="white"/>
<path d="M103.519 176.273V187.277L94.9792 181.731V170.719L103.519 176.273Z" fill="#72A276"/>
<path opacity="0.3" d="M103.519 176.273V187.277L94.9792 181.731V170.719L103.519 176.273Z" fill="black"/>
<path d="M80.1357 184.709V187.695C79.5054 187.807 78.8816 187.904 78.2446 187.986L80.1357 195.735C87.866 194.765 95.2579 192.413 101.369 188.696V177.654L80.1357 184.709Z" fill="#72A276"/>
<path opacity="0.1" d="M80.1357 184.709V187.695C79.5054 187.807 78.8816 187.904 78.2446 187.986L80.1357 195.735C87.866 194.765 95.2579 192.413 101.369 188.696V177.654L80.1357 184.709Z" fill="black"/>
<path d="M78.2446 176.946L80.1357 184.71C87.866 183.739 95.2579 181.395 101.369 177.677L92.8293 172.123C88.2646 174.703 83.3241 176.337 78.2446 176.946Z" fill="#72A276"/>
<path opacity="0.2" d="M78.2446 176.946L80.1357 184.71C87.866 183.739 95.2579 181.395 101.369 177.677L92.8293 172.123C88.2646 174.703 83.3241 176.337 78.2446 176.946Z" fill="white"/>
<path d="M80.1357 184.687V195.691L78.2446 187.957V176.946L80.1357 184.687Z" fill="#72A276"/>
<path opacity="0.3" d="M80.1357 184.687V195.691L78.2446 187.957V176.946L80.1357 184.687Z" fill="black"/>
<path d="M245.729 111.058C245.705 110.572 245.581 110.1 245.365 109.678C245.15 109.257 244.849 108.898 244.488 108.632L226.519 96.9633C225.856 96.5154 225.279 96.8812 225.279 97.777V117.314C225.301 117.799 225.425 118.272 225.641 118.694C225.856 119.116 226.157 119.474 226.519 119.74L234.044 124.622L236.419 135.44C236.412 135.638 236.474 135.831 236.593 135.977C236.712 136.124 236.877 136.211 237.053 136.22C237.229 136.229 237.401 136.158 237.531 136.025C237.661 135.891 237.739 135.705 237.747 135.507L239.923 128.437L244.521 131.423C245.185 131.871 245.762 131.505 245.762 130.617L245.729 111.058Z" fill="#72A276"/>
<path opacity="0.5" d="M245.729 111.058C245.705 110.572 245.581 110.1 245.365 109.678C245.15 109.257 244.849 108.898 244.488 108.632L226.519 96.9633C225.856 96.5154 225.279 96.8812 225.279 97.777V117.314C225.301 117.799 225.425 118.272 225.641 118.694C225.856 119.116 226.157 119.474 226.519 119.74L234.044 124.622L236.419 135.44C236.412 135.638 236.474 135.831 236.593 135.977C236.712 136.124 236.877 136.211 237.053 136.22C237.229 136.229 237.401 136.158 237.531 136.025C237.661 135.891 237.739 135.705 237.747 135.507L239.923 128.437L244.521 131.423C245.185 131.871 245.762 131.505 245.762 130.617L245.729 111.058Z" fill="white"/>
<path d="M232.087 105.861C232.454 106.096 232.792 106.382 233.095 106.712C233.366 107.009 233.609 107.337 233.819 107.69C234.001 108.003 234.15 108.339 234.263 108.691C234.357 108.99 234.417 109.301 234.442 109.616C234.442 109.937 234.476 110.273 234.476 110.624C234.476 110.975 234.476 111.296 234.442 111.595C234.426 111.835 234.365 112.069 234.263 112.281C234.164 112.477 234.007 112.628 233.819 112.707C233.582 112.78 233.332 112.78 233.095 112.707C232.738 112.614 232.398 112.455 232.087 112.237C231.718 112.004 231.377 111.721 231.072 111.393C230.8 111.105 230.559 110.782 230.355 110.43C230.008 109.853 229.792 109.189 229.725 108.497C229.725 108.176 229.725 107.84 229.725 107.489C229.725 107.138 229.725 106.817 229.725 106.526C229.745 106.283 229.808 106.047 229.91 105.831C230.006 105.632 230.165 105.481 230.355 105.406C230.587 105.324 230.834 105.311 231.072 105.369C231.433 105.464 231.777 105.631 232.087 105.861ZM238.43 110.408C238.498 110.352 238.579 110.318 238.663 110.311C238.783 110.319 238.9 110.363 239.001 110.437L239.95 111.057C240.059 111.127 240.153 111.221 240.228 111.333C240.291 111.429 240.325 111.543 240.328 111.662C240.331 111.687 240.331 111.712 240.328 111.736C240.316 111.764 240.301 111.789 240.282 111.811L232.465 118.306C232.397 118.363 232.317 118.399 232.233 118.41C232.111 118.401 231.994 118.355 231.894 118.276L230.946 117.664C230.835 117.594 230.74 117.497 230.667 117.38C230.603 117.288 230.566 117.176 230.561 117.059C230.555 117.032 230.555 117.004 230.561 116.977C230.57 116.948 230.586 116.922 230.607 116.902L238.43 110.408ZM232.923 110.408C232.932 110.298 232.932 110.188 232.923 110.079V109.116C232.932 108.999 232.932 108.882 232.923 108.765C232.901 108.503 232.831 108.249 232.717 108.019C232.564 107.739 232.346 107.512 232.087 107.362C231.782 107.16 231.569 107.108 231.423 107.198C231.361 107.254 231.31 107.326 231.274 107.407C231.239 107.488 231.219 107.577 231.218 107.668C231.218 107.735 231.218 107.84 231.218 107.996C231.218 108.153 231.218 108.302 231.218 108.467C231.218 108.631 231.218 108.795 231.218 108.952C231.218 109.109 231.218 109.228 231.218 109.31C231.242 109.572 231.312 109.825 231.423 110.057C231.586 110.341 231.816 110.568 232.087 110.714C232.392 110.915 232.604 110.968 232.717 110.878C232.777 110.824 232.826 110.756 232.86 110.679C232.895 110.601 232.914 110.516 232.916 110.43L232.923 110.408ZM238.935 116.537C239.303 116.771 239.644 117.057 239.95 117.388C240.219 117.684 240.459 118.012 240.666 118.366C240.854 118.675 241.003 119.012 241.111 119.366C241.203 119.666 241.266 119.976 241.297 120.292C241.297 120.613 241.297 120.949 241.297 121.3C241.297 121.65 241.297 121.971 241.297 122.27C241.276 122.511 241.213 122.744 241.111 122.957C241.066 123.057 241.003 123.147 240.927 123.22C240.85 123.293 240.762 123.348 240.666 123.382C240.432 123.46 240.184 123.46 239.95 123.382C239.591 123.289 239.248 123.13 238.935 122.912C238.568 122.68 238.229 122.396 237.926 122.068C237.654 121.779 237.411 121.456 237.203 121.105C237.019 120.793 236.87 120.457 236.758 120.105C236.665 119.806 236.605 119.495 236.579 119.179C236.579 118.851 236.579 118.515 236.579 118.164C236.579 117.813 236.579 117.492 236.579 117.201C236.594 116.958 236.655 116.721 236.758 116.507C236.856 116.309 237.014 116.158 237.203 116.081C237.44 116.015 237.688 116.015 237.926 116.081C238.285 116.173 238.626 116.334 238.935 116.559V116.537ZM239.777 121.105C239.783 120.996 239.783 120.886 239.777 120.777V119.836C239.777 119.687 239.777 119.568 239.777 119.493C239.75 119.232 239.68 118.979 239.572 118.746C239.407 118.464 239.178 118.238 238.908 118.089C238.603 117.888 238.39 117.836 238.278 117.925C238.215 117.982 238.164 118.053 238.128 118.135C238.093 118.216 238.074 118.305 238.072 118.396C238.065 118.505 238.065 118.615 238.072 118.724C238.072 118.873 238.072 119.03 238.072 119.194C238.072 119.359 238.072 119.523 238.072 119.687C238.066 119.804 238.066 119.921 238.072 120.038C238.093 120.3 238.163 120.555 238.278 120.784C238.429 121.066 238.647 121.293 238.908 121.441C239.213 121.643 239.426 121.695 239.572 121.606C239.634 121.547 239.684 121.474 239.72 121.391C239.755 121.309 239.775 121.219 239.777 121.128V121.105Z" fill="#FAFAFA"/>
<path d="M167.995 36.1501C167.971 35.6648 167.846 35.1925 167.631 34.7712C167.415 34.3499 167.115 33.9912 166.754 33.7238L148.785 22.063C148.122 21.615 147.545 21.9734 147.545 22.8692V42.406C147.568 42.8927 147.692 43.3664 147.908 43.7891C148.123 44.2118 148.424 44.5717 148.785 44.8397L156.31 49.7221L158.686 60.517C158.712 60.6842 158.787 60.8365 158.901 60.9487C159.014 61.0608 159.158 61.1262 159.309 61.1341C159.459 61.1419 159.608 61.0917 159.73 60.9917C159.852 60.8917 159.94 60.748 159.979 60.5842L162.156 53.5145L166.754 56.5006C167.418 56.9485 167.995 56.5902 167.995 55.6944V36.1501Z" fill="#72A276"/>
<path opacity="0.5" d="M167.995 36.1501C167.971 35.6648 167.846 35.1925 167.631 34.7712C167.415 34.3499 167.115 33.9912 166.754 33.7238L148.785 22.063C148.122 21.615 147.545 21.9734 147.545 22.8692V42.406C147.568 42.8927 147.692 43.3664 147.908 43.7891C148.123 44.2118 148.424 44.5717 148.785 44.8397L156.31 49.7221L158.686 60.517C158.712 60.6842 158.787 60.8365 158.901 60.9487C159.014 61.0608 159.158 61.1262 159.309 61.1341C159.459 61.1419 159.608 61.0917 159.73 60.9917C159.852 60.8917 159.94 60.748 159.979 60.5842L162.156 53.5145L166.754 56.5006C167.418 56.9485 167.995 56.5902 167.995 55.6944V36.1501Z" fill="white"/>
<path d="M154.353 30.9839C154.719 31.2186 155.058 31.5045 155.361 31.8349C155.631 32.1332 155.873 32.4608 156.085 32.8129C156.269 33.1241 156.419 33.4602 156.529 33.8132C156.623 34.1123 156.683 34.4232 156.708 34.7389C156.708 35.0599 156.741 35.3959 156.741 35.7468C156.741 36.0976 156.741 36.4186 156.708 36.7173C156.693 36.9604 156.632 37.197 156.529 37.4115C156.433 37.6088 156.274 37.758 156.085 37.8296C155.851 37.9153 155.601 37.9282 155.361 37.8669C155.003 37.7739 154.662 37.6123 154.353 37.3891C153.983 37.1595 153.641 36.8758 153.337 36.5456C153.066 36.2576 152.825 35.9343 152.621 35.5825C152.433 35.273 152.284 34.9365 152.176 34.5822C152.084 34.2823 152.022 33.9718 151.99 33.6565C151.99 33.328 151.99 32.992 151.99 32.6486C151.99 32.3052 151.99 31.9693 151.99 31.6781C152.011 31.4352 152.074 31.1992 152.176 30.9839C152.272 30.7848 152.431 30.633 152.621 30.5583C152.856 30.4923 153.102 30.4923 153.337 30.5583C153.695 30.6332 154.039 30.7772 154.353 30.9839ZM160.696 35.5303C160.766 35.4775 160.845 35.4442 160.928 35.4332C161.05 35.4422 161.167 35.4887 161.267 35.5676L162.216 36.1797C162.323 36.2515 162.418 36.3452 162.494 36.456C162.556 36.552 162.59 36.6663 162.594 36.7844C162.596 36.8117 162.596 36.8393 162.594 36.8666C162.581 36.8931 162.565 36.9181 162.547 36.9412L154.731 43.4361C154.662 43.4888 154.582 43.5221 154.499 43.5331C154.377 43.5241 154.26 43.4777 154.16 43.3987L153.211 42.7866C153.101 42.719 153.006 42.6246 152.933 42.5104C152.871 42.4144 152.837 42.3001 152.833 42.1819C152.827 42.1575 152.827 42.1316 152.833 42.1072C152.842 42.0759 152.858 42.0476 152.88 42.0251L160.696 35.5303ZM155.189 35.5303C155.198 35.421 155.198 35.311 155.189 35.2018V34.2388C155.198 34.1245 155.198 34.0096 155.189 33.8953C155.169 33.6326 155.099 33.3779 154.983 33.1488C154.832 32.8652 154.614 32.635 154.353 32.4844C154.047 32.2903 153.835 32.2306 153.689 32.3276C153.628 32.3856 153.578 32.4574 153.542 32.5384C153.507 32.6194 153.487 32.7078 153.483 32.7979C153.483 32.8577 153.483 32.9696 153.483 33.119C153.483 33.2683 153.483 33.425 153.483 33.5967C153.483 33.7684 153.483 33.9252 153.483 34.082C153.483 34.2388 153.483 34.3582 153.483 34.4329C153.509 34.6941 153.579 34.9474 153.689 35.1794C153.852 35.4634 154.082 35.6908 154.353 35.8363C154.658 36.0379 154.87 36.0902 154.983 36.0006C155.044 35.9473 155.094 35.8796 155.13 35.8022C155.166 35.7249 155.186 35.6397 155.189 35.5527V35.5303ZM161.2 41.6593C161.571 41.894 161.912 42.1827 162.216 42.5178C162.486 42.81 162.727 43.1356 162.932 43.4883C163.118 43.7987 163.268 44.1349 163.377 44.4887C163.468 44.7888 163.531 45.0992 163.563 45.4144C163.563 45.7429 163.563 46.0788 163.563 46.4297C163.563 46.7806 163.563 47.1016 163.563 47.3927C163.542 47.6357 163.479 47.8717 163.377 48.087C163.281 48.2861 163.122 48.4378 162.932 48.5125C162.698 48.5864 162.45 48.5864 162.216 48.5125C161.857 48.4195 161.514 48.2606 161.2 48.0422C160.837 47.8056 160.498 47.5225 160.192 47.1986C159.921 46.9045 159.679 46.5792 159.469 46.2281C159.286 45.9152 159.137 45.5795 159.024 45.2278C158.931 44.9287 158.87 44.6178 158.845 44.302C158.845 43.981 158.812 43.6451 158.812 43.2942C158.812 42.9434 158.812 42.6223 158.845 42.3237C158.861 42.0808 158.922 41.8443 159.024 41.6295C159.124 41.4354 159.281 41.2872 159.469 41.2114C159.702 41.1267 159.951 41.1113 160.192 41.1666C160.552 41.2716 160.893 41.4459 161.2 41.6817V41.6593ZM162.043 46.2281C162.049 46.1187 162.049 46.009 162.043 45.8996V44.959C162.043 44.8097 162.043 44.6902 162.043 44.6156C162.02 44.3536 161.95 44.0996 161.837 43.8691C161.675 43.5828 161.445 43.3528 161.174 43.2046C160.869 43.0105 160.656 42.9508 160.544 43.0479C160.48 43.1035 160.428 43.1748 160.392 43.2563C160.357 43.3378 160.338 43.4274 160.338 43.5182C160.331 43.625 160.331 43.7324 160.338 43.8392C160.338 43.9885 160.338 44.1453 160.338 44.317C160.338 44.4887 160.338 44.6455 160.338 44.8022C160.331 44.9191 160.331 45.0363 160.338 45.1531C160.357 45.4158 160.428 45.6706 160.544 45.8996C160.694 46.1832 160.913 46.4134 161.174 46.564C161.479 46.7581 161.7 46.8104 161.837 46.7208C161.9 46.6641 161.951 46.5926 161.987 46.5113C162.022 46.4301 162.042 46.341 162.043 46.2505V46.2281Z" fill="#FAFAFA"/>
<path d="M44.6296 110.452C44.6532 109.967 44.7777 109.495 44.9932 109.073C45.2088 108.652 45.5092 108.293 45.8704 108.026L63.8391 96.3578C64.5026 95.9099 65.0799 96.2757 65.0799 97.1715V116.708C65.0574 117.194 64.9333 117.667 64.7176 118.089C64.502 118.51 64.201 118.869 63.8391 119.135L56.3145 124.017L53.9391 134.819C53.947 135.017 53.8847 135.211 53.7658 135.357C53.647 135.503 53.4814 135.591 53.3054 135.6C53.1294 135.608 52.9575 135.538 52.8274 135.405C52.6974 135.271 52.6199 135.085 52.612 134.887L50.4422 127.817L45.8439 130.803C45.1803 131.251 44.603 130.885 44.603 129.997L44.6296 110.452Z" fill="#72A276"/>
<g opacity="0.5">
<path opacity="0.5" d="M44.6296 110.452C44.6532 109.967 44.7777 109.495 44.9932 109.073C45.2088 108.652 45.5092 108.293 45.8704 108.026L63.8391 96.3578C64.5026 95.9099 65.0799 96.2757 65.0799 97.1715V116.708C65.0574 117.194 64.9333 117.667 64.7176 118.089C64.502 118.51 64.201 118.869 63.8391 119.135L56.3145 124.017L53.9391 134.819C53.947 135.017 53.8847 135.211 53.7658 135.357C53.647 135.503 53.4814 135.591 53.3054 135.6C53.1294 135.608 52.9575 135.538 52.8274 135.405C52.6974 135.271 52.6199 135.085 52.612 134.887L50.4422 127.817L45.8439 130.803C45.1803 131.251 44.603 130.885 44.603 129.997L44.6296 110.452Z" fill="white"/>
</g>
<path d="M50.9066 108.997C51.2658 108.746 51.6609 108.566 52.0744 108.467C52.3521 108.404 52.6394 108.419 52.9105 108.512C53.1286 108.6 53.3103 108.775 53.4214 109.004C53.5401 109.251 53.6103 109.523 53.6271 109.803C53.6537 110.147 53.6669 110.52 53.6669 110.923C53.6669 111.326 53.6537 111.714 53.6271 112.088C53.5981 112.454 53.529 112.815 53.4214 113.163C53.2943 113.568 53.1226 113.954 52.9105 114.312C52.6704 114.72 52.3899 115.096 52.0744 115.432C51.7218 115.81 51.3297 116.138 50.9066 116.41C50.5431 116.66 50.1467 116.844 49.7321 116.955C49.4575 117.024 49.1716 117.011 48.9027 116.918C48.6846 116.829 48.5029 116.654 48.3918 116.425C48.271 116.179 48.1986 115.906 48.1794 115.626C48.1794 115.283 48.1794 114.88 48.1794 114.506C48.1794 114.133 48.1794 113.715 48.1794 113.342C48.2112 112.975 48.2825 112.614 48.3918 112.267C48.5162 111.86 48.688 111.473 48.9027 111.117C49.144 110.71 49.422 110.332 49.7321 109.99C50.0862 109.606 50.4807 109.273 50.9066 108.997ZM58.2056 104.734C58.2809 104.571 58.3697 104.416 58.471 104.271C58.5826 104.128 58.715 104.007 58.8625 103.913L59.964 103.166C60.0555 103.091 60.1699 103.058 60.2825 103.077C60.3621 103.077 60.4019 103.174 60.4019 103.293C60.4066 103.333 60.4066 103.373 60.4019 103.413L60.3488 103.57L51.3114 122.815C51.2361 122.976 51.1472 123.129 51.046 123.271C50.9357 123.416 50.8031 123.537 50.6545 123.629L49.5596 124.375C49.4655 124.451 49.3491 124.483 49.2345 124.465C49.1549 124.465 49.115 124.368 49.115 124.249C49.1104 124.209 49.1104 124.169 49.115 124.129L49.1681 123.972L58.2056 104.734ZM51.8754 113.043C51.8844 112.909 51.8844 112.774 51.8754 112.64V111.528C51.885 111.401 51.885 111.274 51.8754 111.147C51.8717 111.042 51.8486 110.94 51.8075 110.846C51.7663 110.752 51.7081 110.669 51.6365 110.602C51.5038 110.497 51.2583 110.602 50.9066 110.789C50.6352 110.942 50.4035 111.172 50.2338 111.456C50.0642 111.74 49.9622 112.068 49.9378 112.409C49.9281 112.545 49.9281 112.682 49.9378 112.819C49.9378 112.998 49.9378 113.185 49.9378 113.379C49.9378 113.573 49.9378 113.752 49.9378 113.931C49.9275 114.056 49.9275 114.181 49.9378 114.305C49.9378 114.41 49.9594 114.514 50.0008 114.609C50.0422 114.703 50.1024 114.786 50.1767 114.85C50.3094 114.954 50.5483 114.887 50.9066 114.663C51.206 114.494 51.4585 114.236 51.6365 113.917C51.7686 113.647 51.85 113.35 51.8754 113.043ZM58.8227 111.102C59.1848 110.851 59.5818 110.669 59.9971 110.565C60.2726 110.501 60.5577 110.517 60.8266 110.609C61.0447 110.698 61.2264 110.873 61.3375 111.102C61.4583 111.348 61.5307 111.621 61.5498 111.901C61.5498 112.244 61.583 112.647 61.583 113.021C61.583 113.394 61.583 113.812 61.5498 114.185C61.5186 114.552 61.4473 114.913 61.3375 115.26C61.2119 115.669 61.0402 116.058 60.8266 116.417C60.3183 117.281 59.6363 117.997 58.8359 118.508C58.4756 118.76 58.0811 118.944 57.6681 119.053C57.3915 119.125 57.1026 119.112 56.832 119.015C56.6126 118.929 56.4302 118.753 56.3211 118.523C56.2017 118.276 56.1315 118.004 56.1154 117.724C56.1154 117.388 56.0756 116.977 56.0756 116.611C56.0756 116.246 56.0756 115.813 56.1154 115.439C56.1441 115.075 56.2132 114.717 56.3211 114.372C56.4482 113.964 56.6198 113.575 56.832 113.215C57.0737 112.806 57.354 112.428 57.6681 112.088C58.0117 111.696 58.3999 111.357 58.8227 111.08V111.102ZM59.7914 115.118C59.8005 114.984 59.8005 114.849 59.7914 114.715V113.61C59.801 113.484 59.801 113.356 59.7914 113.23C59.7919 113.124 59.7706 113.02 59.7292 112.926C59.6877 112.831 59.6272 112.748 59.5526 112.685C59.4199 112.58 59.181 112.64 58.8227 112.871C58.5244 113.042 58.2723 113.3 58.0928 113.618C57.9646 113.884 57.8835 114.176 57.8539 114.476C57.8475 114.611 57.8475 114.745 57.8539 114.88C57.8539 115.066 57.8539 115.253 57.8539 115.439C57.8539 115.626 57.8539 115.82 57.8539 115.992C57.847 116.116 57.847 116.241 57.8539 116.365C57.8575 116.47 57.8807 116.572 57.9218 116.666C57.963 116.76 58.0212 116.843 58.0928 116.91C58.2255 117.015 58.471 116.955 58.8227 116.723C59.1223 116.555 59.3748 116.296 59.5526 115.977C59.6894 115.707 59.771 115.406 59.7914 115.096V115.118Z" fill="#FAFAFA"/>
</g>
<defs>
<filter id="filter0_d" x="0" y="0.0571289" width="288" height="247.59" filterUnits="userSpaceOnUse" color-interpolation-filters="sRGB">
<feFlood flood-opacity="0" result="BackgroundImageFix"/>
<feColorMatrix in="SourceAlpha" type="matrix" values="0 0 0 0 0 0 0 0 0 0 0 0 0 0 0 0 0 0 127 0"/>
<feOffset dy="4"/>
<feGaussianBlur stdDeviation="2"/>
<feColorMatrix type="matrix" values="0 0 0 0 0 0 0 0 0 0 0 0 0 0 0 0 0 0 0.16 0"/>
<feBlend mode="normal" in2="BackgroundImageFix" result="effect1_dropShadow"/>
<feBlend mode="normal" in="SourceGraphic" in2="effect1_dropShadow" result="shape"/>
</filter>
</defs>
</svg>
