<svg width="302" height="260" viewBox="0 0 302 260" fill="none" xmlns="http://www.w3.org/2000/svg">
<g filter="url(#filter0_d)">
<path d="M46.9748 226.721C104.273 260.427 197.173 260.427 254.472 226.721C311.77 193.015 311.77 138.442 254.472 104.768C197.173 71.0931 104.273 71.0617 46.9748 104.768C-10.3233 138.474 -10.3233 193.038 46.9748 226.721Z" fill="#F5F5F5"/>
<path d="M78.6267 71.8062L92.4357 62.8389L78.6267 53.8716L64.6924 62.8389L78.6267 71.8062Z" stroke="#EBEBEB" stroke-width="1.08419" stroke-linecap="round" stroke-linejoin="round"/>
<path d="M67.9043 62.8466L78.6338 27.957V69.8152L67.9043 62.8466Z" fill="#E0E0E0"/>
<path d="M78.6338 69.8152L89.3563 62.8466L78.6338 27.957V69.8152Z" fill="#E6E6E6"/>
<path d="M61.7522 82.7487L75.5612 73.7813L61.7522 64.814L47.8179 73.7813L61.7522 82.7487Z" stroke="#EBEBEB" stroke-width="1.08419" stroke-linecap="round" stroke-linejoin="round"/>
<path d="M51.0295 73.7892L61.7521 21.9761V80.7577L51.0295 73.7892Z" fill="#E0E0E0"/>
<path d="M61.7522 80.7577L72.4747 73.7892L61.7522 21.9761V80.7577Z" fill="#E6E6E6"/>
<path d="M44.8776 93.6916L58.6866 84.7242L44.8776 75.7568L30.9363 84.7242L44.8776 93.6916Z" stroke="#EBEBEB" stroke-width="1.08419" stroke-linecap="round" stroke-linejoin="round"/>
<path d="M34.155 84.7321L44.8776 53.8716V91.7006L34.155 84.7321Z" fill="#E0E0E0"/>
<path d="M44.8777 91.7006L55.6002 84.7321L44.8777 53.8716V91.7006Z" fill="#E6E6E6"/>
<path d="M28.0031 104.634L41.8121 95.667L28.0031 86.6997L14.0618 95.667L28.0031 104.634Z" stroke="#EBEBEB" stroke-width="1.08419" stroke-linecap="round" stroke-linejoin="round"/>
<path d="M17.2737 95.6746L28.0032 43.2812V102.643L17.2737 95.6746Z" fill="#E0E0E0"/>
<path d="M28.0032 102.643L38.7256 95.6746L28.0032 43.2812V102.643Z" fill="#E6E6E6"/>
<path d="M212.041 59.8838L285.685 107.715" stroke="#EBEBEB" stroke-width="1.08419" stroke-miterlimit="10" stroke-linecap="round"/>
<path d="M285.685 102.643C285.595 96.6387 285.221 90.6441 284.563 84.6848C283.866 78.2101 282.473 67.2831 276.934 63.6773C271.395 60.0716 269.305 66.5933 268.503 69.7993C267.458 73.9616 262.031 71.3278 261.279 64.469C260.526 57.6103 260.031 35.7563 253.524 31.5469C247.017 27.3376 244.92 37.4886 244.181 40.3262C242.725 45.8994 238.454 44.363 237.061 40.6711C235.667 36.9791 231.863 36.0776 230.428 41.2746C228.993 46.4716 228.108 52.4368 223.461 49.3719C219.378 46.6833 221.252 41.7841 217.274 39.4561C214.125 37.6218 212.661 46.3697 212.661 55.2195L285.685 102.643Z" fill="#E0E0E0"/>
<path d="M280.334 57.0305C280.334 57.9868 279.567 58.2611 278.634 57.6575L273.06 54.0205C272.602 53.7283 272.21 53.3208 271.915 52.8299C271.62 52.339 271.43 51.778 271.36 51.1908C271.36 50.2423 272.126 49.9601 273.06 50.5715L278.634 54.2086C279.092 54.4991 279.483 54.9051 279.778 55.3947C280.073 55.8843 280.263 56.4442 280.334 57.0305Z" fill="#E6E6E6"/>
<path d="M257.453 26.279C257.453 27.2353 256.694 27.5096 255.753 26.9061L250.18 23.269C249.721 22.9783 249.328 22.5712 249.033 22.08C248.738 21.5888 248.548 21.0271 248.48 20.4393C248.48 19.4909 249.239 19.2087 250.18 19.8201L255.753 23.4571C256.212 23.7466 256.605 24.1524 256.9 24.6422C257.195 25.132 257.384 25.6924 257.453 26.279Z" fill="#E6E6E6"/>
<path d="M239.332 31.9389C239.332 32.8953 238.572 33.1696 237.639 32.566L232.065 28.9288C231.606 28.6381 231.213 28.231 230.918 27.7398C230.623 27.2486 230.434 26.6868 230.365 26.099C230.365 25.1505 231.124 24.8683 232.065 25.4798L237.639 29.117C238.096 29.4079 238.487 29.8142 238.78 30.3038C239.074 30.7935 239.263 31.3533 239.332 31.9389Z" fill="#E6E6E6"/>
<path d="M222.151 33.8118C222.151 34.7681 221.391 35.0425 220.451 34.4311L214.877 30.8018C214.42 30.5092 214.029 30.1014 213.735 29.6105C213.442 29.1195 213.253 28.5588 213.184 27.972C213.184 27.0236 213.944 26.7414 214.877 27.3528L220.451 30.9821C220.909 31.2738 221.302 31.6812 221.597 32.1722C221.891 32.6631 222.081 33.2244 222.151 33.8118Z" fill="#E6E6E6"/>
<path d="M208.976 52.8209V1" stroke="#EBEBEB" stroke-width="1.08419" stroke-miterlimit="10" stroke-linecap="round"/>
<path d="M30.4695 167.444C30.4695 167.444 31.6122 155.937 28.4421 144.978C25.4601 134.616 19.4683 129.121 15.8384 127.475C8.97575 124.394 8.36264 132.899 13.5044 138.786C17.2737 143.113 26.345 152.033 27.9056 167.162L30.4695 167.444Z" fill="#72A276"/>
<path opacity="0.7" d="M30.4695 167.444C30.4695 167.444 31.6122 155.937 28.4421 144.978C25.4601 134.616 19.4683 129.121 15.8384 127.475C8.97575 124.394 8.36264 132.899 13.5044 138.786C17.2737 143.113 26.345 152.033 27.9056 167.162L30.4695 167.444Z" fill="white"/>
<path d="M13.9854 129.851C18.1308 132.987 29.2713 142.04 29.6754 167.359" stroke="#FAFAFA" stroke-width="1.08419" stroke-miterlimit="10" stroke-linecap="round"/>
<path d="M27.5503 175.307C25.4183 163.706 21.0638 159.496 13.2815 155.013C9.95117 153.1 6.04954 150.968 4.64217 148.53C3.2348 146.092 3.94545 142.816 8.73888 142.886C17.4966 143.02 27.4736 154.895 28.8044 167.907L27.5503 175.307Z" fill="#72A276"/>
<path opacity="0.8" d="M27.5503 175.307C25.4183 163.706 21.0638 159.496 13.2815 155.013C9.95117 153.1 6.04954 150.968 4.64217 148.53C3.2348 146.092 3.94545 142.816 8.73888 142.886C17.4966 143.02 27.4736 154.895 28.8044 167.907L27.5503 175.307Z" fill="white"/>
<path d="M8.00049 145.41C14.6123 146.421 25.0561 155.091 28.3725 170.494" stroke="#FAFAFA" stroke-width="1.08419" stroke-miterlimit="10" stroke-linecap="round"/>
<path d="M271.813 162.013C274.495 156.212 276.578 139.939 273.13 132.414C269.681 124.889 264.553 125.493 263.759 127.93C263.062 130.18 264.783 134.201 267.012 138.991C269.242 143.78 271.123 154.041 269.012 158.822L271.813 162.013Z" fill="#72A276"/>
<path opacity="0.7" d="M271.813 162.013C274.495 156.212 276.578 139.939 273.13 132.414C269.681 124.889 264.553 125.493 263.759 127.93C263.062 130.18 264.783 134.201 267.012 138.991C269.242 143.78 271.123 154.041 269.012 158.822L271.813 162.013Z" fill="white"/>
<path d="M267.145 128.322C269.339 130.305 275.624 142.432 271.228 159.073" stroke="#FAFAFA" stroke-width="1.08419" stroke-miterlimit="10" stroke-linecap="round"/>
<path d="M270.963 168.158C269.346 164.521 265.807 158.501 268.218 154.37C270.628 150.239 273.15 153.892 275.087 151.195C277.024 148.499 274.809 144.14 276.481 141.789C279.714 137.164 282.055 142.534 284.591 141.828C286.423 141.319 288.464 136.749 293.738 137.305C299.013 137.862 298.748 142.565 296.4 144.775C294.052 146.986 291.265 149.189 293.077 152.504C294.679 155.444 295.508 160.876 290.025 162.984C284.786 164.999 287.377 167.554 286.541 170.439C285.705 173.324 280.759 176.059 275.498 173.833L270.963 168.158Z" fill="#72A276"/>
<path opacity="0.8" d="M270.963 168.158C269.346 164.521 265.807 158.501 268.218 154.37C270.628 150.239 273.15 153.892 275.087 151.195C277.024 148.499 274.809 144.14 276.481 141.789C279.714 137.164 282.055 142.534 284.591 141.828C286.423 141.319 288.464 136.749 293.738 137.305C299.013 137.862 298.748 142.565 296.4 144.775C294.052 146.986 291.265 149.189 293.077 152.504C294.679 155.444 295.508 160.876 290.025 162.984C284.786 164.999 287.377 167.554 286.541 170.439C285.705 173.324 280.759 176.059 275.498 173.833L270.963 168.158Z" fill="white"/>
<path d="M294.463 139.971C288.75 141.695 275.067 154.206 273.91 169.906" stroke="#FAFAFA" stroke-width="1.08419" stroke-miterlimit="10" stroke-linecap="round"/>
<path d="M290.346 156.455C287.524 155.734 280.355 155.632 277.672 157.098" stroke="#FAFAFA" stroke-width="1.08419" stroke-miterlimit="10" stroke-linecap="round"/>
<path d="M279.268 143.168C279.268 143.168 281.358 147.723 281.058 151.556" stroke="#FAFAFA" stroke-width="1.08419" stroke-miterlimit="10" stroke-linecap="round"/>
<path d="M201.333 98.6843C200.399 95.0465 198.73 91.701 196.456 88.9095C193.768 85.6123 190.625 82.825 187.148 80.6555C183.11 78.0821 178.816 76.0535 174.356 74.6119C169.442 73.0164 164.402 71.9662 159.307 71.4765C154.044 70.9356 148.747 70.9356 143.484 71.4765C138.391 71.9662 133.353 73.0164 128.442 74.6119C123.979 76.0521 119.683 78.0807 115.643 80.6555C112.166 82.844 109.025 85.6497 106.342 88.9644C104.07 91.7576 102.401 95.1025 101.465 98.7392C100.633 102.103 100.633 105.659 101.465 109.023C102.394 112.661 104.064 116.005 106.342 118.79C109.027 122.108 112.17 124.916 115.65 127.107C119.685 129.68 123.977 131.706 128.435 133.143C133.348 134.745 138.388 135.806 143.484 136.31C148.748 136.843 154.043 136.843 159.307 136.31C164.405 135.804 169.448 134.741 174.363 133.135C178.821 131.698 183.113 129.672 187.148 127.099C190.629 124.911 193.773 122.102 196.456 118.782C198.731 115.995 200.4 112.652 201.333 109.016C202.166 105.636 202.166 102.064 201.333 98.6843Z" fill="#37474F"/>
<path d="M100.838 98.7002H201.953V104.501L100.838 104.18V98.7002Z" fill="#37474F"/>
<path d="M143.484 66.2793L151.385 98.684L128.442 69.4461C133.352 67.8399 138.39 66.7793 143.484 66.2793Z" fill="#455A64"/>
<path d="M159.307 66.2792L151.406 98.684L143.505 66.2635C148.762 65.7292 154.051 65.7345 159.307 66.2792Z" fill="#455A64"/>
<path d="M174.356 69.4461L151.406 98.6841L159.307 66.2637C164.404 66.7688 169.444 67.8347 174.356 69.4461Z" fill="#455A64"/>
<path d="M196.449 83.7905C198.722 86.5861 200.391 89.9337 201.326 93.5731L151.413 98.6838L196.449 83.7905Z" fill="#455A64"/>
<path d="M201.333 93.5811C202.159 96.9435 202.159 100.495 201.333 103.857L151.413 98.6839L201.333 93.5811Z" fill="#455A64"/>
<path d="M201.333 103.858C200.399 107.496 198.73 110.841 196.456 113.633L151.413 98.7393L201.333 103.858Z" fill="#455A64"/>
<path d="M196.456 113.632C193.772 116.949 190.629 119.755 187.148 121.941L151.399 98.6841L196.456 113.632Z" fill="#455A64"/>
<path d="M151.406 98.7237L174.363 127.985C169.447 129.582 164.405 130.632 159.307 131.121L151.399 98.7002L151.406 98.7237Z" fill="#455A64"/>
<path d="M151.399 98.7314L159.307 131.152C154.044 131.693 148.748 131.693 143.484 131.152L151.399 98.7314Z" fill="#455A64"/>
<path d="M151.385 98.7236L143.47 131.144C138.373 130.655 133.33 129.605 128.414 128.009L151.385 98.7236Z" fill="#455A64"/>
<path d="M151.385 98.7236L128.393 127.985C123.936 126.542 119.645 124.514 115.609 121.942L151.385 98.7236Z" fill="#455A64"/>
<path d="M151.378 98.6841L106.335 113.577C104.058 110.789 102.388 107.442 101.458 103.803L151.378 98.6841Z" fill="#455A64"/>
<path d="M151.378 98.6839L101.465 103.857C100.633 100.496 100.633 96.9425 101.465 93.5811L151.378 98.6839Z" fill="#455A64"/>
<path d="M151.378 98.684L101.465 93.5497C102.403 89.9113 104.072 86.5642 106.342 83.7671L151.378 98.684Z" fill="#455A64"/>
<path d="M115.643 75.498L151.378 98.6847L106.342 83.7913C109.026 80.482 112.167 77.6815 115.643 75.498Z" fill="#455A64"/>
<path d="M187.148 75.4977L151.406 98.6843L174.356 69.4307C178.818 70.8765 183.112 72.9131 187.148 75.4977Z" fill="#455A64"/>
<path d="M187.148 75.498C190.626 77.6795 193.767 80.4801 196.449 83.7913L151.413 98.6847L187.148 75.498Z" fill="#455A64"/>
<path d="M151.385 98.6841L115.629 121.91C112.15 119.722 109.006 116.916 106.321 113.601L151.364 98.7076L151.385 98.6841Z" fill="#455A64"/>
<path d="M128.442 69.4463L151.385 98.6844L115.644 75.4664C119.683 72.8966 123.979 70.8758 128.442 69.4463Z" fill="#455A64"/>
<path d="M151.406 98.7236L187.148 121.942C183.112 124.514 178.82 126.542 174.363 127.985L151.406 98.7236Z" fill="#455A64"/>
<path d="M120.82 65.982L149.211 84.4184L147.818 58.355C137.374 58.8567 128.505 61.365 120.82 65.982Z" fill="#72A276"/>
<path opacity="0.2" d="M120.82 65.982L149.211 84.4184L147.818 58.355C137.374 58.8567 128.505 61.365 120.82 65.982Z" fill="white"/>
<path d="M149.211 84.4178V94.4826L120.82 76.0384V65.9814L149.211 84.4178Z" fill="#72A276"/>
<path opacity="0.1" d="M149.211 84.4178V94.4826L120.82 76.0384V65.9814L149.211 84.4178Z" fill="black"/>
<path d="M186.019 68.5684L153.433 85.1079V95.1648L186.019 78.6253V68.5684Z" fill="#72A276"/>
<path opacity="0.3" d="M186.019 68.5684L153.433 85.1079V95.1648L186.019 78.6253V68.5684Z" fill="black"/>
<path d="M186.019 68.5685C177.247 61.8508 165.549 58.3078 151.991 58.2607L152.862 74.5572L153.433 85.108L186.019 68.5685Z" fill="#72A276"/>
<path opacity="0.1" d="M186.019 68.5685C177.247 61.8508 165.549 58.3078 151.991 58.2607L152.862 74.5572L153.433 85.108L186.019 68.5685Z" fill="black"/>
<path d="M151.984 58.2607V68.3177L153.433 95.1649V85.108L151.984 58.2607Z" fill="#263238"/>
<path d="M160.059 104.477L176.718 122.506C177.651 122.106 178.515 121.722 179.505 121.189C190.98 115.372 196.978 106.656 196.971 97.861V87.906C195.71 84.12 192.241 84.1278 188.611 80.7964L154.59 98.0413L154.249 98.2137L160.059 104.477Z" fill="#72A276"/>
<path opacity="0.6" d="M160.059 104.477L176.718 122.506C177.651 122.106 178.515 121.722 179.505 121.189C190.98 115.372 196.978 106.656 196.971 97.861V87.906C195.71 84.12 192.241 84.1278 188.611 80.7964L154.59 98.0413L154.249 98.2137L160.059 104.477Z" fill="white"/>
<path d="M160.059 94.4198L176.718 112.449C177.651 112.049 178.515 111.665 179.505 111.124C198.713 101.365 202.559 83.4928 188.625 70.708L154.604 87.953L154.263 88.1254L160.059 94.4198Z" fill="#72A276"/>
<path opacity="0.8" d="M160.059 94.4198L176.718 112.449C177.651 112.049 178.515 111.665 179.505 111.124C198.713 101.365 202.559 83.4928 188.625 70.708L154.604 87.953L154.263 88.1254L160.059 94.4198Z" fill="white"/>
<path d="M176.69 122.49V112.425L154.228 88.1489V98.2058L176.69 122.49Z" fill="#72A276"/>
<path opacity="0.6" d="M176.69 122.49V112.425L154.228 88.1489V98.2058L176.69 122.49Z" fill="white"/>
<path d="M117.866 77.959C113.079 81.3531 107.764 83.493 105.827 87.6161V97.6809C105.827 102.925 107.993 108.239 112.487 113.099C118.758 119.864 128.686 124.646 140.481 126.55C151.397 128.363 162.534 127.451 173.102 123.877V113.821L158.436 108.02L149.824 98.6842L117.866 77.959Z" fill="#72A276"/>
<path opacity="0.6" d="M117.866 77.959C113.079 81.3531 107.764 83.493 105.827 87.6161V97.6809C105.827 102.925 107.993 108.239 112.487 113.099C118.758 119.864 128.686 124.646 140.481 126.55C151.397 128.363 162.534 127.451 173.102 123.877V113.821L158.436 108.02L149.824 98.6842L117.866 77.959Z" fill="black"/>
<path d="M117.866 67.9019C104.113 77.6374 101.897 91.5901 112.487 103.034C118.758 109.807 128.686 114.581 140.481 116.493C151.398 118.302 162.534 117.39 173.102 113.82L158.436 97.9629L149.824 88.6585L117.866 67.9019Z" fill="#72A276"/>
<path opacity="0.3" d="M117.866 67.9019C104.113 77.6374 101.897 91.5901 112.487 103.034C118.758 109.807 128.686 114.581 140.481 116.493C151.398 118.302 162.534 117.39 173.102 113.82L158.436 97.9629L149.824 88.6585L117.866 67.9019Z" fill="black"/>
<path d="M277.449 177.58C276.515 173.942 274.846 170.597 272.572 167.805C269.891 164.489 266.75 161.683 263.271 159.496C259.233 156.923 254.94 154.894 250.479 153.453C245.566 151.857 240.526 150.807 235.43 150.317C230.167 149.776 224.871 149.776 219.608 150.317C214.515 150.808 209.477 151.858 204.566 153.453C200.105 154.894 195.812 156.923 191.774 159.496C188.293 161.682 185.149 164.488 182.466 167.805C180.194 170.598 178.525 173.943 177.589 177.58C176.756 180.944 176.756 184.5 177.589 187.864C178.517 191.502 180.187 194.846 182.466 197.631C185.15 200.949 188.294 203.757 191.774 205.948C195.81 208.518 200.101 210.544 204.559 211.984C209.475 213.575 214.518 214.625 219.615 215.119C224.878 215.652 230.174 215.652 235.437 215.119C240.534 214.626 245.577 213.576 250.493 211.984C254.953 210.547 259.245 208.518 263.278 205.94C266.762 203.754 269.907 200.949 272.593 197.631C274.867 194.842 276.536 191.499 277.47 187.864C278.293 184.497 278.285 180.942 277.449 177.58Z" fill="#37474F"/>
<path d="M176.955 177.572H278.069V183.373L176.955 183.052V177.572Z" fill="#37474F"/>
<path d="M219.601 145.152L227.509 177.572L204.559 148.319C209.469 146.713 214.507 145.653 219.601 145.152Z" fill="#455A64"/>
<path d="M235.423 145.152L227.522 177.572L219.615 145.152C224.873 144.612 230.165 144.612 235.423 145.152Z" fill="#455A64"/>
<path d="M250.472 148.319L227.522 177.572L235.423 145.152C240.52 145.652 245.56 146.713 250.472 148.319Z" fill="#455A64"/>
<path d="M272.565 162.671C274.839 165.465 276.509 168.813 277.442 172.453L227.53 177.588L272.565 162.671Z" fill="#455A64"/>
<path d="M277.449 172.454C278.278 175.816 278.278 179.368 277.449 182.73L227.536 177.588L277.449 172.454Z" fill="#455A64"/>
<path d="M277.449 182.73C276.514 186.367 274.845 189.712 272.572 192.505L227.53 177.611L277.449 182.73Z" fill="#455A64"/>
<path d="M272.579 192.504C269.89 195.817 266.745 198.623 263.264 200.813L227.516 177.587L272.579 192.504Z" fill="#455A64"/>
<path d="M227.523 177.596L250.479 206.857C245.563 208.45 240.521 209.5 235.423 209.993L227.516 177.572L227.523 177.596Z" fill="#455A64"/>
<path d="M227.516 177.603L235.423 209.992C230.16 210.529 224.864 210.529 219.601 209.992L227.516 177.603Z" fill="#455A64"/>
<path d="M227.509 177.595L219.601 209.992C214.504 209.499 209.461 208.449 204.545 206.857L227.509 177.595Z" fill="#455A64"/>
<path d="M227.509 177.595L204.517 206.857C200.06 205.411 195.769 203.382 191.732 200.813L227.509 177.595Z" fill="#455A64"/>
<path d="M227.495 177.587L182.452 192.481C180.175 189.692 178.505 186.346 177.575 182.706L227.495 177.587Z" fill="#455A64"/>
<path d="M227.495 177.588L177.582 182.73C176.749 179.369 176.749 175.815 177.582 172.454L227.495 177.588Z" fill="#455A64"/>
<path d="M227.495 177.58L177.582 172.446C178.518 168.806 180.187 165.459 182.459 162.663L227.495 177.58Z" fill="#455A64"/>
<path d="M191.767 154.338L227.495 177.548L182.459 162.655C185.142 159.336 188.285 156.527 191.767 154.338Z" fill="#455A64"/>
<path d="M263.264 154.338L227.522 177.549L250.472 148.295C254.934 149.733 259.228 151.762 263.264 154.338Z" fill="#455A64"/>
<path d="M263.264 154.338C266.743 156.522 269.884 159.325 272.565 162.639L227.536 177.533L263.264 154.338Z" fill="#455A64"/>
<path d="M227.509 177.58L191.76 200.814C188.282 198.623 185.139 195.818 182.452 192.505L227.495 177.611L227.509 177.58Z" fill="#455A64"/>
<path d="M204.559 148.318L227.509 177.572L191.767 154.338C195.804 151.77 200.098 149.749 204.559 148.318Z" fill="#455A64"/>
<path d="M227.522 177.595L263.264 200.813C259.228 203.385 254.937 205.414 250.479 206.857L227.522 177.595Z" fill="#455A64"/>
<path d="M182.974 164.85V181.138C182.608 179.65 182.42 178.113 182.417 176.568V164.85H182.974Z" fill="#72A276"/>
<path opacity="0.3" d="M182.974 164.85V181.138C182.608 179.65 182.42 178.113 182.417 176.568V164.85H182.974Z" fill="black"/>
<path d="M227.495 164.866L182.974 169.444C182.236 166.446 182.236 163.278 182.974 160.28L227.495 164.866Z" fill="#72A276"/>
<path d="M227.495 164.85L182.974 160.264C183.811 157.019 185.301 154.033 187.329 151.54L227.495 164.85Z" fill="#72A276"/>
<path d="M195.627 144.148L227.495 164.85L187.329 151.524C189.725 148.58 192.527 146.089 195.627 144.148Z" fill="#72A276"/>
<path d="M207.039 138.755L227.509 164.842L195.627 144.148C199.228 141.849 203.059 140.039 207.039 138.755Z" fill="#72A276"/>
<path d="M220.458 135.934L227.509 164.842L207.039 138.755C211.419 137.322 215.914 136.377 220.458 135.934Z" fill="#72A276"/>
<path d="M234.608 135.933L227.522 164.842L220.472 135.933C225.174 135.446 229.906 135.446 234.608 135.933Z" fill="#72A276"/>
<path d="M247.992 138.755L227.522 164.842L234.608 135.934C239.141 136.379 243.624 137.325 247.992 138.755Z" fill="#72A276"/>
<g opacity="0.2">
<path opacity="0.2" d="M227.495 164.866L182.974 169.444C182.236 166.446 182.236 163.278 182.974 160.28L227.495 164.866Z" fill="white"/>
<path opacity="0.2" d="M227.495 164.85L182.974 160.264C183.811 157.018 185.301 154.033 187.329 151.54L227.495 164.85Z" fill="white"/>
<path opacity="0.2" d="M195.627 144.148L227.495 164.85L187.329 151.524C189.725 148.58 192.527 146.089 195.627 144.148Z" fill="white"/>
<path opacity="0.2" d="M207.039 138.755L227.509 164.842L195.627 144.148C199.228 141.85 203.059 140.04 207.039 138.755Z" fill="white"/>
<path opacity="0.2" d="M220.458 135.933L227.509 164.841L207.039 138.755C211.419 137.321 215.914 136.376 220.458 135.933Z" fill="white"/>
<path opacity="0.2" d="M234.608 135.933L227.523 164.842L220.472 135.933C225.174 135.446 229.906 135.446 234.608 135.933Z" fill="white"/>
<path opacity="0.2" d="M247.992 138.755L227.523 164.841L234.608 135.933C239.141 136.378 243.624 137.324 247.992 138.755Z" fill="white"/>
</g>
<path d="M265.264 172.673L258.582 179.728L253.503 185.128L248.661 190.255L248.013 190.937V202.64C251.992 201.357 255.823 199.549 259.425 197.255C262.529 195.297 265.333 192.79 267.73 189.832C269.757 187.346 271.243 184.365 272.071 181.123C272.44 179.635 272.63 178.098 272.635 176.553V164.858L265.264 172.673Z" fill="#72A276"/>
<path opacity="0.3" d="M265.264 172.673L258.582 179.728L253.503 185.128L248.661 190.255L248.013 190.937V202.64C251.992 201.357 255.823 199.549 259.425 197.255C262.529 195.297 265.333 192.79 267.73 189.832C269.757 187.346 271.243 184.365 272.071 181.123C272.44 179.635 272.63 178.098 272.635 176.553V164.858L265.264 172.673Z" fill="black"/>
<path d="M267.702 151.556C269.727 154.051 271.217 157.036 272.057 160.28L227.53 164.866L267.702 151.556Z" fill="#72A276"/>
<path d="M272.614 164.874C272.609 166.421 272.419 167.961 272.05 169.452L258.561 168.056L227.53 164.858L265.243 160.939L272.05 160.241C272.423 161.75 272.613 163.308 272.614 164.874Z" fill="#72A276"/>
<path d="M272.05 169.451C271.221 172.693 269.735 175.674 267.709 178.16L253.482 173.457L227.53 164.834L258.561 168.033L272.05 169.451Z" fill="#72A276"/>
<path d="M267.709 178.16C265.312 181.119 262.508 183.625 259.404 185.583L248.64 178.575L227.536 164.874L253.489 173.496L267.709 178.16Z" fill="#72A276"/>
<path d="M259.404 144.148L227.522 164.858L247.992 138.771C251.971 140.053 255.801 141.858 259.404 144.148Z" fill="#72A276"/>
<path d="M259.404 144.148C262.505 146.101 265.307 148.602 267.702 151.555L227.53 164.881L259.404 144.148Z" fill="#72A276"/>
<path d="M259.404 185.583C255.802 187.875 251.971 189.68 247.992 190.96L227.536 164.874L248.64 178.575L259.404 185.583Z" fill="#72A276"/>
<g opacity="0.2">
<path opacity="0.2" d="M267.702 151.556C269.727 154.052 271.217 157.036 272.057 160.28L227.529 164.866L267.702 151.556Z" fill="white"/>
<path opacity="0.2" d="M272.614 164.874C272.608 166.422 272.419 167.961 272.05 169.452L258.561 168.057L227.529 164.859L265.243 160.939L272.05 160.242C272.422 161.75 272.612 163.309 272.614 164.874Z" fill="white"/>
<path opacity="0.2" d="M272.05 169.451C271.22 172.693 269.735 175.673 267.709 178.16L253.482 173.457L227.529 164.834L258.561 168.033L272.05 169.451Z" fill="white"/>
<path opacity="0.2" d="M267.709 178.16C265.312 181.119 262.508 183.625 259.404 185.583L248.64 178.575L227.536 164.874L253.489 173.496L267.709 178.16Z" fill="white"/>
<path opacity="0.2" d="M259.404 144.148L227.522 164.858L247.992 138.771C251.971 140.053 255.801 141.858 259.404 144.148Z" fill="white"/>
<path opacity="0.2" d="M259.404 144.149C262.505 146.102 265.307 148.603 267.702 151.556L227.529 164.882L259.404 144.149Z" fill="white"/>
<path opacity="0.2" d="M259.404 185.583C255.802 187.875 251.971 189.68 247.992 190.96L227.536 164.874L248.64 178.575L259.404 185.583Z" fill="white"/>
</g>
<path d="M247.999 190.968V202.671L227.509 176.553V164.842L247.999 190.968Z" fill="#263238"/>
<path d="M227.509 176.553L182.974 181.154V169.443L227.509 164.842V176.553Z" fill="#72A276"/>
<path opacity="0.1" d="M227.509 176.553L182.974 181.154V169.443L227.509 164.842V176.553Z" fill="black"/>
<path d="M125.223 177.58C124.29 173.942 122.62 170.597 120.346 167.805C117.664 164.49 114.523 161.685 111.045 159.496C107.005 156.922 102.709 154.893 98.2465 153.453C93.3355 151.857 88.2974 150.807 83.2043 150.317C77.9411 149.776 72.6451 149.776 67.3819 150.317C62.2866 150.808 57.2462 151.858 52.3327 153.453C47.8676 154.893 43.5693 156.922 39.527 159.496C36.0485 161.683 32.9075 164.489 30.2259 167.805C27.9519 170.597 26.2827 173.942 25.3488 177.58C24.523 180.945 24.523 184.499 25.3488 187.864C26.2812 191.5 27.9506 194.844 30.2259 197.631C32.9069 200.95 36.048 203.759 39.527 205.948C43.5619 208.52 47.8534 210.546 52.3118 211.984C57.2282 213.576 62.2707 214.626 67.3679 215.119C72.6314 215.652 77.9269 215.652 83.1904 215.119C88.2877 214.626 93.3301 213.576 98.2465 211.984C102.706 210.547 106.998 208.518 111.031 205.94C114.515 203.755 117.661 200.949 120.346 197.631C122.622 194.844 124.291 191.5 125.223 187.864C126.049 184.499 126.049 180.945 125.223 177.58Z" fill="#37474F"/>
<path d="M24.7217 177.572H125.836V183.373L24.7217 183.052V177.572Z" fill="#37474F"/>
<path d="M67.3955 145.152L75.2963 177.572L52.3464 148.319C57.259 146.713 62.2994 145.653 67.3955 145.152Z" fill="#455A64"/>
<path d="M83.1904 145.151L75.2896 177.572L67.3958 145.151C72.6497 144.612 77.9364 144.612 83.1904 145.151Z" fill="#455A64"/>
<path d="M98.2325 148.319L75.2896 177.572L83.1903 145.152C88.2843 145.652 93.3225 146.712 98.2325 148.319Z" fill="#455A64"/>
<path d="M120.346 162.671C122.62 165.465 124.289 168.813 125.223 172.453L75.3035 177.588L120.346 162.671Z" fill="#455A64"/>
<path d="M125.223 172.454C126.049 175.816 126.049 179.368 125.223 182.73L75.3035 177.588L125.223 172.454Z" fill="#455A64"/>
<path d="M125.223 182.73C124.29 186.368 122.62 189.713 120.346 192.505L75.3035 177.611L125.223 182.73Z" fill="#455A64"/>
<path d="M120.346 192.504C117.66 195.817 114.517 198.623 111.038 200.813L75.2827 177.587L120.346 192.504Z" fill="#455A64"/>
<path d="M75.2896 177.596L98.2465 206.857C93.3301 208.45 88.2876 209.5 83.1904 209.993L75.2756 177.572L75.2896 177.596Z" fill="#455A64"/>
<path d="M75.2756 177.603L83.1904 209.992C77.9362 210.527 72.6499 210.527 67.3958 209.992L75.2756 177.603Z" fill="#455A64"/>
<path d="M75.2686 177.595L67.3957 209.992C62.2984 209.499 57.2559 208.449 52.3396 206.857L75.2686 177.595Z" fill="#455A64"/>
<path d="M75.2686 177.595L52.2768 206.857C47.8312 205.411 43.5519 203.382 39.5269 200.813L75.2686 177.595Z" fill="#455A64"/>
<path d="M75.2617 177.587L30.2188 192.481C27.9447 189.689 26.2755 186.344 25.3418 182.706L75.2617 177.587Z" fill="#455A64"/>
<path d="M75.2617 177.588L25.3418 182.73C24.5163 179.368 24.5163 175.816 25.3418 172.454L75.2617 177.588Z" fill="#455A64"/>
<path d="M75.2617 177.58L25.3418 172.446C26.2757 168.805 27.9448 165.457 30.2188 162.663L75.2617 177.58Z" fill="#455A64"/>
<path d="M39.5268 154.338L75.2615 177.548L30.2256 162.655C32.9062 159.336 36.0473 156.527 39.5268 154.338Z" fill="#455A64"/>
<path d="M111.031 154.338L75.2896 177.549L98.2325 148.295C102.696 149.732 106.993 151.761 111.031 154.338Z" fill="#455A64"/>
<path d="M111.031 154.338C114.516 156.532 117.661 159.346 120.346 162.671L75.3105 177.564L111.031 154.338Z" fill="#455A64"/>
<path d="M75.2686 177.58L39.5269 200.814C36.0472 198.625 32.9041 195.82 30.2188 192.505L75.2616 177.611L75.2686 177.58Z" fill="#455A64"/>
<path d="M52.3186 148.318L75.2686 177.572L39.5269 154.338C43.5643 151.77 47.8582 149.749 52.3186 148.318Z" fill="#455A64"/>
<path d="M75.2896 177.595L111.031 200.813C106.995 203.385 102.704 205.414 98.2464 206.857L75.2896 177.595Z" fill="#455A64"/>
<path d="M88.7223 157.474L94.4841 150.121C94.4841 141.499 85.1202 141.287 80.9817 140.872C76.8432 140.456 69.7437 137.783 69.7437 147.597L71.7223 155.718C77.4357 155.305 83.1713 155.897 88.7223 157.474Z" fill="#72A276"/>
<path opacity="0.6" d="M88.7223 157.474L94.4841 150.121C94.4841 141.499 85.1202 141.287 80.9817 140.872C76.8432 140.456 69.7437 137.783 69.7437 147.597L71.7223 155.718C77.4357 155.305 83.1713 155.897 88.7223 157.474Z" fill="white"/>
<path d="M88.7223 145.928L94.4841 138.583C86.4162 136.221 78.0577 135.368 69.7437 136.059L71.7223 144.148C77.4368 143.743 83.1724 144.343 88.7223 145.928Z" fill="#72A276"/>
<path opacity="0.8" d="M88.7223 145.928L94.4841 138.583C86.4162 136.221 78.0577 135.368 69.7437 136.059L71.7223 144.148C77.4368 143.743 83.1724 144.343 88.7223 145.928Z" fill="white"/>
<path d="M71.7224 144.179V155.734L69.7437 147.613V136.059L71.7224 144.179Z" fill="#72A276"/>
<path d="M94.4841 138.583L88.7222 145.928V157.49L94.4841 150.137V138.583Z" fill="#72A276"/>
<g opacity="0.6">
<path opacity="0.6" d="M71.7224 144.179V155.734L69.7437 147.613V136.059L71.7224 144.179Z" fill="white"/>
<path opacity="0.6" d="M94.4843 138.583L88.7224 145.928V157.49L94.4843 150.137V138.583Z" fill="white"/>
</g>
<path d="M91.5371 146.86V158.414C93.9411 159.287 96.2612 160.429 98.4625 161.824C100.383 163.051 102.148 164.564 103.709 166.323L115.01 162.584C112.763 160.004 110.204 157.792 107.408 156.015C104.322 154.024 101.019 145.95 91.5371 146.86Z" fill="#72A276"/>
<path opacity="0.6" d="M91.5371 146.86V158.414C93.9411 159.287 96.2612 160.429 98.4625 161.824C100.383 163.051 102.148 164.564 103.709 166.323L115.01 162.584C112.763 160.004 110.204 157.792 107.408 156.015C104.322 154.024 101.019 145.95 91.5371 146.86Z" fill="black"/>
<path d="M97.299 139.523L91.5371 146.86C93.9434 147.727 96.2641 148.869 98.4625 150.27C100.383 151.497 102.148 153.011 103.709 154.769L115.01 151.03C112.766 148.445 110.207 146.234 107.408 144.462C104.205 142.414 100.816 140.758 97.299 139.523Z" fill="#72A276"/>
<path opacity="0.3" d="M97.299 139.523L91.5371 146.86C93.9434 147.727 96.2641 148.869 98.4625 150.27C100.383 151.497 102.148 153.011 103.709 154.769L115.01 151.03C112.766 148.445 110.207 146.234 107.408 144.462C104.205 142.414 100.816 140.758 97.299 139.523Z" fill="black"/>
<path d="M103.708 154.769L115.009 151.022V162.584L103.708 166.324V154.769Z" fill="#72A276"/>
<path opacity="0.6" d="M103.708 154.769L115.009 151.022V162.584L103.708 166.324V154.769Z" fill="black"/>
<path d="M120.681 165.022H116.863C116.723 164.818 116.605 164.615 116.466 164.411L105.151 156.572V168.134C107.562 171.622 108.474 175.432 107.847 179.171L120.346 180.48C120.558 179.314 120.663 178.127 120.66 176.937L120.681 165.022Z" fill="#72A276"/>
<path opacity="0.6" d="M120.681 165.022H116.863C116.723 164.818 116.605 164.615 116.466 164.411L105.151 156.572V168.134C107.562 171.622 108.474 175.432 107.847 179.171L120.346 180.48C120.558 179.314 120.663 178.127 120.66 176.937L120.681 165.022Z" fill="black"/>
<path d="M107.84 167.664L120.346 168.926C121.364 163.493 120.075 157.905 116.459 152.856L105.144 156.595C107.555 160.084 108.502 163.901 107.84 167.664Z" fill="#72A276"/>
<path opacity="0.3" d="M107.84 167.664L120.346 168.926C121.364 163.493 120.075 157.905 116.459 152.856L105.144 156.595C107.555 160.084 108.502 163.901 107.84 167.664Z" fill="black"/>
<path d="M120.346 168.926V180.488L107.84 179.194V167.64L120.346 168.926Z" fill="#72A276"/>
<path opacity="0.6" d="M120.346 168.926V180.488L107.84 179.194V167.64L120.346 168.926Z" fill="black"/>
<path d="M68.6011 156.063V144.501C61.6339 140.888 48.661 144.556 44.3135 155.318L53.2594 161.135C58.0644 158.431 63.2598 156.713 68.6011 156.063Z" fill="#72A276"/>
<path opacity="0.3" d="M68.6011 156.063V144.501C61.6339 140.888 48.661 144.556 44.3135 155.318L53.2594 161.135C58.0644 158.431 63.2598 156.713 68.6011 156.063Z" fill="black"/>
<path d="M68.601 144.501L66.6153 136.356C58.192 137.423 50.4793 140.033 44.3203 143.764L53.2662 149.572C58.0691 146.87 63.262 145.152 68.601 144.501Z" fill="#72A276"/>
<path opacity="0.1" d="M68.601 144.501L66.6153 136.356C58.192 137.423 50.4793 140.033 44.3203 143.764L53.2662 149.572C58.0691 146.87 63.262 145.152 68.601 144.501Z" fill="black"/>
<path d="M53.2593 149.573V161.134L44.3135 155.318V143.764L53.2593 149.573Z" fill="#263238"/>
<path d="M43.9024 151.03L42.0631 156.76C36.0504 160.946 32.2533 165.986 30.6926 171.262L43.2335 172.547C44.3831 168.934 47.0028 165.492 51.0577 162.592V151.03H43.9024Z" fill="#72A276"/>
<path opacity="0.3" d="M43.9024 151.03L42.0631 156.76C36.0504 160.946 32.2533 165.986 30.6926 171.262L43.2335 172.547C44.3831 168.934 47.0028 165.492 51.0577 162.592V151.03H43.9024Z" fill="black"/>
<path d="M51.0298 151.031L42.0631 145.207C36.0504 149.385 32.2533 154.433 30.6926 159.7L43.2336 160.994C44.3553 157.38 46.9749 153.931 51.0298 151.031Z" fill="#72A276"/>
<path opacity="0.1" d="M51.0298 151.031L42.0631 145.207C36.0504 149.385 32.2533 154.433 30.6926 159.7L43.2336 160.994C44.3553 157.38 46.9749 153.931 51.0298 151.031Z" fill="black"/>
<path d="M30.6926 159.7V171.262L43.2057 172.547V160.993L30.6926 159.7Z" fill="#263238"/>
<path d="M42.711 174.578V163.016L38.9905 162.64L29.8774 165.313V176.859C29.9358 181.447 31.4141 185.868 34.0578 189.362L45.3725 185.623C43.0106 182.134 42.0909 178.317 42.711 174.578Z" fill="#72A276"/>
<path opacity="0.3" d="M42.711 174.578V163.016L38.9905 162.64L29.8774 165.313V176.859C29.9358 181.447 31.4141 185.868 34.0578 189.362L45.3725 185.623C43.0106 182.134 42.0909 178.317 42.711 174.578Z" fill="black"/>
<path d="M34.0996 177.807L45.4144 174.061V185.622L34.0996 189.361V177.807Z" fill="#263238"/>
<path d="M42.7181 163.016L30.1771 161.73C29.1599 167.17 30.4488 172.751 34.0648 177.807L45.3795 174.06C43.0107 170.572 42.091 166.755 42.7181 163.016Z" fill="#72A276"/>
<path opacity="0.1" d="M42.7181 163.016L30.1771 161.73C29.1599 167.17 30.4488 172.751 34.0648 177.807L45.3795 174.06C43.0107 170.572 42.091 166.755 42.7181 163.016Z" fill="black"/>
<path d="M56.1019 189.346C50.7999 185.904 48.1523 181.397 48.1523 176.89V165.312H102.406V176.867C102.406 181.382 99.7583 185.889 94.4563 189.33C83.8661 196.228 66.699 196.228 56.1019 189.346Z" fill="#37474F"/>
<path d="M75.2824 182.949C90.2622 182.949 102.406 175.06 102.406 165.328C102.406 155.596 90.2622 147.707 75.2824 147.707C60.3027 147.707 48.1592 155.596 48.1592 165.328C48.1592 175.06 60.3027 182.949 75.2824 182.949Z" fill="#455A64"/>
<path d="M53.2591 192.653V191.18L35.5415 179.633V191.18C37.7892 193.762 40.3507 195.974 43.1497 197.748C46.3528 199.796 49.742 201.452 53.2591 202.687L59.014 195.35C57.0348 194.625 55.1104 193.723 53.2591 192.653Z" fill="#72A276"/>
<path opacity="0.3" d="M53.2591 192.653V191.18L35.5415 179.633V191.18C37.7892 193.762 40.3507 195.974 43.1497 197.748C46.3528 199.796 49.742 201.452 53.2591 202.687L59.014 195.35C57.0348 194.625 55.1104 193.723 53.2591 192.653Z" fill="black"/>
<path d="M52.068 180.386C50.1449 179.162 48.3778 177.651 46.8147 175.895L35.5139 179.634C37.7634 182.214 40.3246 184.425 43.1221 186.202C46.3267 188.247 49.7155 189.903 53.2315 191.141L58.9864 183.796C56.5823 182.929 54.264 181.787 52.068 180.386Z" fill="#72A276"/>
<path opacity="0.1" d="M52.068 180.386C50.1449 179.162 48.3778 177.651 46.8147 175.895L35.5139 179.634C37.7634 182.214 40.3246 184.425 43.1221 186.202C46.3267 188.247 49.7155 189.903 53.2315 191.141L58.9864 183.796C56.5823 182.929 54.264 181.787 52.068 180.386Z" fill="black"/>
<path d="M53.2593 202.695V191.141L59.0142 183.796V195.358L53.2593 202.695Z" fill="#263238"/>
<path d="M56.0742 192.074V203.636C64.1422 205.998 72.5006 206.851 80.8147 206.16V194.606L56.0742 192.074Z" fill="#72A276"/>
<path opacity="0.1" d="M56.0742 192.074V203.636C64.1422 205.998 72.5006 206.851 80.8147 206.16V194.606L56.0742 192.074Z" fill="black"/>
<path d="M61.8219 184.729L56.0601 192.073C64.1282 194.435 72.4861 195.29 80.8005 194.605L78.8358 186.477C73.1182 186.894 67.3778 186.304 61.8219 184.729Z" fill="#72A276"/>
<path opacity="0.2" d="M61.8219 184.729L56.0601 192.073C64.1282 194.435 72.4861 195.29 80.8005 194.605L78.8358 186.477C73.1182 186.894 67.3778 186.304 61.8219 184.729Z" fill="white"/>
<path d="M99.5283 191.179L108.502 197.011C114.515 192.833 118.312 187.785 119.872 182.51V170.956L107.332 181.224C106.203 184.838 103.583 188.287 99.5283 191.179Z" fill="#72A276"/>
<path opacity="0.1" d="M99.5283 191.179L108.502 197.011C114.515 192.833 118.312 187.785 119.872 182.51V170.956L107.332 181.224C106.203 184.838 103.583 188.287 99.5283 191.179Z" fill="black"/>
<path d="M99.5283 179.626L108.502 185.458C114.515 181.272 118.312 176.232 119.872 170.956L107.332 169.671C106.203 173.284 103.583 176.726 99.5283 179.626Z" fill="#72A276"/>
<path opacity="0.2" d="M99.5283 179.626L108.502 185.458C114.515 181.272 118.312 176.232 119.872 170.956L107.332 169.671C106.203 173.284 103.583 176.726 99.5283 179.626Z" fill="white"/>
<path d="M108.495 185.457V197.012L99.5283 191.187V179.625L108.495 185.457Z" fill="#72A276"/>
<path opacity="0.3" d="M108.495 185.457V197.012L99.5283 191.187V179.625L108.495 185.457Z" fill="black"/>
<path d="M83.9427 194.315V197.45C83.2808 197.568 82.6259 197.67 81.957 197.756L83.9427 205.892C92.0595 204.873 99.8209 202.404 106.238 198.501V186.907L83.9427 194.315Z" fill="#72A276"/>
<path opacity="0.1" d="M83.9427 194.315V197.45C83.2808 197.568 82.6259 197.67 81.957 197.756L83.9427 205.892C92.0595 204.873 99.8209 202.404 106.238 198.501V186.907L83.9427 194.315Z" fill="black"/>
<path d="M81.957 186.163L83.9427 194.316C92.0595 193.297 99.8209 190.835 106.238 186.932L97.2709 181.1C92.478 183.808 87.2905 185.524 81.957 186.163Z" fill="#72A276"/>
<path opacity="0.2" d="M81.957 186.163L83.9427 194.316C92.0595 193.297 99.8209 190.835 106.238 186.932L97.2709 181.1C92.478 183.808 87.2905 185.524 81.957 186.163Z" fill="white"/>
<path d="M83.9427 194.292V205.846L81.957 197.725V186.163L83.9427 194.292Z" fill="#72A276"/>
<path opacity="0.3" d="M83.9427 194.292V205.846L81.957 197.725V186.163L83.9427 194.292Z" fill="black"/>
<path d="M257.816 116.981C257.791 116.471 257.66 115.975 257.434 115.533C257.207 115.09 256.892 114.714 256.513 114.434L237.646 102.182C236.949 101.712 236.343 102.096 236.343 103.036V123.55C236.366 124.06 236.497 124.556 236.723 124.999C236.95 125.442 237.266 125.818 237.646 126.097L245.546 131.224L248.041 142.582C248.032 142.79 248.098 142.993 248.223 143.146C248.347 143.3 248.521 143.392 248.706 143.401C248.891 143.41 249.071 143.337 249.208 143.196C249.344 143.056 249.426 142.86 249.434 142.652L251.719 135.229L256.548 138.365C257.244 138.835 257.85 138.451 257.85 137.518L257.816 116.981Z" fill="#72A276"/>
<path opacity="0.5" d="M257.816 116.981C257.791 116.471 257.66 115.975 257.434 115.533C257.207 115.09 256.892 114.714 256.513 114.434L237.646 102.182C236.949 101.712 236.343 102.096 236.343 103.036V123.55C236.366 124.06 236.497 124.556 236.723 124.999C236.95 125.442 237.266 125.818 237.646 126.097L245.546 131.224L248.041 142.582C248.032 142.79 248.098 142.993 248.223 143.146C248.347 143.3 248.521 143.392 248.706 143.401C248.891 143.41 249.071 143.337 249.208 143.196C249.344 143.056 249.426 142.86 249.434 142.652L251.719 135.229L256.548 138.365C257.244 138.835 257.85 138.451 257.85 137.518L257.816 116.981Z" fill="white"/>
<path d="M243.491 111.524C243.876 111.771 244.232 112.071 244.55 112.418C244.835 112.729 245.089 113.074 245.31 113.445C245.501 113.773 245.658 114.126 245.776 114.495C245.875 114.809 245.938 115.136 245.965 115.467C245.965 115.804 245.999 116.157 245.999 116.525C245.999 116.894 245.999 117.231 245.965 117.544C245.948 117.797 245.883 118.043 245.776 118.266C245.672 118.471 245.507 118.63 245.31 118.712C245.061 118.789 244.799 118.789 244.55 118.712C244.175 118.615 243.818 118.448 243.491 118.219C243.104 117.975 242.746 117.677 242.425 117.333C242.14 117.03 241.887 116.691 241.673 116.322C241.308 115.716 241.081 115.019 241.011 114.291C241.011 113.954 241.011 113.602 241.011 113.233C241.011 112.865 241.011 112.528 241.011 112.222C241.032 111.967 241.099 111.719 241.206 111.493C241.307 111.284 241.473 111.125 241.673 111.046C241.916 110.96 242.176 110.946 242.425 111.007C242.805 111.107 243.166 111.283 243.491 111.524ZM250.152 116.298C250.223 116.239 250.308 116.204 250.396 116.196C250.522 116.206 250.645 116.251 250.751 116.329L251.747 116.98C251.862 117.053 251.961 117.152 252.04 117.27C252.105 117.37 252.142 117.491 252.144 117.615C252.147 117.641 252.147 117.667 252.144 117.693C252.132 117.722 252.116 117.749 252.096 117.772L243.888 124.591C243.817 124.651 243.733 124.689 243.644 124.701C243.517 124.692 243.394 124.643 243.289 124.56L242.293 123.917C242.177 123.843 242.077 123.742 242 123.619C241.933 123.523 241.894 123.405 241.889 123.282C241.883 123.254 241.883 123.224 241.889 123.196C241.898 123.165 241.915 123.138 241.937 123.118L250.152 116.298ZM244.369 116.298C244.379 116.183 244.379 116.068 244.369 115.953V114.942C244.378 114.819 244.378 114.696 244.369 114.574C244.346 114.298 244.273 114.031 244.153 113.79C243.993 113.496 243.764 113.258 243.491 113.1C243.171 112.888 242.948 112.833 242.794 112.927C242.729 112.987 242.675 113.062 242.638 113.147C242.6 113.233 242.58 113.326 242.578 113.421C242.578 113.492 242.578 113.602 242.578 113.766C242.578 113.931 242.578 114.088 242.578 114.26C242.578 114.432 242.578 114.605 242.578 114.77C242.578 114.934 242.578 115.06 242.578 115.146C242.605 115.42 242.678 115.687 242.794 115.93C242.965 116.228 243.207 116.467 243.491 116.619C243.812 116.831 244.035 116.886 244.153 116.792C244.216 116.735 244.267 116.664 244.303 116.583C244.34 116.501 244.36 116.412 244.362 116.322L244.369 116.298ZM250.681 122.734C251.069 122.98 251.427 123.28 251.747 123.627C252.03 123.938 252.282 124.283 252.5 124.654C252.696 124.979 252.853 125.332 252.967 125.704C253.063 126.019 253.129 126.345 253.162 126.676C253.162 127.013 253.162 127.366 253.162 127.735C253.162 128.103 253.162 128.44 253.162 128.754C253.14 129.006 253.074 129.251 252.967 129.475C252.919 129.58 252.853 129.674 252.773 129.751C252.693 129.828 252.6 129.886 252.5 129.922C252.254 130.003 251.993 130.003 251.747 129.922C251.37 129.824 251.01 129.657 250.681 129.428C250.296 129.184 249.941 128.886 249.622 128.542C249.337 128.238 249.082 127.898 248.863 127.531C248.67 127.203 248.513 126.85 248.396 126.48C248.299 126.166 248.235 125.84 248.208 125.508C248.208 125.164 248.208 124.811 248.208 124.442C248.208 124.074 248.208 123.737 248.208 123.431C248.224 123.176 248.288 122.927 248.396 122.702C248.498 122.495 248.664 122.336 248.863 122.255C249.112 122.186 249.373 122.186 249.622 122.255C249.999 122.351 250.357 122.521 250.681 122.757V122.734ZM251.566 127.531C251.572 127.416 251.572 127.301 251.566 127.186V126.198C251.566 126.041 251.566 125.916 251.566 125.838C251.537 125.564 251.464 125.298 251.35 125.054C251.177 124.758 250.936 124.519 250.653 124.364C250.333 124.152 250.11 124.097 249.992 124.192C249.926 124.251 249.872 124.326 249.835 124.411C249.798 124.497 249.777 124.59 249.776 124.685C249.768 124.8 249.768 124.915 249.776 125.03C249.776 125.187 249.776 125.352 249.776 125.524C249.776 125.697 249.776 125.869 249.776 126.041C249.769 126.164 249.769 126.287 249.776 126.41C249.797 126.685 249.871 126.953 249.992 127.194C250.15 127.489 250.38 127.728 250.653 127.884C250.974 128.095 251.197 128.15 251.35 128.056C251.416 127.994 251.469 127.918 251.506 127.831C251.543 127.745 251.564 127.65 251.566 127.554V127.531Z" fill="#FAFAFA"/>
<path d="M176.195 38.3279C176.17 37.8183 176.039 37.3225 175.813 36.8801C175.586 36.4377 175.271 36.0611 174.892 35.7804L156.025 23.5365C155.328 23.0661 154.722 23.4424 154.722 24.383V44.8967C154.747 45.4076 154.877 45.9051 155.103 46.3489C155.33 46.7927 155.645 47.1706 156.025 47.4521L163.926 52.5785L166.42 63.9132C166.447 64.0888 166.527 64.2486 166.646 64.3664C166.765 64.4842 166.916 64.5529 167.074 64.5611C167.233 64.5693 167.389 64.5166 167.517 64.4116C167.645 64.3067 167.737 64.1558 167.779 63.9837L170.064 56.5606L174.892 59.696C175.589 60.1663 176.195 59.7901 176.195 58.8494V38.3279Z" fill="#72A276"/>
<path opacity="0.5" d="M176.195 38.3279C176.17 37.8183 176.039 37.3225 175.813 36.8801C175.586 36.4377 175.271 36.0611 174.892 35.7804L156.025 23.5365C155.328 23.0661 154.722 23.4424 154.722 24.383V44.8967C154.747 45.4076 154.877 45.9051 155.103 46.3489C155.33 46.7927 155.645 47.1706 156.025 47.4521L163.926 52.5785L166.42 63.9132C166.447 64.0888 166.527 64.2486 166.646 64.3664C166.765 64.4842 166.916 64.5529 167.074 64.5611C167.233 64.5693 167.389 64.5166 167.517 64.4116C167.645 64.3067 167.737 64.1558 167.779 63.9837L170.064 56.5606L174.892 59.696C175.589 60.1663 176.195 59.7901 176.195 58.8494V38.3279Z" fill="white"/>
<path d="M161.871 32.9036C162.256 33.1501 162.611 33.4503 162.93 33.7972C163.212 34.1104 163.467 34.4543 163.689 34.8241C163.883 35.1509 164.04 35.5038 164.156 35.8744C164.254 36.1885 164.317 36.5149 164.344 36.8464C164.344 37.1835 164.379 37.5362 164.379 37.9047C164.379 38.2731 164.379 38.6101 164.344 38.9237C164.328 39.1789 164.264 39.4274 164.156 39.6527C164.055 39.8597 163.888 40.0165 163.689 40.0916C163.444 40.1816 163.181 40.1952 162.93 40.1308C162.554 40.0331 162.195 39.8634 161.871 39.6292C161.482 39.388 161.124 39.0902 160.805 38.7434C160.519 38.441 160.266 38.1016 160.052 37.7322C159.855 37.4072 159.698 37.0539 159.585 36.6818C159.488 36.367 159.423 36.041 159.39 35.7098C159.39 35.3649 159.39 35.0122 159.39 34.6516C159.39 34.291 159.39 33.9383 159.39 33.6326C159.412 33.3775 159.478 33.1297 159.585 32.9036C159.686 32.6946 159.853 32.5353 160.052 32.4568C160.299 32.3874 160.558 32.3874 160.805 32.4568C161.18 32.5354 161.541 32.6866 161.871 32.9036ZM168.531 37.6773C168.604 37.6219 168.688 37.587 168.775 37.5754C168.903 37.5848 169.026 37.6337 169.13 37.7165L170.127 38.3593C170.239 38.4346 170.339 38.533 170.419 38.6493C170.484 38.7501 170.52 38.8702 170.524 38.9942C170.527 39.0229 170.527 39.0518 170.524 39.0804C170.51 39.1083 170.494 39.1346 170.475 39.1588L162.268 45.9784C162.195 46.0338 162.111 46.0688 162.024 46.0803C161.896 46.0709 161.773 46.0221 161.669 45.9392L160.672 45.2965C160.557 45.2255 160.457 45.1264 160.38 45.0064C160.315 44.9056 160.279 44.7856 160.275 44.6615C160.269 44.6359 160.269 44.6088 160.275 44.5831C160.285 44.5502 160.301 44.5205 160.324 44.4969L168.531 37.6773ZM162.748 37.6773C162.759 37.5626 162.759 37.4471 162.748 37.3324V36.3213C162.758 36.2013 162.758 36.0806 162.748 35.9607C162.728 35.6848 162.654 35.4173 162.532 35.1768C162.374 34.879 162.145 34.6373 161.871 34.4792C161.55 34.2754 161.327 34.2127 161.174 34.3146C161.109 34.3755 161.057 34.4509 161.02 34.5359C160.982 34.6209 160.961 34.7137 160.958 34.8084C160.958 34.8711 160.958 34.9887 160.958 35.1455C160.958 35.3022 160.958 35.4668 160.958 35.6471C160.958 35.8274 160.958 35.992 160.958 36.1566C160.958 36.3212 160.958 36.4467 160.958 36.5251C160.985 36.7994 161.058 37.0654 161.174 37.3089C161.345 37.6071 161.586 37.8459 161.871 37.9987C162.191 38.2104 162.414 38.2652 162.532 38.1712C162.597 38.1152 162.649 38.0442 162.687 37.9629C162.724 37.8817 162.745 37.7922 162.748 37.7008V37.6773ZM169.061 44.1128C169.45 44.3593 169.808 44.6624 170.127 45.0143C170.411 45.3211 170.663 45.6629 170.879 46.0333C171.075 46.3592 171.232 46.7122 171.346 47.0837C171.442 47.3987 171.508 47.7247 171.541 48.0557C171.541 48.4006 171.541 48.7533 171.541 49.1217C171.541 49.4901 171.541 49.8272 171.541 50.1329C171.52 50.388 171.453 50.6358 171.346 50.8619C171.245 51.0709 171.079 51.2302 170.879 51.3087C170.633 51.3863 170.373 51.3863 170.127 51.3087C169.75 51.211 169.39 51.0441 169.061 50.8148C168.679 50.5664 168.323 50.2692 168.002 49.9291C167.718 49.6203 167.463 49.2787 167.242 48.9101C167.051 48.5815 166.894 48.229 166.776 47.8597C166.677 47.5457 166.614 47.2192 166.587 46.8877C166.587 46.5506 166.553 46.1979 166.553 45.8295C166.553 45.4611 166.553 45.124 166.587 44.8105C166.604 44.5554 166.668 44.3071 166.776 44.0815C166.88 43.8777 167.045 43.7222 167.242 43.6425C167.488 43.5536 167.749 43.5374 168.002 43.5955C168.38 43.7057 168.738 43.8887 169.061 44.1364V44.1128ZM169.946 48.9101C169.951 48.7952 169.951 48.68 169.946 48.5652V47.5775C169.946 47.4207 169.946 47.2953 169.946 47.2169C169.922 46.9419 169.848 46.6752 169.73 46.4331C169.559 46.1325 169.318 45.891 169.033 45.7354C168.712 45.5316 168.489 45.4689 168.371 45.5708C168.304 45.6292 168.25 45.7041 168.212 45.7897C168.175 45.8752 168.155 45.9693 168.155 46.0646C168.147 46.1768 168.147 46.2895 168.155 46.4017C168.155 46.5585 168.155 46.7231 168.155 46.9034C168.155 47.0837 168.155 47.2483 168.155 47.4129C168.148 47.5356 168.148 47.6586 168.155 47.7813C168.176 48.0571 168.249 48.3246 168.371 48.5652C168.529 48.8629 168.758 49.1047 169.033 49.2628C169.353 49.4666 169.586 49.5215 169.73 49.4274C169.795 49.3679 169.849 49.2928 169.886 49.2075C169.924 49.1221 169.944 49.0287 169.946 48.9336V48.9101Z" fill="#FAFAFA"/>
<path d="M46.6612 116.345C46.6859 115.836 46.8167 115.34 47.043 114.897C47.2693 114.455 47.5848 114.078 47.964 113.798L66.8312 101.546C67.5279 101.076 68.134 101.46 68.134 102.401V122.914C68.1104 123.424 67.98 123.921 67.7536 124.363C67.5273 124.806 67.2112 125.182 66.8312 125.462L58.9304 130.588L56.4361 141.931C56.4444 142.139 56.379 142.342 56.2542 142.495C56.1295 142.649 55.9555 142.741 55.7708 142.75C55.586 142.759 55.4055 142.686 55.2689 142.545C55.1324 142.405 55.051 142.209 55.0427 142.001L52.7644 134.578L47.9362 137.714C47.2394 138.184 46.6333 137.8 46.6333 136.867L46.6612 116.345Z" fill="#72A276"/>
<g opacity="0.5">
<path opacity="0.5" d="M46.6612 116.345C46.6859 115.836 46.8167 115.34 47.043 114.897C47.2693 114.455 47.5848 114.078 47.964 113.798L66.8312 101.546C67.5279 101.076 68.134 101.46 68.134 102.401V122.914C68.1104 123.424 67.98 123.921 67.7536 124.363C67.5273 124.806 67.2112 125.182 66.8312 125.462L58.9304 130.588L56.4361 141.931C56.4444 142.139 56.379 142.342 56.2542 142.495C56.1295 142.649 55.9555 142.741 55.7708 142.75C55.586 142.759 55.4055 142.686 55.2689 142.545C55.1324 142.405 55.051 142.209 55.0427 142.001L52.7644 134.578L47.9362 137.714C47.2394 138.184 46.6333 137.8 46.6333 136.867L46.6612 116.345Z" fill="white"/>
</g>
<path d="M53.2519 114.817C53.6291 114.553 54.0439 114.365 54.4782 114.261C54.7697 114.194 55.0714 114.21 55.356 114.308C55.585 114.4 55.7759 114.585 55.8925 114.825C56.0171 115.084 56.0908 115.37 56.1085 115.664C56.1364 116.024 56.1503 116.416 56.1503 116.839C56.1503 117.263 56.1364 117.67 56.1085 118.062C56.078 118.447 56.0054 118.826 55.8925 119.191C55.759 119.617 55.5788 120.022 55.356 120.398C55.1039 120.826 54.8094 121.221 54.4782 121.574C54.1079 121.971 53.6962 122.316 53.2519 122.601C52.8703 122.863 52.4541 123.057 52.0188 123.173C51.7304 123.245 51.4302 123.232 51.1479 123.134C50.9189 123.041 50.728 122.857 50.6114 122.616C50.4846 122.358 50.4085 122.072 50.3884 121.778C50.3884 121.417 50.3884 120.994 50.3884 120.602C50.3884 120.21 50.3884 119.771 50.3884 119.379C50.4217 118.994 50.4966 118.615 50.6114 118.25C50.742 117.823 50.9224 117.417 51.1479 117.043C51.4012 116.616 51.6931 116.219 52.0188 115.86C52.3906 115.457 52.8047 115.107 53.2519 114.817ZM60.9159 110.341C60.9949 110.17 61.0882 110.007 61.1945 109.855C61.3118 109.705 61.4508 109.578 61.6056 109.479L62.7622 108.695C62.8583 108.615 62.9785 108.582 63.0966 108.601C63.1802 108.601 63.222 108.703 63.222 108.828C63.2269 108.87 63.2269 108.912 63.222 108.954L63.1663 109.118L53.6769 129.326C53.5979 129.495 53.5046 129.655 53.3983 129.804C53.2825 129.957 53.1433 130.084 52.9872 130.181L51.8376 130.965C51.7387 131.044 51.6165 131.078 51.4962 131.059C51.4126 131.059 51.3708 130.957 51.3708 130.831C51.3659 130.79 51.3659 130.747 51.3708 130.706L51.4265 130.541L60.9159 110.341ZM54.2692 119.066C54.2787 118.925 54.2787 118.783 54.2692 118.642V117.474C54.2792 117.341 54.2792 117.208 54.2692 117.075C54.2653 116.965 54.241 116.857 54.1978 116.758C54.1546 116.66 54.0935 116.573 54.0183 116.502C53.879 116.393 53.6212 116.502 53.2519 116.698C52.9669 116.86 52.7237 117.101 52.5455 117.399C52.3674 117.697 52.2604 118.041 52.2347 118.399C52.2245 118.543 52.2245 118.687 52.2347 118.83C52.2347 119.019 52.2347 119.215 52.2347 119.418C52.2347 119.622 52.2347 119.81 52.2347 119.998C52.2238 120.129 52.2238 120.26 52.2347 120.39C52.2347 120.501 52.2573 120.61 52.3008 120.709C52.3443 120.809 52.4075 120.895 52.4856 120.963C52.6249 121.072 52.8757 121.002 53.2519 120.767C53.5663 120.589 53.8314 120.318 54.0183 119.983C54.1571 119.7 54.2425 119.387 54.2692 119.066ZM61.5638 117.028C61.9441 116.763 62.3609 116.573 62.797 116.463C63.0862 116.397 63.3856 116.413 63.6679 116.51C63.8969 116.603 64.0877 116.787 64.2044 117.028C64.3312 117.286 64.4072 117.572 64.4273 117.866C64.4273 118.227 64.4622 118.65 64.4622 119.042C64.4622 119.434 64.4622 119.873 64.4273 120.265C64.3946 120.65 64.3197 121.029 64.2044 121.394C64.0725 121.823 63.8922 122.231 63.6679 122.609C63.1342 123.515 62.4181 124.267 61.5777 124.803C61.1994 125.068 60.7852 125.261 60.3515 125.376C60.0611 125.452 59.7578 125.438 59.4736 125.336C59.2433 125.246 59.0517 125.061 58.9372 124.819C58.8118 124.561 58.738 124.274 58.7212 123.98C58.7212 123.628 58.6794 123.196 58.6794 122.812C58.6794 122.428 58.6794 121.974 58.7212 121.582C58.7513 121.199 58.8238 120.823 58.9372 120.461C59.0706 120.032 59.2508 119.624 59.4736 119.246C59.7274 118.817 60.0217 118.42 60.3515 118.062C60.7123 117.651 61.1199 117.295 61.5638 117.004V117.028ZM62.581 121.245C62.5905 121.104 62.5905 120.962 62.581 120.821V119.661C62.5911 119.528 62.5911 119.395 62.581 119.262C62.5816 119.151 62.5592 119.041 62.5156 118.942C62.4721 118.843 62.4086 118.756 62.3302 118.689C62.1909 118.58 61.94 118.642 61.5638 118.885C61.2506 119.065 60.986 119.335 60.7974 119.669C60.6629 119.949 60.5777 120.255 60.5466 120.571C60.5399 120.712 60.5399 120.853 60.5466 120.994C60.5466 121.19 60.5466 121.386 60.5466 121.582C60.5466 121.778 60.5466 121.982 60.5466 122.162C60.5393 122.292 60.5393 122.423 60.5466 122.554C60.5504 122.664 60.5747 122.771 60.6179 122.87C60.6611 122.968 60.7223 123.056 60.7974 123.126C60.9368 123.236 61.1945 123.173 61.5638 122.93C61.8784 122.753 62.1435 122.482 62.3302 122.146C62.4739 121.863 62.5596 121.547 62.581 121.221V121.245Z" fill="#FAFAFA"/>
</g>
<defs>
<filter id="filter0_d" x="0" y="0.458008" width="302" height="259.542" filterUnits="userSpaceOnUse" color-interpolation-filters="sRGB">
<feFlood flood-opacity="0" result="BackgroundImageFix"/>
<feColorMatrix in="SourceAlpha" type="matrix" values="0 0 0 0 0 0 0 0 0 0 0 0 0 0 0 0 0 0 127 0"/>
<feOffset dy="4"/>
<feGaussianBlur stdDeviation="2"/>
<feColorMatrix type="matrix" values="0 0 0 0 0 0 0 0 0 0 0 0 0 0 0 0 0 0 0.16 0"/>
<feBlend mode="normal" in2="BackgroundImageFix" result="effect1_dropShadow"/>
<feBlend mode="normal" in="SourceGraphic" in2="effect1_dropShadow" result="shape"/>
</filter>
</defs>
</svg>
