<svg width="184" height="154" viewBox="0 0 184 154" fill="none" xmlns="http://www.w3.org/2000/svg">
<g filter="url(#filter0_d)">
<path d="M29.7114 131.094C63.9427 150.512 119.444 150.512 153.675 131.094C187.906 111.676 187.906 80.2378 153.675 60.8382C119.444 41.4386 63.9427 41.4206 29.7114 60.8382C-4.51999 80.2558 -4.51999 111.69 29.7114 131.094Z" fill="#F5F5F5"/>
<path d="M48.6211 41.8495L56.8709 36.6836L48.6211 31.5176L40.2964 36.6836L48.6211 41.8495Z" stroke="#EBEBEB" stroke-width="1.08419" stroke-linecap="round" stroke-linejoin="round"/>
<path d="M42.2153 36.6879L48.6254 16.5884V40.7024L42.2153 36.6879Z" fill="#E0E0E0"/>
<path d="M48.6252 40.7024L55.0311 36.6879L48.6252 16.5884V40.7024Z" fill="#E6E6E6"/>
<path d="M38.5398 48.1533L46.7897 42.9873L38.5398 37.8213L30.2151 42.9873L38.5398 48.1533Z" stroke="#EBEBEB" stroke-width="1.08419" stroke-linecap="round" stroke-linejoin="round"/>
<path d="M32.1338 42.9915L38.5397 13.1426V47.006L32.1338 42.9915Z" fill="#E0E0E0"/>
<path d="M38.5398 47.006L44.9457 42.9915L38.5398 13.1426V47.006Z" fill="#E6E6E6"/>
<path d="M28.4585 54.457L36.7084 49.291L28.4585 44.125L20.1296 49.291L28.4585 54.457Z" stroke="#EBEBEB" stroke-width="1.08419" stroke-linecap="round" stroke-linejoin="round"/>
<path d="M22.0525 49.296L28.4584 31.5176V53.3104L22.0525 49.296Z" fill="#E0E0E0"/>
<path d="M28.4585 53.3104L34.8644 49.296L28.4585 31.5176V53.3104Z" fill="#E6E6E6"/>
<path d="M18.3772 60.7611L26.6271 55.5952L18.3772 50.4292L10.0483 55.5952L18.3772 60.7611Z" stroke="#EBEBEB" stroke-width="1.08419" stroke-linecap="round" stroke-linejoin="round"/>
<path d="M11.9673 55.5997L18.3774 25.4165V59.6142L11.9673 55.5997Z" fill="#E0E0E0"/>
<path d="M18.3772 59.6142L24.7831 55.5997L18.3772 25.4165V59.6142Z" fill="#E6E6E6"/>
<path d="M128.326 34.981L172.323 62.5359" stroke="#EBEBEB" stroke-width="1.08419" stroke-miterlimit="10" stroke-linecap="round"/>
<path d="M172.323 59.6137C172.27 56.1547 172.046 52.7013 171.653 49.2682C171.236 45.5382 170.404 39.2433 167.095 37.1661C163.786 35.0888 162.537 38.8459 162.058 40.6928C161.434 43.0907 158.192 41.5734 157.742 37.6221C157.293 33.6709 156.997 21.081 153.109 18.6561C149.222 16.2312 147.969 22.079 147.528 23.7137C146.658 26.9244 144.106 26.0393 143.274 23.9124C142.441 21.7855 140.169 21.2662 139.311 24.2601C138.454 27.254 137.925 30.6905 135.149 28.9249C132.71 27.376 133.829 24.5536 131.453 23.2125C129.571 22.1558 128.697 27.1953 128.697 32.2936L172.323 59.6137Z" fill="#E0E0E0"/>
<path d="M169.126 33.337C169.126 33.8879 168.668 34.0459 168.11 33.6982L164.78 31.6029C164.507 31.4346 164.272 31.1999 164.096 30.9171C163.92 30.6343 163.807 30.3111 163.765 29.9728C163.765 29.4264 164.223 29.2638 164.78 29.6161L168.11 31.7113C168.384 31.8786 168.618 32.1125 168.794 32.3946C168.97 32.6767 169.084 32.9992 169.126 33.337Z" fill="#E6E6E6"/>
<path d="M155.457 15.6216C155.457 16.1725 155.003 16.3306 154.441 15.9829L151.111 13.8876C150.837 13.7201 150.602 13.4856 150.426 13.2026C150.25 12.9197 150.136 12.5961 150.095 12.2575C150.095 11.7111 150.549 11.5485 151.111 11.9007L154.441 13.996C154.715 14.1628 154.949 14.3965 155.126 14.6787C155.302 14.9609 155.415 15.2837 155.457 15.6216Z" fill="#E6E6E6"/>
<path d="M144.63 18.882C144.63 19.433 144.177 19.591 143.619 19.2433L140.289 17.148C140.015 16.9804 139.78 16.7459 139.604 16.4629C139.428 16.18 139.314 15.8564 139.273 15.5177C139.273 14.9713 139.727 14.8087 140.289 15.161L143.619 17.2563C143.892 17.4239 144.125 17.658 144.301 17.9401C144.476 18.2222 144.589 18.5446 144.63 18.882Z" fill="#E6E6E6"/>
<path d="M134.366 19.9611C134.366 20.512 133.912 20.67 133.35 20.3178L130.02 18.227C129.747 18.0584 129.514 17.8235 129.338 17.5407C129.163 17.2579 129.05 16.9348 129.009 16.5968C129.009 16.0504 129.463 15.8879 130.02 16.2401L133.35 18.3309C133.624 18.4989 133.859 18.7336 134.035 19.0164C134.211 19.2993 134.324 19.6226 134.366 19.9611Z" fill="#E6E6E6"/>
<path d="M126.495 30.912V1.05859" stroke="#EBEBEB" stroke-width="1.08419" stroke-miterlimit="10" stroke-linecap="round"/>
<path d="M19.8506 96.9445C19.8506 96.9445 20.5332 90.3155 18.6393 84.0025C16.8578 78.0327 13.2782 74.8672 11.1096 73.9189C7.00964 72.1443 6.64335 77.0438 9.71518 80.4351C11.967 82.9278 17.3864 88.0666 18.3188 96.782L19.8506 96.9445Z" fill="#72A276"/>
<path opacity="0.7" d="M19.8506 96.9445C19.8506 96.9445 20.5332 90.3155 18.6393 84.0025C16.8578 78.0327 13.2782 74.8672 11.1096 73.9189C7.00964 72.1443 6.64335 77.0438 9.71518 80.4351C11.967 82.9278 17.3864 88.0666 18.3188 96.782L19.8506 96.9445Z" fill="white"/>
<path d="M10.0024 75.2881C12.479 77.0944 19.1347 82.3101 19.3761 96.8959" stroke="#FAFAFA" stroke-width="1.08419" stroke-miterlimit="10" stroke-linecap="round"/>
<path d="M18.1066 101.475C16.833 94.7913 14.2315 92.3664 9.5821 89.7834C7.59249 88.6815 5.26156 87.4532 4.42076 86.0488C3.57996 84.6444 4.00452 82.7569 6.86823 82.7975C12.1003 82.8743 18.0609 89.7156 18.8559 97.2117L18.1066 101.475Z" fill="#72A276"/>
<path opacity="0.8" d="M18.1066 101.475C16.833 94.7913 14.2315 92.3664 9.5821 89.7834C7.59249 88.6815 5.26156 87.4532 4.42076 86.0488C3.57996 84.6444 4.00452 82.7569 6.86823 82.7975C12.1003 82.8743 18.0609 89.7156 18.8559 97.2117L18.1066 101.475Z" fill="white"/>
<path d="M6.427 84.2515C10.3771 84.834 16.6165 89.8284 18.5978 98.7018" stroke="#FAFAFA" stroke-width="1.08419" stroke-miterlimit="10" stroke-linecap="round"/>
<path d="M164.035 93.8159C165.638 90.4742 166.882 81.0996 164.822 76.7645C162.762 72.4294 159.698 72.7771 159.224 74.1815C158.807 75.4775 159.835 77.7941 161.167 80.5532C162.499 83.3123 163.623 89.2234 162.362 91.978L164.035 93.8159Z" fill="#72A276"/>
<path opacity="0.7" d="M164.035 93.8159C165.638 90.4742 166.882 81.0996 164.822 76.7645C162.762 72.4294 159.698 72.7771 159.224 74.1815C158.807 75.4775 159.835 77.7941 161.167 80.5532C162.499 83.3123 163.623 89.2234 162.362 91.978L164.035 93.8159Z" fill="white"/>
<path d="M161.246 74.4072C162.557 75.5497 166.312 82.5355 163.685 92.1224" stroke="#FAFAFA" stroke-width="1.08419" stroke-miterlimit="10" stroke-linecap="round"/>
<path d="M163.527 97.3561C162.562 95.2608 160.447 91.7927 161.887 89.4129C163.328 87.0331 164.834 89.1375 165.991 87.5841C167.149 86.0306 165.825 83.5199 166.824 82.1652C168.755 79.5009 170.154 82.5942 171.669 82.1878C172.764 81.8943 173.983 79.2616 177.134 79.5822C180.285 79.9028 180.127 82.6122 178.724 83.8857C177.321 85.1591 175.656 86.428 176.739 88.3382C177.696 90.0316 178.191 93.161 174.916 94.3757C171.785 95.5362 173.334 97.0084 172.834 98.6702C172.335 100.332 169.38 101.908 166.237 100.625L163.527 97.3561Z" fill="#72A276"/>
<path opacity="0.8" d="M163.527 97.3561C162.562 95.2608 160.447 91.7927 161.887 89.4129C163.328 87.0331 164.834 89.1375 165.991 87.5841C167.149 86.0306 165.825 83.5199 166.824 82.1652C168.755 79.5009 170.154 82.5942 171.669 82.1878C172.764 81.8943 173.983 79.2616 177.134 79.5822C180.285 79.9028 180.127 82.6122 178.724 83.8857C177.321 85.1591 175.656 86.428 176.739 88.3382C177.696 90.0316 178.191 93.161 174.916 94.3757C171.785 95.5362 173.334 97.0084 172.834 98.6702C172.335 100.332 169.38 101.908 166.237 100.625L163.527 97.3561Z" fill="white"/>
<path d="M177.567 81.1177C174.154 82.1111 165.979 89.3182 165.288 98.3633" stroke="#FAFAFA" stroke-width="1.08419" stroke-miterlimit="10" stroke-linecap="round"/>
<path d="M175.107 90.6145C173.421 90.1991 169.138 90.1403 167.536 90.9847" stroke="#FAFAFA" stroke-width="1.08419" stroke-miterlimit="10" stroke-linecap="round"/>
<path d="M168.489 82.96C168.489 82.96 169.738 85.5837 169.559 87.7919" stroke="#FAFAFA" stroke-width="1.08419" stroke-miterlimit="10" stroke-linecap="round"/>
<path d="M121.929 57.3336C121.371 55.2379 120.373 53.3106 119.015 51.7025C117.409 49.803 115.531 48.1973 113.454 46.9474C111.042 45.4649 108.477 44.2963 105.812 43.4658C102.876 42.5466 99.8652 41.9416 96.8211 41.6595C93.6767 41.3479 90.5127 41.3479 87.3683 41.6595C84.3256 41.9416 81.3157 42.5466 78.3818 43.4658C75.7155 44.2955 73.1489 45.4641 70.7355 46.9474C68.6579 48.2082 66.7815 49.8245 65.1787 51.7341C63.8215 53.3432 62.8244 55.2702 62.2651 57.3652C61.7678 59.3032 61.7678 61.3518 62.2651 63.2899C62.82 65.3856 63.8176 67.3121 65.1787 68.9165C66.7826 70.8278 68.6604 72.4457 70.7397 73.7077C73.1502 75.1897 75.714 76.3569 78.3776 77.1848C81.3129 78.108 84.324 78.719 87.3683 79.0091C90.5129 79.3162 93.6765 79.3162 96.8211 79.0091C99.867 78.7178 102.88 78.1053 105.816 77.1803C108.48 76.3524 111.043 75.1852 113.454 73.7031C115.534 72.4423 117.412 70.8243 119.015 68.9119C120.374 67.3061 121.372 65.3801 121.929 63.2853C122.426 61.3382 122.426 59.2807 121.929 57.3336Z" fill="#37474F"/>
<path d="M61.8906 57.3428H122.299V60.6845L61.8906 60.4994V57.3428Z" fill="#37474F"/>
<path d="M87.3684 38.6655L92.0885 57.3335L78.3818 40.4899C81.3152 39.5646 84.3251 38.9535 87.3684 38.6655Z" fill="#455A64"/>
<path d="M96.8214 38.6654L92.1012 57.3334L87.3811 38.6563C90.5216 38.3486 93.6814 38.3516 96.8214 38.6654Z" fill="#455A64"/>
<path d="M105.812 40.4896L92.1011 57.3333L96.8212 38.6562C99.8661 38.9472 102.877 39.5613 105.812 40.4896Z" fill="#455A64"/>
<path d="M119.011 48.7534C120.369 50.3639 121.366 52.2924 121.924 54.389L92.1052 57.3333L119.011 48.7534Z" fill="#455A64"/>
<path d="M121.929 54.3936C122.422 56.3306 122.422 58.3765 121.929 60.3136L92.1052 57.3333L121.929 54.3936Z" fill="#455A64"/>
<path d="M121.929 60.314C121.371 62.4098 120.374 64.3371 119.015 65.9452L92.1052 57.3652L121.929 60.314Z" fill="#455A64"/>
<path d="M119.015 65.945C117.412 67.8558 115.534 69.4723 113.454 70.7317L92.0969 57.3335L119.015 65.945Z" fill="#455A64"/>
<path d="M92.1011 57.3563L105.816 74.2136C102.879 75.1332 99.8667 75.7381 96.8212 76.0199L92.0969 57.3428L92.1011 57.3563Z" fill="#455A64"/>
<path d="M92.0969 57.3608L96.8212 76.0379C93.6768 76.3495 90.5128 76.3495 87.3684 76.0379L92.0969 57.3608Z" fill="#455A64"/>
<path d="M92.0886 57.356L87.3601 76.033C84.3146 75.7513 81.3019 75.1463 78.3652 74.2267L92.0886 57.356Z" fill="#455A64"/>
<path d="M92.0886 57.356L78.3528 74.2132C75.6897 73.3819 73.1261 72.2133 70.7148 70.7316L92.0886 57.356Z" fill="#455A64"/>
<path d="M92.0844 57.3335L65.1746 65.9134C63.8142 64.3068 62.8167 62.379 62.261 60.2823L92.0844 57.3335Z" fill="#455A64"/>
<path d="M92.0844 57.3333L62.2651 60.3136C61.7677 58.3771 61.7677 56.33 62.2651 54.3936L92.0844 57.3333Z" fill="#455A64"/>
<path d="M92.0846 57.3332L62.2654 54.3754C62.8255 52.2794 63.8224 50.3511 65.179 48.7397L92.0846 57.3332Z" fill="#455A64"/>
<path d="M70.7357 43.9761L92.0845 57.3336L65.179 48.7537C66.7823 46.8472 68.6586 45.234 70.7357 43.9761Z" fill="#455A64"/>
<path d="M113.454 43.9761L92.1011 57.3336L105.812 40.481C108.478 41.3139 111.043 42.4872 113.454 43.9761Z" fill="#455A64"/>
<path d="M113.454 43.9761C115.532 45.2328 117.408 46.8462 119.011 48.7537L92.1052 57.3336L113.454 43.9761Z" fill="#455A64"/>
<path d="M92.0885 57.3335L70.7272 70.7136C68.6482 69.4531 66.7704 67.8368 65.1663 65.9269L92.076 57.347L92.0885 57.3335Z" fill="#455A64"/>
<path d="M78.3821 40.4897L92.0888 57.3335L70.7358 43.9578C73.149 42.4774 75.7158 41.3133 78.3821 40.4897Z" fill="#455A64"/>
<path d="M92.1011 57.356L113.454 70.7316C111.043 72.2133 108.479 73.3819 105.816 74.2132L92.1011 57.356Z" fill="#455A64"/>
<path d="M73.8281 38.4939L90.7898 49.115L89.9573 34.1001C83.7179 34.3891 78.4192 35.8341 73.8281 38.4939Z" fill="#72A276"/>
<path opacity="0.2" d="M73.8281 38.4939L90.7898 49.115L89.9573 34.1001C83.7179 34.3891 78.4192 35.8341 73.8281 38.4939Z" fill="white"/>
<path d="M90.7898 49.1146V54.9128L73.8281 44.2873V38.4937L90.7898 49.1146Z" fill="#72A276"/>
<path opacity="0.1" d="M90.7898 49.1146V54.9128L73.8281 44.2873V38.4937L90.7898 49.1146Z" fill="black"/>
<path d="M112.78 39.9839L93.3123 49.5121V55.3058L112.78 45.7776V39.9839Z" fill="#72A276"/>
<path opacity="0.3" d="M112.78 39.9839L93.3123 49.5121V55.3058L112.78 45.7776V39.9839Z" fill="black"/>
<path d="M112.78 39.9841C107.539 36.1141 100.551 34.073 92.4507 34.0459L92.971 43.4341L93.3123 49.5123L112.78 39.9841Z" fill="#72A276"/>
<path opacity="0.1" d="M112.78 39.9841C107.539 36.1141 100.551 34.073 92.4507 34.0459L92.971 43.4341L93.3123 49.5123L112.78 39.9841Z" fill="black"/>
<path d="M92.4468 34.0459V39.8396L93.3125 55.306V49.5123L92.4468 34.0459Z" fill="#263238"/>
<path d="M97.2707 60.6703L107.223 71.0565C107.781 70.8262 108.297 70.6049 108.888 70.2978C115.743 66.9472 119.327 61.9257 119.323 56.859V51.1241C118.57 48.943 116.497 48.9475 114.328 47.0283L94.0033 56.9629L93.7993 57.0623L97.2707 60.6703Z" fill="#72A276"/>
<path opacity="0.6" d="M97.2707 60.6703L107.223 71.0565C107.781 70.8262 108.297 70.6049 108.888 70.2978C115.743 66.9472 119.327 61.9257 119.323 56.859V51.1241C118.57 48.943 116.497 48.9475 114.328 47.0283L94.0033 56.9629L93.7993 57.0623L97.2707 60.6703Z" fill="white"/>
<path d="M97.271 54.8769L107.223 65.2631C107.781 65.0328 108.297 64.8115 108.888 64.4999C120.364 58.8778 122.661 48.582 114.337 41.2168L94.0118 51.1514L93.8079 51.2508L97.271 54.8769Z" fill="#72A276"/>
<path opacity="0.8" d="M97.271 54.8769L107.223 65.2631C107.781 65.0328 108.297 64.8115 108.888 64.4999C120.364 58.8778 122.661 48.582 114.337 41.2168L94.0118 51.1514L93.8079 51.2508L97.271 54.8769Z" fill="white"/>
<path d="M107.206 71.0475V65.2493L93.7869 51.2642V57.0578L107.206 71.0475Z" fill="#72A276"/>
<path opacity="0.6" d="M107.206 71.0475V65.2493L93.7869 51.2642V57.0578L107.206 71.0475Z" fill="white"/>
<path d="M72.0634 45.394C69.2039 47.3493 66.028 48.5821 64.8708 50.9574V56.7556C64.8708 59.7766 66.1653 62.8383 68.8501 65.638C72.5962 69.5351 78.5276 72.2897 85.5745 73.387C92.096 74.4314 98.7495 73.9057 105.063 71.8471V66.0535L96.3009 62.7118L91.1562 57.3336L72.0634 45.394Z" fill="#72A276"/>
<path opacity="0.6" d="M72.0634 45.394C69.2039 47.3493 66.028 48.5821 64.8708 50.9574V56.7556C64.8708 59.7766 66.1653 62.8383 68.8501 65.638C72.5962 69.5351 78.5276 72.2897 85.5745 73.387C92.096 74.4314 98.7495 73.9057 105.063 71.8471V66.0535L96.3009 62.7118L91.1562 57.3336L72.0634 45.394Z" fill="black"/>
<path d="M72.0636 39.6001C63.8471 45.2086 62.5235 53.2466 68.8503 59.8396C72.5964 63.7412 78.5278 66.4912 85.5747 67.5931C92.0963 68.6352 98.7493 68.1095 105.063 66.0532L96.3011 56.9179L91.1564 51.5577L72.0636 39.6001Z" fill="#72A276"/>
<path opacity="0.3" d="M72.0636 39.6001C63.8471 45.2086 62.5235 53.2466 68.8503 59.8396C72.5964 63.7412 78.5278 66.4912 85.5747 67.5931C92.0963 68.6352 98.7493 68.1095 105.063 66.0532L96.3011 56.9179L91.1564 51.5577L72.0636 39.6001Z" fill="black"/>
<path d="M167.403 102.784C166.845 100.688 165.847 98.7612 164.489 97.153C162.887 95.2426 161.01 93.6262 158.932 92.3663C156.52 90.8838 153.955 89.7152 151.29 88.8847C148.355 87.9656 145.343 87.3606 142.299 87.0784C139.155 86.7668 135.991 86.7668 132.847 87.0784C129.804 87.361 126.794 87.966 123.86 88.8847C121.195 89.7152 118.63 90.8838 116.218 92.3663C114.138 93.6258 112.26 95.2422 110.657 97.153C109.3 98.7621 108.303 100.689 107.743 102.784C107.246 104.722 107.246 106.771 107.743 108.709C108.298 110.804 109.296 112.731 110.657 114.335C112.261 116.247 114.139 117.865 116.218 119.127C118.629 120.607 121.193 121.774 123.856 122.604C126.793 123.521 129.806 124.126 132.851 124.41C135.995 124.717 139.159 124.717 142.304 124.41C145.349 124.126 148.361 123.521 151.298 122.604C153.963 121.776 156.527 120.607 158.936 119.122C161.018 117.863 162.897 116.246 164.501 114.335C165.86 112.729 166.857 110.803 167.415 108.709C167.906 106.769 167.902 104.721 167.403 102.784Z" fill="#37474F"/>
<path d="M107.365 102.78H167.773V106.122L107.365 105.936V102.78Z" fill="#37474F"/>
<path d="M132.842 84.103L137.567 102.78L123.856 85.9274C126.789 85.0025 129.799 84.3915 132.842 84.103Z" fill="#455A64"/>
<path d="M142.295 84.1029L137.575 102.78L132.851 84.1029C135.992 83.7919 139.153 83.7919 142.295 84.1029Z" fill="#455A64"/>
<path d="M151.286 85.9274L137.575 102.78L142.295 84.103C145.34 84.3911 148.351 85.0021 151.286 85.9274Z" fill="#455A64"/>
<path d="M164.485 94.1953C165.843 95.8052 166.84 97.7339 167.398 99.8309L137.579 102.789L164.485 94.1953Z" fill="#455A64"/>
<path d="M167.402 99.8311C167.898 101.768 167.898 103.814 167.402 105.751L137.583 102.789L167.402 99.8311Z" fill="#455A64"/>
<path d="M167.402 105.751C166.843 107.846 165.846 109.773 164.489 111.382L137.579 102.802L167.402 105.751Z" fill="#455A64"/>
<path d="M164.493 111.382C162.886 113.291 161.007 114.907 158.928 116.169L137.571 102.789L164.493 111.382Z" fill="#455A64"/>
<path d="M137.575 102.793L151.29 119.651C148.353 120.568 145.34 121.173 142.295 121.457L137.571 102.78L137.575 102.793Z" fill="#455A64"/>
<path d="M137.571 102.798L142.295 121.457C139.151 121.766 135.987 121.766 132.842 121.457L137.571 102.798Z" fill="#455A64"/>
<path d="M137.567 102.793L132.842 121.457C129.797 121.172 126.785 120.567 123.847 119.65L137.567 102.793Z" fill="#455A64"/>
<path d="M137.566 102.793L123.831 119.65C121.168 118.817 118.605 117.649 116.193 116.169L137.566 102.793Z" fill="#455A64"/>
<path d="M137.558 102.789L110.649 111.368C109.288 109.762 108.291 107.834 107.735 105.737L137.558 102.789Z" fill="#455A64"/>
<path d="M137.558 102.789L107.739 105.751C107.242 103.815 107.242 101.768 107.739 99.8311L137.558 102.789Z" fill="#455A64"/>
<path d="M137.558 102.784L107.739 99.8265C108.298 97.7301 109.295 95.8016 110.653 94.1909L137.558 102.784Z" fill="#455A64"/>
<path d="M116.214 89.395L137.558 102.766L110.653 94.1862C112.256 92.2738 114.134 90.6558 116.214 89.395Z" fill="#455A64"/>
<path d="M158.928 89.3952L137.575 102.766L151.286 85.9136C153.951 86.7422 156.516 87.9109 158.928 89.3952Z" fill="#455A64"/>
<path d="M158.928 89.395C161.006 90.6531 162.883 92.268 164.485 94.1772L137.583 102.757L158.928 89.395Z" fill="#455A64"/>
<path d="M137.567 102.784L116.21 116.169C114.131 114.907 112.254 113.291 110.649 111.382L137.558 102.802L137.567 102.784Z" fill="#455A64"/>
<path d="M123.856 85.9268L137.567 102.78L116.214 89.3949C118.626 87.9153 121.191 86.7511 123.856 85.9268Z" fill="#455A64"/>
<path d="M137.575 102.793L158.928 116.169C156.517 117.65 153.953 118.819 151.29 119.65L137.575 102.793Z" fill="#455A64"/>
<path d="M110.961 95.4507V104.834C110.742 103.977 110.63 103.091 110.628 102.202V95.4507H110.961Z" fill="#72A276"/>
<path opacity="0.3" d="M110.961 95.4507V104.834C110.742 103.977 110.63 103.091 110.628 102.202V95.4507H110.961Z" fill="black"/>
<path d="M137.558 95.4601L110.961 98.0973C110.52 96.3702 110.52 94.5454 110.961 92.8184L137.558 95.4601Z" fill="#72A276"/>
<path d="M137.558 95.4509L110.961 92.8092C111.461 90.9394 112.351 89.2196 113.562 87.7832L137.558 95.4509Z" fill="#72A276"/>
<path d="M118.52 83.5244L137.558 95.4504L113.562 87.7737C114.994 86.0776 116.668 84.6428 118.52 83.5244Z" fill="#72A276"/>
<path d="M125.338 80.4175L137.567 95.4459L118.52 83.5243C120.671 82.2002 122.96 81.1573 125.338 80.4175Z" fill="#72A276"/>
<path d="M133.354 78.7925L137.567 95.4464L125.338 80.4181C127.954 79.5923 130.639 79.0478 133.354 78.7925Z" fill="#72A276"/>
<path d="M141.808 78.7922L137.575 95.4461L133.363 78.7922C136.172 78.5113 138.999 78.5113 141.808 78.7922Z" fill="#72A276"/>
<path d="M149.804 80.4181L137.575 95.4464L141.808 78.7925C144.516 79.0493 147.194 79.5938 149.804 80.4181Z" fill="#72A276"/>
<g opacity="0.2">
<path opacity="0.2" d="M137.558 95.4601L110.961 98.0973C110.52 96.3702 110.52 94.5454 110.961 92.8184L137.558 95.4601Z" fill="white"/>
<path opacity="0.2" d="M137.558 95.4504L110.961 92.8087C111.461 90.9389 112.351 89.2191 113.562 87.7827L137.558 95.4504Z" fill="white"/>
<path opacity="0.2" d="M118.52 83.5244L137.558 95.4504L113.562 87.7737C114.994 86.0776 116.668 84.6428 118.52 83.5244Z" fill="white"/>
<path opacity="0.2" d="M125.338 80.418L137.567 95.4462L118.52 83.5248C120.671 82.2007 122.96 81.1578 125.338 80.418Z" fill="white"/>
<path opacity="0.2" d="M133.354 78.7915L137.567 95.4455L125.338 80.4172C127.954 79.5914 130.639 79.0469 133.354 78.7915Z" fill="white"/>
<path opacity="0.2" d="M141.808 78.7922L137.575 95.4461L133.363 78.7922C136.172 78.5113 138.999 78.5113 141.808 78.7922Z" fill="white"/>
<path opacity="0.2" d="M149.804 80.4172L137.575 95.4455L141.808 78.7915C144.516 79.0483 147.194 79.5928 149.804 80.4172Z" fill="white"/>
</g>
<path d="M160.122 99.9573L156.131 104.021L153.096 107.133L150.204 110.086L149.816 110.479V117.221C152.194 116.482 154.482 115.44 156.634 114.119C158.489 112.991 160.164 111.547 161.596 109.842C162.807 108.41 163.695 106.693 164.189 104.825C164.41 103.968 164.523 103.083 164.526 102.193V95.4551L160.122 99.9573Z" fill="#72A276"/>
<path opacity="0.3" d="M160.122 99.9573L156.131 104.021L153.096 107.133L150.204 110.086L149.816 110.479V117.221C152.194 116.482 154.482 115.44 156.634 114.119C158.489 112.991 160.164 111.547 161.596 109.842C162.807 108.41 163.695 106.693 164.189 104.825C164.41 103.968 164.523 103.083 164.526 102.193V95.4551L160.122 99.9573Z" fill="black"/>
<path d="M161.579 87.792C162.789 89.2296 163.679 90.9489 164.181 92.818L137.579 95.4597L161.579 87.792Z" fill="#72A276"/>
<path d="M164.514 95.4647C164.51 96.3562 164.397 97.2431 164.177 98.1019L156.118 97.2981L137.579 95.4557L160.11 93.1978L164.177 92.7959C164.399 93.6649 164.513 94.5627 164.514 95.4647Z" fill="#72A276"/>
<path d="M164.177 98.1016C163.681 99.9689 162.794 101.686 161.583 103.119L153.084 100.409L137.579 95.4419L156.118 97.2843L164.177 98.1016Z" fill="#72A276"/>
<path d="M161.583 103.119C160.151 104.823 158.476 106.267 156.622 107.395L150.191 103.358L137.583 95.4644L153.088 100.432L161.583 103.119Z" fill="#72A276"/>
<path d="M156.622 83.5245L137.575 95.4551L149.804 80.4268C152.181 81.1654 154.469 82.2051 156.622 83.5245Z" fill="#72A276"/>
<path d="M156.622 83.5244C158.475 84.6495 160.148 86.0903 161.579 87.7918L137.579 95.4685L156.622 83.5244Z" fill="#72A276"/>
<path d="M156.622 107.395C154.47 108.715 152.181 109.755 149.804 110.493L137.583 95.4644L150.191 103.358L156.622 107.395Z" fill="#72A276"/>
<g opacity="0.2">
<path opacity="0.2" d="M161.579 87.7925C162.789 89.2301 163.679 90.9494 164.181 92.8184L137.579 95.4601L161.579 87.7925Z" fill="white"/>
<path opacity="0.2" d="M164.514 95.4647C164.51 96.3562 164.397 97.2431 164.176 98.1019L156.118 97.2981L137.579 95.4557L160.11 93.1978L164.176 92.7959C164.399 93.6649 164.513 94.5627 164.514 95.4647Z" fill="white"/>
<path opacity="0.2" d="M164.176 98.1016C163.681 99.9689 162.793 101.686 161.583 103.119L153.084 100.409L137.579 95.4419L156.118 97.2843L164.176 98.1016Z" fill="white"/>
<path opacity="0.2" d="M161.583 103.119C160.151 104.823 158.476 106.267 156.622 107.395L150.191 103.358L137.583 95.4644L153.088 100.432L161.583 103.119Z" fill="white"/>
<path opacity="0.2" d="M156.622 83.5245L137.575 95.4551L149.804 80.4268C152.181 81.1654 154.469 82.2051 156.622 83.5245Z" fill="white"/>
<path opacity="0.2" d="M156.622 83.5249C158.474 84.6499 160.148 86.0908 161.579 87.7923L137.579 95.469L156.622 83.5249Z" fill="white"/>
<path opacity="0.2" d="M156.622 107.395C154.469 108.715 152.181 109.755 149.804 110.493L137.583 95.4644L150.191 103.358L156.622 107.395Z" fill="white"/>
</g>
<path d="M149.808 110.497V117.239L137.567 102.193V95.4463L149.808 110.497Z" fill="#263238"/>
<path d="M137.567 102.193L110.961 104.844V98.097L137.567 95.4463V102.193Z" fill="#72A276"/>
<path opacity="0.1" d="M137.567 102.193L110.961 104.844V98.097L137.567 95.4463V102.193Z" fill="black"/>
<path d="M76.4588 102.784C75.9008 100.688 74.9036 98.7612 73.5451 97.153C71.9423 95.2434 70.0659 93.6271 67.9883 92.3663C65.5749 90.8831 63.0083 89.7144 60.342 88.8847C57.4081 87.9655 54.3982 87.3605 51.3555 87.0784C48.2111 86.7668 45.0471 86.7668 41.9027 87.0784C38.8587 87.361 35.8474 87.9659 32.912 88.8847C30.2444 89.7146 27.6765 90.8832 25.2616 92.3663C23.1834 93.6262 21.3069 95.2426 19.7048 97.153C18.3463 98.7612 17.3491 100.688 16.7911 102.784C16.2978 104.723 16.2978 106.77 16.7911 108.709C17.3481 110.804 18.3455 112.73 19.7048 114.335C21.3065 116.247 23.1831 117.865 25.2616 119.127C27.6721 120.609 30.2359 121.776 32.8995 122.604C35.8367 123.521 38.8492 124.126 41.8944 124.41C45.039 124.717 48.2026 124.717 51.3472 124.41C54.3924 124.126 57.4049 123.521 60.342 122.604C63.0064 121.776 65.5705 120.607 67.98 119.122C70.0614 117.863 71.9409 116.247 73.5451 114.335C74.9044 112.73 75.9018 110.804 76.4588 108.709C76.9521 106.77 76.9521 104.723 76.4588 102.784Z" fill="#37474F"/>
<path d="M16.4167 102.78H76.8253V106.122L16.4167 105.936V102.78Z" fill="#37474F"/>
<path d="M41.9111 84.103L46.6313 102.78L32.9204 85.9274C35.8553 85.0025 38.8665 84.3915 41.9111 84.103Z" fill="#455A64"/>
<path d="M51.3472 84.1025L46.6271 102.78L41.9111 84.1025C45.05 83.792 48.2084 83.792 51.3472 84.1025Z" fill="#455A64"/>
<path d="M60.3339 85.9274L46.6272 102.78L51.3473 84.103C54.3906 84.391 57.4005 85.0021 60.3339 85.9274Z" fill="#455A64"/>
<path d="M73.5452 94.1953C74.9038 95.8052 75.901 97.7339 76.4589 99.8309L46.6355 102.789L73.5452 94.1953Z" fill="#455A64"/>
<path d="M76.4589 99.8311C76.9521 101.768 76.9521 103.814 76.4589 105.751L46.6355 102.789L76.4589 99.8311Z" fill="#455A64"/>
<path d="M76.4589 105.751C75.9011 107.847 74.9038 109.774 73.5452 111.382L46.6355 102.802L76.4589 105.751Z" fill="#455A64"/>
<path d="M73.5452 111.382C71.94 113.291 70.0624 114.907 67.9843 116.169L46.623 102.789L73.5452 111.382Z" fill="#455A64"/>
<path d="M46.6272 102.793L60.3422 119.651C57.4051 120.568 54.3926 121.173 51.3474 121.457L46.6189 102.78L46.6272 102.793Z" fill="#455A64"/>
<path d="M46.6188 102.798L51.3472 121.457C48.2083 121.765 45.0501 121.765 41.9111 121.457L46.6188 102.798Z" fill="#455A64"/>
<path d="M46.6146 102.793L41.9111 121.457C38.8659 121.173 35.8534 120.568 32.9163 119.65L46.6146 102.793Z" fill="#455A64"/>
<path d="M46.6147 102.793L32.8789 119.65C30.2229 118.817 27.6664 117.649 25.2617 116.169L46.6147 102.793Z" fill="#455A64"/>
<path d="M46.6105 102.789L19.7008 111.368C18.3422 109.76 17.3449 107.833 16.7871 105.737L46.6105 102.789Z" fill="#455A64"/>
<path d="M46.6105 102.789L16.7871 105.751C16.2939 103.814 16.2939 101.768 16.7871 99.8311L46.6105 102.789Z" fill="#455A64"/>
<path d="M46.6105 102.784L16.7871 99.8265C17.345 97.7295 18.3422 95.8007 19.7008 94.1909L46.6105 102.784Z" fill="#455A64"/>
<path d="M25.2616 89.395L46.6104 102.766L19.7048 94.1862C21.3063 92.2738 23.1829 90.6558 25.2616 89.395Z" fill="#455A64"/>
<path d="M67.9802 89.3952L46.6272 102.766L60.3339 85.9136C63.0008 86.7414 65.5675 87.9101 67.9802 89.3952Z" fill="#455A64"/>
<path d="M67.9801 89.395C70.0617 90.6589 71.941 92.2799 73.5452 94.1952L46.6396 102.775L67.9801 89.395Z" fill="#455A64"/>
<path d="M46.6146 102.784L25.2616 116.169C23.1828 114.908 21.305 113.292 19.7007 111.382L46.6104 102.802L46.6146 102.784Z" fill="#455A64"/>
<path d="M32.9038 85.9268L46.6147 102.78L25.2617 89.3949C27.6738 87.9153 30.2391 86.7511 32.9038 85.9268Z" fill="#455A64"/>
<path d="M46.6272 102.793L67.9802 116.169C65.5689 117.65 63.0053 118.819 60.3422 119.65L46.6272 102.793Z" fill="#455A64"/>
<path d="M54.652 91.2017L58.0943 86.9659C58.0943 81.9985 52.5001 81.8766 50.0276 81.6372C47.5552 81.3979 43.3137 79.858 43.3137 85.5118L44.4958 90.1902C47.9091 89.9522 51.3357 90.2935 54.652 91.2017Z" fill="#72A276"/>
<path opacity="0.6" d="M54.652 91.2017L58.0943 86.9659C58.0943 81.9985 52.5001 81.8766 50.0276 81.6372C47.5552 81.3979 43.3137 79.858 43.3137 85.5118L44.4958 90.1902C47.9091 89.9522 51.3357 90.2935 54.652 91.2017Z" fill="white"/>
<path d="M54.652 84.5501L58.0943 80.3189C53.2743 78.958 48.2807 78.4667 43.3137 78.8648L44.4958 83.5251C47.9098 83.2916 51.3364 83.6374 54.652 84.5501Z" fill="#72A276"/>
<path opacity="0.8" d="M54.652 84.5501L58.0943 80.3189C53.2743 78.958 48.2807 78.4667 43.3137 78.8648L44.4958 83.5251C47.9098 83.2916 51.3364 83.6374 54.652 84.5501Z" fill="white"/>
<path d="M44.4958 83.5426V90.1988L43.3137 85.5205V78.8643L44.4958 83.5426Z" fill="#72A276"/>
<path d="M58.0944 80.3188L54.6521 84.5501V91.2109L58.0944 86.9751V80.3188Z" fill="#72A276"/>
<g opacity="0.6">
<path opacity="0.6" d="M44.4958 83.5426V90.1988L43.3137 85.5205V78.8643L44.4958 83.5426Z" fill="white"/>
<path opacity="0.6" d="M58.0944 80.3184L54.6521 84.5496V91.2103L58.0944 86.9745V80.3184Z" fill="white"/>
</g>
<path d="M56.334 85.0869V91.7431C57.7702 92.2462 59.1563 92.9042 60.4714 93.7075C61.619 94.4144 62.6733 95.2863 63.6057 96.2995L70.357 94.1455C69.0147 92.659 67.4859 91.3851 65.8159 90.3613C63.9719 89.2143 61.999 84.563 56.334 85.0869Z" fill="#72A276"/>
<path opacity="0.6" d="M56.334 85.0869V91.7431C57.7702 92.2462 59.1563 92.9042 60.4714 93.7075C61.619 94.4144 62.6733 95.2863 63.6057 96.2995L70.357 94.1455C69.0147 92.659 67.4859 91.3851 65.8159 90.3613C63.9719 89.2143 61.999 84.563 56.334 85.0869Z" fill="black"/>
<path d="M59.7763 80.8604L56.334 85.0871C57.7716 85.5862 59.158 86.2444 60.4714 87.0514C61.619 87.7583 62.6733 88.6302 63.6057 89.6434L70.357 87.4894C69.0169 86.0002 67.4877 84.726 65.8159 83.7052C63.9022 82.5254 61.8775 81.5716 59.7763 80.8604Z" fill="#72A276"/>
<path opacity="0.3" d="M59.7763 80.8604L56.334 85.0871C57.7716 85.5862 59.158 86.2444 60.4714 87.0514C61.619 87.7583 62.6733 88.6302 63.6057 89.6434L70.357 87.4894C69.0169 86.0002 67.4877 84.726 65.8159 83.7052C63.9022 82.5254 61.8775 81.5716 59.7763 80.8604Z" fill="black"/>
<path d="M63.6055 89.6434L70.3568 87.4849V94.1456L63.6055 96.2996V89.6434Z" fill="#72A276"/>
<path opacity="0.6" d="M63.6055 89.6434L70.3568 87.4849V94.1456L63.6055 96.2996V89.6434Z" fill="black"/>
<path d="M73.745 95.5501H71.464C71.3808 95.4327 71.31 95.3153 71.2268 95.1979L64.467 90.6821V97.3428C65.9072 99.3523 66.4525 101.547 66.0779 103.701L73.5452 104.455C73.6716 103.783 73.7343 103.099 73.7325 102.414L73.745 95.5501Z" fill="#72A276"/>
<path opacity="0.6" d="M73.745 95.5501H71.464C71.3808 95.4327 71.31 95.3153 71.2268 95.1979L64.467 90.6821V97.3428C65.9072 99.3523 66.4525 101.547 66.0779 103.701L73.5452 104.455C73.6716 103.783 73.7343 103.099 73.7325 102.414L73.745 95.5501Z" fill="black"/>
<path d="M66.0737 97.0718L73.5452 97.7988C74.1529 94.6694 73.3828 91.4496 71.2226 88.5415L64.4629 90.6955C65.9031 92.705 66.4692 94.9042 66.0737 97.0718Z" fill="#72A276"/>
<path opacity="0.3" d="M66.0737 97.0718L73.5452 97.7988C74.1529 94.6694 73.3828 91.4496 71.2226 88.5415L64.4629 90.6955C65.9031 92.705 66.4692 94.9042 66.0737 97.0718Z" fill="black"/>
<path d="M73.5454 97.7987V104.459L66.074 103.714V97.0581L73.5454 97.7987Z" fill="#72A276"/>
<path opacity="0.6" d="M73.5454 97.7987V104.459L66.074 103.714V97.0581L73.5454 97.7987Z" fill="black"/>
<path d="M42.6314 90.3888V83.7281C38.469 81.6464 30.7187 83.7597 28.1213 89.9598L33.4658 93.3105C36.3365 91.7529 39.4403 90.7635 42.6314 90.3888Z" fill="#72A276"/>
<path opacity="0.3" d="M42.6314 90.3888V83.7281C38.469 81.6464 30.7187 83.7597 28.1213 89.9598L33.4658 93.3105C36.3365 91.7529 39.4403 90.7635 42.6314 90.3888Z" fill="black"/>
<path d="M42.6311 83.728L41.4448 79.0361C36.4125 79.6503 31.8048 81.154 28.1252 83.3035L33.4697 86.6497C36.3391 85.0926 39.4415 84.1032 42.6311 83.728Z" fill="#72A276"/>
<path opacity="0.1" d="M42.6311 83.728L41.4448 79.0361C36.4125 79.6503 31.8048 81.154 28.1252 83.3035L33.4697 86.6497C36.3391 85.0926 39.4415 84.1032 42.6311 83.728Z" fill="black"/>
<path d="M33.4658 86.6498V93.3105L28.1213 89.9599V83.3037L33.4658 86.6498Z" fill="#263238"/>
<path d="M27.8755 87.4893L26.7766 90.7903C23.1845 93.2017 20.916 96.1053 19.9836 99.1444L27.4759 99.8849C28.1627 97.8032 29.7277 95.8208 32.1502 94.15V87.4893H27.8755Z" fill="#72A276"/>
<path opacity="0.3" d="M27.8755 87.4893L26.7766 90.7903C23.1845 93.2017 20.916 96.1053 19.9836 99.1444L27.4759 99.8849C28.1627 97.8032 29.7277 95.8208 32.1502 94.15V87.4893H27.8755Z" fill="black"/>
<path d="M32.1336 87.4895L26.7766 84.1343C23.1845 86.5412 20.916 89.4493 19.9836 92.4839L27.4759 93.229C28.1461 91.1473 29.7111 89.1603 32.1336 87.4895Z" fill="#72A276"/>
<path opacity="0.1" d="M32.1336 87.4895L26.7766 84.1343C23.1845 86.5412 20.916 89.4493 19.9836 92.4839L27.4759 93.229C28.1461 91.1473 29.7111 89.1603 32.1336 87.4895Z" fill="black"/>
<path d="M19.9836 92.4839V99.1446L27.4593 99.8852V93.229L19.9836 92.4839Z" fill="#263238"/>
<path d="M27.1639 101.055V94.394L24.9412 94.1772L19.4968 95.7171V102.369C19.5317 105.012 20.4149 107.559 21.9943 109.571L28.754 107.417C27.3429 105.408 26.7935 103.209 27.1639 101.055Z" fill="#72A276"/>
<path opacity="0.3" d="M27.1639 101.055V94.394L24.9412 94.1772L19.4968 95.7171V102.369C19.5317 105.012 20.4149 107.559 21.9943 109.571L28.754 107.417C27.3429 105.408 26.7935 103.209 27.1639 101.055Z" fill="black"/>
<path d="M22.0193 102.915L28.779 100.757V107.417L22.0193 109.571V102.915Z" fill="#263238"/>
<path d="M27.168 94.3939L19.6758 93.6533C19.0681 96.7872 19.8381 100.002 21.9984 102.915L28.7581 100.757C27.3429 98.7471 26.7934 96.5479 27.168 94.3939Z" fill="#72A276"/>
<path opacity="0.1" d="M27.168 94.3939L19.6758 93.6533C19.0681 96.7872 19.8381 100.002 21.9984 102.915L28.7581 100.757C27.3429 98.7471 26.7934 96.5479 27.168 94.3939Z" fill="black"/>
<path d="M35.1638 109.563C31.9963 107.58 30.4146 104.984 30.4146 102.387V95.7173H62.8269V102.373C62.8269 104.975 61.2452 107.571 58.0777 109.553C51.7509 113.527 41.4948 113.527 35.1638 109.563Z" fill="#37474F"/>
<path d="M46.6228 105.877C55.5721 105.877 62.8269 101.333 62.8269 95.7261C62.8269 90.1196 55.5721 85.5747 46.6228 85.5747C37.6735 85.5747 30.4187 90.1196 30.4187 95.7261C30.4187 101.333 37.6735 105.877 46.6228 105.877Z" fill="#455A64"/>
<path d="M33.4655 111.468V110.619L22.8806 103.967V110.619C24.2235 112.107 25.7538 113.381 27.4259 114.403C29.3396 115.583 31.3644 116.537 33.4655 117.248L36.9037 113.021C35.7213 112.604 34.5716 112.084 33.4655 111.468Z" fill="#72A276"/>
<path opacity="0.3" d="M33.4655 111.468V110.619L22.8806 103.967V110.619C24.2235 112.107 25.7538 113.381 27.4259 114.403C29.3396 115.583 31.3644 116.537 33.4655 117.248L36.9037 113.021C35.7213 112.604 34.5716 112.084 33.4655 111.468Z" fill="black"/>
<path d="M32.7541 104.401C31.6052 103.696 30.5495 102.826 29.6156 101.813L22.8643 103.967C24.2082 105.454 25.7383 106.728 27.4096 107.752C29.3241 108.93 31.3487 109.883 33.4492 110.597L36.8873 106.365C35.4511 105.866 34.066 105.208 32.7541 104.401Z" fill="#72A276"/>
<path opacity="0.1" d="M32.7541 104.401C31.6052 103.696 30.5495 102.826 29.6156 101.813L22.8643 103.967C24.2082 105.454 25.7383 106.728 27.4096 107.752C29.3241 108.93 31.3487 109.883 33.4492 110.597L36.8873 106.365C35.4511 105.866 34.066 105.208 32.7541 104.401Z" fill="black"/>
<path d="M33.4658 117.253V110.597L36.9039 106.365V113.026L33.4658 117.253Z" fill="#263238"/>
<path d="M35.1475 111.134V117.794C39.9675 119.155 44.961 119.647 49.928 119.249V112.592L35.1475 111.134Z" fill="#72A276"/>
<path opacity="0.1" d="M35.1475 111.134V117.794C39.9675 119.155 44.961 119.647 49.928 119.249V112.592L35.1475 111.134Z" fill="black"/>
<path d="M38.5812 106.902L35.1389 111.134C39.959 112.494 44.9523 112.987 49.9195 112.592L48.7457 107.909C45.3299 108.15 41.9004 107.81 38.5812 106.902Z" fill="#72A276"/>
<path opacity="0.2" d="M38.5812 106.902L35.1389 111.134C39.959 112.494 44.9523 112.987 49.9195 112.592L48.7457 107.909C45.3299 108.15 41.9004 107.81 38.5812 106.902Z" fill="white"/>
<path d="M61.1079 110.619L66.469 113.979C70.0612 111.572 72.3297 108.664 73.262 105.624V98.9683L65.7698 104.884C65.0955 106.966 63.5304 108.953 61.1079 110.619Z" fill="#72A276"/>
<path opacity="0.1" d="M61.1079 110.619L66.469 113.979C70.0612 111.572 72.3297 108.664 73.262 105.624V98.9683L65.7698 104.884C65.0955 106.966 63.5304 108.953 61.1079 110.619Z" fill="black"/>
<path d="M61.1079 103.963L66.469 107.323C70.0612 104.911 72.3297 102.008 73.262 98.9686L65.7698 98.228C65.0955 100.31 63.5304 102.292 61.1079 103.963Z" fill="#72A276"/>
<path opacity="0.2" d="M61.1079 103.963L66.469 107.323C70.0612 104.911 72.3297 102.008 73.262 98.9686L65.7698 98.228C65.0955 100.31 63.5304 102.292 61.1079 103.963Z" fill="white"/>
<path d="M66.4649 107.323V113.979L61.1079 110.624V103.963L66.4649 107.323Z" fill="#72A276"/>
<path opacity="0.3" d="M66.4649 107.323V113.979L61.1079 110.624V103.963L66.4649 107.323Z" fill="black"/>
<path d="M51.7969 112.425V114.231C51.4015 114.299 51.0102 114.358 50.6106 114.408L51.7969 119.095C56.6461 118.508 61.2829 117.085 65.1165 114.837V108.158L51.7969 112.425Z" fill="#72A276"/>
<path opacity="0.1" d="M51.7969 112.425V114.231C51.4015 114.299 51.0102 114.358 50.6106 114.408L51.7969 119.095C56.6461 118.508 61.2829 117.085 65.1165 114.837V108.158L51.7969 112.425Z" fill="black"/>
<path d="M50.6106 107.729L51.7969 112.426C56.6461 111.839 61.2829 110.421 65.1165 108.172L59.7595 104.812C56.8961 106.373 53.797 107.361 50.6106 107.729Z" fill="#72A276"/>
<path opacity="0.2" d="M50.6106 107.729L51.7969 112.426C56.6461 111.839 61.2829 110.421 65.1165 108.172L59.7595 104.812C56.8961 106.373 53.797 107.361 50.6106 107.729Z" fill="white"/>
<path d="M51.7969 112.412V119.068L50.6106 114.39V107.729L51.7969 112.412Z" fill="#72A276"/>
<path opacity="0.3" d="M51.7969 112.412V119.068L50.6106 114.39V107.729L51.7969 112.412Z" fill="black"/>
<path d="M155.673 67.8743C155.658 67.5807 155.58 67.2949 155.445 67.04C155.31 66.7851 155.121 66.5681 154.895 66.4067L143.623 59.3486C143.207 59.0777 142.844 59.299 142.844 59.8408V71.6585C142.859 71.9523 142.936 72.2384 143.072 72.4934C143.207 72.7484 143.396 72.9652 143.623 73.1261L148.343 76.0794L149.833 82.6226C149.828 82.7424 149.867 82.8594 149.942 82.9479C150.016 83.0364 150.12 83.0892 150.231 83.0945C150.341 83.0999 150.449 83.0575 150.53 82.9767C150.612 82.8958 150.661 82.7831 150.666 82.6633L152.031 78.3869L154.915 80.1932C155.332 80.4641 155.694 80.2429 155.694 79.7055L155.673 67.8743Z" fill="#72A276"/>
<path opacity="0.5" d="M155.673 67.8743C155.658 67.5807 155.58 67.2949 155.445 67.04C155.31 66.7851 155.121 66.5681 154.895 66.4067L143.623 59.3486C143.207 59.0777 142.844 59.299 142.844 59.8408V71.6585C142.859 71.9523 142.936 72.2384 143.072 72.4934C143.207 72.7484 143.396 72.9652 143.623 73.1261L148.343 76.0794L149.833 82.6226C149.828 82.7424 149.867 82.8594 149.942 82.9479C150.016 83.0364 150.12 83.0892 150.231 83.0945C150.341 83.0999 150.449 83.0575 150.53 82.9767C150.612 82.8958 150.661 82.7831 150.666 82.6633L152.031 78.3869L154.915 80.1932C155.332 80.4641 155.694 80.2429 155.694 79.7055L155.673 67.8743Z" fill="white"/>
<path d="M147.115 64.7307C147.345 64.8726 147.557 65.0456 147.748 65.2455C147.917 65.4249 148.069 65.6232 148.201 65.837C148.316 66.0263 148.409 66.2294 148.48 66.4421C148.539 66.623 148.576 66.8111 148.592 67.0021C148.592 67.1963 148.613 67.3995 148.613 67.6117C148.613 67.8239 148.613 68.0181 148.592 68.1987C148.582 68.3442 148.544 68.4858 148.48 68.6142C148.418 68.7328 148.319 68.8239 148.201 68.8716C148.053 68.9158 147.896 68.9158 147.748 68.8716C147.524 68.8153 147.31 68.7192 147.115 68.5871C146.884 68.4466 146.67 68.2752 146.478 68.0768C146.307 67.9026 146.157 67.7071 146.028 67.4943C145.811 67.1452 145.675 66.7437 145.633 66.3247C145.633 66.1305 145.633 65.9273 145.633 65.7151C145.633 65.5029 145.633 65.3087 145.633 65.1326C145.646 64.9856 145.686 64.8428 145.75 64.7126C145.81 64.5922 145.909 64.5004 146.028 64.4552C146.174 64.4055 146.329 64.3977 146.478 64.4326C146.705 64.4905 146.92 64.5914 147.115 64.7307ZM151.094 67.4807C151.137 67.4468 151.187 67.4265 151.24 67.422C151.315 67.4274 151.389 67.4538 151.452 67.4988L152.047 67.8736C152.116 67.9157 152.175 67.9725 152.222 68.0407C152.261 68.0985 152.283 68.1678 152.285 68.2394C152.286 68.2544 152.286 68.2695 152.285 68.2845C152.277 68.3013 152.267 68.3166 152.255 68.3297L147.352 72.2584C147.309 72.2927 147.259 72.3145 147.206 72.3216C147.13 72.3162 147.057 72.288 146.994 72.2403L146.399 71.87C146.33 71.8275 146.27 71.7689 146.224 71.6984C146.184 71.6427 146.161 71.5749 146.158 71.5042C146.154 71.4879 146.154 71.4709 146.158 71.4546C146.163 71.4369 146.173 71.4213 146.187 71.4094L151.094 67.4807ZM147.639 67.4807C147.645 67.4147 147.645 67.3481 147.639 67.282V66.6995C147.645 66.6289 147.645 66.5579 147.639 66.4873C147.626 66.3286 147.582 66.1748 147.51 66.0357C147.414 65.8666 147.278 65.7292 147.115 65.6383C146.923 65.5164 146.79 65.4848 146.699 65.539C146.659 65.5733 146.627 65.6165 146.605 65.6657C146.583 65.7148 146.571 65.7687 146.57 65.8235C146.57 65.8641 146.57 65.9273 146.57 66.0222C146.57 66.117 146.57 66.2073 146.57 66.3067C146.57 66.406 146.57 66.5053 146.57 66.6002C146.57 66.695 146.57 66.7673 146.57 66.8169C146.585 66.9751 146.629 67.1285 146.699 67.2685C146.801 67.4403 146.945 67.5779 147.115 67.6659C147.306 67.7878 147.44 67.8194 147.51 67.7652C147.548 67.7326 147.579 67.6914 147.6 67.6446C147.622 67.5979 147.634 67.5466 147.635 67.4943L147.639 67.4807ZM151.41 71.1881C151.642 71.3301 151.856 71.5031 152.047 71.7029C152.216 71.8823 152.367 72.0806 152.497 72.2945C152.614 72.4817 152.708 72.6853 152.776 72.8996C152.834 73.081 152.873 73.2688 152.892 73.4595C152.892 73.6537 152.892 73.8569 152.892 74.0692C152.892 74.2814 152.892 74.4756 152.892 74.6562C152.879 74.8018 152.84 74.943 152.776 75.0717C152.747 75.1325 152.708 75.1865 152.66 75.2307C152.612 75.2749 152.557 75.3083 152.497 75.3291C152.35 75.3757 152.194 75.3757 152.047 75.3291C151.822 75.2728 151.607 75.1767 151.41 75.0446C151.181 74.9041 150.968 74.7327 150.778 74.5343C150.607 74.359 150.455 74.1636 150.324 73.9518C150.209 73.763 150.115 73.5598 150.045 73.3467C149.987 73.1656 149.949 72.9776 149.933 72.7867C149.933 72.588 149.933 72.3848 149.933 72.1726C149.933 71.9603 149.933 71.7662 149.933 71.59C149.942 71.443 149.981 71.2998 150.045 71.1701C150.106 71.0505 150.205 70.959 150.324 70.9127C150.473 70.8729 150.629 70.8729 150.778 70.9127C151.003 70.9679 151.217 71.0657 151.41 71.2017V71.1881ZM151.939 73.9518C151.942 73.8856 151.942 73.8192 151.939 73.7531V73.1841C151.939 73.0938 151.939 73.0215 151.939 72.9764C151.922 72.8186 151.878 72.6656 151.81 72.5248C151.707 72.3542 151.563 72.217 151.394 72.1274C151.202 72.0055 151.069 71.9739 150.998 72.0281C150.959 72.0624 150.927 72.1056 150.905 72.1548C150.882 72.2039 150.87 72.2578 150.869 72.3126C150.865 72.3787 150.865 72.4451 150.869 72.5113C150.869 72.6016 150.869 72.6964 150.869 72.7957C150.869 72.8951 150.869 72.9944 150.869 73.0938C150.865 73.1645 150.865 73.2353 150.869 73.306C150.882 73.4648 150.926 73.6187 150.998 73.7576C151.093 73.9278 151.23 74.0655 151.394 74.155C151.585 74.2769 151.718 74.3085 151.81 74.2543C151.849 74.2187 151.881 74.1746 151.903 74.1248C151.925 74.075 151.938 74.0206 151.939 73.9653V73.9518Z" fill="#FAFAFA"/>
<path d="M106.911 22.5631C106.896 22.2696 106.817 21.9839 106.682 21.7291C106.547 21.4742 106.359 21.2572 106.132 21.0955L94.8606 14.0419C94.4444 13.771 94.0823 13.9877 94.0823 14.5296V26.3473C94.0968 26.6417 94.1747 26.9282 94.3099 27.1839C94.4451 27.4396 94.6337 27.6573 94.8606 27.8195L99.5808 30.7727L101.071 37.3025C101.087 37.4037 101.135 37.4958 101.206 37.5636C101.277 37.6315 101.367 37.671 101.462 37.6758C101.556 37.6805 101.649 37.6501 101.726 37.5897C101.802 37.5292 101.858 37.4422 101.883 37.3432L103.248 33.0667L106.132 34.873C106.549 35.144 106.911 34.9272 106.911 34.3853V22.5631Z" fill="#72A276"/>
<path opacity="0.5" d="M106.911 22.5631C106.896 22.2696 106.817 21.9839 106.682 21.7291C106.547 21.4742 106.359 21.2572 106.132 21.0955L94.8606 14.0419C94.4444 13.771 94.0823 13.9877 94.0823 14.5296V26.3473C94.0968 26.6417 94.1747 26.9282 94.3099 27.1839C94.4451 27.4396 94.6337 27.6573 94.8606 27.8195L99.5808 30.7727L101.071 37.3025C101.087 37.4037 101.135 37.4958 101.206 37.5636C101.277 37.6315 101.367 37.671 101.462 37.6758C101.556 37.6805 101.649 37.6501 101.726 37.5897C101.802 37.5292 101.858 37.4422 101.883 37.3432L103.248 33.0667L106.132 34.873C106.549 35.144 106.911 34.9272 106.911 34.3853V22.5631Z" fill="white"/>
<path d="M98.3529 19.4382C98.583 19.5802 98.7955 19.7532 98.9856 19.953C99.1545 20.1334 99.3065 20.3316 99.4393 20.5446C99.5552 20.7329 99.6489 20.9362 99.7182 21.1497C99.7768 21.3306 99.8145 21.5187 99.8305 21.7097C99.8305 21.9038 99.8514 22.1071 99.8514 22.3193C99.8514 22.5315 99.8514 22.7257 99.8305 22.9063C99.821 23.0534 99.7827 23.1966 99.7182 23.3263C99.6578 23.4456 99.5582 23.5359 99.4393 23.5792C99.2927 23.631 99.1359 23.6388 98.9856 23.6018C98.761 23.5455 98.547 23.4477 98.3529 23.3128C98.1208 23.1738 97.9067 23.0022 97.7161 22.8025C97.5455 22.6283 97.3946 22.4327 97.2665 22.2199C97.149 22.0327 97.0552 21.8292 96.9876 21.6148C96.9298 21.4334 96.8907 21.2456 96.8711 21.0549C96.8711 20.8562 96.8711 20.653 96.8711 20.4453C96.8711 20.2375 96.8711 20.0343 96.8711 19.8582C96.8839 19.7112 96.9236 19.5685 96.9876 19.4382C97.0479 19.3178 97.1473 19.226 97.2665 19.1808C97.4141 19.1409 97.5685 19.1409 97.7161 19.1808C97.9404 19.2261 98.1559 19.3132 98.3529 19.4382ZM102.332 22.1883C102.376 22.1564 102.426 22.1363 102.478 22.1296C102.554 22.1351 102.628 22.1632 102.69 22.2109L103.285 22.5812C103.353 22.6246 103.412 22.6813 103.46 22.7483C103.499 22.8064 103.52 22.8755 103.523 22.947C103.524 22.9635 103.524 22.9801 103.523 22.9967C103.514 23.0127 103.505 23.0278 103.493 23.0418L98.5902 26.9705C98.5466 27.0024 98.4967 27.0225 98.4445 27.0292C98.3682 27.0238 98.2947 26.9957 98.2322 26.9479L97.637 26.5776C97.568 26.5367 97.5082 26.4797 97.4621 26.4105C97.4237 26.3525 97.4019 26.2833 97.3997 26.2119C97.3958 26.1971 97.3958 26.1814 97.3997 26.1667C97.4054 26.1477 97.4154 26.1306 97.4289 26.117L102.332 22.1883ZM98.8774 22.1883C98.8834 22.1223 98.8834 22.0557 98.8774 21.9896V21.4071C98.883 21.338 98.883 21.2685 98.8774 21.1994C98.8651 21.0405 98.8211 20.8864 98.7483 20.7478C98.6538 20.5763 98.5168 20.437 98.3529 20.3459C98.1614 20.2285 98.0282 20.1924 97.9367 20.2511C97.8981 20.2862 97.8667 20.3296 97.8445 20.3786C97.8223 20.4276 97.8097 20.481 97.8076 20.5356C97.8076 20.5717 97.8076 20.6394 97.8076 20.7298C97.8076 20.8201 97.8076 20.9149 97.8076 21.0188C97.8076 21.1226 97.8076 21.2174 97.8076 21.3123C97.8076 21.4071 97.8076 21.4794 97.8076 21.5245C97.8239 21.6825 97.8677 21.8358 97.9367 21.9761C98.0388 22.1479 98.1829 22.2855 98.3529 22.3735C98.5444 22.4954 98.6776 22.527 98.7483 22.4728C98.7867 22.4406 98.8182 22.3997 98.8405 22.3528C98.8628 22.306 98.8754 22.2545 98.8774 22.2019V22.1883ZM102.648 25.8958C102.881 26.0377 103.095 26.2123 103.285 26.4151C103.455 26.5918 103.606 26.7887 103.735 27.0021C103.852 27.1898 103.945 27.3932 104.014 27.6072C104.071 27.7887 104.11 27.9765 104.13 28.1672C104.13 28.3659 104.13 28.5691 104.13 28.7813C104.13 28.9936 104.13 29.1877 104.13 29.3638C104.117 29.5108 104.078 29.6536 104.014 29.7838C103.954 29.9042 103.854 29.996 103.735 30.0412C103.588 30.0859 103.432 30.0859 103.285 30.0412C103.06 29.9849 102.845 29.8888 102.648 29.7567C102.42 29.6136 102.208 29.4424 102.016 29.2464C101.846 29.0685 101.694 28.8718 101.562 28.6594C101.448 28.4701 101.354 28.267 101.283 28.0543C101.225 27.8734 101.187 27.6853 101.171 27.4943C101.171 27.3001 101.15 27.0969 101.15 26.8847C101.15 26.6725 101.15 26.4783 101.171 26.2977C101.181 26.1507 101.219 26.0076 101.283 25.8777C101.346 25.7603 101.445 25.6707 101.562 25.6248C101.709 25.5736 101.865 25.5642 102.016 25.5977C102.242 25.6612 102.456 25.7666 102.648 25.9093V25.8958ZM103.177 28.6594C103.18 28.5932 103.18 28.5269 103.177 28.4607V27.8917C103.177 27.8014 103.177 27.7291 103.177 27.684C103.163 27.5255 103.119 27.3719 103.048 27.2324C102.946 27.0593 102.802 26.9202 102.632 26.8305C102.44 26.7131 102.307 26.677 102.236 26.7357C102.196 26.7693 102.164 26.8125 102.142 26.8618C102.119 26.911 102.108 26.9652 102.107 27.0202C102.103 27.0848 102.103 27.1497 102.107 27.2143C102.107 27.3047 102.107 27.3995 102.107 27.5034C102.107 27.6072 102.107 27.702 102.107 27.7969C102.103 27.8676 102.103 27.9384 102.107 28.0091C102.12 28.168 102.164 28.3221 102.236 28.4607C102.331 28.6322 102.468 28.7715 102.632 28.8626C102.823 28.98 102.962 29.0116 103.048 28.9574C103.087 28.9231 103.119 28.8799 103.142 28.8307C103.164 28.7816 103.176 28.7277 103.177 28.6729V28.6594Z" fill="#FAFAFA"/>
<path d="M29.524 67.5082C29.5388 67.2145 29.6169 66.9287 29.7521 66.6738C29.8873 66.4189 30.0758 66.202 30.3023 66.0405L41.574 58.9824C41.9903 58.7115 42.3524 58.9328 42.3524 59.4746V71.2924C42.3383 71.5862 42.2604 71.8722 42.1251 72.1272C41.9899 72.3823 41.8011 72.599 41.574 72.76L36.8539 75.7133L35.3638 82.2476C35.3687 82.3673 35.3297 82.4843 35.2551 82.5728C35.1806 82.6613 35.0767 82.7141 34.9663 82.7194C34.8559 82.7248 34.748 82.6824 34.6665 82.6016C34.5849 82.5207 34.5363 82.408 34.5313 82.2882L33.1702 78.0118L30.2857 79.8181C29.8695 80.089 29.5073 79.8678 29.5073 79.3304L29.524 67.5082Z" fill="#72A276"/>
<g opacity="0.5">
<path opacity="0.5" d="M29.524 67.5082C29.5388 67.2145 29.6169 66.9287 29.7521 66.6738C29.8873 66.4189 30.0758 66.202 30.3023 66.0405L41.574 58.9824C41.9903 58.7115 42.3524 58.9328 42.3524 59.4746V71.2924C42.3383 71.5862 42.2604 71.8722 42.1251 72.1272C41.9899 72.3823 41.8011 72.599 41.574 72.76L36.8539 75.7133L35.3638 82.2476C35.3687 82.3673 35.3297 82.4843 35.2551 82.5728C35.1806 82.6613 35.0767 82.7141 34.9663 82.7194C34.8559 82.7248 34.748 82.6824 34.6665 82.6016C34.5849 82.5207 34.5363 82.408 34.5313 82.2882L33.1702 78.0118L30.2857 79.8181C29.8695 80.089 29.5073 79.8678 29.5073 79.3304L29.524 67.5082Z" fill="white"/>
</g>
<path d="M33.4615 66.6275C33.6868 66.4756 33.9346 66.3671 34.194 66.3069C34.3682 66.2687 34.5484 66.278 34.7185 66.334C34.8553 66.3875 34.9693 66.4935 35.039 66.632C35.1135 66.7812 35.1575 66.946 35.168 67.1152C35.1847 67.3229 35.193 67.5487 35.193 67.7926C35.193 68.0364 35.1847 68.2712 35.168 68.497C35.1498 68.7187 35.1065 68.9371 35.039 69.1473C34.9592 69.3926 34.8516 69.6262 34.7185 69.8427C34.5679 70.0893 34.3919 70.3165 34.194 70.5201C33.9728 70.7487 33.7268 70.9474 33.4615 71.1116C33.2334 71.2629 32.9848 71.3742 32.7247 71.4413C32.5524 71.4829 32.3731 71.4751 32.2044 71.4187C32.0676 71.3652 31.9536 71.2591 31.8839 71.1206C31.8082 70.9718 31.7627 70.807 31.7507 70.6375C31.7507 70.4297 31.7507 70.1859 31.7507 69.9601C31.7507 69.7343 31.7507 69.4814 31.7507 69.2557C31.7706 69.0338 31.8154 68.8155 31.8839 68.6054C31.962 68.3592 32.0697 68.1254 32.2044 67.91C32.3558 67.6639 32.5302 67.4354 32.7247 67.2281C32.9469 66.9961 33.1943 66.7944 33.4615 66.6275ZM38.0401 64.049C38.0873 63.9502 38.1431 63.8565 38.2066 63.7691C38.2766 63.6824 38.3596 63.6091 38.4522 63.5523L39.1431 63.1008C39.2005 63.0548 39.2723 63.0353 39.3429 63.0466C39.3929 63.0466 39.4178 63.1053 39.4178 63.1775C39.4208 63.2015 39.4208 63.2258 39.4178 63.2498L39.3845 63.3446L33.7154 74.9861C33.6682 75.0835 33.6124 75.1758 33.5489 75.2616C33.4797 75.3493 33.3965 75.4227 33.3033 75.4783L32.6165 75.9299C32.5574 75.9756 32.4844 75.995 32.4126 75.9841C32.3626 75.9841 32.3376 75.9254 32.3376 75.8531C32.3347 75.8291 32.3347 75.8048 32.3376 75.7809L32.3709 75.686L38.0401 64.049ZM34.0692 69.075C34.0749 68.9939 34.0749 68.9124 34.0692 68.8312V68.1583C34.0752 68.0817 34.0752 68.0047 34.0692 67.928C34.0669 67.8648 34.0524 67.8027 34.0266 67.7459C34.0008 67.6891 33.9642 67.6389 33.9193 67.5984C33.8361 67.5352 33.6821 67.5984 33.4615 67.7113C33.2912 67.8044 33.1459 67.9434 33.0394 68.115C32.933 68.2866 32.8691 68.485 32.8538 68.6912C32.8477 68.7738 32.8477 68.8569 32.8538 68.9396C32.8538 69.0479 32.8538 69.1608 32.8538 69.2782C32.8538 69.3956 32.8538 69.504 32.8538 69.6124C32.8473 69.6875 32.8473 69.7631 32.8538 69.8382C32.8538 69.9019 32.8673 69.9648 32.8933 70.022C32.9192 70.0791 32.957 70.129 33.0036 70.1678C33.0869 70.2311 33.2367 70.1904 33.4615 70.0549C33.6493 69.9527 33.8077 69.7965 33.9193 69.6034C34.0022 69.4403 34.0532 69.2604 34.0692 69.075ZM38.4272 67.9009C38.6544 67.7488 38.9034 67.6389 39.1639 67.5758C39.3367 67.5376 39.5156 67.5469 39.6842 67.6029C39.821 67.6564 39.935 67.7625 40.0047 67.9009C40.0805 68.0498 40.1259 68.2146 40.1379 68.3841C40.1379 68.5919 40.1587 68.8357 40.1587 69.0615C40.1587 69.2873 40.1587 69.5401 40.1379 69.7659C40.1183 69.9878 40.0736 70.2062 40.0047 70.4162C39.9259 70.6634 39.8182 70.8987 39.6842 71.1161C39.3654 71.6382 38.9376 72.0714 38.4355 72.3805C38.2095 72.5329 37.962 72.6442 37.7029 72.7102C37.5294 72.7542 37.3482 72.7464 37.1785 72.6876C37.0409 72.6356 36.9264 72.5291 36.858 72.3896C36.783 72.2406 36.739 72.0757 36.7289 71.9064C36.7289 71.7032 36.704 71.4548 36.704 71.2335C36.704 71.0123 36.704 70.7504 36.7289 70.5246C36.7469 70.3043 36.7903 70.0874 36.858 69.8788C36.9377 69.632 37.0454 69.3969 37.1785 69.1789C37.33 68.9317 37.5059 68.7031 37.7029 68.497C37.9184 68.26 38.162 68.055 38.4272 67.8874V67.9009ZM39.0349 70.3304C39.0406 70.2492 39.0406 70.1677 39.0349 70.0866V69.4182C39.0409 69.3416 39.0409 69.2646 39.0349 69.1879C39.0352 69.1241 39.0218 69.0611 38.9958 69.0039C38.9698 68.9467 38.9319 68.8968 38.885 68.8583C38.8018 68.7951 38.652 68.8312 38.4272 68.9712C38.2401 69.0746 38.082 69.2305 37.9693 69.4227C37.8889 69.5837 37.8381 69.7601 37.8195 69.942C37.8155 70.0233 37.8155 70.1047 37.8195 70.1859C37.8195 70.2988 37.8195 70.4117 37.8195 70.5246C37.8195 70.6375 37.8195 70.7549 37.8195 70.8587C37.8151 70.9339 37.8151 71.0093 37.8195 71.0845C37.8218 71.1478 37.8363 71.2098 37.8621 71.2666C37.8879 71.3234 37.9244 71.3737 37.9693 71.4142C38.0526 71.4774 38.2066 71.4413 38.4272 71.3013C38.6151 71.1992 38.7735 71.043 38.885 70.8497C38.9709 70.6864 39.0221 70.5043 39.0349 70.3169V70.3304Z" fill="#FAFAFA"/>
</g>
<defs>
<filter id="filter0_d" x="0.0371094" y="0.516602" width="183.643" height="153.141" filterUnits="userSpaceOnUse" color-interpolation-filters="sRGB">
<feFlood flood-opacity="0" result="BackgroundImageFix"/>
<feColorMatrix in="SourceAlpha" type="matrix" values="0 0 0 0 0 0 0 0 0 0 0 0 0 0 0 0 0 0 127 0"/>
<feOffset dy="4"/>
<feGaussianBlur stdDeviation="2"/>
<feColorMatrix type="matrix" values="0 0 0 0 0 0 0 0 0 0 0 0 0 0 0 0 0 0 0.16 0"/>
<feBlend mode="normal" in2="BackgroundImageFix" result="effect1_dropShadow"/>
<feBlend mode="normal" in="SourceGraphic" in2="effect1_dropShadow" result="shape"/>
</filter>
</defs>
</svg>
