<svg width="203" height="212" viewBox="0 0 203 212" fill="none" xmlns="http://www.w3.org/2000/svg">
<g filter="url(#filter0_d)">
<path d="M12.0174 156.689H69.2751L71.1165 120.357H10.176L12.0174 156.689Z" fill="#EBEBEB"/>
<path d="M65.0783 136.974H14.6588L13.9661 124.362H65.8872L65.0783 136.974ZM15.0789 136.528H64.6581L65.4135 124.809H14.4309L15.0789 136.528Z" fill="#DBDBDB"/>
<path d="M64.3947 151.5H16.1251L15.553 140.103H65.1054L64.3947 151.5ZM16.5273 151.053H63.9746L64.6316 140.55H15.9999L16.5273 151.053Z" fill="#DBDBDB"/>
<path d="M45.6634 132.058H34.977L34.5837 129.014H46.0567L45.6634 132.058ZM35.3838 131.611H45.2746L45.5517 129.461H35.0933L35.3838 131.611Z" fill="#DBDBDB"/>
<path d="M45.6634 147.326H34.977L34.5837 144.287H46.0567L45.6634 147.326ZM35.3838 146.879H45.2746L45.5517 144.734H35.0933L35.3838 146.879Z" fill="#DBDBDB"/>
<path d="M19.9597 156.689L19.4055 160.644L18.2837 168.6H16.0981V156.689H19.9597Z" fill="#EBEBEB"/>
<path d="M19.9597 156.689L19.4055 160.644H16.0981V156.689H19.9597Z" fill="#DBDBDB"/>
<path d="M61.3374 156.689L61.8916 160.644L63.009 168.6H65.1945V156.689H61.3374Z" fill="#EBEBEB"/>
<path d="M61.3374 156.689L61.8916 160.644H65.1945V156.689H61.3374Z" fill="#DBDBDB"/>
<path d="M122.077 14.5884H100.972V43.6038H122.077V14.5884Z" fill="#EBEBEB"/>
<path d="M145.559 14.5884H124.455V43.6038H145.559V14.5884Z" fill="#EBEBEB"/>
<path d="M122.077 45.9814H100.972V74.9969H122.077V45.9814Z" fill="#EBEBEB"/>
<path d="M145.559 45.9814H124.455V74.9969H145.559V45.9814Z" fill="#EBEBEB"/>
<path d="M170.53 14.5884H149.425V43.6038H170.53V14.5884Z" fill="#EBEBEB"/>
<path d="M194.012 14.5884H172.907V43.6038H194.012V14.5884Z" fill="#EBEBEB"/>
<path d="M170.53 45.9814H149.425V74.9969H170.53V45.9814Z" fill="#EBEBEB"/>
<path d="M194.012 45.9814H172.907V74.9969H194.012V45.9814Z" fill="#EBEBEB"/>
<path d="M174.941 200.476C186.379 200.476 195.652 198.295 195.652 195.604C195.652 192.914 186.379 190.732 174.941 190.732C163.502 190.732 154.229 192.914 154.229 195.604C154.229 198.295 163.502 200.476 174.941 200.476Z" fill="#EBEBEB"/>
<path d="M107.167 191.953C146.844 191.953 179.008 187.908 179.008 182.92C179.008 177.931 146.844 173.887 107.167 173.887C67.4899 173.887 35.3254 177.931 35.3254 182.92C35.3254 187.908 67.4899 191.953 107.167 191.953Z" fill="#EBEBEB"/>
<path d="M97.8792 203.573C137.556 203.573 169.721 199.529 169.721 194.54C169.721 189.552 137.556 185.508 97.8792 185.508C58.2023 185.508 26.0378 189.552 26.0378 194.54C26.0378 199.529 58.2023 203.573 97.8792 203.573Z" fill="#EBEBEB"/>
<path d="M7.70459 168.599L30.3377 168.488L52.9708 168.452L98.237 168.376L143.503 168.452L166.136 168.488L188.769 168.599L166.136 168.707L143.503 168.747L98.237 168.823L52.9708 168.747L30.3377 168.707L7.70459 168.599Z" fill="#263238"/>
<path d="M97.9548 56.4818C101.454 32.2867 84.6772 9.83571 60.482 6.33621C36.2869 2.8367 13.8359 19.6138 10.3364 43.809C6.83691 68.0041 23.614 90.4551 47.8092 93.9546C72.0043 97.4541 94.4553 80.677 97.9548 56.4818Z" fill="#FFC857"/>
<path opacity="0.1" d="M98.3642 53.0206C99.406 29.7176 81.3599 9.9822 58.0569 8.94032C34.7539 7.89844 15.0185 25.9446 13.9766 49.2476C12.9347 72.5506 30.9809 92.286 54.2839 93.3279C77.5869 94.3698 97.3223 76.3236 98.3642 53.0206Z" fill="black"/>
<path d="M95.6827 53.2932C96.872 31.4729 80.1474 12.82 58.3272 11.6306C36.5069 10.4412 17.8539 27.1658 16.6646 48.9861C15.4752 70.8063 32.1998 89.4593 54.02 90.6487C75.8403 91.8381 94.4933 75.1134 95.6827 53.2932Z" fill="white"/>
<path d="M94.8449 42.7367C76.8242 53.6554 47.2099 71.5644 30.6597 81.3837C25.9806 77.438 22.2799 72.4614 19.8481 66.8447L74.5895 16.1079C79.704 18.8 84.1674 22.5787 87.6665 27.1789C91.1656 31.779 93.6157 37.0891 94.8449 42.7367Z" fill="#EBEBEB"/>
<path d="M95.7118 52.5024C95.5685 56.905 94.6846 61.252 93.0972 65.3609L43.746 88.7047C41.5951 87.9937 39.5105 87.0964 37.5156 86.023C52.4211 77.4194 79.6622 61.7452 95.7118 52.5024Z" fill="#EBEBEB"/>
<path d="M56.5553 14.4404H55.791V20.4384H56.5553V14.4404Z" fill="#C7C7C7"/>
<path d="M38.1553 19.1613L37.4934 19.5435L40.4924 24.7378L41.1543 24.3557L38.1553 19.1613Z" fill="#C7C7C7"/>
<path d="M24.5789 32.4504L24.1968 33.1123L29.3912 36.1113L29.7733 35.4494L24.5789 32.4504Z" fill="#C7C7C7"/>
<path d="M25.475 50.7549H19.4771V51.5192H25.475V50.7549Z" fill="#C7C7C7"/>
<path d="M29.3919 66.1563L24.1975 69.1553L24.5796 69.8172L29.774 66.8182L29.3919 66.1563Z" fill="#C7C7C7"/>
<path d="M40.4911 77.5311L37.4949 82.7271L38.1569 83.1088L41.1532 77.9129L40.4911 77.5311Z" fill="#C7C7C7"/>
<path d="M56.5553 81.835H55.791V87.8329H56.5553V81.835Z" fill="#C7C7C7"/>
<path d="M71.8523 77.5314L71.1904 77.9136L74.1894 83.108L74.8513 82.7258L71.8523 77.5314Z" fill="#C7C7C7"/>
<path d="M82.9466 66.1482L82.5645 66.8101L87.7588 69.809L88.141 69.1472L82.9466 66.1482Z" fill="#C7C7C7"/>
<path d="M92.869 50.7549H86.8711V51.5192H92.869V50.7549Z" fill="#C7C7C7"/>
<path d="M87.7622 32.4634L82.5679 35.4624L82.95 36.1243L88.1444 33.1253L87.7622 32.4634Z" fill="#C7C7C7"/>
<path d="M74.1916 19.1673L71.1953 24.3633L71.8574 24.7451L74.8536 19.5491L74.1916 19.1673Z" fill="#C7C7C7"/>
<path d="M56.7474 17.1535L58.048 53.8071L54.2937 53.7579L55.7284 17.1445L56.7474 17.1535Z" fill="#FFC857"/>
<path d="M79.5772 38.3524L54.9194 54.0936L53.1272 50.7952L79.09 37.4585L79.5772 38.3524Z" fill="#263238"/>
<path d="M56.1709 52.4175C56.8793 52.4175 57.4536 51.8432 57.4536 51.1348C57.4536 50.4263 56.8793 49.8521 56.1709 49.8521C55.4625 49.8521 54.8882 50.4263 54.8882 51.1348C54.8882 51.8432 55.4625 52.4175 56.1709 52.4175Z" fill="#FFC857"/>
<path d="M142.802 131.933C145.103 133.082 147.378 134.275 149.649 135.473C151.919 136.671 154.176 137.9 156.442 139.115C158.708 140.331 160.947 141.587 163.187 142.847L166.539 144.747C167.647 145.395 168.773 146.03 169.868 146.691C168.715 146.119 167.58 145.525 166.431 144.939L163.021 143.151C160.746 141.954 158.494 140.72 156.228 139.509C153.962 138.298 151.727 137.033 149.488 135.772C147.249 134.512 145.014 133.243 142.802 131.933Z" fill="#A6A6A6"/>
<path d="M167.96 131.933C165.908 133.113 163.83 134.253 161.752 135.388C159.674 136.523 157.577 137.623 155.495 138.736C153.412 139.848 151.298 140.921 149.184 141.994L146.011 143.589C144.947 144.103 143.888 144.635 142.815 145.14C143.838 144.546 144.88 143.978 145.908 143.393L149.036 141.685C151.119 140.555 153.215 139.451 155.294 138.338C157.372 137.225 159.495 136.152 161.604 135.084C163.714 134.016 165.819 132.952 167.96 131.933Z" fill="#A6A6A6"/>
<path d="M117.254 131.933C119.556 133.082 121.831 134.275 124.102 135.473C126.372 136.671 128.629 137.9 130.895 139.115C133.161 140.331 135.4 141.587 137.635 142.847L140.991 144.747C142.1 145.395 143.226 146.03 144.321 146.691C143.168 146.119 142.033 145.525 140.884 144.939L137.474 143.151C135.199 141.954 132.947 140.72 130.681 139.509C128.415 138.298 126.175 137.033 123.941 135.772C121.706 134.512 119.467 133.243 117.254 131.933Z" fill="#A6A6A6"/>
<path d="M142.408 131.933C140.357 133.113 138.279 134.253 136.2 135.388C134.122 136.523 132.021 137.623 129.943 138.736C127.865 139.848 125.746 140.921 123.632 141.994L120.459 143.589C119.395 144.103 118.336 144.635 117.263 145.14C118.287 144.546 119.328 143.978 120.356 143.393L123.485 141.685C125.568 140.555 127.664 139.451 129.742 138.338C131.82 137.225 133.943 136.152 136.053 135.084C138.162 134.016 140.272 132.952 142.408 131.933Z" fill="#A6A6A6"/>
<path d="M121.925 128.397L120.571 136.514L111.404 186.031H109.925L116.593 136.514L117.576 128.397H121.925Z" fill="#A6A6A6"/>
<path d="M117.576 128.397H121.925L120.571 136.514H116.593L117.576 128.397Z" fill="#263238"/>
<path d="M150.721 186.031H149.242L140.075 136.514L138.721 128.397H143.07L144.053 136.514L150.721 186.031Z" fill="#A6A6A6"/>
<path d="M143.07 128.397L144.053 136.514H140.075L138.721 128.397H143.07Z" fill="#263238"/>
<path d="M178.226 186.031H176.747L167.575 136.514L166.221 128.397H170.57L171.558 136.514L178.226 186.031Z" fill="#A6A6A6"/>
<path d="M171.558 136.514H167.575L166.221 128.397H170.57L171.558 136.514Z" fill="#263238"/>
<path d="M175.88 132.211H108.691V125.131H133.84L142.296 70.7163H173.319L175.88 132.211Z" fill="#A6A6A6"/>
<path d="M175.88 132.21H172.219L169.833 70.7153H173.319L175.88 132.21Z" fill="#DBDBDB"/>
<path d="M129.205 86.3446C132.459 89.3347 137.433 89.9202 141.653 89.5671C145.957 89.2006 150.69 88.0743 154.243 85.5133C155.846 84.4117 157.112 82.8859 157.899 81.1065C158.69 79.1846 158.538 77.3164 157.148 75.8371C156.031 74.6437 153.885 73.9957 153.698 72.7755C153.51 71.5554 154.35 70.4425 154.448 69.2313C154.609 67.1575 153.309 65.8211 151.722 64.7306C147.963 62.1428 148.24 57.9371 145.635 54.4062C144.155 52.3995 140.294 48.8642 134.756 51.5816C132.647 52.614 131.44 54.8755 130.859 57.1147C130.175 59.7472 131.422 62.8847 130.488 65.4591C129.688 67.6536 128.115 68.2212 127.359 70.5095C127.042 71.5017 126.984 72.6101 128.289 74.6393C128.763 75.3722 129.321 76.5164 129.138 77.4997C128.883 78.8673 127.449 79.6942 127.154 81.1244C126.765 83.0909 127.771 85.0262 129.205 86.3446Z" fill="#263238"/>
<path d="M156.679 81.8166C158.627 81.182 159.061 78.2724 157.573 77.0478C156.634 76.2701 155.369 76.0377 154.444 75.26C152.898 73.9862 153.876 72.4756 154.368 70.9202C155.436 67.5458 153 65.7491 150.471 64.1535C148.549 62.9378 147.95 61.3065 147.508 59.1522C147.508 59.121 147.552 59.1076 147.561 59.1522C147.963 60.7255 148.424 62.2585 149.72 63.3401C150.775 64.234 152.075 64.7301 153.108 65.6508C154.837 67.1927 155.307 69.0833 154.587 71.2554C154.382 71.8811 153.921 72.6231 153.899 73.2756C153.85 74.8086 155.079 75.4075 156.245 75.9572C157.139 76.4042 158.136 76.8869 158.592 77.8344C159.284 79.2691 158.261 81.5217 156.741 81.9194C156.648 81.9552 156.603 81.8434 156.679 81.8166Z" fill="#263238"/>
<path d="M155.83 83.5063C156.938 82.5677 158.163 81.6873 158.681 80.266C159.445 78.1654 157.89 76.9139 156.446 75.734C155.821 75.229 155.284 74.7105 155.182 73.8747C155.034 72.6278 155.767 71.4434 155.727 70.1875C155.624 67.193 152.473 65.8611 150.69 63.9303C148.907 61.9995 148.008 59.4609 147.052 56.9893C147.052 56.9357 147.114 56.9044 147.132 56.958C148.348 60.0866 149.774 63.0096 152.442 65.1638C154.306 66.6656 156.295 68.2924 155.95 70.9428C155.865 71.5909 155.588 72.2166 155.503 72.8602C155.365 74.1474 155.821 74.8938 156.764 75.6536C157.707 76.4134 158.708 77.1106 159.039 78.2905C159.687 80.5833 157.617 82.4962 155.95 83.6762C155.928 83.685 155.903 83.6861 155.88 83.6793C155.857 83.6725 155.837 83.6581 155.823 83.6385C155.81 83.619 155.803 83.5953 155.804 83.5714C155.805 83.5474 155.814 83.5245 155.83 83.5063Z" fill="#263238"/>
<path d="M126.524 80.4718C127.279 78.8941 128.758 77.9332 127.994 75.9756C127.48 74.6347 126.546 73.6336 126.582 72.1095C126.67 70.88 127.177 69.7178 128.017 68.8156C129.013 67.5999 130.162 66.5809 130.792 65.0925C131.476 63.4836 131.614 61.7092 131.771 59.9929C131.771 59.9572 131.829 59.9617 131.829 59.9929C131.748 62.3036 131.579 64.6903 130.175 66.6434C129.442 67.658 128.486 68.4982 127.766 69.5217C126.47 71.3676 126.774 73.0973 127.766 74.9744C128.213 75.837 128.66 76.7041 128.396 77.7008C128.133 78.6974 127.36 79.417 126.877 80.293C124.83 84.0205 129.523 87.5335 132.919 87.5871C133.071 87.5871 133.094 87.824 132.919 87.824C130.39 87.8597 127.4 86.0362 126.443 83.6853C126.231 83.1739 126.128 82.6236 126.142 82.07C126.156 81.5164 126.286 80.972 126.524 80.4718Z" fill="#263238"/>
<path d="M126.93 82.2191C126.707 80.7353 127.48 79.7654 127.989 78.4916C128.79 76.4849 127.337 74.8848 126.872 72.9853C126.736 72.3602 126.725 71.7142 126.841 71.085C126.957 70.4557 127.197 69.8559 127.547 69.3204C128.441 67.8187 129.683 66.6388 130.331 64.9806C131.007 63.2005 131.147 61.2615 130.734 59.4028C130.734 59.367 130.778 59.367 130.787 59.4028C131.12 60.6496 131.189 61.9522 130.988 63.227C130.787 64.5017 130.321 65.7202 129.621 66.8041C128.727 68.1852 127.386 69.4143 127.042 71.1216C126.675 72.9094 127.793 74.3396 128.311 75.9932C128.475 76.4785 128.539 76.9915 128.501 77.502C128.462 78.0124 128.322 78.5101 128.088 78.9654C127.681 79.6429 127.38 80.3783 127.194 81.1465C127.093 82.2574 127.395 83.3676 128.043 84.2751C129.898 87.1489 133.469 88.5434 136.638 88.521C136.75 88.521 136.772 88.6998 136.638 88.6998C135.202 88.7301 133.775 88.4759 132.438 87.952C131.101 87.4281 129.88 86.6448 128.848 85.6472C127.857 84.7399 127.185 83.538 126.93 82.2191Z" fill="#263238"/>
<path d="M106.863 186.2C108.056 186.612 142.265 186.853 143.574 186.04C144.071 185.736 145.027 172.05 144.745 170.714C143.798 166.178 139.27 152.43 139.27 152.43L116.387 152.202L122.492 170.495L122.568 174.517C122.568 174.517 109.41 180.265 108.069 181.315C106.729 182.366 105.669 185.794 106.863 186.2Z" fill="#DD6A57"/>
<path d="M106.755 186.249C107.958 186.66 142.354 186.906 143.673 186.088C144.285 185.708 144.643 178.396 144.853 170.673L122.479 170.45L122.55 174.472C122.55 174.472 109.339 180.282 107.989 181.324C106.639 182.365 105.558 185.838 106.755 186.249Z" fill="#FFC857"/>
<path d="M107.26 184.877C113.026 184.779 136.312 184.917 142.01 185.257C142.055 185.257 142.055 185.288 142.01 185.293C136.294 185.516 113.026 185.19 107.26 184.971C107.14 184.967 107.14 184.877 107.26 184.877Z" fill="#263238"/>
<path d="M121.746 173.199C124.021 172.792 126.792 173.159 128.513 174.79C128.58 174.853 128.49 174.946 128.419 174.924C126.256 174.206 124.022 173.724 121.755 173.485C121.717 173.486 121.68 173.472 121.653 173.446C121.625 173.42 121.609 173.384 121.607 173.346C121.606 173.308 121.62 173.272 121.646 173.244C121.672 173.216 121.708 173.2 121.746 173.199Z" fill="#263238"/>
<path d="M120.101 174.173C122.372 173.767 125.147 174.133 126.868 175.765C126.935 175.827 126.846 175.921 126.77 175.899C124.608 175.182 122.375 174.7 120.11 174.46C120.072 174.461 120.035 174.447 120.008 174.421C119.98 174.395 119.964 174.359 119.963 174.321C119.962 174.283 119.975 174.246 120.001 174.219C120.027 174.191 120.063 174.175 120.101 174.173Z" fill="#263238"/>
<path d="M118.456 175.147C120.727 174.741 123.502 175.112 125.223 176.739C125.29 176.801 125.201 176.895 125.125 176.873C122.963 176.158 120.73 175.677 118.465 175.438C118.431 175.433 118.399 175.416 118.376 175.39C118.353 175.364 118.34 175.331 118.339 175.296C118.338 175.262 118.349 175.228 118.37 175.201C118.392 175.173 118.422 175.154 118.456 175.147Z" fill="#263238"/>
<path d="M116.812 176.127C119.082 175.715 121.858 176.086 123.578 177.713C123.645 177.78 123.556 177.874 123.48 177.847C121.318 177.133 119.085 176.652 116.821 176.413C116.783 176.414 116.746 176.4 116.718 176.374C116.691 176.348 116.674 176.312 116.673 176.274C116.672 176.236 116.686 176.199 116.712 176.172C116.738 176.144 116.774 176.128 116.812 176.127Z" fill="#263238"/>
<path d="M118.586 171.161C120.182 172.421 122.269 172.948 124.137 173.65C124.329 173.726 124.486 173.543 124.495 173.369C124.504 173.369 124.514 173.366 124.522 173.362C124.531 173.357 124.538 173.351 124.543 173.343C124.548 173.335 124.552 173.326 124.553 173.316C124.553 173.307 124.552 173.297 124.548 173.288C123.876 171.274 122.684 169.474 121.093 168.068C120.15 167.263 118.492 166.7 117.594 167.92C116.696 169.14 117.657 170.423 118.586 171.161ZM118.023 169.328C117.639 166.839 120.302 168.162 120.973 168.783C121.402 169.19 121.8 169.628 122.166 170.092C122.913 171.057 123.61 172.059 124.253 173.096C123.359 172.694 122.434 172.372 121.523 172.001C120.436 171.558 118.233 170.705 118.023 169.328Z" fill="#263238"/>
<path d="M132.151 169.886C131.61 168.465 129.863 168.546 128.741 169.082C126.832 170.008 125.199 171.42 124.008 173.176C124.002 173.184 123.999 173.192 123.997 173.202C123.995 173.211 123.996 173.22 123.999 173.229C124.001 173.238 124.006 173.247 124.012 173.254C124.018 173.261 124.026 173.266 124.034 173.27C124.022 173.312 124.02 173.357 124.027 173.401C124.035 173.444 124.053 173.485 124.079 173.521C124.106 173.557 124.14 173.585 124.18 173.605C124.219 173.625 124.263 173.636 124.307 173.636C126.296 173.458 128.446 173.511 130.323 172.742C131.418 172.282 132.651 171.227 132.151 169.886ZM127.288 172.756C126.314 172.868 125.335 172.93 124.365 173.078C125.264 172.253 126.203 171.474 127.181 170.745C127.66 170.399 128.162 170.085 128.683 169.806C129.496 169.39 132.419 168.827 131.364 171.147C130.783 172.394 128.432 172.622 127.288 172.756Z" fill="#263238"/>
<path d="M160.312 118.381C156.116 122.551 150.27 125.184 145.295 127.767C141.022 129.966 137.398 132.111 136.026 135.133C134.823 137.814 144.799 167.227 144.799 167.227L120.584 169.417C120.584 169.417 110.049 140.634 112.686 128.245C113.133 126.212 115.149 123.579 118.05 120.705C128.414 110.47 149.903 97.1694 149.903 97.1694H163.101C163.101 97.1694 168.576 110.158 160.312 118.381Z" fill="#455A64"/>
<path d="M161.613 100.043C161.56 99.4444 161.497 98.8455 161.439 98.2555C161.439 98.1974 161.341 98.1974 161.349 98.2555C161.895 103.065 162.346 108.338 160.08 112.803C157.899 117.094 153.528 119.677 149.635 122.225L142.573 126.918L139.034 129.251C138.063 129.862 137.125 130.523 136.222 131.231C135.399 131.868 134.703 132.655 134.171 133.55C133.626 134.564 133.393 135.716 133.501 136.862C134.077 144.594 141.733 165.073 141.912 165.735C141.925 165.764 141.949 165.788 141.978 165.802C142.008 165.815 142.042 165.818 142.073 165.808C142.104 165.799 142.131 165.779 142.148 165.751C142.165 165.724 142.172 165.691 142.167 165.659C140.504 160.501 136.021 149.024 134.015 138.672C133.76 137.332 133.568 135.942 133.983 134.623C134.35 133.574 134.985 132.639 135.825 131.91C136.643 131.183 137.521 130.525 138.448 129.944L142.024 127.566L149.036 122.931C152.867 120.397 157.184 117.939 159.673 113.934C162.288 109.769 162.038 104.736 161.613 100.043Z" fill="#263238"/>
<path d="M160.313 118.381C156.116 122.551 150.27 125.184 145.295 127.767C136.504 125.461 125.402 122.578 118.032 120.723C128.397 110.488 149.885 97.1875 149.885 97.1875H163.084C163.084 97.1875 168.577 110.158 160.313 118.381Z" fill="#263238"/>
<path d="M62.0345 168.872C63.0536 169.614 95.64 180.024 97.1328 179.635C97.7004 179.492 99.4927 174.835 101.499 169.145C101.946 167.916 102.393 166.647 102.813 165.351C105.678 156.957 108.521 147.982 108.521 147.982L86.7414 140.957L81.6284 158.517L80.5066 162.374C80.5066 162.374 66.2447 163.97 64.6536 164.573C63.0625 165.176 61.0155 168.126 62.0345 168.872Z" fill="#DD6A57"/>
<path d="M61.9184 168.886C62.9419 169.637 95.7116 180.1 97.2267 179.711C97.9195 179.532 100.436 172.654 102.939 165.346L81.6374 158.477L80.5067 162.352C80.5067 162.352 66.1688 163.956 64.5687 164.559C62.9687 165.163 60.8949 168.139 61.9184 168.886Z" fill="#FFC857"/>
<path d="M62.8078 167.723C68.341 169.346 90.5182 176.398 95.8815 178.423C95.9262 178.423 95.9173 178.468 95.8815 178.454C90.3573 176.971 68.2382 169.735 62.8078 167.817C62.6604 167.773 62.6872 167.692 62.8078 167.723Z" fill="#263238"/>
<path d="M80.1088 160.885C82.4016 161.171 84.9402 162.347 86.0978 164.416C86.1425 164.497 86.0308 164.559 85.9637 164.515C84.1117 163.188 82.1235 162.063 80.0328 161.158C80.0014 161.144 79.9761 161.119 79.9614 161.088C79.9468 161.057 79.9438 161.022 79.953 160.989C79.9622 160.956 79.983 160.927 80.0116 160.908C80.0402 160.889 80.0747 160.881 80.1088 160.885Z" fill="#263238"/>
<path d="M78.2497 161.328C80.5381 161.614 83.0767 162.789 84.2387 164.859C84.2834 164.935 84.1672 164.997 84.1047 164.957C82.2517 163.63 80.2619 162.504 78.1693 161.601C78.1369 161.587 78.1106 161.562 78.0956 161.53C78.0805 161.498 78.0777 161.462 78.0876 161.428C78.0976 161.395 78.1196 161.366 78.1495 161.347C78.1794 161.329 78.2151 161.322 78.2497 161.328Z" fill="#263238"/>
<path d="M76.3902 161.766C78.6786 162.057 81.2172 163.232 82.3748 165.297C82.4239 165.377 82.3077 165.44 82.2452 165.395C80.3909 164.071 78.4013 162.947 76.3098 162.043C76.28 162.027 76.2566 162.001 76.2435 161.97C76.2304 161.939 76.2284 161.904 76.2378 161.872C76.2472 161.84 76.2675 161.811 76.2952 161.792C76.323 161.773 76.3565 161.764 76.3902 161.766Z" fill="#263238"/>
<path d="M74.5488 162.209C76.8416 162.495 79.3802 163.675 80.5378 165.739C80.5825 165.82 80.4708 165.882 80.4037 165.838C78.5522 164.512 76.5639 163.388 74.4728 162.486C74.4435 162.47 74.4204 162.445 74.4074 162.414C74.3943 162.383 74.3919 162.349 74.4008 162.317C74.4096 162.285 74.429 162.257 74.4559 162.237C74.4828 162.217 74.5155 162.207 74.5488 162.209Z" fill="#263238"/>
<path d="M77.6999 157.981C78.8485 159.657 80.6854 160.778 82.2587 162.003C82.2955 162.028 82.3378 162.044 82.3821 162.049C82.4263 162.054 82.4712 162.049 82.5128 162.033C82.5545 162.017 82.5918 161.992 82.6214 161.958C82.6511 161.925 82.6723 161.885 82.6832 161.842C82.6925 161.844 82.7021 161.844 82.7113 161.842C82.7205 161.84 82.7291 161.835 82.7364 161.829C82.7438 161.823 82.7496 161.816 82.7536 161.807C82.7575 161.798 82.7594 161.789 82.7592 161.78C82.7131 159.657 82.1105 157.584 81.0117 155.768C80.3502 154.722 78.9379 153.69 77.7133 154.588C76.4886 155.487 77.0294 157.02 77.6999 157.981ZM77.6999 156.063C78.0753 153.569 80.2251 155.616 80.6809 156.421C80.9689 156.937 81.2199 157.473 81.4318 158.025C81.8567 159.17 82.2237 160.335 82.5313 161.516C81.7938 160.863 81.0072 160.278 80.2474 159.657C79.3491 158.928 77.4987 157.458 77.7043 156.081L77.6999 156.063Z" fill="#263238"/>
<path d="M91.0275 160.814C90.9337 159.299 89.2398 158.874 88.0107 159.026C85.9091 159.352 83.93 160.224 82.2719 161.556C82.2645 161.562 82.2585 161.569 82.2544 161.578C82.2502 161.586 82.2481 161.595 82.2481 161.605C82.2481 161.614 82.2502 161.624 82.2544 161.632C82.2585 161.641 82.2645 161.648 82.2719 161.654C82.2429 161.691 82.2235 161.734 82.2153 161.78C82.2071 161.826 82.2105 161.873 82.2251 161.917C82.2397 161.962 82.2652 162.002 82.2991 162.034C82.333 162.066 82.3744 162.089 82.4194 162.101C84.3726 162.521 86.4106 163.214 88.4353 163.026C89.6152 162.897 91.1124 162.248 91.0275 160.814ZM85.5123 162.105C84.5469 161.918 83.5949 161.69 82.625 161.542C83.7277 161.02 84.8571 160.556 86.0084 160.152C86.5679 159.964 87.1399 159.814 87.7202 159.705C88.614 159.549 91.5773 159.884 89.9012 161.77C88.9761 162.803 86.6609 162.324 85.5123 162.105Z" fill="#263238"/>
<path d="M80.6855 156.438L104.82 163.54L112.302 135.995C112.955 126.891 114.595 122.475 119.949 120.799C129.067 117.974 151.342 128.397 161.43 121.407C169.622 115.722 163.088 97.147 163.088 97.147H139.4C139.4 97.147 136.54 100.629 136.012 102.676C136.012 102.676 106.68 100.414 100.114 108.736C91.3406 119.91 80.6855 156.438 80.6855 156.438Z" fill="#455A64"/>
<path d="M124.061 120.401C122.649 120.279 121.227 120.389 119.851 120.728C118.543 121.08 117.325 121.704 116.275 122.56C115.258 123.388 114.434 124.428 113.862 125.608C113.191 126.989 112.968 128.553 112.731 130.078C112.601 130.971 112.516 131.865 112.467 132.759C112.418 133.653 112.382 134.896 112.382 135.66C112.382 135.727 112.472 135.731 112.472 135.66C112.485 134.856 112.552 134.054 112.673 133.26C112.771 132.504 112.905 131.754 113.035 131.003C113.249 129.507 113.598 128.034 114.076 126.6C114.538 125.373 115.248 124.254 116.162 123.314C117.077 122.374 118.176 121.634 119.39 121.139C120.125 120.842 120.894 120.635 121.679 120.522C122.473 120.436 123.272 120.411 124.07 120.446C124.07 120.446 124.079 120.401 124.061 120.401Z" fill="#263238"/>
<path d="M158.015 106.135C157.193 105.949 156.396 105.664 155.642 105.286C154.889 104.941 154.206 104.461 153.626 103.869C153.188 103.296 152.895 102.626 152.773 101.916C152.679 101.532 152.625 101.138 152.562 100.75C152.5 100.361 152.388 99.8959 152.357 99.4668C152.357 99.4132 152.263 99.4176 152.267 99.4668C152.469 101.085 152.013 102.89 153.219 104.267C153.835 104.894 154.584 105.375 155.409 105.675C156.227 106.033 157.102 106.245 157.993 106.301C158.013 106.299 158.031 106.292 158.046 106.278C158.06 106.265 158.07 106.247 158.072 106.227C158.075 106.207 158.071 106.188 158.06 106.171C158.05 106.154 158.034 106.141 158.015 106.135Z" fill="#263238"/>
<path d="M162.449 102.403C162.234 101.53 161.984 100.669 161.698 99.82C161.698 99.7664 161.591 99.7887 161.613 99.8468C162.771 103.39 163.28 107.113 163.115 110.837C163.094 112.598 162.855 114.35 162.404 116.053C161.971 117.68 160.917 119.071 159.468 119.928C157.972 120.708 156.35 121.215 154.676 121.425C152.801 121.718 150.903 121.851 149.005 121.823C145.139 121.787 141.3 121.264 137.469 120.813C133.755 120.366 130.041 119.861 126.318 119.526C123.27 119.253 120.021 119.222 117.2 120.572C114.519 121.863 112.767 124.326 111.623 127.003C110.335 130.029 109.607 133.291 108.735 136.451C107.698 140.219 102.344 160.765 102.264 161.645C102.264 161.73 102.384 161.726 102.393 161.645C102.581 159.715 107.216 142.722 108.257 138.927L109.826 133.242C110.242 131.727 110.653 130.208 111.167 128.724C112.159 125.895 113.616 123.056 116.195 121.367C118.944 119.579 122.367 119.432 125.545 119.664C127.333 119.789 129.12 120.031 130.908 120.241L136.776 120.938C140.522 121.385 144.272 121.908 148.044 122.024C149.93 122.096 151.819 122.02 153.693 121.796C155.389 121.631 157.053 121.234 158.641 120.616C160.046 120.072 161.227 119.071 161.993 117.774C162.78 116.366 163.048 114.734 163.222 113.157C163.592 109.555 163.331 105.915 162.449 102.403Z" fill="#263238"/>
<path d="M145.067 75.1266C141.939 85.4062 139.32 93.3841 136.289 95.2389C133.845 96.7451 118.649 99.5519 115.694 99.7083C114.528 99.7709 113.558 99.8066 112.87 99.8335C111.171 99.8916 108.709 88.5974 109.951 87.2655C110.237 86.9616 111.363 86.7515 112.941 86.5995C118.246 86.0855 128.656 86.2286 129.295 85.6565C129.934 85.0844 133.433 80.7133 138.153 75.0059C141.407 71.0639 144.013 69.951 145.032 71.1041C145.613 71.77 145.671 73.1421 145.067 75.1266Z" fill="#DD6A57"/>
<path d="M115.69 99.7261C113.895 100.464 112.054 101.083 110.179 101.581C108.686 101.907 104.369 102.738 103.832 101.134C103.475 100.039 105.96 99.2479 107.707 98.6534C108.624 98.3406 109.79 97.4735 109.562 96.8657C109.169 95.8288 106.8 96.6914 105.222 97.4735C102.183 98.9842 98.0714 101.791 96.382 100.186C95.7428 99.5786 96.5965 98.6087 97.8122 97.6791C95.868 98.7249 93.8165 99.5562 93.0791 98.9082C92.659 98.5417 92.6679 98.0769 92.9495 97.5674C92.7062 97.6574 92.442 97.6749 92.1889 97.6178C91.9358 97.5607 91.7048 97.4314 91.5237 97.2456C90.9606 96.5707 91.3181 95.6545 92.0422 94.7382C91.9291 94.7182 91.8225 94.6717 91.7308 94.6025C91.6392 94.5334 91.5651 94.4436 91.5148 94.3404C90.3617 92.2979 97.1552 87.1 99.4167 86.7201C106.058 85.5938 112.977 86.6173 112.977 86.6173C115.408 88.8431 115.699 99.7216 115.69 99.7261Z" fill="#DD6A57"/>
<path d="M106.474 92.9995C104.9 93.1256 103.373 93.6004 102.005 94.3894C100.409 95.337 99.104 96.6912 97.6157 97.7817C97.5754 97.813 97.6157 97.8756 97.6604 97.8443C98.3665 97.2767 99.1308 96.7761 99.8548 96.2353C100.579 95.6945 101.263 95.1492 102.009 94.6755C103.353 93.7914 104.882 93.2272 106.479 93.0263C106.479 93.0263 106.492 92.995 106.474 92.9995Z" fill="#263238"/>
<path d="M105.437 90.1436C103.663 90.4409 101.925 90.9186 100.248 91.5693C98.4602 92.3425 96.9808 93.7057 95.5461 95.0107C94.688 95.7974 93.8448 96.6019 93.0164 97.4242C92.9807 97.46 93.0164 97.5181 93.0656 97.4868C94.5226 96.1341 96.0124 94.826 97.535 93.5627C98.9586 92.3758 100.604 91.484 102.375 90.9391C103.385 90.6307 104.413 90.3983 105.441 90.1659L105.437 90.1436Z" fill="#263238"/>
<path d="M103.761 87.5962C102.072 87.8286 100.592 88.0431 99.0547 88.8253C97.0211 89.8801 95.0009 91.7527 94.2903 92.4008C93.5081 93.1338 92.7483 93.8936 92.002 94.6623C91.9707 94.6936 92.002 94.7472 92.0556 94.716C93.7628 93.0451 95.5752 91.4851 97.4815 90.0454C98.3814 89.3426 99.3838 88.7819 100.454 88.3828C101.534 88.0389 102.642 87.7877 103.765 87.6319C103.765 87.6319 103.77 87.5962 103.761 87.5962Z" fill="#263238"/>
<path d="M146.015 73.4103C145.621 76.3288 143.4 81.9335 143.4 81.9335L132.468 80.6865C132.468 80.6865 138.341 73.169 142.77 70.4069C144.549 69.3029 146.417 70.4605 146.015 73.4103Z" fill="#FFC857"/>
<path d="M143.494 80.4453C141.881 80.1547 140.272 79.8866 138.645 79.6899C137.831 79.5916 137.022 79.5067 136.209 79.4307C135.396 79.3547 134.573 79.3681 133.764 79.2832C133.72 79.2832 133.715 79.3502 133.764 79.3547C134.573 79.3949 135.391 79.5514 136.2 79.6363C137.009 79.7212 137.822 79.8151 138.636 79.9089C140.254 80.1011 141.876 80.2888 143.494 80.5168C143.534 80.5212 143.534 80.4542 143.494 80.4453Z" fill="#263238"/>
<path d="M141.983 74.0046C142.444 73.5921 142.998 73.2977 143.597 73.1465C143.37 73.355 143.116 73.5324 142.842 73.6739C142.571 73.8206 142.283 73.9318 141.983 74.0046ZM140.571 79.1757C140.281 79.0847 139.981 79.0306 139.677 79.0148C139.939 79.1779 140.222 79.3042 140.517 79.3903C140.807 79.4834 141.108 79.5375 141.411 79.5512C141.15 79.3881 140.867 79.2617 140.571 79.1757ZM138.31 74.5275C138.216 74.8169 138.162 75.1176 138.149 75.4214C138.31 75.1597 138.435 74.877 138.52 74.5812C138.613 74.2918 138.667 73.9911 138.681 73.6873C138.522 73.9505 138.397 74.2329 138.31 74.5275Z" fill="white"/>
<path d="M146.015 73.4106C146.015 73.5715 145.97 73.7458 145.935 73.9157C145.899 74.0855 145.881 74.1883 145.845 74.3358C145.232 76.9289 144.414 79.4694 143.4 81.9338L142.953 81.8846L142.529 81.8355L139.092 81.4421L138.582 81.3885L135.154 80.9997L134.707 80.946L133.447 80.803L142.752 70.4072C144.719 69.6384 146.408 70.4608 146.015 73.4106Z" fill="#263238"/>
<path d="M135.467 102.908C135.467 102.908 145.854 104.513 165.032 101.299C165.032 101.299 155.557 77.799 148.942 71.801C145.939 69.0657 143.271 69.7317 141.13 71.801C140.598 72.3195 134.224 81.884 133.871 85.0707C133.563 87.8864 136.061 90.7826 136.061 90.7826L135.467 102.908Z" fill="#FFC857"/>
<path d="M154.516 91.7707C154.307 91.5435 154.13 91.2894 153.988 91.0154C153.838 90.7464 153.726 90.4575 153.657 90.1573C153.866 90.3845 154.043 90.6385 154.185 90.9126C154.331 91.1832 154.443 91.4716 154.516 91.7707ZM145.049 81.2453C144.908 80.9701 144.729 80.7159 144.517 80.4899C144.59 80.789 144.701 81.0774 144.848 81.3481C144.99 81.6221 145.167 81.8761 145.376 82.1034C145.307 81.8036 145.197 81.5147 145.049 81.2453ZM161.497 99.7352C161.354 99.4633 161.177 99.211 160.969 98.9844C161.042 99.2834 161.153 99.5719 161.3 99.8425C161.442 100.117 161.619 100.371 161.827 100.598C161.756 100.297 161.644 100.007 161.497 99.7352ZM142.484 94.3138C142.342 94.0398 142.165 93.7858 141.956 93.5585C142.029 93.8576 142.14 94.146 142.287 94.4166C142.429 94.6907 142.606 94.9447 142.815 95.1719C142.743 94.8726 142.632 94.584 142.484 94.3138ZM146.712 71.2382C146.574 70.9623 146.396 70.7079 146.185 70.4829C146.336 71.0823 146.63 71.636 147.043 72.0964C146.973 71.7955 146.86 71.5064 146.707 71.2382H146.712ZM147.847 90.6623C148.121 90.5198 148.374 90.3425 148.602 90.1349C148.302 90.2068 148.012 90.318 147.74 90.4657C147.466 90.6081 147.213 90.7854 146.985 90.993C147.285 90.9212 147.575 90.81 147.847 90.6623ZM137.755 86.5862C138.027 86.4434 138.279 86.2661 138.506 86.0588C138.206 86.1275 137.917 86.2388 137.648 86.3896C137.374 86.5311 137.12 86.7084 136.893 86.9169C137.198 86.8462 137.493 86.735 137.769 86.5862H137.755ZM142.828 73.6741C143.102 73.5326 143.356 73.3552 143.583 73.1467C142.984 73.2979 142.43 73.5923 141.97 74.0048C142.274 73.9331 142.567 73.8219 142.841 73.6741H142.828ZM144.531 100.844C144.809 100.706 145.068 100.532 145.3 100.325C144.7 100.476 144.147 100.771 143.686 101.183C143.986 101.108 144.274 100.993 144.544 100.844H144.531ZM153.416 78.9927C153.688 78.8499 153.94 78.6726 154.167 78.4653C153.568 78.6165 153.014 78.9109 152.553 79.3234C152.859 79.2527 153.153 79.1415 153.429 78.9927H153.416ZM156.594 97.2726C156.868 97.1311 157.122 96.9537 157.349 96.7452C157.048 96.813 156.759 96.9245 156.491 97.0759C156.217 97.2174 155.963 97.3948 155.736 97.6033C156.039 97.5316 156.332 97.4204 156.607 97.2726H156.594ZM149.934 95.3328C149.645 95.2397 149.344 95.1856 149.04 95.1719C149.302 95.335 149.585 95.4614 149.881 95.5474C150.171 95.6384 150.471 95.6925 150.775 95.7083C150.517 95.5463 150.239 95.42 149.948 95.3328H149.934ZM137.366 92.1596C137.077 92.0664 136.776 92.0123 136.472 91.9987C136.734 92.1617 137.017 92.2881 137.313 92.3741C137.603 92.4651 137.903 92.5192 138.207 92.535C137.949 92.373 137.671 92.2467 137.38 92.1596H137.366ZM150.301 84.0476C150.011 83.9541 149.711 83.8999 149.407 83.8867C149.67 84.049 149.955 84.1753 150.252 84.2621C150.542 84.3535 150.842 84.4076 151.146 84.423C150.886 84.2618 150.607 84.1355 150.314 84.0476H150.301ZM140.558 79.1759C140.268 79.0849 139.967 79.0308 139.664 79.015C139.925 79.1781 140.208 79.3044 140.504 79.3905C140.793 79.4836 141.094 79.5377 141.398 79.5514C141.14 79.3894 140.862 79.2631 140.571 79.1759H140.558ZM159.995 92.4545C159.706 92.361 159.405 92.3069 159.101 92.2936C159.364 92.4551 159.646 92.5813 159.941 92.6691C160.231 92.7597 160.532 92.8138 160.835 92.83C160.578 92.668 160.3 92.5417 160.008 92.4545H159.995ZM156.446 85.2364C156.353 85.5259 156.299 85.8265 156.285 86.1303C156.448 85.8688 156.575 85.586 156.661 85.2901C156.752 85.0002 156.806 84.6998 156.822 84.3962C156.664 84.6589 156.542 84.9415 156.46 85.2364H156.446ZM142.846 87.5963C142.753 87.8858 142.699 88.1864 142.685 88.4902C142.848 88.2286 142.974 87.9459 143.06 87.6499C143.152 87.3603 143.205 87.0596 143.217 86.756C143.062 87.0194 142.941 87.3019 142.859 87.5963H142.846ZM138.649 99.8782C138.556 100.168 138.501 100.468 138.488 100.772C138.651 100.509 138.777 100.224 138.864 99.9274C138.955 99.6375 139.009 99.3371 139.025 99.0335C138.861 99.2965 138.735 99.5807 138.649 99.8782ZM152.017 100.772C151.924 101.062 151.87 101.362 151.856 101.666C152.018 101.404 152.143 101.122 152.227 100.826C152.321 100.536 152.375 100.236 152.388 99.9319C152.23 100.195 152.105 100.478 152.017 100.772ZM148.665 76.0071C148.572 76.2965 148.517 76.5972 148.504 76.901C148.666 76.6386 148.792 76.3561 148.88 76.0607C148.97 75.7706 149.024 75.4704 149.04 75.1669C148.878 75.427 148.751 75.7082 148.665 76.0026V76.0071ZM135.9 81.7324C135.807 82.0218 135.753 82.3225 135.74 82.6263C135.902 82.3628 136.028 82.0787 136.115 81.7816C136.208 81.4922 136.263 81.1915 136.276 80.8877C136.114 81.1512 135.987 81.4353 135.9 81.7324Z" fill="white"/>
<path d="M145.541 70.8625C145.541 71.3988 144.035 75.3319 141.702 75.8235C140.942 75.9889 139.856 71.8859 139.856 71.8859L139.709 71.5999L137.617 67.6132L141.742 63.0767L142.35 62.46C142.35 62.46 142.851 63.5863 143.458 64.9986L143.543 65.1997C143.579 65.2802 143.615 65.3517 143.646 65.4277C143.74 65.6377 143.834 65.8746 143.923 66.0668C144.013 66.259 144.062 66.393 144.129 66.5674C144.196 66.7417 144.263 66.9115 144.334 67.0813C144.822 68.3127 145.226 69.576 145.541 70.8625Z" fill="#DD6A57"/>
<path d="M143.458 65.0167C143.35 66.3233 142.959 67.5906 142.311 68.7306C141.664 69.8706 140.776 70.8559 139.709 71.618L137.617 67.6313L141.742 63.0948L142.35 62.478C142.35 62.478 142.851 63.5864 143.458 65.0167Z" fill="#263238"/>
<path d="M129.889 62.3082C130.783 70.1565 135.579 70.5141 137.273 70.3219C138.81 70.1431 144.017 69.352 143.945 61.4546C143.874 53.5571 139.945 51.4833 136.41 51.6978C132.875 51.9124 129.004 54.4555 129.889 62.3082Z" fill="#DD6A57"/>
<path d="M130.864 60.8288C131.042 60.7797 131.203 60.7082 131.378 60.6456C131.567 60.6042 131.738 60.5022 131.865 60.3551C131.896 60.3016 131.909 60.2391 131.901 60.1775C131.893 60.1159 131.865 60.0588 131.82 60.0154C131.72 59.9424 131.602 59.8977 131.478 59.886C131.355 59.8742 131.231 59.8957 131.118 59.9484C130.873 60.0181 130.662 60.1776 130.528 60.3953C130.503 60.4465 130.492 60.5039 130.498 60.5609C130.503 60.6179 130.525 60.6722 130.56 60.7175C130.595 60.7629 130.642 60.7973 130.696 60.817C130.749 60.8367 130.808 60.8408 130.864 60.8288Z" fill="#263238"/>
<path d="M136.227 60.1004C136.045 60.0982 135.862 60.0848 135.682 60.0601C135.487 60.0722 135.294 60.0204 135.132 59.9127C135.088 59.8688 135.06 59.8118 135.052 59.7504C135.044 59.689 135.056 59.6266 135.087 59.573C135.165 59.4764 135.268 59.4024 135.384 59.3584C135.5 59.3144 135.626 59.3021 135.749 59.3227C136.003 59.3234 136.247 59.4209 136.433 59.5953C136.472 59.6371 136.499 59.6894 136.509 59.7459C136.52 59.8024 136.514 59.8608 136.492 59.9141C136.471 59.9673 136.434 60.0132 136.387 60.0463C136.34 60.0793 136.284 60.0981 136.227 60.1004Z" fill="#263238"/>
<path d="M135.23 62.1743C135.23 62.1743 135.275 62.1743 135.279 62.2145C135.319 62.7509 135.458 63.3587 135.963 63.4839V63.5151C135.36 63.4973 135.185 62.6883 135.23 62.1743Z" fill="#263238"/>
<path d="M135.646 61.5619C136.499 61.401 136.759 63.1173 135.968 63.2647C135.177 63.4122 134.931 61.696 135.646 61.5619Z" fill="#263238"/>
<path d="M135.994 61.6019C136.16 61.6734 136.334 61.8254 136.517 61.8165C136.7 61.8075 136.861 61.6019 136.964 61.4053C136.964 61.4053 136.991 61.4053 136.995 61.4053C137.046 61.5584 137.036 61.7249 136.968 61.871C136.9 62.0171 136.779 62.1318 136.629 62.1919C136.312 62.2857 136.039 62.0265 135.905 61.7092C135.892 61.669 135.932 61.5706 135.994 61.6019Z" fill="#263238"/>
<path d="M132.258 62.5093C132.258 62.5093 132.218 62.5406 132.222 62.5629C132.325 63.0903 132.352 63.7115 131.9 63.9663C131.9 63.9663 131.9 63.9976 131.9 63.9931C132.481 63.8188 132.437 62.992 132.258 62.5093Z" fill="#263238"/>
<path d="M131.695 62.0263C130.828 62.0978 131.038 63.8141 131.838 63.756C132.638 63.6979 132.419 61.9682 131.695 62.0263Z" fill="#263238"/>
<path d="M131.351 62.1834C131.225 62.2951 131.109 62.4739 130.948 62.5052C130.787 62.5365 130.6 62.3711 130.457 62.2058H130.43C130.461 62.5365 130.613 62.8672 130.935 62.894C131.257 62.9209 131.409 62.608 131.449 62.2683C131.458 62.2281 131.4 62.1432 131.351 62.1834Z" fill="#263238"/>
<path d="M133.456 64.9138C133.456 64.9138 133.456 65.7227 133.51 66.0982C133.51 66.1339 133.608 66.1384 133.738 66.1294C134.067 66.1462 134.394 66.0715 134.684 65.9138C134.973 65.756 135.213 65.5213 135.378 65.2356C135.4 65.1953 135.347 65.164 135.315 65.1953C134.881 65.587 134.333 65.8298 133.751 65.8881C133.711 65.7853 133.796 64.4981 133.751 64.5026C133.462 64.5672 133.184 64.6725 132.924 64.8154C132.87 63.126 133.094 61.441 133.018 59.7605C133.018 59.698 132.924 59.6935 132.915 59.7605C132.623 61.558 132.512 63.3802 132.584 65.1998C132.584 65.3875 133.317 65.0166 133.456 64.9138Z" fill="#263238"/>
<path d="M133.764 65.9414C134.015 66.2233 134.333 66.4371 134.689 66.5627C134.884 66.6253 135.094 66.6253 135.288 66.5627C135.735 66.4241 135.699 66.0264 135.597 65.6912C135.54 65.5133 135.464 65.3424 135.369 65.1816C134.928 65.5995 134.366 65.8657 133.764 65.9414Z" fill="#263238"/>
<path d="M134.689 66.5634C134.884 66.626 135.094 66.626 135.288 66.5634C135.735 66.4249 135.7 66.0271 135.597 65.6919C135.37 65.7139 135.156 65.8119 134.992 65.9701C134.827 66.1282 134.721 66.3373 134.689 66.5634Z" fill="#FF9CBD"/>
<path d="M143.431 62.125C142.573 62.125 140.164 59.9529 139.78 55.8231C139.78 55.8231 140.379 59.5104 140.701 60.0333C141.022 60.5562 139.36 58.7998 138.993 55.4745C138.001 56.3077 136.895 56.994 135.708 57.5126C134.166 58.0713 133.201 58.1338 133.08 58.0266C132.96 57.9193 135.221 57.012 135.793 56.2388C135.793 56.2388 131.771 58.5048 129.831 58.7998C129.612 58.8355 128.991 54.2633 131.829 52.0956C134.667 49.928 139.556 51.6487 140.924 52.7929C140.924 52.7929 142.43 52.8912 144.222 54.9784C146.015 57.0656 144.361 62.1116 143.431 62.125Z" fill="#263238"/>
<path d="M136.473 64.65C135.815 64.6465 135.186 64.3825 134.723 63.9159C134.259 63.4493 134 62.8181 134.001 62.1606C134.002 61.6962 134.134 61.2416 134.381 60.8484C134.628 60.4552 134.981 60.1392 135.398 59.9365C135.816 59.7337 136.282 59.6523 136.744 59.7014C137.206 59.7506 137.645 59.9284 138.01 60.2146C138.376 60.5008 138.654 60.8839 138.813 61.3203C138.971 61.7567 139.004 62.2289 138.908 62.6831C138.812 63.1373 138.59 63.5554 138.267 63.8897C137.945 64.224 137.535 64.4611 137.085 64.574C136.885 64.6243 136.679 64.6498 136.473 64.65ZM134.332 62.1606C134.33 62.5859 134.454 63.0023 134.689 63.3569C134.924 63.7115 135.259 63.9884 135.652 64.1526C136.044 64.3168 136.476 64.361 136.894 64.2794C137.311 64.1978 137.695 63.9942 137.997 63.6944C138.299 63.3945 138.505 63.0119 138.589 62.5949C138.673 62.178 138.632 61.7454 138.47 61.352C138.308 60.9586 138.033 60.622 137.68 60.3848C137.327 60.1477 136.911 60.0206 136.486 60.0197C136.308 60.0188 136.131 60.0414 135.959 60.0868C135.495 60.2021 135.084 60.4687 134.789 60.8444C134.494 61.22 134.333 61.6832 134.332 62.1606Z" fill="#FFC857"/>
<path d="M131.275 65.3065C130.269 65.4361 129.304 64.4395 129.129 63.0718C129.037 62.4597 129.141 61.8342 129.424 61.2841C129.532 61.0408 129.7 60.8293 129.913 60.6701C130.126 60.5108 130.377 60.4093 130.64 60.3751C130.904 60.341 131.172 60.3754 131.419 60.4751C131.665 60.5748 131.882 60.7365 132.048 60.9444C132.461 61.4051 132.72 61.9831 132.79 62.5981C132.955 63.8808 132.343 65.0294 131.449 65.2797L131.275 65.3065ZM129.715 61.4405C129.465 61.9278 129.375 62.4811 129.456 63.0227C129.608 64.1981 130.408 65.0652 131.243 64.9579C132.079 64.8506 132.62 63.8093 132.468 62.6338C132.407 62.0896 132.179 61.5775 131.815 61.1679C131.678 61.0061 131.505 60.8793 131.309 60.7977C131.113 60.7161 130.901 60.6821 130.689 60.6986L130.569 60.7209C130.384 60.7743 130.212 60.866 130.065 60.9899C129.918 61.1139 129.799 61.2674 129.715 61.4405Z" fill="#FFC857"/>
<path d="M134.117 62.4335L134.296 62.1564C133.885 61.8882 132.955 61.5798 132.45 62.2994L132.718 62.4961C133.183 61.848 134.082 62.4112 134.117 62.4335Z" fill="#FFC857"/>
<path d="M145.166 61.647L145.438 61.4548C145.349 61.3297 144.544 60.2168 143.807 60.19C143.07 60.1632 138.752 61.1554 138.569 61.1956L138.64 61.5219C139.892 61.2358 143.253 60.5028 143.798 60.5207C144.343 60.5386 144.942 61.3386 145.166 61.647Z" fill="#FFC857"/>
<path d="M144.272 64.3465C144.163 64.4115 144.05 64.4669 143.932 64.5119C143.814 64.5564 143.691 64.5835 143.565 64.5923C143.405 64.6097 143.244 64.5914 143.092 64.5387C142.972 64.4981 142.858 64.4425 142.752 64.3733C142.604 64.2714 142.476 64.1443 142.372 63.9979V61.8436C142.372 61.8436 143.574 59.0815 144.79 59.4659C146.006 59.8503 145.483 63.609 144.272 64.3465Z" fill="#DD6A57"/>
<path d="M144.634 60.5469C144.656 60.5469 144.665 60.5692 144.634 60.5782C143.802 61.1279 143.494 62.062 143.338 62.9961C143.372 62.8952 143.428 62.8029 143.501 62.7256C143.574 62.6483 143.664 62.5878 143.763 62.5483C143.862 62.5088 143.968 62.4912 144.074 62.4968C144.181 62.5023 144.285 62.5309 144.379 62.5805C144.406 62.5805 144.379 62.6341 144.379 62.6341C144.211 62.6142 144.042 62.6465 143.893 62.7264C143.744 62.8064 143.624 62.9302 143.548 63.081C143.426 63.3367 143.333 63.605 143.271 63.8811C143.244 63.9704 143.087 63.957 143.101 63.8587C142.855 62.6922 143.423 60.9044 144.634 60.5469Z" fill="#263238"/>
<path d="M144.115 64.0423C144.115 64.1148 144.094 64.1856 144.053 64.2459C144.013 64.3062 143.956 64.3531 143.889 64.3809C143.822 64.4086 143.748 64.4159 143.677 64.4017C143.606 64.3876 143.541 64.3527 143.489 64.3014C143.438 64.2502 143.403 64.1849 143.389 64.1138C143.375 64.0427 143.382 63.969 143.41 63.902C143.438 63.8351 143.485 63.7778 143.545 63.7375C143.605 63.6973 143.676 63.6758 143.749 63.6758C143.846 63.6758 143.939 63.7144 144.008 63.7831C144.076 63.8519 144.115 63.9451 144.115 64.0423Z" fill="white"/>
<path d="M144.746 63.3496C144.746 63.4008 144.73 63.4509 144.702 63.4936C144.673 63.5362 144.633 63.5694 144.585 63.589C144.538 63.6087 144.486 63.6138 144.436 63.6038C144.385 63.5938 144.339 63.5691 144.303 63.5329C144.267 63.4966 144.242 63.4504 144.232 63.4001C144.222 63.3498 144.227 63.2977 144.247 63.2504C144.266 63.203 144.3 63.1625 144.342 63.134C144.385 63.1055 144.435 63.0903 144.486 63.0903C144.555 63.0903 144.621 63.1176 144.67 63.1663C144.718 63.2149 144.746 63.2808 144.746 63.3496Z" fill="white"/>
<path d="M150.359 73.1016C156.232 81.0974 164.143 94.595 160.455 97.5001C154.395 102.269 136.915 104.736 132.91 105.138C131.181 105.308 127.954 93.9648 129.134 92.5302C130.314 91.0955 148.755 90.4385 148.906 89.3122C148.991 88.6731 147.606 83.1444 145.948 76.266C144.03 68.3328 148.674 70.8267 150.359 73.1016Z" fill="#DD6A57"/>
<path d="M132.173 91.6629C132.173 91.6629 126.886 91.5154 123.426 91.5824C121.496 91.6182 118.193 91.9802 116.785 92.6551C114.684 93.6652 106.536 99.234 107.846 101.241C109.03 103.055 115.444 97.3792 115.444 97.3792C115.444 97.3792 108.463 102.559 110.304 104.459C112.146 106.358 118.501 99.0106 118.501 99.0106C118.501 99.0106 111.471 104.468 113.67 106.162C115.332 107.435 121.478 101.084 121.478 101.084C121.478 101.084 115.471 105.817 117.12 107.199C118.948 108.727 124.986 103.221 124.986 103.221C129.777 106.028 133.21 105.406 135.597 104.673C136.164 104.486 132.173 91.6629 132.173 91.6629Z" fill="#DD6A57"/>
<path d="M117.714 95.4439C116.874 96.0205 116.021 96.597 115.234 97.2317C114.447 97.8663 113.687 98.5725 112.963 99.2742C112.005 100.198 111.154 101.226 110.425 102.34C111.859 100.454 114.635 98.0898 115.422 97.4239C116.208 96.7579 116.955 96.083 117.737 95.4395C117.759 95.4573 117.732 95.4305 117.714 95.4439Z" fill="#263238"/>
<path d="M120.106 98.2373C119.069 99.015 118.005 99.7569 116.999 100.584C115.994 101.411 115.122 102.278 114.184 103.167C114.108 103.239 114.184 103.252 114.246 103.167C115.221 102.318 116.19 101.603 117.174 100.763C118.157 99.9223 119.113 99.0418 120.128 98.2418L120.106 98.2373Z" fill="#263238"/>
<path d="M122.591 100.262C120.968 101.423 119.471 102.749 118.121 104.218C118.054 104.289 118.121 104.298 118.211 104.218C119.672 102.877 120.807 101.813 122.635 100.307C122.658 100.298 122.626 100.24 122.591 100.262Z" fill="#263238"/>
<path d="M136.129 91.167C135.387 91.167 133.818 91.4173 132.079 91.4575C128.169 91.538 122.644 91.4083 120.673 91.4575C115.346 91.6184 112.03 95.48 110.51 96.8208C109.601 97.6323 108.773 98.5305 108.038 99.5024C107.659 100.034 107.288 100.79 107.77 101.397C108.356 102.135 110.631 101.397 113.022 99.3371C113.107 99.2611 113.053 99.2119 112.964 99.279C109.621 101.88 108.316 101.549 107.98 101.067C107.766 100.767 107.98 100.258 108.195 99.8734C108.53 99.3167 108.932 98.8034 109.393 98.3449C110.933 96.755 112.631 95.3263 114.461 94.0811C116.427 92.6745 118.752 91.8546 121.165 91.7167C122.881 91.6095 128.146 91.7659 132.088 91.6497C133.814 91.5961 135.378 91.2877 136.111 91.2296C136.191 91.2519 136.182 91.167 136.129 91.167Z" fill="#263238"/>
<path d="M157.863 83.2516L146.641 82.9656C146.641 82.9656 145.434 77.4548 145.193 74.3128C144.875 70.1518 146.346 69.0568 149.997 72.6413C152.438 75.0413 157.863 83.2516 157.863 83.2516Z" fill="#FFC857"/>
<path d="M147.039 72.0964C146.626 71.636 146.332 71.0823 146.18 70.4829C146.593 70.9433 146.887 71.497 147.039 72.0964ZM153.43 78.9927C153.702 78.8499 153.954 78.6726 154.181 78.4653C153.581 78.6165 153.028 78.9109 152.567 79.3234C152.868 79.2516 153.158 79.1404 153.43 78.9927ZM148.665 76.0026C148.572 76.292 148.518 76.5927 148.505 76.8965C148.666 76.6341 148.792 76.3516 148.88 76.0563C148.971 75.7662 149.025 75.4659 149.041 75.1624C148.878 75.4239 148.751 75.7067 148.665 76.0026Z" fill="white"/>
<path d="M148.013 83.0058C147.892 82.979 146.739 82.9119 146.672 82.9298C146.547 82.2773 146.43 81.6247 146.296 80.9767C146.229 80.6504 146.158 80.3241 146.082 80.0023C146.006 79.6805 145.916 79.2381 145.845 78.9252C145.845 78.876 145.769 78.885 145.773 78.9252C145.831 79.3453 145.885 79.6537 145.939 80.0157C145.992 80.3778 146.037 80.6638 146.1 80.9856C146.225 81.665 146.332 82.3935 146.493 83.0684C147.006 83.0904 147.519 83.08 148.03 83.0371L148.013 83.0058Z" fill="#263238"/>
<path d="M156.75 82.1572C155.119 82.0052 153.492 81.8711 151.856 81.813C151.038 81.7862 150.225 81.7683 149.407 81.7639C148.589 81.7594 147.771 81.8398 146.958 81.822C146.948 81.822 146.939 81.8257 146.933 81.8324C146.926 81.8391 146.922 81.8482 146.922 81.8577C146.922 81.8672 146.926 81.8763 146.933 81.883C146.939 81.8897 146.948 81.8935 146.958 81.8935C147.771 81.8666 148.598 81.9516 149.412 81.9694L151.861 82.032C153.492 82.0857 155.123 82.1348 156.755 82.2287C156.786 82.2287 156.786 82.1616 156.75 82.1572Z" fill="#263238"/>
<path d="M103.006 104.405H127.762V102.484L103.006 101.684V104.405Z" fill="#455A64"/>
<path d="M83.5461 104.374H99.8818C101.272 104.374 99.256 100.405 94.1698 98.8813C89.0837 97.3573 81.9415 102.886 83.5461 104.374Z" fill="#37474F"/>
<path d="M89.9551 104.374C89.6893 103.537 89.3326 102.732 88.8914 101.974C88.6722 101.604 88.4178 101.257 88.1316 100.937C87.8348 100.615 87.5135 100.316 87.1707 100.043C87.6133 100.175 88.0231 100.398 88.3729 100.7C88.7289 100.998 89.0312 101.355 89.2668 101.755C89.5054 102.152 89.6874 102.581 89.8076 103.029C89.9308 103.466 89.9807 103.92 89.9551 104.374Z" fill="#263238"/>
<path d="M88.0198 100.597C87.1617 101.151 86.3035 101.656 85.499 102.233C85.0943 102.509 84.7145 102.82 84.3638 103.163C83.9994 103.496 83.7191 103.911 83.5459 104.374C83.5542 103.841 83.7523 103.329 84.1046 102.93C84.429 102.522 84.8115 102.164 85.2398 101.866C85.6633 101.571 86.112 101.314 86.5806 101.098C87.0413 100.881 87.5237 100.713 88.0198 100.597Z" fill="#263238"/>
<path d="M71.8272 96.6911H111.529L105.218 67.1304H65.512L71.8272 96.6911Z" fill="#455A64"/>
<path d="M70.3614 96.692H110.063L103.748 67.1313H64.0461L70.3614 96.692Z" fill="#37474F"/>
<path d="M91.7742 86.094H92.7039L91.2915 79.4614H90.3574L91.7742 86.094Z" fill="#263238"/>
<path d="M89.9373 86.094H90.8669L89.4546 79.4614H88.5205L89.9373 86.094Z" fill="#263238"/>
<path d="M88.1004 86.094H89.03L87.6177 79.4614H86.6836L88.1004 86.094Z" fill="#263238"/>
<path d="M86.2635 86.094H87.1931L85.7808 79.4614H84.8467L86.2635 86.094Z" fill="#263238"/>
<path d="M84.4221 86.094H85.3562L83.9394 79.4614H83.0098L84.4221 86.094Z" fill="#263238"/>
<path d="M82.5852 86.094H83.5193L82.1025 79.4614H81.1729L82.5852 86.094Z" fill="#263238"/>
<path d="M80.748 86.094H81.6821L80.2653 79.4614H79.3357L80.748 86.094Z" fill="#263238"/>
<path d="M81.5884 104.41H101.115V102.894L81.5884 102.26V104.41Z" fill="#455A64"/>
<path d="M76.2788 104.405H86.7641L93.0793 87.8462H82.5941L76.2788 104.405Z" fill="#455A64"/>
<path d="M74.5537 104.405H85.039L91.3498 87.8462H80.869L74.5537 104.405Z" fill="#263238"/>
<path d="M168.617 104.406H27.8572V106.967H168.617V104.406Z" fill="#37474F"/>
<path d="M165.265 106.967H31.2092V113.394H165.265V106.967Z" fill="#37474F"/>
<path d="M165.265 106.967H31.2092V110.18H165.265V106.967Z" fill="#263238"/>
<path d="M49.3819 163.63H37.3682V165.744H49.3819V163.63Z" fill="#37474F"/>
<path d="M55.8982 194.54H54.6021L44.0185 145.14L43.4151 142.324L41.5156 133.457L40.8095 130.149L38.1457 117.742L37.2161 113.394H41.8374L42.5928 117.742L43.0844 120.594L43.4151 122.493L45.3146 133.457L45.927 136.988L55.8982 194.54Z" fill="#37474F"/>
<path d="M41.8374 113.394L42.5928 117.742H38.1457L37.2161 113.394H41.8374Z" fill="#263238"/>
<path d="M45.9268 136.988L44.0184 145.14L43.415 142.324L41.5155 133.457L40.8093 130.149L43.0843 120.594L43.415 122.493L45.3145 133.457L45.9268 136.988Z" fill="#263238"/>
<path d="M49.614 113.394L48.6844 117.742L45.3144 133.457L43.4149 142.324L32.228 194.54H30.9319L41.5154 133.457L43.4149 122.493L44.2373 117.742L44.9882 113.394H49.614Z" fill="#37474F"/>
<path d="M49.6143 113.394L48.6846 117.742H44.2375L44.9884 113.394H49.6143Z" fill="#263238"/>
<path d="M159.026 163.63H147.012V165.744H159.026V163.63Z" fill="#37474F"/>
<path d="M165.542 194.54H164.241L153.662 145.14L153.059 142.324L151.155 133.457L150.449 130.149L147.789 117.742L146.855 113.394H151.481L152.232 117.742L152.728 120.594L153.059 122.493L154.954 133.457L155.566 136.988L165.542 194.54Z" fill="#37474F"/>
<path d="M151.481 113.394L152.232 117.742H147.789L146.855 113.394H151.481Z" fill="#263238"/>
<path d="M155.566 136.988L153.662 145.14L153.059 142.324L151.155 133.457L150.448 130.149L152.728 120.594L153.059 122.493L154.954 133.457L155.566 136.988Z" fill="#263238"/>
<path d="M159.253 113.394L158.324 117.742L154.954 133.457L153.059 142.324L141.867 194.54H140.576L151.155 133.457L153.059 122.493L153.877 117.742L154.632 113.394H159.253Z" fill="#37474F"/>
<path d="M159.253 113.394L158.324 117.742H153.877L154.632 113.394H159.253Z" fill="#263238"/>
<path d="M39.7682 101.867L38.8833 101.751L42.7315 72.4538L54.0748 65.2134L57.7353 67.609L57.2481 68.3554L54.0659 66.2771L43.5628 72.9812L39.7682 101.867Z" fill="#263238"/>
<path d="M42.3965 72.7172C42.3956 72.8669 42.4393 73.0136 42.5219 73.1385C42.6046 73.2634 42.7225 73.3609 42.8607 73.4186C42.9989 73.4763 43.1511 73.4917 43.2981 73.4627C43.445 73.4337 43.58 73.3616 43.6859 73.2557C43.7918 73.1498 43.8639 73.0148 43.8929 72.8679C43.9219 72.721 43.9065 72.5687 43.8488 72.4305C43.7911 72.2923 43.6936 72.1744 43.5687 72.0918C43.4438 72.0091 43.2971 71.9654 43.1474 71.9663C42.9482 71.9663 42.7572 72.0454 42.6164 72.1862C42.4756 72.3271 42.3965 72.518 42.3965 72.7172Z" fill="#FFC857"/>
<path d="M54.0346 66.4959C54.4492 66.4959 54.7854 66.1597 54.7854 65.745C54.7854 65.3303 54.4492 64.9941 54.0346 64.9941C53.6199 64.9941 53.2837 65.3303 53.2837 65.745C53.2837 66.1597 53.6199 66.4959 54.0346 66.4959Z" fill="#FFC857"/>
<path d="M64.0192 68.6369L59.018 74.2192L56.7117 71.3677L55.3083 69.6291L59.0537 65.4502L60.9353 66.6614L64.0192 68.6369Z" fill="#FFC857"/>
<path opacity="0.1" d="M64.0192 68.6366L59.0179 74.2189L56.7117 71.3674L60.9353 66.6611L64.0192 68.6366Z" fill="black"/>
<path d="M71.2642 71.3895L62.5489 81.1149L56.761 73.7314L63.2908 66.4463L71.2642 71.3895Z" fill="#FFC857"/>
<path d="M46.1684 104.41H33.2742L34.0653 100.36H45.3773L46.1684 104.41Z" fill="#FFC857"/>
<path d="M176.51 142.006C176.134 144.625 176.269 147.292 176.908 149.859C177.21 151.049 177.612 152.21 178.11 153.332C178.736 154.767 179.388 156.17 179.232 157.743C179.08 157.846 179.603 157.828 179.616 157.676C183.817 155.285 189.208 154.847 192.439 150.936C193.972 149.082 194.745 146.735 195.121 144.389C195.518 141.832 195.626 139.025 194.969 136.482C194.41 134.35 193.181 132.294 191.165 131.249C189.149 130.203 186.392 130.265 184.215 130.94C179.509 132.402 177.176 137.466 176.51 142.006Z" fill="#FFC857"/>
<path d="M174.356 173.105C174.928 171.196 175.5 169.283 176.09 167.379C177.243 163.643 178.441 159.924 179.768 156.246C180.564 154.047 181.401 151.867 182.28 149.707C182.186 148.345 182.019 146.989 181.779 145.644C181.431 144.018 180.917 142.444 180.439 140.849C180.431 140.826 180.432 140.802 180.443 140.78C180.453 140.759 180.472 140.743 180.495 140.735C180.517 140.727 180.542 140.729 180.563 140.739C180.584 140.75 180.601 140.768 180.608 140.791C181.552 142.99 182.785 145.796 182.812 148.389C183.84 145.944 184.935 143.535 186.115 141.162C186.25 139.154 186.189 137.137 185.932 135.141C185.928 135.122 185.932 135.103 185.943 135.087C185.954 135.071 185.971 135.06 185.99 135.056C186.009 135.053 186.028 135.057 186.044 135.068C186.06 135.079 186.071 135.096 186.075 135.115C186.431 136.862 186.569 138.647 186.486 140.429C187.38 138.641 188.336 136.884 189.351 135.15C189.44 134.994 189.659 135.15 189.579 135.307C188.001 138.346 186.535 141.452 185.158 144.594C187.094 142.919 189.329 141.625 191.746 140.782C191.854 140.746 191.93 140.898 191.822 140.938C189.186 142.075 186.773 143.673 184.698 145.658C183.712 147.961 182.772 150.282 181.878 152.621C184.506 150.042 188.104 148.348 191.581 147.441C191.702 147.41 191.733 147.589 191.617 147.624C187.594 148.836 184.466 151.119 181.4 153.882C181.042 154.826 180.693 155.774 180.354 156.724C179.052 160.321 177.815 163.942 176.644 167.589C176.081 169.332 175.522 171.084 174.977 172.832C174.392 174.718 173.931 176.707 173.189 178.526C173.118 178.7 172.805 178.66 172.845 178.45C173.258 176.644 173.762 174.86 174.356 173.105Z" fill="#263238"/>
<path d="M181.324 138.315C182.069 139.462 182.584 140.743 182.839 142.087C182.839 142.123 182.79 142.141 182.776 142.087C182.307 140.821 181.759 139.585 181.136 138.386C181.073 138.315 181.252 138.221 181.324 138.315Z" fill="#263238"/>
<path d="M188.819 147.084C189.987 146.434 191.264 146.004 192.587 145.814C192.622 145.814 192.645 145.859 192.587 145.873C191.979 146.127 191.344 146.319 190.732 146.538C190.119 146.757 189.512 147.061 188.89 147.276C188.867 147.277 188.845 147.271 188.825 147.259C188.806 147.246 188.792 147.228 188.784 147.206C188.776 147.185 188.775 147.161 188.781 147.139C188.787 147.117 188.801 147.098 188.819 147.084Z" fill="#263238"/>
<path d="M190.928 136.553C191.309 136.266 191.716 136.014 192.144 135.803C192.158 135.794 192.175 135.791 192.192 135.795C192.208 135.798 192.222 135.808 192.231 135.823C192.24 135.837 192.243 135.854 192.239 135.87C192.235 135.887 192.225 135.901 192.211 135.91C191.838 136.206 191.439 136.466 191.018 136.688C190.942 136.732 190.852 136.603 190.928 136.553Z" fill="#263238"/>
<path d="M162.346 156.277C165.372 157.171 168.416 158.002 171.442 158.892C171.705 158.972 176.805 149.171 174.968 144.12C173.261 139.445 169.35 135.95 164.688 134.359C162.53 133.626 159.875 133.018 157.591 133.514C155.562 133.961 154.127 135.624 153.47 137.537C152.576 140.129 152.871 143.226 153.358 145.872C153.749 148.359 154.776 150.702 156.339 152.675C157.939 154.583 159.991 155.575 162.346 156.277Z" fill="#FFC857"/>
<path d="M157.962 146.959C159.874 147.893 161.857 148.675 163.893 149.296C165.251 149.662 166.575 150.142 167.853 150.731C166.579 147.879 165.171 145.09 163.687 142.328C161.729 141.761 159.665 140.88 158.203 139.495C158.186 139.48 158.176 139.46 158.174 139.438C158.173 139.417 158.18 139.395 158.194 139.378C158.208 139.362 158.229 139.352 158.25 139.35C158.272 139.348 158.294 139.355 158.31 139.369C159.924 140.509 161.703 141.193 163.486 141.962C163.084 141.22 162.675 140.475 162.261 139.727C162.15 139.521 162.431 139.316 162.57 139.517C164.159 141.826 165.595 144.238 166.869 146.735C167.195 144.546 167.3 142.33 167.182 140.12C167.18 140.114 167.179 140.106 167.18 140.099C167.181 140.092 167.184 140.086 167.188 140.08C167.192 140.074 167.198 140.07 167.204 140.067C167.211 140.063 167.217 140.062 167.225 140.062C167.232 140.062 167.239 140.063 167.245 140.067C167.251 140.07 167.257 140.074 167.261 140.08C167.265 140.086 167.268 140.092 167.269 140.099C167.27 140.106 167.269 140.114 167.267 140.12C167.646 142.53 167.621 144.986 167.196 147.388C168.255 149.506 169.22 151.678 170.092 153.873C170.436 152.554 170.883 151.254 171.182 149.922C171.644 148.022 171.795 146.06 171.629 144.111C171.629 144.053 171.705 144.049 171.714 144.111C172.252 147.725 171.814 151.416 170.445 154.802C170.95 156.143 171.433 157.453 171.875 158.78C174.158 165.569 175.511 172.635 175.897 179.786C175.897 179.821 175.884 179.854 175.859 179.878C175.835 179.902 175.802 179.916 175.768 179.916C175.733 179.916 175.7 179.902 175.676 179.878C175.652 179.854 175.638 179.821 175.638 179.786C174.847 172.735 173.338 165.783 171.133 159.039C170.239 156.402 169.242 153.841 168.134 151.325C166.346 150.798 164.559 150.083 162.811 149.475C161.063 148.867 159.343 148.192 157.895 147.066C157.837 147.021 157.899 146.927 157.962 146.959Z" fill="#263238"/>
<path d="M155.142 144.125C156.992 144.787 158.744 145.707 160.594 146.36C160.679 146.391 160.63 146.53 160.541 146.512C158.588 146.105 156.648 145.502 155.07 144.219C154.999 144.17 155.075 144.089 155.142 144.125Z" fill="#263238"/>
<path d="M170.248 140.102C170.248 140.004 170.373 139.95 170.4 140.049C170.91 141.756 171.258 143.566 170.767 145.309C170.767 145.376 170.637 145.381 170.633 145.309C170.548 143.562 170.642 141.854 170.248 140.102Z" fill="#263238"/>
<path d="M162.597 136.182C163.186 137.03 163.468 138.053 163.397 139.083C163.397 139.145 163.289 139.186 163.272 139.083C163.048 138.109 162.673 137.219 162.378 136.272C162.376 136.246 162.383 136.22 162.397 136.198C162.411 136.176 162.431 136.159 162.455 136.149C162.479 136.139 162.506 136.137 162.531 136.143C162.557 136.149 162.579 136.163 162.597 136.182Z" fill="#263238"/>
<path d="M198.352 160.599C197.458 163.415 195.357 167.303 192.019 167.339C189.856 167.339 187.674 167.102 185.507 167.071C183.183 167.035 180.859 167.04 178.539 167.178C178.351 167.178 178.816 160.224 184.398 156.831C185.963 155.879 187.876 155.58 189.65 155.196C191.682 154.715 193.766 154.497 195.853 154.548C197.136 154.601 198.204 154.874 198.66 156.183C199.116 157.493 198.763 159.263 198.352 160.599Z" fill="#FFC857"/>
<path d="M195.938 157.086C194.597 157.435 193.212 157.833 191.849 158.266C192.204 157.881 192.58 157.515 192.975 157.171C193.56 156.684 194.204 156.277 194.83 155.871C194.883 155.835 194.852 155.732 194.785 155.759C193.464 156.307 192.323 157.215 191.491 158.378C189.797 158.928 188.117 159.531 186.499 160.197C185.381 160.654 184.309 161.216 183.299 161.877C183.623 161.173 184.01 160.5 184.456 159.866C185.198 158.905 186.199 158.369 187.169 157.69C187.189 157.678 187.203 157.659 187.208 157.636C187.214 157.614 187.21 157.591 187.198 157.571C187.186 157.552 187.167 157.538 187.145 157.532C187.123 157.527 187.099 157.53 187.08 157.542C186.063 157.979 185.148 158.623 184.396 159.435C183.643 160.246 183.068 161.206 182.709 162.253C181.56 163.091 180.51 164.056 179.58 165.131C175.884 169.328 172.974 174.91 172.965 180.604C172.965 180.743 173.184 180.779 173.211 180.64C174.158 175.055 176.591 169.827 180.255 165.507C180.519 165.198 180.791 164.908 181.064 164.613C182.076 164.476 183.095 164.4 184.117 164.385C185.305 164.385 186.485 164.559 187.67 164.657C189.618 164.814 191.773 164.841 193.529 163.857C193.547 163.848 193.56 163.832 193.567 163.813C193.574 163.794 193.573 163.774 193.565 163.755C193.557 163.737 193.543 163.722 193.525 163.713C193.506 163.705 193.486 163.704 193.467 163.71C189.551 165.136 185.422 163.33 181.511 164.179C183.193 162.577 185.165 161.309 187.321 160.443L187.683 160.3C190.199 160.599 192.854 161.256 195.303 160.438C195.319 160.434 195.332 160.424 195.34 160.41C195.348 160.396 195.35 160.38 195.346 160.365C195.342 160.349 195.332 160.336 195.318 160.328C195.304 160.32 195.288 160.318 195.272 160.322C192.903 160.912 190.633 160.17 188.3 160.054C190.843 159.062 193.435 158.266 195.987 157.292C196.166 157.211 196.171 157.015 195.938 157.086Z" fill="#263238"/>
<path d="M197.047 159.553C195.832 159.71 194.611 159.803 193.386 159.831C193.36 159.831 193.351 159.875 193.386 159.88C194.619 160.109 195.889 160.03 197.083 159.647C197.132 159.629 197.105 159.544 197.047 159.553Z" fill="#263238"/>
<path d="M188.778 157.14C188.103 157.443 187.489 157.869 186.968 158.396C186.901 158.454 186.991 158.57 187.058 158.517C187.366 158.293 187.683 158.07 188.001 157.877C188.309 157.708 188.607 157.521 188.895 157.319C188.966 157.252 188.877 157.086 188.778 157.14Z" fill="#263238"/>
<path d="M169.068 166.204C169.109 166.294 168.975 166.383 168.921 166.285C168.912 166.299 168.899 166.312 168.885 166.321C168.87 166.33 168.853 166.336 168.836 166.338C166.589 166.876 164.311 167.274 162.016 167.532C160.17 167.692 158.042 167.795 156.424 166.727C154.234 165.275 152.795 161.391 153.98 158.924C155.379 155.996 159.598 157.583 161.716 158.629C164.975 160.219 167.576 162.899 169.068 166.204Z" fill="#FFC857"/>
<path d="M170.704 167.558C169.474 166.367 168.107 165.326 166.632 164.456C165.57 162.776 164.163 161.34 162.503 160.246C162.422 160.192 162.355 160.318 162.427 160.376C163.747 161.433 164.918 162.664 165.908 164.036C164.263 163.138 162.554 162.361 160.795 161.712C160.17 160.547 159.216 159.591 158.051 158.963C158.029 158.963 158.002 158.963 158.024 158.999C158.983 159.73 159.821 160.608 160.505 161.6C159.463 161.211 158.418 160.854 157.376 160.505C157.282 160.474 157.247 160.617 157.336 160.653C159.204 161.381 161.108 162.15 162.959 163.035C160.704 163.395 158.406 163.395 156.152 163.035C156.14 163.033 156.128 163.036 156.117 163.042C156.107 163.049 156.1 163.059 156.097 163.07C156.093 163.082 156.094 163.094 156.1 163.105C156.105 163.116 156.114 163.124 156.125 163.129C158.477 163.826 160.975 163.865 163.347 163.241C164.525 163.812 165.669 164.452 166.771 165.158C165.842 165.081 164.908 165.158 164.004 165.386C162.409 165.756 160.775 165.94 159.137 165.936C159.075 165.936 159.061 166.034 159.137 166.043C161.957 166.53 164.626 165.247 167.423 165.596C168.462 166.302 169.437 167.098 170.338 167.974C172.083 169.719 173.52 171.747 174.588 173.972C175.763 176.367 176.403 178.888 177.355 181.382C177.36 181.405 177.375 181.425 177.396 181.437C177.416 181.449 177.441 181.453 177.464 181.447C177.487 181.441 177.507 181.426 177.519 181.405C177.531 181.385 177.535 181.36 177.529 181.337C176.693 176.421 174.262 171.035 170.704 167.558Z" fill="#263238"/>
<path d="M162.19 160.858C162.004 160.52 161.759 160.217 161.466 159.965C161.231 159.707 160.949 159.496 160.635 159.343C160.608 159.343 160.59 159.37 160.608 159.388C160.84 159.652 161.162 159.835 161.412 160.094C161.663 160.353 161.859 160.644 162.123 160.894C162.13 160.898 162.137 160.9 162.145 160.9C162.152 160.9 162.16 160.899 162.166 160.895C162.173 160.891 162.179 160.886 162.183 160.88C162.187 160.873 162.189 160.866 162.19 160.858Z" fill="#263238"/>
<path d="M157.537 162.373C157.117 162.271 156.675 162.279 156.25 162.19C155.827 162.089 155.409 161.965 154.999 161.819C154.988 161.817 154.976 161.819 154.966 161.825C154.956 161.83 154.949 161.839 154.944 161.849C154.94 161.86 154.94 161.871 154.943 161.882C154.947 161.893 154.954 161.902 154.963 161.909C155.733 162.383 156.637 162.593 157.537 162.507C157.551 162.502 157.563 162.493 157.571 162.481C157.579 162.469 157.584 162.455 157.584 162.44C157.584 162.426 157.579 162.412 157.571 162.4C157.563 162.388 157.551 162.378 157.537 162.373Z" fill="#263238"/>
<path d="M184.126 172.725L183.665 177.954L182.106 195.604H168.282L166.329 177.954L165.752 172.725H184.126Z" fill="#455A64"/>
<path d="M184.126 172.725L183.665 177.954H166.329L165.752 172.725H184.126Z" fill="#263238"/>
<path d="M185.494 171.299H164.385V175.54H185.494V171.299Z" fill="#455A64"/>
</g>
<defs>
<filter id="filter0_d" x="0" y="0" width="202.874" height="211.573" filterUnits="userSpaceOnUse" color-interpolation-filters="sRGB">
<feFlood flood-opacity="0" result="BackgroundImageFix"/>
<feColorMatrix in="SourceAlpha" type="matrix" values="0 0 0 0 0 0 0 0 0 0 0 0 0 0 0 0 0 0 127 0"/>
<feOffset dy="4"/>
<feGaussianBlur stdDeviation="2"/>
<feColorMatrix type="matrix" values="0 0 0 0 0 0 0 0 0 0 0 0 0 0 0 0 0 0 0.16 0"/>
<feBlend mode="normal" in2="BackgroundImageFix" result="effect1_dropShadow"/>
<feBlend mode="normal" in="SourceGraphic" in2="effect1_dropShadow" result="shape"/>
</filter>
</defs>
</svg>
