<svg width="463" height="484" viewBox="0 0 463 484" fill="none" xmlns="http://www.w3.org/2000/svg">
<g filter="url(#filter0_d)">
<path d="M22.7075 365.607H156.309L160.605 280.833H18.4109L22.7075 365.607Z" fill="#EBEBEB"/>
<path d="M146.516 319.607H28.8708L27.2544 290.177H148.404L146.516 319.607ZM29.8511 318.564H145.536L147.298 291.22H28.339L29.8511 318.564Z" fill="#DBDBDB"/>
<path d="M144.921 353.5H32.2917L30.9568 326.907H146.579L144.921 353.5ZM33.2302 352.457H143.941L145.474 327.95H31.9996L33.2302 352.457Z" fill="#DBDBDB"/>
<path d="M101.214 308.135H76.2795L75.3618 301.033H102.132L101.214 308.135ZM77.2285 307.092H100.307L100.954 302.076H76.5507L77.2285 307.092Z" fill="#DBDBDB"/>
<path d="M101.214 343.76H76.2795L75.3618 336.668H102.132L101.214 343.76ZM77.2285 342.717H100.307L100.954 337.711H76.5507L77.2285 342.717Z" fill="#DBDBDB"/>
<path d="M41.2391 365.607L39.9459 374.837L37.3284 393.4H32.2288V365.607H41.2391Z" fill="#EBEBEB"/>
<path d="M41.2391 365.607L39.9459 374.837H32.2288V365.607H41.2391Z" fill="#DBDBDB"/>
<path d="M137.787 365.607L139.08 374.837L141.688 393.4H146.787V365.607H137.787Z" fill="#EBEBEB"/>
<path d="M137.787 365.607L139.08 374.837H146.787V365.607H137.787Z" fill="#DBDBDB"/>
<path d="M279.513 34.0396H230.269V101.742H279.513V34.0396Z" fill="#EBEBEB"/>
<path d="M334.305 34.0396H285.061V101.742H334.305V34.0396Z" fill="#EBEBEB"/>
<path d="M279.513 107.29H230.269V174.993H279.513V107.29Z" fill="#EBEBEB"/>
<path d="M334.305 107.29H285.061V174.993H334.305V107.29Z" fill="#EBEBEB"/>
<path d="M392.569 34.0396H343.325V101.742H392.569V34.0396Z" fill="#EBEBEB"/>
<path d="M447.361 34.0396H398.117V101.742H447.361V34.0396Z" fill="#EBEBEB"/>
<path d="M392.569 107.29H343.325V174.993H392.569V107.29Z" fill="#EBEBEB"/>
<path d="M447.361 107.29H398.117V174.993H447.361V107.29Z" fill="#EBEBEB"/>
<path d="M402.862 467.776C429.552 467.776 451.188 462.687 451.188 456.409C451.188 450.131 429.552 445.042 402.862 445.042C376.172 445.042 354.536 450.131 354.536 456.409C354.536 462.687 376.172 467.776 402.862 467.776Z" fill="#EBEBEB"/>
<path d="M244.723 447.889C337.302 447.889 412.352 438.453 412.352 426.813C412.352 415.172 337.302 405.736 244.723 405.736C152.143 405.736 77.0928 415.172 77.0928 426.813C77.0928 438.453 152.143 447.889 244.723 447.889Z" fill="#EBEBEB"/>
<path d="M223.052 475.003C315.631 475.003 390.681 465.567 390.681 453.927C390.681 442.287 315.631 432.851 223.052 432.851C130.472 432.851 55.4219 442.287 55.4219 453.927C55.4219 465.567 130.472 475.003 223.052 475.003Z" fill="#EBEBEB"/>
<path d="M12.644 393.399L65.4546 393.138L118.265 393.055L223.886 392.877L329.507 393.055L382.318 393.138L435.129 393.399L382.318 393.649L329.507 393.743L223.886 393.92L118.265 393.743L65.4546 393.649L12.644 393.399Z" fill="#263238"/>
<path d="M223.228 131.791C231.393 75.336 192.247 22.9505 135.791 14.785C79.3361 6.61945 26.9505 45.7661 18.785 102.221C10.6195 158.677 49.7661 211.062 106.221 219.228C162.677 227.393 215.062 188.247 223.228 131.791Z" fill="#FFC857"/>
<path opacity="0.1" d="M224.183 123.714C226.614 69.3406 184.506 23.2913 130.133 20.8603C75.7591 18.4292 29.7098 60.537 27.2788 114.911C24.8477 169.284 66.9555 215.334 121.329 217.765C175.703 220.196 221.752 178.088 224.183 123.714Z" fill="black"/>
<path d="M217.926 124.351C220.701 73.4371 181.677 29.9134 130.763 27.1382C79.8493 24.363 36.3256 63.3871 33.5504 114.301C30.7752 165.215 69.7993 208.739 120.713 211.514C171.627 214.289 215.151 175.265 217.926 124.351Z" fill="white"/>
<path d="M215.971 99.7187C173.923 125.196 104.823 166.983 66.2056 189.895C55.2879 180.688 46.653 169.076 40.9788 155.971L168.709 37.585C180.642 43.8666 191.057 52.6835 199.222 63.4172C207.386 74.1509 213.103 86.5412 215.971 99.7187Z" fill="#EBEBEB"/>
<path d="M217.994 122.505C217.66 132.778 215.597 142.921 211.893 152.509L96.7404 206.977C91.7218 205.318 86.8575 203.225 82.2029 200.72C116.982 180.645 180.545 144.072 217.994 122.505Z" fill="#EBEBEB"/>
<path d="M126.629 33.6948H124.845V47.69H126.629V33.6948Z" fill="#C7C7C7"/>
<path d="M83.6957 44.7094L82.1514 45.6011L89.149 57.7213L90.6934 56.8296L83.6957 44.7094Z" fill="#C7C7C7"/>
<path d="M52.0176 75.7173L51.126 77.2617L63.2462 84.2593L64.1378 82.7149L52.0176 75.7173Z" fill="#C7C7C7"/>
<path d="M54.1083 118.428H40.113V120.211H54.1083V118.428Z" fill="#C7C7C7"/>
<path d="M63.2479 154.365L51.1277 161.362L52.0193 162.907L64.1396 155.909L63.2479 154.365Z" fill="#C7C7C7"/>
<path d="M89.1458 180.906L82.1545 193.03L83.6994 193.921L90.6906 181.797L89.1458 180.906Z" fill="#C7C7C7"/>
<path d="M126.629 190.948H124.845V204.943H126.629V190.948Z" fill="#C7C7C7"/>
<path d="M162.322 180.906L160.778 181.798L167.775 193.918L169.32 193.026L162.322 180.906Z" fill="#C7C7C7"/>
<path d="M188.209 154.345L187.317 155.89L199.437 162.887L200.329 161.343L188.209 154.345Z" fill="#C7C7C7"/>
<path d="M211.361 118.428H197.366V120.211H211.361V118.428Z" fill="#C7C7C7"/>
<path d="M199.445 75.7485L187.325 82.7461L188.217 84.2905L200.337 77.2929L199.445 75.7485Z" fill="#C7C7C7"/>
<path d="M167.78 44.7243L160.789 56.8481L162.334 57.739L169.325 45.6151L167.78 44.7243Z" fill="#C7C7C7"/>
<path d="M127.077 40.0253L130.112 125.55L121.352 125.436L124.7 40.0044L127.077 40.0253Z" fill="#FFC857"/>
<path d="M180.347 89.4886L122.812 126.218L118.63 118.522L179.21 87.4028L180.347 89.4886Z" fill="#263238"/>
<path d="M125.732 122.307C127.385 122.307 128.725 120.967 128.725 119.314C128.725 117.661 127.385 116.321 125.732 116.321C124.079 116.321 122.739 117.661 122.739 119.314C122.739 120.967 124.079 122.307 125.732 122.307Z" fill="#FFC857"/>
<path d="M327.87 307.844C333.241 310.524 338.549 313.308 343.847 316.103C349.145 318.898 354.411 321.766 359.698 324.603C364.986 327.439 370.21 330.37 375.435 333.31L383.257 337.743C385.843 339.255 388.471 340.736 391.026 342.279C388.335 340.944 385.686 339.557 383.006 338.191L375.049 334.02C369.741 331.225 364.485 328.346 359.198 325.52C353.91 322.694 348.696 319.743 343.471 316.802C338.247 313.861 333.032 310.899 327.87 307.844Z" fill="#A6A6A6"/>
<path d="M386.573 307.844C381.786 310.597 376.937 313.256 372.087 315.905C367.238 318.554 362.347 321.119 357.487 323.716C352.628 326.313 347.695 328.816 342.762 331.319L335.358 335.042C332.876 336.241 330.404 337.482 327.901 338.66C330.29 337.273 332.719 335.949 335.118 334.583L342.418 330.599C347.278 327.961 352.169 325.385 357.018 322.788C361.867 320.191 366.821 317.688 371.743 315.196C376.666 312.703 381.578 310.221 386.573 307.844Z" fill="#A6A6A6"/>
<path d="M268.26 307.844C273.631 310.524 278.939 313.308 284.237 316.103C289.534 318.898 294.801 321.766 300.088 324.603C305.376 327.439 310.6 330.37 315.815 333.31L323.646 337.743C326.233 339.255 328.861 340.736 331.416 342.279C328.725 340.944 326.076 339.557 323.396 338.191L315.439 334.02C310.131 331.225 304.875 328.346 299.588 325.52C294.3 322.694 289.076 319.743 283.861 316.802C278.647 313.861 273.422 310.899 268.26 307.844Z" fill="#A6A6A6"/>
<path d="M326.953 307.844C322.166 310.597 317.317 313.256 312.467 315.905C307.618 318.554 302.717 321.119 297.867 323.716C293.018 326.313 288.075 328.816 283.142 331.319L275.738 335.042C273.256 336.241 270.784 337.482 268.281 338.66C270.669 337.273 273.099 335.949 275.498 334.583L282.798 330.599C287.658 327.961 292.549 325.385 297.398 322.788C302.247 320.191 307.201 317.688 312.123 315.196C317.045 312.703 321.968 310.221 326.953 307.844Z" fill="#A6A6A6"/>
<path d="M279.158 299.594L275.998 318.532L254.609 434.071H251.157L266.717 318.532L269.011 299.594H279.158Z" fill="#A6A6A6"/>
<path d="M269.011 299.594H279.158L275.998 318.532H266.717L269.011 299.594Z" fill="#263238"/>
<path d="M346.35 434.071H342.898L321.509 318.532L318.349 299.594H328.496L330.79 318.532L346.35 434.071Z" fill="#A6A6A6"/>
<path d="M328.496 299.594L330.79 318.532H321.509L318.349 299.594H328.496Z" fill="#263238"/>
<path d="M410.528 434.071H407.076L385.676 318.532L382.516 299.594H392.663L394.968 318.532L410.528 434.071Z" fill="#A6A6A6"/>
<path d="M394.968 318.532H385.676L382.516 299.594H392.663L394.968 318.532Z" fill="#263238"/>
<path d="M405.053 308.49H248.279V291.971H306.961L326.692 165.003H399.077L405.053 308.49Z" fill="#A6A6A6"/>
<path d="M405.053 308.489H396.512L390.943 165.002H399.077L405.053 308.489Z" fill="#DBDBDB"/>
<path d="M296.146 201.471C303.738 208.448 315.345 209.814 325.189 208.99C335.232 208.135 346.276 205.507 354.567 199.531C358.309 196.961 361.262 193.401 363.097 189.249C364.943 184.764 364.589 180.405 361.345 176.953C358.738 174.169 353.733 172.657 353.295 169.81C352.857 166.963 354.817 164.366 355.047 161.54C355.422 156.701 352.387 153.583 348.685 151.038C339.915 145 340.561 135.187 334.481 126.948C331.029 122.266 322.019 114.017 309.098 120.357C304.176 122.766 301.36 128.043 300.004 133.268C298.409 139.41 301.318 146.731 299.139 152.738C297.272 157.859 293.601 159.183 291.839 164.523C291.098 166.838 290.963 169.424 294.008 174.159C295.113 175.869 296.417 178.539 295.989 180.833C295.395 184.024 292.047 185.953 291.359 189.291C290.452 193.879 292.798 198.395 296.146 201.471Z" fill="#263238"/>
<path d="M360.251 190.906C364.798 189.425 365.809 182.636 362.337 179.779C360.147 177.964 357.195 177.422 355.037 175.607C351.428 172.635 353.712 169.11 354.859 165.481C357.352 157.608 351.668 153.415 345.766 149.692C341.281 146.856 339.884 143.049 338.851 138.023C338.851 137.95 338.956 137.918 338.976 138.023C339.915 141.693 340.989 145.27 344.014 147.794C346.475 149.88 349.509 151.037 351.918 153.186C355.954 156.784 357.049 161.195 355.37 166.263C354.891 167.723 353.816 169.454 353.764 170.977C353.65 174.554 356.517 175.951 359.239 177.234C361.325 178.277 363.651 179.403 364.714 181.614C366.331 184.962 363.943 190.218 360.397 191.146C360.178 191.229 360.074 190.969 360.251 190.906Z" fill="#263238"/>
<path d="M358.269 194.849C360.856 192.659 363.713 190.604 364.923 187.288C366.706 182.387 363.077 179.467 359.709 176.713C358.249 175.535 356.997 174.325 356.757 172.375C356.413 169.466 358.123 166.702 358.03 163.772C357.79 156.784 350.438 153.677 346.276 149.171C342.115 144.666 340.019 138.743 337.788 132.976C337.788 132.851 337.934 132.778 337.975 132.903C340.812 140.203 344.139 147.023 350.365 152.05C354.713 155.554 359.354 159.35 358.551 165.534C358.353 167.046 357.706 168.506 357.508 170.008C357.185 173.011 358.249 174.753 360.449 176.526C362.649 178.299 364.985 179.926 365.757 182.679C367.269 188.029 362.441 192.492 358.551 195.245C358.499 195.266 358.441 195.268 358.388 195.252C358.334 195.237 358.287 195.203 358.255 195.157C358.222 195.112 358.206 195.057 358.209 195.001C358.211 194.945 358.233 194.891 358.269 194.849Z" fill="#263238"/>
<path d="M289.889 187.768C291.651 184.086 295.103 181.844 293.32 177.276C292.121 174.148 289.941 171.812 290.024 168.256C290.231 165.387 291.412 162.675 293.372 160.57C295.698 157.733 298.378 155.355 299.848 151.883C301.444 148.128 301.767 143.988 302.132 139.984C302.132 139.9 302.268 139.911 302.268 139.984C302.08 145.375 301.684 150.944 298.409 155.501C296.699 157.869 294.467 159.829 292.788 162.217C289.764 166.524 290.473 170.56 292.788 174.94C293.831 176.953 294.874 178.976 294.258 181.302C293.643 183.627 291.839 185.306 290.713 187.35C285.936 196.048 296.887 204.245 304.812 204.37C305.167 204.37 305.219 204.923 304.812 204.923C298.91 205.006 291.933 200.751 289.701 195.266C289.206 194.072 288.967 192.788 288.999 191.497C289.031 190.205 289.334 188.935 289.889 187.768Z" fill="#263238"/>
<path d="M290.837 191.845C290.316 188.383 292.12 186.12 293.309 183.148C295.176 178.465 291.786 174.732 290.702 170.3C290.383 168.841 290.359 167.334 290.629 165.865C290.899 164.397 291.459 162.998 292.277 161.748C294.362 158.244 297.261 155.491 298.774 151.622C300.35 147.468 300.677 142.944 299.712 138.607C299.712 138.524 299.816 138.524 299.837 138.607C300.614 141.516 300.774 144.556 300.305 147.53C299.836 150.504 298.75 153.348 297.115 155.877C295.03 159.099 291.901 161.967 291.098 165.951C290.243 170.122 292.85 173.459 294.06 177.318C294.441 178.45 294.591 179.647 294.501 180.838C294.412 182.03 294.084 183.191 293.538 184.253C292.589 185.834 291.886 187.55 291.453 189.342C291.218 191.934 291.921 194.525 293.434 196.642C297.762 203.348 306.095 206.602 313.488 206.549C313.749 206.549 313.801 206.967 313.488 206.967C310.139 207.037 306.808 206.444 303.688 205.222C300.568 203.999 297.721 202.172 295.311 199.844C293 197.727 291.432 194.922 290.837 191.845Z" fill="#263238"/>
<path d="M244.013 434.468C246.798 435.427 326.618 435.99 329.674 434.092C330.832 433.383 333.063 401.451 332.406 398.333C330.195 387.748 319.631 355.669 319.631 355.669L266.237 355.137L280.482 397.822L280.659 407.207C280.659 407.207 249.958 420.619 246.829 423.069C243.7 425.52 241.229 433.519 244.013 434.468Z" fill="#DD6A57"/>
<path d="M243.763 434.582C246.568 435.541 326.827 436.115 329.903 434.207C331.332 433.32 332.166 416.259 332.656 398.238L280.451 397.717L280.618 407.103C280.618 407.103 249.791 420.66 246.641 423.09C243.492 425.52 240.968 433.623 243.763 434.582Z" fill="#FFC857"/>
<path d="M244.941 431.381C258.394 431.151 312.727 431.475 326.024 432.267C326.128 432.267 326.128 432.34 326.024 432.351C312.686 432.872 258.394 432.111 244.941 431.6C244.66 431.589 244.66 431.381 244.941 431.381Z" fill="#263238"/>
<path d="M278.741 404.131C284.049 403.182 290.515 404.037 294.53 407.844C294.686 407.99 294.477 408.209 294.311 408.157C289.263 406.482 284.05 405.356 278.762 404.799C278.673 404.801 278.587 404.769 278.523 404.708C278.458 404.648 278.42 404.564 278.417 404.475C278.415 404.387 278.447 404.301 278.508 404.236C278.568 404.172 278.652 404.134 278.741 404.131Z" fill="#263238"/>
<path d="M274.903 406.405C280.201 405.456 286.677 406.311 290.692 410.117C290.848 410.263 290.64 410.482 290.462 410.43C285.418 408.759 280.208 407.633 274.924 407.072C274.835 407.075 274.749 407.042 274.685 406.982C274.62 406.921 274.582 406.837 274.58 406.749C274.577 406.66 274.609 406.574 274.67 406.51C274.731 406.445 274.814 406.407 274.903 406.405Z" fill="#263238"/>
<path d="M271.065 408.678C276.363 407.729 282.839 408.594 286.854 412.39C287.011 412.536 286.802 412.755 286.625 412.703C281.58 411.035 276.37 409.913 271.086 409.355C271.006 409.344 270.932 409.305 270.878 409.244C270.824 409.184 270.793 409.106 270.79 409.025C270.788 408.944 270.814 408.865 270.864 408.801C270.915 408.738 270.986 408.694 271.065 408.678Z" fill="#263238"/>
<path d="M267.228 410.962C272.525 410.002 279.001 410.868 283.016 414.664C283.173 414.82 282.964 415.039 282.787 414.977C277.742 413.309 272.533 412.187 267.248 411.629C267.16 411.632 267.074 411.6 267.009 411.539C266.945 411.478 266.907 411.394 266.904 411.306C266.901 411.217 266.934 411.132 266.995 411.067C267.055 411.002 267.139 410.965 267.228 410.962Z" fill="#263238"/>
<path d="M271.368 399.375C275.091 402.316 279.961 403.546 284.32 405.183C284.768 405.361 285.133 404.933 285.154 404.526C285.176 404.526 285.198 404.521 285.218 404.51C285.238 404.5 285.255 404.485 285.267 404.466C285.279 404.447 285.287 404.426 285.289 404.404C285.291 404.382 285.288 404.359 285.279 404.339C283.71 399.64 280.93 395.439 277.218 392.158C275.018 390.281 271.149 388.967 269.052 391.814C266.956 394.661 269.198 397.654 271.368 399.375ZM270.054 395.099C269.157 389.29 275.372 392.377 276.936 393.827C277.937 394.777 278.868 395.798 279.721 396.882C281.464 399.133 283.09 401.472 284.591 403.89C282.505 402.952 280.347 402.201 278.219 401.335C275.685 400.303 270.544 398.311 270.054 395.099Z" fill="#263238"/>
<path d="M303.019 396.403C301.757 393.086 297.679 393.274 295.062 394.525C290.607 396.687 286.799 399.981 284.018 404.078C284.005 404.096 283.996 404.116 283.993 404.138C283.989 404.159 283.99 404.182 283.996 404.203C284.002 404.224 284.013 404.243 284.027 404.259C284.042 404.276 284.06 404.289 284.08 404.297C284.051 404.396 284.045 404.501 284.064 404.602C284.082 404.704 284.123 404.8 284.185 404.883C284.247 404.966 284.327 405.033 284.419 405.08C284.511 405.127 284.613 405.152 284.716 405.152C289.357 404.735 294.373 404.86 298.753 403.066C301.308 401.992 304.187 399.531 303.019 396.403ZM291.672 403.098C289.399 403.358 287.115 403.504 284.852 403.849C286.948 401.924 289.141 400.107 291.422 398.405C292.54 397.598 293.711 396.867 294.926 396.215C296.824 395.245 303.644 393.931 301.183 399.343C299.827 402.253 294.342 402.785 291.672 403.098Z" fill="#263238"/>
<path d="M368.729 276.223C358.937 285.953 345.296 292.096 333.689 298.123C323.719 303.254 315.262 308.26 312.06 315.31C309.255 321.567 332.532 390.198 332.532 390.198L276.029 395.308C276.029 395.308 251.449 328.147 257.602 299.239C258.645 294.494 263.348 288.352 270.116 281.646C294.3 257.765 344.441 226.729 344.441 226.729H375.237C375.237 226.729 388.012 257.035 368.729 276.223Z" fill="#455A64"/>
<path d="M371.764 233.435C371.639 232.037 371.493 230.64 371.358 229.263C371.358 229.128 371.128 229.128 371.149 229.263C372.421 240.485 373.475 252.79 368.187 263.208C363.098 273.22 352.899 279.248 343.816 285.192L327.338 296.142L319.079 301.586C316.815 303.012 314.625 304.554 312.519 306.206C310.598 307.693 308.974 309.529 307.732 311.618C306.461 313.983 305.916 316.672 306.168 319.346C307.513 337.387 325.378 385.171 325.795 386.715C325.826 386.784 325.881 386.84 325.95 386.871C326.019 386.903 326.097 386.908 326.17 386.887C326.242 386.865 326.305 386.817 326.345 386.753C326.386 386.689 326.401 386.612 326.389 386.537C322.51 374.503 312.05 347.722 307.367 323.569C306.773 320.441 306.325 317.197 307.294 314.121C308.151 311.673 309.632 309.49 311.591 307.791C313.501 306.095 315.549 304.56 317.713 303.202L326.056 297.654L342.418 286.84C351.355 280.927 361.429 275.191 367.238 265.847C373.339 256.127 372.755 244.385 371.764 233.435Z" fill="#263238"/>
<path d="M368.729 276.224C358.937 285.954 345.296 292.096 333.689 298.124C313.176 292.743 287.271 286.017 270.074 281.689C294.258 257.807 344.399 226.771 344.399 226.771H375.195C375.195 226.771 388.012 257.035 368.729 276.224Z" fill="#263238"/>
<path d="M139.414 394.036C141.792 395.767 217.827 420.055 221.31 419.148C222.634 418.814 226.816 407.947 231.499 394.672C232.542 391.804 233.585 388.842 234.565 385.818C241.25 366.233 247.882 345.292 247.882 345.292L197.063 328.898L185.133 369.873L182.516 378.872C182.516 378.872 149.238 382.595 145.525 384.003C141.813 385.411 137.036 392.294 139.414 394.036Z" fill="#DD6A57"/>
<path d="M139.143 394.067C141.531 395.819 217.994 420.233 221.529 419.325C223.146 418.908 229.017 402.858 234.857 385.808L185.154 369.779L182.516 378.82C182.516 378.82 149.061 382.564 145.327 383.972C141.594 385.38 136.755 392.326 139.143 394.067Z" fill="#FFC857"/>
<path d="M141.218 391.355C154.129 395.141 205.876 411.597 218.39 416.321C218.495 416.321 218.474 416.426 218.39 416.394C205.5 412.932 153.889 396.048 141.218 391.574C140.874 391.47 140.937 391.282 141.218 391.355Z" fill="#263238"/>
<path d="M181.587 375.4C186.937 376.067 192.861 378.81 195.562 383.638C195.666 383.826 195.405 383.972 195.249 383.868C190.927 380.773 186.288 378.147 181.41 376.036C181.337 376.003 181.278 375.946 181.243 375.873C181.209 375.801 181.202 375.718 181.224 375.641C181.245 375.564 181.294 375.497 181.36 375.453C181.427 375.408 181.508 375.39 181.587 375.4Z" fill="#263238"/>
<path d="M177.25 376.432C182.589 377.099 188.512 379.842 191.224 384.671C191.328 384.848 191.057 384.994 190.911 384.9C186.587 381.802 181.945 379.177 177.062 377.068C176.986 377.036 176.925 376.978 176.89 376.903C176.855 376.829 176.848 376.745 176.871 376.666C176.895 376.587 176.946 376.52 177.016 376.477C177.085 376.434 177.169 376.418 177.25 376.432Z" fill="#263238"/>
<path d="M172.911 377.454C178.25 378.132 184.174 380.875 186.875 385.693C186.989 385.88 186.718 386.026 186.572 385.922C182.246 382.832 177.603 380.21 172.723 378.101C172.653 378.063 172.599 378.003 172.568 377.931C172.538 377.858 172.533 377.777 172.555 377.701C172.577 377.626 172.624 377.56 172.689 377.515C172.754 377.47 172.832 377.448 172.911 377.454Z" fill="#263238"/>
<path d="M168.614 378.487C173.964 379.154 179.887 381.907 182.588 386.725C182.692 386.913 182.432 387.059 182.275 386.955C177.955 383.861 173.316 381.238 168.437 379.133C168.368 379.096 168.314 379.037 168.284 378.966C168.253 378.894 168.248 378.814 168.268 378.739C168.289 378.665 168.334 378.599 168.397 378.553C168.46 378.507 168.536 378.484 168.614 378.487Z" fill="#263238"/>
<path d="M175.967 368.621C178.647 372.532 182.933 375.15 186.604 378.007C186.69 378.066 186.789 378.103 186.892 378.115C186.995 378.127 187.1 378.114 187.197 378.077C187.294 378.04 187.381 377.981 187.45 377.903C187.52 377.826 187.569 377.732 187.595 377.632C187.616 377.636 187.639 377.636 187.66 377.631C187.682 377.626 187.702 377.616 187.719 377.602C187.736 377.588 187.749 377.57 187.759 377.55C187.768 377.53 187.772 377.508 187.772 377.486C187.664 372.534 186.258 367.697 183.694 363.459C182.151 361.019 178.855 358.61 175.998 360.706C173.14 362.802 174.402 366.379 175.967 368.621ZM175.967 364.147C176.843 358.328 181.859 363.105 182.923 364.982C183.595 366.187 184.18 367.438 184.675 368.726C185.666 371.396 186.522 374.114 187.24 376.87C185.519 375.348 183.684 373.982 181.911 372.532C179.815 370.832 175.497 367.401 175.977 364.189L175.967 364.147Z" fill="#263238"/>
<path d="M207.064 375.233C206.845 371.697 202.893 370.707 200.025 371.061C195.121 371.821 190.504 373.856 186.635 376.964C186.617 376.977 186.603 376.995 186.594 377.015C186.584 377.035 186.579 377.056 186.579 377.079C186.579 377.101 186.584 377.122 186.594 377.142C186.603 377.162 186.617 377.18 186.635 377.193C186.567 377.279 186.522 377.379 186.503 377.487C186.484 377.594 186.491 377.704 186.526 377.808C186.56 377.911 186.619 378.004 186.698 378.079C186.777 378.154 186.874 378.208 186.979 378.236C191.536 379.216 196.292 380.833 201.016 380.395C203.769 380.092 207.263 378.58 207.064 375.233ZM194.196 378.247C191.943 377.809 189.722 377.277 187.459 376.933C190.032 375.714 192.667 374.632 195.353 373.689C196.659 373.249 197.993 372.901 199.347 372.646C201.433 372.281 208.347 373.064 204.436 377.464C202.278 379.873 196.876 378.758 194.196 378.247Z" fill="#263238"/>
<path d="M182.933 365.023L239.247 381.594L256.705 317.322C258.228 296.079 262.055 285.776 274.548 281.865C295.823 275.274 347.799 299.594 371.336 283.283C390.452 270.018 375.206 226.677 375.206 226.677H319.934C319.934 226.677 313.259 234.801 312.029 239.577C312.029 239.577 243.586 234.3 228.266 253.718C207.795 279.79 182.933 365.023 182.933 365.023Z" fill="#455A64"/>
<path d="M284.142 280.937C280.848 280.652 277.53 280.909 274.319 281.698C271.268 282.52 268.425 283.977 265.976 285.974C263.603 287.906 261.681 290.333 260.344 293.086C258.78 296.309 258.258 299.959 257.706 303.515C257.403 305.6 257.205 307.686 257.09 309.772C256.976 311.858 256.892 314.757 256.892 316.54C256.892 316.696 257.101 316.707 257.101 316.54C257.132 314.665 257.288 312.794 257.57 310.94C257.8 309.177 258.112 307.425 258.415 305.673C258.916 302.184 259.729 298.746 260.845 295.401C261.921 292.537 263.579 289.926 265.712 287.733C267.846 285.54 270.411 283.812 273.244 282.657C274.96 281.964 276.753 281.481 278.584 281.218C280.437 281.018 282.302 280.959 284.163 281.041C284.163 281.041 284.184 280.937 284.142 280.937Z" fill="#263238"/>
<path d="M363.369 247.649C361.449 247.215 359.59 246.55 357.831 245.668C356.074 244.863 354.479 243.743 353.128 242.362C352.106 241.025 351.422 239.462 351.136 237.804C350.917 236.908 350.792 235.99 350.646 235.083C350.5 234.175 350.239 233.091 350.166 232.09C350.166 231.964 349.947 231.975 349.957 232.09C350.427 235.865 349.363 240.078 352.179 243.29C353.615 244.753 355.362 245.875 357.289 246.575C359.197 247.41 361.237 247.905 363.316 248.035C363.363 248.032 363.406 248.014 363.44 247.983C363.474 247.951 363.496 247.909 363.502 247.864C363.509 247.818 363.499 247.771 363.474 247.732C363.45 247.693 363.412 247.664 363.369 247.649Z" fill="#263238"/>
<path d="M373.714 238.941C373.213 236.904 372.629 234.895 371.962 232.913C371.962 232.788 371.712 232.84 371.764 232.976C374.466 241.243 375.653 249.931 375.268 258.62C375.219 262.73 374.662 266.817 373.61 270.79C372.6 274.586 370.139 277.833 366.758 279.832C363.269 281.653 359.483 282.836 355.578 283.325C351.202 284.01 346.774 284.32 342.345 284.254C333.324 284.17 324.366 282.95 315.428 281.897C306.762 280.854 298.096 279.675 289.409 278.893C282.297 278.257 274.715 278.184 268.134 281.333C261.877 284.347 257.789 290.094 255.12 296.34C252.116 303.4 250.416 311.013 248.383 318.386C245.963 327.178 233.47 375.118 233.282 377.173C233.282 377.371 233.564 377.36 233.584 377.173C234.022 372.667 244.837 333.018 247.267 324.164L250.927 310.899C251.897 307.363 252.857 303.818 254.056 300.355C256.371 293.754 259.771 287.132 265.788 283.19C272.202 279.018 280.19 278.674 287.605 279.216C291.776 279.508 295.948 280.072 300.119 280.562L313.812 282.189C322.551 283.232 331.301 284.452 340.102 284.723C344.503 284.89 348.911 284.712 353.284 284.191C357.24 283.805 361.124 282.879 364.829 281.438C368.107 280.169 370.862 277.832 372.65 274.805C374.486 271.52 375.111 267.714 375.518 264.032C376.383 255.627 375.772 247.136 373.714 238.941Z" fill="#263238"/>
<path d="M333.157 175.295C325.857 199.281 319.746 217.896 312.676 222.224C306.971 225.739 271.514 232.288 264.62 232.653C261.899 232.799 259.636 232.882 258.03 232.945C254.067 233.08 248.32 206.727 251.22 203.619C251.887 202.91 254.515 202.42 258.196 202.066C270.575 200.866 294.863 201.2 296.355 199.865C297.846 198.53 306.012 188.331 317.024 175.014C324.616 165.816 330.696 163.219 333.074 165.91C334.43 167.463 334.565 170.665 333.157 175.295Z" fill="#DD6A57"/>
<path d="M264.61 232.694C260.423 234.415 256.127 235.861 251.751 237.022C248.268 237.783 238.194 239.723 236.943 235.979C236.108 233.424 241.907 231.578 245.984 230.191C248.122 229.461 250.844 227.438 250.312 226.02C249.394 223.6 243.867 225.613 240.186 227.438C233.095 230.963 223.5 237.512 219.558 233.768C218.067 232.35 220.059 230.087 222.895 227.918C218.359 230.358 213.572 232.298 211.851 230.786C210.871 229.931 210.892 228.846 211.549 227.657C210.981 227.867 210.365 227.908 209.774 227.775C209.184 227.642 208.645 227.34 208.222 226.906C206.908 225.332 207.743 223.194 209.432 221.056C209.168 221.009 208.919 220.901 208.705 220.739C208.492 220.578 208.319 220.368 208.201 220.128C205.511 215.362 221.362 203.233 226.639 202.347C242.136 199.719 258.28 202.107 258.28 202.107C263.953 207.3 264.631 232.684 264.61 232.694Z" fill="#DD6A57"/>
<path d="M243.106 217C239.432 217.294 235.87 218.402 232.677 220.243C228.954 222.454 225.909 225.614 222.437 228.158C222.343 228.231 222.437 228.377 222.541 228.304C224.189 226.98 225.972 225.812 227.661 224.55C229.351 223.288 230.946 222.016 232.688 220.91C235.824 218.847 239.392 217.531 243.117 217.062C243.117 217.062 243.148 216.989 243.106 217Z" fill="#263238"/>
<path d="M240.686 210.335C236.548 211.029 232.491 212.144 228.579 213.662C224.407 215.466 220.955 218.647 217.608 221.692C215.605 223.528 213.638 225.405 211.705 227.324C211.622 227.407 211.705 227.543 211.82 227.47C215.22 224.313 218.696 221.261 222.249 218.313C225.57 215.544 229.409 213.463 233.543 212.192C235.9 211.472 238.298 210.93 240.697 210.388L240.686 210.335Z" fill="#263238"/>
<path d="M236.776 204.392C232.834 204.934 229.382 205.434 225.794 207.259C221.049 209.721 216.335 214.09 214.677 215.602C212.852 217.313 211.079 219.086 209.338 220.879C209.265 220.952 209.338 221.077 209.463 221.004C213.447 217.106 217.675 213.466 222.123 210.106C224.223 208.467 226.562 207.158 229.058 206.227C231.58 205.425 234.165 204.838 236.786 204.475C236.786 204.475 236.796 204.392 236.776 204.392Z" fill="#263238"/>
<path d="M335.368 171.291C334.45 178.101 329.267 191.179 329.267 191.179L303.759 188.269C303.759 188.269 317.462 170.728 327.797 164.283C331.947 161.707 336.307 164.408 335.368 171.291Z" fill="#FFC857"/>
<path d="M329.486 187.706C325.722 187.028 321.967 186.402 318.171 185.943C316.273 185.714 314.386 185.516 312.488 185.338C310.59 185.161 308.671 185.192 306.783 184.994C306.679 184.994 306.668 185.151 306.783 185.161C308.671 185.255 310.579 185.62 312.467 185.818C314.354 186.016 316.252 186.235 318.15 186.454C321.925 186.903 325.711 187.341 329.486 187.872C329.58 187.883 329.58 187.726 329.486 187.706Z" fill="#263238"/>
<path d="M325.961 172.678C327.036 171.715 328.328 171.028 329.726 170.675C329.196 171.162 328.603 171.576 327.964 171.906C327.332 172.248 326.659 172.508 325.961 172.678ZM322.666 184.744C321.989 184.531 321.289 184.405 320.58 184.368C321.191 184.749 321.85 185.043 322.541 185.244C323.216 185.461 323.918 185.588 324.627 185.62C324.016 185.239 323.357 184.944 322.666 184.744ZM317.389 173.898C317.171 174.573 317.045 175.275 317.014 175.983C317.391 175.373 317.682 174.713 317.879 174.023C318.097 173.348 318.224 172.646 318.255 171.937C317.884 172.551 317.593 173.21 317.389 173.898Z" fill="white"/>
<path d="M335.368 171.291C335.368 171.667 335.264 172.073 335.181 172.47C335.097 172.866 335.055 173.106 334.972 173.45C333.54 179.501 331.633 185.429 329.268 191.179L328.225 191.064L327.234 190.949L319.214 190.032L318.025 189.906L310.027 188.999L308.984 188.874L306.043 188.54L327.755 164.283C332.344 162.49 336.286 164.408 335.368 171.291Z" fill="#263238"/>
<path d="M310.756 240.119C310.756 240.119 334.993 243.863 379.742 236.365C379.742 236.365 357.633 181.531 342.199 167.536C335.191 161.154 328.965 162.708 323.97 167.536C322.729 168.746 307.857 191.063 307.033 198.499C306.314 205.069 312.143 211.826 312.143 211.826L310.756 240.119Z" fill="#FFC857"/>
<path d="M355.203 214.132C354.716 213.601 354.303 213.009 353.972 212.369C353.622 211.741 353.362 211.067 353.201 210.367C353.687 210.897 354.101 211.49 354.431 212.129C354.774 212.761 355.033 213.434 355.203 214.132ZM333.115 189.572C332.785 188.93 332.367 188.337 331.874 187.81C332.044 188.508 332.304 189.181 332.646 189.812C332.976 190.451 333.39 191.044 333.876 191.574C333.717 190.875 333.461 190.201 333.115 189.572ZM371.493 232.715C371.159 232.081 370.746 231.492 370.262 230.963C370.432 231.661 370.691 232.334 371.034 232.966C371.364 233.605 371.778 234.198 372.264 234.728C372.097 234.026 371.837 233.349 371.493 232.715ZM327.129 220.065C326.799 219.426 326.385 218.833 325.899 218.303C326.069 219.001 326.328 219.674 326.67 220.305C327 220.945 327.414 221.537 327.901 222.068C327.733 221.369 327.474 220.696 327.129 220.065ZM336.995 166.222C336.672 165.579 336.257 164.985 335.764 164.46C336.117 165.858 336.804 167.15 337.766 168.225C337.605 167.523 337.341 166.848 336.984 166.222H336.995ZM339.643 211.545C340.282 211.213 340.874 210.799 341.406 210.315C340.704 210.482 340.027 210.742 339.393 211.086C338.755 211.419 338.163 211.832 337.631 212.317C338.333 212.149 339.009 211.89 339.643 211.545ZM316.096 202.034C316.73 201.701 317.319 201.287 317.848 200.804C317.147 200.964 316.472 201.224 315.845 201.575C315.206 201.906 314.613 202.319 314.083 202.806C314.796 202.641 315.483 202.381 316.127 202.034H316.096ZM327.932 171.906C328.572 171.576 329.164 171.162 329.695 170.675C328.296 171.028 327.004 171.715 325.93 172.678C326.638 172.51 327.322 172.251 327.963 171.906H327.932ZM331.905 235.302C332.555 234.98 333.158 234.573 333.699 234.092C332.301 234.445 331.009 235.132 329.934 236.094C330.633 235.918 331.306 235.651 331.937 235.302H331.905ZM352.638 184.316C353.272 183.983 353.861 183.569 354.39 183.085C352.991 183.438 351.699 184.125 350.625 185.088C351.338 184.923 352.025 184.663 352.669 184.316H352.638ZM360.052 226.969C360.692 226.639 361.284 226.225 361.815 225.739C361.113 225.897 360.439 226.157 359.812 226.51C359.173 226.841 358.58 227.254 358.05 227.741C358.759 227.573 359.442 227.314 360.084 226.969H360.052ZM344.514 222.443C343.838 222.226 343.137 222.1 342.428 222.068C343.038 222.448 343.698 222.743 344.389 222.944C345.065 223.156 345.766 223.282 346.474 223.319C345.874 222.941 345.225 222.647 344.545 222.443H344.514ZM315.188 215.039C314.513 214.821 313.811 214.695 313.103 214.663C313.713 215.044 314.373 215.339 315.063 215.539C315.74 215.752 316.441 215.878 317.149 215.915C316.548 215.537 315.899 215.242 315.22 215.039H315.188ZM345.369 196.111C344.694 195.893 343.992 195.766 343.283 195.735C343.898 196.114 344.561 196.409 345.254 196.611C345.931 196.825 346.631 196.951 347.34 196.987C346.735 196.611 346.082 196.316 345.4 196.111H345.369ZM322.634 184.744C321.958 184.531 321.257 184.405 320.549 184.368C321.159 184.749 321.819 185.044 322.509 185.244C323.185 185.462 323.886 185.588 324.595 185.62C323.994 185.242 323.345 184.947 322.666 184.744H322.634ZM367.988 215.727C367.313 215.509 366.612 215.383 365.903 215.352C366.515 215.728 367.174 216.023 367.863 216.228C368.54 216.439 369.241 216.565 369.949 216.603C369.349 216.225 368.7 215.93 368.02 215.727H367.988ZM359.708 198.885C359.491 199.56 359.365 200.262 359.333 200.971C359.713 200.36 360.008 199.701 360.209 199.01C360.422 198.334 360.548 197.633 360.584 196.924C360.216 197.537 359.932 198.197 359.739 198.885H359.708ZM327.974 204.391C327.757 205.067 327.63 205.768 327.598 206.477C327.979 205.867 328.274 205.207 328.474 204.516C328.688 203.84 328.811 203.139 328.839 202.431C328.477 203.045 328.197 203.704 328.005 204.391H327.974ZM318.181 233.049C317.963 233.724 317.837 234.426 317.806 235.135C318.185 234.52 318.479 233.857 318.682 233.164C318.895 232.487 319.021 231.786 319.057 231.078C318.676 231.692 318.381 232.355 318.181 233.049ZM349.373 235.135C349.156 235.81 349.03 236.512 348.998 237.221C349.375 236.61 349.666 235.95 349.864 235.26C350.082 234.585 350.208 233.883 350.239 233.174C349.87 233.789 349.579 234.448 349.373 235.135ZM341.552 177.35C341.334 178.025 341.207 178.727 341.176 179.435C341.553 178.823 341.848 178.164 342.052 177.475C342.264 176.798 342.39 176.097 342.428 175.389C342.048 175.996 341.754 176.652 341.552 177.339V177.35ZM311.768 190.709C311.55 191.384 311.423 192.086 311.392 192.795C311.771 192.18 312.066 191.517 312.268 190.824C312.487 190.148 312.613 189.447 312.644 188.738C312.265 189.353 311.97 190.016 311.768 190.709Z" fill="white"/>
<path d="M334.263 165.346C334.263 166.597 330.748 175.775 325.304 176.922C323.532 177.308 320.997 167.734 320.997 167.734L320.653 167.067L315.773 157.764L325.398 147.179L326.817 145.74C326.817 145.74 327.985 148.368 329.403 151.664L329.601 152.133C329.685 152.321 329.768 152.488 329.841 152.665C330.06 153.155 330.279 153.708 330.488 154.156C330.696 154.605 330.811 154.917 330.967 155.324C331.124 155.731 331.28 156.127 331.447 156.523C332.586 159.397 333.526 162.344 334.263 165.346Z" fill="#DD6A57"/>
<path d="M329.403 151.706C329.15 154.755 328.237 157.712 326.726 160.372C325.215 163.032 323.143 165.331 320.653 167.109L315.773 157.807L325.398 147.222L326.817 145.783C326.817 145.783 327.985 148.369 329.403 151.706Z" fill="#263238"/>
<path d="M297.741 145.386C299.827 163.698 311.017 164.533 314.97 164.084C318.557 163.667 330.706 161.821 330.539 143.394C330.373 124.966 321.206 120.128 312.957 120.628C304.708 121.129 295.677 127.063 297.741 145.386Z" fill="#DD6A57"/>
<path d="M300.015 141.934C300.432 141.82 300.808 141.653 301.214 141.507C301.657 141.41 302.056 141.172 302.351 140.829C302.425 140.704 302.455 140.558 302.436 140.415C302.417 140.271 302.35 140.138 302.247 140.036C302.013 139.866 301.737 139.762 301.449 139.734C301.161 139.707 300.871 139.757 300.609 139.88C300.036 140.043 299.545 140.415 299.233 140.923C299.173 141.042 299.148 141.176 299.161 141.309C299.174 141.442 299.224 141.569 299.306 141.675C299.387 141.78 299.497 141.861 299.623 141.907C299.748 141.953 299.884 141.962 300.015 141.934Z" fill="#263238"/>
<path d="M312.529 140.235C312.104 140.23 311.679 140.198 311.257 140.141C310.803 140.169 310.353 140.048 309.974 139.797C309.872 139.694 309.807 139.561 309.788 139.418C309.769 139.275 309.798 139.129 309.87 139.004C310.053 138.779 310.292 138.606 310.563 138.503C310.834 138.401 311.128 138.372 311.414 138.42C312.007 138.422 312.577 138.649 313.009 139.056C313.101 139.154 313.164 139.276 313.188 139.408C313.213 139.539 313.199 139.676 313.149 139.8C313.098 139.924 313.013 140.031 312.903 140.108C312.793 140.186 312.663 140.229 312.529 140.235Z" fill="#263238"/>
<path d="M310.204 145.073C310.204 145.073 310.308 145.073 310.318 145.167C310.412 146.419 310.736 147.837 311.914 148.129V148.202C310.506 148.16 310.099 146.273 310.204 145.073Z" fill="#263238"/>
<path d="M311.174 143.645C313.165 143.269 313.77 147.274 311.924 147.618C310.079 147.962 309.505 143.958 311.174 143.645Z" fill="#263238"/>
<path d="M311.987 143.738C312.372 143.905 312.779 144.259 313.207 144.238C313.634 144.217 314.01 143.738 314.25 143.279C314.25 143.279 314.312 143.279 314.323 143.279C314.44 143.636 314.417 144.025 314.258 144.366C314.099 144.706 313.816 144.974 313.467 145.114C312.727 145.333 312.091 144.728 311.778 143.988C311.747 143.894 311.841 143.665 311.987 143.738Z" fill="#263238"/>
<path d="M303.269 145.855C303.269 145.855 303.175 145.928 303.185 145.981C303.425 147.211 303.488 148.661 302.434 149.255C302.434 149.255 302.434 149.328 302.434 149.318C303.79 148.911 303.686 146.982 303.269 145.855Z" fill="#263238"/>
<path d="M301.955 144.729C299.932 144.896 300.422 148.9 302.289 148.765C304.155 148.629 303.644 144.593 301.955 144.729Z" fill="#263238"/>
<path d="M301.151 145.094C300.859 145.355 300.588 145.772 300.213 145.845C299.837 145.918 299.399 145.532 299.066 145.147H299.003C299.076 145.918 299.431 146.69 300.182 146.753C300.932 146.815 301.287 146.085 301.381 145.293C301.402 145.199 301.266 145.001 301.151 145.094Z" fill="#263238"/>
<path d="M306.064 151.466C306.064 151.466 306.064 153.353 306.189 154.229C306.189 154.313 306.418 154.323 306.721 154.302C307.489 154.341 308.253 154.167 308.929 153.799C309.604 153.431 310.165 152.883 310.548 152.217C310.6 152.123 310.475 152.05 310.402 152.123C309.389 153.037 308.11 153.603 306.752 153.739C306.658 153.499 306.856 150.496 306.752 150.506C306.078 150.657 305.428 150.903 304.823 151.236C304.698 147.294 305.219 143.363 305.042 139.442C305.042 139.296 304.823 139.285 304.802 139.442C304.12 143.636 303.861 147.887 304.03 152.133C304.03 152.571 305.741 151.706 306.064 151.466Z" fill="#263238"/>
<path d="M306.783 153.864C307.369 154.522 308.111 155.021 308.942 155.314C309.396 155.46 309.885 155.46 310.339 155.314C311.382 154.99 311.299 154.062 311.059 153.28C310.927 152.865 310.748 152.466 310.527 152.091C309.5 153.066 308.188 153.687 306.783 153.864Z" fill="#263238"/>
<path d="M308.942 155.315C309.396 155.461 309.885 155.461 310.339 155.315C311.382 154.992 311.299 154.063 311.059 153.281C310.529 153.333 310.031 153.561 309.647 153.93C309.263 154.299 309.015 154.787 308.942 155.315Z" fill="#FF9CBD"/>
<path d="M329.34 144.959C327.338 144.959 321.717 139.891 320.82 130.254C320.82 130.254 322.217 138.858 322.968 140.078C323.719 141.298 319.839 137.2 318.984 129.441C316.67 131.385 314.089 132.987 311.319 134.197C307.721 135.5 305.469 135.646 305.187 135.396C304.906 135.146 310.183 133.028 311.517 131.224C311.517 131.224 302.132 136.512 297.606 137.2C297.095 137.283 295.645 126.615 302.267 121.557C308.889 116.499 320.298 120.514 323.49 123.184C323.49 123.184 327.004 123.413 331.186 128.283C335.368 133.154 331.509 144.928 329.34 144.959Z" fill="#263238"/>
<path d="M313.103 150.85C311.569 150.842 310.1 150.226 309.019 149.137C307.939 148.048 307.333 146.576 307.336 145.041C307.339 143.958 307.647 142.897 308.223 141.98C308.799 141.062 309.622 140.325 310.597 139.852C311.571 139.379 312.659 139.189 313.737 139.304C314.814 139.418 315.838 139.833 316.691 140.501C317.544 141.169 318.193 142.063 318.563 143.081C318.934 144.099 319.011 145.201 318.786 146.261C318.561 147.321 318.043 148.296 317.291 149.076C316.539 149.856 315.583 150.409 314.532 150.673C314.065 150.79 313.585 150.85 313.103 150.85ZM308.108 145.041C308.104 146.034 308.394 147.005 308.942 147.833C309.49 148.66 310.272 149.306 311.187 149.69C312.103 150.073 313.112 150.176 314.086 149.985C315.06 149.795 315.956 149.32 316.66 148.62C317.364 147.921 317.844 147.028 318.041 146.055C318.237 145.082 318.141 144.073 317.763 143.155C317.386 142.237 316.744 141.451 315.92 140.898C315.096 140.345 314.127 140.048 313.134 140.046C312.719 140.044 312.305 140.097 311.904 140.203C310.823 140.472 309.862 141.094 309.175 141.97C308.487 142.847 308.112 143.928 308.108 145.041Z" fill="#FFC857"/>
<path d="M300.974 152.383C298.628 152.685 296.375 150.36 295.969 147.168C295.754 145.74 295.995 144.281 296.657 142.997C296.908 142.429 297.3 141.936 297.797 141.564C298.295 141.193 298.879 140.956 299.494 140.876C300.11 140.796 300.735 140.877 301.311 141.109C301.886 141.342 302.392 141.719 302.779 142.204C303.743 143.279 304.348 144.628 304.51 146.063C304.896 149.056 303.467 151.736 301.381 152.32L300.974 152.383ZM297.335 143.362C296.752 144.499 296.541 145.79 296.73 147.054C297.085 149.796 298.951 151.82 300.901 151.569C302.852 151.319 304.113 148.889 303.759 146.146C303.616 144.876 303.084 143.682 302.236 142.726C301.916 142.348 301.511 142.052 301.054 141.862C300.597 141.672 300.102 141.592 299.608 141.631L299.327 141.683C298.895 141.808 298.495 142.021 298.152 142.311C297.809 142.6 297.531 142.958 297.335 143.362Z" fill="#FFC857"/>
<path d="M307.607 145.678L308.024 145.031C307.065 144.406 304.896 143.686 303.717 145.365L304.343 145.824C305.428 144.312 307.524 145.626 307.607 145.678Z" fill="#FFC857"/>
<path d="M333.387 143.843L334.023 143.394C333.814 143.102 331.937 140.506 330.216 140.443C328.496 140.381 318.422 142.696 317.994 142.79L318.161 143.551C321.081 142.883 328.923 141.173 330.196 141.215C331.468 141.257 332.865 143.123 333.387 143.843Z" fill="#FFC857"/>
<path d="M331.301 150.142C331.048 150.293 330.783 150.423 330.508 150.527C330.234 150.631 329.946 150.695 329.653 150.715C329.28 150.756 328.902 150.713 328.547 150.59C328.268 150.495 328.002 150.366 327.755 150.204C327.41 149.966 327.11 149.67 326.868 149.328V144.302C326.868 144.302 329.674 137.857 332.51 138.754C335.347 139.65 334.127 148.421 331.301 150.142Z" fill="#DD6A57"/>
<path d="M332.145 141.277C332.198 141.277 332.218 141.329 332.145 141.35C330.206 142.633 329.486 144.812 329.121 146.992C329.201 146.756 329.331 146.541 329.502 146.361C329.673 146.18 329.882 146.039 330.113 145.947C330.344 145.855 330.592 145.814 330.84 145.827C331.088 145.84 331.331 145.906 331.551 146.022C331.614 146.022 331.551 146.147 331.551 146.147C331.16 146.101 330.764 146.176 330.417 146.362C330.07 146.549 329.788 146.838 329.611 147.19C329.328 147.786 329.111 148.413 328.965 149.057C328.902 149.265 328.537 149.234 328.568 149.004C327.995 146.283 329.319 142.111 332.145 141.277Z" fill="#263238"/>
<path d="M330.935 149.432C330.935 149.601 330.885 149.767 330.791 149.907C330.697 150.048 330.564 150.158 330.407 150.222C330.251 150.287 330.079 150.304 329.913 150.271C329.748 150.238 329.595 150.157 329.476 150.037C329.356 149.917 329.275 149.765 329.242 149.599C329.209 149.433 329.225 149.261 329.29 149.105C329.355 148.949 329.465 148.815 329.605 148.721C329.746 148.627 329.911 148.577 330.08 148.577C330.307 148.577 330.525 148.667 330.685 148.828C330.845 148.988 330.935 149.206 330.935 149.432Z" fill="white"/>
<path d="M332.406 147.816C332.406 147.936 332.371 148.053 332.304 148.152C332.238 148.252 332.143 148.329 332.033 148.375C331.922 148.421 331.801 148.433 331.683 148.41C331.566 148.386 331.458 148.329 331.374 148.244C331.289 148.159 331.231 148.052 331.208 147.934C331.185 147.817 331.197 147.695 331.243 147.585C331.288 147.474 331.366 147.38 331.465 147.313C331.565 147.247 331.682 147.211 331.801 147.211C331.962 147.211 332.116 147.275 332.229 147.389C332.343 147.502 332.406 147.656 332.406 147.816Z" fill="white"/>
<path d="M345.504 170.57C359.208 189.227 377.666 220.722 369.063 227.5C354.921 238.628 314.135 244.384 304.791 245.323C300.755 245.719 293.226 219.251 295.979 215.904C298.732 212.556 341.761 211.023 342.115 208.395C342.313 206.904 339.08 194.004 335.211 177.954C330.737 159.443 341.573 165.262 345.504 170.57Z" fill="#DD6A57"/>
<path d="M303.07 213.881C303.07 213.881 290.733 213.537 282.661 213.693C278.156 213.777 270.45 214.621 267.165 216.196C262.263 218.553 243.252 231.547 246.307 236.229C249.071 240.463 264.036 227.219 264.036 227.219C264.036 227.219 247.746 239.306 252.043 243.738C256.34 248.17 271.169 231.025 271.169 231.025C271.169 231.025 254.765 243.759 259.896 247.711C263.775 250.683 278.115 235.864 278.115 235.864C278.115 235.864 264.099 246.908 267.947 250.131C272.212 253.697 286.301 240.849 286.301 240.849C297.481 247.398 305.49 245.949 311.059 244.239C312.383 243.801 303.07 213.881 303.07 213.881Z" fill="#DD6A57"/>
<path d="M269.334 222.703C267.373 224.049 265.381 225.394 263.546 226.875C261.71 228.356 259.938 230.003 258.248 231.641C256.012 233.796 254.025 236.196 252.325 238.795C255.672 234.394 262.148 228.877 263.984 227.323C265.819 225.769 267.561 224.195 269.386 222.693C269.438 222.735 269.376 222.672 269.334 222.703Z" fill="#263238"/>
<path d="M274.913 229.221C272.494 231.036 270.012 232.767 267.666 234.696C265.319 236.626 263.285 238.649 261.095 240.724C260.918 240.891 261.095 240.922 261.241 240.724C263.515 238.743 265.778 237.074 268.072 235.113C270.367 233.153 272.598 231.098 274.966 229.232L274.913 229.221Z" fill="#263238"/>
<path d="M280.712 233.946C276.927 236.655 273.432 239.748 270.283 243.175C270.127 243.342 270.283 243.363 270.492 243.175C273.902 240.047 276.551 237.565 280.816 234.05C280.868 234.029 280.795 233.894 280.712 233.946Z" fill="#263238"/>
<path d="M312.3 212.724C310.569 212.724 306.909 213.308 302.852 213.402C293.727 213.589 280.837 213.287 276.238 213.402C263.807 213.777 256.069 222.787 252.523 225.916C250.402 227.809 248.471 229.905 246.756 232.173C245.87 233.414 245.004 235.176 246.13 236.595C247.497 238.315 252.805 236.595 258.384 231.787C258.582 231.61 258.457 231.495 258.249 231.652C250.448 237.721 247.403 236.949 246.621 235.823C246.12 235.124 246.621 233.935 247.121 233.039C247.903 231.74 248.842 230.542 249.916 229.472C253.51 225.762 257.472 222.429 261.742 219.523C266.329 216.241 271.754 214.328 277.385 214.006C281.39 213.756 293.675 214.121 302.873 213.85C306.898 213.725 310.548 213.005 312.258 212.87C312.446 212.922 312.425 212.724 312.3 212.724Z" fill="#263238"/>
<path d="M363.014 194.254L336.828 193.587C336.828 193.587 334.012 180.728 333.449 173.397C332.709 163.688 336.14 161.133 344.66 169.497C350.354 175.097 363.014 194.254 363.014 194.254Z" fill="#FFC857"/>
<path d="M337.756 168.225C336.794 167.15 336.107 165.858 335.754 164.46C336.717 165.534 337.404 166.826 337.756 168.225ZM352.669 184.316C353.304 183.983 353.893 183.569 354.421 183.085C353.023 183.438 351.731 184.125 350.657 185.088C351.359 184.92 352.035 184.661 352.669 184.316ZM341.552 177.339C341.334 178.015 341.208 178.716 341.177 179.425C341.554 178.813 341.848 178.154 342.053 177.464C342.265 176.788 342.391 176.087 342.428 175.379C342.048 175.989 341.753 176.649 341.552 177.339Z" fill="white"/>
<path d="M340.03 193.681C339.748 193.618 337.057 193.462 336.901 193.504C336.609 191.981 336.338 190.458 336.025 188.946C335.869 188.185 335.702 187.424 335.524 186.673C335.347 185.922 335.139 184.889 334.972 184.159C334.972 184.045 334.794 184.066 334.805 184.159C334.94 185.14 335.066 185.859 335.191 186.704C335.316 187.549 335.42 188.216 335.566 188.967C335.858 190.552 336.108 192.252 336.484 193.827C337.68 193.878 338.878 193.854 340.071 193.754L340.03 193.681Z" fill="#263238"/>
<path d="M360.418 191.7C356.611 191.345 352.815 191.032 348.998 190.897C347.09 190.834 345.192 190.793 343.283 190.782C341.375 190.772 339.467 190.959 337.569 190.918C337.546 190.918 337.525 190.927 337.51 190.942C337.494 190.958 337.485 190.979 337.485 191.001C337.485 191.023 337.494 191.045 337.51 191.06C337.525 191.076 337.546 191.085 337.569 191.085C339.467 191.022 341.396 191.22 343.294 191.262L349.009 191.408C352.815 191.533 356.622 191.648 360.428 191.867C360.501 191.867 360.501 191.71 360.418 191.7Z" fill="#263238"/>
<path d="M235.014 243.612H292.778V239.128L235.014 237.261V243.612Z" fill="#455A64"/>
<path d="M189.607 243.54H227.724C230.967 243.54 226.264 234.279 214.396 230.723C202.529 227.167 185.864 240.067 189.607 243.54Z" fill="#37474F"/>
<path d="M204.562 243.539C203.942 241.588 203.11 239.71 202.08 237.939C201.569 237.077 200.975 236.267 200.307 235.52C199.615 234.768 198.865 234.07 198.065 233.434C199.098 233.741 200.054 234.264 200.87 234.967C201.701 235.662 202.406 236.495 202.956 237.428C203.513 238.356 203.937 239.356 204.218 240.4C204.505 241.421 204.622 242.481 204.562 243.539Z" fill="#263238"/>
<path d="M200.046 234.727C198.044 236.02 196.042 237.199 194.164 238.544C193.22 239.189 192.334 239.914 191.516 240.713C190.665 241.491 190.011 242.46 189.607 243.539C189.627 242.297 190.089 241.102 190.911 240.171C191.668 239.219 192.56 238.382 193.56 237.689C194.548 237 195.595 236.4 196.688 235.895C197.763 235.388 198.889 234.997 200.046 234.727Z" fill="#263238"/>
<path d="M162.264 225.613H254.901L240.176 156.638H147.528L162.264 225.613Z" fill="#455A64"/>
<path d="M158.843 225.614H251.481L236.745 156.639H144.107L158.843 225.614Z" fill="#37474F"/>
<path d="M208.807 200.886H210.976L207.68 185.41H205.501L208.807 200.886Z" fill="#263238"/>
<path d="M204.52 200.886H206.69L203.394 185.41H201.215L204.52 200.886Z" fill="#263238"/>
<path d="M200.234 200.886H202.403L199.108 185.41H196.928L200.234 200.886Z" fill="#263238"/>
<path d="M195.948 200.886H198.117L194.822 185.41H192.642L195.948 200.886Z" fill="#263238"/>
<path d="M191.651 200.886H193.831L190.525 185.41H188.356L191.651 200.886Z" fill="#263238"/>
<path d="M187.366 200.886H189.545L186.239 185.41H184.07L187.366 200.886Z" fill="#263238"/>
<path d="M183.079 200.886H185.258L181.953 185.41H179.783L183.079 200.886Z" fill="#263238"/>
<path d="M185.04 243.623H230.602V240.087L185.04 238.606V243.623Z" fill="#455A64"/>
<path d="M172.65 243.613H197.116L211.852 204.975H187.386L172.65 243.613Z" fill="#455A64"/>
<path d="M168.625 243.613H193.091L207.816 204.975H183.361L168.625 243.613Z" fill="#263238"/>
<path d="M388.106 243.613H59.6665V249.589H388.106V243.613Z" fill="#37474F"/>
<path d="M380.285 249.589H67.4883V264.585H380.285V249.589Z" fill="#37474F"/>
<path d="M380.285 249.589H67.4883V257.087H380.285V249.589Z" fill="#263238"/>
<path d="M109.891 381.803H81.8591V386.736H109.891V381.803Z" fill="#37474F"/>
<path d="M125.096 453.927H122.072L97.3765 338.659L95.9686 332.089L91.5365 311.399L89.8888 303.682L83.6733 274.732L81.5042 264.585H92.2873L94.0498 274.732L95.1969 281.385L95.9686 285.818L100.401 311.399L101.83 319.638L125.096 453.927Z" fill="#37474F"/>
<path d="M92.2873 264.585L94.0498 274.732H83.6733L81.5042 264.585H92.2873Z" fill="#263238"/>
<path d="M101.829 319.638L97.3762 338.66L95.9683 332.09L91.5361 311.399L89.8884 303.682L95.1966 281.386L95.9683 285.818L100.4 311.399L101.829 319.638Z" fill="#263238"/>
<path d="M110.433 264.585L108.264 274.732L100.401 311.399L95.9685 332.089L69.8656 453.927H66.8413L91.5363 311.399L95.9685 285.818L97.8873 274.732L99.6393 264.585H110.433Z" fill="#37474F"/>
<path d="M110.433 264.585L108.264 274.732H97.8877L99.6397 264.585H110.433Z" fill="#263238"/>
<path d="M365.726 381.803H337.694V386.736H365.726V381.803Z" fill="#37474F"/>
<path d="M380.931 453.927H377.896L353.211 338.659L351.804 332.089L347.361 311.399L345.713 303.682L339.508 274.732L337.329 264.585H348.122L349.874 274.732L351.032 281.385L351.804 285.818L356.225 311.399L357.654 319.638L380.931 453.927Z" fill="#37474F"/>
<path d="M348.122 264.585L349.874 274.732H339.508L337.329 264.585H348.122Z" fill="#263238"/>
<path d="M357.654 319.638L353.212 338.66L351.804 332.09L347.361 311.399L345.713 303.682L351.032 281.386L351.804 285.818L356.225 311.399L357.654 319.638Z" fill="#263238"/>
<path d="M366.258 264.585L364.089 274.732L356.226 311.399L351.804 332.089L325.691 453.927H322.677L347.361 311.399L351.804 285.818L353.712 274.732L355.475 264.585H366.258Z" fill="#37474F"/>
<path d="M366.258 264.585L364.089 274.732H353.712L355.475 264.585H366.258Z" fill="#263238"/>
<path d="M87.4594 237.69L85.3945 237.419L94.3736 169.059L120.841 152.165L129.382 157.754L128.246 159.496L120.821 154.647L96.3133 170.29L87.4594 237.69Z" fill="#263238"/>
<path d="M93.5916 169.673C93.5895 170.023 93.6914 170.365 93.8843 170.656C94.0771 170.948 94.3523 171.175 94.6747 171.31C94.9972 171.445 95.3524 171.481 95.6953 171.413C96.0381 171.345 96.3531 171.177 96.6002 170.93C96.8473 170.683 97.0154 170.368 97.0831 170.025C97.1508 169.682 97.115 169.327 96.9803 169.005C96.8456 168.682 96.6181 168.407 96.3267 168.214C96.0352 168.021 95.6931 167.919 95.3436 167.921C94.8789 167.921 94.4333 168.106 94.1047 168.435C93.7762 168.763 93.5916 169.209 93.5916 169.673Z" fill="#FFC857"/>
<path d="M120.747 155.157C121.715 155.157 122.499 154.373 122.499 153.405C122.499 152.438 121.715 151.653 120.747 151.653C119.78 151.653 118.995 152.438 118.995 153.405C118.995 154.373 119.78 155.157 120.747 155.157Z" fill="#FFC857"/>
<path d="M144.045 160.153L132.375 173.178L126.994 166.525L123.72 162.468L132.459 152.717L136.849 155.543L144.045 160.153Z" fill="#FFC857"/>
<path opacity="0.1" d="M144.045 160.152L132.375 173.178L126.994 166.524L136.849 155.543L144.045 160.152Z" fill="black"/>
<path d="M160.95 166.576L140.614 189.269L127.109 172.041L142.345 155.042L160.95 166.576Z" fill="#FFC857"/>
<path d="M102.393 243.623H72.3064L74.1523 234.174H100.547L102.393 243.623Z" fill="#FFC857"/>
<path d="M406.523 331.349C405.646 337.459 405.961 343.682 407.451 349.672C408.157 352.447 409.096 355.158 410.257 357.775C411.717 361.123 413.239 364.397 412.874 368.068C412.52 368.308 413.74 368.266 413.771 367.912C423.574 362.332 436.151 361.31 443.691 352.185C447.268 347.857 449.072 342.382 449.948 336.907C450.876 330.942 451.126 324.393 449.593 318.459C448.29 313.485 445.422 308.687 440.719 306.247C436.015 303.807 429.581 303.953 424.502 305.528C413.521 308.938 408.077 320.753 406.523 331.349Z" fill="#FFC857"/>
<path d="M401.497 403.911C402.832 399.458 404.167 394.995 405.543 390.552C408.234 381.834 411.029 373.157 414.126 364.574C415.982 359.444 417.936 354.358 419.987 349.317C419.768 346.139 419.378 342.974 418.819 339.838C418.005 336.042 416.806 332.371 415.69 328.648C415.672 328.595 415.676 328.538 415.7 328.488C415.725 328.438 415.768 328.4 415.821 328.382C415.873 328.364 415.931 328.368 415.98 328.392C416.03 328.416 416.068 328.46 416.086 328.512C418.287 333.643 421.165 340.192 421.228 346.241C423.626 340.536 426.181 334.915 428.935 329.378C429.25 324.693 429.107 319.988 428.507 315.33C428.499 315.286 428.508 315.24 428.534 315.203C428.559 315.166 428.598 315.141 428.643 315.132C428.687 315.124 428.733 315.134 428.77 315.159C428.807 315.184 428.832 315.224 428.841 315.268C429.672 319.345 429.995 323.511 429.8 327.668C431.886 323.496 434.118 319.398 436.485 315.351C436.693 314.986 437.204 315.351 437.017 315.716C433.335 322.808 429.915 330.056 426.703 337.387C431.219 333.478 436.435 330.46 442.075 328.491C442.325 328.408 442.502 328.763 442.252 328.856C436.1 331.509 430.471 335.239 425.629 339.869C423.327 345.243 421.134 350.659 419.048 356.117C425.18 350.1 433.575 346.147 441.689 344.03C441.97 343.957 442.043 344.374 441.772 344.458C432.386 347.284 425.086 352.613 417.932 359.058C417.098 361.262 416.285 363.472 415.492 365.69C412.454 374.082 409.569 382.533 406.836 391.042C405.522 395.109 404.219 399.197 402.946 403.275C401.58 407.676 400.506 412.317 398.775 416.561C398.608 416.968 397.878 416.874 397.972 416.384C398.936 412.169 400.112 408.007 401.497 403.911Z" fill="#263238"/>
<path d="M417.755 322.735C419.495 325.411 420.696 328.401 421.29 331.537C421.29 331.62 421.176 331.662 421.144 331.537C420.049 328.582 418.771 325.698 417.317 322.902C417.171 322.735 417.588 322.516 417.755 322.735Z" fill="#263238"/>
<path d="M435.244 343.196C437.969 341.681 440.949 340.677 444.035 340.234C444.119 340.234 444.171 340.339 444.035 340.37C442.617 340.964 441.136 341.413 439.707 341.924C438.279 342.435 436.86 343.144 435.411 343.645C435.357 343.648 435.304 343.634 435.259 343.604C435.215 343.575 435.18 343.532 435.162 343.482C435.143 343.432 435.141 343.377 435.156 343.326C435.171 343.274 435.201 343.229 435.244 343.196Z" fill="#263238"/>
<path d="M440.166 318.626C441.054 317.954 442.004 317.367 443.003 316.874C443.036 316.853 443.076 316.846 443.114 316.855C443.152 316.864 443.185 316.887 443.206 316.92C443.227 316.954 443.233 316.994 443.225 317.032C443.216 317.07 443.192 317.103 443.159 317.124C442.29 317.814 441.358 318.422 440.375 318.938C440.197 319.043 439.989 318.74 440.166 318.626Z" fill="#263238"/>
<path d="M373.475 364.647C380.535 366.733 387.637 368.673 394.697 370.748C395.313 370.936 407.212 348.066 402.925 336.281C398.942 325.373 389.817 317.218 378.94 313.505C373.903 311.795 367.708 310.377 362.379 311.534C357.644 312.577 354.297 316.457 352.764 320.92C350.678 326.969 351.366 334.196 352.503 340.369C353.416 346.171 355.812 351.638 359.459 356.242C363.192 360.695 367.979 363.01 373.475 364.647Z" fill="#FFC857"/>
<path d="M363.244 342.904C367.705 345.085 372.333 346.909 377.083 348.358C380.251 349.212 383.342 350.332 386.323 351.706C383.35 345.052 380.065 338.545 376.603 332.1C372.035 330.776 367.217 328.721 363.807 325.488C363.768 325.455 363.744 325.408 363.74 325.357C363.737 325.306 363.753 325.256 363.786 325.217C363.819 325.178 363.867 325.154 363.917 325.15C363.968 325.147 364.019 325.163 364.057 325.196C367.822 327.855 371.973 329.451 376.134 331.245C375.195 329.514 374.243 327.776 373.276 326.03C373.016 325.551 373.673 325.071 373.996 325.54C377.704 330.929 381.056 336.555 384.028 342.383C384.788 337.275 385.033 332.104 384.758 326.948C384.753 326.933 384.752 326.916 384.754 326.9C384.757 326.883 384.763 326.868 384.773 326.854C384.782 326.841 384.795 326.83 384.81 326.823C384.825 326.815 384.841 326.811 384.857 326.811C384.874 326.811 384.89 326.815 384.905 326.823C384.919 326.83 384.932 326.841 384.942 326.854C384.951 326.868 384.958 326.883 384.96 326.9C384.963 326.916 384.962 326.933 384.956 326.948C385.84 332.571 385.783 338.301 384.789 343.905C387.261 348.848 389.514 353.917 391.547 359.037C392.35 355.961 393.393 352.926 394.092 349.818C395.169 345.385 395.521 340.807 395.135 336.261C395.135 336.125 395.312 336.115 395.333 336.261C396.588 344.691 395.565 353.304 392.371 361.206C393.55 364.335 394.676 367.39 395.708 370.488C401.034 386.328 404.192 402.815 405.094 419.502C405.094 419.582 405.062 419.659 405.005 419.716C404.949 419.773 404.872 419.805 404.792 419.805C404.711 419.805 404.634 419.773 404.578 419.716C404.521 419.659 404.489 419.582 404.489 419.502C402.643 403.05 399.121 386.829 393.977 371.093C391.891 364.94 389.566 358.964 386.98 353.093C382.808 351.862 378.637 350.194 374.559 348.775C370.481 347.357 366.466 345.782 363.088 343.154C362.952 343.05 363.098 342.831 363.244 342.904Z" fill="#263238"/>
<path d="M356.664 336.292C360.981 337.836 365.069 339.984 369.387 341.507C369.585 341.58 369.47 341.903 369.262 341.861C364.704 340.912 360.178 339.504 356.497 336.511C356.33 336.396 356.507 336.209 356.664 336.292Z" fill="#263238"/>
<path d="M391.913 326.906C391.913 326.677 392.205 326.551 392.267 326.781C393.456 330.765 394.27 334.988 393.123 339.055C393.123 339.212 392.82 339.222 392.81 339.055C392.612 334.978 392.831 330.994 391.913 326.906Z" fill="#263238"/>
<path d="M374.059 317.76C375.434 319.737 376.092 322.125 375.926 324.528C375.926 324.674 375.675 324.768 375.634 324.528C375.112 322.254 374.236 320.179 373.548 317.968C373.545 317.907 373.56 317.847 373.593 317.796C373.625 317.745 373.673 317.705 373.729 317.682C373.785 317.659 373.847 317.654 373.907 317.668C373.966 317.682 374.019 317.714 374.059 317.76Z" fill="#263238"/>
<path d="M457.488 374.732C455.402 381.302 450.501 390.375 442.711 390.458C437.663 390.458 432.574 389.906 427.516 389.833C422.093 389.749 416.67 389.76 411.258 390.083C410.82 390.083 411.904 373.856 424.93 365.941C428.58 363.719 433.043 363.021 437.183 362.124C441.924 361.003 446.789 360.495 451.658 360.612C454.651 360.737 457.144 361.373 458.208 364.429C459.271 367.484 458.447 371.614 457.488 374.732Z" fill="#FFC857"/>
<path d="M451.856 366.535C448.727 367.348 445.495 368.276 442.314 369.288C443.143 368.389 444.02 367.536 444.942 366.733C446.308 365.596 447.81 364.647 449.27 363.698C449.395 363.615 449.322 363.375 449.165 363.438C446.084 364.718 443.421 366.834 441.48 369.549C437.527 370.831 433.606 372.239 429.831 373.793C427.222 374.859 424.722 376.172 422.364 377.714C423.121 376.072 424.025 374.501 425.065 373.021C426.796 370.779 429.132 369.528 431.395 367.943C431.441 367.915 431.474 367.87 431.486 367.819C431.499 367.767 431.491 367.712 431.463 367.666C431.435 367.621 431.391 367.588 431.339 367.575C431.287 367.563 431.232 367.571 431.187 367.599C428.813 368.617 426.68 370.122 424.923 372.015C423.167 373.908 421.826 376.148 420.987 378.59C418.307 380.545 415.858 382.798 413.687 385.306C405.063 395.099 398.274 408.124 398.253 421.41C398.253 421.734 398.764 421.817 398.826 421.494C401.035 408.461 406.713 396.264 415.262 386.182C415.877 385.463 416.513 384.785 417.15 384.097C419.511 383.779 421.89 383.601 424.272 383.565C427.046 383.565 429.8 383.972 432.563 384.201C437.11 384.566 442.137 384.629 446.235 382.334C446.276 382.312 446.308 382.275 446.323 382.231C446.339 382.187 446.337 382.139 446.319 382.096C446.301 382.052 446.267 382.018 446.224 381.998C446.182 381.979 446.134 381.976 446.089 381.99C436.954 385.317 427.318 381.104 418.192 383.085C422.118 379.346 426.719 376.387 431.75 374.367L432.594 374.033C438.466 374.732 444.66 376.265 450.375 374.356C450.411 374.347 450.442 374.323 450.46 374.291C450.479 374.259 450.484 374.22 450.474 374.184C450.465 374.148 450.441 374.118 450.409 374.099C450.376 374.08 450.338 374.075 450.302 374.085C444.775 375.462 439.477 373.731 434.034 373.459C439.967 371.144 446.016 369.288 451.971 367.015C452.388 366.827 452.398 366.368 451.856 366.535Z" fill="#263238"/>
<path d="M454.443 372.292C451.609 372.658 448.758 372.874 445.902 372.938C445.839 372.938 445.818 373.042 445.902 373.053C448.777 373.589 451.741 373.403 454.526 372.511C454.641 372.469 454.578 372.271 454.443 372.292Z" fill="#263238"/>
<path d="M435.15 366.66C433.573 367.368 432.141 368.361 430.926 369.591C430.77 369.726 430.978 369.997 431.135 369.872C431.854 369.351 432.595 368.829 433.335 368.381C434.054 367.985 434.75 367.55 435.421 367.077C435.588 366.921 435.379 366.535 435.15 366.66Z" fill="#263238"/>
<path d="M389.16 387.81C389.253 388.019 388.941 388.228 388.815 387.998C388.794 388.032 388.765 388.062 388.731 388.083C388.696 388.105 388.658 388.119 388.617 388.123C383.375 389.377 378.06 390.307 372.703 390.908C368.396 391.283 363.432 391.523 359.657 389.031C354.547 385.641 351.189 376.579 353.952 370.822C357.217 363.991 367.061 367.694 372.004 370.134C379.609 373.845 385.678 380.098 389.16 387.81Z" fill="#FFC857"/>
<path d="M392.977 390.969C390.106 388.19 386.917 385.761 383.476 383.731C380.998 379.81 377.713 376.461 373.84 373.908C373.652 373.782 373.496 374.074 373.663 374.21C376.744 376.677 379.476 379.55 381.787 382.751C377.947 380.655 373.96 378.843 369.856 377.328C368.397 374.609 366.17 372.378 363.453 370.915C363.401 370.915 363.338 370.915 363.391 370.998C365.629 372.702 367.582 374.751 369.178 377.067C366.749 376.16 364.308 375.326 361.878 374.512C361.659 374.439 361.576 374.773 361.785 374.857C366.144 376.556 370.586 378.35 374.904 380.415C369.643 381.254 364.282 381.254 359.021 380.415C358.993 380.411 358.965 380.416 358.941 380.432C358.918 380.447 358.9 380.47 358.893 380.497C358.885 380.524 358.887 380.553 358.899 380.578C358.912 380.603 358.933 380.623 358.958 380.634C364.446 382.261 370.275 382.351 375.811 380.895C378.56 382.227 381.227 383.721 383.799 385.369C381.633 385.189 379.452 385.368 377.344 385.9C373.62 386.764 369.81 387.194 365.987 387.183C365.841 387.183 365.81 387.413 365.987 387.433C372.568 388.57 378.794 385.577 385.322 386.391C387.746 388.038 390.021 389.895 392.121 391.939C396.193 396.011 399.547 400.742 402.039 405.934C404.782 411.524 406.273 417.405 408.494 423.225C408.508 423.278 408.543 423.325 408.591 423.353C408.639 423.381 408.696 423.39 408.75 423.376C408.804 423.362 408.85 423.327 408.878 423.279C408.907 423.231 408.915 423.174 408.901 423.12C406.951 411.649 401.278 399.082 392.977 390.969Z" fill="#263238"/>
<path d="M373.11 375.337C372.676 374.546 372.104 373.84 371.42 373.251C370.871 372.649 370.213 372.157 369.481 371.801C369.418 371.801 369.376 371.864 369.418 371.906C369.96 372.521 370.711 372.948 371.295 373.553C371.879 374.158 372.338 374.836 372.953 375.42C372.969 375.429 372.986 375.434 373.004 375.434C373.022 375.434 373.039 375.43 373.055 375.422C373.071 375.413 373.084 375.401 373.093 375.386C373.103 375.371 373.109 375.354 373.11 375.337Z" fill="#263238"/>
<path d="M362.254 378.872C361.273 378.632 360.241 378.653 359.25 378.445C358.262 378.208 357.287 377.919 356.33 377.579C356.304 377.574 356.278 377.579 356.255 377.592C356.231 377.604 356.214 377.625 356.204 377.649C356.194 377.674 356.193 377.701 356.201 377.726C356.209 377.751 356.225 377.773 356.247 377.788C358.044 378.894 360.153 379.384 362.254 379.185C362.286 379.173 362.313 379.152 362.333 379.124C362.352 379.096 362.363 379.063 362.363 379.029C362.363 378.994 362.352 378.961 362.333 378.933C362.313 378.905 362.286 378.884 362.254 378.872Z" fill="#263238"/>
<path d="M424.293 403.024L423.219 415.226L419.58 456.409H387.324L382.767 415.226L381.421 403.024H424.293Z" fill="#455A64"/>
<path d="M424.293 403.024L423.219 415.226H382.767L381.421 403.024H424.293Z" fill="#263238"/>
<path d="M427.485 399.698H378.231V409.595H427.485V399.698Z" fill="#455A64"/>
</g>
<defs>
<filter id="filter0_d" x="0" y="0" width="462.707" height="483.003" filterUnits="userSpaceOnUse" color-interpolation-filters="sRGB">
<feFlood flood-opacity="0" result="BackgroundImageFix"/>
<feColorMatrix in="SourceAlpha" type="matrix" values="0 0 0 0 0 0 0 0 0 0 0 0 0 0 0 0 0 0 127 0"/>
<feOffset dy="4"/>
<feGaussianBlur stdDeviation="2"/>
<feColorMatrix type="matrix" values="0 0 0 0 0 0 0 0 0 0 0 0 0 0 0 0 0 0 0.16 0"/>
<feBlend mode="normal" in2="BackgroundImageFix" result="effect1_dropShadow"/>
<feBlend mode="normal" in="SourceGraphic" in2="effect1_dropShadow" result="shape"/>
</filter>
</defs>
</svg>
