<svg width="184" height="135" viewBox="0 0 184 135" fill="none" xmlns="http://www.w3.org/2000/svg">
<g filter="url(#filter0_d)">
<path d="M179.791 110.962H4.14819V111.047H179.791V110.962Z" fill="#EBEBEB"/>
<path d="M162.192 116.412H150.557V116.497H162.192V116.412Z" fill="#EBEBEB"/>
<path d="M98.9459 115.379H88.3301V115.464H98.9459V115.379Z" fill="#EBEBEB"/>
<path d="M150.206 113.269H125.654V113.354H150.206V113.269Z" fill="#EBEBEB"/>
<path d="M81.2906 113.838H22.5767V113.923H81.2906V113.838Z" fill="#EBEBEB"/>
<path d="M86.6406 113.838H84.417V113.923H86.6406V113.838Z" fill="#EBEBEB"/>
<path d="M87.4027 95.8543H19.5729C19.0415 95.8534 18.5322 95.6492 18.1568 95.2866C17.7814 94.9239 17.5706 94.4325 17.5706 93.9201V1.97586C17.5752 1.46641 17.7881 0.979282 18.163 0.620299C18.5379 0.261315 19.0445 0.0594665 19.5729 0.0585938H87.4027C87.9347 0.0585938 88.4449 0.262376 88.821 0.625109C89.1972 0.987843 89.4085 1.47982 89.4085 1.9928V93.9201C89.4085 94.433 89.1972 94.925 88.821 95.2878C88.4449 95.6505 87.9347 95.8543 87.4027 95.8543ZM19.5729 0.126342C19.0648 0.127239 18.5779 0.322494 18.2189 0.669249C17.86 1.016 17.6584 1.48593 17.6584 1.97586V93.9201C17.6584 94.41 17.86 94.8799 18.2189 95.2267C18.5779 95.5734 19.0648 95.7687 19.5729 95.7696H87.4027C87.9111 95.7687 88.3984 95.5735 88.7579 95.2269C89.1174 94.8802 89.3198 94.4103 89.3207 93.9201V1.97586C89.3198 1.48561 89.1174 1.0157 88.7579 0.669043C88.3984 0.322384 87.9111 0.127237 87.4027 0.126342H19.5729Z" fill="#EBEBEB"/>
<path d="M163.389 95.8543H95.5561C95.0244 95.8534 94.5148 95.6493 94.1388 95.2868C93.7629 94.9242 93.5512 94.4328 93.5503 93.9201V1.97586C93.5558 1.4661 93.7695 0.978976 94.145 0.620087C94.5204 0.261197 95.0275 0.059457 95.5561 0.0585938H163.389C163.917 0.0603567 164.423 0.2626 164.797 0.621487C165.171 0.980375 165.384 1.46699 165.388 1.97586V93.9201C165.388 94.4319 165.178 94.9228 164.803 95.2854C164.429 95.6479 163.92 95.8525 163.389 95.8543ZM95.5561 0.126342C95.0477 0.127237 94.5604 0.322384 94.2009 0.669043C93.8414 1.0157 93.639 1.48561 93.6381 1.97586V93.9201C93.639 94.4103 93.8414 94.8802 94.2009 95.2269C94.5604 95.5735 95.0477 95.7687 95.5561 95.7696H163.389C163.898 95.7687 164.385 95.5735 164.745 95.2269C165.104 94.8802 165.307 94.4103 165.307 93.9201V1.97586C165.307 1.48561 165.104 1.0157 164.745 0.669043C164.385 0.322384 163.898 0.127237 163.389 0.126342H95.5561Z" fill="#EBEBEB"/>
<path d="M64.8399 56.374L146.071 56.374V6.01355L64.8399 6.01355V56.374Z" fill="#F0F0F0"/>
<path d="M64.8435 6.01367H64.1128V56.3741H64.8435V6.01367Z" fill="#E6E6E6"/>
<path d="M143.964 54.3415V8.0459L66.9477 8.0459V54.3415L143.964 54.3415Z" fill="#FAFAFA"/>
<path d="M100.351 67.5527H90.1465V110.962H100.351V67.5527Z" fill="#E6E6E6"/>
<path d="M97.1091 110.962H100.351V104.97H93.7122L97.1091 110.962Z" fill="#FAFAFA"/>
<path d="M32.1175 67.5527H21.9126V110.962H32.1175V67.5527Z" fill="#E6E6E6"/>
<path d="M100.351 67.5527H29.2932V108.899H100.351V67.5527Z" fill="#FAFAFA"/>
<path d="M32.5321 110.962H29.2932V104.97H35.929L32.5321 110.962Z" fill="#FAFAFA"/>
<path d="M97.8361 82.9619H31.8049V93.3104H97.8361V82.9619Z" fill="#F0F0F0"/>
<path d="M97.8361 95.5186H31.8049V105.867H97.8361V95.5186Z" fill="#F0F0F0"/>
<path d="M36.6597 82.0645H92.9813V82.7114C92.9813 83.0708 92.8333 83.4154 92.5698 83.6696C92.3063 83.9237 91.9489 84.0664 91.5762 84.0664H38.0683C37.6957 84.0664 37.3383 83.9237 37.0747 83.6696C36.8112 83.4154 36.6632 83.0708 36.6632 82.7114V82.0645H36.6597Z" fill="#FAFAFA"/>
<path d="M97.8361 70.4014H31.8049V80.7499H97.8361V70.4014Z" fill="#F0F0F0"/>
<path d="M36.6597 69.5005H92.9813V70.1475C92.9813 70.5068 92.8333 70.8515 92.5698 71.1056C92.3063 71.3597 91.9489 71.5024 91.5762 71.5024H38.0683C37.6957 71.5024 37.3383 71.3597 37.0747 71.1056C36.8112 70.8515 36.6632 70.5068 36.6632 70.1475V69.5005H36.6597Z" fill="#FAFAFA"/>
<path d="M36.6597 94.6211H92.9813V95.2681C92.9813 95.6274 92.8333 95.9721 92.5698 96.2262C92.3063 96.4803 91.9489 96.623 91.5762 96.623H38.0683C37.6957 96.623 37.3383 96.4803 37.0747 96.2262C36.8112 95.9721 36.6632 95.6274 36.6632 95.2681V94.6211H36.6597Z" fill="#FAFAFA"/>
<path d="M144.701 68.1217C147.561 63.7012 156.399 51.6319 171.118 45.2907C171.325 45.2026 171.156 44.9824 170.932 45.0502C170.187 45.279 169.457 45.547 168.743 45.853C168.56 45.9309 168.35 45.7818 168.473 45.6599C169.616 44.5487 170.839 43.5164 172.133 42.5706C172.295 42.452 172.063 42.2725 171.866 42.3673C170.463 43.0347 169.147 43.8602 167.946 44.8266C167.788 44.9553 167.493 44.8266 167.619 44.6708C168.002 44.2304 168.43 43.7629 168.905 43.2819C169.038 43.1498 168.771 42.9974 168.599 43.1092C166.406 44.4964 164.62 46.405 163.414 48.651H163.393C164.377 46.4553 165.637 44.3848 167.145 42.4859C167.254 42.347 166.976 42.2115 166.822 42.3301C165.778 43.1003 164.818 43.9696 163.955 44.9248C163.825 45.0671 163.502 44.9519 163.604 44.7961C163.706 44.6403 163.857 44.4099 163.994 44.2169C164.131 44.0238 163.811 43.9526 163.642 44.0678C162.34 45.0827 161.17 46.2476 160.161 47.5365C160.042 47.6856 159.715 47.5873 159.81 47.4281C160.555 45.9727 161.386 44.56 162.301 43.1973C162.399 43.055 162.114 42.9296 161.967 43.0516C156.891 47.1503 155.25 52.9191 154.829 54.8194C155.546 51.1688 156.72 47.6155 158.324 44.2372C158.398 44.0881 158.096 43.9865 157.973 44.1186C156.576 45.5348 155.405 47.1433 154.498 48.8915C154.418 49.0507 154.063 48.9829 154.116 48.8169C154.351 48.0988 154.618 47.3671 154.92 46.6355C154.983 46.483 154.681 46.3916 154.569 46.5237C152.696 48.624 151.233 51.0341 150.251 53.6372C150.188 53.8032 149.816 53.7456 149.865 53.5762C150.158 52.5046 150.529 51.4542 150.975 50.4327C151.038 50.2871 150.754 50.1922 150.624 50.3142C149.212 51.6249 148.123 53.2247 147.438 54.9956C147.371 55.1582 147.016 55.1107 147.044 54.9414C147.199 54.1013 147.395 53.2477 147.648 52.3568C147.691 52.2077 147.395 52.1298 147.28 52.2619C145.788 54.0041 144.795 56.092 144.399 58.3186C144.367 58.488 144.002 58.471 144.002 58.3017C144.005 57.0407 144.105 55.7816 144.301 54.5349C144.325 54.3824 144.02 54.3215 143.921 54.4604C140.075 59.7515 142.636 67.3325 142.685 67.4646L142.931 68.0371C143.173 68.6163 144.346 68.6705 144.701 68.1217Z" fill="#F5F5F5"/>
<path d="M138.072 68.3758C135.877 65.6659 129.252 58.3424 119.517 55.6799C119.38 55.6392 119.465 55.4698 119.612 55.4902C120.096 55.5613 120.575 55.6609 121.046 55.7883C121.165 55.8221 121.281 55.6934 121.193 55.6257C120.385 54.9997 119.529 54.4335 118.632 53.932C118.52 53.8676 118.632 53.7186 118.776 53.7626C119.717 54.062 120.614 54.4788 121.443 55.0024C121.555 55.0735 121.724 54.9414 121.632 54.8567C121.351 54.5959 121.042 54.3249 120.701 54.0471C120.606 53.9726 120.758 53.8337 120.877 53.8913C122.401 54.6258 123.693 55.7405 124.618 57.1195C123.817 55.7307 122.842 54.4428 121.713 53.285C121.632 53.2003 121.79 53.075 121.899 53.1359C122.63 53.5514 123.313 54.0408 123.937 54.5959C124.031 54.6806 124.221 54.562 124.144 54.4672C124.067 54.3723 123.951 54.2301 123.849 54.1115C123.747 53.9929 123.937 53.9049 124.042 53.9692C124.956 54.529 125.793 55.1983 126.533 55.961C126.617 56.0491 126.814 55.9441 126.747 55.8425C126.151 54.9302 125.501 54.0514 124.801 53.2104C124.727 53.1224 124.889 53.0038 124.994 53.0682C128.531 55.3106 130.095 59.1045 130.537 60.3714C129.762 57.9587 128.701 55.6401 127.376 53.4611C127.32 53.3663 127.495 53.2613 127.587 53.3392C128.594 54.1724 129.466 55.1477 130.172 56.232C130.239 56.3336 130.449 56.232 130.4 56.1372C130.186 55.6697 129.954 55.1955 129.698 54.7212C129.645 54.6264 129.821 54.5281 129.912 54.6061C131.294 55.8671 132.429 57.359 133.26 59.0097C133.319 59.1181 133.544 59.0368 133.499 58.9216C133.215 58.2243 132.886 57.5454 132.512 56.8892C132.459 56.7977 132.624 56.6961 132.719 56.7672C133.74 57.5325 134.567 58.5112 135.139 59.6296C135.195 59.7346 135.413 59.6601 135.378 59.5483C135.202 58.986 134.999 58.4067 134.76 57.8309C134.718 57.7326 134.893 57.6446 134.978 57.7225C136.093 58.7905 136.906 60.1166 137.338 61.5739C137.377 61.6857 137.602 61.6315 137.584 61.513C137.463 60.6465 137.282 59.7887 137.043 58.9453C137.015 58.8437 137.198 58.7658 137.271 58.8471C140.159 62.0583 139.284 67.59 139.267 67.695L139.172 68.1184C139.135 68.2207 139.072 68.3124 138.988 68.3852C138.905 68.4579 138.804 68.5094 138.695 68.535C138.585 68.5606 138.471 68.5594 138.363 68.5316C138.254 68.5038 138.154 68.4503 138.072 68.3758Z" fill="#FAFAFA"/>
<path d="M137.503 63.7418C135.079 60.1376 127.615 50.3108 115.425 45.2297C115.253 45.1585 115.386 44.979 115.572 45.0332C116.187 45.2127 116.791 45.4253 117.382 45.67C117.536 45.7344 117.705 45.6091 117.599 45.5108C116.642 44.6087 115.621 43.7722 114.543 43.0075C114.41 42.9093 114.596 42.7637 114.757 42.8382C115.923 43.3734 117.018 44.0397 118.021 44.8232C118.151 44.9282 118.372 44.8232 118.284 44.6945C117.961 44.3354 117.603 43.956 117.206 43.5665C117.094 43.4547 117.308 43.3293 117.452 43.4208C119.276 44.5396 120.775 46.0892 121.804 47.9227H121.822C120.985 46.1246 119.923 44.4319 118.66 42.8822C118.569 42.7704 118.79 42.6586 118.924 42.7535C119.792 43.3776 120.594 44.0821 121.319 44.8571C121.428 44.9722 121.692 44.8774 121.608 44.7487C121.523 44.6199 121.393 44.437 121.277 44.2778C121.161 44.1186 121.421 44.0576 121.548 44.1525C122.636 44.9727 123.616 45.918 124.467 46.9674C124.565 47.0894 124.818 47.0047 124.766 46.876C124.129 45.6902 123.425 44.539 122.658 43.4276C122.574 43.309 122.802 43.2074 122.928 43.3056C127.165 46.6253 128.616 51.3406 128.992 52.8988C128.337 49.9069 127.311 47.0021 125.935 44.2473C125.876 44.1254 126.118 44.0407 126.227 44.1457C127.388 45.2952 128.367 46.6032 129.132 48.0277C129.202 48.1598 129.483 48.1022 129.445 47.9633C129.237 47.3773 129.006 46.7811 128.742 46.1815C128.689 46.0596 128.935 45.9817 129.037 46.0901C130.61 47.7943 131.853 49.7575 132.705 51.8859C132.761 52.0248 133.056 51.974 133.024 51.8351C132.762 50.959 132.438 50.1012 132.055 49.2675C132.002 49.1455 132.23 49.0642 132.343 49.1658C133.525 50.2272 134.448 51.5289 135.044 52.9767C135.097 53.1088 135.396 53.0681 135.364 52.9326C135.22 52.2551 135.044 51.5336 134.823 50.8155C134.784 50.6936 135.027 50.6292 135.122 50.7342C136.372 52.1494 137.219 53.8537 137.581 55.6798C137.609 55.8187 137.911 55.8018 137.907 55.6798C137.882 54.644 137.777 53.6115 137.595 52.5905C137.57 52.4652 137.819 52.4144 137.904 52.5261C141.153 56.8383 139.189 63.0677 139.151 63.1829L138.961 63.6538C138.764 64.1381 137.805 64.1923 137.503 63.7418Z" fill="#E6E6E6"/>
<path d="M147.968 64.4631C150.171 62.7118 156.659 58.0271 164.672 56.5095C164.784 56.4892 164.753 56.374 164.633 56.3842C164.244 56.416 163.857 56.4692 163.474 56.5434C163.372 56.5603 163.305 56.4722 163.39 56.4316C164.133 56.0319 164.9 55.6745 165.687 55.3612C165.785 55.3205 165.715 55.2189 165.606 55.2426C164.819 55.4217 164.052 55.6747 163.316 55.998C163.218 56.042 163.112 55.9506 163.196 55.8964C163.463 55.7338 163.751 55.5576 164.068 55.3849C164.155 55.3341 164.068 55.2426 163.962 55.2765C162.663 55.7095 161.473 56.4021 160.47 57.3089C161.37 56.3916 162.362 55.5632 163.432 54.8361C163.509 54.7819 163.411 54.6972 163.316 54.7345C162.679 54.9912 162.066 55.2983 161.482 55.6525C161.391 55.7067 161.268 55.622 161.345 55.561C161.422 55.5001 161.538 55.4086 161.64 55.3307C161.742 55.2528 161.612 55.1952 161.517 55.2325C160.711 55.5778 159.943 56 159.223 56.4926C159.139 56.5468 159.009 56.4722 159.079 56.4079C159.656 55.8659 160.326 55.2867 161.075 54.7142C161.148 54.6566 161.043 54.5753 160.952 54.6159C158.667 55.683 156.714 57.3117 155.289 59.338C156.376 57.7178 157.63 56.2083 159.034 54.8327C159.097 54.7684 158.981 54.6972 158.897 54.7447C157.976 55.2628 157.123 55.886 156.357 56.601C156.287 56.6653 156.139 56.601 156.199 56.5298C156.452 56.225 156.719 55.9167 157.007 55.6085C157.067 55.5441 156.947 55.4763 156.863 55.5238C155.585 56.3048 154.435 57.2637 153.448 58.3692C153.385 58.4403 153.227 58.3692 153.283 58.3048C153.639 57.8409 154.021 57.3964 154.428 56.9736C154.488 56.9126 154.376 56.8415 154.291 56.8855C153.379 57.3514 152.564 57.9749 151.885 58.7249C151.822 58.7926 151.667 58.7249 151.716 58.6639C151.959 58.2947 152.226 57.9187 152.517 57.5393C152.567 57.4749 152.447 57.4139 152.366 57.4614C151.341 58.1074 150.473 58.9603 149.823 59.9613C149.774 60.0324 149.609 59.9917 149.644 59.9138C149.906 59.3313 150.206 58.7656 150.543 58.2201C150.585 58.1524 150.459 58.0982 150.389 58.1524C147.554 60.2085 147.188 63.911 147.185 63.9787V64.2633C147.171 64.5478 147.694 64.6799 147.968 64.4631Z" fill="#E6E6E6"/>
<path d="M145.365 66.4008C144.873 62.2783 144.311 50.7341 151.607 41.8828C151.709 41.7575 151.453 41.6389 151.323 41.7541C150.902 42.1268 150.511 42.5299 150.153 42.96C150.062 43.0718 149.802 43.0176 149.833 42.8922C150.026 41.7525 150.331 40.633 150.743 39.5489C150.793 39.4134 150.515 39.3456 150.424 39.471C149.763 40.3636 149.261 41.3561 148.938 42.4078C148.896 42.5501 148.586 42.5264 148.586 42.3807C148.611 41.9438 148.657 41.4729 148.727 40.9817C148.748 40.8429 148.453 40.8022 148.393 40.9343C147.568 42.6935 147.361 44.6642 147.803 46.5472C147.237 44.6976 146.939 42.7813 146.918 40.853C146.918 40.7175 146.63 40.6938 146.567 40.8259C146.238 41.7114 146.035 42.6354 145.962 43.5731C145.962 43.7188 145.636 43.7188 145.611 43.5731C145.586 43.4274 145.572 43.2106 145.555 43.0277C145.537 42.8448 145.26 42.8787 145.204 43.0277C144.825 44.1855 144.643 45.3945 144.663 46.6082C144.663 46.7505 144.353 46.7674 144.311 46.6251C144.014 45.3444 143.803 44.0466 143.679 42.7398C143.679 42.6043 143.38 42.5907 143.328 42.7229C141.954 47.2179 144.171 52.0179 144.993 53.5625C143.399 50.7321 142.156 47.7305 141.29 44.6198C141.255 44.4843 140.971 44.4945 140.939 44.6198C140.747 46.1371 140.836 47.6752 141.202 49.1623C141.234 49.308 140.928 49.352 140.851 49.2131C140.598 48.6068 140.363 47.9835 140.149 47.3467C140.103 47.2146 139.822 47.2281 139.797 47.3467C139.579 49.518 140.089 51.8485 140.802 53.9013C140.855 54.0469 140.538 54.1045 140.472 53.9623C140.059 53.0951 139.707 52.2022 139.418 51.2896C139.379 51.1609 139.109 51.1676 139.067 51.2896C138.797 52.7659 138.935 54.2847 139.467 55.6932C139.516 55.8355 139.218 55.8998 139.14 55.7643C138.754 55.0869 138.382 54.3789 138.048 53.6472C137.988 53.5219 137.721 53.549 137.697 53.6777C137.584 55.5679 138.238 57.4039 139.154 59.0434C139.228 59.1788 138.944 59.2669 138.842 59.1382C138.103 58.2052 137.425 57.2289 136.811 56.2149C136.738 56.0963 136.46 56.1336 136.481 56.2657C136.752 61.3197 143.212 66.3127 143.335 66.4076L143.862 66.7734C144.494 67.1968 145.407 66.9123 145.365 66.4008Z" fill="#E0E0E0"/>
<path d="M152.363 61.1772C152.805 61.1773 153.243 61.2637 153.65 61.4314C154.057 61.599 154.425 61.8444 154.73 62.1527C155.036 62.461 155.274 62.8258 155.43 63.2252C155.586 63.6246 155.656 64.0503 155.637 64.4766C155.201 73.7039 153.034 76.8948 142.369 76.8948C131.704 76.8948 129.536 73.7039 129.104 64.4766C129.084 64.0502 129.154 63.6243 129.31 63.2247C129.465 62.8251 129.703 62.46 130.009 62.1517C130.315 61.8433 130.683 61.5979 131.09 61.4304C131.497 61.2629 131.935 61.1768 132.378 61.1772H152.363Z" fill="#EBEBEB"/>
<path d="M32.3177 62.1325C31.0039 59.4057 26.9465 51.9534 20.1878 48.0409C20.1702 48.0286 20.158 48.0104 20.1535 47.9899C20.149 47.9694 20.1526 47.948 20.1635 47.9299C20.1745 47.9118 20.192 47.8982 20.2127 47.8918C20.2334 47.8854 20.2558 47.8867 20.2756 47.8953C20.6228 48.0358 20.9586 48.2011 21.2803 48.3898C21.2978 48.3993 21.3181 48.4029 21.338 48.4C21.3579 48.3972 21.3762 48.3882 21.3902 48.3743C21.4042 48.3604 21.4131 48.3425 21.4154 48.3232C21.4178 48.304 21.4135 48.2846 21.4032 48.2679C20.8897 47.5957 20.3286 46.9585 19.7241 46.3608C19.6503 46.2897 19.7557 46.1779 19.8435 46.2355C20.5098 46.6653 21.1155 47.1766 21.6456 47.7564C21.7194 47.8343 21.8529 47.7564 21.7967 47.6582C21.621 47.3872 21.4243 47.0993 21.2065 46.8012C21.1433 46.7199 21.2662 46.625 21.347 46.6961C22.4078 47.6403 23.2226 48.8125 23.7252 50.1174C23.2895 48.7932 22.7151 47.5152 22.011 46.3032C21.9583 46.2185 22.0847 46.1338 22.1585 46.2084C22.6487 46.7034 23.0876 47.2434 23.4688 47.8208C23.5285 47.9122 23.6796 47.8377 23.6339 47.7429L23.4688 47.377C23.4231 47.2923 23.5496 47.2144 23.6199 47.2889C24.239 47.9391 24.7777 48.6564 25.2252 49.4264C25.2779 49.5179 25.429 49.4603 25.3903 49.362C25.0777 48.5457 24.6878 47.6683 24.2487 46.7503C24.2417 46.7315 24.2416 46.7108 24.2484 46.6919C24.2552 46.6729 24.2685 46.6568 24.2861 46.6461C24.3037 46.6355 24.3246 46.6309 24.3452 46.6332C24.3659 46.6356 24.3851 46.6446 24.3997 46.6589C26.7323 49.1893 27.484 52.7562 27.6772 53.9249C27.3544 51.7044 26.817 49.5179 26.0718 47.394C26.0666 47.3742 26.0687 47.3534 26.0776 47.3349C26.0866 47.3165 26.1019 47.3016 26.121 47.2928C26.14 47.284 26.1616 47.2819 26.1821 47.2867C26.2026 47.2916 26.2208 47.3031 26.2334 47.3194C26.8892 48.2306 27.4194 49.2201 27.8107 50.2631C27.8493 50.3613 28.0144 50.3207 27.9899 50.219C27.881 49.7753 27.758 49.3248 27.621 48.8641C27.5894 48.7726 27.7299 48.715 27.7861 48.7963C28.6742 50.1589 29.3423 51.6437 29.7674 53.2C29.799 53.3016 29.9676 53.2677 29.9465 53.1627C29.8131 52.5032 29.6442 51.8508 29.4407 51.2082C29.4091 51.1201 29.539 51.0591 29.6023 51.137C30.278 51.9991 30.7743 52.9791 31.0636 54.0231C31.0717 54.0425 31.0865 54.0585 31.1054 54.0687C31.1244 54.0788 31.1463 54.0824 31.1677 54.0789C31.189 54.0753 31.2085 54.0648 31.2228 54.0491C31.2371 54.0334 31.2454 54.0135 31.2463 53.9926C31.1725 53.4743 31.0847 52.9391 30.9688 52.3971C30.9647 52.3767 30.9682 52.3556 30.9788 52.3374C30.9893 52.3193 31.0062 52.3053 31.0264 52.298C31.0466 52.2907 31.0688 52.2905 31.0891 52.2975C31.1094 52.3045 31.1265 52.3182 31.1374 52.3362C31.8431 53.4754 32.2931 54.7448 32.4582 56.0623C32.4582 56.0857 32.4678 56.1081 32.485 56.1246C32.5021 56.1411 32.5253 56.1504 32.5495 56.1504C32.5738 56.1504 32.597 56.1411 32.6141 56.1246C32.6313 56.1081 32.6409 56.0857 32.6409 56.0623C32.6423 55.2848 32.5977 54.5078 32.5074 53.7352C32.5067 53.7152 32.513 53.6956 32.5253 53.6796C32.5376 53.6636 32.5553 53.6521 32.5753 53.647C32.5953 53.6419 32.6165 53.6434 32.6354 53.6515C32.6543 53.6595 32.6699 53.6735 32.6795 53.6911C34.436 56.9566 33.2697 61.6278 33.2486 61.7159L33.1397 62.0546C33.1159 62.1377 33.0665 62.2119 32.9981 62.2674C32.9296 62.3229 32.8454 62.3571 32.7564 62.3655C32.6674 62.374 32.5779 62.3562 32.4996 62.3146C32.4213 62.273 32.3579 62.2096 32.3177 62.1325Z" fill="#F5F5F5"/>
<path d="M35.7639 62.2476C36.5508 60.3811 38.9958 55.2966 43.2077 52.7629C43.2182 52.7539 43.2253 52.7417 43.2279 52.7284C43.2304 52.7151 43.2283 52.7013 43.2219 52.6893C43.2154 52.6772 43.205 52.6676 43.1923 52.6619C43.1795 52.6562 43.1652 52.6548 43.1515 52.6578C42.9333 52.7461 42.723 52.8515 42.5227 52.9729C42.47 53.0067 42.4067 52.939 42.4419 52.8882C42.7539 52.437 43.099 52.008 43.4746 51.6044C43.5203 51.5536 43.4536 51.4756 43.3974 51.5129C42.9781 51.8003 42.6022 52.1423 42.2803 52.5291C42.2381 52.5833 42.1503 52.5291 42.1854 52.458C42.2908 52.2751 42.4103 52.0786 42.5367 51.8787C42.5754 51.8212 42.4946 51.7534 42.4489 51.8008C41.7784 52.4502 41.2806 53.2463 40.9981 54.1212C41.2481 53.2196 41.5918 52.3446 42.0238 51.5095C42.0519 51.4519 41.9711 51.391 41.9255 51.4384C41.6204 51.7716 41.3509 52.1336 41.121 52.519C41.0859 52.5799 40.9911 52.519 41.0156 52.4614L41.1245 52.2141C41.1491 52.1565 41.0683 52.0989 41.0262 52.1497C40.6423 52.5928 40.3145 53.0784 40.0496 53.5962C40.018 53.6605 39.9196 53.6131 39.9407 53.5453C40.1269 52.9864 40.3517 52.3767 40.6222 51.7568C40.6503 51.6958 40.566 51.6382 40.5238 51.689C39.0906 53.3827 38.6726 55.8522 38.5707 56.6651C38.7362 55.138 39.0418 53.6281 39.484 52.1531C39.5016 52.0888 39.4138 52.0447 39.3787 52.0989C38.9729 52.7262 38.6529 53.4013 38.4267 54.1076C38.4056 54.1754 38.3002 54.1415 38.3143 54.0704C38.3775 53.7655 38.4477 53.4539 38.5285 53.1422C38.5285 53.0779 38.4548 53.0338 38.4196 53.0914C37.874 54.031 37.4762 55.0436 37.2393 56.0961C37.2218 56.1706 37.1129 56.1401 37.1234 56.0656C37.1972 55.6354 37.292 55.1848 37.415 54.7106C37.415 54.6496 37.3482 54.6056 37.3131 54.6564C36.8897 55.2532 36.5881 55.9223 36.4243 56.6279C36.4243 56.6956 36.3049 56.6719 36.3119 56.6008C36.3471 56.2417 36.3962 55.8691 36.463 55.4931C36.463 55.4321 36.3857 55.3949 36.3541 55.4491C35.9174 56.2465 35.6532 57.1212 35.5777 58.0201C35.5745 58.0326 35.5671 58.0437 35.5566 58.0516C35.5461 58.0595 35.5331 58.0638 35.5198 58.0638C35.5064 58.0638 35.4935 58.0595 35.483 58.0516C35.4725 58.0437 35.465 58.0326 35.4618 58.0201C35.4488 57.4799 35.4652 56.9394 35.511 56.4009C35.511 56.3366 35.4267 56.3061 35.4021 56.3637C34.3482 58.596 35.1527 61.8817 35.1667 61.9427L35.2405 62.1934C35.2508 62.2498 35.2799 62.3014 35.3233 62.3405C35.3666 62.3796 35.422 62.4041 35.4811 62.4102C35.5401 62.4163 35.5997 62.4037 35.6507 62.3744C35.7017 62.3451 35.7414 62.3006 35.7639 62.2476Z" fill="#F5F5F5"/>
<path d="M35.6234 59.4327C36.737 57.2072 40.162 51.1404 45.758 48.007C45.7747 47.9985 45.7873 47.9839 45.7929 47.9664C45.7985 47.949 45.7967 47.9301 45.7878 47.9139C45.779 47.8977 45.7638 47.8856 45.7457 47.8802C45.7276 47.8748 45.708 47.8766 45.6912 47.8851C45.4058 47.9974 45.1288 48.1287 44.8622 48.278C44.848 48.2867 44.8312 48.2905 44.8145 48.2888C44.7978 48.287 44.7822 48.2798 44.7703 48.2684C44.7585 48.2569 44.751 48.2419 44.7492 48.2258C44.7473 48.2097 44.7513 48.1934 44.7603 48.1798C45.1905 47.6337 45.66 47.1176 46.1655 46.6351C46.1777 46.6221 46.1844 46.6051 46.1844 46.5875C46.1844 46.5699 46.1776 46.553 46.1653 46.5399C46.1531 46.5268 46.1363 46.5186 46.1182 46.5168C46.1 46.515 46.0818 46.5198 46.0671 46.5301C45.5144 46.8749 45.0103 47.2871 44.5671 47.7564C44.5074 47.8207 44.3985 47.7564 44.4477 47.6751C44.5952 47.4515 44.7603 47.2178 44.943 46.9976C44.9502 46.9826 44.9521 46.9657 44.9483 46.9495C44.9445 46.9334 44.9352 46.9189 44.9219 46.9084C44.9086 46.8979 44.8921 46.892 44.8749 46.8916C44.8577 46.8912 44.8409 46.8963 44.8271 46.9061C43.9447 47.6692 43.2611 48.6219 42.8318 49.6872C43.2079 48.606 43.6963 47.5641 44.2896 46.5776C44.3353 46.5064 44.2299 46.4387 44.1702 46.4963C43.7615 46.8938 43.3933 47.3283 43.0706 47.7936C43.0215 47.8682 42.8985 47.7936 42.9371 47.7293C42.9758 47.6649 43.0355 47.5328 43.0882 47.438C43.0972 47.4223 43.0998 47.4039 43.0953 47.3865C43.0909 47.369 43.0797 47.3539 43.0642 47.344C43.0486 47.3342 43.0298 47.3304 43.0115 47.3333C42.9931 47.3363 42.9766 47.3458 42.9653 47.36C42.4497 47.8872 41.9993 48.4704 41.6233 49.0978C41.6154 49.1153 41.6006 49.1291 41.5822 49.1361C41.5637 49.143 41.5431 49.1427 41.525 49.135C41.5068 49.1274 41.4925 49.1131 41.4853 49.0953C41.478 49.0775 41.4784 49.0577 41.4863 49.0402C41.7533 48.3627 42.0765 47.648 42.4594 46.9129C42.4684 46.8972 42.471 46.8788 42.4665 46.8614C42.462 46.844 42.4509 46.8288 42.4354 46.819C42.4198 46.8091 42.401 46.8053 42.3827 46.8083C42.3643 46.8112 42.3478 46.8208 42.3365 46.835C40.3903 48.8844 39.7264 51.7975 39.5508 52.7596C39.8448 50.9415 40.3152 49.1542 40.9559 47.421C40.9593 47.405 40.9571 47.3883 40.9496 47.3735C40.9422 47.3588 40.9299 47.3468 40.9147 47.3395C40.8995 47.3322 40.8822 47.3299 40.8656 47.333C40.8489 47.3361 40.8337 47.3444 40.8224 47.3567C40.2744 48.0981 39.827 48.9041 39.491 49.7549C39.4854 49.7734 39.4725 49.7889 39.455 49.7981C39.4376 49.8073 39.417 49.8094 39.3979 49.8041C39.3788 49.7987 39.3627 49.7862 39.3532 49.7693C39.3436 49.7525 39.3414 49.7327 39.347 49.7143C39.4419 49.3518 39.5472 48.986 39.6667 48.6134C39.6717 48.5969 39.6704 48.5791 39.663 48.5635C39.6555 48.5478 39.6424 48.5353 39.6261 48.5283C39.6098 48.5212 39.5913 48.5201 39.5743 48.5252C39.5572 48.5303 39.5426 48.5411 39.5332 48.5558C38.7866 49.6602 38.2181 50.8674 37.847 52.1363C37.8424 52.1547 37.8303 52.1706 37.8135 52.1804C37.7967 52.1903 37.7765 52.1933 37.7574 52.1888C37.7383 52.1843 37.7219 52.1727 37.7117 52.1565C37.7014 52.1403 37.6983 52.1208 37.703 52.1024C37.8204 51.5666 37.9682 51.0374 38.1456 50.5171C38.154 50.5 38.155 50.4804 38.1484 50.4627C38.1418 50.4449 38.1282 50.4303 38.1105 50.4223C38.0928 50.4142 38.0725 50.4132 38.054 50.4195C38.0356 50.4259 38.0205 50.4391 38.0121 50.4561C37.447 51.1558 37.0271 51.954 36.7756 52.807C36.7719 52.8258 36.7605 52.8425 36.7441 52.8533C36.7276 52.8641 36.7073 52.8682 36.6878 52.8646C36.6682 52.861 36.6509 52.85 36.6397 52.8341C36.6285 52.8183 36.6243 52.7987 36.6281 52.7799C36.6913 52.3565 36.7756 51.9161 36.8775 51.4757C36.8795 51.4592 36.8757 51.4425 36.8667 51.4282C36.8577 51.414 36.844 51.4031 36.8278 51.3973C36.8117 51.3914 36.7939 51.391 36.7775 51.396C36.761 51.401 36.7467 51.4112 36.737 51.4249C36.1414 52.3533 35.7549 53.3919 35.6023 54.4736C35.6023 54.4924 35.5945 54.5105 35.5807 54.5239C35.5669 54.5372 35.5481 54.5447 35.5285 54.5447C35.509 54.5447 35.4902 54.5372 35.4764 54.5239C35.4625 54.5105 35.4548 54.4924 35.4548 54.4736C35.4646 53.8358 35.5115 53.1991 35.5953 52.5665C35.5986 52.5492 35.5952 52.5314 35.5858 52.5164C35.5763 52.5014 35.5614 52.4903 35.544 52.4853C35.5265 52.4802 35.5078 52.4816 35.4913 52.4891C35.4748 52.4966 35.4618 52.5096 35.4548 52.5258C33.9618 55.1883 34.8646 59.033 34.8822 59.1042L34.97 59.3955C34.9918 59.4604 35.0333 59.5174 35.0893 59.5591C35.1452 59.6009 35.2129 59.6253 35.2835 59.6294C35.3541 59.6334 35.4243 59.6168 35.4849 59.5817C35.5456 59.5466 35.5938 59.4947 35.6234 59.4327Z" fill="#E6E6E6"/>
<path d="M30.8177 59.8766C29.806 58.796 26.8271 55.9032 23.1492 54.9648C23.0965 54.9648 23.114 54.8835 23.1492 54.8869C23.3291 54.9103 23.5074 54.9442 23.6831 54.9886C23.6926 54.9917 23.703 54.9914 23.7123 54.9878C23.7216 54.9842 23.7293 54.9775 23.7339 54.9689C23.7386 54.9603 23.7399 54.9504 23.7377 54.941C23.7355 54.9316 23.7298 54.9232 23.7217 54.9174C23.3868 54.6739 23.0347 54.4532 22.6679 54.2569C22.6598 54.2511 22.6542 54.2427 22.6519 54.2333C22.6497 54.2239 22.651 54.214 22.6557 54.2054C22.6604 54.1968 22.668 54.1901 22.6774 54.1865C22.6867 54.1829 22.697 54.1826 22.7065 54.1857C23.0762 54.2982 23.4302 54.454 23.7604 54.6498C23.8061 54.6769 23.8552 54.6227 23.8166 54.5888C23.6936 54.4872 23.5602 54.3788 23.4161 54.2704C23.374 54.2399 23.4161 54.1824 23.4653 54.2061C24.0932 54.5025 24.6414 54.9349 25.0672 55.4696C24.6668 54.9198 24.2114 54.4093 23.7077 53.9452C23.6988 53.9385 23.6931 53.9286 23.6918 53.9179C23.6905 53.9071 23.6937 53.8962 23.7007 53.8877C23.7077 53.8791 23.7179 53.8736 23.7291 53.8723C23.7403 53.8711 23.7515 53.8741 23.7604 53.8809C24.0584 54.0447 24.3406 54.234 24.6035 54.4466C24.6421 54.4804 24.7018 54.4296 24.6667 54.3924L24.5297 54.2501C24.4946 54.2162 24.5297 54.1654 24.5859 54.1891C24.966 54.4092 25.3194 54.6694 25.6398 54.9648C25.6784 54.9987 25.7381 54.9648 25.7065 54.914C25.4395 54.5753 25.1339 54.2196 24.7897 53.8639C24.7545 53.8301 24.7897 53.7793 24.8459 53.803C26.2932 54.6668 27.1749 56.1979 27.4384 56.7094C26.9533 55.7339 26.3772 54.803 25.7171 53.9283C25.7134 53.9243 25.7105 53.9196 25.7087 53.9146C25.7069 53.9095 25.7061 53.9042 25.7064 53.8988C25.7068 53.8935 25.7082 53.8882 25.7106 53.8834C25.713 53.8786 25.7164 53.8743 25.7206 53.8707C25.7247 53.8672 25.7296 53.8644 25.7348 53.8627C25.7401 53.8609 25.7456 53.8602 25.7512 53.8605C25.7567 53.8608 25.7621 53.8622 25.7671 53.8645C25.7721 53.8668 25.7766 53.8701 25.7803 53.8741C26.2296 54.2049 26.6333 54.5897 26.9817 55.019C27.0133 55.0597 27.0836 55.019 27.0555 54.9784C26.9395 54.7887 26.8166 54.599 26.6831 54.4093C26.6793 54.4006 26.6785 54.391 26.6807 54.3819C26.683 54.3727 26.6883 54.3645 26.6957 54.3585C26.7032 54.3524 26.7125 54.3488 26.7222 54.3482C26.7319 54.3476 26.7416 54.35 26.7498 54.3551C27.359 54.8636 27.8869 55.456 28.3166 56.1132C28.3482 56.1538 28.4184 56.1132 28.3938 56.0725C28.2393 55.8049 28.0672 55.5272 27.8669 55.2494C27.8388 55.2121 27.8915 55.1681 27.9302 55.1952C28.368 55.5049 28.743 55.8896 29.0367 56.33C29.043 56.3315 29.0497 56.3317 29.0561 56.3304C29.0625 56.329 29.0685 56.3263 29.0736 56.3224C29.0787 56.3184 29.0828 56.3134 29.0855 56.3076C29.0883 56.3019 29.0896 56.2956 29.0894 56.2893C28.977 56.0624 28.854 55.8286 28.7381 55.6118C28.7135 55.5746 28.7697 55.5339 28.8049 55.5644C29.3012 55.9945 29.6996 56.5194 29.9746 57.1057C29.9992 57.1531 30.073 57.126 30.0554 57.0786C29.9383 56.7238 29.8011 56.3755 29.6444 56.0353C29.6398 56.0263 29.6387 56.016 29.6414 56.0064C29.6441 55.9967 29.6504 55.9884 29.6591 55.9829C29.6678 55.9775 29.6783 55.9753 29.6885 55.9768C29.6988 55.9784 29.7081 55.9835 29.7147 55.9912C31.018 57.2615 31.1831 59.5446 31.1866 59.5853V59.7614C31.1829 59.8011 31.1671 59.8388 31.1413 59.8699C31.1156 59.901 31.0809 59.9242 31.0416 59.9364C31.0023 59.9487 30.9601 59.9496 30.9203 59.9389C30.8805 59.9283 30.8448 59.9066 30.8177 59.8766Z" fill="#E6E6E6"/>
<path d="M32.0226 61.0723C32.2474 58.525 32.5074 51.4013 29.1561 45.9374C29.1069 45.8595 29.2264 45.7884 29.2861 45.8595C29.4839 46.0949 29.6635 46.344 29.8236 46.6047C29.8323 46.6195 29.8461 46.631 29.8626 46.6372C29.879 46.6434 29.8972 46.6439 29.914 46.6388C29.9309 46.6336 29.9454 46.6231 29.9551 46.6089C29.9649 46.5947 29.9693 46.5777 29.9676 46.5607C29.8813 45.8643 29.7428 45.1749 29.5531 44.4978C29.5285 44.4165 29.6585 44.3724 29.7006 44.4504C30.0102 45.0226 30.2394 45.632 30.3821 46.2626C30.3833 46.2724 30.3864 46.2819 30.3914 46.2905C30.3963 46.2991 30.403 46.3067 30.411 46.3128C30.419 46.319 30.4281 46.3235 30.4379 46.3262C30.4478 46.329 30.458 46.3298 30.4682 46.3287C30.4783 46.3276 30.4882 46.3245 30.4971 46.3198C30.506 46.315 30.5139 46.3086 30.5203 46.3009C30.5266 46.2931 30.5313 46.2843 30.5342 46.2748C30.537 46.2654 30.5378 46.2555 30.5367 46.2457C30.5367 45.9747 30.5156 45.6868 30.4735 45.3819C30.4738 45.3642 30.4803 45.3471 30.4921 45.3334C30.5038 45.3198 30.52 45.3104 30.538 45.3068C30.5561 45.3033 30.5748 45.3058 30.5912 45.3139C30.6075 45.322 30.6205 45.3352 30.628 45.3514C31.0077 46.4684 31.1005 47.6575 30.8985 48.8167C31.1596 47.6626 31.295 46.4853 31.3025 45.304C31.3025 45.2842 31.3106 45.2653 31.3251 45.2513C31.3396 45.2373 31.3593 45.2295 31.3798 45.2295C31.4003 45.2295 31.4199 45.2373 31.4344 45.2513C31.4489 45.2653 31.4571 45.2842 31.4571 45.304C31.6079 45.8582 31.7009 46.4256 31.7346 46.9977C31.7384 47.0152 31.7484 47.0308 31.7627 47.0421C31.7771 47.0533 31.7951 47.0594 31.8136 47.0594C31.8321 47.0594 31.8501 47.0533 31.8645 47.0421C31.8789 47.0308 31.8888 47.0152 31.8926 46.9977C31.8926 46.8859 31.9102 46.7741 31.9172 46.6589C31.9211 46.6415 31.931 46.6258 31.9454 46.6146C31.9598 46.6033 31.9778 46.5972 31.9963 46.5972C32.0148 46.5972 32.0328 46.6033 32.0471 46.6146C32.0615 46.6258 32.0715 46.6415 32.0753 46.6589C32.2501 47.3828 32.3338 48.1243 32.3247 48.8675C32.3286 48.885 32.3385 48.9007 32.3529 48.9119C32.3673 48.9231 32.3852 48.9293 32.4038 48.9293C32.4223 48.9293 32.4402 48.9231 32.4546 48.9119C32.469 48.9007 32.479 48.885 32.4828 48.8675C32.6093 48.1358 32.7217 47.3229 32.7814 46.4726C32.7852 46.4552 32.7952 46.4395 32.8096 46.4283C32.824 46.417 32.8419 46.4109 32.8604 46.4109C32.879 46.4109 32.8969 46.417 32.9113 46.4283C32.9257 46.4395 32.9356 46.4552 32.9395 46.4726C33.5683 49.2469 32.5496 52.2075 32.1737 53.1661C32.9194 51.3825 33.4887 49.535 33.8739 47.6481C33.8739 47.6283 33.882 47.6093 33.8965 47.5954C33.911 47.5814 33.9307 47.5735 33.9512 47.5735C33.9717 47.5735 33.9913 47.5814 34.0058 47.5954C34.0203 47.6093 34.0285 47.6283 34.0285 47.6481C34.1163 48.584 34.0761 49.527 33.909 50.4528C33.909 50.5409 34.0355 50.568 34.0601 50.4833C34.176 50.1073 34.2849 49.7245 34.3833 49.3316C34.3833 49.3118 34.3914 49.2929 34.4059 49.2789C34.4204 49.2649 34.44 49.2571 34.4605 49.2571C34.481 49.2571 34.5007 49.2649 34.5152 49.2789C34.5297 49.2929 34.5378 49.3118 34.5378 49.3316C34.6013 50.6946 34.446 52.0589 34.0776 53.3762C34.0531 53.4676 34.1971 53.5015 34.2287 53.4168C34.4182 52.8763 34.5788 52.3269 34.71 51.7705C34.715 51.7546 34.7252 51.7406 34.7392 51.7306C34.7531 51.7207 34.7699 51.7153 34.7872 51.7153C34.8046 51.7153 34.8214 51.7207 34.8353 51.7306C34.8492 51.7406 34.8595 51.7546 34.8645 51.7705C34.9888 52.6766 34.9267 53.5975 34.6819 54.4805C34.6763 54.4998 34.6789 54.5204 34.6891 54.5379C34.6993 54.5554 34.7163 54.5682 34.7363 54.5736C34.7563 54.579 34.7778 54.5765 34.7959 54.5666C34.814 54.5568 34.8273 54.5404 34.8329 54.5211C35.0086 54.1044 35.1842 53.6675 35.3352 53.2169C35.3419 53.2012 35.3537 53.188 35.3689 53.1794C35.384 53.1707 35.4017 53.167 35.4192 53.169C35.4367 53.1709 35.4531 53.1783 35.4658 53.19C35.4786 53.2017 35.487 53.2171 35.4898 53.2339C35.5116 54.3715 35.2829 55.5006 34.8189 56.5468C34.7837 56.6281 34.9172 56.6856 34.9629 56.6043C35.3074 56.0206 35.6182 55.419 35.8938 54.8023C35.8989 54.7839 35.9111 54.768 35.928 54.7581C35.9448 54.7481 35.9649 54.7447 35.9843 54.7486C36.0036 54.7525 36.0207 54.7634 36.0319 54.7791C36.0432 54.7947 36.0478 54.8139 36.0448 54.8327C35.9219 57.9525 32.957 61.0351 32.8833 61.0927L32.6444 61.3162C32.5924 61.3617 32.5282 61.392 32.4591 61.4038C32.3901 61.4156 32.3189 61.4083 32.254 61.3828C32.189 61.3573 32.1328 61.3147 32.0919 61.2597C32.0509 61.2048 32.0269 61.1398 32.0226 61.0723Z" fill="#E0E0E0"/>
<path d="M27.3751 57.8477C27.1023 57.8474 26.8322 57.9005 26.5813 58.0036C26.3303 58.1067 26.1036 58.2578 25.9148 58.4477C25.7261 58.6377 25.5792 58.8625 25.483 59.1087C25.3868 59.3549 25.3433 59.6173 25.3552 59.8801C25.6222 65.5743 26.9606 67.5424 33.5437 67.5424C40.1268 67.5424 41.4616 65.5743 41.7286 59.8801C41.7405 59.6173 41.697 59.3549 41.6008 59.1087C41.5046 58.8625 41.3577 58.6377 41.169 58.4477C40.9802 58.2578 40.7535 58.1067 40.5025 58.0036C40.2516 57.9005 39.9815 57.8474 39.7087 57.8477H27.3751Z" fill="#EBEBEB"/>
<path d="M117.255 78.6191H160.551V76.8916H117.255V78.6191Z" fill="#F5F5F5"/>
<path d="M117.259 76.895H108.188V78.6226H117.259V76.895Z" fill="#E0E0E0"/>
<path d="M112.724 78.6226H113.103L117.491 110.962H117.111L112.724 78.6226Z" fill="#E0E0E0"/>
<path d="M112.723 78.6226H112.344L107.957 110.962H108.336L112.723 78.6226Z" fill="#E0E0E0"/>
<path d="M156.02 78.6226H156.399L160.783 110.962H160.404L156.02 78.6226Z" fill="#E0E0E0"/>
<path d="M156.02 78.6226H155.64L151.253 110.962H151.632L156.02 78.6226Z" fill="#E0E0E0"/>
<path d="M91.9697 126.259C129.586 126.259 160.081 124.543 160.081 122.425C160.081 120.307 129.586 118.59 91.9697 118.59C54.3531 118.59 23.8589 120.307 23.8589 122.425C23.8589 124.543 54.3531 126.259 91.9697 126.259Z" fill="#F5F5F5"/>
<path d="M143.837 30.0949C142.959 28.9635 140.187 27.9778 138.758 29.6444C136.85 31.8699 139.158 32.7134 138.248 34.7492C137.338 36.7851 137.665 37.7166 138.16 38.6786C138.656 39.6406 137.869 39.7524 137.809 41.3885C137.749 43.0246 139.478 43.421 140.855 43.1398C140.092 42.3743 141.469 42.2896 142.727 41.2192C143.985 40.1487 146.472 32.3238 143.837 30.0949Z" fill="#263238"/>
<path d="M142.172 120.989C141.139 121.091 140.121 121.303 139.137 121.622C138.108 121.994 137.035 122.24 135.944 122.354C134.735 122.507 134.788 123.601 136.91 123.601C139.031 123.601 140.398 123.387 141.262 123.387C142.126 123.387 142.667 123.414 142.737 122.852C142.808 122.29 142.906 120.884 142.172 120.989Z" fill="#263238"/>
<path d="M137.335 62.126C137.335 62.126 138.329 83.2058 138.519 91.742C138.719 100.624 140.124 121.361 140.124 121.361H142.446C142.446 121.361 144.838 104.126 143.739 91.742C145.4 82.2336 146.521 62.126 146.521 62.126H137.335Z" fill="#FFC3BD"/>
<path d="M140.124 121.158C138.902 121.754 137.528 121.981 136.991 122.249C136.453 122.517 142.446 121.893 142.446 121.361L140.124 121.158Z" fill="#FFC3BD"/>
<path d="M157.39 119.813C156.75 120.22 156.452 120.047 155.886 120.674C155.321 121.3 154.734 122.235 153.698 122.547C152.855 122.801 152.809 123.621 154.334 123.587C155.858 123.553 157.646 122.435 158.145 122.083C158.644 121.731 158.893 121.551 158.644 121.04C158.394 120.528 157.832 119.536 157.39 119.813Z" fill="#263238"/>
<path d="M155.865 120.819C155.865 121.07 154.913 122.011 155.514 121.91C156.592 121.724 157.948 120.555 157.744 120.091L155.865 120.819Z" fill="#FFC3BD"/>
<path d="M140.416 62.126C140.416 62.126 145.952 84.2017 148.214 92.4568C150.592 101.125 155.591 120.271 155.883 120.857L157.73 120.091C157.73 120.091 156.466 98.7268 153.283 91.0273C153.283 81.3867 149.124 62.126 149.124 62.126H140.416Z" fill="#FFC3BD"/>
<path d="M138.301 48.9796C138.196 49.9687 138.034 50.8968 137.862 51.8487C137.69 52.8006 137.465 53.7321 137.226 54.6704C136.756 56.5909 136.059 58.4528 135.146 60.219L135.125 60.2596C135.041 60.4216 134.921 60.5639 134.774 60.6763C134.448 60.9032 134.073 61.0582 133.678 61.1302C133.355 61.1895 133.024 61.2009 132.698 61.164C132.176 61.1018 131.665 60.9696 131.18 60.7711C130.356 60.4279 129.573 59.9997 128.844 59.4941C128.142 59.0097 127.481 58.4982 126.845 57.9697C126.21 57.4413 125.612 56.8824 125.029 56.276C124.902 56.1481 124.829 55.9788 124.824 55.8014C124.819 55.624 124.884 55.4514 125.004 55.3173C125.125 55.1833 125.293 55.0975 125.476 55.0768C125.658 55.0562 125.842 55.1021 125.992 55.2056C126.638 55.6392 127.306 56.0829 127.977 56.4894C128.648 56.8959 129.322 57.3024 130.004 57.6479C130.647 57.9941 131.324 58.281 132.023 58.5049C132.3 58.5968 132.589 58.6482 132.881 58.6574C132.96 58.6596 133.039 58.6505 133.116 58.6303C133.155 58.6303 133.144 58.6032 133.116 58.6099L132.73 59.0639C133.088 58.2624 133.398 57.4412 133.657 56.6046C133.92 55.751 134.145 54.8804 134.359 53.9997C134.574 53.119 134.739 52.2213 134.904 51.327C135.069 50.4328 135.213 49.5148 135.336 48.6476V48.6239C135.4 48.2615 135.606 47.9367 135.911 47.7167C136.217 47.4967 136.598 47.3982 136.977 47.4417C137.355 47.4852 137.702 47.6673 137.945 47.9504C138.188 48.2335 138.309 48.5959 138.283 48.9626L138.301 48.9796Z" fill="#FFC3BD"/>
<path d="M136.825 45.1787C133.471 46.5336 134.033 51.1608 134.033 51.1608C135.66 52.2098 137.414 53.063 139.256 53.7014C140.837 51.2082 140.637 43.6442 136.825 45.1787Z" fill="#263238"/>
<path d="M125.844 56.8519L122.915 56.984L124.713 54.7246C124.713 54.7246 126.554 54.9956 126.958 56.0796L125.844 56.8519Z" fill="#FFC3BD"/>
<path d="M120.926 55.6223L122.535 53.8101L124.71 54.7247L122.915 56.9841L120.926 55.6223Z" fill="#FFC3BD"/>
<path d="M135.603 48.3968C135.484 50.4293 135.687 54.8668 137.166 63.6401H149.493C149.317 59.5244 149.511 55.6764 151.169 48.2004C151.256 47.8091 151.258 47.4045 151.175 47.0123C151.092 46.6202 150.925 46.2489 150.686 45.9222C150.446 45.5954 150.138 45.3202 149.782 45.1141C149.427 44.908 149.03 44.7755 148.618 44.7249C147.831 44.63 146.992 44.5487 146.209 44.5115C144.426 44.3894 142.637 44.3894 140.855 44.5115C139.699 44.6131 138.972 44.7249 138.045 44.8672C136.295 45.1314 135.691 46.8793 135.603 48.3968Z" fill="#72A276"/>
<path d="M140.855 44.5117H146.208C144.482 45.9681 142.676 47.334 140.799 48.6037C140.362 48.002 140.132 47.2833 140.142 46.549C140.152 45.8147 140.402 45.102 140.855 44.5117Z" fill="white"/>
<path d="M145.678 38.6987C145.327 40.3586 145.003 43.4038 146.208 44.5115C146.208 44.5115 143.711 47.0588 140.96 47.6787C139.246 46.6625 140.855 44.5115 140.855 44.5115C142.773 44.0678 142.724 42.6959 142.39 41.4053L145.678 38.6987Z" fill="#FFC3BD"/>
<path opacity="0.2" d="M144.336 39.8027L142.393 41.4016C142.474 41.7029 142.529 42.0098 142.558 42.3196C143.289 42.2146 144.297 41.4388 144.378 40.697C144.421 40.399 144.407 40.0958 144.336 39.8027Z" fill="black"/>
<path d="M147.494 35.6499C146.82 38.3598 146.591 39.5081 144.905 40.6666C142.365 42.4077 139.074 41.0053 138.898 38.1735C138.74 35.616 139.871 31.629 142.843 31.0159C143.498 30.8777 144.178 30.9032 144.82 31.0899C145.461 31.2766 146.042 31.6183 146.508 32.0826C146.974 32.5469 147.31 33.1183 147.482 33.7427C147.655 34.367 147.659 35.0235 147.494 35.6499Z" fill="#FFC3BD"/>
<path d="M147.887 37.191C147.669 37.6849 147.259 38.0773 146.746 38.2851C146.061 38.5493 145.636 37.9769 145.759 37.3129C145.871 36.7168 146.359 35.8564 147.08 35.8733C147.237 35.8802 147.39 35.9247 147.525 36.003C147.66 36.0812 147.773 36.1907 147.853 36.3215C147.933 36.4522 147.978 36.6002 147.984 36.752C147.99 36.9038 147.957 37.0547 147.887 37.191Z" fill="#FFC3BD"/>
<path d="M151.527 25.8028C151.499 24.1667 149.507 24.2446 149.507 24.2446C149.507 24.2446 150.181 23.6857 148.267 22.6119C146.352 21.538 144.589 22.8964 145.502 23.9973C143.63 23.7974 143.77 26.2533 145.116 26.4532C145.116 26.4532 144.006 27.947 146.17 29.0208L148.629 30.4672C151.702 30.0506 150.796 27.9199 150.796 27.9199C150.796 27.9199 151.558 27.4389 151.527 25.8028Z" fill="#263238"/>
<path d="M144.796 28.6416C144.283 27.8354 145.79 27.3713 147.533 28.0047C149.275 28.6382 150.224 31.0534 148.615 31.1957C145.717 29.5731 144.796 28.6416 144.796 28.6416Z" fill="#72A276"/>
<path d="M142.098 29.7832C138.81 30.8841 142.948 33.655 145.527 34.0174C143.77 35.3114 145.527 36.9001 144.554 38.0417C143.581 39.1832 144.08 41.2733 146.662 40.3688C149.243 39.4644 150.877 35.8466 149.953 34.4409C149.029 33.0351 149.907 32.527 148.801 30.3489C147.61 28.0048 138.691 26.2535 142.098 29.7832Z" fill="#263238"/>
<path d="M142.555 35.6803C142.516 35.9038 142.362 36.0631 142.204 36.036C142.046 36.0089 141.961 35.809 142.003 35.5854C142.046 35.3619 142.2 35.206 142.355 35.2467C142.509 35.2873 142.58 35.4567 142.555 35.6803Z" fill="#263238"/>
<path d="M139.931 35.2368C139.892 35.457 139.738 35.6162 139.58 35.5925C139.422 35.5688 139.337 35.3655 139.379 35.142C139.422 34.9184 139.576 34.7592 139.731 34.8032C139.885 34.8473 139.973 35.0133 139.931 35.2368Z" fill="#263238"/>
<path d="M139.797 34.8098L139.27 34.5625C139.27 34.5625 139.481 35.0266 139.797 34.8098Z" fill="#263238"/>
<path d="M140.553 35.7349C140.253 36.2074 139.888 36.6382 139.467 37.0153C139.57 37.1161 139.695 37.1941 139.833 37.2438C139.971 37.2935 140.118 37.3138 140.264 37.3032L140.553 35.7349Z" fill="#ED847E"/>
<path d="M141.642 38.3361C141.51 38.336 141.378 38.3247 141.248 38.3022C141.239 38.301 141.231 38.2981 141.223 38.2936C141.216 38.2892 141.209 38.2833 141.204 38.2764C141.198 38.2694 141.195 38.2616 141.193 38.2532C141.191 38.2448 141.19 38.2362 141.192 38.2277C141.195 38.2103 141.206 38.1948 141.221 38.1847C141.236 38.1745 141.255 38.1705 141.273 38.1735C141.558 38.2279 141.853 38.217 142.134 38.1417C142.415 38.0664 142.673 37.9288 142.889 37.7399C142.895 37.7337 142.902 37.7287 142.91 37.7251C142.918 37.7216 142.926 37.7196 142.935 37.7193C142.944 37.719 142.953 37.7203 142.961 37.7233C142.969 37.7262 142.977 37.7307 142.983 37.7365C142.99 37.7423 142.995 37.7493 142.999 37.757C143.002 37.7647 143.005 37.7731 143.005 37.7816C143.005 37.7901 143.004 37.7985 143.001 37.8065C142.998 37.8145 142.993 37.8218 142.987 37.828C142.625 38.1609 142.142 38.3434 141.642 38.3361Z" fill="#263238"/>
<path d="M143.686 34.6675C143.654 34.6581 143.626 34.6376 143.609 34.6099C143.505 34.4765 143.37 34.3686 143.215 34.295C143.06 34.2214 142.889 34.1842 142.716 34.1865C142.698 34.1884 142.68 34.1868 142.663 34.1818C142.645 34.1769 142.629 34.1686 142.615 34.1576C142.601 34.1466 142.59 34.133 142.581 34.1176C142.572 34.1022 142.567 34.0853 142.565 34.0679C142.562 34.0325 142.574 33.9974 142.598 33.9702C142.621 33.9429 142.655 33.9257 142.692 33.9223C142.91 33.9171 143.126 33.962 143.323 34.0533C143.52 34.1446 143.691 34.2796 143.823 34.4473C143.834 34.4609 143.843 34.4764 143.848 34.4932C143.853 34.5099 143.855 34.5274 143.853 34.5447C143.851 34.562 143.845 34.5788 143.836 34.5941C143.828 34.6093 143.816 34.6228 143.802 34.6336C143.786 34.6473 143.768 34.6574 143.748 34.6632C143.728 34.6691 143.707 34.6706 143.686 34.6675Z" fill="#263238"/>
<path d="M139.446 33.8444C139.421 33.8344 139.4 33.8175 139.385 33.7958C139.37 33.7741 139.362 33.7486 139.362 33.7225C139.362 33.6964 139.37 33.6709 139.385 33.6492C139.4 33.6275 139.421 33.6106 139.446 33.6005C139.64 33.504 139.855 33.4536 140.073 33.4536C140.291 33.4536 140.506 33.504 140.7 33.6005C140.732 33.6185 140.755 33.6479 140.764 33.6822C140.773 33.7165 140.768 33.7529 140.749 33.7835C140.731 33.814 140.7 33.8362 140.665 33.845C140.629 33.8539 140.591 33.8488 140.56 33.8309C140.406 33.7542 140.236 33.7143 140.063 33.7143C139.89 33.7143 139.719 33.7542 139.566 33.8309C139.549 33.8428 139.529 33.8503 139.508 33.8527C139.487 33.8551 139.466 33.8522 139.446 33.8444Z" fill="#263238"/>
<path d="M142.404 35.2536L141.877 35.0063C141.877 35.0063 142.088 35.4704 142.404 35.2536Z" fill="#263238"/>
<path d="M137.166 63.6401L137.672 93.2697L153.996 90.4446C154.628 74.9507 151.86 66.9225 149.493 63.6401H137.166Z" fill="#263238"/>
<path opacity="0.2" d="M142.369 81.4408L144.315 75.3299L142.629 70.7095L142.369 81.4408Z" fill="black"/>
<path d="M151.484 47.0791C151.836 47.8006 152.131 48.495 152.426 49.2132C152.721 49.9313 153.002 50.6427 153.258 51.3709C153.8 52.8368 154.242 54.3349 154.583 55.8559C154.657 56.2522 154.751 56.6316 154.801 57.0381L154.888 57.6376L154.941 58.2575L154.966 58.5692C154.974 58.7504 154.963 58.932 154.934 59.1112C154.878 59.4432 154.759 59.7624 154.583 60.0529C154.299 60.502 153.931 60.8961 153.497 61.2147C152.79 61.7209 152.01 62.1259 151.182 62.4173C150.409 62.7017 149.611 62.9193 148.797 63.0676C148.623 63.1001 148.442 63.0709 148.288 62.9854C148.133 62.8999 148.016 62.7639 147.957 62.6021C147.899 62.4402 147.902 62.2634 147.967 62.1039C148.032 61.9444 148.155 61.8127 148.312 61.733H148.347C148.994 61.3943 149.665 61.0555 150.276 60.666C150.861 60.3273 151.403 59.9225 151.888 59.4601C152.061 59.3035 152.199 59.1144 152.292 58.9045C152.307 58.865 152.307 58.8221 152.292 58.7826C152.292 58.7826 152.292 58.7826 152.292 58.7656L152.257 58.515C152.158 57.8305 152.018 57.1519 151.839 56.4825C151.467 55.1073 150.993 53.7218 150.469 52.3499C149.946 50.978 149.37 49.5993 148.783 48.285C148.643 47.9422 148.645 47.5606 148.79 47.2194C148.934 46.8781 149.209 46.6036 149.557 46.4528C149.906 46.3019 150.301 46.2863 150.662 46.4093C151.022 46.5322 151.319 46.7842 151.491 47.113L151.484 47.0791Z" fill="#FFC3BD"/>
<path d="M148.839 44.7722C152.401 45.2533 153.406 49.7314 153.406 49.7314C152.303 51.1786 151.003 52.4763 149.542 53.5896C147.178 51.5199 144.796 44.2167 148.839 44.7722Z" fill="#263238"/>
<path d="M148.657 61.6143L145.527 61.8141L147.575 63.8635C147.575 63.8635 149.377 63.396 149.651 62.2646L148.657 61.6143Z" fill="#FFC3BD"/>
<path d="M144.511 63.4032L145.393 64.6023C145.47 64.7064 145.585 64.7795 145.714 64.8076C145.844 64.8357 145.98 64.8169 146.096 64.7547L148.014 63.7182L145.52 61.8179L144.575 62.7257C144.482 62.813 144.425 62.9291 144.414 63.0532C144.402 63.1773 144.437 63.3014 144.511 63.4032Z" fill="#FFC3BD"/>
<path d="M127.906 20.0885C127.808 18.8567 127.235 17.7048 126.301 16.8593C125.367 16.0137 124.139 15.5356 122.858 15.5189V15.1802C124.228 15.1983 125.542 15.7098 126.541 16.6142C127.54 17.5187 128.152 18.7507 128.257 20.0682L127.906 20.0885Z" fill="#72A276"/>
<path d="M128.541 23.7853L128.19 23.8057L128.329 26.0312L128.68 26.0109L128.541 23.7853Z" fill="#72A276"/>
<path d="M126.726 74.3074H34.2673C33.2074 74.2901 32.1925 73.8918 31.4212 73.1907C30.6499 72.4896 30.1779 71.536 30.0975 70.5169L26.7357 20.1462C26.6972 19.6609 26.7638 19.1732 26.9311 18.714C27.0984 18.2548 27.3629 17.8341 27.7077 17.4787C28.0525 17.1233 28.4702 16.8408 28.9342 16.6492C29.3982 16.4577 29.8984 16.3612 30.4031 16.3659H122.858C123.917 16.3821 124.931 16.7786 125.703 17.4777C126.475 18.1768 126.948 19.1283 127.031 20.1462L130.393 70.5169C130.433 71.003 130.368 71.4918 130.201 71.9522C130.035 72.4126 129.77 72.8345 129.425 73.1911C129.08 73.5477 128.662 73.8311 128.197 74.0232C127.733 74.2154 127.231 74.3122 126.726 74.3074Z" fill="#72A276"/>
<path d="M125.37 72.3832H49.952C49.0833 72.3659 48.2521 72.0389 47.6189 71.4652C46.9856 70.8915 46.5954 70.1119 46.5234 69.2769L43.7377 27.5205C43.7061 27.1216 43.7607 26.7208 43.8982 26.3434C44.0357 25.9661 44.2531 25.6204 44.5365 25.3283C44.8199 25.0362 45.1632 24.8041 45.5445 24.6468C45.9259 24.4894 46.337 24.4102 46.7518 24.4142H122.18C123.05 24.4269 123.884 24.7524 124.518 25.327C125.152 25.9016 125.541 26.6838 125.608 27.5205L128.394 69.2769C128.426 69.6767 128.372 70.0786 128.234 70.4569C128.096 70.8352 127.878 71.1816 127.593 71.474C127.308 71.7663 126.964 71.9982 126.581 72.1548C126.198 72.3113 125.785 72.3891 125.37 72.3832Z" fill="white"/>
<path d="M55.1899 21.335H44.5459C44.213 21.3293 43.8941 21.2045 43.6513 20.9848C43.4085 20.765 43.2591 20.4661 43.2321 20.146C43.22 19.993 43.2409 19.8393 43.2936 19.6945C43.3463 19.5497 43.4296 19.417 43.5383 19.3049C43.6469 19.1928 43.7785 19.1037 43.9248 19.0432C44.071 18.9828 44.2287 18.9523 44.3879 18.9537H55.0178C55.3515 18.9586 55.6713 19.0837 55.9143 19.3043C56.1574 19.5249 56.3062 19.8251 56.3316 20.146C56.3437 20.2977 56.3231 20.4502 56.2713 20.5939C56.2194 20.7375 56.1373 20.8693 56.0301 20.981C55.9229 21.0926 55.7929 21.1817 55.6483 21.2426C55.5037 21.3035 55.3477 21.335 55.1899 21.335Z" fill="white"/>
<path d="M69.343 21.335H62.2856C61.9528 21.33 61.6339 21.2053 61.3915 20.9854C61.1491 20.7654 61.0007 20.4661 60.9753 20.146C60.9626 19.9932 60.9831 19.8395 61.0354 19.6947C61.0877 19.5499 61.1707 19.4172 61.279 19.3051C61.3874 19.1929 61.5188 19.1037 61.6649 19.0432C61.811 18.9827 61.9686 18.9522 62.1275 18.9537H69.1849C69.5183 18.9587 69.8376 19.0839 70.0801 19.3045C70.3226 19.5252 70.4707 19.8254 70.4952 20.146C70.5079 20.2987 70.4874 20.4522 70.4351 20.5968C70.3828 20.7414 70.2998 20.8739 70.1913 20.9858C70.0829 21.0977 69.9514 21.1866 69.8053 21.2467C69.6593 21.3068 69.5018 21.3369 69.343 21.335Z" fill="white"/>
<path d="M83.4928 21.335H76.439C76.1061 21.3293 75.7872 21.2045 75.5444 20.9848C75.3016 20.765 75.1522 20.4661 75.1252 20.146C75.113 19.993 75.1339 19.8393 75.1866 19.6945C75.2393 19.5497 75.3227 19.417 75.4313 19.3049C75.54 19.1928 75.6716 19.1037 75.8179 19.0432C75.9641 18.9828 76.1218 18.9523 76.2809 18.9537H83.3347C83.6682 18.9594 83.9876 19.0847 84.2305 19.3052C84.4734 19.5256 84.6224 19.8254 84.6486 20.146C84.6602 20.2987 84.6389 20.4521 84.586 20.5965C84.5331 20.7409 84.4496 20.8731 84.341 20.9849C84.2324 21.0966 84.101 21.1854 83.955 21.2457C83.809 21.3059 83.6516 21.3364 83.4928 21.335Z" fill="white"/>
<path opacity="0.2" d="M31.4462 71.2656H31.4217C31.2238 71.2627 31.0344 71.1884 30.8906 71.0573C30.7469 70.9262 30.6594 70.7479 30.6453 70.5577L27.28 20.1159C27.2719 20.0237 27.2843 19.9309 27.3164 19.8437C27.3484 19.7565 27.3994 19.6769 27.4659 19.6102C27.5324 19.5436 27.6129 19.4913 27.702 19.457C27.7911 19.4227 27.8867 19.4071 27.9826 19.4113H28.0036C28.2015 19.4133 28.3914 19.4868 28.5358 19.6172C28.6802 19.7477 28.7686 19.9256 28.7835 20.1159L32.1488 70.5577C32.1563 70.6499 32.1435 70.7426 32.1113 70.8297C32.079 70.9168 32.0281 70.9964 31.9618 71.0632C31.8954 71.13 31.8153 71.1826 31.7264 71.2175C31.6376 71.2524 31.5421 71.2688 31.4462 71.2656Z" fill="white"/>
<path d="M119.552 21.945C119.05 21.9389 118.569 21.7521 118.202 21.4212C117.835 21.0903 117.61 20.6392 117.571 20.1565C117.554 19.9243 117.587 19.6913 117.668 19.4719C117.748 19.2525 117.875 19.0515 118.04 18.8815C118.205 18.7114 118.404 18.5759 118.626 18.4835C118.847 18.3911 119.086 18.3437 119.327 18.3442C119.829 18.3512 120.31 18.5384 120.675 18.8692C121.041 19.2001 121.266 19.6507 121.305 20.1328C121.324 20.3663 121.292 20.601 121.211 20.8219C121.131 21.0429 121.004 21.2454 120.838 21.4166C120.673 21.5849 120.473 21.7186 120.252 21.8095C120.031 21.9004 119.793 21.9465 119.552 21.945ZM119.331 18.6593C119.133 18.6547 118.937 18.6905 118.754 18.7641C118.572 18.8378 118.408 18.9478 118.272 19.0869C118.137 19.226 118.034 19.391 117.969 19.5713C117.905 19.7515 117.88 19.9428 117.898 20.1328C117.93 20.5364 118.118 20.9138 118.424 21.1908C118.73 21.4678 119.132 21.6245 119.552 21.63C119.75 21.6341 119.946 21.598 120.128 21.5241C120.31 21.4502 120.473 21.3401 120.608 21.2011C120.743 21.0621 120.846 20.8972 120.911 20.7172C120.975 20.5372 120.999 20.3462 120.982 20.1565C120.951 19.7529 120.764 19.3751 120.459 19.0979C120.153 18.8206 119.751 18.6641 119.331 18.6593Z" fill="white"/>
<path d="M114.571 21.945C114.069 21.9381 113.589 21.7509 113.223 21.42C112.857 21.0892 112.633 20.6386 112.593 20.1565C112.576 19.9243 112.609 19.6913 112.69 19.4719C112.771 19.2525 112.897 19.0515 113.062 18.8815C113.227 18.7114 113.426 18.5759 113.648 18.4835C113.869 18.3911 114.108 18.3437 114.35 18.3442C114.851 18.3512 115.332 18.5384 115.698 18.8692C116.063 19.2001 116.288 19.6507 116.327 20.1328C116.344 20.365 116.311 20.598 116.231 20.8174C116.15 21.0368 116.023 21.2378 115.858 21.4078C115.694 21.5779 115.494 21.7133 115.273 21.8058C115.051 21.8982 114.812 21.9456 114.571 21.945ZM114.353 18.6593C114.155 18.6547 113.959 18.6905 113.777 18.7641C113.594 18.8378 113.43 18.9478 113.295 19.0869C113.159 19.226 113.056 19.391 112.992 19.5713C112.927 19.7515 112.903 19.9428 112.92 20.1328C112.952 20.5358 113.139 20.9127 113.445 21.1897C113.75 21.4666 114.152 21.6236 114.571 21.63C114.769 21.6346 114.965 21.5988 115.147 21.5251C115.33 21.4515 115.494 21.3415 115.629 21.2024C115.765 21.0633 115.868 20.8983 115.933 20.718C115.997 20.5378 116.022 20.3465 116.004 20.1565C115.972 19.7535 115.785 19.3766 115.479 19.0996C115.174 18.8227 114.772 18.6657 114.353 18.6593Z" fill="white"/>
<path opacity="0.2" d="M39.1994 19.2687C39.4664 19.276 39.7213 19.3777 39.9156 19.5545C40.1099 19.7313 40.2301 19.9707 40.2533 20.2273L43.6502 71.1501C43.6605 71.268 43.6451 71.3867 43.6049 71.4985C43.5648 71.6103 43.5008 71.7128 43.417 71.7992C43.3333 71.8857 43.2317 71.9543 43.1188 72.0007C43.0059 72.047 42.8841 72.0699 42.7614 72.0681H36.2205C35.9535 72.0607 35.6986 71.959 35.5043 71.7823C35.31 71.6055 35.1898 71.3661 35.1666 71.1095L31.7662 20.1867C31.7559 20.0688 31.7713 19.9501 31.8114 19.8383C31.8516 19.7265 31.9156 19.624 31.9993 19.5375C32.0831 19.451 32.1847 19.3824 32.2976 19.3361C32.4105 19.2898 32.5323 19.2668 32.6549 19.2687H39.1994ZM39.1994 18.9537H32.6549C32.4877 18.9523 32.3219 18.9844 32.1682 19.0479C32.0145 19.1115 31.8761 19.2052 31.7618 19.323C31.6476 19.4408 31.5599 19.5802 31.5044 19.7324C31.449 19.8845 31.4268 20.0462 31.4395 20.207L34.8364 71.1298C34.8628 71.4678 35.0195 71.784 35.2757 72.016C35.5319 72.248 35.869 72.379 36.2205 72.3831H42.765C42.9324 72.385 43.0984 72.3533 43.2524 72.2899C43.4063 72.2265 43.5449 72.1328 43.6593 72.0149C43.7737 71.897 43.8613 71.7574 43.9166 71.605C43.9719 71.4526 43.9936 71.2907 43.9804 71.1298L40.5835 20.207C40.5571 19.869 40.4004 19.5528 40.1442 19.3208C39.888 19.0888 39.5509 18.9578 39.1994 18.9537Z" fill="white"/>
<path opacity="0.3" d="M63.3325 48.397H50.767C50.3462 48.3908 49.9428 48.2336 49.6357 47.9562C49.3285 47.6788 49.1394 47.301 49.1054 46.8964L48.1008 31.8327C48.0862 31.6396 48.1133 31.4456 48.1802 31.2631C48.2472 31.0806 48.3527 30.9134 48.49 30.7722C48.6272 30.6309 48.7934 30.5185 48.9779 30.4422C49.1624 30.3659 49.3613 30.3272 49.5621 30.3287H62.11C62.5312 30.3357 62.9345 30.4936 63.2417 30.7716C63.5488 31.0496 63.7377 31.4278 63.7716 31.8327L64.7763 46.8964C64.7913 47.0881 64.7651 47.2806 64.6993 47.462C64.6335 47.6434 64.5296 47.8098 64.3941 47.9506C64.2586 48.0915 64.0943 48.2039 63.9116 48.2807C63.729 48.3575 63.5318 48.3971 63.3325 48.397Z" fill="#72A276"/>
<path fill-rule="evenodd" clip-rule="evenodd" d="M57.6908 36.6429C57.9753 36.6429 58.2564 36.6429 58.5444 36.6429H58.6603L58.5655 35.2168C58.4144 35.2168 58.2529 35.1796 58.0948 35.1728C57.7997 35.1728 57.5081 35.1457 57.2166 35.1525C56.7819 35.1468 56.357 35.2763 56.0046 35.5217C55.8129 35.6632 55.6546 35.8424 55.5401 36.0473C55.4257 36.2523 55.3577 36.4784 55.3407 36.7107C55.3266 36.9148 55.3266 37.1196 55.3407 37.3238C55.3407 37.6625 55.3828 37.964 55.4039 38.2858V38.4044H53.9988L54.1077 39.9998H55.5128L55.7763 43.9326H57.5046L57.2341 40.0032H58.6393C58.6779 39.4748 58.713 38.9497 58.7517 38.4044H57.1182C57.1182 38.4044 57.069 37.6117 57.055 37.2696C57.0234 36.8021 57.3009 36.6598 57.6908 36.6429Z" fill="white"/>
<path opacity="0.3" d="M82.6743 48.397H70.1088C69.688 48.3908 69.2846 48.2336 68.9775 47.9562C68.6703 47.6788 68.4812 47.301 68.4472 46.8964L67.4425 31.8327C67.428 31.6396 67.4551 31.4456 67.522 31.2631C67.589 31.0806 67.6945 30.9134 67.8318 30.7722C67.969 30.6309 68.1352 30.5185 68.3197 30.4422C68.5042 30.3659 68.7031 30.3272 68.9039 30.3287H81.4659C81.887 30.3357 82.2904 30.4936 82.5975 30.7716C82.9046 31.0496 83.0935 31.4278 83.1275 31.8327L84.1321 46.8964C84.1478 47.0893 84.1216 47.2832 84.0551 47.4658C83.9887 47.6483 83.8836 47.8156 83.7464 47.9568C83.6092 48.0979 83.4431 48.21 83.2585 48.2858C83.0739 48.3616 82.8749 48.3995 82.6743 48.397Z" fill="#72A276"/>
<path fill-rule="evenodd" clip-rule="evenodd" d="M74.3733 40.9008C74.0359 40.8893 73.7094 40.7827 73.4341 40.5943C73.1588 40.4059 72.9468 40.1439 72.8242 39.8405C73.05 39.8831 73.2829 39.8762 73.5056 39.8202H73.5267C73.0857 39.7322 72.6983 39.4803 72.4483 39.119C72.2779 38.8783 72.1795 38.5971 72.1637 38.3061C72.3803 38.4185 72.6205 38.4822 72.8663 38.4924C72.5254 38.2731 72.2764 37.9441 72.1637 37.5642C72.0442 37.1972 72.0782 36.7997 72.2586 36.4565C72.6841 36.9254 73.202 37.3081 73.7821 37.5826C74.3622 37.857 74.993 38.0177 75.6379 38.0554C75.6379 37.9944 75.6098 37.9402 75.5993 37.886C75.5265 37.5446 75.5852 37.1894 75.7644 36.8867C75.8704 36.7051 76.0184 36.5494 76.1969 36.4319C76.3754 36.3144 76.5796 36.2382 76.7937 36.2092C77.0462 36.1687 77.3051 36.1863 77.5492 36.2605C77.7934 36.3346 78.016 36.4633 78.1988 36.6361C78.2096 36.6477 78.2236 36.6562 78.2391 36.6604C78.2547 36.6646 78.2712 36.6644 78.2866 36.6598C78.6038 36.5955 78.9076 36.4811 79.1859 36.321H79.207C79.1139 36.6443 78.9063 36.9259 78.6204 37.1171C78.9202 37.084 79.2129 37.0063 79.488 36.8867C79.4318 36.9646 79.3791 37.0425 79.3229 37.1171C79.1682 37.316 78.9862 37.4937 78.782 37.6455C78.7731 37.6498 78.7659 37.6567 78.7614 37.6652C78.757 37.6738 78.7556 37.6835 78.7574 37.6929C78.7766 37.9184 78.7766 38.145 78.7574 38.3704C78.7304 38.8358 78.6236 39.2937 78.4412 39.7254C78.259 40.1687 77.9961 40.5771 77.6649 40.9313C77.1087 41.5273 76.3707 41.9376 75.5572 42.1033C75.2682 42.1628 74.9743 42.1968 74.6789 42.2049C73.7719 42.229 72.8768 42.0009 72.1005 41.5478L72.0583 41.5241C72.5929 41.5859 73.135 41.5136 73.6321 41.3141C73.8989 41.2121 74.1486 41.0729 74.3733 40.9008Z" fill="white"/>
<path opacity="0.9" d="M102.016 48.397H89.4506C89.0298 48.3908 88.6264 48.2336 88.3192 47.9562C88.0121 47.6788 87.823 47.301 87.789 46.8964L86.7843 31.8327C86.7698 31.6396 86.7969 31.4456 86.8638 31.2631C86.9308 31.0806 87.0363 30.9134 87.1736 30.7722C87.3108 30.6309 87.477 30.5185 87.6615 30.4422C87.846 30.3659 88.0449 30.3272 88.2457 30.3287H100.808C101.229 30.335 101.633 30.4926 101.94 30.7708C102.247 31.0489 102.436 31.4275 102.469 31.8327L103.474 46.8964C103.49 47.0893 103.463 47.2832 103.397 47.4658C103.331 47.6483 103.225 47.8156 103.088 47.9568C102.951 48.0979 102.785 48.21 102.6 48.2858C102.416 48.3616 102.217 48.3995 102.016 48.397Z" fill="#72A276"/>
<path d="M99.0723 37.1982C98.9874 36.6755 98.7181 36.1969 98.31 35.8433C97.8777 35.4736 97.3243 35.2625 96.7468 35.2471C95.3785 35.1709 94.0064 35.1857 92.6402 35.2911C92.2204 35.3357 91.8273 35.512 91.5214 35.7929C91.2155 36.0738 91.0137 36.4437 90.947 36.8459C90.7925 37.5234 91.0419 40.6703 91.2035 41.3444C91.291 41.7707 91.507 42.1627 91.8244 42.4712C92.1418 42.7797 92.5466 42.991 92.988 43.0787C93.6554 43.2413 96.8732 43.221 97.5898 43.1058C98.0198 43.0619 98.422 42.8801 98.7322 42.5896C99.0423 42.2991 99.2425 41.9167 99.3006 41.5036C99.4446 40.8058 99.1812 37.8283 99.0723 37.1982ZM98.5734 41.1987C98.5632 41.5143 98.4297 41.8145 98.1998 42.0394C97.9699 42.2642 97.6605 42.3971 97.3334 42.4114C96.666 42.4826 93.6765 42.5198 93.0442 42.3538C92.7655 42.2879 92.5124 42.1458 92.3155 41.9444C92.1186 41.7431 91.9861 41.4912 91.9341 41.2191C91.7397 39.8804 91.6493 38.5296 91.6637 37.1779C91.6748 36.8638 91.8082 36.5653 92.0374 36.3418C92.2666 36.1183 92.5746 35.9863 92.9002 35.972C94.2627 35.8805 95.6301 35.8805 96.9927 35.972C97.3312 36.0103 97.6466 36.1569 97.8886 36.3884C98.1306 36.6199 98.2851 36.9229 98.3276 37.249C98.5045 38.5585 98.5866 39.8783 98.5734 41.1987ZM94.9833 37.1339C94.7087 37.1302 94.4364 37.1818 94.1837 37.2854C93.931 37.389 93.7035 37.5423 93.5157 37.7355C93.328 37.9287 93.184 38.1575 93.0932 38.4074C93.0023 38.6573 92.9665 38.9226 92.988 39.1866C93.031 39.7404 93.2874 40.2585 93.7067 40.6391C94.1261 41.0196 94.678 41.235 95.2538 41.2428C95.5284 41.2464 95.8007 41.1948 96.0534 41.0912C96.3061 40.9876 96.5336 40.8343 96.7214 40.6411C96.9091 40.4479 97.0531 40.2191 97.1439 39.9692C97.2348 39.7194 97.2706 39.454 97.2491 39.19C97.2053 38.6369 96.9485 38.1195 96.5293 37.7397C96.11 37.3598 95.5585 37.1449 94.9833 37.1372V37.1339ZM95.1941 40.5213C94.8219 40.5144 94.466 40.3731 94.1967 40.1253C93.9274 39.8776 93.7643 39.5414 93.7398 39.1832C93.727 39.0125 93.7514 38.841 93.8113 38.6799C93.8712 38.5188 93.9653 38.3715 94.0877 38.2474C94.21 38.1234 94.3579 38.0253 94.5218 37.9596C94.6857 37.8938 94.862 37.8618 95.0395 37.8655C95.4143 37.8735 95.7721 38.0174 96.0417 38.2685C96.3113 38.5197 96.4727 38.8596 96.4938 39.2205C96.5036 39.3896 96.4769 39.5588 96.4157 39.7175C96.3544 39.8762 96.2598 40.021 96.1377 40.1428C96.0157 40.2647 95.8689 40.3608 95.7065 40.4254C95.5441 40.4899 95.3697 40.5214 95.1941 40.5179V40.5213ZM97.6882 37.0627C97.6931 37.1245 97.6846 37.1866 97.6632 37.2451C97.6419 37.3035 97.6082 37.357 97.5643 37.4023C97.5203 37.4475 97.4671 37.4834 97.4081 37.5078C97.349 37.5321 97.2853 37.5444 97.221 37.5437C97.0864 37.5416 96.9574 37.4911 96.8593 37.4022C96.7612 37.3132 96.701 37.1922 96.6906 37.0627C96.6857 37.0009 96.6942 36.9388 96.7155 36.8804C96.7368 36.8219 96.7706 36.7684 96.8145 36.7232C96.8584 36.6779 96.9116 36.642 96.9707 36.6176C97.0298 36.5933 97.0935 36.5811 97.1578 36.5817C97.2921 36.583 97.421 36.6327 97.5192 36.7212C97.6174 36.8096 97.6777 36.9302 97.6882 37.0593V37.0627Z" fill="white"/>
<path opacity="0.3" d="M121.358 48.397H108.792C108.372 48.3915 107.968 48.2345 107.662 47.9568C107.355 47.6792 107.167 47.3009 107.134 46.8964L106.126 31.8327C106.112 31.6396 106.139 31.4456 106.206 31.2631C106.273 31.0806 106.378 30.9134 106.515 30.7722C106.653 30.6309 106.819 30.5185 107.003 30.4422C107.188 30.3659 107.387 30.3272 107.587 30.3287H120.149C120.574 30.3308 120.982 30.4865 121.293 30.7651C121.604 31.0436 121.795 31.4246 121.829 31.8327L122.833 46.8964C122.849 47.0908 122.822 47.2861 122.755 47.4699C122.687 47.6536 122.581 47.8217 122.442 47.9631C122.303 48.1046 122.134 48.2163 121.948 48.2911C121.761 48.3658 121.56 48.4019 121.358 48.397Z" fill="#72A276"/>
<path fill-rule="evenodd" clip-rule="evenodd" d="M111.371 42.2997C111.208 42.2528 111.057 42.1708 110.931 42.0599C110.805 41.9491 110.707 41.8122 110.644 41.6595C110.292 40.8736 109.987 37.5946 110.514 36.9341C110.598 36.8278 110.704 36.7391 110.824 36.6733C110.945 36.6075 111.078 36.566 111.216 36.5513C112.748 36.3921 117.508 36.4124 118.066 36.6055C118.223 36.6551 118.366 36.7364 118.488 36.8439C118.609 36.9514 118.705 37.0826 118.769 37.2288C119.148 38.0418 119.356 41.0024 119.029 41.7848C118.942 41.9887 118.783 42.1558 118.579 42.2557C118.056 42.5436 112.144 42.5402 111.371 42.2997ZM113.714 40.7585L116.394 39.373L113.528 37.9774C113.591 38.9056 113.651 39.8269 113.714 40.7585Z" fill="white"/>
<path d="M101.303 52.6516C101.905 52.66 102.482 52.8849 102.92 53.2822C103.359 53.6795 103.628 54.2206 103.674 54.7992L104.507 67.2682C104.527 67.5394 104.489 67.8116 104.395 68.0679C104.301 68.3243 104.154 68.5594 103.962 68.7587C103.77 68.9555 103.537 69.1118 103.279 69.2179C103.021 69.324 102.743 69.3775 102.462 69.3752H53.1595C52.5581 69.3667 51.9817 69.1416 51.5436 68.7443C51.1055 68.3469 50.8373 67.8059 50.7918 67.2276L49.9593 54.7585C49.9367 54.4878 49.9731 54.2155 50.066 53.9591C50.1589 53.7027 50.3063 53.4678 50.4987 53.2694C50.6912 53.0711 50.9244 52.9137 51.1836 52.8073C51.4428 52.7009 51.7221 52.6479 52.0038 52.6516H101.303ZM101.303 52.3365H52.0038C51.6775 52.3333 51.3542 52.3955 51.0542 52.5191C50.7542 52.6428 50.4841 52.8252 50.2612 53.0549C50.0382 53.2845 49.8672 53.5564 49.759 53.8532C49.6508 54.15 49.6077 54.4652 49.6326 54.7789L50.4651 67.2479C50.5184 67.9053 50.824 68.52 51.3223 68.9717C51.8206 69.4233 52.4757 69.6795 53.1595 69.6902H102.462C102.788 69.693 103.111 69.6305 103.411 69.5066C103.711 69.3827 103.98 69.2002 104.203 68.9706C104.425 68.741 104.596 68.4693 104.704 68.1728C104.812 67.8762 104.855 67.5613 104.83 67.2479L104.001 54.7789C103.947 54.1211 103.641 53.5064 103.142 53.0548C102.643 52.6032 101.987 52.3471 101.303 52.3365Z" fill="#72A276"/>
<g opacity="0.2">
<path opacity="0.2" d="M58.6808 52.4855L58.4004 52.5029L59.537 69.5436L59.8174 69.5262L58.6808 52.4855Z" fill="#72A276"/>
<path opacity="0.2" d="M67.7394 52.4841L67.459 52.5015L68.5956 69.5421L68.876 69.5247L67.7394 52.4841Z" fill="#72A276"/>
<path opacity="0.2" d="M76.8049 52.485L76.5244 52.5024L77.661 69.5431L77.9415 69.5257L76.8049 52.485Z" fill="#72A276"/>
<path opacity="0.2" d="M85.8635 52.487L85.583 52.5044L86.7196 69.5451L87 69.5277L85.8635 52.487Z" fill="#72A276"/>
<path opacity="0.2" d="M94.9255 52.485L94.645 52.5024L95.7816 69.5431L96.0621 69.5257L94.9255 52.485Z" fill="#72A276"/>
</g>
<path d="M54.3816 66.008C53.6421 65.9651 52.9408 65.6766 52.3968 65.1916C52.1298 64.9715 51.8769 64.7377 51.6275 64.5142C51.232 64.1261 50.8018 63.7724 50.3418 63.4573L50.5245 63.1931C50.9986 63.5208 51.4439 63.8856 51.8558 64.2838C52.0982 64.5108 52.3476 64.7411 52.6076 64.9613C53.2364 65.4728 54.1743 65.9098 54.9296 65.6049C55.6849 65.3 55.9237 64.4362 56.0151 63.9417C56.0572 63.7012 56.0888 63.4539 56.1134 63.2134C56.1498 62.7019 56.2561 62.1974 56.4296 61.7128C56.5761 61.3348 56.8137 60.9958 57.1228 60.7237C57.4318 60.4516 57.8034 60.2542 58.2071 60.1478C58.6336 60.048 59.0801 60.06 59.5001 60.1827C59.9201 60.3054 60.2985 60.5343 60.5958 60.8456C60.9508 61.2808 61.2264 61.7711 61.4108 62.2954C61.7164 63.0305 62.0045 63.7215 62.6965 63.9247C62.8469 63.9693 63.0056 63.9817 63.1614 63.9612C63.3173 63.9408 63.4667 63.8879 63.5993 63.8062C64.1592 63.4224 64.5382 62.8401 64.6532 62.187C64.769 61.5492 64.8336 60.9036 64.8464 60.2562C64.8533 59.4397 64.9594 58.6269 65.1625 57.8342C65.2955 57.3885 65.5193 56.9729 65.8209 56.6117C66.1225 56.2505 66.4958 55.951 66.919 55.7306C67.193 55.5909 67.4945 55.5084 67.8038 55.4886C68.1131 55.4687 68.4232 55.512 68.7141 55.6155C69.7222 55.9779 70.2597 56.9501 70.4705 57.4955C70.6454 57.9377 70.7909 58.3903 70.9061 58.8504C70.9974 59.1892 71.0923 59.5279 71.2152 59.8666C71.6198 60.9785 72.3027 61.9768 73.2035 62.773C73.4276 62.9917 73.6969 63.1625 73.9939 63.2744C74.981 63.5792 75.8276 62.5969 76.2491 61.9668C76.7444 61.2318 77.5032 60.1139 78.68 60.1986C79.5126 60.2528 80.173 60.91 80.577 61.4486C80.7034 61.6145 80.8194 61.7873 80.9283 61.9601C81.1933 62.3932 81.5222 62.7869 81.9048 63.1287C82.4212 63.5488 83.2257 63.7486 83.6823 63.3489C83.9324 63.0733 84.085 62.728 84.1179 62.3632L84.2128 61.872C84.4306 60.6898 84.6589 59.4669 85.4669 58.5659C85.9095 58.0713 86.6507 57.7631 87.2233 58.1255C87.4811 58.3181 87.6762 58.5779 87.7854 58.8741C87.8802 59.0774 87.9715 59.2772 88.0629 59.4805C88.4009 60.3207 88.8457 61.1172 89.3872 61.8517C90.0125 62.624 91.091 63.4065 92.2397 63.271C92.6206 63.2086 92.9922 63.1017 93.3462 62.9526C93.9364 62.729 94.5441 62.4987 95.2045 62.668C95.749 62.8571 96.2332 63.1792 96.6097 63.6029C96.7537 63.7384 96.9012 63.8739 97.0523 63.9993C97.402 64.3068 97.8577 64.4782 98.331 64.4803C98.4202 64.4758 98.5076 64.454 98.5879 64.4161C98.6681 64.3783 98.7397 64.3252 98.7982 64.2601C98.9714 63.9896 99.0491 63.6723 99.0195 63.3557C99.0757 62.0007 99.2549 60.4798 100.186 59.3382C101.057 58.2678 102.782 57.7021 104.162 58.6031L103.976 58.864C102.757 58.0646 101.222 58.576 100.442 59.5415C99.571 60.6119 99.3883 62.0786 99.3462 63.3726C99.3754 63.7602 99.2704 64.1463 99.0476 64.4701C98.9612 64.5704 98.8541 64.6523 98.7332 64.7106C98.6122 64.7689 98.4801 64.8024 98.345 64.8089C97.7863 64.8151 97.2456 64.6179 96.831 64.2567C96.6729 64.128 96.5218 63.9857 96.3708 63.8435C96.0293 63.4598 95.5932 63.165 95.1026 62.9864C94.5441 62.8476 94.0101 63.0474 93.4411 63.2608C93.0629 63.4215 92.6651 63.5353 92.2572 63.5996C90.968 63.7452 89.7982 62.9018 89.0957 62.0617C88.5343 61.3045 88.0751 60.4815 87.7292 59.6126L87.4552 59.013C87.3678 58.771 87.2135 58.5567 87.009 58.3931C86.5559 58.1018 85.9552 58.4643 85.6882 58.7793C84.9399 59.616 84.7186 60.8117 84.5079 61.933C84.4762 62.0989 84.4481 62.2717 84.413 62.4275C84.3706 62.8615 84.1832 63.2704 83.8791 63.5928C83.2889 64.1043 82.2912 63.8841 81.6695 63.376C81.2592 63.0141 80.9043 62.5978 80.6156 62.1396C80.4997 61.9702 80.3873 61.8009 80.2643 61.6416C79.913 61.1572 79.3159 60.5678 78.6063 60.5204C77.6929 60.4628 77.0536 61.2894 76.474 62.1464C75.6625 63.3455 74.7175 63.8401 73.8463 63.5792C73.5036 63.4555 73.1922 63.2626 72.933 63.0135C71.9917 62.1773 71.2786 61.1302 70.8569 59.9649C70.7304 59.6261 70.6356 59.2637 70.5407 58.9216C70.4291 58.4787 70.2883 58.0431 70.1192 57.6174C69.9084 57.1195 69.4166 56.232 68.5349 55.9237C68.286 55.8357 68.0206 55.7992 67.7561 55.8167C67.4916 55.8342 67.2339 55.9053 66.9998 56.0253C66.2341 56.4376 65.6675 57.1239 65.4225 57.9358C65.2281 58.7044 65.1267 59.4922 65.1204 60.2833C65.1063 60.9478 65.0393 61.6103 64.9202 62.2649C64.7942 62.9928 64.3782 63.6443 63.7609 64.0806C63.5887 64.184 63.3956 64.2508 63.1945 64.2765C62.9933 64.3022 62.7889 64.2862 62.5947 64.2296C61.7551 63.9857 61.4214 63.1863 61.0982 62.4174C60.9261 61.9291 60.6722 61.4714 60.3464 61.0624C60.0887 60.7941 59.7614 60.5971 59.3982 60.4917C59.0351 60.3862 58.6493 60.3763 58.2809 60.4628C57.9272 60.5572 57.6018 60.731 57.3313 60.9701C57.0608 61.2091 56.8529 61.5066 56.7247 61.8381C56.5624 62.2966 56.4643 62.7739 56.4331 63.2574C56.405 63.5013 56.3734 63.7588 56.3312 64.006C56.1521 64.9715 55.6989 65.6456 55.049 65.9064C54.8356 65.9821 54.6088 66.0166 54.3816 66.008Z" fill="#72A276"/>
<path d="M121.077 67.8068H111.662C111.033 67.7969 110.429 67.5609 109.97 67.145C109.511 66.7292 109.229 66.1632 109.179 65.5575L108.575 56.4793C108.552 56.1906 108.591 55.9005 108.691 55.6273C108.79 55.3541 108.948 55.1039 109.153 54.8924C109.358 54.6809 109.606 54.5129 109.882 54.3988C110.158 54.2848 110.456 54.2274 110.756 54.2301H120.171C120.801 54.24 121.404 54.4759 121.863 54.8918C122.322 55.3077 122.604 55.8737 122.654 56.4793L123.258 65.5575C123.281 65.8462 123.242 66.1364 123.142 66.4096C123.043 66.6827 122.885 66.933 122.68 67.1445C122.475 67.3559 122.227 67.524 121.951 67.638C121.675 67.752 121.377 67.8095 121.077 67.8068Z" fill="#72A276"/>
<path d="M116.292 58.1731L117.062 59.5077C117.088 59.553 117.125 59.5919 117.169 59.6212C117.214 59.6506 117.265 59.6697 117.318 59.6771L118.874 59.8939C118.938 59.9033 118.998 59.9294 119.047 59.9692C119.096 60.0091 119.133 60.0612 119.154 60.1198C119.174 60.1785 119.178 60.2415 119.164 60.302C119.15 60.3625 119.119 60.4182 119.075 60.463L118.07 61.4792C118.028 61.52 117.998 61.5703 117.982 61.6254C117.966 61.6804 117.965 61.7385 117.979 61.7942L118.33 63.1898C118.345 63.2528 118.342 63.3188 118.32 63.3799C118.297 63.441 118.258 63.4947 118.205 63.5346C118.152 63.5745 118.088 63.599 118.021 63.6051C117.955 63.6113 117.887 63.5988 117.828 63.5692L116.465 62.8917C116.414 62.8662 116.358 62.8529 116.301 62.8529C116.244 62.8529 116.188 62.8662 116.138 62.8917L114.831 63.5692C114.774 63.5989 114.71 63.613 114.646 63.6099C114.581 63.6068 114.519 63.5866 114.466 63.5516C114.412 63.5166 114.37 63.4682 114.343 63.4115C114.317 63.3549 114.307 63.2922 114.315 63.2305L114.476 61.757C114.482 61.7046 114.476 61.6517 114.457 61.6023C114.438 61.5529 114.407 61.5084 114.367 61.4724L113.208 60.4562C113.159 60.4128 113.123 60.3566 113.106 60.2944C113.088 60.2322 113.09 60.1665 113.109 60.1049C113.129 60.0434 113.167 59.9886 113.218 59.947C113.269 59.9055 113.332 59.8788 113.398 59.8702L114.831 59.6669C114.89 59.6585 114.946 59.6357 114.993 59.6007C115.04 59.5658 115.078 59.5198 115.102 59.4671L115.667 58.1934C115.695 58.1369 115.738 58.0888 115.792 58.0545C115.846 58.0201 115.909 58.0008 115.973 57.9987C116.038 57.9966 116.102 58.0118 116.158 58.0426C116.215 58.0733 116.261 58.1185 116.292 58.1731Z" fill="white"/>
</g>
<defs>
<filter id="filter0_d" x="0.148193" y="0.0585938" width="183.643" height="134.201" filterUnits="userSpaceOnUse" color-interpolation-filters="sRGB">
<feFlood flood-opacity="0" result="BackgroundImageFix"/>
<feColorMatrix in="SourceAlpha" type="matrix" values="0 0 0 0 0 0 0 0 0 0 0 0 0 0 0 0 0 0 127 0"/>
<feOffset dy="4"/>
<feGaussianBlur stdDeviation="2"/>
<feColorMatrix type="matrix" values="0 0 0 0 0 0 0 0 0 0 0 0 0 0 0 0 0 0 0.16 0"/>
<feBlend mode="normal" in2="BackgroundImageFix" result="effect1_dropShadow"/>
<feBlend mode="normal" in="SourceGraphic" in2="effect1_dropShadow" result="shape"/>
</filter>
</defs>
</svg>
