<svg width="308" height="233" viewBox="0 0 308 233" fill="none" xmlns="http://www.w3.org/2000/svg">
<g filter="url(#filter0_d)">
<path d="M304 197.087H4V197.237H304V197.087Z" fill="#EBEBEB"/>
<path d="M273.94 206.741H254.068V206.891H273.94V206.741Z" fill="#EBEBEB"/>
<path d="M165.916 204.911H147.784V205.061H165.916V204.911Z" fill="#EBEBEB"/>
<path d="M253.468 201.173H211.534V201.323H253.468V201.173Z" fill="#EBEBEB"/>
<path d="M135.76 202.181H35.4761V202.331H135.76V202.181Z" fill="#EBEBEB"/>
<path d="M144.898 202.181H141.1V202.331H144.898V202.181Z" fill="#EBEBEB"/>
<path d="M146.2 170.327H30.346C29.4384 170.325 28.5686 169.964 27.9274 169.321C27.2862 168.679 26.926 167.809 26.926 166.901V4.04297C26.9339 3.14059 27.2975 2.27776 27.9379 1.6419C28.5782 1.00605 29.4436 0.648518 30.346 0.646973H146.2C147.109 0.646973 147.98 1.00793 148.623 1.65042C149.265 2.29292 149.626 3.16434 149.626 4.07297V166.901C149.626 167.81 149.265 168.681 148.623 169.324C147.98 169.966 147.109 170.327 146.2 170.327ZM30.346 0.766973C29.4782 0.768563 28.6465 1.11441 28.0334 1.72861C27.4203 2.34281 27.076 3.17516 27.076 4.04297V166.901C27.076 167.769 27.4203 168.601 28.0334 169.215C28.6465 169.83 29.4782 170.175 30.346 170.177H146.2C147.068 170.175 147.901 169.83 148.515 169.216C149.129 168.602 149.474 167.769 149.476 166.901V4.04297C149.474 3.17461 149.129 2.34227 148.515 1.72824C147.901 1.11422 147.068 0.768559 146.2 0.766973H30.346Z" fill="#EBEBEB"/>
<path d="M275.986 170.327H160.126C159.218 170.325 158.347 169.964 157.705 169.322C157.063 168.68 156.702 167.809 156.7 166.901V4.04297C156.709 3.14004 157.074 2.27722 157.716 1.64153C158.357 1.00584 159.223 0.648502 160.126 0.646973H275.986C276.887 0.650095 277.751 1.00832 278.39 1.64401C279.029 2.2797 279.392 3.14162 279.4 4.04297V166.901C279.4 167.808 279.041 168.677 278.401 169.319C277.761 169.961 276.892 170.324 275.986 170.327ZM160.126 0.766973C159.258 0.768559 158.425 1.11422 157.811 1.72824C157.197 2.34227 156.852 3.17461 156.85 4.04297V166.901C156.852 167.769 157.197 168.602 157.811 169.216C158.425 169.83 159.258 170.175 160.126 170.177H275.986C276.854 170.175 277.687 169.83 278.301 169.216C278.915 168.602 279.26 167.769 279.262 166.901V4.04297C279.26 3.17461 278.915 2.34227 278.301 1.72824C277.687 1.11422 276.854 0.768559 275.986 0.766973H160.126Z" fill="#EBEBEB"/>
<path d="M107.662 100.397L246.406 100.397V11.195L107.662 11.195V100.397Z" fill="#F0F0F0"/>
<path d="M107.668 11.1948H106.42V100.397H107.668V11.1948Z" fill="#E6E6E6"/>
<path d="M242.806 96.7969V14.7949L111.262 14.7949V96.7969L242.806 96.7969Z" fill="#FAFAFA"/>
<path d="M168.316 120.197H150.886V197.087H168.316V120.197Z" fill="#E6E6E6"/>
<path d="M162.778 197.087H168.316V186.473H156.976L162.778 197.087Z" fill="#FAFAFA"/>
<path d="M51.772 120.197H34.342V197.087H51.772V120.197Z" fill="#E6E6E6"/>
<path d="M168.316 120.197H46.948V193.433H168.316V120.197Z" fill="#FAFAFA"/>
<path d="M52.48 197.087H46.948V186.473H58.282L52.48 197.087Z" fill="#FAFAFA"/>
<path d="M164.02 147.491H51.238V165.821H164.02V147.491Z" fill="#F0F0F0"/>
<path d="M164.02 169.733H51.238V188.063H164.02V169.733Z" fill="#F0F0F0"/>
<path d="M59.53 145.901H155.728V147.047C155.728 147.684 155.475 148.294 155.025 148.744C154.575 149.195 153.965 149.447 153.328 149.447H61.936C61.2995 149.447 60.6891 149.195 60.239 148.744C59.7889 148.294 59.536 147.684 59.536 147.047V145.901H59.53Z" fill="#FAFAFA"/>
<path d="M164.02 125.243H51.238V143.573H164.02V125.243Z" fill="#F0F0F0"/>
<path d="M59.53 123.647H155.728V124.793C155.728 125.43 155.475 126.04 155.025 126.491C154.575 126.941 153.965 127.193 153.328 127.193H61.936C61.2995 127.193 60.6891 126.941 60.239 126.491C59.7889 126.04 59.536 125.43 59.536 124.793V123.647H59.53Z" fill="#FAFAFA"/>
<path d="M59.53 168.143H155.728V169.289C155.728 169.926 155.475 170.536 155.025 170.986C154.575 171.436 153.965 171.689 153.328 171.689H61.936C61.2995 171.689 60.6891 171.436 60.239 170.986C59.7889 170.536 59.536 169.926 59.536 169.289V168.143H59.53Z" fill="#FAFAFA"/>
<path d="M244.066 121.205C248.95 113.375 264.046 91.9973 289.186 80.7653C289.54 80.6093 289.252 80.2194 288.868 80.3394C287.597 80.7447 286.349 81.2195 285.13 81.7613C284.818 81.8993 284.458 81.6353 284.668 81.4193C286.621 79.4512 288.711 77.6227 290.92 75.9473C291.196 75.7373 290.8 75.4193 290.464 75.5873C288.068 76.7694 285.82 78.2316 283.768 79.9433C283.498 80.1713 282.994 79.9433 283.21 79.6673C283.864 78.8873 284.596 78.0594 285.406 77.2074C285.634 76.9734 285.178 76.7033 284.884 76.9013C281.138 79.3585 278.088 82.7391 276.028 86.7173H275.992C277.672 82.8283 279.824 79.1608 282.4 75.7973C282.586 75.5513 282.112 75.3113 281.848 75.5213C280.066 76.8857 278.426 78.4254 276.952 80.1173C276.73 80.3693 276.178 80.1654 276.352 79.8894C276.526 79.6134 276.784 79.2053 277.018 78.8633C277.252 78.5213 276.706 78.3953 276.418 78.5993C274.193 80.3969 272.196 82.4603 270.472 84.7433C270.268 85.0073 269.71 84.8333 269.872 84.5513C271.144 81.9734 272.565 79.4712 274.126 77.0574C274.294 76.8054 273.808 76.5833 273.556 76.7993C264.886 84.0593 262.084 94.2773 261.364 97.6433C262.59 91.1772 264.594 84.8833 267.334 78.8993C267.46 78.6353 266.944 78.4554 266.734 78.6894C264.348 81.1978 262.348 84.0469 260.8 87.1433C260.662 87.4253 260.056 87.3053 260.146 87.0113C260.548 85.7393 261.004 84.4433 261.52 83.1473C261.628 82.8773 261.112 82.7153 260.92 82.9493C257.721 86.6696 255.223 90.9385 253.546 95.5493C253.438 95.8433 252.802 95.7414 252.886 95.4414C253.387 93.5432 254.02 91.6826 254.782 89.8734C254.89 89.6154 254.404 89.4473 254.182 89.6633C251.77 91.985 249.91 94.8187 248.74 97.9553C248.626 98.2433 248.02 98.1593 248.068 97.8594C248.332 96.3713 248.668 94.8593 249.1 93.2813C249.172 93.0173 248.668 92.8793 248.47 93.1133C245.923 96.1991 244.227 99.8975 243.55 103.841C243.496 104.141 242.872 104.111 242.872 103.811C242.877 101.578 243.048 99.3477 243.382 97.1394C243.424 96.8694 242.902 96.7614 242.734 97.0074C236.164 106.379 240.538 119.807 240.622 120.041L241.042 121.055C241.456 122.081 243.46 122.177 244.066 121.205Z" fill="#F5F5F5"/>
<path d="M232.744 121.655C228.994 116.855 217.678 103.883 201.052 99.1668C200.818 99.0948 200.962 98.7948 201.214 98.8308C202.04 98.9569 202.858 99.1332 203.662 99.3588C203.866 99.4188 204.064 99.1908 203.914 99.0708C202.534 97.962 201.072 96.9591 199.54 96.0708C199.348 95.9568 199.54 95.6928 199.786 95.7708C201.393 96.3012 202.924 97.0395 204.34 97.9668C204.532 98.0928 204.82 97.8588 204.664 97.7088C204.184 97.2468 203.656 96.7668 203.074 96.2748C202.912 96.1428 203.17 95.8968 203.374 95.9988C205.977 97.2997 208.183 99.2742 209.764 101.717C208.396 99.257 206.73 96.9757 204.802 94.9248C204.664 94.7748 204.934 94.5528 205.12 94.6608C206.369 95.3968 207.535 96.2637 208.6 97.2468C208.762 97.3968 209.086 97.1868 208.954 97.0188C208.822 96.8508 208.624 96.5988 208.45 96.3888C208.276 96.1788 208.6 96.0228 208.78 96.1368C210.342 97.1283 211.771 98.3138 213.034 99.6648C213.178 99.8208 213.514 99.6348 213.4 99.4548C212.382 97.839 211.272 96.2825 210.076 94.7928C209.95 94.6368 210.226 94.4268 210.406 94.5408C216.448 98.5128 219.118 105.233 219.874 107.477C218.549 103.203 216.737 99.0963 214.474 95.2368C214.378 95.0688 214.678 94.8828 214.834 95.0208C216.556 96.4967 218.045 98.2242 219.25 100.145C219.364 100.325 219.724 100.145 219.64 99.9768C219.274 99.1488 218.878 98.3088 218.44 97.4688C218.35 97.3008 218.65 97.1268 218.806 97.2648C221.167 99.4985 223.104 102.141 224.524 105.065C224.626 105.257 225.01 105.113 224.932 104.909C224.448 103.674 223.885 102.471 223.246 101.309C223.156 101.147 223.438 100.967 223.6 101.093C225.344 102.448 226.757 104.182 227.734 106.163C227.83 106.349 228.202 106.217 228.142 106.019C227.842 105.023 227.494 103.997 227.086 102.977C227.014 102.803 227.314 102.647 227.458 102.785C229.364 104.677 230.752 107.025 231.49 109.607C231.556 109.805 231.94 109.709 231.91 109.499C231.703 107.964 231.395 106.445 230.986 104.951C230.938 104.771 231.25 104.633 231.376 104.777C236.308 110.465 234.814 120.263 234.784 120.449L234.622 121.199C234.559 121.38 234.451 121.542 234.308 121.671C234.166 121.8 233.994 121.891 233.807 121.937C233.62 121.982 233.425 121.98 233.24 121.931C233.054 121.882 232.884 121.787 232.744 121.655Z" fill="#FAFAFA"/>
<path d="M231.772 113.447C227.632 107.063 214.882 89.6573 194.062 80.6573C193.768 80.5313 193.996 80.2133 194.314 80.3093C195.364 80.6272 196.396 81.0038 197.404 81.4373C197.668 81.5513 197.956 81.3293 197.776 81.1553C196.142 79.5573 194.397 78.0757 192.556 76.7213C192.328 76.5473 192.646 76.2893 192.922 76.4213C194.912 77.3692 196.783 78.5495 198.496 79.9373C198.718 80.1233 199.096 79.9373 198.946 79.7093C198.394 79.0733 197.782 78.4013 197.104 77.7113C196.912 77.5133 197.278 77.2913 197.524 77.4533C200.64 79.435 203.199 82.1797 204.958 85.4273H204.988C203.559 82.2423 201.745 79.2441 199.588 76.4993C199.432 76.3013 199.81 76.1033 200.038 76.2713C201.52 77.3767 202.891 78.6247 204.13 79.9973C204.316 80.2013 204.766 80.0333 204.622 79.8053C204.478 79.5773 204.256 79.2533 204.058 78.9713C203.86 78.6893 204.304 78.5813 204.52 78.7493C206.379 80.2021 208.053 81.8765 209.506 83.7353C209.674 83.9513 210.106 83.8013 210.016 83.5733C208.929 81.473 207.727 79.4339 206.416 77.4653C206.272 77.2553 206.662 77.0753 206.878 77.2493C214.114 83.1293 216.592 91.4813 217.234 94.2413C216.117 88.9419 214.364 83.7967 212.014 78.9173C211.912 78.7013 212.326 78.5513 212.512 78.7373C214.495 80.7733 216.166 83.0901 217.474 85.6133C217.594 85.8473 218.074 85.7453 218.008 85.4993C217.654 84.4613 217.258 83.4053 216.808 82.3433C216.718 82.1273 217.138 81.9893 217.312 82.1813C219.999 85.1999 222.121 88.6773 223.576 92.4473C223.672 92.6933 224.176 92.6033 224.122 92.3573C223.674 90.8055 223.12 89.286 222.466 87.8093C222.376 87.5933 222.766 87.4493 222.958 87.6293C224.978 89.5092 226.554 91.8149 227.572 94.3793C227.662 94.6133 228.172 94.5413 228.118 94.3013C227.872 93.1013 227.572 91.8233 227.194 90.5513C227.128 90.3353 227.542 90.2213 227.704 90.4073C229.839 92.914 231.287 95.9327 231.904 99.1673C231.952 99.4133 232.468 99.3833 232.462 99.1673C232.418 97.3326 232.24 95.5037 231.928 93.6953C231.886 93.4733 232.312 93.3833 232.456 93.5813C238.006 101.219 234.652 112.253 234.586 112.457L234.262 113.291C233.926 114.149 232.288 114.245 231.772 113.447Z" fill="#E6E6E6"/>
<path d="M249.646 114.725C253.408 111.623 264.49 103.325 278.176 100.637C278.368 100.601 278.314 100.397 278.11 100.415C277.445 100.472 276.784 100.566 276.13 100.697C275.956 100.727 275.842 100.571 275.986 100.499C277.256 99.7911 278.566 99.158 279.91 98.6031C280.078 98.5311 279.958 98.3511 279.772 98.3931C278.428 98.7102 277.117 99.1584 275.86 99.7311C275.692 99.8091 275.512 99.6471 275.656 99.5511C276.112 99.2631 276.604 98.9511 277.144 98.6451C277.294 98.5551 277.144 98.3931 276.964 98.4531C274.745 99.2201 272.713 100.447 271 102.053C272.536 100.428 274.23 98.961 276.058 97.6731C276.19 97.5771 276.022 97.4271 275.86 97.4931C274.773 97.9479 273.726 98.4917 272.728 99.1191C272.572 99.2151 272.362 99.0651 272.494 98.9571C272.626 98.8491 272.824 98.6871 272.998 98.5491C273.172 98.4111 272.95 98.3091 272.788 98.3751C271.411 98.9868 270.099 99.7346 268.87 100.607C268.726 100.703 268.504 100.571 268.624 100.457C269.608 99.4971 270.754 98.4711 272.032 97.4571C272.158 97.3551 271.978 97.2111 271.822 97.2831C267.919 99.1731 264.583 102.058 262.15 105.647C264.006 102.777 266.149 100.104 268.546 97.6671C268.654 97.5531 268.456 97.4271 268.312 97.5111C266.739 98.4288 265.283 99.5328 263.974 100.799C263.854 100.913 263.602 100.799 263.704 100.673C264.136 100.133 264.592 99.5871 265.084 99.0411C265.186 98.9271 264.982 98.8071 264.838 98.8911C262.656 100.275 260.691 101.973 259.006 103.931C258.898 104.057 258.628 103.931 258.724 103.817C259.332 102.995 259.985 102.208 260.68 101.459C260.782 101.351 260.59 101.225 260.446 101.303C258.888 102.128 257.495 103.233 256.336 104.561C256.228 104.681 255.964 104.561 256.048 104.453C256.462 103.799 256.918 103.133 257.416 102.461C257.5 102.347 257.296 102.239 257.158 102.323C255.407 103.467 253.925 104.978 252.814 106.751C252.73 106.877 252.448 106.805 252.508 106.667C252.956 105.635 253.469 104.633 254.044 103.667C254.116 103.547 253.9 103.451 253.78 103.547C248.938 107.189 248.314 113.747 248.308 113.867V114.371C248.284 114.875 249.178 115.109 249.646 114.725Z" fill="#E6E6E6"/>
<path d="M245.2 118.157C244.36 110.855 243.4 90.407 255.862 74.729C256.036 74.507 255.598 74.297 255.376 74.501C254.657 75.1612 253.989 75.8753 253.378 76.637C253.222 76.835 252.778 76.739 252.832 76.517C253.161 74.4982 253.681 72.5153 254.386 70.595C254.47 70.355 253.996 70.2351 253.84 70.4571C252.711 72.0381 251.853 73.7962 251.302 75.6591C251.23 75.9111 250.702 75.869 250.702 75.611C250.744 74.837 250.822 74.003 250.942 73.133C250.978 72.887 250.474 72.815 250.372 73.049C248.963 76.165 248.609 79.6557 249.364 82.9911C248.398 79.7148 247.889 76.3207 247.852 72.905C247.852 72.665 247.36 72.6231 247.252 72.8571C246.692 74.4255 246.344 76.0622 246.22 77.7231C246.22 77.9811 245.662 77.9811 245.62 77.7231C245.578 77.4651 245.554 77.0811 245.524 76.7571C245.494 76.4331 245.02 76.4931 244.924 76.7571C244.278 78.8078 243.966 80.9492 244 83.099C244 83.351 243.472 83.381 243.4 83.129C242.893 80.8606 242.532 78.5618 242.32 76.247C242.32 76.007 241.81 75.983 241.72 76.217C239.374 84.179 243.16 92.681 244.564 95.417C241.841 90.4036 239.719 85.087 238.24 79.5771C238.18 79.337 237.694 79.3551 237.64 79.5771C237.312 82.2645 237.464 84.9889 238.09 87.6231C238.144 87.8811 237.622 87.959 237.49 87.713C237.058 86.639 236.656 85.5351 236.29 84.4071C236.212 84.1731 235.732 84.1971 235.69 84.4071C235.318 88.2531 236.188 92.381 237.406 96.017C237.496 96.275 236.956 96.3771 236.842 96.1251C236.137 94.5892 235.535 93.0076 235.042 91.3911C234.976 91.1631 234.514 91.1751 234.442 91.3911C233.981 94.006 234.217 96.6962 235.126 99.1911C235.21 99.4431 234.7 99.557 234.568 99.317C233.908 98.117 233.272 96.863 232.702 95.567C232.6 95.345 232.144 95.393 232.102 95.621C231.91 98.969 233.026 102.221 234.592 105.125C234.718 105.365 234.232 105.521 234.058 105.293C232.796 103.641 231.638 101.911 230.59 100.115C230.464 99.905 229.99 99.971 230.026 100.205C230.488 109.157 241.522 118.001 241.732 118.169L242.632 118.817C243.712 119.567 245.272 119.063 245.2 118.157Z" fill="#E0E0E0"/>
<path d="M257.152 108.905C257.908 108.905 258.656 109.058 259.351 109.355C260.046 109.652 260.674 110.086 261.196 110.633C261.719 111.179 262.125 111.825 262.391 112.532C262.657 113.24 262.777 113.994 262.744 114.749C262 131.093 258.298 136.745 240.082 136.745C221.866 136.745 218.164 131.093 217.426 114.749C217.392 113.994 217.511 113.239 217.777 112.531C218.043 111.824 218.449 111.177 218.972 110.631C219.495 110.084 220.123 109.65 220.818 109.353C221.514 109.057 222.262 108.904 223.018 108.905H257.152Z" fill="#EBEBEB"/>
<path d="M52.114 110.597C49.87 105.767 42.94 92.5666 31.396 85.6366C31.366 85.6148 31.3451 85.5826 31.3375 85.5463C31.3298 85.5099 31.3359 85.472 31.3546 85.4399C31.3732 85.4078 31.4031 85.3838 31.4385 85.3725C31.4739 85.3611 31.5122 85.3633 31.546 85.3786C32.139 85.6276 32.7126 85.9204 33.262 86.2546C33.292 86.2713 33.3266 86.2777 33.3606 86.2727C33.3945 86.2677 33.4259 86.2517 33.4498 86.2271C33.4737 86.2025 33.4888 86.1707 33.4928 86.1366C33.4969 86.1026 33.4895 86.0681 33.472 86.0386C32.5949 84.848 31.6366 83.7193 30.604 82.6606C30.478 82.5346 30.658 82.3366 30.808 82.4386C31.946 83.2001 32.9806 84.1056 33.886 85.1326C34.012 85.2706 34.24 85.1326 34.144 84.9586C33.844 84.4786 33.508 83.9686 33.136 83.4406C33.028 83.2966 33.238 83.1286 33.376 83.2546C35.1879 84.927 36.5796 87.0032 37.438 89.3146C36.6938 86.9691 35.7127 84.7054 34.51 82.5586C34.42 82.4086 34.636 82.2586 34.762 82.3906C35.5993 83.2674 36.3489 84.224 37 85.2466C37.102 85.4086 37.36 85.2766 37.282 85.1086L37 84.4606C36.922 84.3106 37.138 84.1726 37.258 84.3046C38.3155 85.4562 39.2356 86.7268 40 88.0906C40.09 88.2526 40.348 88.1506 40.282 87.9766C39.748 86.5306 39.082 84.9766 38.332 83.3506C38.3201 83.3172 38.3199 83.2807 38.3315 83.2471C38.3431 83.2135 38.3659 83.1849 38.396 83.166C38.4261 83.1471 38.4617 83.1391 38.497 83.1432C38.5323 83.1473 38.5651 83.1633 38.59 83.1886C42.574 87.6706 43.858 93.9886 44.188 96.0586C43.6367 92.1256 42.7187 88.2527 41.446 84.4906C41.4371 84.4557 41.4406 84.4187 41.4559 84.3861C41.4712 84.3534 41.4974 84.3271 41.5299 84.3115C41.5624 84.2959 41.5994 84.2921 41.6344 84.3007C41.6694 84.3093 41.7004 84.3298 41.722 84.3586C42.842 85.9726 43.7476 87.7253 44.416 89.5726C44.482 89.7466 44.764 89.6746 44.722 89.4946C44.536 88.7086 44.326 87.9106 44.092 87.0946C44.038 86.9326 44.278 86.8306 44.374 86.9746C45.8909 89.3881 47.0319 92.0181 47.758 94.7746C47.812 94.9546 48.1 94.8946 48.064 94.7086C47.8361 93.5405 47.5477 92.3849 47.2 91.2466C47.146 91.0906 47.368 90.9826 47.476 91.1206C48.6302 92.6475 49.4778 94.3835 49.972 96.2326C49.9859 96.2669 50.0111 96.2954 50.0435 96.3134C50.0758 96.3314 50.1133 96.3377 50.1498 96.3314C50.1863 96.3251 50.2194 96.3065 50.2439 96.2787C50.2683 96.2509 50.2825 96.2156 50.284 96.1786C50.158 95.2606 50.008 94.3126 49.81 93.3526C49.803 93.3165 49.8091 93.279 49.8271 93.2469C49.8451 93.2147 49.8739 93.19 49.9084 93.1771C49.9429 93.1641 49.9809 93.1638 50.0156 93.1762C50.0503 93.1886 50.0795 93.2128 50.098 93.2446C51.3035 95.2626 52.072 97.511 52.354 99.8446C52.354 99.886 52.3705 99.9257 52.3997 99.955C52.429 99.9842 52.4686 100.001 52.51 100.001C52.5514 100.001 52.5911 99.9842 52.6203 99.955C52.6496 99.9257 52.666 99.886 52.666 99.8446C52.6684 98.4674 52.5923 97.0912 52.438 95.7226C52.4368 95.6873 52.4476 95.6526 52.4686 95.6243C52.4897 95.5959 52.5198 95.5755 52.5539 95.5664C52.5881 95.5574 52.6243 95.5602 52.6567 95.5744C52.689 95.5886 52.7156 95.6134 52.732 95.6446C55.732 101.429 53.74 109.703 53.704 109.859L53.518 110.459C53.4773 110.606 53.3929 110.737 53.2761 110.835C53.1592 110.934 53.0153 110.994 52.8634 111.009C52.7114 111.024 52.5585 110.993 52.4247 110.919C52.2909 110.846 52.1826 110.733 52.114 110.597Z" fill="#F5F5F5"/>
<path d="M58 110.801C59.344 107.495 63.52 98.4886 70.714 94.0006C70.7319 93.9847 70.744 93.9632 70.7484 93.9396C70.7528 93.916 70.7492 93.8916 70.7382 93.8703C70.7272 93.849 70.7094 93.8319 70.6876 93.8218C70.6659 93.8117 70.6413 93.8092 70.618 93.8146C70.2453 93.9709 69.8861 94.1576 69.544 94.3726C69.454 94.4326 69.346 94.3126 69.406 94.2226C69.9389 93.4234 70.5284 92.6635 71.17 91.9486C71.248 91.8586 71.134 91.7206 71.038 91.7866C70.3219 92.2957 69.6798 92.9014 69.13 93.5866C69.058 93.6826 68.908 93.5866 68.968 93.4606C69.148 93.1366 69.352 92.7886 69.568 92.4346C69.634 92.3326 69.496 92.2126 69.418 92.2966C68.2727 93.4468 67.4226 94.8569 66.94 96.4066C67.367 94.8097 67.954 93.2598 68.692 91.7806C68.74 91.6786 68.602 91.5706 68.524 91.6546C68.0028 92.2448 67.5425 92.8861 67.15 93.5686C67.09 93.6766 66.928 93.5686 66.97 93.4666L67.156 93.0286C67.198 92.9266 67.06 92.8246 66.988 92.9146C66.3323 93.6994 65.7723 94.5595 65.32 95.4766C65.266 95.5906 65.098 95.5066 65.134 95.3866C65.452 94.3966 65.836 93.3166 66.298 92.2186C66.346 92.1106 66.202 92.0086 66.13 92.0986C63.682 95.0986 62.968 99.4726 62.794 100.913C63.0766 98.2077 63.5986 95.5332 64.354 92.9206C64.384 92.8066 64.234 92.7286 64.174 92.8246C63.4809 93.9356 62.9344 95.1315 62.548 96.3826C62.512 96.5026 62.332 96.4426 62.356 96.3166C62.464 95.7766 62.584 95.2246 62.722 94.6726C62.722 94.5586 62.596 94.4806 62.536 94.5826C61.604 96.2469 60.9245 98.0405 60.52 99.9046C60.49 100.037 60.304 99.9826 60.322 99.8506C60.448 99.0886 60.61 98.2906 60.82 97.4506C60.82 97.3426 60.706 97.2646 60.646 97.3546C59.9228 98.4117 59.4077 99.5968 59.128 100.847C59.128 100.967 58.924 100.925 58.936 100.799C58.996 100.163 59.08 99.5026 59.194 98.8366C59.194 98.7286 59.062 98.6626 59.008 98.7586C58.262 100.171 57.8109 101.72 57.682 103.313C57.6765 103.335 57.6637 103.354 57.6458 103.368C57.6279 103.382 57.6057 103.39 57.583 103.39C57.5602 103.39 57.5381 103.382 57.5201 103.368C57.5022 103.354 57.4894 103.335 57.484 103.313C57.4618 102.356 57.4898 101.398 57.568 100.445C57.568 100.331 57.424 100.277 57.382 100.379C55.582 104.333 56.956 110.153 56.98 110.261L57.106 110.705C57.1236 110.805 57.1732 110.896 57.2473 110.965C57.3214 111.034 57.416 111.078 57.5169 111.089C57.6177 111.099 57.7194 111.077 57.8065 111.025C57.8936 110.973 57.9615 110.894 58 110.801Z" fill="#F5F5F5"/>
<path d="M57.7599 105.815C59.6619 101.873 65.5119 91.1271 75.0699 85.5771C75.0986 85.562 75.12 85.5361 75.1296 85.5052C75.1392 85.4743 75.136 85.4408 75.1209 85.4121C75.1058 85.3835 75.0799 85.362 75.049 85.3525C75.018 85.3429 74.9846 85.346 74.9559 85.3611C74.4684 85.5601 73.9952 85.7926 73.5399 86.0571C73.5157 86.0726 73.487 86.0793 73.4585 86.0762C73.4299 86.0731 73.4033 86.0603 73.383 86.04C73.3627 86.0197 73.35 85.9931 73.3469 85.9646C73.3438 85.9361 73.3505 85.9073 73.3659 85.8831C74.1007 84.9159 74.9027 84.0016 75.7659 83.1471C75.7867 83.124 75.7982 83.0939 75.7982 83.0628C75.7982 83.0316 75.7866 83.0016 75.7657 82.9784C75.7448 82.9553 75.7161 82.9408 75.6851 82.9376C75.6542 82.9344 75.6231 82.9428 75.5979 82.9611C74.654 83.5718 73.7928 84.3018 73.0359 85.1331C72.9339 85.2471 72.7479 85.1331 72.8319 84.9891C73.0839 84.5931 73.3659 84.1791 73.6779 83.7891C73.6903 83.7626 73.6935 83.7326 73.687 83.704C73.6804 83.6754 73.6646 83.6498 73.6419 83.6312C73.6192 83.6126 73.5909 83.6021 73.5616 83.6014C73.5323 83.6007 73.5035 83.6097 73.4799 83.6271C71.9728 84.9787 70.8053 86.6663 70.0719 88.5531C70.7144 86.638 71.5486 84.7926 72.5619 83.0451C72.6399 82.9191 72.4599 82.7991 72.3579 82.9011C71.6598 83.6053 71.031 84.3748 70.4799 85.1991C70.3959 85.3311 70.1859 85.1991 70.2519 85.0851C70.3179 84.9711 70.4199 84.7371 70.5099 84.5691C70.5253 84.5413 70.5297 84.5088 70.522 84.4779C70.5144 84.4471 70.4955 84.4202 70.4689 84.4028C70.4423 84.3853 70.4102 84.3785 70.3788 84.3838C70.3475 84.3891 70.3193 84.406 70.2999 84.4311C69.4193 85.3649 68.6501 86.3978 68.0079 87.5091C67.9944 87.5402 67.9691 87.5646 67.9376 87.5769C67.9061 87.5893 67.8709 87.5887 67.8399 87.5751C67.8089 87.5616 67.7845 87.5363 67.7721 87.5048C67.7597 87.4733 67.7604 87.4382 67.7739 87.4071C68.2299 86.2071 68.7819 84.9411 69.4359 83.6391C69.4513 83.6113 69.4557 83.5788 69.448 83.5479C69.4404 83.5171 69.4215 83.4902 69.3949 83.4728C69.3683 83.4553 69.3362 83.4485 69.3048 83.4538C69.2735 83.4591 69.2453 83.476 69.2259 83.5011C65.9019 87.1311 64.7679 92.2911 64.4679 93.9951C64.9701 90.7749 65.7736 87.6091 66.8679 84.5391C66.8737 84.5107 66.8699 84.4811 66.8572 84.455C66.8445 84.4289 66.8236 84.4078 66.7976 84.3948C66.7716 84.3818 66.7421 84.3777 66.7136 84.3832C66.6851 84.3887 66.6592 84.4034 66.6399 84.4251C65.704 85.7384 64.9398 87.166 64.3659 88.6731C64.3564 88.7058 64.3343 88.7333 64.3044 88.7496C64.2746 88.7659 64.2395 88.7697 64.2069 88.7601C64.1743 88.7506 64.1468 88.7285 64.1305 88.6987C64.1142 88.6688 64.1104 88.6338 64.1199 88.6011C64.2819 87.9591 64.4619 87.3111 64.6659 86.6511C64.6746 86.6219 64.6723 86.5905 64.6596 86.5627C64.6468 86.535 64.6244 86.5128 64.5965 86.5004C64.5687 86.4879 64.5372 86.486 64.5081 86.4949C64.4789 86.5039 64.454 86.5232 64.4379 86.5491C63.1628 88.5054 62.1918 90.6437 61.5579 92.8911C61.55 92.9238 61.5294 92.9519 61.5007 92.9693C61.472 92.9868 61.4375 92.9921 61.4049 92.9841C61.3723 92.9762 61.3442 92.9556 61.3267 92.9269C61.3093 92.8982 61.304 92.8638 61.3119 92.8311C61.5125 91.882 61.7649 90.9446 62.0679 90.0231C62.0822 89.9929 62.084 89.9582 62.0727 89.9267C62.0615 89.8952 62.0381 89.8695 62.0079 89.8551C61.9777 89.8408 61.943 89.8391 61.9115 89.8503C61.88 89.8616 61.8542 89.8849 61.8399 89.9151C60.8746 91.1544 60.1575 92.5682 59.7279 94.0791C59.7215 94.1126 59.7022 94.1421 59.674 94.1612C59.6459 94.1803 59.6113 94.1875 59.5779 94.1811C59.5445 94.1748 59.515 94.1554 59.4958 94.1273C59.4767 94.0991 59.4695 94.0646 59.4759 94.0311C59.5839 93.2811 59.7279 92.5011 59.9019 91.7211C59.9054 91.6918 59.8989 91.6622 59.8835 91.637C59.8682 91.6118 59.8448 91.5925 59.8172 91.5821C59.7895 91.5718 59.7592 91.571 59.7311 91.5798C59.7029 91.5887 59.6786 91.6068 59.6619 91.6311C58.6447 93.2755 57.9845 95.1152 57.7239 97.0311C57.7239 97.0645 57.7106 97.0966 57.687 97.1202C57.6634 97.1439 57.6313 97.1571 57.5979 97.1571C57.5645 97.1571 57.5325 97.1439 57.5088 97.1202C57.4852 97.0966 57.4719 97.0645 57.4719 97.0311C57.4887 95.9015 57.5688 94.7738 57.7119 93.6531C57.7176 93.6226 57.7118 93.591 57.6957 93.5644C57.6795 93.5379 57.654 93.5182 57.6243 93.5093C57.5945 93.5004 57.5624 93.5028 57.5343 93.516C57.5062 93.5293 57.484 93.5525 57.4719 93.5811C54.9219 98.2971 56.4639 105.107 56.4939 105.233L56.6439 105.749C56.6811 105.864 56.7521 105.965 56.8476 106.039C56.9432 106.113 57.0588 106.156 57.1794 106.163C57.2999 106.171 57.4199 106.141 57.5235 106.079C57.627 106.017 57.7094 105.925 57.7599 105.815Z" fill="#E6E6E6"/>
<path d="M49.5521 106.601C47.8241 104.687 42.7361 99.5628 36.4541 97.9008C36.3641 97.9008 36.3941 97.7568 36.4541 97.7628C36.7615 97.8042 37.066 97.8643 37.3661 97.9428C37.3823 97.9483 37.4 97.9478 37.4159 97.9415C37.4318 97.9351 37.445 97.9232 37.4529 97.908C37.4609 97.8928 37.4632 97.8753 37.4593 97.8586C37.4555 97.8419 37.4459 97.8271 37.4321 97.8168C36.86 97.3855 36.2585 96.9945 35.6321 96.6468C35.6183 96.6366 35.6087 96.6218 35.6048 96.6051C35.601 96.5883 35.6033 96.5708 35.6112 96.5556C35.6192 96.5404 35.6323 96.5286 35.6482 96.5222C35.6642 96.5158 35.6818 96.5153 35.6981 96.5208C36.3295 96.7199 36.9341 96.996 37.4981 97.3428C37.5761 97.3908 37.6601 97.2948 37.5941 97.2348C37.3841 97.0548 37.1561 96.8628 36.9101 96.6708C36.8381 96.6168 36.9101 96.5148 36.9941 96.5568C38.0665 97.0818 39.0029 97.8478 39.7301 98.7948C39.0462 97.8211 38.2685 96.9167 37.4081 96.0948C37.393 96.0829 37.3832 96.0654 37.381 96.0463C37.3787 96.0272 37.3841 96.0079 37.3961 95.9928C37.408 95.9777 37.4255 95.9679 37.4446 95.9657C37.4637 95.9634 37.483 95.9689 37.4981 95.9808C38.0071 96.271 38.4891 96.6064 38.9381 96.9828C39.0041 97.0428 39.1061 96.9528 39.0461 96.8868L38.8121 96.6348C38.7521 96.5748 38.8121 96.4848 38.9081 96.5268C39.5572 96.9166 40.1609 97.3774 40.7081 97.9008C40.7741 97.9608 40.8761 97.9008 40.8221 97.8108C40.3661 97.2108 39.8441 96.5808 39.2561 95.9508C39.1961 95.8908 39.2561 95.8008 39.3521 95.8428C41.8241 97.3728 43.3301 100.085 43.7801 100.991C42.9516 99.263 41.9675 97.6142 40.8401 96.0648C40.8338 96.0577 40.8289 96.0495 40.8258 96.0405C40.8227 96.0315 40.8214 96.0221 40.822 96.0126C40.8225 96.0031 40.8249 95.9938 40.8291 95.9853C40.8332 95.9768 40.839 95.9691 40.8461 95.9628C40.8532 95.9565 40.8614 95.9517 40.8704 95.9486C40.8794 95.9455 40.8889 95.9441 40.8983 95.9447C40.9078 95.9453 40.9171 95.9477 40.9256 95.9518C40.9341 95.956 40.9418 95.9617 40.9481 95.9688C41.7156 96.5548 42.4051 97.2363 43.0001 97.9968C43.0541 98.0688 43.1741 97.9968 43.1261 97.9248C42.9281 97.5888 42.7181 97.2528 42.4901 96.9168C42.4836 96.9015 42.4822 96.8845 42.4861 96.8683C42.49 96.8521 42.4989 96.8375 42.5117 96.8268C42.5244 96.8161 42.5403 96.8097 42.5569 96.8086C42.5735 96.8075 42.5901 96.8118 42.6041 96.8208C43.6445 97.7215 44.5462 98.7708 45.2801 99.9348C45.3341 100.007 45.4541 99.9348 45.4121 99.8628C45.1481 99.3888 44.8541 98.8968 44.5121 98.4048C44.4641 98.3388 44.5541 98.2608 44.6201 98.3088C45.3679 98.8574 46.0085 99.5387 46.5101 100.319C46.5209 100.322 46.5322 100.322 46.5432 100.32C46.5541 100.317 46.5644 100.312 46.5731 100.305C46.5818 100.298 46.5888 100.289 46.5935 100.279C46.5982 100.269 46.6004 100.258 46.6001 100.247C46.4081 99.8448 46.1981 99.4308 46.0001 99.0468C45.9581 98.9808 46.0541 98.9088 46.1141 98.9628C46.9619 99.7247 47.6423 100.654 48.1121 101.693C48.1541 101.777 48.2801 101.729 48.2501 101.645C48.05 101.016 47.8156 100.4 47.5481 99.7968C47.5401 99.781 47.5383 99.7628 47.5429 99.7457C47.5475 99.7286 47.5583 99.7138 47.5732 99.7041C47.588 99.6945 47.6059 99.6906 47.6234 99.6933C47.6409 99.696 47.6568 99.7051 47.6681 99.7188C49.8941 101.969 50.1761 106.013 50.1821 106.085V106.397C50.1757 106.467 50.1489 106.534 50.1048 106.589C50.0608 106.644 50.0016 106.685 49.9345 106.707C49.8673 106.729 49.7953 106.73 49.7273 106.711C49.6594 106.692 49.5984 106.654 49.5521 106.601Z" fill="#E6E6E6"/>
<path d="M51.6099 108.719C51.9939 104.207 52.4379 91.5892 46.7139 81.9112C46.6299 81.7732 46.8339 81.6472 46.9359 81.7732C47.2737 82.1902 47.5805 82.6313 47.8539 83.0932C47.8689 83.1193 47.8924 83.1396 47.9205 83.1506C47.9486 83.1616 47.9796 83.1626 48.0084 83.1535C48.0372 83.1443 48.0619 83.1256 48.0786 83.1005C48.0952 83.0753 48.1028 83.0452 48.0999 83.0152C47.9525 81.7816 47.7159 80.5604 47.3919 79.3612C47.3499 79.2172 47.5719 79.1392 47.6439 79.2772C48.1727 80.2907 48.5642 81.3702 48.8079 82.4871C48.8099 82.5045 48.8152 82.5213 48.8237 82.5365C48.8321 82.5518 48.8435 82.5652 48.8572 82.5761C48.8708 82.587 48.8865 82.595 48.9032 82.5998C48.92 82.6047 48.9376 82.6061 48.9549 82.6042C48.9722 82.6022 48.989 82.5968 49.0043 82.5884C49.0195 82.5799 49.033 82.5685 49.0438 82.5549C49.0547 82.5412 49.0628 82.5256 49.0676 82.5088C49.0724 82.492 49.0739 82.4745 49.0719 82.4572C49.0719 81.9772 49.0359 81.4672 48.9639 80.9272C48.9644 80.8957 48.9756 80.8654 48.9957 80.8413C49.0157 80.8171 49.0435 80.8005 49.0742 80.7942C49.105 80.7879 49.137 80.7923 49.1649 80.8067C49.1929 80.821 49.2151 80.8445 49.2279 80.8732C49.8763 82.8516 50.0349 84.9579 49.6899 87.0112C50.1358 84.9668 50.3671 82.8815 50.3799 80.7892C50.3799 80.7541 50.3938 80.7206 50.4186 80.6958C50.4433 80.6711 50.4769 80.6572 50.5119 80.6572C50.5469 80.6572 50.5805 80.6711 50.6052 80.6958C50.63 80.7206 50.6439 80.7541 50.6439 80.7892C50.9016 81.7708 51.0604 82.7758 51.1179 83.7892C51.1245 83.8201 51.1414 83.8478 51.166 83.8678C51.1906 83.8877 51.2213 83.8985 51.2529 83.8985C51.2845 83.8985 51.3152 83.8877 51.3398 83.8678C51.3644 83.8478 51.3813 83.8201 51.3879 83.7892C51.3879 83.5912 51.4179 83.3932 51.4299 83.1892C51.4365 83.1582 51.4535 83.1305 51.478 83.1105C51.5026 83.0906 51.5333 83.0798 51.5649 83.0798C51.5965 83.0798 51.6272 83.0906 51.6518 83.1105C51.6764 83.1305 51.6933 83.1582 51.6999 83.1892C51.9984 84.4713 52.1414 85.7848 52.1259 87.1011C52.1325 87.1321 52.1494 87.1598 52.174 87.1798C52.1986 87.1997 52.2293 87.2105 52.2609 87.2105C52.2925 87.2105 52.3232 87.1997 52.3478 87.1798C52.3724 87.1598 52.3893 87.1321 52.3959 87.1011C52.6119 85.8051 52.8039 84.3652 52.9059 82.8592C52.9125 82.8282 52.9295 82.8005 52.954 82.7805C52.9786 82.7606 53.0093 82.7498 53.0409 82.7498C53.0725 82.7498 53.1032 82.7606 53.1278 82.7805C53.1524 82.8005 53.1693 82.8282 53.1759 82.8592C54.2499 87.7732 52.5099 93.0171 51.8679 94.7151C53.1416 91.5559 54.114 88.2834 54.7719 84.9412C54.7719 84.9061 54.7858 84.8726 54.8106 84.8478C54.8353 84.8231 54.8689 84.8092 54.9039 84.8092C54.9389 84.8092 54.9725 84.8231 54.9972 84.8478C55.022 84.8726 55.0359 84.9061 55.0359 84.9412C55.1859 86.5989 55.1173 88.2692 54.8319 89.9092C54.8319 90.0652 55.0479 90.1132 55.0899 89.9632C55.2879 89.2972 55.4739 88.6192 55.6419 87.9232C55.6419 87.8881 55.6558 87.8546 55.6806 87.8298C55.7053 87.8051 55.7389 87.7912 55.7739 87.7912C55.8089 87.7912 55.8425 87.8051 55.8672 87.8298C55.892 87.8546 55.9059 87.8881 55.9059 87.9232C56.0143 90.3374 55.7491 92.7538 55.1199 95.0871C55.0779 95.2491 55.3239 95.3092 55.3779 95.1592C55.7015 94.2018 55.9759 93.2286 56.1999 92.2432C56.2085 92.2149 56.226 92.1901 56.2498 92.1725C56.2735 92.1549 56.3023 92.1454 56.3319 92.1454C56.3615 92.1454 56.3903 92.1549 56.414 92.1725C56.4378 92.1901 56.4553 92.2149 56.4639 92.2432C56.6762 93.8481 56.5702 95.4792 56.1519 97.0432C56.1424 97.0774 56.1468 97.114 56.1642 97.1449C56.1817 97.1759 56.2107 97.1986 56.2449 97.2081C56.2791 97.2177 56.3157 97.2133 56.3467 97.1958C56.3776 97.1784 56.4004 97.1494 56.4099 97.1151C56.7099 96.3771 57.0099 95.6031 57.2679 94.8051C57.2793 94.7773 57.2994 94.7539 57.3253 94.7386C57.3512 94.7232 57.3814 94.7167 57.4113 94.7201C57.4412 94.7235 57.4691 94.7366 57.4909 94.7574C57.5127 94.7781 57.5271 94.8054 57.5319 94.8351C57.5692 96.8502 57.1786 98.8502 56.3859 100.703C56.3259 100.847 56.5539 100.949 56.6319 100.805C57.2203 99.7712 57.7511 98.7056 58.2219 97.6131C58.2306 97.5806 58.2515 97.5526 58.2803 97.5349C58.309 97.5172 58.3434 97.5112 58.3764 97.5181C58.4095 97.5251 58.4386 97.5443 58.4578 97.5721C58.4771 97.5998 58.485 97.6338 58.4799 97.6671C58.2699 103.193 53.2059 108.653 53.0799 108.755L52.6719 109.151C52.5831 109.232 52.4735 109.285 52.3555 109.306C52.2375 109.327 52.116 109.314 52.0051 109.269C51.8941 109.224 51.7981 109.148 51.7282 109.051C51.6583 108.954 51.6173 108.839 51.6099 108.719Z" fill="#E0E0E0"/>
<path d="M43.672 103.007C43.2061 103.006 42.7448 103.1 42.3162 103.283C41.8875 103.466 41.5003 103.733 41.1779 104.07C40.8555 104.406 40.6046 104.804 40.4403 105.24C40.276 105.677 40.2018 106.141 40.222 106.607C40.678 116.693 42.964 120.179 54.208 120.179C65.452 120.179 67.732 116.693 68.188 106.607C68.2083 106.141 68.134 105.677 67.9697 105.24C67.8054 104.804 67.5545 104.406 67.2321 104.07C66.9097 103.733 66.5225 103.466 66.0939 103.283C65.6652 103.1 65.204 103.006 64.738 103.007H43.672Z" fill="#EBEBEB"/>
<path d="M197.188 139.799H271.138V136.739H197.188V139.799Z" fill="#F5F5F5"/>
<path d="M197.194 136.745H181.702V139.805H197.194V136.745Z" fill="#E0E0E0"/>
<path d="M189.448 139.805H190.096L197.59 197.087H196.942L189.448 139.805Z" fill="#E0E0E0"/>
<path d="M189.448 139.805H188.8L181.306 197.087H181.954L189.448 139.805Z" fill="#E0E0E0"/>
<path d="M263.398 139.805H264.046L271.534 197.087H270.886L263.398 139.805Z" fill="#E0E0E0"/>
<path d="M263.398 139.805H262.75L255.256 197.087H255.904L263.398 139.805Z" fill="#E0E0E0"/>
<path d="M154 224.183C218.249 224.183 270.334 221.142 270.334 217.391C270.334 213.64 218.249 210.599 154 210.599C89.7505 210.599 37.666 213.64 37.666 217.391C37.666 221.142 89.7505 224.183 154 224.183Z" fill="#F5F5F5"/>
<path d="M242.59 53.8484C241.09 51.8444 236.356 50.0984 233.914 53.0504C230.656 56.9924 234.598 58.4864 233.044 62.0924C231.49 65.6984 232.048 67.3484 232.894 69.0524C233.74 70.7564 232.396 70.9544 232.294 73.8524C232.192 76.7504 235.144 77.4524 237.496 76.9544C236.194 75.5984 238.546 75.4484 240.694 73.5524C242.842 71.6564 247.09 57.7964 242.59 53.8484Z" fill="#263238"/>
<path d="M239.746 214.846C237.982 215.027 236.243 215.403 234.562 215.968C232.805 216.626 230.973 217.061 229.108 217.264C227.044 217.534 227.134 219.472 230.758 219.472C234.382 219.472 236.716 219.094 238.192 219.094C239.668 219.094 240.592 219.142 240.712 218.146C240.832 217.15 241 214.66 239.746 214.846Z" fill="#263238"/>
<path d="M231.484 110.584C231.484 110.584 233.182 147.922 233.506 163.042C233.848 178.774 236.248 215.506 236.248 215.506H240.214C240.214 215.506 244.3 184.978 242.422 163.042C245.26 146.2 247.174 110.584 247.174 110.584H231.484Z" fill="#FFC3BD"/>
<path d="M236.248 215.147C234.16 216.203 231.814 216.605 230.896 217.079C229.978 217.553 240.214 216.449 240.214 215.507L236.248 215.147Z" fill="#FFC3BD"/>
<path d="M265.738 212.764C264.646 213.484 264.136 213.178 263.17 214.288C262.204 215.398 261.202 217.054 259.432 217.606C257.992 218.056 257.914 219.508 260.518 219.448C263.122 219.388 266.176 217.408 267.028 216.784C267.88 216.16 268.306 215.842 267.88 214.936C267.454 214.03 266.494 212.272 265.738 212.764Z" fill="#263238"/>
<path d="M263.134 214.546C263.134 214.99 261.508 216.658 262.534 216.478C264.376 216.148 266.692 214.078 266.344 213.256L263.134 214.546Z" fill="#FFC3BD"/>
<path d="M236.746 110.584C236.746 110.584 246.202 149.686 250.066 164.308C254.128 179.662 262.666 213.574 263.164 214.612L266.32 213.256C266.32 213.256 264.16 175.414 258.724 161.776C258.724 144.7 251.62 110.584 251.62 110.584H236.746Z" fill="#FFC3BD"/>
<path d="M233.134 87.2984C232.954 89.0504 232.678 90.6944 232.384 92.3804C232.09 94.0664 231.706 95.7164 231.298 97.3784C230.496 100.78 229.304 104.078 227.746 107.206L227.71 107.278C227.567 107.565 227.362 107.817 227.11 108.016C226.553 108.418 225.914 108.693 225.238 108.82C224.686 108.925 224.122 108.946 223.564 108.88C222.672 108.77 221.8 108.536 220.972 108.184C219.564 107.577 218.227 106.818 216.982 105.922C215.782 105.064 214.654 104.158 213.568 103.222C212.482 102.286 211.462 101.296 210.466 100.222C210.248 99.9958 210.123 99.6959 210.115 99.3817C210.107 99.0676 210.217 98.7617 210.423 98.5243C210.629 98.2869 210.916 98.1349 211.228 98.0983C211.54 98.0617 211.855 98.1431 212.11 98.3264C213.214 99.0944 214.354 99.8804 215.5 100.6C216.646 101.32 217.798 102.04 218.962 102.652C220.062 103.266 221.217 103.774 222.412 104.17C222.884 104.333 223.377 104.424 223.876 104.44C224.012 104.444 224.147 104.428 224.278 104.392C224.344 104.392 224.326 104.344 224.278 104.356L223.618 105.16C224.231 103.741 224.76 102.286 225.202 100.804C225.652 99.2924 226.036 97.7504 226.402 96.1904C226.768 94.6304 227.05 93.0404 227.332 91.4564C227.614 89.8724 227.86 88.2464 228.07 86.7104V86.6684C228.179 86.0266 228.531 85.4513 229.053 85.0615C229.575 84.6718 230.226 84.4974 230.872 84.5745C231.519 84.6515 232.111 84.9741 232.527 85.4756C232.942 85.977 233.149 86.6188 233.104 87.2684L233.134 87.2984Z" fill="#FFC3BD"/>
<path d="M230.614 80.5666C224.884 82.9666 225.844 91.1626 225.844 91.1626C228.624 93.0207 231.62 94.532 234.766 95.6626C237.466 91.2466 237.124 77.8486 230.614 80.5666Z" fill="#263238"/>
<path d="M211.858 101.243L206.854 101.477L209.926 97.4746C209.926 97.4746 213.07 97.9546 213.76 99.8746L211.858 101.243Z" fill="#FFC3BD"/>
<path d="M203.458 99.0645L206.206 95.8545L209.92 97.4745L206.854 101.476L203.458 99.0645Z" fill="#FFC3BD"/>
<path d="M228.526 86.2664C228.322 89.8664 228.67 97.7264 231.196 113.266H252.25C251.95 105.976 252.28 99.1604 255.112 85.9184C255.262 85.2253 255.266 84.5087 255.124 83.814C254.982 83.1194 254.697 82.4618 254.287 81.883C253.878 81.3043 253.352 80.8169 252.745 80.4518C252.137 80.0868 251.46 79.852 250.756 79.7624C249.412 79.5944 247.978 79.4504 246.64 79.3844C243.596 79.1681 240.541 79.1681 237.496 79.3844C235.522 79.5644 234.28 79.7624 232.696 80.0144C229.708 80.4824 228.676 83.5784 228.526 86.2664Z" fill="#72A276"/>
<path d="M237.496 79.3848H246.64C243.692 81.9644 240.608 84.3839 237.4 86.6328C236.654 85.5671 236.262 84.2939 236.28 82.9933C236.297 81.6926 236.722 80.4303 237.496 79.3848Z" fill="white"/>
<path d="M245.734 69.0884C245.134 72.0284 244.582 77.4224 246.64 79.3844C246.64 79.3844 242.374 83.8964 237.676 84.9944C234.748 83.1944 237.496 79.3844 237.496 79.3844C240.772 78.5984 240.688 76.1684 240.118 73.8824L245.734 69.0884Z" fill="#FFC3BD"/>
<path opacity="0.2" d="M243.442 71.0444L240.124 73.8764C240.261 74.4101 240.356 74.9538 240.406 75.5024C241.654 75.3164 243.376 73.9424 243.514 72.6284C243.588 72.1005 243.564 71.5635 243.442 71.0444Z" fill="black"/>
<path d="M248.836 63.6885C247.684 68.4885 247.294 70.5225 244.414 72.5745C240.076 75.6585 234.454 73.1745 234.154 68.1585C233.884 63.6285 235.816 56.5665 240.892 55.4805C242.01 55.2358 243.172 55.2809 244.268 55.6116C245.364 55.9422 246.357 56.5475 247.152 57.3699C247.948 58.1923 248.521 59.2045 248.816 60.3104C249.11 61.4162 249.117 62.5791 248.836 63.6885Z" fill="#FFC3BD"/>
<path d="M249.508 66.4184C249.135 67.2933 248.435 67.9884 247.558 68.3564C246.388 68.8244 245.662 67.8104 245.872 66.6344C246.064 65.5784 246.898 64.0544 248.128 64.0844C248.397 64.0966 248.659 64.1756 248.889 64.3142C249.12 64.4527 249.312 64.6466 249.449 64.8783C249.586 65.1099 249.663 65.372 249.674 65.6409C249.684 65.9098 249.627 66.177 249.508 66.4184Z" fill="#FFC3BD"/>
<path d="M255.724 46.2466C255.676 43.3486 252.274 43.4866 252.274 43.4866C252.274 43.4866 253.426 42.4966 250.156 40.5946C246.886 38.6926 243.874 41.0986 245.434 43.0486C242.236 42.6946 242.476 47.0446 244.774 47.3986C244.774 47.3986 242.878 50.0446 246.574 51.9466L250.774 54.5086C256.024 53.7706 254.476 49.9966 254.476 49.9966C254.476 49.9966 255.778 49.1446 255.724 46.2466Z" fill="#263238"/>
<path d="M244.228 51.2749C243.352 49.8469 245.926 49.0249 248.902 50.1469C251.878 51.2689 253.498 55.5469 250.75 55.7989C245.8 52.9249 244.228 51.2749 244.228 51.2749Z" fill="#72A276"/>
<path d="M239.62 53.2966C234.004 55.2466 241.072 60.1546 245.476 60.7966C242.476 63.0886 245.476 65.9026 243.814 67.9246C242.152 69.9466 243.004 73.6486 247.414 72.0466C251.824 70.4446 254.614 64.0366 253.036 61.5466C251.458 59.0566 252.958 58.1566 251.068 54.2986C249.034 50.1466 233.8 47.0446 239.62 53.2966Z" fill="#263238"/>
<path d="M240.4 63.7428C240.334 64.1388 240.07 64.4208 239.8 64.3728C239.53 64.3248 239.386 63.9708 239.458 63.5748C239.53 63.1788 239.794 62.9028 240.058 62.9748C240.322 63.0468 240.442 63.3468 240.4 63.7428Z" fill="#263238"/>
<path d="M235.918 62.9563C235.852 63.3463 235.588 63.6283 235.318 63.5863C235.048 63.5443 234.904 63.1843 234.976 62.7883C235.048 62.3923 235.312 62.1103 235.576 62.1883C235.84 62.2663 235.99 62.5603 235.918 62.9563Z" fill="#263238"/>
<path d="M235.69 62.2002L234.79 61.7622C234.79 61.7622 235.15 62.5842 235.69 62.2002Z" fill="#263238"/>
<path d="M236.98 63.8389C236.469 64.6758 235.845 65.4389 235.126 66.1069C235.303 66.2854 235.516 66.4235 235.751 66.5116C235.987 66.5996 236.238 66.6355 236.488 66.6169L236.98 63.8389Z" fill="#ED847E"/>
<path d="M238.84 68.4461C238.615 68.446 238.39 68.4259 238.168 68.3861C238.153 68.384 238.139 68.3788 238.126 68.3709C238.113 68.3631 238.101 68.3527 238.092 68.3404C238.083 68.3281 238.077 68.3141 238.074 68.2993C238.07 68.2845 238.07 68.2691 238.072 68.2541C238.078 68.2233 238.096 68.1959 238.122 68.1779C238.147 68.16 238.179 68.1529 238.21 68.1582C238.698 68.2545 239.202 68.2352 239.681 68.1019C240.161 67.9685 240.602 67.7248 240.97 67.3902C240.98 67.3791 240.993 67.3702 241.006 67.3639C241.02 67.3577 241.035 67.3542 241.05 67.3536C241.065 67.353 241.08 67.3554 241.094 67.3607C241.108 67.3659 241.121 67.3739 241.132 67.3841C241.143 67.3944 241.152 67.4067 241.158 67.4204C241.165 67.4341 241.168 67.4489 241.169 67.4639C241.169 67.4789 241.167 67.494 241.162 67.5081C241.156 67.5222 241.148 67.5351 241.138 67.5461C240.52 68.1359 239.695 68.4591 238.84 68.4461Z" fill="#263238"/>
<path d="M242.332 61.9486C242.277 61.932 242.23 61.8957 242.2 61.8466C242.023 61.6103 241.793 61.4192 241.528 61.2889C241.263 61.1585 240.971 61.0926 240.676 61.0966C240.645 61.1 240.614 61.0972 240.585 61.0884C240.555 61.0796 240.527 61.065 240.503 61.0455C240.479 61.0259 240.46 61.0018 240.445 60.9746C240.43 60.9473 240.421 60.9174 240.418 60.8866C240.413 60.8239 240.433 60.7617 240.473 60.7135C240.514 60.6652 240.572 60.6347 240.634 60.6286C241.007 60.6195 241.376 60.699 241.712 60.8607C242.048 61.0224 242.341 61.2616 242.566 61.5586C242.586 61.5826 242.6 61.6102 242.609 61.6398C242.617 61.6694 242.62 61.7005 242.617 61.7311C242.614 61.7618 242.604 61.7915 242.589 61.8185C242.574 61.8456 242.554 61.8694 242.53 61.8886C242.504 61.9128 242.472 61.9307 242.438 61.9411C242.404 61.9515 242.368 61.954 242.332 61.9486Z" fill="#263238"/>
<path d="M235.09 60.4906C235.048 60.4728 235.011 60.4428 234.986 60.4044C234.96 60.3659 234.946 60.3208 234.946 60.2746C234.946 60.2284 234.96 60.1832 234.986 60.1448C235.011 60.1063 235.048 60.0763 235.09 60.0586C235.421 59.8876 235.789 59.7983 236.161 59.7983C236.534 59.7983 236.901 59.8876 237.232 60.0586C237.286 60.0904 237.326 60.1424 237.341 60.2032C237.357 60.2639 237.348 60.3285 237.316 60.3826C237.284 60.4367 237.232 60.4759 237.172 60.4917C237.111 60.5074 237.046 60.4984 236.992 60.4666C236.73 60.3308 236.439 60.26 236.143 60.26C235.848 60.26 235.557 60.3308 235.294 60.4666C235.265 60.4877 235.231 60.501 235.195 60.5052C235.16 60.5094 235.123 60.5044 235.09 60.4906Z" fill="#263238"/>
<path d="M240.142 62.9863L239.242 62.5483C239.242 62.5483 239.602 63.3703 240.142 62.9863Z" fill="#263238"/>
<path d="M231.196 113.267L232.06 165.749L259.942 160.745C261.022 133.301 256.294 119.081 252.25 113.267H231.196Z" fill="#263238"/>
<path opacity="0.2" d="M240.082 144.797L243.406 133.973L240.526 125.789L240.082 144.797Z" fill="black"/>
<path d="M255.652 83.9325C256.252 85.2105 256.756 86.4405 257.26 87.7125C257.764 88.9845 258.244 90.2445 258.682 91.5345C259.607 94.131 260.362 96.7845 260.944 99.4785C261.07 100.181 261.232 100.853 261.316 101.573L261.466 102.635L261.556 103.733L261.598 104.285C261.612 104.606 261.594 104.927 261.544 105.245C261.448 105.833 261.245 106.398 260.944 106.913C260.46 107.708 259.831 108.406 259.09 108.971C257.882 109.867 256.55 110.584 255.136 111.101C253.815 111.604 252.452 111.99 251.062 112.253C250.764 112.31 250.455 112.258 250.192 112.107C249.929 111.955 249.728 111.714 249.628 111.428C249.528 111.141 249.534 110.828 249.645 110.545C249.756 110.263 249.965 110.03 250.234 109.889H250.294C251.398 109.289 252.544 108.689 253.588 107.999C254.588 107.399 255.513 106.682 256.342 105.863C256.637 105.585 256.872 105.25 257.032 104.879C257.056 104.809 257.056 104.732 257.032 104.663C257.032 104.663 257.032 104.663 257.032 104.633L256.972 104.189C256.802 102.976 256.564 101.774 256.258 100.589C255.622 98.1525 254.812 95.6985 253.918 93.2685C253.024 90.8385 252.04 88.3965 251.038 86.0685C250.799 85.4613 250.803 84.7853 251.049 84.1809C251.296 83.5765 251.765 83.0903 252.361 82.8231C252.956 82.5559 253.631 82.5283 254.247 82.7461C254.862 82.9638 255.37 83.4102 255.664 83.9925L255.652 83.9325Z" fill="#FFC3BD"/>
<path d="M251.134 79.8467C257.218 80.6987 258.934 88.6307 258.934 88.6307C257.05 91.1942 254.831 93.4927 252.334 95.4647C248.296 91.7987 244.228 78.8627 251.134 79.8467Z" fill="#263238"/>
<path d="M250.822 109.679L245.476 110.033L248.974 113.663C248.974 113.663 252.052 112.835 252.52 110.831L250.822 109.679Z" fill="#FFC3BD"/>
<path d="M243.742 112.847L245.248 114.971C245.38 115.155 245.575 115.284 245.797 115.334C246.018 115.384 246.25 115.351 246.448 115.241L249.724 113.405L245.464 110.039L243.85 111.647C243.693 111.801 243.595 112.007 243.576 112.227C243.556 112.447 243.615 112.666 243.742 112.847Z" fill="#FFC3BD"/>
<path d="M215.38 36.1252C215.212 33.9433 214.235 31.903 212.64 30.4053C211.044 28.9075 208.946 28.0607 206.758 28.0312V27.4312C209.098 27.4632 211.342 28.3692 213.049 29.9713C214.755 31.5733 215.801 33.7555 215.98 36.0892L215.38 36.1252Z" fill="#72A276"/>
<path d="M216.466 42.6735L215.866 42.7095L216.102 46.6515L216.702 46.6155L216.466 42.6735Z" fill="#72A276"/>
<path d="M213.364 132.162H55.4441C53.6339 132.131 51.9004 131.426 50.583 130.184C49.2657 128.942 48.4594 127.253 48.3221 125.448L42.5801 36.2275C42.5144 35.3679 42.628 34.5041 42.9138 33.6907C43.1996 32.8773 43.6513 32.1322 44.2403 31.5026C44.8292 30.8731 45.5426 30.3728 46.3351 30.0334C47.1276 29.6941 47.982 29.5232 48.8441 29.5315H206.758C208.566 29.5603 210.299 30.2625 211.617 31.5008C212.935 32.7391 213.744 34.4245 213.886 36.2275L219.628 125.448C219.696 126.309 219.585 127.174 219.3 127.99C219.016 128.805 218.564 129.553 217.975 130.184C217.386 130.816 216.672 131.318 215.878 131.658C215.084 131.999 214.228 132.17 213.364 132.162Z" fill="#72A276"/>
<path d="M211.048 128.753H82.2341C80.7504 128.723 79.3307 128.144 78.2491 127.127C77.1676 126.111 76.501 124.73 76.3781 123.251L71.6201 49.2894C71.5661 48.5829 71.6594 47.873 71.8943 47.2046C72.1291 46.5361 72.5003 45.9238 72.9844 45.4065C73.4685 44.8891 74.0548 44.478 74.7061 44.1993C75.3575 43.9206 76.0597 43.7803 76.7681 43.7874H205.6C207.086 43.8098 208.511 44.3864 209.594 45.4042C210.677 46.4219 211.341 47.8075 211.456 49.2894L216.214 123.251C216.269 123.96 216.176 124.671 215.941 125.341C215.705 126.012 215.332 126.625 214.846 127.143C214.36 127.661 213.771 128.071 213.117 128.349C212.463 128.626 211.758 128.764 211.048 128.753Z" fill="white"/>
<path d="M91.1802 38.3333H73.0002C72.4316 38.3233 71.8869 38.1022 71.4722 37.7129C71.0575 37.3237 70.8023 36.7942 70.7562 36.2273C70.7354 35.9563 70.7712 35.684 70.8612 35.4275C70.9512 35.171 71.0935 34.9361 71.2791 34.7375C71.4647 34.5389 71.6895 34.3811 71.9393 34.274C72.1891 34.1669 72.4585 34.1129 72.7302 34.1153H90.8862C91.4563 34.1241 92.0024 34.3456 92.4176 34.7364C92.8327 35.1271 93.0869 35.6589 93.1302 36.2273C93.1509 36.496 93.1158 36.7661 93.0272 37.0206C92.9386 37.2751 92.7983 37.5085 92.6152 37.7062C92.4321 37.904 92.2102 38.0617 91.9632 38.1697C91.7163 38.2776 91.4497 38.3333 91.1802 38.3333Z" fill="white"/>
<path d="M115.354 38.3333H103.3C102.732 38.3245 102.187 38.1036 101.773 37.714C101.359 37.3244 101.105 36.7942 101.062 36.2273C101.04 35.9566 101.075 35.6844 101.165 35.4279C101.254 35.1715 101.396 34.9365 101.581 34.7378C101.766 34.5391 101.99 34.3812 102.24 34.274C102.49 34.1668 102.759 34.1128 103.03 34.1153H115.084C115.654 34.1243 116.199 34.346 116.613 34.7368C117.027 35.1277 117.28 35.6594 117.322 36.2273C117.344 36.4977 117.309 36.7697 117.22 37.0258C117.13 37.282 116.988 37.5166 116.803 37.7149C116.618 37.9131 116.393 38.0704 116.144 38.1769C115.894 38.2834 115.625 38.3367 115.354 38.3333Z" fill="white"/>
<path d="M139.522 38.3333H127.474C126.905 38.3233 126.361 38.1022 125.946 37.7129C125.531 37.3237 125.276 36.7942 125.23 36.2273C125.209 35.9563 125.245 35.684 125.335 35.4275C125.425 35.171 125.567 34.9361 125.753 34.7375C125.939 34.5389 126.163 34.3811 126.413 34.274C126.663 34.1669 126.932 34.1129 127.204 34.1153H139.252C139.822 34.1255 140.367 34.3475 140.782 34.7379C141.197 35.1284 141.451 35.6594 141.496 36.2273C141.516 36.4978 141.48 36.7695 141.389 37.0253C141.299 37.281 141.156 37.5152 140.971 37.7131C140.785 37.9111 140.561 38.0683 140.312 38.1751C140.062 38.2818 139.793 38.3357 139.522 38.3333Z" fill="white"/>
<path opacity="0.2" d="M50.626 126.773H50.584C50.2461 126.768 49.9225 126.637 49.677 126.404C49.4315 126.172 49.282 125.857 49.258 125.519L43.51 36.1735C43.4961 36.0102 43.5173 35.8459 43.5721 35.6914C43.6268 35.537 43.7139 35.396 43.8275 35.2779C43.941 35.1597 44.0785 35.0672 44.2307 35.0064C44.3829 34.9457 44.5463 34.9181 44.71 34.9255H44.746C45.0839 34.929 45.4082 35.0592 45.6548 35.2903C45.9015 35.5213 46.0524 35.8365 46.078 36.1735L51.826 125.519C51.8387 125.683 51.8169 125.847 51.7618 126.001C51.7068 126.156 51.6198 126.297 51.5065 126.415C51.3932 126.533 51.2562 126.626 51.1045 126.688C50.9528 126.75 50.7897 126.779 50.626 126.773Z" fill="white"/>
<path d="M201.112 39.4132C200.254 39.4023 199.432 39.0714 198.806 38.4852C198.18 37.8991 197.795 37.1002 197.728 36.2452C197.699 35.8339 197.755 35.4211 197.893 35.0325C198.031 34.644 198.247 34.288 198.529 33.9867C198.81 33.6855 199.151 33.4456 199.529 33.2818C199.908 33.1181 200.316 33.0342 200.728 33.0352C201.585 33.0475 202.406 33.3791 203.03 33.9651C203.655 34.5511 204.039 35.3492 204.106 36.2032C204.137 36.6168 204.083 37.0324 203.945 37.4238C203.808 37.8152 203.591 38.1739 203.308 38.4772C203.026 38.7752 202.685 39.012 202.307 39.173C201.929 39.334 201.523 39.4157 201.112 39.4132ZM200.734 33.5932C200.396 33.5851 200.061 33.6484 199.749 33.7789C199.438 33.9095 199.157 34.1043 198.926 34.3506C198.695 34.597 198.519 34.8893 198.408 35.2086C198.298 35.5278 198.256 35.8667 198.286 36.2032C198.341 36.9181 198.662 37.5865 199.185 38.0772C199.708 38.5678 200.395 38.8453 201.112 38.8552C201.449 38.8624 201.784 38.7984 202.095 38.6675C202.406 38.5366 202.685 38.3417 202.916 38.0954C203.146 37.8492 203.322 37.5571 203.432 37.2383C203.542 36.9195 203.584 36.5811 203.554 36.2452C203.502 35.5303 203.183 34.8611 202.66 34.3701C202.138 33.879 201.451 33.6018 200.734 33.5932Z" fill="white"/>
<path d="M192.604 39.4132C191.748 39.4009 190.927 39.0692 190.302 38.4832C189.677 37.8973 189.293 37.0991 189.226 36.2452C189.197 35.8339 189.253 35.4211 189.391 35.0325C189.529 34.644 189.745 34.288 190.027 33.9867C190.308 33.6855 190.649 33.4456 191.027 33.2818C191.406 33.1181 191.814 33.0342 192.226 33.0352C193.083 33.0475 193.904 33.3791 194.529 33.9651C195.153 34.5511 195.537 35.3492 195.604 36.2032C195.633 36.6144 195.577 37.0272 195.439 37.4158C195.301 37.8044 195.085 38.1604 194.803 38.4616C194.522 38.7628 194.181 39.0028 193.803 39.1665C193.424 39.3302 193.016 39.4142 192.604 39.4132ZM192.232 33.5932C191.894 33.5851 191.559 33.6484 191.247 33.7789C190.936 33.9095 190.655 34.1043 190.424 34.3506C190.193 34.597 190.017 34.8893 189.906 35.2086C189.796 35.5278 189.754 35.8667 189.784 36.2032C189.839 36.9171 190.159 37.5846 190.681 38.0752C191.202 38.5657 191.888 38.8438 192.604 38.8552C192.942 38.8632 193.277 38.7999 193.589 38.6694C193.9 38.5389 194.181 38.3441 194.412 38.0977C194.643 37.8514 194.819 37.559 194.93 37.2398C195.04 36.9205 195.082 36.5816 195.052 36.2452C194.997 35.5313 194.677 34.8637 194.156 34.3732C193.634 33.8826 192.948 33.6045 192.232 33.5932Z" fill="white"/>
<path opacity="0.2" d="M63.8681 34.6733C64.3241 34.6863 64.7595 34.8665 65.0914 35.1796C65.4233 35.4926 65.6285 35.9168 65.6681 36.3713L71.4701 126.569C71.4877 126.778 71.4614 126.988 71.3928 127.186C71.3242 127.384 71.2148 127.566 71.0718 127.719C70.9288 127.872 70.7553 127.994 70.5624 128.076C70.3695 128.158 70.1616 128.199 69.9521 128.195H58.7801C58.324 128.182 57.8886 128.002 57.5567 127.689C57.2249 127.376 57.0196 126.952 56.9801 126.497L51.1721 36.2993C51.1544 36.0905 51.1808 35.8803 51.2494 35.6822C51.3179 35.4842 51.4273 35.3027 51.5703 35.1495C51.7133 34.9963 51.8869 34.8748 52.0797 34.7928C52.2726 34.7107 52.4805 34.6701 52.6901 34.6733H63.8681ZM63.8681 34.1153H52.6901C52.4044 34.1128 52.1213 34.1697 51.8587 34.2823C51.5961 34.3949 51.3598 34.5608 51.1646 34.7695C50.9695 34.9782 50.8198 35.2251 50.725 35.4946C50.6302 35.7642 50.5925 36.0504 50.6141 36.3353L56.4161 126.533C56.461 127.132 56.7288 127.692 57.1664 128.103C57.604 128.514 58.1798 128.746 58.7801 128.753H69.9581C70.244 128.757 70.5275 128.7 70.7906 128.588C71.0536 128.476 71.2903 128.31 71.4856 128.101C71.6809 127.892 71.8306 127.645 71.925 127.375C72.0195 127.105 72.0566 126.818 72.0341 126.533L66.2321 36.3353C66.1871 35.7367 65.9194 35.1766 65.4817 34.7656C65.0441 34.3547 64.4684 34.1226 63.8681 34.1153Z" fill="white"/>
<path opacity="0.3" d="M105.088 86.2673H83.626C82.9072 86.2562 82.2183 85.9778 81.6936 85.4864C81.1689 84.995 80.846 84.3258 80.788 83.6093L79.072 56.9273C79.0471 56.5852 79.0933 56.2417 79.2077 55.9185C79.3222 55.5952 79.5023 55.2991 79.7367 55.0488C79.9712 54.7986 80.255 54.5996 80.5701 54.4644C80.8853 54.3292 81.225 54.2607 81.568 54.2633H103C103.719 54.2758 104.408 54.5555 104.933 55.0479C105.457 55.5403 105.78 56.2102 105.838 56.9273L107.554 83.6093C107.58 83.9487 107.535 84.2897 107.422 84.611C107.31 84.9324 107.133 85.227 106.901 85.4765C106.67 85.7261 106.389 85.9251 106.077 86.0612C105.765 86.1972 105.428 86.2674 105.088 86.2673Z" fill="#72A276"/>
<path fill-rule="evenodd" clip-rule="evenodd" d="M95.4522 65.4476C95.9382 65.4476 96.4182 65.4476 96.9102 65.4476H97.1082L96.9462 62.9216C96.6882 62.9216 96.4122 62.8556 96.1422 62.8436C95.6382 62.8436 95.1402 62.7956 94.6422 62.8076C93.8999 62.7976 93.1741 63.0269 92.5722 63.4616C92.2448 63.7122 91.9744 64.0296 91.7789 64.3927C91.5834 64.7558 91.4672 65.1562 91.4382 65.5676C91.4142 65.9292 91.4142 66.292 91.4382 66.6536C91.4382 67.2536 91.5102 67.7876 91.5462 68.3576V68.5676H89.1462L89.3322 71.3936H91.7322L92.1822 78.3596H95.1342L94.6722 71.3996H97.0722C97.1382 70.4636 97.1982 69.5336 97.2642 68.5676H94.4742C94.4742 68.5676 94.3902 67.1636 94.3662 66.5576C94.3122 65.7296 94.7862 65.4776 95.4522 65.4476Z" fill="white"/>
<path opacity="0.3" d="M138.124 86.2673H116.662C115.943 86.2562 115.254 85.9778 114.73 85.4864C114.205 84.995 113.882 84.3258 113.824 83.6093L112.108 56.9273C112.083 56.5852 112.129 56.2417 112.244 55.9185C112.358 55.5952 112.538 55.2991 112.773 55.0488C113.007 54.7986 113.291 54.5996 113.606 54.4644C113.921 54.3292 114.261 54.2607 114.604 54.2633H136.06C136.779 54.2758 137.468 54.5555 137.993 55.0479C138.517 55.5403 138.84 56.2102 138.898 56.9273L140.614 83.6093C140.641 83.9509 140.596 84.2944 140.483 84.6177C140.369 84.9411 140.19 85.2373 139.955 85.4874C139.721 85.7375 139.437 85.936 139.122 86.0703C138.807 86.2045 138.467 86.2716 138.124 86.2673Z" fill="#72A276"/>
<path fill-rule="evenodd" clip-rule="evenodd" d="M123.946 72.9888C123.37 72.9684 122.812 72.7797 122.342 72.4459C121.872 72.1122 121.51 71.648 121.3 71.1108C121.686 71.1862 122.084 71.1739 122.464 71.0748H122.5C121.747 70.9188 121.085 70.4727 120.658 69.8328C120.367 69.4064 120.199 68.9083 120.172 68.3928C120.542 68.5919 120.952 68.7047 121.372 68.7228C120.79 68.3344 120.365 67.7517 120.172 67.0788C119.968 66.4287 120.026 65.7245 120.334 65.1168C121.061 65.9472 121.946 66.6252 122.936 67.1113C123.927 67.5975 125.005 67.8821 126.106 67.9488C126.106 67.8408 126.058 67.7448 126.04 67.6488C125.916 67.0441 126.016 66.4148 126.322 65.8788C126.503 65.557 126.756 65.2813 127.061 65.0732C127.366 64.8651 127.715 64.7301 128.08 64.6788C128.511 64.607 128.954 64.6381 129.371 64.7695C129.788 64.9008 130.168 65.1288 130.48 65.4348C130.499 65.4554 130.522 65.4704 130.549 65.4778C130.576 65.4853 130.604 65.4849 130.63 65.4768C131.172 65.363 131.691 65.1602 132.166 64.8768H132.202C132.043 65.4494 131.689 65.9482 131.2 66.2868C131.712 66.2282 132.212 66.0906 132.682 65.8788C132.586 66.0168 132.496 66.1548 132.4 66.2868C132.136 66.639 131.825 66.9539 131.476 67.2228C131.461 67.2303 131.449 67.2426 131.441 67.2577C131.434 67.2729 131.431 67.2901 131.434 67.3068C131.467 67.7061 131.467 68.1075 131.434 68.5068C131.388 69.3311 131.206 70.1421 130.894 70.9068C130.583 71.6921 130.134 72.4154 129.568 73.0428C128.618 74.0984 127.358 74.8253 125.968 75.1188C125.475 75.2241 124.973 75.2843 124.468 75.2988C122.919 75.3414 121.39 74.9373 120.064 74.1348L119.992 74.0928C120.905 74.2023 121.831 74.0742 122.68 73.7208C123.136 73.5402 123.562 73.2936 123.946 72.9888Z" fill="white"/>
<path opacity="0.9" d="M171.16 86.2673H149.698C148.979 86.2562 148.291 85.9778 147.766 85.4864C147.241 84.995 146.918 84.3258 146.86 83.6093L145.144 56.9273C145.119 56.5852 145.166 56.2417 145.28 55.9185C145.394 55.5952 145.575 55.2991 145.809 55.0488C146.043 54.7986 146.327 54.5996 146.642 54.4644C146.958 54.3292 147.297 54.2607 147.64 54.2633H169.096C169.816 54.2745 170.506 54.5537 171.031 55.0463C171.555 55.539 171.878 56.2097 171.934 56.9273L173.65 83.6093C173.677 83.9509 173.632 84.2944 173.519 84.6177C173.405 84.9411 173.226 85.2373 172.991 85.4874C172.757 85.7375 172.473 85.936 172.158 86.0703C171.843 86.2045 171.503 86.2716 171.16 86.2673Z" fill="#72A276"/>
<path d="M166.132 66.4309C165.987 65.5049 165.527 64.6573 164.83 64.0309C164.092 63.3762 163.147 63.0023 162.16 62.9749C159.823 62.8401 157.48 62.8661 155.146 63.0529C154.429 63.1319 153.758 63.4441 153.235 63.9417C152.713 64.4392 152.368 65.0945 152.254 65.8069C151.99 67.0069 152.416 72.5809 152.692 73.7749C152.842 74.53 153.211 75.2243 153.753 75.7707C154.295 76.3172 154.986 76.6915 155.74 76.8469C156.88 77.1349 162.376 77.0989 163.6 76.8949C164.335 76.817 165.022 76.495 165.551 75.9805C166.081 75.466 166.423 74.7887 166.522 74.0569C166.768 72.8209 166.318 67.5469 166.132 66.4309ZM165.28 73.5169C165.263 74.0759 165.035 74.6077 164.642 75.0059C164.249 75.4041 163.721 75.6395 163.162 75.6649C162.022 75.7909 156.916 75.8569 155.836 75.5629C155.36 75.4461 154.928 75.1943 154.591 74.8377C154.255 74.4812 154.029 74.035 153.94 73.5529C153.608 71.1817 153.454 68.7891 153.478 66.3949C153.497 65.8385 153.725 65.3098 154.116 64.9139C154.508 64.5181 155.034 64.2842 155.59 64.2589C157.917 64.0968 160.253 64.0968 162.58 64.2589C163.158 64.3268 163.697 64.5865 164.11 64.9965C164.524 65.4066 164.788 65.9432 164.86 66.5209C165.162 68.8403 165.303 71.178 165.28 73.5169ZM159.148 66.3169C158.679 66.3104 158.214 66.4019 157.782 66.5854C157.351 66.7689 156.962 67.0404 156.642 67.3826C156.321 67.7248 156.075 68.1301 155.92 68.5727C155.765 69.0153 155.703 69.4853 155.74 69.9529C155.814 70.9337 156.251 71.8515 156.968 72.5256C157.684 73.1997 158.627 73.5811 159.61 73.5949C160.079 73.6013 160.544 73.5099 160.976 73.3264C161.407 73.1429 161.796 72.8714 162.117 72.5292C162.437 72.187 162.683 71.7817 162.839 71.3391C162.994 70.8965 163.055 70.4265 163.018 69.9589C162.943 68.9791 162.505 68.0628 161.789 67.39C161.073 66.7172 160.131 66.3365 159.148 66.3229V66.3169ZM159.508 72.3169C158.873 72.3048 158.265 72.0545 157.805 71.6156C157.345 71.1768 157.066 70.5813 157.024 69.9469C157.002 69.6445 157.044 69.3408 157.146 69.0554C157.249 68.7699 157.409 68.509 157.618 68.2893C157.827 68.0696 158.08 67.896 158.36 67.7795C158.64 67.663 158.941 67.6063 159.244 67.6129C159.884 67.627 160.495 67.8819 160.956 68.3267C161.416 68.7716 161.692 69.3737 161.728 70.0129C161.745 70.3124 161.699 70.6121 161.595 70.8933C161.49 71.1744 161.328 71.4309 161.12 71.6466C160.911 71.8624 160.661 72.0327 160.383 72.1471C160.106 72.2614 159.808 72.3171 159.508 72.3109V72.3169ZM163.768 66.1909C163.776 66.3003 163.762 66.4103 163.725 66.5139C163.689 66.6174 163.632 66.7122 163.556 66.7923C163.481 66.8725 163.391 66.9361 163.29 66.9792C163.189 67.0224 163.08 67.044 162.97 67.0429C162.74 67.0391 162.52 66.9497 162.352 66.7921C162.185 66.6346 162.082 66.4202 162.064 66.1909C162.056 66.0814 162.07 65.9715 162.107 65.8679C162.143 65.7644 162.201 65.6696 162.276 65.5894C162.351 65.5093 162.442 65.4457 162.543 65.4026C162.644 65.3594 162.752 65.3378 162.862 65.3389C163.092 65.3412 163.312 65.4293 163.479 65.5859C163.647 65.7425 163.75 65.9562 163.768 66.1849V66.1909Z" fill="white"/>
<path opacity="0.3" d="M204.196 86.2673H182.734C182.015 86.2574 181.326 85.9793 180.802 85.4875C180.278 84.9957 179.957 84.3258 179.902 83.6093L178.18 56.9273C178.155 56.5852 178.201 56.2417 178.316 55.9185C178.43 55.5952 178.61 55.2991 178.845 55.0488C179.079 54.7986 179.363 54.5996 179.678 54.4644C179.993 54.3292 180.333 54.2607 180.676 54.2633H202.132C202.857 54.267 203.554 54.5429 204.085 55.0363C204.616 55.5297 204.943 56.2046 205 56.9273L206.716 83.6093C206.743 83.9535 206.697 84.2995 206.582 84.625C206.467 84.9505 206.285 85.2481 206.047 85.4987C205.809 85.7492 205.522 85.9471 205.203 86.0795C204.884 86.2119 204.541 86.2759 204.196 86.2673Z" fill="#72A276"/>
<path fill-rule="evenodd" clip-rule="evenodd" d="M187.138 75.4673C186.859 75.3841 186.602 75.2389 186.387 75.0425C186.172 74.8462 186.004 74.6037 185.896 74.3333C185.296 72.9413 184.774 67.1333 185.674 65.9633C185.818 65.775 185.998 65.6179 186.205 65.5013C186.411 65.3848 186.639 65.3113 186.874 65.2853C189.49 65.0033 197.62 65.0393 198.574 65.3813C198.841 65.4692 199.086 65.6132 199.293 65.8036C199.5 65.994 199.664 66.2264 199.774 66.4853C200.422 67.9253 200.776 73.1693 200.218 74.5553C200.07 74.9164 199.798 75.2124 199.45 75.3893C198.556 75.8993 188.458 75.8933 187.138 75.4673ZM191.14 72.7373L195.718 70.2833L190.822 67.8113C190.93 69.4553 191.032 71.0873 191.14 72.7373Z" fill="white"/>
<path d="M169.942 93.8028C170.97 93.8177 171.955 94.2161 172.704 94.9199C173.454 95.6236 173.913 96.582 173.992 97.6068L175.414 119.693C175.448 120.173 175.383 120.655 175.223 121.109C175.063 121.563 174.812 121.98 174.484 122.333C174.155 122.681 173.758 122.958 173.317 123.146C172.876 123.334 172.401 123.429 171.922 123.425H87.7122C86.685 123.41 85.7005 123.011 84.9523 122.307C84.204 121.603 83.746 120.645 83.6682 119.621L82.2462 97.5348C82.2077 97.0553 82.2698 96.573 82.4285 96.1188C82.5871 95.6646 82.8389 95.2485 83.1676 94.8973C83.4963 94.546 83.8947 94.2672 84.3374 94.0787C84.78 93.8903 85.2571 93.7963 85.7382 93.8028H169.942ZM169.942 93.2448H85.7382C85.181 93.2391 84.6287 93.3492 84.1163 93.5682C83.6039 93.7873 83.1427 94.1104 82.7619 94.5172C82.381 94.924 82.0889 95.4055 81.9041 95.9312C81.7193 96.4569 81.6457 97.0152 81.6882 97.5708L83.1102 119.657C83.2012 120.821 83.7232 121.91 84.5743 122.71C85.4254 123.51 86.5443 123.964 87.7122 123.983H171.922C172.479 123.988 173.031 123.877 173.542 123.658C174.054 123.438 174.514 123.115 174.895 122.708C175.275 122.302 175.566 121.82 175.751 121.295C175.935 120.77 176.009 120.212 175.966 119.657L174.55 97.5708C174.458 96.4058 173.934 95.317 173.082 94.5171C172.23 93.7172 171.111 93.2636 169.942 93.2448Z" fill="#72A276"/>
<g opacity="0.2">
<path opacity="0.2" d="M97.1431 93.5087L96.6641 93.5396L98.6054 123.723L99.0844 123.692L97.1431 93.5087Z" fill="#72A276"/>
<path opacity="0.2" d="M112.615 93.5058L112.136 93.5366L114.078 123.72L114.557 123.689L112.615 93.5058Z" fill="#72A276"/>
<path opacity="0.2" d="M128.099 93.5083L127.62 93.5391L129.562 123.723L130.041 123.692L128.099 93.5083Z" fill="#72A276"/>
<path opacity="0.2" d="M143.572 93.5112L143.093 93.542L145.034 123.726L145.513 123.695L143.572 93.5112Z" fill="#72A276"/>
<path opacity="0.2" d="M159.049 93.5078L158.57 93.5386L160.512 123.722L160.991 123.691L159.049 93.5078Z" fill="#72A276"/>
</g>
<path d="M89.7999 117.461C88.5368 117.385 87.339 116.874 86.4099 116.015C85.9539 115.625 85.5219 115.211 85.0959 114.815C84.4204 114.128 83.6856 113.502 82.8999 112.943L83.2119 112.475C84.0217 113.056 84.7822 113.702 85.4859 114.407C85.8999 114.809 86.3259 115.217 86.7699 115.607C87.8439 116.513 89.4459 117.287 90.7359 116.747C92.0259 116.207 92.4339 114.677 92.5899 113.801C92.6619 113.375 92.7159 112.937 92.7579 112.511C92.82 111.605 93.0016 110.712 93.2979 109.853C93.5482 109.184 93.954 108.583 94.4818 108.101C95.0097 107.62 95.6445 107.27 96.3339 107.081C97.0624 106.905 97.8249 106.926 98.5424 107.143C99.2598 107.361 99.906 107.766 100.414 108.317C101.02 109.088 101.491 109.957 101.806 110.885C102.328 112.187 102.82 113.411 104.002 113.771C104.259 113.85 104.53 113.872 104.796 113.836C105.062 113.8 105.317 113.706 105.544 113.561C106.5 112.882 107.148 111.85 107.344 110.693C107.542 109.564 107.652 108.42 107.674 107.273C107.686 105.827 107.867 104.387 108.214 102.983C108.441 102.194 108.823 101.458 109.338 100.818C109.854 100.178 110.491 99.6476 111.214 99.2574C111.682 99.0099 112.197 98.8638 112.725 98.8286C113.253 98.7935 113.783 98.8701 114.28 99.0534C116.002 99.6954 116.92 101.417 117.28 102.383C117.579 103.167 117.827 103.968 118.024 104.783C118.18 105.383 118.342 105.983 118.552 106.583C119.243 108.553 120.409 110.321 121.948 111.731C122.331 112.119 122.791 112.421 123.298 112.619C124.984 113.159 126.43 111.419 127.15 110.303C127.996 109.001 129.292 107.021 131.302 107.171C132.724 107.267 133.852 108.431 134.542 109.385C134.758 109.679 134.956 109.985 135.142 110.291C135.595 111.059 136.156 111.756 136.81 112.361C137.692 113.105 139.066 113.459 139.846 112.751C140.273 112.263 140.534 111.652 140.59 111.005L140.752 110.135C141.124 108.041 141.514 105.875 142.894 104.279C143.65 103.403 144.916 102.857 145.894 103.499C146.334 103.84 146.667 104.301 146.854 104.825C147.016 105.185 147.172 105.539 147.328 105.899C147.905 107.388 148.665 108.798 149.59 110.099C150.658 111.467 152.5 112.853 154.462 112.613C155.112 112.503 155.747 112.314 156.352 112.049C157.36 111.653 158.398 111.245 159.526 111.545C160.456 111.88 161.283 112.451 161.926 113.201C162.172 113.441 162.424 113.681 162.682 113.903C163.279 114.448 164.058 114.752 164.866 114.755C165.018 114.747 165.168 114.709 165.305 114.642C165.442 114.575 165.564 114.481 165.664 114.365C165.96 113.886 166.092 113.324 166.042 112.763C166.138 110.363 166.444 107.669 168.034 105.647C169.522 103.751 172.468 102.749 174.826 104.345L174.508 104.807C172.426 103.391 169.804 104.297 168.472 106.007C166.984 107.903 166.672 110.501 166.6 112.793C166.65 113.48 166.47 114.164 166.09 114.737C165.942 114.915 165.759 115.06 165.553 115.163C165.346 115.267 165.121 115.326 164.89 115.337C163.936 115.348 163.012 114.999 162.304 114.359C162.034 114.131 161.776 113.879 161.518 113.627C160.935 112.948 160.19 112.426 159.352 112.109C158.398 111.863 157.486 112.217 156.514 112.595C155.868 112.88 155.189 113.082 154.492 113.195C152.29 113.453 150.292 111.959 149.092 110.471C148.133 109.13 147.349 107.672 146.758 106.133L146.29 105.071C146.141 104.643 145.877 104.263 145.528 103.973C144.754 103.457 143.728 104.099 143.272 104.657C141.994 106.139 141.616 108.257 141.256 110.243C141.202 110.537 141.154 110.843 141.094 111.119C141.021 111.888 140.701 112.612 140.182 113.183C139.174 114.089 137.47 113.699 136.408 112.799C135.707 112.158 135.101 111.421 134.608 110.609C134.41 110.309 134.218 110.009 134.008 109.727C133.408 108.869 132.388 107.825 131.176 107.741C129.616 107.639 128.524 109.103 127.534 110.621C126.148 112.745 124.534 113.621 123.046 113.159C122.461 112.94 121.929 112.599 121.486 112.157C119.878 110.676 118.66 108.821 117.94 106.757C117.724 106.157 117.562 105.515 117.4 104.909C117.209 104.125 116.969 103.353 116.68 102.599C116.32 101.717 115.48 100.145 113.974 99.5994C113.549 99.4434 113.096 99.3789 112.644 99.4099C112.192 99.4409 111.752 99.5668 111.352 99.7794C110.044 100.51 109.076 101.725 108.658 103.163C108.326 104.525 108.153 105.92 108.142 107.321C108.118 108.498 108.003 109.672 107.8 110.831C107.585 112.121 106.874 113.275 105.82 114.047C105.526 114.231 105.196 114.349 104.852 114.394C104.509 114.44 104.16 114.412 103.828 114.311C102.394 113.879 101.824 112.463 101.272 111.101C100.978 110.237 100.544 109.426 99.9879 108.701C99.5477 108.226 98.9886 107.877 98.3684 107.69C97.7481 107.504 97.0893 107.486 96.4599 107.639C95.8559 107.807 95.3001 108.114 94.8381 108.538C94.3761 108.961 94.021 109.488 93.8019 110.075C93.5247 110.887 93.3572 111.733 93.3039 112.589C93.2559 113.021 93.2019 113.477 93.1299 113.915C92.8239 115.625 92.0499 116.819 90.9399 117.281C90.5754 117.415 90.188 117.477 89.7999 117.461Z" fill="#72A276"/>
<path d="M203.716 120.647H187.636C186.56 120.629 185.529 120.211 184.745 119.475C183.961 118.738 183.479 117.735 183.394 116.663L182.362 100.583C182.323 100.071 182.391 99.5575 182.561 99.0736C182.731 98.5898 182.999 98.1465 183.35 97.7719C183.7 97.3974 184.124 97.0997 184.596 96.8977C185.067 96.6958 185.575 96.594 186.088 96.5988H202.168C203.244 96.6163 204.275 97.0342 205.059 97.7709C205.843 98.5076 206.325 99.5101 206.41 100.583L207.442 116.663C207.481 117.174 207.414 117.688 207.244 118.172C207.074 118.656 206.805 119.099 206.455 119.474C206.104 119.848 205.68 120.146 205.209 120.348C204.737 120.55 204.229 120.652 203.716 120.647Z" fill="#72A276"/>
<path d="M195.544 103.583L196.858 105.947C196.903 106.027 196.966 106.096 197.042 106.148C197.118 106.2 197.205 106.234 197.296 106.247L199.954 106.631C200.063 106.648 200.164 106.694 200.248 106.765C200.333 106.835 200.396 106.927 200.431 107.031C200.466 107.135 200.472 107.247 200.449 107.354C200.425 107.461 200.372 107.56 200.296 107.639L198.58 109.439C198.509 109.511 198.458 109.6 198.43 109.698C198.403 109.796 198.401 109.898 198.424 109.997L199.024 112.469C199.051 112.581 199.044 112.697 199.007 112.806C198.969 112.914 198.9 113.009 198.81 113.08C198.72 113.15 198.611 113.194 198.497 113.205C198.383 113.216 198.268 113.193 198.166 113.141L195.838 111.941C195.752 111.896 195.656 111.872 195.559 111.872C195.462 111.872 195.366 111.896 195.28 111.941L193.048 113.141C192.951 113.194 192.842 113.219 192.732 113.213C192.622 113.208 192.515 113.172 192.424 113.11C192.333 113.048 192.261 112.962 192.215 112.862C192.17 112.761 192.153 112.65 192.166 112.541L192.442 109.931C192.452 109.838 192.441 109.745 192.409 109.657C192.376 109.57 192.324 109.491 192.256 109.427L190.276 107.627C190.192 107.55 190.131 107.451 190.101 107.341C190.071 107.23 190.074 107.114 190.108 107.005C190.142 106.896 190.206 106.799 190.293 106.725C190.381 106.652 190.487 106.604 190.6 106.589L193.048 106.229C193.149 106.214 193.244 106.174 193.325 106.112C193.406 106.05 193.469 105.968 193.51 105.875L194.476 103.619C194.523 103.519 194.597 103.434 194.689 103.373C194.781 103.312 194.889 103.278 194.999 103.274C195.11 103.271 195.219 103.297 195.315 103.352C195.411 103.406 195.491 103.486 195.544 103.583Z" fill="white"/>
</g>
<defs>
<filter id="filter0_d" x="0" y="0.646973" width="308" height="231.536" filterUnits="userSpaceOnUse" color-interpolation-filters="sRGB">
<feFlood flood-opacity="0" result="BackgroundImageFix"/>
<feColorMatrix in="SourceAlpha" type="matrix" values="0 0 0 0 0 0 0 0 0 0 0 0 0 0 0 0 0 0 127 0"/>
<feOffset dy="4"/>
<feGaussianBlur stdDeviation="2"/>
<feColorMatrix type="matrix" values="0 0 0 0 0 0 0 0 0 0 0 0 0 0 0 0 0 0 0.16 0"/>
<feBlend mode="normal" in2="BackgroundImageFix" result="effect1_dropShadow"/>
<feBlend mode="normal" in="SourceGraphic" in2="effect1_dropShadow" result="shape"/>
</filter>
</defs>
</svg>
