<svg width="349" height="262" viewBox="0 0 349 262" fill="none" xmlns="http://www.w3.org/2000/svg">
<g filter="url(#filter0_d)">
<path d="M344.475 222.943H4V223.114H344.475V222.943Z" fill="#EBEBEB"/>
<path d="M310.36 233.899H287.807V234.07H310.36V233.899Z" fill="#EBEBEB"/>
<path d="M187.761 231.823H167.183V231.993H187.761V231.823Z" fill="#EBEBEB"/>
<path d="M287.126 227.581H239.534V227.751H287.126V227.581Z" fill="#EBEBEB"/>
<path d="M153.537 228.725H39.7227V228.895H153.537V228.725Z" fill="#EBEBEB"/>
<path d="M163.908 228.725H159.597V228.895H163.908V228.725Z" fill="#EBEBEB"/>
<path d="M165.385 192.573H33.9005C32.8704 192.571 31.8832 192.16 31.1555 191.432C30.4278 190.703 30.019 189.715 30.019 188.685V3.85418C30.028 2.83005 30.4407 1.85081 31.1674 1.12916C31.8942 0.40752 32.8763 0.00175439 33.9005 0H165.385C166.416 0 167.405 0.409651 168.135 1.13884C168.864 1.86802 169.273 2.857 169.273 3.88823V188.685C169.273 189.716 168.864 190.705 168.135 191.434C167.405 192.163 166.416 192.573 165.385 192.573ZM33.9005 0.136191C32.9156 0.137994 31.9716 0.530505 31.2758 1.22757C30.5801 1.92463 30.1893 2.86929 30.1893 3.85418V188.685C30.1893 189.669 30.5801 190.614 31.2758 191.311C31.9716 192.008 32.9156 192.401 33.9005 192.402H165.385C166.371 192.401 167.315 192.008 168.012 191.312C168.709 190.615 169.101 189.67 169.103 188.685V3.85418C169.101 2.86866 168.709 1.92402 168.012 1.22715C167.315 0.530283 166.371 0.137991 165.385 0.136191H33.9005Z" fill="#EBEBEB"/>
<path d="M312.682 192.573H181.19C180.159 192.571 179.172 192.161 178.443 191.432C177.714 190.703 177.304 189.715 177.302 188.685V3.85418C177.313 2.82943 177.727 1.85019 178.455 1.12874C179.182 0.407282 180.165 0.00173526 181.19 0H312.682C313.705 0.003544 314.685 0.410102 315.41 1.13155C316.136 1.85301 316.547 2.83122 316.556 3.85418V188.685C316.556 189.713 316.148 190.7 315.422 191.429C314.696 192.158 313.71 192.569 312.682 192.573ZM181.19 0.136191C180.205 0.137991 179.26 0.530283 178.563 1.22715C177.866 1.92402 177.474 2.86866 177.472 3.85418V188.685C177.474 189.67 177.866 190.615 178.563 191.312C179.26 192.008 180.205 192.401 181.19 192.402H312.682C313.667 192.401 314.612 192.008 315.309 191.312C316.005 190.615 316.398 189.67 316.4 188.685V3.85418C316.398 2.86866 316.005 1.92402 315.309 1.22715C314.612 0.530283 313.667 0.137991 312.682 0.136191H181.19Z" fill="#EBEBEB"/>
<path d="M121.648 113.208L279.111 113.208V11.9711L121.648 11.9711V113.208Z" fill="#F0F0F0"/>
<path d="M121.655 11.9712H120.238V113.208H121.655V11.9712Z" fill="#E6E6E6"/>
<path d="M275.025 109.122V16.0566L125.734 16.0566V109.122L275.025 109.122Z" fill="#FAFAFA"/>
<path d="M190.485 135.68H170.703V222.943H190.485V135.68Z" fill="#E6E6E6"/>
<path d="M184.2 222.943H190.485V210.897H177.615L184.2 222.943Z" fill="#FAFAFA"/>
<path d="M58.2173 135.68H38.4357V222.943H58.2173V135.68Z" fill="#E6E6E6"/>
<path d="M190.485 135.68H52.7424V218.796H190.485V135.68Z" fill="#FAFAFA"/>
<path d="M59.0208 222.943H52.7424V210.897H65.6056L59.0208 222.943Z" fill="#FAFAFA"/>
<path d="M185.609 166.656H57.6112V187.459H185.609V166.656Z" fill="#F0F0F0"/>
<path d="M185.609 191.898H57.6112V212.701H185.609V191.898Z" fill="#F0F0F0"/>
<path d="M67.022 164.852H176.199V166.152C176.199 166.875 175.912 167.567 175.401 168.078C174.89 168.589 174.197 168.876 173.475 168.876H69.7526C69.0302 168.876 68.3374 168.589 67.8266 168.078C67.3158 167.567 67.0288 166.875 67.0288 166.152V164.852H67.022Z" fill="#FAFAFA"/>
<path d="M185.609 141.406H57.6112V162.209H185.609V141.406Z" fill="#F0F0F0"/>
<path d="M67.022 139.595H176.199V140.896C176.199 141.618 175.912 142.311 175.401 142.822C174.89 143.333 174.197 143.62 173.475 143.62H69.7526C69.0302 143.62 68.3374 143.333 67.8266 142.822C67.3158 142.311 67.0288 141.618 67.0288 140.896V139.595H67.022Z" fill="#FAFAFA"/>
<path d="M67.022 190.094H176.199V191.395C176.199 192.117 175.912 192.81 175.401 193.321C174.89 193.832 174.197 194.119 173.475 194.119H69.7526C69.0302 194.119 68.3374 193.832 67.8266 193.321C67.3158 192.81 67.0288 192.117 67.0288 191.395V190.094H67.022Z" fill="#FAFAFA"/>
<path d="M276.455 136.824C281.998 127.937 299.131 103.675 327.662 90.9276C328.064 90.7505 327.737 90.3079 327.302 90.4441C325.859 90.9042 324.443 91.4429 323.059 92.0579C322.705 92.2145 322.297 91.9149 322.535 91.6698C324.752 89.4361 327.123 87.3609 329.63 85.4595C329.944 85.2212 329.494 84.8603 329.113 85.0509C326.393 86.3925 323.842 88.052 321.514 89.9947C321.207 90.2534 320.635 89.9946 320.88 89.6814C321.622 88.7962 322.453 87.8565 323.373 86.8895C323.631 86.6239 323.114 86.3175 322.78 86.5422C318.529 89.3309 315.067 93.1676 312.729 97.6826H312.688C314.595 93.2688 317.038 89.1065 319.961 85.2893C320.172 85.0101 319.634 84.7377 319.334 84.976C317.312 86.5245 315.451 88.2719 313.778 90.1921C313.526 90.4781 312.899 90.2466 313.097 89.9334C313.294 89.6201 313.587 89.1571 313.853 88.7689C314.118 88.3808 313.499 88.2378 313.172 88.4693C310.646 90.5094 308.38 92.8512 306.424 95.4423C306.192 95.7419 305.559 95.5444 305.743 95.2243C307.187 92.2986 308.799 89.4588 310.571 86.7193C310.761 86.4333 310.21 86.1813 309.924 86.4265C300.084 94.666 296.904 106.263 296.087 110.083C297.478 102.744 299.753 95.6011 302.862 88.8098C303.005 88.5102 302.42 88.3059 302.181 88.5715C299.474 91.4183 297.204 94.6519 295.447 98.1661C295.29 98.4861 294.602 98.3499 294.704 98.0162C295.161 96.5726 295.678 95.1018 296.264 93.6309C296.386 93.3245 295.801 93.1406 295.583 93.4062C291.953 97.6284 289.117 102.473 287.214 107.706C287.091 108.04 286.37 107.924 286.465 107.584C287.033 105.429 287.752 103.318 288.617 101.264C288.739 100.972 288.188 100.781 287.936 101.026C285.198 103.661 283.088 106.877 281.76 110.437C281.63 110.764 280.942 110.668 280.997 110.328C281.297 108.639 281.678 106.923 282.168 105.132C282.25 104.833 281.678 104.676 281.453 104.942C278.562 108.444 276.637 112.641 275.869 117.117C275.808 117.457 275.1 117.423 275.1 117.083C275.106 114.548 275.299 112.017 275.679 109.511C275.726 109.204 275.134 109.082 274.943 109.361C267.487 119.997 272.451 135.237 272.546 135.503L273.023 136.653C273.493 137.818 275.767 137.927 276.455 136.824Z" fill="#F5F5F5"/>
<path d="M263.605 137.334C259.35 131.887 246.507 117.165 227.638 111.812C227.372 111.731 227.536 111.39 227.822 111.431C228.759 111.574 229.687 111.774 230.6 112.03C230.831 112.098 231.056 111.84 230.886 111.703C229.319 110.445 227.66 109.307 225.922 108.299C225.704 108.169 225.922 107.87 226.201 107.958C228.025 108.56 229.762 109.398 231.369 110.451C231.587 110.594 231.914 110.328 231.737 110.158C231.192 109.633 230.593 109.089 229.932 108.53C229.749 108.38 230.041 108.101 230.273 108.217C233.227 109.693 235.731 111.934 237.525 114.706C235.973 111.915 234.081 109.326 231.894 106.998C231.737 106.828 232.043 106.576 232.255 106.699C233.672 107.534 234.996 108.518 236.204 109.633C236.388 109.804 236.756 109.565 236.606 109.375C236.456 109.184 236.231 108.898 236.034 108.66C235.836 108.421 236.204 108.244 236.408 108.374C238.18 109.499 239.803 110.844 241.236 112.378C241.4 112.555 241.781 112.344 241.652 112.139C240.496 110.305 239.236 108.539 237.879 106.848C237.736 106.671 238.049 106.433 238.254 106.562C245.111 111.07 248.141 118.697 248.999 121.244C247.496 116.394 245.439 111.732 242.871 107.352C242.762 107.162 243.102 106.95 243.279 107.107C245.233 108.782 246.923 110.743 248.291 112.922C248.42 113.127 248.829 112.922 248.734 112.732C248.318 111.792 247.869 110.839 247.372 109.885C247.269 109.695 247.61 109.497 247.787 109.654C250.467 112.189 252.665 115.188 254.276 118.506C254.392 118.724 254.828 118.561 254.739 118.329C254.19 116.927 253.551 115.563 252.826 114.243C252.724 114.06 253.044 113.855 253.228 113.998C255.207 115.537 256.811 117.504 257.92 119.752C258.028 119.963 258.451 119.814 258.383 119.589C258.042 118.459 257.647 117.294 257.184 116.136C257.102 115.939 257.443 115.762 257.606 115.919C259.769 118.066 261.344 120.731 262.182 123.661C262.257 123.886 262.693 123.777 262.659 123.538C262.424 121.797 262.074 120.072 261.61 118.377C261.556 118.173 261.91 118.016 262.053 118.179C267.65 124.635 265.955 135.755 265.921 135.966L265.737 136.817C265.665 137.023 265.542 137.207 265.381 137.353C265.219 137.499 265.023 137.603 264.812 137.654C264.6 137.706 264.379 137.704 264.168 137.648C263.957 137.592 263.764 137.484 263.605 137.334Z" fill="#FAFAFA"/>
<path d="M262.502 128.019C257.804 120.774 243.334 101.019 219.705 90.8049C219.371 90.6619 219.63 90.301 219.991 90.41C221.183 90.7708 222.353 91.1982 223.498 91.6902C223.797 91.8195 224.124 91.5676 223.92 91.3701C222.065 89.5566 220.085 87.8751 217.995 86.3379C217.737 86.1404 218.098 85.8476 218.411 85.9974C220.67 87.0733 222.793 88.4127 224.737 89.9878C224.989 90.1989 225.418 89.9878 225.248 89.729C224.621 89.0072 223.927 88.2446 223.157 87.4615C222.939 87.2367 223.355 86.9848 223.634 87.1686C227.171 89.4178 230.075 92.5328 232.071 96.2185H232.105C230.482 92.6038 228.424 89.2011 225.976 86.0859C225.799 85.8612 226.228 85.6365 226.487 85.8272C228.169 87.0818 229.725 88.4981 231.131 90.0559C231.342 90.2874 231.853 90.0967 231.689 89.838C231.526 89.5792 231.274 89.2115 231.049 88.8914C230.825 88.5714 231.328 88.4488 231.574 88.6395C233.683 90.2883 235.583 92.1886 237.232 94.2982C237.423 94.5433 237.913 94.3731 237.811 94.1143C236.577 91.7307 235.213 89.4165 233.725 87.1823C233.562 86.9439 234.005 86.7396 234.25 86.9371C242.462 93.6104 245.274 103.089 246.003 106.222C244.735 100.207 242.746 94.3679 240.079 88.8302C239.963 88.585 240.433 88.4148 240.644 88.6259C242.894 90.9365 244.791 93.566 246.275 96.4296C246.411 96.6951 246.956 96.5794 246.881 96.3002C246.48 95.1221 246.03 93.9237 245.519 92.7184C245.417 92.4733 245.894 92.3166 246.091 92.5345C249.141 95.9604 251.549 99.907 253.201 104.186C253.31 104.465 253.882 104.363 253.82 104.083C253.312 102.322 252.684 100.598 251.941 98.9219C251.839 98.6767 252.281 98.5133 252.499 98.7176C254.791 100.851 256.58 103.468 257.736 106.378C257.838 106.644 258.417 106.562 258.355 106.29C258.076 104.928 257.736 103.477 257.307 102.034C257.232 101.789 257.702 101.659 257.886 101.87C260.309 104.715 261.952 108.141 262.652 111.812C262.707 112.091 263.292 112.057 263.285 111.812C263.236 109.73 263.033 107.654 262.679 105.602C262.632 105.35 263.115 105.248 263.279 105.473C269.577 114.141 265.771 126.664 265.696 126.895L265.328 127.842C264.947 128.816 263.088 128.925 262.502 128.019Z" fill="#E6E6E6"/>
<path d="M282.788 129.469C287.057 125.949 299.635 116.531 315.167 113.48C315.385 113.44 315.324 113.208 315.092 113.228C314.338 113.293 313.587 113.399 312.845 113.549C312.648 113.583 312.518 113.406 312.682 113.324C314.123 112.52 315.61 111.802 317.135 111.172C317.326 111.09 317.189 110.886 316.978 110.934C315.452 111.294 313.965 111.802 312.539 112.452C312.348 112.541 312.144 112.357 312.307 112.248C312.825 111.921 313.383 111.567 313.996 111.22C314.166 111.118 313.996 110.934 313.792 111.002C311.273 111.872 308.967 113.264 307.023 115.087C308.766 113.243 310.689 111.578 312.763 110.117C312.913 110.008 312.722 109.837 312.539 109.912C311.305 110.428 310.116 111.046 308.984 111.758C308.807 111.867 308.569 111.696 308.718 111.574C308.868 111.451 309.093 111.267 309.29 111.111C309.488 110.954 309.236 110.838 309.052 110.913C307.489 111.608 306 112.456 304.606 113.446C304.442 113.555 304.19 113.406 304.326 113.276C305.443 112.187 306.744 111.022 308.194 109.871C308.337 109.756 308.133 109.592 307.956 109.674C303.527 111.819 299.741 115.093 296.979 119.166C299.086 115.909 301.518 112.875 304.238 110.11C304.36 109.98 304.136 109.837 303.972 109.933C302.187 110.974 300.534 112.227 299.049 113.664C298.913 113.794 298.627 113.664 298.743 113.521C299.233 112.908 299.75 112.289 300.309 111.669C300.424 111.54 300.193 111.404 300.03 111.499C297.553 113.069 295.323 114.996 293.411 117.219C293.288 117.362 292.982 117.219 293.091 117.089C293.78 116.157 294.521 115.263 295.311 114.413C295.426 114.291 295.208 114.148 295.045 114.236C293.277 115.173 291.696 116.426 290.38 117.934C290.258 118.07 289.958 117.934 290.054 117.811C290.523 117.069 291.041 116.313 291.606 115.55C291.701 115.421 291.47 115.299 291.313 115.394C289.326 116.692 287.644 118.407 286.383 120.419C286.288 120.562 285.968 120.481 286.036 120.324C286.544 119.153 287.126 118.016 287.779 116.919C287.861 116.783 287.616 116.674 287.48 116.783C281.984 120.916 281.276 128.359 281.269 128.495V129.067C281.242 129.639 282.257 129.905 282.788 129.469Z" fill="#E6E6E6"/>
<path d="M277.742 133.364C276.789 125.077 275.699 101.87 289.843 84.0771C290.04 83.8251 289.543 83.5868 289.291 83.8183C288.475 84.5676 287.717 85.378 287.023 86.2425C286.846 86.4672 286.343 86.3583 286.404 86.1063C286.777 83.8151 287.368 81.5646 288.167 79.3853C288.263 79.113 287.725 78.9768 287.548 79.2287C286.267 81.0231 285.293 83.0183 284.667 85.1326C284.586 85.4186 283.986 85.3709 283.986 85.0781C284.034 84.1997 284.123 83.2531 284.259 82.2658C284.3 81.9866 283.728 81.9049 283.612 82.1704C282.012 85.7067 281.611 89.6684 282.468 93.4538C281.371 89.7355 280.794 85.8834 280.752 82.007C280.752 81.7346 280.194 81.687 280.071 81.9525C279.435 83.7326 279.041 85.5901 278.9 87.475C278.9 87.7678 278.266 87.7678 278.219 87.475C278.171 87.1822 278.144 86.7464 278.11 86.3787C278.076 86.011 277.538 86.0791 277.429 86.3787C276.695 88.7061 276.341 91.1364 276.38 93.5763C276.38 93.8623 275.781 93.8964 275.699 93.6104C275.124 91.0359 274.714 88.427 274.474 85.7999C274.474 85.5275 273.895 85.5003 273.793 85.7658C271.13 94.8021 275.427 104.451 277.02 107.556C273.931 101.866 271.522 95.8325 269.843 89.5792C269.775 89.3068 269.223 89.3272 269.162 89.5792C268.79 92.6292 268.963 95.7212 269.673 98.7107C269.734 99.0035 269.142 99.092 268.992 98.8129C268.502 97.594 268.045 96.341 267.63 95.0608C267.541 94.7952 266.997 94.8225 266.949 95.0608C266.527 99.4257 267.514 104.111 268.897 108.237C268.999 108.53 268.386 108.646 268.256 108.36C267.456 106.617 266.773 104.822 266.214 102.987C266.139 102.728 265.614 102.742 265.533 102.987C265.01 105.955 265.278 109.008 266.309 111.839C266.404 112.125 265.825 112.255 265.676 111.982C264.927 110.621 264.205 109.197 263.558 107.726C263.442 107.475 262.925 107.529 262.877 107.788C262.659 111.587 263.926 115.278 265.703 118.574C265.846 118.846 265.294 119.023 265.097 118.765C263.664 116.889 262.35 114.927 261.161 112.888C261.018 112.65 260.48 112.725 260.521 112.99C261.045 123.15 273.568 133.187 273.806 133.378L274.828 134.113C276.053 134.965 277.824 134.393 277.742 133.364Z" fill="#E0E0E0"/>
<path d="M291.307 122.864C292.164 122.864 293.013 123.038 293.802 123.375C294.591 123.712 295.303 124.205 295.896 124.825C296.489 125.444 296.951 126.178 297.253 126.981C297.554 127.784 297.691 128.639 297.653 129.496C296.809 148.045 292.607 154.46 271.933 154.46C251.26 154.46 247.058 148.045 246.221 129.496C246.182 128.639 246.318 127.783 246.619 126.98C246.921 126.176 247.382 125.443 247.975 124.823C248.569 124.203 249.281 123.709 250.071 123.373C250.86 123.036 251.709 122.863 252.567 122.864H291.307Z" fill="#EBEBEB"/>
<path d="M58.6054 124.784C56.0587 119.302 48.1937 104.321 35.0922 96.4564C35.0581 96.4316 35.0345 96.3951 35.0258 96.3539C35.0171 96.3126 35.024 96.2696 35.0452 96.2332C35.0664 96.1968 35.1003 96.1695 35.1404 96.1566C35.1806 96.1438 35.2241 96.1463 35.2625 96.1636C35.9355 96.4461 36.5864 96.7784 37.21 97.1578C37.244 97.1767 37.2833 97.184 37.3218 97.1783C37.3603 97.1727 37.3959 97.1545 37.4231 97.1266C37.4502 97.0986 37.4674 97.0626 37.4719 97.0239C37.4765 96.9852 37.4682 96.9461 37.4483 96.9127C36.4528 95.5614 35.3653 94.2804 34.1934 93.0789C34.0504 92.9359 34.2547 92.7112 34.4249 92.827C35.7164 93.6911 36.8906 94.7188 37.9182 95.8844C38.0612 96.0411 38.3199 95.8844 38.211 95.687C37.8705 95.1422 37.4892 94.5634 37.067 93.9642C36.9444 93.8007 37.1827 93.6101 37.3394 93.7531C39.3957 95.651 40.9751 98.0074 41.9494 100.631C41.1048 97.9687 39.9914 95.3996 38.6264 92.9632C38.5242 92.7929 38.7694 92.6227 38.9124 92.7725C39.8626 93.7676 40.7133 94.8532 41.4523 96.0138C41.5681 96.1977 41.8609 96.0479 41.7723 95.8572L41.4523 95.1218C41.3638 94.9515 41.6089 94.7949 41.7451 94.9447C42.9452 96.2517 43.9896 97.6936 44.8571 99.2415C44.9592 99.4254 45.252 99.3096 45.1771 99.1121C44.5711 97.471 43.8152 95.7074 42.964 93.862C42.9504 93.824 42.9502 93.7826 42.9634 93.7445C42.9766 93.7064 43.0024 93.6739 43.0366 93.6525C43.0707 93.6311 43.1112 93.6219 43.1512 93.6266C43.1913 93.6313 43.2285 93.6494 43.2568 93.6782C47.7783 98.7649 49.2356 105.935 49.6101 108.285C48.9844 103.821 47.9426 99.4255 46.4981 95.1558C46.4881 95.1162 46.492 95.0742 46.5094 95.0372C46.5268 95.0001 46.5564 94.9702 46.5934 94.9525C46.6303 94.9349 46.6722 94.9305 46.7119 94.9403C46.7517 94.95 46.7868 94.9733 46.8114 95.006C48.0825 96.8378 49.1103 98.8269 49.8688 100.923C49.9438 101.121 50.2638 101.039 50.2161 100.835C50.005 99.9429 49.7667 99.0372 49.5011 98.1111C49.4398 97.9273 49.7122 97.8115 49.8212 97.975C51.5427 100.714 52.8377 103.699 53.6617 106.827C53.723 107.032 54.0499 106.963 54.009 106.752C53.7504 105.427 53.4231 104.115 53.0285 102.823C52.9672 102.646 53.2191 102.524 53.3417 102.68C54.6516 104.413 55.6136 106.383 56.1744 108.482C56.1902 108.521 56.2188 108.553 56.2555 108.574C56.2922 108.594 56.3348 108.601 56.3762 108.594C56.4176 108.587 56.4553 108.566 56.483 108.534C56.5107 108.503 56.5268 108.463 56.5285 108.421C56.3855 107.379 56.2153 106.303 55.9906 105.213C55.9827 105.172 55.9896 105.13 56.01 105.093C56.0304 105.057 56.0631 105.029 56.1023 105.014C56.1414 105 56.1845 104.999 56.2239 105.013C56.2633 105.027 56.2964 105.055 56.3174 105.091C57.6855 107.381 58.5578 109.933 58.8778 112.581C58.8778 112.628 58.8965 112.673 58.9297 112.707C58.9629 112.74 59.0079 112.758 59.0549 112.758C59.1018 112.758 59.1469 112.74 59.1801 112.707C59.2133 112.673 59.2319 112.628 59.2319 112.581C59.2346 111.018 59.1482 109.456 58.9732 107.903C58.9718 107.863 58.984 107.824 59.0079 107.792C59.0318 107.759 59.0659 107.736 59.1047 107.726C59.1435 107.716 59.1846 107.719 59.2213 107.735C59.258 107.751 59.2882 107.779 59.3068 107.815C62.7116 114.379 60.4508 123.769 60.41 123.946L60.1989 124.627C60.1526 124.794 60.0569 124.943 59.9243 125.055C59.7917 125.167 59.6284 125.235 59.4559 125.252C59.2834 125.269 59.1098 125.234 58.958 125.15C58.8062 125.066 58.6833 124.939 58.6054 124.784Z" fill="#F5F5F5"/>
<path d="M65.2856 125.015C66.8109 121.263 71.5503 111.042 79.7149 105.949C79.7353 105.931 79.749 105.906 79.754 105.879C79.759 105.853 79.7549 105.825 79.7424 105.801C79.7299 105.777 79.7098 105.757 79.685 105.746C79.6603 105.734 79.6325 105.731 79.6059 105.738C79.183 105.915 78.7753 106.127 78.387 106.371C78.2849 106.439 78.1623 106.303 78.2304 106.201C78.8352 105.294 79.5043 104.431 80.2324 103.62C80.3209 103.518 80.1916 103.361 80.0826 103.436C79.27 104.014 78.5412 104.701 77.9172 105.479C77.8355 105.588 77.6652 105.479 77.7333 105.336C77.9376 104.968 78.1691 104.573 78.4143 104.171C78.4892 104.056 78.3326 103.919 78.244 104.015C76.9443 105.32 75.9795 106.92 75.4317 108.679C75.9164 106.867 76.5826 105.108 77.4201 103.429C77.4746 103.313 77.3179 103.191 77.2294 103.286C76.638 103.956 76.1156 104.684 75.67 105.458C75.602 105.581 75.4181 105.458 75.4658 105.343L75.6769 104.845C75.7245 104.73 75.5679 104.614 75.4862 104.716C74.7421 105.607 74.1066 106.583 73.5931 107.624C73.5319 107.753 73.3412 107.658 73.3821 107.522C73.743 106.398 74.1788 105.172 74.7031 103.926C74.7576 103.804 74.5941 103.688 74.5124 103.79C71.7342 107.195 70.9238 112.159 70.7263 113.793C71.0471 110.723 71.6396 107.688 72.4968 104.723C72.5309 104.594 72.3606 104.505 72.2925 104.614C71.506 105.875 70.8858 107.232 70.4472 108.652C70.4063 108.788 70.202 108.72 70.2293 108.577C70.3518 107.964 70.488 107.338 70.6446 106.711C70.6446 106.582 70.5016 106.493 70.4335 106.609C69.3758 108.498 68.6047 110.534 68.1455 112.649C68.1115 112.799 67.9004 112.738 67.9208 112.588C68.0638 111.723 68.2477 110.817 68.486 109.864C68.486 109.742 68.3566 109.653 68.2885 109.755C67.4679 110.955 66.8832 112.3 66.5657 113.718C66.5657 113.854 66.3342 113.807 66.3478 113.664C66.4159 112.942 66.5113 112.193 66.6406 111.437C66.6406 111.315 66.4908 111.24 66.4296 111.349C65.583 112.952 65.071 114.71 64.9247 116.517C64.9184 116.542 64.904 116.564 64.8836 116.58C64.8633 116.596 64.8381 116.605 64.8123 116.605C64.7864 116.605 64.7613 116.596 64.741 116.58C64.7206 116.564 64.7062 116.542 64.6999 116.517C64.6748 115.431 64.7066 114.345 64.7953 113.262C64.7953 113.133 64.6318 113.071 64.5842 113.187C62.5413 117.675 64.1007 124.28 64.1279 124.402L64.2709 124.906C64.2909 125.02 64.3472 125.123 64.4313 125.202C64.5155 125.281 64.6228 125.33 64.7373 125.342C64.8518 125.354 64.9671 125.329 65.066 125.27C65.1649 125.211 65.2419 125.122 65.2856 125.015Z" fill="#F5F5F5"/>
<path d="M65.0131 119.357C67.1717 114.883 73.811 102.687 84.6585 96.3887C84.691 96.3715 84.7154 96.3421 84.7262 96.307C84.7371 96.2719 84.7335 96.2339 84.7164 96.2014C84.6992 96.1689 84.6699 96.1445 84.6347 96.1337C84.5996 96.1228 84.5616 96.1264 84.5291 96.1435C83.9758 96.3693 83.4388 96.6332 82.9221 96.9334C82.8946 96.9509 82.862 96.9586 82.8296 96.955C82.7973 96.9515 82.7671 96.937 82.744 96.914C82.721 96.891 82.7065 96.8608 82.703 96.8284C82.6995 96.796 82.7071 96.7634 82.7246 96.7359C83.5585 95.6382 84.4687 94.6006 85.4484 93.6308C85.472 93.6045 85.4851 93.5704 85.4851 93.535C85.485 93.4997 85.4719 93.4656 85.4482 93.4394C85.4245 93.4131 85.3919 93.3966 85.3567 93.393C85.3216 93.3893 85.2863 93.3989 85.2577 93.4197C84.1864 94.1128 83.2091 94.9413 82.3501 95.8848C82.2343 96.0141 82.0232 95.8848 82.1186 95.7213C82.4046 95.2719 82.7246 94.8021 83.0787 94.3594C83.0928 94.3293 83.0964 94.2953 83.089 94.2628C83.0816 94.2303 83.0636 94.2013 83.0378 94.1802C83.012 94.1591 82.98 94.1472 82.9467 94.1464C82.9134 94.1455 82.8808 94.1558 82.854 94.1756C81.1435 95.7095 79.8185 97.6247 78.9862 99.7662C79.7153 97.5926 80.6621 95.4983 81.8121 93.5151C81.9007 93.3721 81.6964 93.2359 81.5806 93.3516C80.7884 94.1508 80.0746 95.0241 79.4492 95.9597C79.3539 96.1095 79.1156 95.9597 79.1905 95.8303C79.2654 95.7009 79.3811 95.4353 79.4833 95.2447C79.5008 95.2131 79.5057 95.1761 79.4971 95.1411C79.4884 95.1061 79.4669 95.0756 79.4367 95.0558C79.4066 95.036 79.3701 95.0284 79.3345 95.0343C79.299 95.0403 79.267 95.0595 79.245 95.088C78.2455 96.1478 77.3726 97.3201 76.6437 98.5813C76.6284 98.6165 76.5997 98.6442 76.5639 98.6583C76.5281 98.6723 76.4883 98.6716 76.4531 98.6562C76.4178 98.6409 76.3902 98.6122 76.3761 98.5764C76.3621 98.5407 76.3628 98.5008 76.3782 98.4656C76.8957 97.1037 77.5221 95.6669 78.2644 94.1892C78.2819 94.1577 78.2868 94.1207 78.2781 94.0857C78.2695 94.0506 78.248 94.0202 78.2178 94.0004C78.1877 93.9806 78.1512 93.9729 78.1156 93.9789C78.0801 93.9848 78.0481 94.004 78.026 94.0326C74.2536 98.1523 72.9666 104.008 72.6261 105.942C73.1961 102.288 74.108 98.6947 75.3499 95.2106C75.3565 95.1783 75.3522 95.1448 75.3378 95.1152C75.3234 95.0856 75.2996 95.0615 75.2701 95.0468C75.2406 95.0321 75.2071 95.0274 75.1748 95.0337C75.1424 95.0399 75.113 95.0566 75.0912 95.0812C74.0289 96.5717 73.1616 98.1919 72.5104 99.9024C72.4995 99.9394 72.4744 99.9706 72.4406 99.9891C72.4067 100.008 72.3669 100.012 72.3299 100.001C72.2929 99.9903 72.2617 99.9652 72.2432 99.9313C72.2246 99.8975 72.2203 99.8577 72.2312 99.8206C72.415 99.092 72.6193 98.3566 72.8508 97.6076C72.8607 97.5743 72.8581 97.5387 72.8436 97.5072C72.8291 97.4757 72.8037 97.4506 72.7721 97.4364C72.7405 97.4223 72.7048 97.4201 72.6717 97.4303C72.6386 97.4405 72.6103 97.4623 72.5921 97.4918C71.1449 99.712 70.0429 102.139 69.3235 104.689C69.3145 104.726 69.2911 104.758 69.2585 104.778C69.226 104.798 69.1869 104.804 69.1499 104.795C69.1128 104.786 69.0809 104.763 69.0611 104.73C69.0413 104.697 69.0353 104.658 69.0443 104.621C69.2719 103.544 69.5584 102.48 69.9023 101.435C69.9186 101.4 69.9205 101.361 69.9078 101.325C69.895 101.289 69.8685 101.26 69.8342 101.244C69.7999 101.228 69.7605 101.226 69.7248 101.238C69.689 101.251 69.6598 101.278 69.6436 101.312C68.548 102.718 67.7342 104.323 67.2466 106.038C67.2394 106.076 67.2174 106.109 67.1855 106.131C67.1535 106.153 67.1143 106.161 67.0764 106.153C67.0384 106.146 67.0049 106.124 66.9832 106.092C66.9615 106.06 66.9534 106.021 66.9606 105.983C67.0832 105.132 67.2466 104.247 67.4441 103.362C67.448 103.328 67.4406 103.295 67.4232 103.266C67.4058 103.238 67.3793 103.216 67.3479 103.204C67.3165 103.192 67.2821 103.191 67.2502 103.201C67.2183 103.211 67.1906 103.232 67.1717 103.259C66.0173 105.126 65.268 107.214 64.9722 109.388C64.9722 109.426 64.9572 109.462 64.9303 109.489C64.9035 109.516 64.8672 109.531 64.8292 109.531C64.7913 109.531 64.7549 109.516 64.7281 109.489C64.7013 109.462 64.6862 109.426 64.6862 109.388C64.7053 108.106 64.7962 106.826 64.9586 105.554C64.9651 105.52 64.9585 105.484 64.9402 105.454C64.9218 105.423 64.8929 105.401 64.8591 105.391C64.8253 105.381 64.789 105.384 64.7571 105.399C64.7251 105.414 64.6999 105.44 64.6862 105.473C61.7922 110.825 63.5422 118.554 63.5763 118.697L63.7465 119.282C63.7887 119.413 63.8693 119.527 63.9777 119.611C64.0861 119.695 64.2174 119.744 64.3542 119.752C64.4911 119.76 64.6272 119.727 64.7447 119.657C64.8623 119.586 64.9558 119.482 65.0131 119.357Z" fill="#E6E6E6"/>
<path d="M55.6977 120.249C53.7366 118.077 47.9621 112.261 40.8326 110.375C40.7304 110.375 40.7645 110.212 40.8326 110.219C41.1814 110.266 41.5271 110.334 41.8676 110.423C41.8861 110.429 41.9061 110.429 41.9242 110.421C41.9423 110.414 41.9571 110.401 41.9662 110.383C41.9752 110.366 41.9778 110.346 41.9734 110.327C41.9691 110.308 41.9582 110.292 41.9425 110.28C41.2932 109.79 40.6106 109.347 39.8997 108.952C39.8841 108.94 39.8731 108.924 39.8688 108.905C39.8644 108.886 39.867 108.866 39.876 108.849C39.8851 108.831 39.8999 108.818 39.918 108.811C39.9361 108.803 39.9561 108.803 39.9746 108.809C40.6912 109.035 41.3773 109.348 42.0174 109.742C42.106 109.796 42.2013 109.687 42.1264 109.619C41.8881 109.415 41.6293 109.197 41.3501 108.979C41.2684 108.918 41.3501 108.802 41.4454 108.85C42.6625 109.446 43.7253 110.315 44.5506 111.39C43.7744 110.285 42.8918 109.258 41.9153 108.326C41.8981 108.312 41.8871 108.292 41.8845 108.271C41.882 108.249 41.8881 108.227 41.9017 108.21C41.9152 108.193 41.935 108.182 41.9567 108.179C41.9784 108.176 42.0003 108.183 42.0174 108.196C42.5952 108.526 43.1421 108.906 43.6517 109.333C43.7266 109.401 43.8424 109.299 43.7743 109.224L43.5087 108.938C43.4406 108.87 43.5087 108.768 43.6177 108.816C44.3544 109.258 45.0396 109.781 45.6605 110.375C45.7354 110.443 45.8512 110.375 45.7899 110.273C45.2724 109.592 44.6799 108.877 44.0126 108.162C43.9445 108.094 44.0126 107.992 44.1216 108.04C46.9271 109.776 48.6363 112.854 49.147 113.882C48.2067 111.921 47.0899 110.05 45.8103 108.292C45.8032 108.283 45.7977 108.274 45.7941 108.264C45.7906 108.254 45.7891 108.243 45.7898 108.232C45.7904 108.222 45.7931 108.211 45.7978 108.201C45.8025 108.192 45.8091 108.183 45.8171 108.176C45.8252 108.169 45.8346 108.163 45.8447 108.16C45.8549 108.156 45.8657 108.155 45.8764 108.155C45.8872 108.156 45.8977 108.159 45.9074 108.163C45.9171 108.168 45.9257 108.175 45.9329 108.183C46.8039 108.848 47.5865 109.621 48.2617 110.484C48.323 110.566 48.4592 110.484 48.4047 110.402C48.18 110.021 47.9417 109.64 47.6829 109.258C47.6756 109.241 47.674 109.222 47.6784 109.203C47.6828 109.185 47.693 109.168 47.7075 109.156C47.7219 109.144 47.7399 109.137 47.7588 109.136C47.7776 109.134 47.7964 109.139 47.8123 109.15C48.9931 110.172 50.0165 111.363 50.8494 112.684C50.9106 112.765 51.0468 112.684 50.9992 112.602C50.6995 112.064 50.3659 111.506 49.9777 110.947C49.9233 110.872 50.0254 110.784 50.1003 110.838C50.949 111.461 51.676 112.234 52.2453 113.119C52.2576 113.123 52.2705 113.123 52.2829 113.12C52.2953 113.118 52.3069 113.112 52.3168 113.104C52.3267 113.096 52.3347 113.086 52.34 113.075C52.3453 113.063 52.3479 113.05 52.3474 113.038C52.1295 112.582 51.8912 112.112 51.6665 111.676C51.6188 111.601 51.7278 111.519 51.7959 111.581C52.7581 112.445 53.5302 113.5 54.0634 114.679C54.1111 114.774 54.2541 114.72 54.2201 114.624C53.993 113.911 53.727 113.211 53.4234 112.527C53.4143 112.509 53.4122 112.488 53.4175 112.469C53.4227 112.45 53.435 112.433 53.4518 112.422C53.4687 112.411 53.489 112.407 53.5089 112.41C53.5287 112.413 53.5468 112.423 53.5595 112.439C56.0859 114.992 56.4059 119.582 56.4127 119.663V120.018C56.4055 120.097 56.375 120.173 56.3251 120.236C56.2751 120.298 56.2078 120.345 56.1317 120.369C56.0555 120.394 55.9738 120.396 55.8966 120.374C55.8195 120.353 55.7503 120.309 55.6977 120.249Z" fill="#E6E6E6"/>
<path d="M58.0334 122.653C58.4692 117.532 58.9731 103.212 52.4768 92.2279C52.3815 92.0713 52.613 91.9283 52.7288 92.0713C53.1122 92.5446 53.4604 93.0453 53.7706 93.5694C53.7876 93.5991 53.8143 93.6221 53.8462 93.6346C53.8781 93.647 53.9133 93.6482 53.946 93.6378C53.9786 93.6275 54.0067 93.6062 54.0256 93.5777C54.0445 93.5491 54.0531 93.5149 54.0498 93.4809C53.8825 92.0809 53.614 90.695 53.2463 89.3339C53.1986 89.1704 53.4506 89.0819 53.5323 89.2385C54.1325 90.3888 54.5768 91.614 54.8533 92.8816C54.8556 92.9013 54.8617 92.9203 54.8713 92.9377C54.8809 92.955 54.8938 92.9702 54.9093 92.9826C54.9248 92.9949 54.9425 93.004 54.9616 93.0095C54.9806 93.015 55.0005 93.0166 55.0202 93.0144C55.0399 93.0122 55.0589 93.0061 55.0762 92.9965C55.0935 92.9869 55.1088 92.974 55.1211 92.9585C55.1335 92.943 55.1426 92.9252 55.1481 92.9062C55.1535 92.8872 55.1552 92.8672 55.153 92.8476C55.153 92.3028 55.1121 91.724 55.0304 91.1112C55.031 91.0755 55.0437 91.0411 55.0665 91.0137C55.0892 90.9862 55.1207 90.9674 55.1556 90.9602C55.1905 90.9531 55.2269 90.9581 55.2586 90.9744C55.2903 90.9907 55.3155 91.0173 55.33 91.0499C56.0659 93.2953 56.2459 95.6857 55.8543 98.016C56.3604 95.6958 56.6229 93.3292 56.6374 90.9545C56.6374 90.9148 56.6532 90.8767 56.6813 90.8486C56.7094 90.8205 56.7475 90.8047 56.7872 90.8047C56.827 90.8047 56.8651 90.8205 56.8932 90.8486C56.9213 90.8767 56.937 90.9148 56.937 90.9545C57.2295 92.0687 57.4097 93.2093 57.475 94.3593C57.4824 94.3944 57.5017 94.4259 57.5296 94.4485C57.5575 94.4711 57.5923 94.4834 57.6282 94.4834C57.6641 94.4834 57.6989 94.4711 57.7268 94.4485C57.7547 94.4259 57.774 94.3944 57.7814 94.3593C57.7814 94.1346 57.8155 93.9099 57.8291 93.6783C57.8365 93.6432 57.8558 93.6117 57.8837 93.5891C57.9116 93.5665 57.9464 93.5542 57.9823 93.5542C58.0182 93.5542 58.053 93.5665 58.0809 93.5891C58.1088 93.6117 58.1281 93.6432 58.1355 93.6783C58.4743 95.1335 58.6366 96.6242 58.619 98.1181C58.6264 98.1532 58.6457 98.1847 58.6736 98.2073C58.7015 98.2299 58.7363 98.2423 58.7722 98.2423C58.8081 98.2423 58.8429 98.2299 58.8708 98.2073C58.8987 98.1847 58.918 98.1532 58.9254 98.1181C59.1706 96.6473 59.3885 95.013 59.5042 93.3038C59.5117 93.2687 59.531 93.2372 59.5589 93.2146C59.5867 93.192 59.6216 93.1797 59.6574 93.1797C59.6933 93.1797 59.7282 93.192 59.756 93.2146C59.7839 93.2372 59.8032 93.2687 59.8107 93.3038C61.0296 98.8808 59.0548 104.832 58.3262 106.759C59.7718 103.174 60.8753 99.4598 61.622 95.6667C61.622 95.627 61.6378 95.5889 61.6659 95.5608C61.694 95.5327 61.7321 95.5169 61.7718 95.5169C61.8115 95.5169 61.8496 95.5327 61.8777 95.5608C61.9058 95.5889 61.9216 95.627 61.9216 95.6667C62.0918 97.5482 62.014 99.4438 61.6901 101.305C61.6901 101.482 61.9352 101.536 61.9829 101.366C62.2076 100.61 62.4187 99.8409 62.6094 99.051C62.6094 99.0113 62.6252 98.9732 62.6532 98.9451C62.6813 98.917 62.7194 98.9012 62.7592 98.9012C62.7989 98.9012 62.837 98.917 62.8651 98.9451C62.8932 98.9732 62.909 99.0113 62.909 99.051C63.032 101.791 62.7311 104.533 62.0169 107.182C61.9693 107.365 62.2485 107.434 62.3097 107.263C62.677 106.177 62.9884 105.072 63.2427 103.954C63.2524 103.922 63.2723 103.894 63.2993 103.874C63.3262 103.854 63.3589 103.843 63.3925 103.843C63.426 103.843 63.4587 103.854 63.4857 103.874C63.5126 103.894 63.5325 103.922 63.5423 103.954C63.7832 105.775 63.6629 107.626 63.1882 109.401C63.1773 109.44 63.1824 109.482 63.2022 109.517C63.222 109.552 63.2549 109.578 63.2937 109.589C63.3325 109.6 63.3741 109.595 63.4092 109.575C63.4443 109.555 63.4701 109.522 63.481 109.483C63.8215 108.646 64.1619 107.767 64.4547 106.862C64.4676 106.83 64.4905 106.803 64.5199 106.786C64.5493 106.769 64.5835 106.761 64.6175 106.765C64.6514 106.769 64.6831 106.784 64.7078 106.807C64.7325 106.831 64.7489 106.862 64.7544 106.896C64.7966 109.182 64.3533 111.452 63.4537 113.555C63.3856 113.719 63.6444 113.834 63.7329 113.671C64.4007 112.498 65.0031 111.288 65.5375 110.048C65.5474 110.011 65.5711 109.98 65.6037 109.96C65.6363 109.94 65.6754 109.933 65.7128 109.941C65.7503 109.948 65.7834 109.97 65.8052 110.002C65.827 110.033 65.836 110.072 65.8303 110.11C65.5919 116.381 59.8447 122.578 59.7017 122.694L59.2387 123.143C59.1379 123.234 59.0135 123.295 58.8796 123.319C58.7457 123.343 58.6078 123.328 58.4818 123.277C58.3559 123.226 58.247 123.14 58.1676 123.029C58.0883 122.919 58.0418 122.788 58.0334 122.653Z" fill="#E0E0E0"/>
<path d="M49.0244 116.17C48.4956 116.169 47.9721 116.276 47.4856 116.483C46.9991 116.691 46.5597 116.994 46.1938 117.376C45.8279 117.758 45.5431 118.21 45.3567 118.705C45.1702 119.2 45.0859 119.727 45.1089 120.256C45.6264 131.702 48.2209 135.659 60.9819 135.659C73.7429 135.659 76.3305 131.702 76.848 120.256C76.871 119.727 76.7867 119.2 76.6003 118.705C76.4138 118.21 76.1291 117.758 75.7632 117.376C75.3973 116.994 74.9578 116.691 74.4713 116.483C73.9848 116.276 73.4614 116.169 72.9326 116.17H49.0244Z" fill="#EBEBEB"/>
<path d="M223.252 157.926H307.18V154.453H223.252V157.926Z" fill="#F5F5F5"/>
<path d="M223.259 154.46H205.677V157.933H223.259V154.46Z" fill="#E0E0E0"/>
<path d="M214.468 157.933H215.204L223.709 222.943H222.973L214.468 157.933Z" fill="#E0E0E0"/>
<path d="M214.468 157.933H213.733L205.228 222.943H205.963L214.468 157.933Z" fill="#E0E0E0"/>
<path d="M298.395 157.933H299.131L307.629 222.943H306.894L298.395 157.933Z" fill="#E0E0E0"/>
<path d="M298.395 157.933H297.66L289.155 222.943H289.89L298.395 157.933Z" fill="#E0E0E0"/>
<path d="M174.238 253.695C247.155 253.695 306.267 250.243 306.267 245.986C306.267 241.729 247.155 238.278 174.238 238.278C101.32 238.278 42.2081 241.729 42.2081 245.986C42.2081 250.243 101.32 253.695 174.238 253.695Z" fill="#F5F5F5"/>
<path d="M274.78 60.3799C273.077 58.1055 267.705 56.1239 264.933 59.4742C261.236 63.948 265.71 65.6436 263.946 69.7361C262.182 73.8286 262.816 75.7012 263.776 77.6351C264.736 79.569 263.21 79.7937 263.095 83.0827C262.979 86.3717 266.329 87.1684 268.999 86.6033C267.521 85.0643 270.19 84.8941 272.628 82.7423C275.066 80.5905 279.887 64.8605 274.78 60.3799Z" fill="#263238"/>
<path d="M271.552 243.099C269.55 243.304 267.577 243.731 265.669 244.372C263.675 245.119 261.595 245.613 259.479 245.843C257.136 246.15 257.239 248.349 261.352 248.349C265.465 248.349 268.113 247.92 269.789 247.92C271.464 247.92 272.512 247.975 272.649 246.844C272.785 245.714 272.975 242.888 271.552 243.099Z" fill="#263238"/>
<path d="M262.176 124.771C262.176 124.771 264.103 167.146 264.47 184.306C264.858 202.161 267.582 243.848 267.582 243.848H272.083C272.083 243.848 276.721 209.202 274.589 184.306C277.81 165.192 279.982 124.771 279.982 124.771H262.176Z" fill="#FFC3BD"/>
<path d="M267.582 243.44C265.213 244.638 262.55 245.095 261.508 245.633C260.466 246.171 272.083 244.918 272.083 243.849L267.582 243.44Z" fill="#FFC3BD"/>
<path d="M301.051 240.736C299.812 241.554 299.233 241.206 298.136 242.466C297.04 243.726 295.903 245.605 293.894 246.232C292.26 246.742 292.171 248.39 295.127 248.322C298.082 248.254 301.548 246.007 302.515 245.299C303.482 244.591 303.965 244.23 303.482 243.201C302.998 242.173 301.909 240.178 301.051 240.736Z" fill="#263238"/>
<path d="M298.096 242.758C298.096 243.262 296.25 245.155 297.415 244.951C299.505 244.577 302.134 242.227 301.739 241.294L298.096 242.758Z" fill="#FFC3BD"/>
<path d="M268.147 124.771C268.147 124.771 278.879 169.148 283.265 185.743C287.875 203.168 297.565 241.656 298.13 242.834L301.712 241.295C301.712 241.295 299.26 198.347 293.091 182.869C293.091 163.489 285.028 124.771 285.028 124.771H268.147Z" fill="#FFC3BD"/>
<path d="M264.048 98.3427C263.844 100.331 263.531 102.197 263.197 104.11C262.863 106.024 262.428 107.896 261.964 109.783C261.054 113.643 259.702 117.386 257.933 120.937L257.892 121.018C257.73 121.344 257.497 121.63 257.211 121.856C256.579 122.312 255.853 122.624 255.087 122.768C254.461 122.888 253.82 122.911 253.187 122.836C252.174 122.711 251.184 122.446 250.245 122.047C248.648 121.357 247.129 120.496 245.717 119.479C244.355 118.506 243.075 117.477 241.842 116.415C240.61 115.353 239.452 114.229 238.322 113.01C238.075 112.753 237.933 112.413 237.924 112.056C237.915 111.7 238.039 111.353 238.273 111.083C238.507 110.814 238.833 110.641 239.187 110.6C239.541 110.558 239.898 110.65 240.188 110.859C241.441 111.73 242.734 112.622 244.035 113.439C245.336 114.256 246.643 115.074 247.964 115.768C249.212 116.464 250.523 117.041 251.88 117.491C252.415 117.676 252.975 117.779 253.541 117.797C253.695 117.802 253.849 117.784 253.997 117.743C254.072 117.743 254.052 117.688 253.997 117.702L253.248 118.615C253.944 117.003 254.544 115.353 255.046 113.671C255.557 111.955 255.993 110.205 256.408 108.434C256.823 106.664 257.143 104.859 257.463 103.062C257.783 101.264 258.063 99.4186 258.301 97.6753V97.6277C258.425 96.8992 258.824 96.2463 259.416 95.804C260.008 95.3617 260.748 95.1638 261.481 95.2512C262.215 95.3387 262.887 95.7048 263.359 96.2739C263.83 96.8429 264.065 97.5714 264.014 98.3086L264.048 98.3427Z" fill="#FFC3BD"/>
<path d="M261.188 90.7027C254.685 93.4265 255.775 102.728 255.775 102.728C258.929 104.837 262.33 106.552 265.9 107.835C268.965 102.824 268.577 87.618 261.188 90.7027Z" fill="#263238"/>
<path d="M239.902 114.168L234.223 114.434L237.709 109.892C237.709 109.892 241.277 110.436 242.06 112.615L239.902 114.168Z" fill="#FFC3BD"/>
<path d="M230.368 111.696L233.487 108.053L237.702 109.892L234.222 114.434L230.368 111.696Z" fill="#FFC3BD"/>
<path d="M258.818 97.1713C258.587 101.257 258.982 110.177 261.849 127.814H285.743C285.403 119.541 285.777 111.805 288.991 96.7764C289.161 95.9898 289.165 95.1765 289.004 94.3881C288.843 93.5998 288.52 92.8535 288.055 92.1966C287.59 91.5398 286.994 90.9866 286.304 90.5723C285.614 90.158 284.846 89.8915 284.048 89.7898C282.522 89.5992 280.895 89.4357 279.376 89.3608C275.921 89.1154 272.453 89.1154 268.999 89.3608C266.758 89.5651 265.349 89.7898 263.551 90.0758C260.16 90.607 258.989 94.1207 258.818 97.1713Z" fill="#72A276"/>
<path d="M268.999 89.3613H279.376C276.03 92.289 272.53 95.0349 268.89 97.5872C268.043 96.3777 267.598 94.9328 267.618 93.4567C267.637 91.9806 268.12 90.5479 268.999 89.3613Z" fill="white"/>
<path d="M278.348 77.6758C277.667 81.0124 277.041 87.1342 279.376 89.3609C279.376 89.3609 274.535 94.4816 269.203 95.7278C265.88 93.6849 268.999 89.3609 268.999 89.3609C272.717 88.4688 272.621 85.711 271.974 83.1166L278.348 77.6758Z" fill="#FFC3BD"/>
<path opacity="0.2" d="M275.747 79.8955L271.981 83.1096C272.137 83.7152 272.244 84.3323 272.301 84.955C273.718 84.7439 275.672 83.1845 275.829 81.6932C275.912 81.0941 275.884 80.4846 275.747 79.8955Z" fill="black"/>
<path d="M281.869 71.5473C280.561 76.9949 280.119 79.3033 276.85 81.6322C271.927 85.1323 265.546 82.3131 265.206 76.6204C264.899 71.4792 267.092 63.4644 272.853 62.2319C274.122 61.9542 275.44 62.0054 276.684 62.3807C277.927 62.756 279.054 63.4429 279.958 64.3762C280.861 65.3096 281.511 66.4583 281.845 67.7134C282.18 68.9685 282.188 70.2882 281.869 71.5473Z" fill="#FFC3BD"/>
<path d="M282.631 74.6455C282.207 75.6384 281.414 76.4273 280.418 76.845C279.09 77.3761 278.266 76.2253 278.505 74.8906C278.723 73.6922 279.669 71.9625 281.065 71.9966C281.37 72.0104 281.667 72.1 281.929 72.2573C282.191 72.4146 282.409 72.6346 282.564 72.8975C282.72 73.1604 282.807 73.4579 282.819 73.7631C282.831 74.0682 282.766 74.3715 282.631 74.6455Z" fill="#FFC3BD"/>
<path d="M289.686 51.7521C289.631 48.4631 285.77 48.6198 285.77 48.6198C285.77 48.6198 287.078 47.4962 283.367 45.3376C279.655 43.179 276.237 45.9096 278.008 48.1227C274.378 47.7209 274.65 52.6578 277.258 53.0596C277.258 53.0596 275.107 56.0625 279.301 58.2212L284.068 61.1288C290.026 60.2912 288.269 56.0081 288.269 56.0081C288.269 56.0081 289.747 55.0411 289.686 51.7521Z" fill="#263238"/>
<path d="M276.639 57.4587C275.645 55.8381 278.566 54.9052 281.943 56.1785C285.321 57.4519 287.16 62.3071 284.041 62.5931C278.423 59.3313 276.639 57.4587 276.639 57.4587Z" fill="#72A276"/>
<path d="M271.409 59.7534C265.036 61.9665 273.057 67.5367 278.055 68.2653C274.651 70.8665 278.055 74.0602 276.169 76.355C274.283 78.6498 275.25 82.8512 280.255 81.0331C285.26 79.215 288.426 71.9424 286.635 69.1165C284.844 66.2905 286.547 65.2691 284.402 60.8906C282.093 56.1784 264.804 52.6579 271.409 59.7534Z" fill="#263238"/>
<path d="M272.294 71.6087C272.22 72.0581 271.92 72.3782 271.614 72.3237C271.307 72.2692 271.144 71.8675 271.225 71.4181C271.307 70.9686 271.607 70.6554 271.906 70.7371C272.206 70.8188 272.342 71.1593 272.294 71.6087Z" fill="#263238"/>
<path d="M267.208 70.7165C267.133 71.1591 266.833 71.4791 266.527 71.4314C266.22 71.3838 266.057 70.9752 266.139 70.5258C266.22 70.0764 266.52 69.7563 266.82 69.8448C267.119 69.9334 267.289 70.267 267.208 70.7165Z" fill="#263238"/>
<path d="M266.949 69.8584L265.927 69.3613C265.927 69.3613 266.336 70.2942 266.949 69.8584Z" fill="#263238"/>
<path d="M268.413 71.7178C267.832 72.6676 267.124 73.5337 266.309 74.2918C266.509 74.4944 266.751 74.6511 267.018 74.7511C267.285 74.851 267.571 74.8918 267.855 74.8706L268.413 71.7178Z" fill="#ED847E"/>
<path d="M270.524 76.9471C270.268 76.9469 270.013 76.9241 269.761 76.879C269.744 76.8765 269.728 76.8706 269.713 76.8617C269.698 76.8528 269.685 76.841 269.675 76.827C269.665 76.8131 269.658 76.7972 269.654 76.7804C269.65 76.7636 269.649 76.7462 269.652 76.7292C269.659 76.6941 269.679 76.6631 269.708 76.6427C269.738 76.6223 269.774 76.6143 269.809 76.6202C270.363 76.7296 270.935 76.7077 271.479 76.5563C272.023 76.405 272.524 76.1284 272.941 75.7486C272.953 75.7361 272.967 75.726 272.982 75.7189C272.998 75.7117 273.015 75.7078 273.032 75.7071C273.049 75.7065 273.066 75.7092 273.082 75.7152C273.098 75.7211 273.113 75.7302 273.125 75.7418C273.138 75.7534 273.148 75.7674 273.155 75.7829C273.162 75.7985 273.166 75.8152 273.167 75.8323C273.167 75.8494 273.165 75.8664 273.159 75.8824C273.153 75.8984 273.144 75.9131 273.132 75.9257C272.43 76.595 271.494 76.9618 270.524 76.9471Z" fill="#263238"/>
<path d="M274.487 69.5726C274.425 69.5538 274.371 69.5126 274.337 69.4569C274.136 69.1887 273.875 68.9718 273.575 68.8238C273.274 68.6759 272.943 68.6011 272.608 68.6057C272.573 68.6094 272.537 68.6063 272.504 68.5963C272.47 68.5863 272.439 68.5698 272.412 68.5476C272.384 68.5254 272.362 68.4981 272.345 68.4672C272.329 68.4362 272.318 68.4023 272.315 68.3673C272.309 68.2961 272.332 68.2256 272.378 68.1708C272.423 68.116 272.489 68.0815 272.56 68.0745C272.983 68.0641 273.402 68.1544 273.784 68.3379C274.165 68.5214 274.497 68.7929 274.753 69.13C274.775 69.1572 274.791 69.1886 274.801 69.2221C274.811 69.2557 274.814 69.291 274.81 69.3258C274.806 69.3606 274.796 69.3943 274.779 69.425C274.762 69.4557 274.739 69.4827 274.712 69.5045C274.682 69.5319 274.646 69.5523 274.607 69.564C274.568 69.5758 274.527 69.5788 274.487 69.5726Z" fill="#263238"/>
<path d="M266.268 67.918C266.22 67.8978 266.178 67.8637 266.149 67.8201C266.12 67.7765 266.105 67.7252 266.105 67.6728C266.105 67.6204 266.12 67.5691 266.149 67.5255C266.178 67.4819 266.22 67.4478 266.268 67.4277C266.644 67.2336 267.061 67.1323 267.484 67.1323C267.906 67.1323 268.323 67.2336 268.699 67.4277C268.76 67.4638 268.805 67.5228 268.823 67.5918C268.841 67.6607 268.83 67.734 268.794 67.7954C268.758 67.8568 268.699 67.9013 268.63 67.9192C268.561 67.9371 268.488 67.9268 268.427 67.8907C268.129 67.7367 267.798 67.6563 267.463 67.6563C267.128 67.6563 266.797 67.7367 266.5 67.8907C266.467 67.9147 266.428 67.9298 266.387 67.9346C266.347 67.9393 266.306 67.9336 266.268 67.918Z" fill="#263238"/>
<path d="M272.002 70.7505L270.98 70.2534C270.98 70.2534 271.389 71.1863 272.002 70.7505Z" fill="#263238"/>
<path d="M261.849 127.814L262.829 187.377L294.473 181.698C295.699 150.551 290.333 134.413 285.743 127.814H261.849Z" fill="#263238"/>
<path opacity="0.2" d="M271.934 163.598L275.706 151.314L272.437 142.026L271.934 163.598Z" fill="black"/>
<path d="M289.604 94.5224C290.285 95.9728 290.857 97.3687 291.429 98.8124C292.001 100.256 292.546 101.686 293.043 103.15C294.092 106.097 294.95 109.108 295.61 112.166C295.753 112.963 295.937 113.725 296.032 114.542L296.203 115.748L296.305 116.994L296.352 117.62C296.368 117.985 296.348 118.35 296.291 118.71C296.182 119.377 295.951 120.019 295.61 120.603C295.06 121.506 294.347 122.298 293.506 122.938C292.134 123.956 290.623 124.77 289.019 125.356C287.519 125.928 285.972 126.365 284.395 126.663C284.056 126.728 283.706 126.67 283.407 126.498C283.108 126.326 282.881 126.053 282.767 125.727C282.653 125.402 282.66 125.047 282.786 124.726C282.913 124.405 283.15 124.141 283.455 123.98H283.523C284.776 123.299 286.077 122.618 287.262 121.835C288.396 121.155 289.446 120.341 290.387 119.411C290.722 119.096 290.988 118.716 291.17 118.294C291.198 118.215 291.198 118.129 291.17 118.049C291.17 118.049 291.17 118.049 291.17 118.015L291.102 117.511C290.909 116.135 290.639 114.771 290.292 113.426C289.57 110.661 288.651 107.876 287.636 105.118C286.622 102.36 285.505 99.5886 284.368 96.9466C284.096 96.2574 284.101 95.4902 284.38 94.8043C284.66 94.1184 285.193 93.5665 285.868 93.2632C286.544 92.96 287.311 92.9287 288.009 93.1759C288.707 93.423 289.283 93.9296 289.618 94.5905L289.604 94.5224Z" fill="#FFC3BD"/>
<path d="M284.477 89.8856C291.381 90.8526 293.329 99.8547 293.329 99.8547C291.191 102.764 288.672 105.373 285.839 107.611C281.256 103.45 276.639 88.7689 284.477 89.8856Z" fill="#263238"/>
<path d="M284.123 123.742L278.055 124.144L282.025 128.264C282.025 128.264 285.519 127.324 286.05 125.05L284.123 123.742Z" fill="#FFC3BD"/>
<path d="M276.087 127.338L277.796 129.748C277.946 129.958 278.168 130.105 278.419 130.161C278.67 130.218 278.933 130.18 279.158 130.055L282.876 127.971L278.042 124.151L276.21 125.976C276.031 126.151 275.921 126.385 275.898 126.634C275.876 126.884 275.943 127.133 276.087 127.338Z" fill="#FFC3BD"/>
<path d="M243.899 40.2644C243.709 37.7882 242.599 35.4726 240.788 33.7728C238.978 32.073 236.597 31.1119 234.114 31.0784V30.3975C236.77 30.4338 239.316 31.4621 241.253 33.2803C243.189 35.0984 244.376 37.5751 244.58 40.2236L243.899 40.2644Z" fill="#72A276"/>
<path d="M245.131 47.696L244.45 47.7368L244.719 52.2107L245.4 52.1698L245.131 47.696Z" fill="#72A276"/>
<path d="M241.611 149.258H62.3846C60.3302 149.223 58.3628 148.422 56.8677 147.013C55.3726 145.603 54.4576 143.687 54.3018 141.638L47.7851 40.3805C47.7105 39.4049 47.8395 38.4245 48.1638 37.5014C48.4881 36.5783 49.0008 35.7327 49.6692 35.0181C50.3376 34.3036 51.1472 33.7358 52.0467 33.3507C52.9461 32.9656 53.9158 32.7716 54.8942 32.7811H234.113C236.166 32.8138 238.132 33.6107 239.628 35.016C241.124 36.4214 242.042 38.3342 242.203 40.3805L248.72 141.638C248.797 142.615 248.671 143.598 248.348 144.523C248.025 145.449 247.513 146.297 246.844 147.014C246.175 147.73 245.364 148.3 244.463 148.687C243.563 149.073 242.591 149.267 241.611 149.258Z" fill="#72A276"/>
<path d="M238.982 145.39H92.789C91.1051 145.355 89.4938 144.698 88.2664 143.544C87.0389 142.391 86.2824 140.824 86.1429 139.145L80.743 55.2046C80.6816 54.4028 80.7876 53.5971 81.0541 52.8385C81.3206 52.0799 81.742 51.3849 82.2913 50.7978C82.8407 50.2106 83.5061 49.7441 84.2454 49.4278C84.9846 49.1115 85.7815 48.9522 86.5856 48.9602H232.799C234.486 48.9857 236.102 49.6401 237.332 50.7952C238.561 51.9503 239.315 53.5227 239.445 55.2046L244.845 139.145C244.908 139.949 244.802 140.757 244.535 141.517C244.267 142.278 243.844 142.974 243.292 143.562C242.741 144.15 242.072 144.616 241.33 144.93C240.588 145.245 239.788 145.402 238.982 145.39Z" fill="white"/>
<path d="M102.942 42.7706H82.3093C81.6639 42.7592 81.0458 42.5082 80.5751 42.0665C80.1044 41.6248 79.8148 41.0238 79.7625 40.3804C79.7389 40.0729 79.7795 39.7638 79.8816 39.4727C79.9838 39.1816 80.1453 38.915 80.3559 38.6896C80.5665 38.4643 80.8217 38.2851 81.1052 38.1636C81.3887 38.042 81.6944 37.9807 82.0028 37.9835H102.608C103.255 37.9935 103.875 38.2449 104.346 38.6883C104.818 39.1318 105.106 39.7353 105.155 40.3804C105.179 40.6854 105.139 40.9919 105.038 41.2807C104.938 41.5695 104.778 41.8345 104.571 42.0589C104.363 42.2833 104.111 42.4624 103.831 42.5848C103.55 42.7073 103.248 42.7705 102.942 42.7706Z" fill="white"/>
<path d="M130.378 42.7706H116.697C116.052 42.7606 115.434 42.5099 114.964 42.0677C114.494 41.6256 114.207 41.0238 114.157 40.3804C114.133 40.0732 114.172 39.7643 114.274 39.4732C114.375 39.1822 114.536 38.9154 114.746 38.6899C114.956 38.4645 115.211 38.2852 115.494 38.1636C115.777 38.042 116.083 37.9806 116.391 37.9835H130.071C130.717 37.9936 131.336 38.2453 131.806 38.6889C132.277 39.1324 132.564 39.7359 132.611 40.3804C132.636 40.6873 132.596 40.996 132.495 41.2867C132.393 41.5774 132.232 41.8437 132.022 42.0687C131.812 42.2936 131.557 42.4722 131.274 42.5931C130.991 42.714 130.685 42.7744 130.378 42.7706Z" fill="white"/>
<path d="M157.806 42.7706H144.133C143.487 42.7592 142.869 42.5082 142.399 42.0665C141.928 41.6248 141.638 41.0238 141.586 40.3804C141.562 40.0729 141.603 39.7638 141.705 39.4727C141.807 39.1816 141.969 38.915 142.179 38.6896C142.39 38.4643 142.645 38.2851 142.929 38.1636C143.212 38.042 143.518 37.9807 143.826 37.9835H157.5C158.146 37.995 158.765 38.2469 159.236 38.6901C159.707 39.1332 159.996 39.7358 160.047 40.3804C160.069 40.6875 160.028 40.9958 159.925 41.2861C159.823 41.5763 159.661 41.8421 159.45 42.0667C159.24 42.2913 158.985 42.4699 158.702 42.591C158.419 42.7121 158.114 42.7733 157.806 42.7706Z" fill="white"/>
<path opacity="0.2" d="M56.9167 143.143H56.869C56.4856 143.137 56.1183 142.987 55.8396 142.724C55.561 142.46 55.3913 142.102 55.3641 141.719L48.8406 40.3191C48.8249 40.1338 48.8489 39.9472 48.9111 39.772C48.9732 39.5967 49.072 39.4367 49.2009 39.3026C49.3298 39.1686 49.4858 39.0635 49.6586 38.9946C49.8313 38.9256 50.0167 38.8943 50.2025 38.9027H50.2434C50.6269 38.9067 50.995 39.0544 51.2749 39.3167C51.5548 39.5789 51.7261 39.9366 51.7551 40.3191L58.2786 141.719C58.2931 141.905 58.2682 142.091 58.2058 142.266C58.1433 142.441 58.0445 142.601 57.916 142.736C57.7874 142.87 57.632 142.976 57.4598 143.046C57.2876 143.116 57.1025 143.149 56.9167 143.143Z" fill="white"/>
<path d="M227.706 43.9963C226.732 43.984 225.799 43.6084 225.088 42.9432C224.378 42.278 223.942 41.3712 223.865 40.4009C223.832 39.9342 223.896 39.4657 224.053 39.0247C224.209 38.5837 224.455 38.1796 224.774 37.8378C225.094 37.4959 225.48 37.2236 225.909 37.0378C226.339 36.852 226.802 36.7567 227.27 36.7578C228.242 36.7718 229.174 37.1482 229.883 37.8132C230.592 38.4782 231.027 39.3841 231.104 40.3532C231.139 40.8227 231.077 41.2944 230.921 41.7386C230.765 42.1828 230.519 42.5899 230.198 42.934C229.877 43.2722 229.491 43.541 229.062 43.7237C228.633 43.9065 228.172 43.9992 227.706 43.9963ZM227.277 37.3911C226.894 37.382 226.513 37.4538 226.159 37.6019C225.806 37.7501 225.487 37.9712 225.225 38.2508C224.963 38.5303 224.763 38.8621 224.637 39.2244C224.512 39.5867 224.465 39.9714 224.498 40.3532C224.561 41.1646 224.925 41.9232 225.518 42.4801C226.112 43.0369 226.892 43.3519 227.706 43.363C228.088 43.3712 228.468 43.2987 228.821 43.1501C229.174 43.0015 229.491 42.7803 229.753 42.5008C230.014 42.2213 230.214 41.8899 230.339 41.528C230.464 41.1662 230.511 40.7822 230.477 40.4009C230.418 39.5896 230.056 38.8302 229.463 38.2728C228.87 37.7155 228.09 37.4009 227.277 37.3911Z" fill="white"/>
<path d="M218.05 43.9963C217.078 43.9824 216.146 43.606 215.437 42.9409C214.728 42.2759 214.292 41.3701 214.216 40.4009C214.183 39.9342 214.247 39.4657 214.404 39.0247C214.56 38.5837 214.806 38.1796 215.125 37.8378C215.444 37.4959 215.831 37.2236 216.26 37.0378C216.69 36.852 217.153 36.7567 217.621 36.7578C218.593 36.7718 219.525 37.1482 220.234 37.8132C220.943 38.4782 221.378 39.3841 221.455 40.3532C221.487 40.82 221.424 41.2885 221.267 41.7295C221.111 42.1705 220.865 42.5745 220.546 42.9164C220.226 43.2582 219.84 43.5305 219.41 43.7164C218.981 43.9022 218.518 43.9975 218.05 43.9963ZM217.628 37.3911C217.244 37.382 216.864 37.4538 216.51 37.6019C216.157 37.7501 215.838 37.9712 215.576 38.2508C215.314 38.5303 215.114 38.8621 214.988 39.2244C214.863 39.5867 214.816 39.9714 214.849 40.3532C214.912 41.1634 215.275 41.9211 215.867 42.4778C216.459 43.0345 217.237 43.3502 218.05 43.363C218.433 43.3722 218.814 43.3003 219.167 43.1522C219.521 43.0041 219.839 42.783 220.102 42.5034C220.364 42.2238 220.564 41.892 220.689 41.5297C220.814 41.1674 220.862 40.7828 220.828 40.4009C220.765 39.5907 220.403 38.8331 219.811 38.2763C219.219 37.7196 218.44 37.404 217.628 37.3911Z" fill="white"/>
<path opacity="0.2" d="M71.9451 38.6168C72.4627 38.6315 72.9569 38.836 73.3335 39.1913C73.7102 39.5466 73.9431 40.028 73.988 40.5439L80.5728 142.911C80.5928 143.148 80.5629 143.387 80.4851 143.611C80.4072 143.836 80.2831 144.042 80.1208 144.216C79.9585 144.39 79.7615 144.528 79.5427 144.621C79.3238 144.714 79.0878 144.76 78.85 144.756H66.1707C65.6531 144.742 65.159 144.537 64.7823 144.182C64.4056 143.827 64.1727 143.345 64.1278 142.829L57.5362 40.4621C57.5162 40.2251 57.5461 39.9866 57.6239 39.7618C57.7018 39.537 57.8259 39.3311 57.9882 39.1572C58.1505 38.9833 58.3475 38.8454 58.5663 38.7523C58.7852 38.6593 59.0212 38.6131 59.259 38.6168H71.9451ZM71.9451 37.9835H59.259C58.9348 37.9807 58.6135 38.0452 58.3155 38.173C58.0175 38.3008 57.7492 38.4891 57.5278 38.7259C57.3063 38.9627 57.1364 39.243 57.0289 39.5489C56.9213 39.8548 56.8784 40.1797 56.9029 40.503L63.4877 142.87C63.5388 143.55 63.8426 144.185 64.3393 144.652C64.836 145.118 65.4894 145.381 66.1707 145.39H78.8568C79.1813 145.394 79.5031 145.33 79.8016 145.202C80.1001 145.075 80.3687 144.887 80.5904 144.65C80.8121 144.413 80.982 144.132 81.0891 143.826C81.1963 143.519 81.2384 143.194 81.2129 142.87L74.6281 40.503C74.577 39.8236 74.2732 39.188 73.7765 38.7215C73.2799 38.2551 72.6264 37.9918 71.9451 37.9835Z" fill="white"/>
<path opacity="0.3" d="M118.726 97.1716H94.3688C93.5531 97.159 92.7712 96.8431 92.1757 96.2854C91.5803 95.7276 91.2138 94.9682 91.1479 94.155L89.2004 63.8731C89.1722 63.4849 89.2247 63.0951 89.3545 62.7282C89.4844 62.3613 89.6888 62.0253 89.9549 61.7412C90.221 61.4572 90.543 61.2314 90.9007 61.0779C91.2584 60.9245 91.644 60.8468 92.0332 60.8497H116.357C117.173 60.8639 117.955 61.1813 118.55 61.7402C119.146 62.299 119.512 63.0593 119.578 63.8731L121.525 94.155C121.554 94.5402 121.503 94.9272 121.376 95.2919C121.248 95.6566 121.047 95.991 120.784 96.2742C120.522 96.5574 120.203 96.7833 119.849 96.9377C119.495 97.0921 119.113 97.1717 118.726 97.1716Z" fill="#72A276"/>
<path fill-rule="evenodd" clip-rule="evenodd" d="M107.79 73.5428C108.342 73.5428 108.887 73.5428 109.445 73.5428H109.67L109.486 70.676C109.193 70.676 108.88 70.6011 108.574 70.5875C108.002 70.5875 107.436 70.533 106.871 70.5466C106.029 70.5353 105.205 70.7955 104.522 71.2889C104.15 71.5733 103.843 71.9335 103.621 72.3456C103.4 72.7576 103.268 73.2121 103.235 73.679C103.208 74.0894 103.208 74.5011 103.235 74.9115C103.235 75.5925 103.317 76.1985 103.357 76.8454V77.0837H100.634L100.845 80.291H103.569L104.079 88.1968H107.43L106.905 80.2978H109.629C109.704 79.2355 109.772 78.1801 109.847 77.0837H106.68C106.68 77.0837 106.585 75.4903 106.558 74.8026C106.497 73.8628 107.035 73.5768 107.79 73.5428Z" fill="white"/>
<path opacity="0.3" d="M156.22 97.1716H131.862C131.046 97.159 130.264 96.8431 129.669 96.2854C129.073 95.7276 128.707 94.9682 128.641 94.155L126.694 63.8731C126.665 63.4849 126.718 63.0951 126.848 62.7282C126.978 62.3613 127.182 62.0253 127.448 61.7412C127.714 61.4572 128.036 61.2314 128.394 61.0779C128.752 60.9245 129.137 60.8468 129.526 60.8497H153.877C154.694 60.8639 155.475 61.1813 156.071 61.7402C156.666 62.299 157.032 63.0593 157.098 63.8731L159.046 94.155C159.076 94.5427 159.025 94.9325 158.896 95.2995C158.768 95.6665 158.564 96.0026 158.298 96.2865C158.032 96.5703 157.71 96.7956 157.352 96.948C156.994 97.1004 156.608 97.1765 156.22 97.1716Z" fill="#72A276"/>
<path fill-rule="evenodd" clip-rule="evenodd" d="M140.129 82.1018C139.475 82.0787 138.842 81.8645 138.308 81.4857C137.774 81.107 137.363 80.5802 137.126 79.9705C137.564 80.056 138.015 80.0421 138.447 79.9296H138.488C137.633 79.7526 136.882 79.2463 136.397 78.52C136.067 78.0362 135.876 77.4708 135.846 76.8858C136.265 77.1118 136.731 77.2398 137.207 77.2603C136.547 76.8195 136.064 76.1582 135.846 75.3945C135.614 74.6567 135.68 73.8575 136.029 73.1678C136.854 74.1103 137.858 74.8797 138.983 75.4314C140.107 75.9831 141.33 76.3062 142.58 76.3818C142.58 76.2593 142.526 76.1503 142.505 76.0414C142.364 75.3551 142.478 74.641 142.825 74.0326C143.031 73.6674 143.318 73.3545 143.664 73.1183C144.01 72.8821 144.406 72.7289 144.82 72.6707C145.31 72.5892 145.812 72.6245 146.285 72.7736C146.758 72.9227 147.19 73.1814 147.544 73.5287C147.565 73.5521 147.592 73.5691 147.622 73.5775C147.653 73.586 147.685 73.5855 147.714 73.5763C148.329 73.4472 148.918 73.2171 149.458 72.8954H149.499C149.318 73.5452 148.916 74.1114 148.361 74.4956C148.943 74.4291 149.51 74.2729 150.043 74.0326C149.934 74.1892 149.832 74.3458 149.723 74.4956C149.423 74.8954 149.071 75.2528 148.675 75.5579C148.657 75.5665 148.643 75.5804 148.635 75.5976C148.626 75.6148 148.623 75.6343 148.627 75.6532C148.664 76.1064 148.664 76.5619 148.627 77.0151C148.575 77.9507 148.368 78.8711 148.014 79.7389C147.661 80.6302 147.151 81.4511 146.509 82.1631C145.431 83.3612 144 84.1861 142.423 84.5192C141.863 84.6387 141.294 84.7071 140.721 84.7235C138.963 84.7719 137.228 84.3133 135.723 83.4024L135.641 83.3548C136.678 83.4791 137.728 83.3337 138.692 82.9326C139.209 82.7277 139.693 82.4478 140.129 82.1018Z" fill="white"/>
<path opacity="0.9" d="M193.713 97.1716H169.355C168.539 97.159 167.758 96.8431 167.162 96.2854C166.567 95.7276 166.2 94.9682 166.134 94.155L164.187 63.8731C164.159 63.4849 164.211 63.0951 164.341 62.7282C164.471 62.3613 164.675 62.0253 164.941 61.7412C165.207 61.4572 165.529 61.2314 165.887 61.0779C166.245 60.9245 166.63 60.8468 167.019 60.8497H191.37C192.187 60.8624 192.97 61.1793 193.566 61.7384C194.161 62.2975 194.527 63.0587 194.591 63.8731L196.539 94.155C196.569 94.5427 196.518 94.9325 196.389 95.2995C196.261 95.6665 196.057 96.0026 195.791 96.2865C195.525 96.5703 195.203 96.7956 194.845 96.948C194.487 97.1004 194.102 97.1765 193.713 97.1716Z" fill="#72A276"/>
<path d="M188.006 74.6591C187.842 73.6082 187.32 72.6462 186.529 71.9353C185.691 71.1922 184.618 70.7679 183.498 70.7368C180.846 70.5838 178.186 70.6134 175.538 70.8253C174.724 70.915 173.962 71.2694 173.369 71.834C172.776 72.3987 172.385 73.1424 172.256 73.9509C171.956 75.3128 172.44 81.6388 172.753 82.9939C172.923 83.8509 173.341 84.6389 173.957 85.259C174.572 85.8792 175.357 86.3041 176.212 86.4804C177.506 86.8072 183.744 86.7664 185.133 86.5349C185.966 86.4465 186.746 86.0811 187.347 85.4971C187.948 84.9132 188.336 84.1445 188.449 83.314C188.728 81.9112 188.217 75.9257 188.006 74.6591ZM187.039 82.7011C187.019 83.3355 186.761 83.939 186.315 84.391C185.869 84.843 185.27 85.1101 184.636 85.1389C183.342 85.2819 177.547 85.3568 176.321 85.0232C175.781 84.8906 175.29 84.6049 174.909 84.2002C174.527 83.7955 174.27 83.2891 174.169 82.742C173.793 80.0509 173.617 77.3354 173.645 74.6182C173.667 73.9868 173.925 73.3867 174.37 72.9375C174.814 72.4882 175.411 72.2228 176.042 72.1941C178.683 72.0101 181.334 72.0101 183.975 72.1941C184.631 72.2711 185.243 72.5659 185.712 73.0312C186.181 73.4965 186.48 74.1056 186.563 74.7612C186.906 77.3936 187.065 80.0466 187.039 82.7011ZM180.08 74.5297C179.548 74.5224 179.02 74.6262 178.53 74.8344C178.04 75.0427 177.599 75.3508 177.235 75.7392C176.871 76.1275 176.592 76.5876 176.416 77.0898C176.24 77.5921 176.171 78.1256 176.212 78.6563C176.296 79.7694 176.793 80.8111 177.605 81.5761C178.418 82.3411 179.488 82.774 180.604 82.7896C181.137 82.797 181.665 82.6932 182.154 82.4849C182.644 82.2767 183.085 81.9685 183.449 81.5802C183.813 81.1918 184.092 80.7318 184.268 80.2295C184.444 79.7272 184.514 79.1937 184.472 78.6631C184.387 77.5511 183.89 76.5112 183.077 75.7476C182.264 74.984 181.195 74.552 180.08 74.5365V74.5297ZM180.489 81.3392C179.767 81.3254 179.077 81.0414 178.555 80.5433C178.033 80.0453 177.717 79.3694 177.669 78.6495C177.645 78.3062 177.692 77.9616 177.808 77.6377C177.924 77.3137 178.107 77.0176 178.344 76.7682C178.581 76.5189 178.868 76.3218 179.185 76.1896C179.503 76.0574 179.845 75.993 180.189 76.0006C180.915 76.0165 181.609 76.3058 182.132 76.8107C182.654 77.3156 182.967 77.9989 183.008 78.7244C183.027 79.0643 182.975 79.4045 182.857 79.7235C182.738 80.0426 182.554 80.3337 182.318 80.5785C182.081 80.8234 181.797 81.0167 181.482 81.1465C181.167 81.2762 180.829 81.3395 180.489 81.3324V81.3392ZM185.323 74.3867C185.333 74.5109 185.316 74.6357 185.275 74.7532C185.234 74.8708 185.168 74.9784 185.083 75.0693C184.998 75.1602 184.895 75.2325 184.78 75.2814C184.666 75.3304 184.542 75.355 184.418 75.3537C184.157 75.3494 183.907 75.2479 183.717 75.0691C183.526 74.8902 183.41 74.6469 183.389 74.3867C183.38 74.2625 183.397 74.1377 183.438 74.0202C183.479 73.9027 183.545 73.795 183.63 73.7041C183.715 73.6132 183.818 73.541 183.933 73.492C184.047 73.4431 184.171 73.4185 184.295 73.4198C184.556 73.4224 184.805 73.5224 184.996 73.7001C185.186 73.8778 185.303 74.1203 185.323 74.3799V74.3867Z" fill="white"/>
<path opacity="0.3" d="M231.206 97.1716H206.848C206.033 97.1604 205.251 96.8447 204.656 96.2866C204.061 95.7285 203.697 94.9681 203.634 94.155L201.68 63.8731C201.652 63.4849 201.704 63.0951 201.834 62.7282C201.964 62.3613 202.168 62.0253 202.434 61.7412C202.7 61.4572 203.022 61.2314 203.38 61.0779C203.738 60.9245 204.123 60.8468 204.513 60.8497H228.863C229.686 60.854 230.477 61.1671 231.08 61.727C231.683 62.287 232.053 63.0529 232.118 63.8731L234.066 94.155C234.096 94.5456 234.045 94.9384 233.914 95.3077C233.783 95.6771 233.576 96.0149 233.307 96.2993C233.037 96.5837 232.711 96.8083 232.349 96.9585C231.987 97.1088 231.598 97.1814 231.206 97.1716Z" fill="#72A276"/>
<path fill-rule="evenodd" clip-rule="evenodd" d="M211.846 84.9143C211.53 84.8199 211.238 84.6551 210.994 84.4323C210.75 84.2094 210.56 83.9342 210.437 83.6273C209.756 82.0475 209.163 75.4559 210.185 74.1281C210.348 73.9144 210.553 73.736 210.787 73.6038C211.021 73.4715 211.28 73.3881 211.547 73.3586C214.516 73.0385 223.743 73.0794 224.825 73.4675C225.128 73.5673 225.407 73.7307 225.642 73.9468C225.877 74.1629 226.063 74.4267 226.187 74.7205C226.923 76.3548 227.324 82.3063 226.691 83.8793C226.524 84.2891 226.214 84.6251 225.82 84.8258C224.805 85.4046 213.345 85.3978 211.846 84.9143ZM216.388 81.816L221.584 79.0309L216.027 76.2254C216.15 78.0912 216.266 79.9434 216.388 81.816Z" fill="white"/>
<path d="M192.33 105.724C193.497 105.741 194.615 106.193 195.465 106.992C196.316 107.79 196.837 108.878 196.927 110.041L198.541 135.107C198.579 135.652 198.505 136.199 198.324 136.715C198.142 137.23 197.857 137.703 197.485 138.103C197.112 138.499 196.661 138.813 196.161 139.026C195.66 139.24 195.121 139.347 194.578 139.342H99.0061C97.8403 139.325 96.7231 138.873 95.8738 138.074C95.0246 137.275 94.5048 136.188 94.4165 135.025L92.8027 109.959C92.759 109.415 92.8295 108.868 93.0095 108.352C93.1896 107.837 93.4753 107.365 93.8484 106.966C94.2214 106.567 94.6736 106.251 95.176 106.037C95.6783 105.823 96.2198 105.716 96.7658 105.724H192.33ZM192.33 105.091H96.7658C96.1334 105.084 95.5066 105.209 94.9251 105.458C94.3436 105.706 93.8201 106.073 93.3879 106.535C92.9557 106.996 92.6242 107.543 92.4144 108.139C92.2047 108.736 92.1212 109.37 92.1694 110L93.7832 135.066C93.8865 136.388 94.479 137.623 95.4449 138.531C96.4108 139.439 97.6806 139.954 99.0061 139.976H194.578C195.209 139.981 195.835 139.856 196.416 139.607C196.997 139.358 197.519 138.991 197.951 138.529C198.382 138.068 198.713 137.521 198.923 136.925C199.132 136.329 199.215 135.696 199.167 135.066L197.56 110C197.455 108.678 196.861 107.442 195.894 106.534C194.927 105.627 193.657 105.112 192.33 105.091Z" fill="#72A276"/>
<g opacity="0.2">
<path opacity="0.2" d="M109.71 105.39L109.166 105.425L111.369 139.681L111.913 139.646L109.71 105.39Z" fill="#72A276"/>
<path opacity="0.2" d="M127.269 105.387L126.726 105.422L128.929 139.678L129.472 139.643L127.269 105.387Z" fill="#72A276"/>
<path opacity="0.2" d="M144.842 105.389L144.299 105.424L146.502 139.68L147.046 139.645L144.842 105.389Z" fill="#72A276"/>
<path opacity="0.2" d="M162.402 105.393L161.858 105.428L164.061 139.684L164.605 139.649L162.402 105.393Z" fill="#72A276"/>
<path opacity="0.2" d="M179.968 105.389L179.425 105.424L181.628 139.68L182.171 139.645L179.968 105.389Z" fill="#72A276"/>
</g>
<path d="M101.376 132.574C99.9423 132.488 98.5829 131.908 97.5285 130.933C97.011 130.49 96.5207 130.02 96.0372 129.571C95.2706 128.791 94.4366 128.08 93.5449 127.446L93.899 126.915C94.818 127.574 95.6812 128.307 96.4798 129.108C96.9497 129.564 97.4331 130.027 97.937 130.47C99.156 131.498 100.974 132.377 102.438 131.764C103.902 131.151 104.365 129.414 104.542 128.42C104.624 127.937 104.685 127.44 104.733 126.956C104.803 125.928 105.01 124.914 105.346 123.94C105.63 123.18 106.09 122.498 106.689 121.951C107.289 121.404 108.009 121.008 108.791 120.794C109.618 120.593 110.484 120.617 111.298 120.864C112.112 121.11 112.845 121.571 113.422 122.196C114.11 123.071 114.644 124.057 115.002 125.111C115.594 126.588 116.152 127.978 117.494 128.386C117.785 128.476 118.093 128.501 118.395 128.46C118.697 128.418 118.987 128.312 119.244 128.148C120.329 127.376 121.064 126.206 121.287 124.893C121.511 123.611 121.636 122.313 121.661 121.011C121.675 119.37 121.88 117.736 122.274 116.143C122.532 115.247 122.966 114.411 123.55 113.685C124.135 112.959 124.859 112.357 125.679 111.914C126.21 111.633 126.795 111.467 127.394 111.427C127.994 111.388 128.595 111.474 129.159 111.682C131.113 112.411 132.155 114.365 132.563 115.462C132.902 116.351 133.184 117.261 133.408 118.186C133.585 118.866 133.769 119.547 134.007 120.228C134.791 122.463 136.115 124.47 137.861 126.071C138.296 126.51 138.818 126.854 139.393 127.079C141.307 127.692 142.948 125.717 143.765 124.45C144.725 122.973 146.196 120.725 148.477 120.896C150.091 121.005 151.371 122.326 152.154 123.408C152.399 123.742 152.624 124.089 152.835 124.437C153.349 125.307 153.987 126.099 154.728 126.786C155.729 127.63 157.289 128.032 158.174 127.229C158.659 126.674 158.954 125.98 159.018 125.247L159.202 124.26C159.624 121.883 160.067 119.425 161.633 117.614C162.491 116.619 163.928 116 165.038 116.728C165.538 117.115 165.916 117.638 166.127 118.233C166.311 118.642 166.488 119.044 166.665 119.452C167.321 121.141 168.183 122.742 169.233 124.219C170.445 125.771 172.535 127.344 174.762 127.072C175.5 126.947 176.221 126.732 176.907 126.432C178.051 125.982 179.229 125.519 180.509 125.86C181.564 126.24 182.503 126.887 183.233 127.739C183.512 128.012 183.798 128.284 184.091 128.536C184.769 129.154 185.652 129.499 186.57 129.503C186.743 129.494 186.912 129.45 187.068 129.374C187.223 129.298 187.362 129.191 187.475 129.06C187.811 128.517 187.962 127.879 187.904 127.242C188.013 124.518 188.36 121.461 190.165 119.166C191.854 117.014 195.197 115.877 197.873 117.688L197.512 118.213C195.15 116.606 192.174 117.634 190.662 119.575C188.973 121.726 188.619 124.675 188.537 127.276C188.594 128.055 188.391 128.831 187.959 129.482C187.791 129.684 187.584 129.849 187.349 129.966C187.115 130.083 186.859 130.15 186.597 130.163C185.514 130.176 184.466 129.78 183.662 129.054C183.355 128.795 183.063 128.509 182.77 128.223C182.108 127.451 181.263 126.859 180.312 126.5C179.229 126.221 178.194 126.623 177.091 127.052C176.358 127.374 175.587 127.603 174.796 127.732C172.297 128.025 170.029 126.33 168.667 124.641C167.579 123.119 166.689 121.464 166.018 119.718L165.487 118.512C165.318 118.026 165.019 117.595 164.623 117.266C163.744 116.681 162.58 117.409 162.062 118.043C160.612 119.724 160.183 122.128 159.774 124.382C159.713 124.716 159.658 125.063 159.59 125.376C159.508 126.249 159.145 127.071 158.555 127.719C157.411 128.747 155.477 128.304 154.272 127.283C153.477 126.556 152.789 125.719 152.229 124.798C152.004 124.457 151.787 124.117 151.548 123.797C150.867 122.823 149.71 121.638 148.334 121.543C146.564 121.427 145.324 123.088 144.201 124.811C142.628 127.222 140.796 128.216 139.107 127.692C138.443 127.443 137.839 127.055 137.337 126.554C135.512 124.873 134.13 122.768 133.312 120.426C133.067 119.745 132.883 119.016 132.7 118.329C132.483 117.438 132.21 116.563 131.882 115.707C131.474 114.706 130.521 112.922 128.811 112.302C128.329 112.125 127.814 112.052 127.302 112.087C126.789 112.122 126.289 112.265 125.836 112.506C124.351 113.335 123.253 114.715 122.778 116.347C122.401 117.892 122.205 119.476 122.193 121.066C122.165 122.402 122.035 123.734 121.804 125.05C121.56 126.513 120.754 127.822 119.557 128.699C119.223 128.907 118.849 129.042 118.459 129.093C118.069 129.145 117.673 129.113 117.296 128.999C115.669 128.509 115.022 126.902 114.396 125.356C114.062 124.374 113.57 123.454 112.938 122.632C112.439 122.093 111.804 121.697 111.1 121.485C110.396 121.273 109.649 121.253 108.934 121.427C108.249 121.617 107.618 121.966 107.094 122.447C106.569 122.927 106.166 123.525 105.918 124.192C105.603 125.113 105.413 126.073 105.353 127.045C105.298 127.535 105.237 128.053 105.155 128.55C104.808 130.49 103.929 131.845 102.67 132.37C102.256 132.522 101.816 132.591 101.376 132.574Z" fill="#72A276"/>
<path d="M230.661 136.19H212.412C211.191 136.17 210.021 135.695 209.131 134.859C208.24 134.023 207.694 132.886 207.597 131.668L206.426 113.419C206.382 112.838 206.458 112.255 206.651 111.706C206.844 111.157 207.149 110.654 207.547 110.229C207.944 109.803 208.426 109.466 208.961 109.236C209.496 109.007 210.073 108.892 210.655 108.897H228.904C230.125 108.917 231.295 109.391 232.185 110.227C233.075 111.063 233.622 112.201 233.719 113.419L234.89 131.668C234.934 132.248 234.857 132.832 234.665 133.381C234.472 133.93 234.167 134.433 233.769 134.858C233.372 135.283 232.89 135.621 232.355 135.85C231.82 136.08 231.243 136.195 230.661 136.19Z" fill="#72A276"/>
<path d="M221.386 116.824L222.878 119.506C222.929 119.598 223 119.676 223.087 119.735C223.173 119.794 223.271 119.832 223.375 119.847L226.391 120.283C226.515 120.302 226.63 120.354 226.726 120.434C226.821 120.514 226.893 120.619 226.933 120.737C226.973 120.855 226.98 120.982 226.953 121.103C226.926 121.225 226.866 121.337 226.78 121.427L224.832 123.47C224.751 123.552 224.693 123.653 224.662 123.763C224.631 123.874 224.629 123.991 224.655 124.103L225.336 126.908C225.366 127.035 225.359 127.168 225.316 127.29C225.273 127.413 225.196 127.521 225.093 127.601C224.991 127.682 224.867 127.731 224.738 127.743C224.608 127.756 224.478 127.731 224.362 127.671L221.72 126.309C221.622 126.258 221.514 126.231 221.404 126.231C221.293 126.231 221.185 126.258 221.087 126.309L218.554 127.671C218.444 127.731 218.32 127.759 218.195 127.753C218.07 127.747 217.949 127.706 217.846 127.636C217.742 127.565 217.66 127.468 217.609 127.354C217.557 127.24 217.538 127.114 217.553 126.99L217.866 124.028C217.878 123.923 217.865 123.816 217.828 123.717C217.791 123.618 217.732 123.528 217.655 123.456L215.408 121.413C215.312 121.326 215.243 121.213 215.209 121.088C215.175 120.963 215.178 120.831 215.216 120.707C215.255 120.583 215.328 120.473 215.427 120.39C215.526 120.306 215.647 120.252 215.775 120.235L218.554 119.827C218.668 119.81 218.776 119.764 218.868 119.693C218.96 119.623 219.032 119.531 219.078 119.425L220.174 116.864C220.228 116.751 220.311 116.654 220.416 116.585C220.521 116.516 220.643 116.477 220.768 116.473C220.893 116.469 221.017 116.499 221.127 116.561C221.236 116.623 221.326 116.714 221.386 116.824Z" fill="white"/>
</g>
<defs>
<filter id="filter0_d" x="0" y="0" width="348.475" height="261.695" filterUnits="userSpaceOnUse" color-interpolation-filters="sRGB">
<feFlood flood-opacity="0" result="BackgroundImageFix"/>
<feColorMatrix in="SourceAlpha" type="matrix" values="0 0 0 0 0 0 0 0 0 0 0 0 0 0 0 0 0 0 127 0"/>
<feOffset dy="4"/>
<feGaussianBlur stdDeviation="2"/>
<feColorMatrix type="matrix" values="0 0 0 0 0 0 0 0 0 0 0 0 0 0 0 0 0 0 0.16 0"/>
<feBlend mode="normal" in2="BackgroundImageFix" result="effect1_dropShadow"/>
<feBlend mode="normal" in="SourceGraphic" in2="effect1_dropShadow" result="shape"/>
</filter>
</defs>
</svg>
