<svg width="400" height="389" viewBox="0 0 400 389" fill="none" xmlns="http://www.w3.org/2000/svg">
<path d="M200.71 388.997C310.775 388.997 400 337.481 400 273.932C400 210.384 310.775 158.867 200.71 158.867C90.6452 158.867 1.41992 210.384 1.41992 273.932C1.41992 337.481 90.6452 388.997 200.71 388.997Z" fill="#F5F5F5"/>
<path d="M355.089 294.642L302.781 264.467C302.556 264.39 302.36 264.245 302.222 264.052C302.083 263.858 302.009 263.627 302.009 263.389C302.009 263.151 302.083 262.919 302.222 262.726C302.36 262.533 302.556 262.388 302.781 262.311L336.406 242.93C336.984 242.636 337.624 242.484 338.272 242.484C338.921 242.484 339.56 242.636 340.139 242.93L392.438 273.105C392.663 273.182 392.859 273.327 392.997 273.52C393.136 273.714 393.21 273.945 393.21 274.183C393.21 274.421 393.136 274.653 392.997 274.846C392.859 275.039 392.663 275.184 392.438 275.261L358.813 294.651C358.235 294.941 357.597 295.092 356.95 295.09C356.303 295.089 355.666 294.935 355.089 294.642Z" fill="#E0E0E0"/>
<path d="M128.572 352.054C177.107 352.054 216.453 329.338 216.453 301.316C216.453 273.293 177.107 250.577 128.572 250.577C80.0365 250.577 40.6909 273.293 40.6909 301.316C40.6909 329.338 80.0365 352.054 128.572 352.054Z" fill="#E0E0E0"/>
<path d="M211.529 324.094C243.142 324.094 268.769 309.298 268.769 291.047C268.769 272.796 243.142 258 211.529 258C179.917 258 154.29 272.796 154.29 291.047C154.29 309.298 179.917 324.094 211.529 324.094Z" fill="#E0E0E0"/>
<path d="M41.1918 258.309L41.8987 247.101C41.8987 247.101 41.2349 232.78 27.0436 219.572C18.4219 211.545 11.2918 215.865 9.50708 220.236C7.72239 224.607 9.20532 231.237 17.5856 237.436C30.7078 247.136 41.7263 262.491 43.1575 273.38L41.1918 258.309Z" fill="#37474F"/>
<path d="M40.7517 255.145C40.6356 255.156 40.5191 255.127 40.4218 255.063C40.3244 254.999 40.2522 254.903 40.2172 254.791C33.7595 233.41 15.2143 220.581 14.9815 220.451C14.9276 220.413 14.8822 220.364 14.848 220.308C14.8138 220.251 14.7916 220.188 14.7827 220.123C14.7738 220.057 14.7785 219.991 14.7963 219.927C14.8142 219.863 14.845 219.804 14.8867 219.753C14.9603 219.644 15.074 219.568 15.2032 219.542C15.3323 219.516 15.4664 219.543 15.5764 219.615C15.7661 219.744 34.6389 232.763 41.2 254.49C41.2356 254.615 41.2214 254.75 41.1604 254.866C41.0995 254.981 40.9963 255.069 40.8724 255.11L40.7517 255.145Z" fill="white"/>
<path d="M41.7606 258.68C41.6777 257.456 41.2236 256.286 40.4587 255.326C39.0793 253.731 36.6652 253.214 35.5013 251.446C35.04 250.567 34.6702 249.642 34.3977 248.687C33.5338 246.63 31.9227 244.975 29.8885 244.057C27.8531 243.171 25.6101 242.873 23.4137 243.195C21.7497 243.402 20.1374 243.911 18.4734 244.144C13.0159 244.928 7.96361 239.919 2.53195 243.282C-0.727044 245.316 -0.502881 248.868 1.30767 251.843C2.25485 253.356 3.44307 254.705 4.82532 255.835C6.291 257.076 7.83429 257.826 7.98948 259.982C8.09294 261.551 7.6015 263.111 7.61874 264.689C7.68077 265.984 8.0209 267.25 8.61599 268.401C9.21108 269.553 10.0472 270.563 11.0674 271.362C13.1278 272.946 15.5528 273.986 18.12 274.389C20.0081 274.751 22.1808 275.035 23.224 276.647C23.6597 277.529 23.9508 278.475 24.0862 279.449C24.5388 281.009 25.3179 282.454 26.3718 283.689C27.4257 284.925 28.7303 285.922 30.1989 286.614C33.1624 287.975 36.4482 288.477 39.6828 288.062C42.4691 287.872 45.1405 286.878 47.3733 285.2C51.0634 282.183 48.9425 276.484 46.5111 273.311C45.4507 271.914 44.1402 270.724 43.1659 269.267C41.2174 266.379 41.5364 263.879 41.7175 260.577C41.784 259.947 41.7984 259.312 41.7606 258.68Z" fill="#455A64"/>
<path d="M44.6401 279.924C44.5565 279.94 44.4699 279.93 44.3925 279.894C44.3151 279.859 44.2509 279.8 44.209 279.725C31.0092 255.964 9.83439 249.325 9.61885 249.256C9.51551 249.225 9.42878 249.153 9.37721 249.058C9.32565 248.963 9.31335 248.852 9.34295 248.748C9.37672 248.644 9.44949 248.557 9.54596 248.506C9.64243 248.454 9.75509 248.442 9.86025 248.472C10.0758 248.541 31.561 255.283 44.9246 279.329C44.9507 279.375 44.9673 279.426 44.9736 279.479C44.9799 279.532 44.9758 279.586 44.9614 279.637C44.9469 279.688 44.9226 279.736 44.8897 279.778C44.8567 279.82 44.8159 279.855 44.7695 279.881C44.731 279.906 44.6863 279.921 44.6401 279.924Z" fill="white"/>
<path d="M32.0528 263.586H31.958C26.1556 263.344 17.3787 265.672 17.3011 265.698C17.249 265.714 17.1943 265.718 17.1403 265.712C17.0863 265.705 17.0343 265.687 16.9874 265.66C16.9405 265.633 16.8998 265.596 16.8677 265.552C16.8357 265.508 16.813 265.458 16.801 265.405C16.7867 265.353 16.7826 265.299 16.7892 265.246C16.7957 265.193 16.8127 265.142 16.8391 265.096C16.8656 265.049 16.901 265.008 16.9433 264.976C16.9856 264.943 17.0339 264.919 17.0856 264.905C17.4477 264.81 26.078 262.517 32.0011 262.767C32.1085 262.759 32.2148 262.794 32.2964 262.864C32.3781 262.934 32.4285 263.034 32.4365 263.142C32.4445 263.249 32.4094 263.355 32.3391 263.437C32.2688 263.519 32.1689 263.569 32.0614 263.577L32.0528 263.586Z" fill="white"/>
<path d="M27.8194 259.646C27.7126 259.656 27.6059 259.625 27.521 259.559C27.4362 259.493 27.3795 259.398 27.3624 259.292C27.0255 256.359 27.1038 253.392 27.5952 250.481C27.6161 250.376 27.6776 250.283 27.7665 250.223C27.8553 250.164 27.9642 250.141 28.0694 250.162C28.1222 250.171 28.1726 250.191 28.2177 250.22C28.2628 250.249 28.3018 250.286 28.3322 250.33C28.3627 250.374 28.3841 250.424 28.3952 250.477C28.4064 250.529 28.407 250.583 28.397 250.636C27.9301 253.463 27.8575 256.341 28.1815 259.189C28.1936 259.297 28.1624 259.406 28.0946 259.492C28.0267 259.577 27.9278 259.633 27.8194 259.646Z" fill="white"/>
<path opacity="0.3" d="M382.378 92.6266L222.954 0.590133C220.558 -0.789336 218.644 0.331483 218.644 3.09904V129.355C218.722 130.86 219.153 132.325 219.902 133.632C220.651 134.94 221.696 136.053 222.954 136.882L382.378 228.918C384.775 230.298 386.689 229.177 386.689 226.409V100.153C386.61 98.6487 386.179 97.1836 385.43 95.8761C384.682 94.5687 383.636 93.4556 382.378 92.6266Z" fill="#56708E"/>
<path opacity="0.5" d="M382.378 92.6266L222.954 0.590133C220.558 -0.789336 218.644 0.331483 218.644 3.09904V129.355C218.722 130.86 219.153 132.325 219.902 133.632C220.651 134.94 221.696 136.053 222.954 136.882L382.378 228.918C384.775 230.298 386.689 229.177 386.689 226.409V100.153C386.61 98.6487 386.179 97.1836 385.43 95.8761C384.682 94.5687 383.636 93.4556 382.378 92.6266Z" fill="white"/>
<path opacity="0.3" d="M383.223 205.148V188.974L372.713 182.939V195.078L369.238 193.026V172.8L362.229 168.756V176.843L358.728 174.817V190.991L351.702 186.991V174.817L348.201 172.8V168.756L344.692 166.73V162.686L341.192 160.669V164.712L337.692 162.686V166.73L334.191 164.712V168.756L327.182 164.712V152.582L316.681 146.547V166.73L313.197 164.712V152.582L306.188 148.53V160.669L302.688 158.643V154.599L295.687 150.556V142.469L288.677 138.425V142.469L285.16 140.434V152.59L281.659 150.564V134.399L278.159 132.373V128.329L274.65 126.312V122.268L271.149 120.242V124.285L267.649 122.268V126.312L264.149 124.285V144.486L260.648 142.469V134.399L250.259 128.363V132.476L243.129 128.363V120.276L239.62 118.259V114.215L236.12 112.189V108.146L232.619 106.128V110.163L229.119 108.146V112.189L225.618 110.163V118.259L218.609 114.207V129.407C218.687 130.911 219.118 132.376 219.867 133.684C220.616 134.991 221.662 136.104 222.92 136.933L382.378 228.918C384.775 230.298 386.689 229.177 386.689 226.409V207.174L383.223 205.148Z" fill="#56708E"/>
<g opacity="0.3">
<path opacity="0.3" d="M221.014 0.867051C221.549 0.893718 222.069 1.05697 222.523 1.34124L381.947 93.3691C383.077 94.1226 384.019 95.1269 384.697 96.3038C385.376 97.4807 385.774 98.7984 385.861 100.154V226.41C385.861 227.083 385.706 228.643 384.318 228.643C383.782 228.617 383.263 228.453 382.809 228.169L223.385 136.124C222.253 135.372 221.31 134.369 220.631 133.191C219.952 132.014 219.555 130.695 219.471 129.339V3.10007C219.471 2.42757 219.626 0.867051 221.014 0.867051ZM221.014 0.00488281C219.592 0.00488281 218.609 1.13432 218.609 3.10007V129.356C218.687 130.861 219.118 132.326 219.867 133.633C220.616 134.941 221.662 136.054 222.92 136.883L382.378 228.919C382.963 229.279 383.631 229.481 384.318 229.505C385.74 229.505 386.723 228.376 386.723 226.41V100.154C386.645 98.6497 386.214 97.1846 385.465 95.8772C384.716 94.5697 383.67 93.4566 382.412 92.6276L222.954 0.591156C222.369 0.231757 221.701 0.029797 221.014 0.00488281Z" fill="#56708E"/>
</g>
<path opacity="0.5" d="M264.606 65.8994L333.726 105.809C337.855 108.189 341.192 113.974 341.192 118.742V137.89C341.192 142.65 337.855 144.581 333.726 142.201L264.606 102.292C260.484 99.9119 257.139 94.1268 257.139 89.359V70.2103C257.156 65.4252 260.484 63.5198 264.606 65.8994Z" fill="white"/>
<g opacity="0.5">
<path opacity="0.5" d="M337.062 143.658C335.803 143.614 334.578 143.239 333.51 142.572L264.39 102.671C260.157 100.222 256.708 94.256 256.708 89.3589V70.2101C256.708 67.7443 257.57 65.8993 259.113 65.0371C260.657 64.175 262.691 64.3302 264.821 65.5631L333.941 105.464C338.183 107.913 341.623 113.879 341.623 118.776V137.925C341.623 140.391 340.761 142.236 339.226 143.098C338.567 143.472 337.82 143.665 337.062 143.658ZM261.277 65.3044C260.673 65.2956 260.077 65.4506 259.553 65.7527C258.286 66.4856 257.579 68.0633 257.579 70.2101V89.3589C257.579 93.9801 260.829 99.6101 264.83 101.921L333.95 141.83C335.803 142.9 337.528 143.081 338.804 142.348C340.08 141.615 340.769 140.029 340.769 137.89V118.742C340.769 114.12 337.519 108.49 333.519 106.18L264.39 66.2873C263.456 65.6942 262.383 65.3554 261.277 65.3044Z" fill="#56708E"/>
</g>
<g opacity="0.5">
<path opacity="0.5" d="M275.616 81.5823C276.327 82.0022 276.969 82.5285 277.521 83.1428C278.085 83.7723 278.585 84.4569 279.013 85.1861C279.416 85.8704 279.746 86.5959 279.995 87.3502C280.212 87.958 280.34 88.5939 280.375 89.2383C280.381 89.2965 280.374 89.3552 280.354 89.4104C280.335 89.4655 280.304 89.5157 280.263 89.5573C280.231 89.5864 280.189 89.6025 280.146 89.6025C280.103 89.6025 280.062 89.5864 280.03 89.5573L277.909 88.3417C277.774 88.2565 277.652 88.1519 277.547 88.0313C277.443 87.8818 277.348 87.7264 277.262 87.5657C277.262 87.4967 277.185 87.3847 277.116 87.2295C277.029 87.0438 276.928 86.8651 276.814 86.6949C276.67 86.481 276.508 86.2792 276.331 86.0914C276.12 85.874 275.879 85.6882 275.616 85.5396C275.427 85.4334 275.231 85.3412 275.029 85.2637C274.87 85.2011 274.7 85.1718 274.529 85.1775C274.46 85.1802 274.391 85.1978 274.329 85.229C274.266 85.2602 274.211 85.3044 274.167 85.3586C274.062 85.5192 274.013 85.7104 274.029 85.9017C274.03 86.1457 274.083 86.3867 274.184 86.6087C274.321 86.8845 274.495 87.1399 274.702 87.3674C275.004 87.7086 275.326 88.0311 275.667 88.3331L277.15 89.6694C277.713 90.1671 278.235 90.7091 278.711 91.2903C279.145 91.8214 279.518 92.3999 279.823 93.0146C280.118 93.6125 280.341 94.2435 280.487 94.8941C280.638 95.6025 280.71 96.3254 280.702 97.0496C280.731 97.7524 280.604 98.4529 280.332 99.1015C280.122 99.5792 279.754 99.9692 279.288 100.205C278.79 100.425 278.235 100.483 277.702 100.369C276.998 100.229 276.324 99.9661 275.71 99.593C274.964 99.1618 274.287 98.6213 273.702 97.9893C273.11 97.3505 272.587 96.6512 272.141 95.9029C271.718 95.1923 271.374 94.4378 271.115 93.6526C270.881 92.9807 270.75 92.2773 270.727 91.5662C270.721 91.5074 270.728 91.4481 270.746 91.3918C270.763 91.3356 270.792 91.2834 270.831 91.2386C270.862 91.2095 270.904 91.1933 270.947 91.1933C270.99 91.1933 271.032 91.2095 271.063 91.2386L273.184 92.4628C273.321 92.5347 273.442 92.6345 273.538 92.756C273.638 92.8819 273.724 93.0177 273.796 93.1612L273.995 93.6009C274.095 93.8268 274.21 94.0458 274.34 94.2561C274.496 94.5199 274.681 94.7657 274.891 94.989C275.13 95.2448 275.406 95.4629 275.71 95.6356C276.143 95.9162 276.631 96.0987 277.142 96.1702C277.521 96.2046 277.711 95.9719 277.711 95.4718C277.708 95.2107 277.637 94.955 277.504 94.7303C277.328 94.4193 277.117 94.13 276.874 93.8682C276.59 93.5664 276.236 93.2215 275.797 92.8336C275.357 92.4456 274.848 91.9714 274.253 91.4455C273.216 90.5467 272.384 89.4352 271.813 88.1865C271.285 86.9684 271.024 85.6514 271.046 84.324C271.032 83.6893 271.138 83.0576 271.356 82.4617C271.532 81.9806 271.851 81.5652 272.27 81.2719C272.701 80.9978 273.211 80.8763 273.719 80.927C274.392 81.0011 275.04 81.2249 275.616 81.5823Z" fill="#56708E"/>
<path opacity="0.5" d="M291.721 91.1352C291.86 91.2239 291.968 91.3534 292.031 91.506C292.114 91.6783 292.158 91.8666 292.16 92.0577V94.7391C292.167 94.8105 292.159 94.8826 292.137 94.9508C292.114 95.019 292.079 95.0819 292.031 95.1357C291.988 95.1739 291.933 95.195 291.876 95.195C291.819 95.195 291.763 95.1739 291.721 95.1357L288.876 93.4889V106.258C288.882 106.33 288.874 106.404 288.852 106.473C288.83 106.543 288.794 106.608 288.746 106.663C288.703 106.699 288.648 106.719 288.591 106.719C288.534 106.719 288.479 106.699 288.436 106.663L286.323 105.439C286.184 105.35 286.076 105.22 286.013 105.068C285.931 104.895 285.886 104.707 285.884 104.516V91.7474L283.039 90.1006C282.899 90.0119 282.791 89.8825 282.728 89.7299C282.646 89.5575 282.602 89.3692 282.599 89.1781V86.5399C282.592 86.4684 282.6 86.3964 282.623 86.3282C282.645 86.26 282.681 86.1971 282.728 86.1433C282.771 86.1051 282.826 86.084 282.883 86.084C282.941 86.084 282.996 86.1051 283.039 86.1433L291.721 91.1352Z" fill="#56708E"/>
<path opacity="0.5" d="M299.678 95.722C299.895 95.8545 300.067 96.05 300.17 96.2824C300.271 96.5005 300.349 96.7288 300.402 96.9636L303.929 114.69C303.962 114.822 303.983 114.958 303.989 115.095C303.994 115.154 303.988 115.213 303.97 115.269C303.952 115.325 303.924 115.377 303.886 115.423C303.851 115.453 303.807 115.47 303.761 115.47C303.715 115.47 303.67 115.453 303.636 115.423L301.601 114.241C301.4 114.139 301.239 113.972 301.144 113.767C301.058 113.608 301 113.437 300.972 113.259L300.515 110.931L296.204 108.448L295.755 110.25C295.731 110.371 295.671 110.482 295.583 110.569C295.497 110.655 295.342 110.638 295.126 110.508L293.1 109.396C292.984 109.321 292.894 109.213 292.841 109.086C292.775 108.949 292.739 108.798 292.738 108.646C292.745 108.531 292.768 108.418 292.807 108.31L296.333 94.6616C296.37 94.5046 296.451 94.3612 296.566 94.2477C296.678 94.127 296.842 94.1356 297.057 94.2477L299.678 95.722ZM297.092 105.094L299.678 106.603L298.368 99.9122L297.092 105.094Z" fill="#56708E"/>
<path opacity="0.5" d="M311.335 102.499C312.027 102.901 312.667 103.387 313.24 103.947C313.8 104.502 314.282 105.132 314.671 105.818C315.077 106.54 315.382 107.315 315.577 108.12C315.796 109.008 315.903 109.921 315.896 110.836C315.947 111.799 315.776 112.76 315.395 113.646C315.265 113.927 315.067 114.17 314.818 114.354C314.57 114.538 314.279 114.656 313.973 114.698L315.973 121.785C316.005 121.883 316.022 121.985 316.025 122.087C316.031 122.145 316.025 122.203 316.007 122.258C315.989 122.313 315.96 122.363 315.921 122.406C315.885 122.437 315.84 122.454 315.792 122.454C315.745 122.454 315.699 122.437 315.663 122.406L313.464 121.139C313.262 121.029 313.102 120.857 313.007 120.647C312.92 120.464 312.847 120.274 312.792 120.078L310.998 113.707L309.507 112.845V118.173C309.513 118.244 309.505 118.316 309.483 118.385C309.461 118.453 309.425 118.516 309.378 118.569C309.335 118.608 309.28 118.629 309.222 118.629C309.165 118.629 309.11 118.608 309.067 118.569L306.955 117.345C306.817 117.251 306.709 117.12 306.644 116.966C306.561 116.797 306.517 116.611 306.515 116.423V100.343C306.509 100.272 306.517 100.2 306.54 100.132C306.562 100.064 306.597 100.001 306.644 99.9466C306.688 99.9101 306.743 99.8901 306.8 99.8901C306.856 99.8901 306.911 99.9101 306.955 99.9466L311.335 102.499ZM309.507 108.991L311.335 110.043C311.494 110.159 311.676 110.241 311.869 110.284C312.062 110.327 312.262 110.33 312.455 110.293C312.757 110.198 312.904 109.801 312.904 109.103C312.936 108.496 312.779 107.893 312.455 107.379C312.168 106.948 311.784 106.591 311.335 106.335L309.507 105.275V108.991Z" fill="#56708E"/>
<path opacity="0.5" d="M327.182 111.603C327.316 111.698 327.421 111.83 327.483 111.982C327.569 112.151 327.616 112.337 327.621 112.526V115.172C327.626 115.244 327.617 115.317 327.593 115.385C327.569 115.453 327.532 115.516 327.483 115.569C327.441 115.605 327.388 115.625 327.332 115.625C327.277 115.625 327.224 115.605 327.182 115.569L324.336 113.931V126.7C324.343 126.771 324.334 126.843 324.312 126.911C324.29 126.979 324.254 127.042 324.207 127.096C324.164 127.134 324.109 127.156 324.052 127.156C323.995 127.156 323.939 127.134 323.897 127.096L321.819 125.915C321.684 125.82 321.579 125.688 321.517 125.536C321.434 125.367 321.389 125.181 321.388 124.993V112.215L318.543 110.577C318.405 110.483 318.297 110.352 318.232 110.198C318.149 110.029 318.105 109.843 318.103 109.655V107.016C318.096 106.944 318.104 106.87 318.126 106.801C318.149 106.731 318.185 106.667 318.232 106.611C318.276 106.575 318.331 106.555 318.387 106.555C318.444 106.555 318.499 106.575 318.543 106.611L327.182 111.603Z" fill="#56708E"/>
</g>
<path opacity="0.3" d="M234.378 14.8419C235.906 15.8408 237.178 17.1855 238.09 18.7672C239.003 20.3489 239.53 22.1232 239.629 23.9464C239.629 27.2916 237.275 28.6538 234.378 26.9726C232.848 25.9776 231.575 24.6349 230.662 23.0542C229.75 21.4734 229.224 19.6994 229.127 17.8767C229.127 14.5573 231.473 13.1693 234.378 14.8419Z" fill="#56708E"/>
<path d="M237.413 21.6788C237.412 21.0853 237.289 20.4982 237.05 19.9545C236.835 19.3817 236.45 18.8883 235.947 18.5405C235.188 18.0922 234.559 18.9975 234.455 20.0666C234.369 18.8854 233.748 17.2473 232.99 16.799C232.821 16.6825 232.617 16.6298 232.413 16.6503C232.209 16.6709 232.019 16.7633 231.877 16.911C231.603 17.2843 231.469 17.7421 231.498 18.2043C231.498 20.0149 232.576 21.653 233.481 23.3773L234.447 25.1879L235.412 24.5067C236.318 23.8429 237.413 23.4894 237.413 21.6788Z" fill="#FAFAFA"/>
<path opacity="0.3" d="M250.138 23.9463C251.675 24.938 252.956 26.2789 253.875 27.8596C254.795 29.4403 255.329 31.2161 255.432 33.0421C255.432 36.396 253.078 37.7496 250.181 36.077C248.652 35.0791 247.379 33.7346 246.467 32.1527C245.555 30.5708 245.029 28.796 244.931 26.9725C244.888 23.6273 247.233 22.265 250.138 23.9463Z" fill="#56708E"/>
<path d="M253.104 30.8004C253.095 30.2068 252.969 29.6208 252.733 29.076C252.516 28.4997 252.128 28.0034 251.621 27.6535C250.871 27.2137 250.233 28.119 250.138 29.1881C250.043 28.0069 249.423 26.3602 248.672 25.9205C248.503 25.8017 248.297 25.7476 248.091 25.7682C247.885 25.7888 247.694 25.8826 247.552 26.0326C247.276 26.4052 247.142 26.8634 247.172 27.3258C247.172 29.1364 248.25 30.7745 249.155 32.4988L250.112 34.3094L251.121 33.611C251.983 32.9644 253.095 32.6023 253.104 30.8004Z" fill="#FAFAFA"/>
<path opacity="0.3" d="M265.899 33.0423C267.428 34.0407 268.7 35.3853 269.612 36.9671C270.524 38.5489 271.051 40.3234 271.149 42.1467C271.149 45.5006 268.796 46.8542 265.899 45.1816C264.365 44.1924 263.087 42.8556 262.167 41.2796C261.247 39.7037 260.712 37.9331 260.605 36.1116C260.605 32.7232 262.993 31.3696 265.899 33.0423Z" fill="#56708E"/>
<path d="M268.865 39.8964C268.858 39.3026 268.732 38.7162 268.494 38.172C268.274 37.5999 267.886 37.1073 267.382 36.7581C266.623 36.3097 265.994 37.215 265.899 38.2841C265.804 37.1029 265.184 35.4648 264.425 35.0165C264.256 34.9 264.052 34.8473 263.848 34.8679C263.644 34.8884 263.454 34.9808 263.313 35.1286C263.035 35.5007 262.898 35.9585 262.925 36.4218C262.925 38.2324 264.002 39.8705 264.916 41.5948L265.873 43.4054L266.839 42.7243C267.761 42.0604 268.856 41.7069 268.865 39.8964Z" fill="#FAFAFA"/>
<path d="M281.297 43.1381L354.771 85.5567C355.836 86.2246 356.729 87.1337 357.378 88.2106C358.026 89.2875 358.412 90.502 358.504 91.7557C358.504 93.9887 356.832 94.8337 354.771 93.6439L281.297 51.2252C280.232 50.5574 279.339 49.6483 278.691 48.5713C278.042 47.4944 277.656 46.28 277.564 45.0262C277.59 42.7932 279.262 41.9483 281.297 43.1381Z" fill="#FAFAFA"/>
<path opacity="0.5" d="M279.659 46.2075C279.704 46.8347 279.897 47.4424 280.22 47.9816C280.544 48.5207 280.989 48.9763 281.521 49.3113L355.332 91.98C356.358 92.5749 357.194 92.1525 357.194 91.0317C357.147 90.406 356.955 89.8 356.631 89.2624C356.308 88.7249 355.863 88.2707 355.332 87.9365L281.521 45.2678C280.495 44.6729 279.659 45.0953 279.659 46.2075Z" fill="#56708E"/>
<g opacity="0.3">
<path opacity="0.3" d="M362.341 92.4025C362.321 92.3174 362.321 92.2289 362.341 92.1439C362.339 92.1113 362.346 92.0789 362.362 92.0501C362.377 92.0213 362.4 91.9971 362.427 91.9801L364.091 90.9713L364.246 90.8851C364.279 90.8691 364.314 90.8608 364.35 90.8608C364.386 90.8608 364.421 90.8691 364.453 90.8851L365.393 91.4283C365.461 91.4703 365.513 91.5341 365.54 91.6093C365.582 91.6924 365.605 91.7836 365.609 91.8766V99.593C365.612 99.6277 365.607 99.6626 365.595 99.6954C365.583 99.7281 365.564 99.7579 365.54 99.7827C365.54 99.8258 365.454 99.8258 365.393 99.7827L364.376 99.1964C364.31 99.1517 364.259 99.0887 364.229 99.0153C364.193 98.9337 364.172 98.846 364.169 98.7567V93.532L363.246 94.0751C363.206 94.1096 363.154 94.1096 363.091 94.0751C363.027 94.0235 362.979 93.9547 362.953 93.8768L362.341 92.4025Z" fill="#56708E"/>
<path opacity="0.3" d="M369.36 93.6354C369.743 93.8591 370.082 94.1513 370.36 94.4976C370.642 94.8317 370.877 95.203 371.058 95.6011C371.241 96.0106 371.38 96.4383 371.472 96.8772C371.557 97.3152 371.609 97.759 371.627 98.2049C371.627 98.5498 371.627 98.9119 371.627 99.2912C371.627 99.6706 371.627 100.007 371.627 100.334C371.615 100.718 371.563 101.099 371.472 101.473C371.402 101.77 371.26 102.045 371.058 102.274C370.874 102.462 370.623 102.57 370.36 102.576C370.004 102.562 369.658 102.452 369.36 102.257C368.978 102.031 368.639 101.739 368.36 101.395C368.083 101.058 367.851 100.687 367.67 100.291C367.479 99.8849 367.34 99.4562 367.256 99.0153C367.164 98.5782 367.109 98.134 367.092 97.6876C367.092 97.36 367.092 97.0065 367.092 96.6271C367.092 96.2478 367.092 95.8943 367.092 95.558C367.103 95.1737 367.158 94.7918 367.256 94.42C367.32 94.1207 367.463 93.844 367.67 93.6182C367.852 93.4316 368.099 93.3233 368.36 93.3164C368.717 93.3246 369.064 93.4354 369.36 93.6354ZM370.222 99.4205C370.222 98.7481 370.222 98.0842 370.222 97.4117C370.222 97.2048 370.222 97.0065 370.17 96.8254C370.139 96.6495 370.092 96.4765 370.032 96.3081C369.971 96.1526 369.887 96.0073 369.782 95.877C369.674 95.7431 369.542 95.6293 369.394 95.5408C369.28 95.463 369.144 95.4237 369.006 95.4287C368.956 95.4335 368.908 95.4491 368.865 95.4745C368.822 95.4998 368.785 95.5342 368.756 95.5753C368.689 95.6837 368.642 95.8035 368.618 95.9288C368.591 96.1 368.574 96.2728 368.567 96.4461C368.567 97.0927 368.567 97.7652 368.567 98.4549C368.57 98.6485 368.587 98.8415 368.618 99.0326C368.64 99.2107 368.686 99.3848 368.756 99.5499C368.815 99.7089 368.9 99.8574 369.006 99.9896C369.115 100.123 369.246 100.237 369.394 100.326C369.508 100.404 369.644 100.443 369.782 100.438C369.832 100.434 369.881 100.418 369.924 100.393C369.967 100.368 370.004 100.333 370.032 100.291C370.107 100.186 370.157 100.065 370.179 99.9378C370.196 99.7659 370.199 99.5929 370.187 99.4205H370.222Z" fill="#56708E"/>
<path opacity="0.3" d="M377.317 101.033C377.319 101.247 377.301 101.46 377.266 101.671C377.24 101.856 377.188 102.036 377.111 102.205C377.036 102.366 376.937 102.514 376.817 102.645C376.687 102.78 376.535 102.893 376.369 102.981L375.283 103.619L377.231 104.749C377.297 104.794 377.348 104.856 377.378 104.93C377.418 105.01 377.439 105.099 377.438 105.188V106.456C377.442 106.49 377.439 106.525 377.428 106.557C377.418 106.59 377.401 106.62 377.378 106.646C377.368 106.655 377.357 106.663 377.344 106.668C377.332 106.673 377.318 106.676 377.305 106.676C377.291 106.676 377.277 106.673 377.265 106.668C377.252 106.663 377.241 106.655 377.231 106.646L373.136 104.283C373.068 104.241 373.016 104.177 372.989 104.102C372.946 104.023 372.923 103.934 372.92 103.844V102.809C372.92 102.689 372.937 102.57 372.972 102.455C372.984 102.41 373.006 102.367 373.036 102.33C373.066 102.293 373.103 102.262 373.145 102.24L375.464 101.024C375.623 100.95 375.746 100.817 375.809 100.653C375.853 100.505 375.877 100.351 375.878 100.197C375.878 100.136 375.878 100.059 375.878 99.9465C375.859 99.8292 375.83 99.7138 375.791 99.6016C375.737 99.472 375.671 99.3479 375.593 99.2309C375.498 99.1038 375.378 98.998 375.24 98.9205C375.191 98.8834 375.135 98.8566 375.076 98.8418C375.017 98.827 374.955 98.8244 374.895 98.8343C374.81 98.851 374.734 98.8967 374.679 98.9636C374.631 99.0344 374.596 99.1133 374.576 99.1964C374.576 99.2826 374.533 99.343 374.524 99.3861C374.515 99.4292 374.455 99.5327 374.403 99.5413C374.336 99.5389 374.27 99.518 374.214 99.4809L373.257 98.9378C373.204 98.8973 373.162 98.8438 373.136 98.7826C373.103 98.7187 373.085 98.6478 373.084 98.5757C373.088 98.2633 373.135 97.953 373.222 97.6532C373.301 97.3995 373.44 97.1687 373.627 96.9807C373.808 96.8127 374.045 96.7175 374.291 96.7134C374.629 96.719 374.958 96.8207 375.24 97.0065C375.581 97.2078 375.887 97.4641 376.145 97.7652C376.401 98.0689 376.621 98.4017 376.8 98.7567C376.971 99.1187 377.104 99.4971 377.197 99.8862C377.278 100.263 377.319 100.647 377.317 101.033Z" fill="#56708E"/>
<path opacity="0.3" d="M380.068 105.809L380.189 106.111C380.233 106.22 380.288 106.324 380.353 106.421C380.414 106.531 380.489 106.633 380.577 106.723C380.664 106.825 380.769 106.909 380.887 106.973C380.979 107.037 381.086 107.075 381.197 107.085C381.281 107.116 381.373 107.116 381.456 107.085C381.54 107.037 381.604 106.961 381.637 106.87C381.691 106.739 381.715 106.597 381.706 106.456C381.706 106.181 381.635 105.911 381.499 105.671C381.371 105.43 381.176 105.229 380.939 105.094C380.876 105.053 380.806 105.026 380.732 105.016H380.551H380.404C380.365 105.03 380.323 105.03 380.284 105.016L379.077 104.318C379.01 104.268 378.957 104.203 378.921 104.128C378.88 104.049 378.862 103.959 378.87 103.869L379.102 99.7396C379.1 99.6713 379.121 99.6042 379.163 99.55C379.172 99.5403 379.184 99.5327 379.196 99.5274C379.209 99.5222 379.222 99.5195 379.236 99.5195C379.25 99.5195 379.263 99.5222 379.276 99.5274C379.288 99.5327 379.3 99.5403 379.309 99.55L382.629 101.464C382.695 101.508 382.746 101.571 382.775 101.645C382.815 101.725 382.836 101.814 382.836 101.904V103.171C382.84 103.205 382.836 103.24 382.826 103.272C382.815 103.305 382.798 103.335 382.775 103.361C382.766 103.37 382.754 103.378 382.742 103.383C382.729 103.388 382.716 103.391 382.702 103.391C382.688 103.391 382.675 103.388 382.662 103.383C382.65 103.378 382.638 103.37 382.629 103.361L380.37 102.05L380.318 103.085C380.423 103.063 380.532 103.063 380.637 103.085C380.781 103.11 380.918 103.163 381.042 103.24C381.363 103.418 381.654 103.645 381.904 103.913C382.167 104.194 382.393 104.506 382.577 104.844C382.771 105.203 382.918 105.585 383.017 105.982C383.125 106.407 383.18 106.845 383.18 107.284C383.193 107.679 383.132 108.074 382.999 108.448C382.915 108.711 382.745 108.938 382.517 109.094C382.306 109.234 382.051 109.29 381.801 109.249C381.495 109.201 381.202 109.093 380.939 108.93C380.588 108.727 380.269 108.474 379.99 108.18C379.718 107.886 379.483 107.559 379.292 107.206C379.106 106.87 378.959 106.514 378.852 106.146C378.751 105.807 378.696 105.456 378.689 105.102C378.685 105.044 378.7 104.987 378.732 104.939C378.751 104.925 378.773 104.918 378.796 104.918C378.819 104.918 378.842 104.925 378.861 104.939L379.844 105.508C379.921 105.555 379.986 105.62 380.034 105.697C380.046 105.734 380.058 105.772 380.068 105.809Z" fill="#56708E"/>
</g>
<path d="M195.727 281.492C195.658 281.346 190.925 273.129 190.925 273.129C190.925 273.129 191.942 273.733 196.701 271.052C198.479 269.967 200.138 268.699 201.65 267.267L204.806 273.345C206.815 275.483 211.031 273.155 215.833 271.302C216.635 270.991 217.454 270.629 218.273 270.258H218.325C220.954 269.396 224.058 270.31 221.877 273.319C219.695 276.328 215.341 278.38 211.315 280.216C206.47 282.475 197.951 286.295 195.727 281.492Z" fill="#B16668"/>
<path d="M231.041 271.431C231.625 272.181 231.997 273.074 232.119 274.017C232.274 275.026 230.714 279.009 226.946 282.173C223.178 285.337 217.885 286.872 215.583 288.208C213.281 289.545 211.367 291.605 208.616 293.088C205.866 294.571 203.064 295.675 199.615 294.537C198.857 293.838 197.744 292.071 197.891 291.838C198.21 291.312 231.041 271.431 231.041 271.431Z" fill="#263238"/>
<path d="M205.806 274.009C208.039 274.819 211.72 272.888 215.833 271.301C219.704 269.801 223.834 267.223 226.799 267.456C229.765 267.689 232.835 270.293 230.248 275.345C229.489 276.811 227.791 279.483 226.161 280.596C222.032 283.415 217.971 284.613 215.229 286.105C211.66 288.045 210.013 290.278 206.607 291.614C202.176 293.338 198.977 292.916 197.874 291.907C196.77 290.899 193.459 281.242 195.468 280.94C195.468 280.94 197.124 283.906 203.78 278.863C206.685 276.655 206.116 274.69 205.806 274.009Z" fill="#56708E"/>
<path opacity="0.4" d="M205.806 274.009C208.039 274.819 211.72 272.888 215.833 271.301C219.704 269.801 223.834 267.223 226.799 267.456C229.765 267.689 232.835 270.293 230.248 275.345C229.489 276.811 227.791 279.483 226.161 280.596C222.032 283.415 217.971 284.613 215.229 286.105C211.66 288.045 210.013 290.278 206.607 291.614C202.176 293.338 198.977 292.916 197.874 291.907C196.77 290.899 193.459 281.242 195.468 280.94C195.468 280.94 197.124 283.906 203.78 278.863C206.685 276.655 206.116 274.69 205.806 274.009Z" fill="black"/>
<path d="M219.851 275.974C219.851 275.974 218.333 271.939 214.979 271.664C214.672 271.609 214.355 271.643 214.065 271.76C213.775 271.877 213.524 272.074 213.341 272.327C213.341 272.327 216.299 272 218.514 276.638C218.514 276.638 218.747 276.914 219.333 276.638C219.532 276.518 219.963 276.311 219.851 275.974Z" fill="#FAFAFA"/>
<path d="M210.815 273.31C210.815 273.31 210.772 273.172 211.462 272.845C211.726 272.706 212.031 272.664 212.324 272.724C212.324 272.724 214.91 273.112 216.436 277.345C216.461 277.528 216.422 277.713 216.326 277.87C216.23 278.027 216.084 278.146 215.91 278.208C215.836 278.257 215.752 278.291 215.664 278.308C215.576 278.324 215.485 278.322 215.398 278.301C215.311 278.281 215.229 278.243 215.157 278.19C215.085 278.137 215.024 278.069 214.979 277.992C214.979 277.992 213.315 273.543 210.815 273.31Z" fill="#FAFAFA"/>
<path d="M208.375 274.069C208.375 274.069 208.435 273.767 208.979 273.638C209.66 273.457 209.884 273.638 209.884 273.638C209.884 273.638 211.953 274.879 212.919 278.509C212.919 278.509 213.143 279.104 212.306 279.371C211.47 279.639 211.444 278.932 211.444 278.932C211.444 278.932 209.901 274.422 208.375 274.069Z" fill="#FAFAFA"/>
<path d="M176.854 222.167C183.536 232.435 203.582 268.543 203.582 268.543C203.582 268.543 198.641 276.026 190.942 275.216L161.628 231.383L176.854 222.167Z" fill="#37474F"/>
<path d="M223.782 296.554C222.782 295.563 218.273 288.174 218.273 288.174C218.273 288.174 221.653 289.295 226.619 287.01C229.145 285.846 231.042 282.467 231.042 282.467L234.809 289.683C236.646 291.976 240.732 290.269 245.664 288.821C246.526 288.579 247.337 288.286 248.182 287.959H248.233C250.932 287.329 253.941 288.485 251.527 291.295C249.113 294.106 244.629 295.813 240.431 297.33C235.43 299.184 227.55 300.279 223.782 296.554Z" fill="#B16668"/>
<path d="M262.718 288.476C263.282 289.343 263.601 290.347 263.64 291.381C263.726 292.476 261.709 296.597 257.389 299.658C253.07 302.719 247.285 303.891 244.698 305.159C242.112 306.426 239.896 308.426 236.818 309.771C233.74 311.116 230.645 312.091 227.05 310.53C226.3 309.72 225.274 307.728 225.429 307.487C225.843 306.831 262.718 288.476 262.718 288.476Z" fill="#263238"/>
<path d="M235.516 288.95C235.865 289.103 236.222 289.235 236.585 289.347C236.947 289.411 237.318 289.411 237.68 289.347C238.554 289.272 239.419 289.122 240.267 288.898C242.362 288.364 244.405 287.622 246.483 287.01C250.794 285.743 255.406 283.346 258.553 283.855C261.7 284.363 265.089 287.303 261.864 292.528C260.628 294.542 259.053 296.327 257.208 297.805C252.751 300.814 247.63 301.452 244.56 302.805C240.577 304.573 238.62 306.814 234.835 307.978C229.947 309.435 226.558 308.702 225.463 307.521C224.851 306.866 224.601 302.857 223.342 299.943C222.273 297.442 222.058 295.632 223.023 295.563C223.293 295.86 223.6 296.121 223.937 296.339C224.317 296.641 224.754 296.864 225.222 296.994C225.874 297.151 226.542 297.235 227.213 297.244C228.408 297.364 229.613 297.289 230.783 297.02C231.112 296.95 231.413 296.781 231.645 296.537C231.895 296.155 232.005 295.698 231.955 295.244C231.955 294.847 231.955 294.442 231.955 294.046C231.944 293.827 231.973 293.607 232.042 293.399C232.159 293.167 232.331 292.965 232.542 292.813C233.216 292.339 233.767 291.709 234.145 290.976C234.349 290.366 234.417 289.719 234.344 289.079C234.33 288.968 234.355 288.856 234.413 288.76C234.533 288.622 234.757 288.674 234.93 288.76C235.102 288.847 235.318 288.864 235.516 288.95Z" fill="#56708E"/>
<path opacity="0.4" d="M235.516 288.95C235.865 289.103 236.222 289.235 236.585 289.347C236.947 289.411 237.318 289.411 237.68 289.347C238.554 289.272 239.419 289.122 240.267 288.898C242.362 288.364 244.405 287.622 246.483 287.01C250.794 285.743 255.406 283.346 258.553 283.855C261.7 284.363 265.089 287.303 261.864 292.528C260.628 294.542 259.053 296.327 257.208 297.805C252.751 300.814 247.63 301.452 244.56 302.805C240.577 304.573 238.62 306.814 234.835 307.978C229.947 309.435 226.558 308.702 225.463 307.521C224.851 306.866 224.601 302.857 223.342 299.943C222.273 297.442 222.058 295.632 223.023 295.563C223.293 295.86 223.6 296.121 223.937 296.339C224.317 296.641 224.754 296.864 225.222 296.994C225.874 297.151 226.542 297.235 227.213 297.244C228.408 297.364 229.613 297.289 230.783 297.02C231.112 296.95 231.413 296.781 231.645 296.537C231.895 296.155 232.005 295.698 231.955 295.244C231.955 294.847 231.955 294.442 231.955 294.046C231.944 293.827 231.973 293.607 232.042 293.399C232.159 293.167 232.331 292.965 232.542 292.813C233.216 292.339 233.767 291.709 234.145 290.976C234.349 290.366 234.417 289.719 234.344 289.079C234.33 288.968 234.355 288.856 234.413 288.76C234.533 288.622 234.757 288.674 234.93 288.76C235.102 288.847 235.318 288.864 235.516 288.95Z" fill="black"/>
<path d="M250.337 292.364C250.337 292.364 249.078 287.907 245.509 287.295C245.184 287.212 244.842 287.221 244.523 287.321C244.203 287.422 243.917 287.61 243.698 287.864C243.698 287.864 246.897 287.769 248.871 292.916C248.871 292.916 249.087 293.235 249.733 292.994C249.949 292.916 250.44 292.735 250.337 292.364Z" fill="#FAFAFA"/>
<path d="M240.905 288.726C240.905 288.726 240.905 288.579 241.638 288.295C241.935 288.169 242.266 288.147 242.577 288.234C242.577 288.234 245.267 288.872 246.569 293.537C246.576 293.731 246.516 293.923 246.401 294.079C246.285 294.236 246.119 294.348 245.931 294.399C245.847 294.445 245.754 294.473 245.658 294.483C245.562 294.492 245.466 294.482 245.374 294.453C245.282 294.424 245.197 294.377 245.124 294.314C245.051 294.251 244.991 294.175 244.948 294.089C244.948 294.089 243.56 289.183 240.905 288.726Z" fill="#FAFAFA"/>
<path d="M238.232 289.286C238.232 289.286 238.327 288.976 238.913 288.881C239.655 288.752 239.879 289.01 239.879 289.01C239.879 289.01 241.982 290.519 242.698 294.485C242.698 294.485 242.888 295.14 241.965 295.347C241.043 295.554 241.043 294.804 241.043 294.804C241.043 294.804 239.836 289.829 238.232 289.286Z" fill="#FAFAFA"/>
<path d="M209.142 236.918C213.97 245.488 225.955 271.146 232.136 283.881C229.03 287.671 224.609 290.152 219.756 290.83L187.321 246.23L196.977 238.099L209.142 236.918Z" fill="#455A64"/>
<path d="M98.6211 228.098C98.6211 228.098 137.781 216.278 144.592 214.416C151.403 212.553 163.887 210.053 167.707 211.769C171.526 213.485 173.681 216.494 176.009 220.166C178.423 223.977 180.199 227.452 180.199 227.452C180.199 227.452 154.559 234.461 139.04 234.461C123.521 234.461 98.6211 228.098 98.6211 228.098Z" fill="#37474F"/>
<path d="M101.363 212.7C98.9055 221.089 95.7068 236.039 107.01 246.954C111.416 251.213 136.686 264.758 152.205 259.998C169.543 254.679 190.244 244.428 190.244 244.428C190.244 244.428 200.71 245.04 204.116 243.074C207.521 241.108 209.591 237.858 209.142 236.918C203.737 225.71 199.236 219.882 187.536 221.054C173.224 222.486 149.377 226.831 149.377 226.831L101.363 212.7Z" fill="#455A64"/>
<path d="M159.619 151.952C152.205 145.459 141.798 148.417 136.013 154.047C127.15 162.668 121.891 173.618 123.84 179.049C126.107 185.266 159.619 151.952 159.619 151.952Z" fill="#455A64"/>
<path d="M247.216 189.93C247.371 188.852 246.5 187.628 244.741 186.732L224.222 176.239C221.08 174.847 217.55 174.603 214.247 175.549L195.486 182.015C193.848 182.584 192.951 183.378 192.899 184.154C192.856 184.723 192.554 186.93 192.537 187.559C192.52 188.189 192.925 188.654 193.796 189.094C195.9 190.172 200.616 190.525 204.323 189.887L209.082 189.077C212.789 188.439 217.497 188.792 219.592 189.853C220.863 190.47 221.881 191.509 222.472 192.793L221.368 196.612C221.105 197.306 221.105 198.073 221.368 198.767L221.023 199.974C220.601 201.414 220.463 202.923 224.049 204.509C225.177 205.075 226.43 205.345 227.69 205.295C228.95 205.246 230.178 204.877 231.257 204.225L245.802 194.741C246.08 194.586 246.321 194.371 246.506 194.111C246.69 193.852 246.815 193.555 246.871 193.241C246.94 192.68 247.138 190.482 247.216 189.93Z" fill="#455A64"/>
<path d="M223.42 195.362L223.489 185.412L217.299 183.792L216.738 189.033C217.724 189.169 218.685 189.445 219.592 189.853C220.863 190.47 221.881 191.509 222.472 192.793L222.023 194.336L223.42 195.362Z" fill="#263238"/>
<path d="M246.078 187.62C247.948 189.344 248.086 189.853 247.569 196.647C247.052 203.44 245.509 203.621 243.767 202.458C242.025 201.294 240.844 198.06 238.706 199.38L246.078 187.62Z" fill="#455A64"/>
<path d="M194.158 185.731C196.261 186.809 200.977 187.163 204.685 186.525L209.444 185.714C213.151 185.076 217.859 185.43 219.954 186.49C222.049 187.551 223.402 189.594 222.98 191.034L221.368 196.612C220.945 198.052 220.807 199.561 224.394 201.147C225.522 201.711 226.774 201.981 228.034 201.932C229.295 201.882 230.522 201.514 231.602 200.862L246.146 191.422C248.035 190.197 247.405 188.094 244.741 186.732L224.222 176.239C221.08 174.847 217.549 174.603 214.246 175.549L195.485 182.015C192.64 182.998 192.045 184.662 194.158 185.731Z" fill="#56708E"/>
<path opacity="0.2" d="M194.158 185.731C196.261 186.809 200.977 187.163 204.685 186.525L209.444 185.714C213.151 185.076 217.859 185.43 219.954 186.49C222.049 187.551 223.402 189.594 222.98 191.034L221.368 196.612C220.945 198.052 220.807 199.561 224.394 201.147C225.522 201.711 226.774 201.981 228.034 201.932C229.295 201.882 230.522 201.514 231.602 200.862L246.146 191.422C248.035 190.197 247.405 188.094 244.741 186.732L224.222 176.239C221.08 174.847 217.549 174.603 214.246 175.549L195.485 182.015C192.64 182.998 192.045 184.662 194.158 185.731Z" fill="black"/>
<path d="M239.749 186.68C239.732 186.567 239.685 186.461 239.614 186.372C239.543 186.282 239.45 186.213 239.344 186.171C238.982 186.002 238.589 185.906 238.19 185.89C237.79 185.874 237.391 185.937 237.016 186.076C236.654 186.223 236.473 186.421 236.456 186.637C236.438 186.852 236.378 187.301 236.37 187.447C236.361 187.594 236.499 187.835 236.775 187.99C237.507 188.33 238.343 188.368 239.103 188.094C239.447 187.956 239.637 187.757 239.663 187.551C239.689 187.344 239.758 186.844 239.749 186.68Z" fill="#263238"/>
<path d="M234.792 188.714C234.779 188.597 234.734 188.485 234.663 188.391C234.591 188.297 234.496 188.224 234.387 188.18C234.024 188.011 233.632 187.915 233.232 187.899C232.833 187.882 232.434 187.946 232.059 188.085C231.714 188.223 231.524 188.421 231.507 188.62C231.49 188.818 231.421 189.318 231.412 189.482C231.425 189.599 231.47 189.711 231.541 189.805C231.612 189.899 231.708 189.972 231.817 190.016C232.549 190.356 233.386 190.394 234.145 190.12C234.49 189.982 234.68 189.784 234.706 189.585C234.731 189.387 234.792 188.878 234.792 188.714Z" fill="#37474F"/>
<path d="M235.094 186.516C235.094 186.326 234.964 186.128 234.688 185.973C233.956 185.633 233.12 185.596 232.36 185.869C232.016 186.007 231.826 186.206 231.8 186.413C231.774 186.62 231.731 187.094 231.714 187.232C231.697 187.37 231.835 187.628 232.119 187.792C232.481 187.961 232.874 188.057 233.273 188.073C233.673 188.09 234.072 188.026 234.447 187.887C234.8 187.749 234.99 187.542 235.007 187.335C235.025 187.128 235.085 186.663 235.094 186.516Z" fill="#263238"/>
<path d="M239.439 188.947C239.439 188.758 239.318 188.559 239.034 188.404C238.674 188.233 238.283 188.136 237.885 188.118C237.486 188.1 237.089 188.162 236.715 188.301C236.37 188.439 236.18 188.637 236.154 188.835C236.128 189.033 236.085 189.516 236.068 189.697C236.051 189.878 236.18 190.094 236.473 190.266C237.206 190.605 238.043 190.639 238.801 190.361C239.146 190.223 239.327 190.025 239.353 189.827C239.379 189.628 239.439 189.094 239.439 188.947Z" fill="#37474F"/>
<path d="M237.016 186.076C236.327 186.352 236.266 186.852 236.861 187.188C237.593 187.529 238.43 187.566 239.189 187.292C239.879 187.007 239.939 186.507 239.344 186.171C238.982 186.002 238.589 185.906 238.19 185.89C237.79 185.874 237.391 185.937 237.016 186.076Z" fill="#455A64"/>
<path d="M232.059 188.102C231.378 188.378 231.309 188.878 231.904 189.215C232.636 189.555 233.472 189.592 234.231 189.318C234.921 189.034 234.99 188.533 234.387 188.197C234.024 188.028 233.632 187.932 233.232 187.916C232.833 187.9 232.434 187.963 232.059 188.102Z" fill="#455A64"/>
<path d="M232.361 185.869C231.671 186.154 231.602 186.645 232.205 186.982C232.567 187.152 232.959 187.249 233.359 187.267C233.759 187.285 234.158 187.223 234.533 187.085C235.214 186.809 235.283 186.309 234.688 185.973C233.957 185.633 233.12 185.596 232.361 185.869Z" fill="#455A64"/>
<path d="M236.715 188.301C236.025 188.577 235.956 189.077 236.559 189.413C237.291 189.753 238.128 189.79 238.887 189.516C239.568 189.232 239.637 188.74 239.034 188.404C238.674 188.233 238.283 188.136 237.885 188.118C237.486 188.1 237.089 188.162 236.715 188.301Z" fill="#455A64"/>
<path d="M221.075 177.61L218.894 176.394L216.419 177.403L214.238 176.187L211.755 177.205L211.66 178.127L212.928 178.834L211.462 179.429L211.358 180.352L213.54 181.567L216.014 180.55L218.195 181.765L220.67 180.757L220.773 179.834L219.506 179.127L220.972 178.524L221.075 177.61Z" fill="#37474F"/>
<path d="M218.894 176.394L216.419 177.403L214.238 176.187L211.755 177.205L213.936 178.42L211.462 179.429L213.635 180.645L216.118 179.636L218.29 180.852L220.773 179.834L218.592 178.619L221.075 177.61L218.894 176.394Z" fill="#455A64"/>
<path d="M216.117 179.636L216.014 180.55L213.54 181.567L213.634 180.644L216.117 179.636Z" fill="#263238"/>
<path d="M218.592 178.619L219.506 179.127L220.971 178.524L221.075 177.61L218.592 178.619Z" fill="#263238"/>
<path d="M220.773 179.834L220.67 180.757L218.195 181.765L218.29 180.851L220.773 179.834Z" fill="#263238"/>
<path d="M213.936 178.42L211.755 177.205L211.651 178.17L212.927 178.834L213.936 178.42Z" fill="#263238"/>
<path d="M195.296 175.635C200.469 174.463 203.547 175.368 207.952 175.187C209.375 175.135 210.582 174.368 211.28 174.497C212.617 174.756 212.513 176.144 211.651 177.084C210.789 178.024 209.797 178.912 205.978 179.507C202.719 180.024 202.59 179.653 198.77 180.834L194.589 182.8L193.123 179.205L195.296 175.635Z" fill="#B16668"/>
<path d="M204.564 175.187C201.816 174.007 198.782 173.659 195.839 174.187C191.623 175.187 193.132 179.506 193.132 179.506L204.564 175.187Z" fill="#B16668"/>
<path d="M183.778 153.288L171.276 164.47L154.766 158.677L166.56 142.287L183.778 153.288Z" fill="#B16668"/>
<path d="M196.201 131.812C196.201 131.812 200.391 138.174 199.917 138.804C199.443 139.433 196.348 139.993 196.348 139.993L196.201 131.812Z" fill="#9A4A4D"/>
<path d="M184.553 114.24C193.037 116.025 195.486 119.758 196.288 133.208C197.15 147.296 195.684 151.727 193.839 153.624C192.589 154.9 185.648 155.133 182.148 154.167C177.76 152.96 167.853 149.451 163.18 142.364C157.731 134.027 156.283 122.733 162.137 118.094C170.388 111.602 181.105 113.508 184.553 114.24Z" fill="#B16668"/>
<path d="M182.536 154.288C186.183 155.202 191.77 154.831 193.451 153.917C191.397 154.307 189.279 154.18 187.286 153.547C185.3 152.976 183.413 152.104 181.691 150.96L182.536 154.288Z" fill="#9A4A4D"/>
<path d="M198.167 120.06C195.744 121.646 192.83 122.259 189.968 122.647C190.14 124.931 189.364 127.173 188.605 129.337C188.079 130.837 186.2 135.536 184.295 132.889C182.941 130.975 181.708 129.233 179.035 129.639C174.621 130.294 174.026 135.924 176.802 139.347C179.579 142.77 182.182 141.459 182.182 141.459C182.182 141.459 182.45 147.494 179.156 151.745C177.374 152.604 175.434 153.088 173.457 153.167C171.48 153.245 169.508 152.917 167.663 152.202C163.473 150.719 157.49 145.244 155.334 141.037C149.411 129.44 149.627 118.474 157.214 115.266C158.076 109.792 162.387 107.343 167.25 106.214C174.061 104.644 181.001 109.059 187.605 106.403C189.002 105.843 190.287 105.032 191.709 104.558C192.093 104.384 192.511 104.299 192.932 104.309C193.353 104.319 193.766 104.425 194.141 104.619C194.7 105.1 195.057 105.774 195.141 106.507C195.533 107.804 195.41 109.204 194.796 110.412C195.774 109.91 196.819 109.55 197.9 109.343C198.441 109.246 198.997 109.265 199.531 109.398C200.064 109.532 200.563 109.778 200.995 110.119C201.729 110.845 202.153 111.828 202.176 112.861C202.4 115.741 200.572 118.474 198.167 120.06Z" fill="#263238"/>
<path d="M157.145 117.103L152.067 114.111C152.477 113.465 153.122 113.004 153.866 112.825C154.609 112.646 155.393 112.763 156.052 113.152C156.712 113.54 157.194 114.169 157.398 114.906C157.602 115.643 157.511 116.431 157.145 117.103Z" fill="#263238"/>
<path d="M159.619 151.952C150.273 149.158 142.574 150.572 130.366 162.203C116.985 174.92 107.139 196.526 103.69 219.83C103.69 219.83 104.147 230.599 116.623 237.763C129.857 245.359 150.308 243.505 158.524 229.831C158.524 229.831 160.249 217.649 165.706 211.131C169.241 206.906 177.414 197.578 183.45 190.913C188.7 185.111 194.184 170.962 185.933 164.298C183.51 162.349 181.13 160.849 177.777 158.642C169.215 160.16 158.085 155.09 159.619 151.952Z" fill="#56708E"/>
<path opacity="0.75" d="M159.619 151.952C150.273 149.158 142.574 150.572 130.366 162.203C116.985 174.92 107.139 196.526 103.69 219.83C103.69 219.83 104.147 230.599 116.623 237.763C129.857 245.359 150.308 243.505 158.524 229.831C158.524 229.831 160.249 217.649 165.706 211.131C169.241 206.906 177.414 197.578 183.45 190.913C188.7 185.111 194.184 170.962 185.933 164.298C183.51 162.349 181.13 160.849 177.777 158.642C169.215 160.16 158.085 155.09 159.619 151.952Z" fill="white"/>
<path opacity="0.1" d="M184.208 190.033L184.622 189.499L184.803 189.258L185.252 188.62C185.252 188.568 185.329 188.516 185.364 188.456C185.553 188.174 185.743 187.887 185.933 187.594C185.952 187.568 185.967 187.538 185.976 187.507C186.148 187.24 186.312 186.956 186.476 186.645L186.588 186.438C186.734 186.171 186.89 185.895 187.028 185.576C187.06 185.526 187.088 185.474 187.114 185.421C187.654 184.356 188.135 183.263 188.554 182.145V182.084C189.595 179.397 190.136 176.542 190.149 173.661C187.32 178.315 183.685 182.429 179.415 185.809C173.957 190.12 167.543 193.146 162.378 197.793C156.912 202.725 152.584 209.001 147.799 214.579C145.876 216.804 143.057 221.235 140.126 221.003C136.548 220.718 133.789 215.907 132.289 212.648C129.892 207.475 128.107 201.138 124.883 196.413C122.063 192.284 117.563 186.861 112.691 188.318C108.285 198.368 105.257 208.968 103.69 219.83C103.69 219.83 104.147 230.598 116.623 237.763C117.735 238.41 118.887 238.986 120.072 239.487C120.434 239.548 120.796 239.625 121.149 239.712C122.934 240.177 124.598 241.048 126.434 241.436L127.09 241.565L127.831 241.695L128.624 241.815L129.297 241.91L130.159 242.014L130.754 242.065L131.685 242.134H132.245H133.194H134.728H135.332L136.194 242.091L136.875 242.039L137.66 241.97L138.41 241.884L139.126 241.789L139.988 241.651L140.548 241.548C140.919 241.479 141.281 241.41 141.643 241.324L141.876 241.272C148.661 239.677 154.92 235.884 158.576 229.797C158.576 229.797 158.662 229.21 158.843 228.236C158.904 227.952 158.964 227.641 159.033 227.296C159.171 226.624 159.352 225.831 159.568 224.96C160.309 221.878 161.354 218.877 162.689 216.002C163.171 214.99 163.716 214.008 164.318 213.062C164.62 212.596 164.93 212.148 165.258 211.717L165.767 211.131L166.482 210.269C169.801 206.346 175.906 199.371 181.139 193.517L183.493 190.93L184.062 190.258L184.208 190.033Z" fill="#56708E"/>
<path d="M239.189 203.742C236.301 208.346 235.74 211.234 223.247 212.209C223.247 212.209 199.805 226.917 192.278 229.616C184.751 232.314 182.036 228.081 180.467 221.261C178.897 214.442 174.785 188.715 174.785 188.715C174.785 188.715 171.517 172.842 184.846 163.824C190.494 168.135 193.468 172.54 194.416 180.127C195.529 189.206 197.149 210.527 197.149 210.527C197.149 210.527 216.919 201.906 219.902 198.94C220.78 198.009 221.573 197.002 222.273 195.931C223.532 194.207 225.308 192.327 225.808 190.06C226.593 186.464 228.248 186.964 228.843 188.939C229.538 191.481 229.517 194.167 228.782 196.698C228.782 196.698 234.895 201.5 237.896 199.888L238.706 199.371C239.04 199.135 239.447 199.025 239.855 199.061C240.262 199.098 240.643 199.278 240.93 199.569C241.094 200.397 240.956 200.931 239.189 203.742Z" fill="#B16668"/>
<path d="M183.347 162.367C190.865 165.91 194.555 171.575 195.331 180.145C196.107 188.715 197.15 203.604 197.15 203.604C197.15 203.604 196.684 209.036 189.494 211.562C187.463 212.312 185.283 212.573 183.133 212.324C180.982 212.076 178.92 211.324 177.113 210.131L174.13 190.732C174.13 190.732 169.914 169.747 183.347 162.367Z" fill="#455A64"/>
<path d="M128.745 225.107C116.442 210.054 105.001 191.991 95.5341 186.534C78.4977 176.722 43.8903 198.285 40.1053 247.489C36.3204 296.693 72.6522 324.265 107.768 331.835C125.744 335.698 149.368 331.783 158.636 328.576C186.889 318.791 202.71 305.099 209.504 286.175C216.919 265.431 211.306 252.955 201.65 247.644C197.3 245.313 192.301 244.488 187.433 245.299C153.084 250.679 138.272 236.764 128.745 225.107Z" fill="#56708E"/>
<path opacity="0.2" d="M171.672 323.342L173.224 322.618C175.69 310.548 174.302 299.236 169.043 288.769C163.87 278.553 155.084 268.982 142.074 259.455C122.891 245.462 115.347 232.185 108.088 219.347C105.423 214.64 102.915 210.191 99.8625 205.803C93.0772 196.009 86.3092 190.861 78.5756 189.62C75.4211 189.143 72.2057 189.254 69.0917 189.947C68.0284 190.637 66.9708 191.393 65.9189 192.215C69.8931 190.83 74.1399 190.41 78.3083 190.991C85.6453 192.172 92.103 197.129 98.6813 206.596C101.682 210.907 104.191 215.356 106.837 220.029C114.183 233.004 121.787 246.411 141.212 260.55C158.007 272.845 178.622 292.313 171.672 323.342Z" fill="black"/>
<path opacity="0.1" d="M107.769 331.835C125.745 335.697 149.368 331.783 158.636 328.576C186.89 318.79 202.711 305.099 209.504 286.174C209.685 285.665 209.841 285.174 210.004 284.674L209.591 284.51C202.357 282.156 194.58 284.976 187.416 287.519C169.396 293.916 149.032 298.65 131.59 290.83C120.106 285.657 108.269 277.613 102.164 266.603C96.0603 255.593 93.241 243.014 88.8095 231.254C86.8093 225.952 84.947 219.097 80.4465 213.933C76.2305 209.105 70.6695 205.596 64.2636 205.605C59.0043 205.605 54.1417 207.191 49.6067 212.554C44.7096 221.96 41.1833 233.651 40.1229 247.54C36.3207 296.701 72.6525 324.265 107.769 331.835Z" fill="black"/>
<path d="M359.281 290.914L383.767 276.774C384.407 276.356 384.939 275.793 385.321 275.131C385.703 274.469 385.924 273.726 385.965 272.963V273.248C385.924 272.485 385.704 271.742 385.322 271.08C384.94 270.417 384.407 269.855 383.767 269.437L334.528 240.985C333.847 240.641 333.094 240.462 332.33 240.462C331.566 240.462 330.813 240.641 330.131 240.985L305.646 255.125C305.006 255.541 304.473 256.102 304.091 256.763C303.709 257.423 303.488 258.165 303.447 258.927V258.651C303.488 259.413 303.709 260.155 304.091 260.816C304.473 261.477 305.006 262.038 305.646 262.453L354.884 290.905C355.565 291.25 356.318 291.431 357.082 291.433C357.845 291.434 358.599 291.256 359.281 290.914Z" fill="#37474F"/>
<path d="M357.091 254.039L383.775 269.437C384.416 269.855 384.948 270.418 385.33 271.08C385.712 271.742 385.933 272.485 385.974 273.248V272.963C385.932 273.727 385.711 274.469 385.329 275.131C384.947 275.793 384.415 276.356 383.775 276.774L359.29 290.914C358.612 291.27 357.857 291.451 357.091 291.44V254.039Z" fill="#263238"/>
<path d="M383.775 271.98L359.29 286.137C358.61 286.486 357.856 286.668 357.091 286.668C356.327 286.668 355.573 286.486 354.893 286.137L305.654 257.686C304.439 256.987 304.439 255.849 305.654 255.151L330.14 241.011C330.822 240.667 331.575 240.488 332.339 240.488C333.102 240.488 333.855 240.667 334.537 241.011L383.775 269.463C384.991 270.144 384.991 271.282 383.775 271.98Z" fill="#455A64"/>
<path d="M383.775 267.333V269.67L358.359 284.327C358.079 284.495 357.768 284.604 357.445 284.646C356.884 284.726 356.312 284.614 355.824 284.327L305.654 255.367V252.944L354.893 281.447C355.574 281.793 356.327 281.974 357.091 281.974C357.855 281.974 358.609 281.793 359.29 281.447L383.775 267.333Z" fill="#56708E"/>
<path opacity="0.2" d="M383.776 267.333V269.67L358.359 284.327C358.08 284.495 357.769 284.603 357.445 284.646H357.083V281.956C357.852 281.972 358.612 281.791 359.29 281.43L383.776 267.333Z" fill="black"/>
<path d="M359.29 281.464L383.776 267.334C384.416 266.916 384.949 266.354 385.331 265.692C385.714 265.029 385.934 264.286 385.974 263.523V258.996C385.934 258.233 385.714 257.49 385.331 256.828C384.949 256.165 384.416 255.603 383.776 255.186L334.537 226.734C333.855 226.39 333.102 226.211 332.339 226.211C331.575 226.211 330.822 226.39 330.14 226.734L305.655 240.865C305.015 241.284 304.483 241.847 304.101 242.509C303.72 243.17 303.499 243.913 303.456 244.676V249.202C303.497 249.955 303.719 250.687 304.101 251.336C304.484 251.986 305.016 252.534 305.655 252.935L354.893 281.439C355.571 281.791 356.324 281.978 357.088 281.982C357.853 281.987 358.608 281.809 359.29 281.464Z" fill="#37474F"/>
<path d="M357.091 239.779L383.775 255.186C384.416 255.603 384.949 256.165 385.331 256.828C385.713 257.49 385.933 258.233 385.974 258.996V263.523C385.933 264.286 385.713 265.029 385.331 265.691C384.949 266.354 384.416 266.916 383.775 267.333L359.29 281.464C358.614 281.826 357.857 282.007 357.091 281.99V239.779Z" fill="#263238"/>
<path d="M383.775 257.729L359.29 271.86C358.608 272.204 357.855 272.383 357.091 272.383C356.328 272.383 355.575 272.204 354.893 271.86L305.654 243.408C304.439 242.71 304.439 241.572 305.654 240.822L330.14 226.691C330.822 226.347 331.575 226.167 332.339 226.167C333.102 226.167 333.855 226.347 334.537 226.691L383.775 255.142C384.991 255.884 384.991 257.022 383.775 257.729Z" fill="#455A64"/>
<path d="M349.625 246.477C352.341 248.038 352.341 250.564 349.625 252.125C348.101 252.89 346.42 253.288 344.715 253.288C343.01 253.288 341.328 252.89 339.805 252.125C337.098 250.564 337.098 248.038 339.805 246.477C341.326 245.704 343.008 245.3 344.715 245.3C346.421 245.3 348.104 245.704 349.625 246.477Z" fill="#56708E"/>
<path d="M309.646 248.141C309.899 248.305 310.109 248.527 310.258 248.787C310.408 249.048 310.494 249.341 310.509 249.642C310.509 250.193 310.121 250.426 309.646 250.159C309.395 249.996 309.186 249.776 309.036 249.517C308.886 249.257 308.8 248.966 308.784 248.667C308.784 248.107 309.172 247.874 309.646 248.141Z" fill="#56708E"/>
<path d="M309.646 251.461C309.898 251.625 310.108 251.847 310.258 252.107C310.407 252.368 310.493 252.661 310.509 252.961C310.509 253.513 310.121 253.746 309.646 253.478C309.395 253.315 309.186 253.095 309.036 252.836C308.886 252.577 308.8 252.286 308.784 251.987C308.784 251.426 309.172 251.194 309.646 251.461Z" fill="#56708E"/>
<path d="M87.3618 105.551V92.619L98.2855 91.662C98.441 91.6483 98.5971 91.6813 98.7338 91.7568C99.1563 91.9896 107.959 97.0505 108.097 97.1281C108.2 97.1886 108.289 97.2718 108.355 97.3713C108.422 97.4708 108.465 97.5842 108.482 97.7028C108.498 97.8214 108.488 97.9423 108.451 98.0563C108.414 98.1703 108.352 98.2745 108.269 98.361L96.6905 110.914L87.3618 105.551Z" fill="#56708E"/>
<path d="M96.6904 110.905L108.269 98.3522C108.381 98.2349 108.455 98.086 108.479 97.9257C108.504 97.7654 108.479 97.6013 108.407 97.4557C108.336 97.3101 108.222 97.1898 108.08 97.1112C107.938 97.0326 107.775 96.9993 107.614 97.0159L96.6904 97.9643V110.905Z" fill="#56708E"/>
<path d="M87.3618 92.6016L96.6905 97.9729L107.614 97.0159C107.743 97.0045 107.873 97.0222 107.994 97.0676C107.131 96.5503 99.139 91.9636 98.7424 91.7481C98.6016 91.6668 98.4382 91.6335 98.2769 91.6532L87.3618 92.6016Z" fill="#56708E"/>
<path opacity="0.5" d="M87.3618 92.6016L96.6905 97.9729L107.614 97.0159C107.743 97.0045 107.873 97.0222 107.994 97.0676C107.131 96.5503 99.139 91.9636 98.7424 91.7481C98.6016 91.6668 98.4382 91.6335 98.2769 91.6532L87.3618 92.6016Z" fill="white"/>
<path d="M96.6988 82.298C96.6445 81.3571 96.3705 80.442 95.8989 79.6261C95.4273 78.8101 94.7711 78.1159 93.983 77.5992L91.7758 76.3318C90.9364 75.9027 90.0071 75.679 89.0643 75.679C88.1216 75.679 87.1923 75.9027 86.3528 76.3318L52.5041 95.9116C51.7154 96.425 51.059 97.1174 50.5886 97.9324C50.1181 98.7474 49.8469 99.6621 49.7969 100.602V137.847C49.8455 138.789 50.1162 139.705 50.5867 140.522C51.0572 141.338 51.7142 142.032 52.5041 142.546L54.7112 143.822C55.5525 144.245 56.4811 144.466 57.4228 144.466C58.3644 144.466 59.293 144.245 60.1343 143.822L93.983 124.242C94.774 123.729 95.4323 123.035 95.9043 122.219C96.3763 121.402 96.6485 120.485 96.6988 119.544V82.298Z" fill="#56708E"/>
<path opacity="0.2" d="M49.7969 137.848C49.8455 138.789 50.1162 139.706 50.5867 140.522C51.0572 141.339 51.7142 142.033 52.5041 142.547L54.7112 143.823C55.4761 144.205 56.3128 144.422 57.167 144.459C58.0212 144.496 58.8736 144.353 59.6687 144.038C58.3927 144.521 57.4271 143.797 57.4271 142.254V105.008C57.4598 104.064 57.7329 103.144 58.2203 102.335L50.5901 97.9297C50.1027 98.7386 49.8297 99.6585 49.7969 100.602V137.848Z" fill="black"/>
<path opacity="0.5" d="M96.6039 81.5313C96.2935 80.376 95.2417 80.0138 94.0174 80.7294L60.1342 100.318C59.3312 100.812 58.6714 101.507 58.2202 102.335L50.5986 97.9383C51.0491 97.1104 51.7053 96.4126 52.504 95.9122L86.3527 76.3324C87.194 75.9093 88.1226 75.689 89.0643 75.689C90.0059 75.689 90.9345 75.9093 91.7758 76.3324L93.9916 77.6084C94.6709 78.0502 95.253 78.626 95.7022 79.3005C96.1513 79.975 96.4582 80.7341 96.6039 81.5313Z" fill="white"/>
<path d="M69.7734 103.12L72.8341 101.352V103.611L75.9034 101.844V106.663L78.9641 104.887V100.068L82.0334 98.3003V96.0414L85.1028 94.2654V96.5329L88.1634 94.7568V99.5763L91.2328 97.8089V104.887L88.1634 106.663V110.198L85.1028 111.974V115.509L82.0334 117.285V120.82L78.9641 122.596L78.9727 126.131L75.9034 127.899V124.364L72.8341 126.131V122.596L69.7734 124.364V120.82L66.7041 122.596V119.053L63.6348 120.82V113.742L66.7041 111.974V107.155L69.7734 105.379V103.12Z" fill="white"/>
</svg>
