<svg width="500" height="500" viewBox="0 0 515 514" fill="none" xmlns="http://www.w3.org/2000/svg">
<g filter="url(#filter0_d)">
<path d="M78.0683 470.01C176.978 517.143 337.259 517.143 436.169 470.01C535.079 422.876 534.956 346.526 436.169 299.392C337.383 252.258 177.028 252.27 78.1671 299.392C-20.6935 346.513 -20.7182 422.9 78.0683 470.01Z" fill="#EBEBEB"/>
<path d="M396.754 119.686L401.298 116.191V106.189C401.298 98.2734 407.608 89.0738 414.473 85.11C421.339 81.1462 426.908 84.3567 426.908 92.2844V93.7292C428.352 91.3856 430.322 89.411 432.662 87.9625C437.602 85.11 441.615 87.4192 441.615 93.1241V93.7909L450.703 88.5429C453.951 86.6659 456.594 88.1848 456.594 91.9387C456.482 93.982 455.89 95.9702 454.867 97.7422C453.844 99.5143 452.417 101.02 450.703 102.138L396.754 133.281C393.506 135.158 390.863 133.639 390.863 129.885C390.975 127.842 391.567 125.854 392.59 124.082C393.613 122.31 395.04 120.804 396.754 119.686Z" fill="#EBEBEB"/>
<path d="M70.7704 391.523C70.1283 391.412 69.4492 391.215 68.6836 391.017C66.1033 390.325 63.5603 389.501 61.0646 388.547C56.087 386.741 51.3926 384.234 47.1234 381.101C44.7821 379.436 42.7789 377.341 41.2209 374.927C39.6637 372.483 39.1106 369.533 39.6773 366.691C39.9911 365.288 40.6996 364.004 41.7192 362.991C42.7388 361.978 44.027 361.278 45.4317 360.973C46.7529 360.764 48.1236 360.973 49.4449 360.739C50.1214 360.685 50.7629 360.416 51.276 359.972C51.7891 359.527 52.1469 358.931 52.2973 358.269C52.3026 357.512 52.0974 356.768 51.7046 356.121C49.3055 351.726 47.2416 347.156 45.5305 342.451C44.0981 338.252 44.0118 333.711 45.2835 329.46C46.3634 325.232 48.6758 321.419 51.9269 318.507C53.4087 317.272 55.4585 316.21 57.249 316.988C57.8183 317.278 58.3183 317.687 58.7147 318.188C59.1111 318.689 59.3946 319.27 59.5458 319.89C59.8222 321.131 59.963 322.398 59.9656 323.669C60.142 326.404 60.6648 329.105 61.5215 331.708C61.905 333.334 62.8385 334.778 64.1641 335.795C66.4609 337.227 69.622 336.104 72.067 337.265C74.512 338.425 75.3517 341.093 75.4628 343.612C75.5739 346.131 75.0676 348.674 75.3517 351.181C75.4014 351.972 75.6521 352.737 76.0802 353.404C76.76 354.132 77.547 354.753 78.414 355.244C79.5531 356.186 80.4662 357.372 81.086 358.714C81.7058 360.056 82.0164 361.52 81.9951 362.999C81.9202 365.952 81.3569 368.873 80.328 371.642C79.1944 375.515 78.3686 379.47 77.8584 383.472C77.4558 385.924 76.4169 388.228 74.8454 390.153C74.3793 390.76 73.7427 391.215 73.0169 391.459C72.2911 391.704 71.509 391.726 70.7704 391.523Z" fill="#FFC857"/>
<path d="M74.8702 389.474C74.7974 389.473 74.7261 389.453 74.6633 389.416C74.6006 389.38 74.5484 389.327 74.5121 389.264C60.1016 364.962 55.545 347.847 54.2485 337.759C52.8284 326.769 54.8288 321.619 54.9153 321.41C54.9355 321.358 54.9658 321.31 55.0044 321.27C55.043 321.23 55.0891 321.198 55.1401 321.175C55.1912 321.153 55.2461 321.141 55.3018 321.14C55.3575 321.139 55.4129 321.148 55.4648 321.169C55.5167 321.189 55.564 321.219 55.6042 321.258C55.6444 321.296 55.6766 321.343 55.699 321.394C55.7213 321.445 55.7334 321.5 55.7345 321.555C55.7357 321.611 55.7258 321.666 55.7056 321.718C55.7056 321.805 53.7051 326.979 55.1005 337.771C56.3353 347.761 60.9536 364.728 75.2406 388.844C75.2695 388.892 75.2886 388.945 75.2967 389C75.3049 389.055 75.302 389.111 75.2882 389.166C75.2744 389.22 75.25 389.27 75.2164 389.315C75.1828 389.359 75.1406 389.397 75.0924 389.425C75.023 389.458 74.947 389.475 74.8702 389.474Z" fill="white"/>
<path d="M67.1648 375.384C49.6055 373.458 44.6415 367.691 44.4315 367.444C44.3531 367.365 44.3091 367.259 44.3091 367.148C44.3091 367.037 44.3531 366.93 44.4315 366.851C44.4696 366.811 44.5156 366.779 44.5665 366.757C44.6175 366.735 44.6724 366.724 44.7279 366.724C44.7834 366.724 44.8383 366.735 44.8893 366.757C44.9402 366.779 44.9862 366.811 45.0243 366.851C45.0243 366.913 50.0377 372.606 67.1895 374.495C67.29 374.512 67.3813 374.564 67.447 374.642C67.5128 374.72 67.5489 374.819 67.5489 374.921C67.5489 375.023 67.5128 375.122 67.447 375.2C67.3813 375.278 67.29 375.33 67.1895 375.347L67.1648 375.384Z" fill="white"/>
<path d="M62.213 364.443C62.1195 364.443 62.0285 364.413 61.9536 364.357C61.9096 364.323 61.8727 364.281 61.8451 364.233C61.8175 364.184 61.7997 364.131 61.7928 364.076C61.7859 364.021 61.79 363.965 61.8049 363.911C61.8198 363.858 61.8452 363.808 61.8796 363.764C67.4487 356.442 67.8068 344.439 67.8191 344.315C67.819 344.26 67.8303 344.205 67.8523 344.154C67.8743 344.102 67.9066 344.056 67.9471 344.018C67.9876 343.98 68.0354 343.951 68.0878 343.932C68.1401 343.913 68.1958 343.905 68.2513 343.908C68.307 343.908 68.3621 343.919 68.4132 343.941C68.4643 343.963 68.5104 343.995 68.5485 344.036C68.5867 344.076 68.6162 344.124 68.6352 344.177C68.6541 344.229 68.6622 344.285 68.6588 344.34C68.6588 344.846 68.2884 356.689 62.5587 364.27C62.5185 364.324 62.4663 364.368 62.4063 364.398C62.3462 364.428 62.2801 364.443 62.213 364.443Z" fill="white"/>
<path d="M422.092 316.47C423.796 304.986 423.821 290.971 415.387 270.497C406.953 250.023 409.571 239.292 418.61 236.366C427.649 233.439 447.678 248.986 446.937 275.128C446.208 300.368 429.155 321.212 429.155 321.212L422.092 316.47Z" fill="#FFC857"/>
<path opacity="0.1" d="M422.092 316.47C423.796 304.986 423.821 290.971 415.387 270.497C406.953 250.023 409.571 239.292 418.61 236.366C427.649 233.439 447.678 248.986 446.937 275.128C446.208 300.368 429.155 321.212 429.155 321.212L422.092 316.47Z" fill="black"/>
<path d="M426.501 319.854C426.448 319.865 426.393 319.865 426.34 319.854C426.288 319.833 426.24 319.803 426.2 319.763C426.16 319.724 426.128 319.676 426.107 319.624C426.087 319.572 426.077 319.516 426.078 319.46C426.08 319.404 426.094 319.349 426.118 319.298C426.204 319.088 435.441 297.515 434.762 277.931C433.996 255.395 421.512 242.997 421.388 242.874C421.349 242.835 421.317 242.788 421.295 242.737C421.273 242.686 421.262 242.631 421.261 242.575C421.261 242.52 421.271 242.465 421.292 242.413C421.313 242.361 421.343 242.314 421.382 242.275C421.421 242.235 421.467 242.203 421.519 242.181C421.57 242.16 421.625 242.148 421.68 242.147C421.736 242.147 421.791 242.157 421.843 242.178C421.894 242.199 421.941 242.23 421.981 242.268C422.105 242.392 434.823 255 435.564 277.906C436.243 297.663 426.92 319.421 426.846 319.631C426.812 319.694 426.762 319.747 426.702 319.786C426.641 319.825 426.572 319.848 426.501 319.854Z" fill="white"/>
<path d="M422.586 326.657C422.586 326.657 427.353 298.898 444.27 282.944C461.187 266.99 489.391 263.952 498.232 272.473C507.073 280.993 501.405 289.279 488.946 292.156C474.869 295.404 466.237 301.084 474.869 305.43C482.883 309.456 481.982 318.186 473.634 322.372C460.298 329.065 436.219 322.693 430.415 335.857L422.586 326.657Z" fill="#FFC857"/>
<path d="M426.167 332.535H426.031C425.926 332.496 425.84 332.418 425.792 332.316C425.743 332.215 425.736 332.098 425.772 331.992C429.672 321.137 435.682 311.161 443.455 302.64C449.547 296.05 456.681 290.506 464.57 286.229C472.409 281.903 480.942 278.977 489.786 277.585C489.899 277.574 490.011 277.609 490.099 277.68C490.186 277.752 490.242 277.855 490.255 277.968C490.262 278.023 490.258 278.079 490.243 278.132C490.228 278.186 490.202 278.236 490.168 278.28C490.133 278.323 490.091 278.36 490.042 278.387C489.993 278.414 489.94 278.431 489.885 278.437C481.13 279.843 472.688 282.768 464.941 287.081C452.593 293.786 435.836 307.085 426.538 332.338C426.497 332.399 426.442 332.448 426.377 332.483C426.313 332.517 426.24 332.535 426.167 332.535Z" fill="white"/>
<path d="M434.749 315.074C434.66 315.075 434.574 315.048 434.501 314.997C434.428 314.946 434.372 314.874 434.342 314.79C434.306 314.684 434.313 314.568 434.361 314.466C434.41 314.365 434.496 314.286 434.601 314.247C449.036 309.209 469.732 311.851 469.942 311.876C469.997 311.883 470.05 311.901 470.098 311.929C470.146 311.957 470.189 311.994 470.222 312.038C470.256 312.083 470.281 312.133 470.295 312.187C470.31 312.24 470.313 312.296 470.306 312.352C470.299 312.407 470.281 312.46 470.253 312.508C470.225 312.556 470.188 312.598 470.144 312.632C470.1 312.666 470.049 312.691 469.996 312.705C469.942 312.719 469.886 312.723 469.831 312.716C469.633 312.716 449.123 310.073 434.885 315.05C434.843 315.07 434.796 315.078 434.749 315.074Z" fill="white"/>
<path d="M88.5027 30.4068C88.3994 28.4997 87.8481 26.6438 86.8933 24.9896C85.9386 23.3354 84.6074 21.9296 83.0077 20.8862L78.5252 18.293C76.8225 17.4286 74.9398 16.978 73.0302 16.978C71.1206 16.978 69.238 17.4286 67.5352 18.293L32.0832 38.7544C30.3949 39.8153 29.0151 41.3015 28.0824 43.064C27.2792 44.4643 26.7747 46.0157 26.6006 47.6205C26.6006 47.8428 26.6006 48.0651 26.6006 48.2874V89.21C26.7052 91.1182 27.2584 92.9749 28.2154 94.6292C29.1723 96.2834 30.5059 97.6886 32.1079 98.7306L36.578 101.324L37.146 101.62L37.356 101.707L37.7388 101.867L38.0351 101.978L38.3562 102.089L38.7143 102.188L38.9859 102.262L39.4058 102.361H39.6157L40.122 102.448H40.2208C42.7523 102.863 45.3502 102.451 47.6298 101.274L83.0077 80.8625C84.6099 79.8178 85.9435 78.4103 86.9004 76.754C87.8572 75.0978 88.4104 73.2394 88.515 71.3295L88.5027 30.4068Z" fill="#FFC857"/>
<path opacity="0.4" d="M43.666 51.8063C43.0311 52.8579 42.5566 53.9982 42.2583 55.1898C42.9954 52.1035 44.8924 49.4194 47.5557 47.6943L83.0077 27.233C86.0454 25.4796 88.5151 26.8996 88.5151 30.4066C88.4105 28.4983 87.8572 26.6417 86.9003 24.9874C85.9434 23.3332 84.6097 21.928 83.0077 20.886L78.5253 18.2928C76.8226 17.4283 74.9399 16.9778 73.0303 16.9778C71.1207 16.9778 69.238 17.4283 67.5353 18.2928L32.0833 38.7541C30.3949 39.815 29.0151 41.3012 28.0824 43.0637L28.1935 42.8661L43.666 51.8063Z" fill="white"/>
<path opacity="0.1" d="M46.4196 101.842L46.1603 101.916L45.7158 102.002H45.2959H44.8637C44.3531 101.965 43.8642 101.78 43.456 101.471L43.2584 101.286L43.1473 101.187L42.9991 101.002L42.8757 100.842L42.7522 100.644L42.641 100.446C42.641 100.446 42.641 100.311 42.5546 100.237C42.5165 100.161 42.4835 100.082 42.4558 100.002L42.2582 99.8044V99.5574C42.2582 99.4833 42.2582 99.4092 42.2582 99.3351C42.2514 99.2159 42.2514 99.0963 42.2582 98.977C42.2515 98.9113 42.2515 98.8451 42.2582 98.7795C42.2582 98.5942 42.2582 98.3967 42.2582 98.1867V57.2271C42.2589 56.7844 42.2961 56.3425 42.3694 55.9059C42.3694 55.7453 42.3694 55.5725 42.4682 55.4119V55.2144C42.751 54.0255 43.2088 52.8853 43.8265 51.8309L28.1935 42.866L28.0824 43.0635C27.2792 44.4638 26.7747 46.0153 26.6006 47.6201C26.6006 47.8424 26.6006 48.0646 26.6006 48.2869V89.2095C26.7052 91.1177 27.2584 92.9743 28.2154 94.6286C29.1723 96.2828 30.5059 97.688 32.1079 98.7301L36.578 101.323L37.146 101.62L37.356 101.706L37.7388 101.867L38.0351 101.978L38.3562 102.089L38.7143 102.188L38.9859 102.262L39.4058 102.36H39.6157L40.122 102.447H40.2208C42.3052 102.764 44.4358 102.556 46.4196 101.842Z" fill="black"/>
<path d="M73.0179 67.9333C75.3858 62.6438 76.5982 56.91 76.5742 51.1147C77.7311 49.32 78.7034 47.4127 79.4761 45.4221C78.4792 46.591 77.357 47.647 76.1297 48.571C77.3752 46.8301 78.2456 44.8496 78.6858 42.7549C77.6171 44.2407 76.3733 45.5923 74.9813 46.7805C74.3656 46.3224 73.6186 46.075 72.8512 46.075C72.0838 46.075 71.3368 46.3224 70.7211 46.7805C67.0166 48.9538 64.2012 55.2268 65.0533 59.5981C60.2127 62.0678 55.9155 61.4504 53.0507 58.3633C51.5195 62.7346 52.2604 66.8837 54.8536 67.6863C54.06 68.1628 53.1293 68.3585 52.211 68.242C52.211 71.9465 54.0756 74.1322 56.8787 73.2554C56.1357 73.9954 55.2372 74.5607 54.2485 74.9101C54.9894 77.565 57.138 78.6147 59.6941 77.1699C57.7043 80.7081 54.6912 83.562 51.0503 85.3569C53.6187 86.0731 56.6811 85.5915 59.9781 83.6898C65.7324 80.3681 70.1531 74.3545 72.9809 67.8468" fill="white"/>
<path d="M88.5025 179.415C88.3917 177.516 87.8368 175.67 86.8824 174.025C85.928 172.38 84.6008 170.982 83.0075 169.944L78.5251 167.35C76.8224 166.486 74.9397 166.035 73.0301 166.035C71.1205 166.035 69.2378 166.486 67.5351 167.35L32.0954 187.812C30.4071 188.873 29.0273 190.359 28.0946 192.121C27.2914 193.522 26.7869 195.073 26.6128 196.678C26.6128 196.9 26.6128 197.122 26.6128 197.345V238.267C26.7209 240.164 27.272 242.008 28.222 243.653C29.172 245.298 30.4944 246.697 32.0831 247.738L36.5532 250.332L37.1212 250.616L37.3311 250.714L37.7139 250.875L38.0103 250.986L38.3313 251.097L38.6894 251.196L38.9611 251.27L39.3809 251.369H39.5909L40.0971 251.455H40.1959C42.7341 251.851 45.3324 251.418 47.6049 250.22L83.0075 229.87C84.6098 228.826 85.9434 227.418 86.9002 225.762C87.8571 224.106 88.4102 222.247 88.5149 220.337L88.5025 179.415Z" fill="#FFC857"/>
<path opacity="0.4" d="M43.6659 200.815C43.0483 201.869 42.5905 203.009 42.3076 204.198C43.0326 201.12 44.911 198.437 47.5557 196.703L83.0077 176.241C86.0454 174.488 88.515 175.908 88.515 179.415C88.4028 177.515 87.846 175.668 86.8894 174.023C85.9328 172.378 84.6032 170.981 83.0077 169.944L78.5252 167.35C76.8225 166.486 74.9398 166.035 73.0302 166.035C71.1206 166.035 69.238 166.486 67.5352 167.35L32.0956 187.812C30.4072 188.873 29.0275 190.359 28.0947 192.121L28.2059 191.924L43.6659 200.815Z" fill="white"/>
<path opacity="0.1" d="M46.4197 250.85L46.1604 250.924C46.015 250.969 45.8664 251.002 45.7158 251.023H45.296H44.8638C44.3532 250.985 43.8643 250.801 43.4561 250.492L43.2585 250.307L43.1474 250.208L42.9992 250.01L42.8757 249.862L42.7522 249.665L42.6411 249.467C42.6411 249.393 42.6411 249.331 42.5546 249.257C42.5143 249.178 42.4813 249.095 42.4559 249.01L42.3818 248.8L42.3077 248.504C42.3077 248.504 42.3077 248.368 42.3077 248.294C42.3009 248.175 42.3009 248.055 42.3077 247.936C42.3009 247.87 42.3009 247.804 42.3077 247.738C42.3077 247.553 42.3077 247.343 42.3077 247.133V206.235C42.3084 205.792 42.3456 205.351 42.4188 204.914C42.4188 204.741 42.4188 204.581 42.5176 204.42V204.222C42.8005 203.034 43.2582 201.893 43.8759 200.839L28.4035 191.899L28.2924 192.096C27.4892 193.497 26.9847 195.048 26.8105 196.653C26.8105 196.875 26.8105 197.097 26.8105 197.32V238.242C26.8926 240.126 27.4117 241.964 28.3268 243.612C29.242 245.26 30.528 246.673 32.0833 247.738L36.5534 250.331L37.1214 250.615L37.3313 250.714L37.7141 250.875L38.0105 250.986L38.3315 251.097L38.6896 251.196L38.9613 251.27L39.3811 251.369H39.5911L40.0973 251.455H40.1961C42.2886 251.776 44.4282 251.568 46.4197 250.85Z" fill="black"/>
<path d="M65.2755 198.345C68.9059 196.246 69.3381 196.023 70.7705 195.282C71.5245 194.83 72.3665 194.544 73.2402 194.443C73.7986 194.386 74.357 194.55 74.796 194.9C75.2897 195.274 75.6492 195.798 75.821 196.394C76.1391 197.396 76.2974 198.442 76.2902 199.493C76.3519 201.358 76.3643 201.963 76.3643 206.766C76.3643 211.57 76.3643 212.175 76.2902 214.176C76.2685 215.399 76.1112 216.617 75.821 217.806C75.5975 218.736 75.2529 219.633 74.796 220.473C74.3865 221.296 73.8626 222.057 73.2402 222.733C72.5141 223.533 71.6834 224.23 70.7705 224.807C69.3381 225.721 68.9059 226.042 65.2755 228.08C61.6451 230.117 61.2253 230.414 59.7928 231.155C59.0378 231.603 58.1959 231.885 57.3232 231.982C56.7609 232.039 56.1984 231.875 55.755 231.525C55.2684 231.146 54.9141 230.623 54.7424 230.031C54.4249 229.033 54.2666 227.991 54.2732 226.944C54.2732 225.067 54.1867 224.474 54.1867 219.671C54.1867 214.867 54.1867 214.25 54.2732 212.262C54.2915 211.013 54.4489 209.771 54.7424 208.557C54.9692 207.63 55.3093 206.734 55.755 205.89C56.1749 205.07 56.7023 204.31 57.3232 203.63C58.0464 202.827 58.8776 202.129 59.7928 201.555C61.2253 200.642 61.6574 200.321 65.2755 198.283V198.345ZM65.2755 195.023C61.571 197.147 61.1265 197.493 59.6817 198.357C58.4619 199.12 57.3525 200.046 56.3847 201.111C55.4038 202.147 54.5725 203.315 53.9151 204.581C53.2265 205.882 52.6998 207.263 52.3468 208.693C51.9626 210.254 51.7514 211.852 51.7171 213.459C51.7171 215.423 51.6306 216.052 51.6306 220.967C51.6306 225.882 51.6306 226.499 51.7171 228.376C51.7173 229.747 51.9297 231.109 52.3468 232.414C52.6204 233.323 53.1681 234.125 53.9151 234.711C54.6156 235.257 55.5013 235.51 56.3847 235.415C57.5468 235.3 58.6709 234.938 59.6817 234.353C61.1265 233.6 61.5834 233.353 65.2755 231.229C68.9676 229.105 69.4245 228.759 70.8816 227.882C73.3089 226.381 75.2812 224.246 76.5866 221.708C77.2734 220.407 77.796 219.026 78.1424 217.596C78.5316 216.04 78.7469 214.445 78.7846 212.842C78.7846 210.866 78.8586 210.236 78.8586 205.322C78.8586 200.407 78.8586 199.802 78.7846 197.913C78.7829 196.545 78.5662 195.187 78.1424 193.887C77.8708 192.977 77.328 192.171 76.5866 191.578C75.8854 191.033 74.9989 190.785 74.1169 190.886C72.9535 190.995 71.8282 191.358 70.8199 191.948C69.3628 192.689 68.9059 192.936 65.2138 195.073L65.2755 195.023ZM65.2138 203.877C61.3611 206.1 58.237 212.064 58.237 217.201C58.237 222.338 61.3611 224.696 65.2138 222.474C69.0664 220.251 72.1906 214.287 72.1906 209.15C72.1906 204.013 69.0664 201.654 65.2138 203.877ZM65.2138 219.214C62.7441 220.658 60.6943 219.127 60.6943 215.793C60.6943 212.459 62.7194 208.582 65.2138 207.149C67.7081 205.717 69.7456 207.236 69.7456 210.582C69.7456 213.929 67.7205 217.781 65.2138 219.226V219.214ZM74.0922 198.394C74.0922 197.159 73.3636 196.641 72.4622 197.159C71.9645 197.516 71.5576 197.984 71.2745 198.527C70.9913 199.07 70.8398 199.671 70.8322 200.284C70.8322 201.518 71.5608 202.025 72.4622 201.518C72.9583 201.163 73.3641 200.697 73.6472 200.156C73.9303 199.616 74.0827 199.017 74.0922 198.407" fill="white"/>
<path d="M150.195 84.1343C150.098 82.2313 149.555 80.3778 148.609 78.7238C147.663 77.0698 146.34 75.6618 144.749 74.6137L140.267 72.0205C138.562 71.1559 136.677 70.7053 134.766 70.7053C132.854 70.7053 130.969 71.1559 129.264 72.0205L93.8248 92.4818C92.326 93.4761 91.0608 94.7837 90.1164 96.3144C89.172 97.8451 88.5708 99.5624 88.3545 101.348C88.3545 101.57 88.3545 101.792 88.3545 102.015V142.937C88.4568 144.845 89.0077 146.701 89.9625 148.355C90.9173 150.01 92.2491 151.415 93.8495 152.458L98.3319 155.051L98.8999 155.348L99.1099 155.434L99.4927 155.594L99.7767 155.706L100.11 155.817L100.456 155.916L100.74 155.99L101.16 156.088H101.37L101.876 156.175H101.975C104.506 156.589 107.104 156.178 109.384 155.002L144.749 134.59C146.35 133.545 147.682 132.137 148.636 130.48C149.591 128.824 150.142 126.966 150.244 125.057L150.195 84.1343Z" fill="#FFC857"/>
<path opacity="0.4" d="M105.37 105.534C104.754 106.591 104.293 107.73 104 108.918C104.728 105.837 106.611 103.154 109.26 101.422L144.749 80.9608C147.787 79.2073 150.244 80.6273 150.244 84.1343C150.142 82.2269 149.591 80.3706 148.636 78.7163C147.681 77.062 146.35 75.6563 144.749 74.6137L140.267 72.0205C138.562 71.1559 136.677 70.7053 134.766 70.7053C132.854 70.7053 130.969 71.1559 129.264 72.0205L93.8247 92.4818C92.1427 93.5467 90.7679 95.0322 89.8362 96.7914L89.935 96.5939L105.37 105.534Z" fill="white"/>
<path opacity="0.1" d="M108.124 155.57L107.852 155.644C107.711 155.688 107.567 155.721 107.42 155.743H107.013H106.469C105.963 155.703 105.478 155.519 105.074 155.212L104.876 155.026L104.765 154.928L104.605 154.73L104.494 154.582C104.445 154.521 104.404 154.454 104.37 154.384L104.259 154.187C104.259 154.125 104.259 154.051 104.16 153.977L104.074 153.742L104 153.52C104 153.429 103.975 153.331 103.926 153.224C103.919 153.154 103.919 153.083 103.926 153.014C103.919 152.894 103.919 152.775 103.926 152.656C103.919 152.59 103.919 152.524 103.926 152.458C103.913 152.261 103.913 152.063 103.926 151.865V110.955C103.932 110.512 103.97 110.071 104.037 109.634C104.037 109.461 104.037 109.3 104.123 109.14C104.128 109.074 104.128 109.008 104.123 108.942C104.416 107.755 104.878 106.615 105.494 105.559L90.009 96.6184L89.9103 96.816C89.1018 98.2139 88.5969 99.7665 88.4285 101.373C88.4285 101.595 88.4285 101.817 88.4285 102.039V142.962C88.5307 144.869 89.0817 146.726 90.0365 148.38C90.9913 150.034 92.3231 151.44 93.9235 152.483L98.4059 155.076L98.9739 155.372L99.1838 155.459L99.5667 155.619L99.8507 155.73L100.184 155.841L100.53 155.94L100.814 156.014L101.234 156.113H101.444L101.95 156.2H102.049C104.095 156.488 106.18 156.272 108.124 155.57Z" fill="black"/>
<path d="M123.152 140.703L129.067 137.282V117.525L133.191 115.141L133.623 108.276L129.067 110.906V107.139C129.067 105.584 129.301 104.83 130.425 104.188L133.623 102.336V95.4702L129.536 97.8411C127.514 98.907 125.838 100.529 124.707 102.515C123.576 104.502 123.037 106.77 123.152 109.053V114.376L120.052 116.117V122.81L123.127 121.044L123.152 140.703Z" fill="white"/>
<path d="M70.116 398.389L211.788 480.16C213.452 481.006 215.293 481.447 217.16 481.447C219.027 481.447 220.867 481.006 222.531 480.16L443.467 352.613C446.431 350.897 446.431 348.131 443.467 346.439L301.795 264.618C300.133 263.772 298.295 263.332 296.43 263.332C294.565 263.332 292.726 263.772 291.064 264.618L70.116 392.214C67.1524 393.894 67.1524 396.66 70.116 398.389Z" fill="#E0E0E0"/>
<path d="M74.5738 378.631L212.233 458.118C213.915 458.97 215.774 459.415 217.66 459.415C219.546 459.415 221.405 458.97 223.087 458.118L441.344 332.127C444.344 330.398 444.344 327.595 441.344 325.866L303.672 246.38C301.99 245.527 300.131 245.083 298.245 245.083C296.359 245.083 294.5 245.527 292.818 246.38L74.5738 372.457C71.5732 374.124 71.5732 376.927 74.5738 378.631Z" fill="#37474F"/>
<path d="M212.233 458.142L74.5739 378.631C71.8943 377.087 71.6103 374.679 73.7219 372.951C72.3801 374.015 71.2784 375.35 70.4889 376.869C69.6993 378.389 69.2399 380.058 69.1406 381.767V386.867C69.2434 388.752 69.7889 390.587 70.7329 392.221C71.6768 393.856 72.9927 395.246 74.5739 396.277L212.233 475.751C213.904 476.639 215.774 477.085 217.666 477.048V459.439C215.774 459.476 213.904 459.03 212.233 458.142Z" fill="#455A64"/>
<path d="M441.343 349.761C442.923 348.731 444.237 347.344 445.179 345.711C446.121 344.078 446.664 342.246 446.764 340.363V335.264C446.666 333.554 446.207 331.885 445.417 330.365C444.627 328.845 443.525 327.51 442.183 326.447C444.295 328.176 444.023 330.584 441.343 332.127L223.087 458.143C221.419 459.028 219.554 459.475 217.666 459.439V477.073C219.554 477.108 221.419 476.662 223.087 475.776L441.343 349.761Z" fill="#263238"/>
<path d="M148.454 415.343C150.789 416.531 153.372 417.15 155.992 417.15C158.612 417.15 161.196 416.531 163.531 415.343C167.692 412.874 167.692 409.046 163.531 406.638C161.194 405.457 158.611 404.842 155.992 404.842C153.374 404.842 150.791 405.457 148.454 406.638C144.342 409.046 144.342 412.948 148.454 415.343Z" fill="#263238"/>
<path d="M233.657 441.275L101.888 365.147C100.098 364.11 100.098 362.418 101.888 361.381L273.53 262.248C274.538 261.737 275.653 261.471 276.784 261.471C277.914 261.471 279.029 261.737 280.037 262.248L411.806 338.376C413.609 339.413 413.609 341.093 411.806 342.08L240.165 441.226C239.16 441.744 238.047 442.019 236.917 442.028C235.786 442.036 234.67 441.778 233.657 441.275Z" fill="white"/>
<path d="M362.549 291.711C363.141 292.009 363.794 292.165 364.457 292.165C365.119 292.165 365.773 292.009 366.365 291.711C366.57 291.608 366.743 291.451 366.864 291.255C366.985 291.06 367.049 290.835 367.049 290.606C367.049 290.376 366.985 290.151 366.864 289.956C366.743 289.76 366.57 289.603 366.365 289.5C365.773 289.202 365.119 289.046 364.457 289.046C363.794 289.046 363.141 289.202 362.549 289.5C361.487 290.105 361.487 291.093 362.549 291.711Z" fill="#263238"/>
<path d="M368.649 309.023C369.832 309.62 371.139 309.931 372.464 309.931C373.79 309.931 375.097 309.62 376.28 309.023C378.392 307.788 378.392 305.825 376.28 304.615C375.099 304.012 373.791 303.698 372.464 303.698C371.138 303.698 369.83 304.012 368.649 304.615C366.537 305.776 366.537 307.801 368.649 309.023Z" fill="#263238"/>
<path d="M363.315 301.342C364.722 300.54 364.648 299.181 363.142 298.317L338.025 283.808C337.218 283.379 336.321 283.147 335.407 283.129C334.493 283.112 333.588 283.311 332.765 283.709C331.357 284.524 331.431 285.882 332.938 286.747L358.054 301.256C358.862 301.683 359.76 301.913 360.674 301.928C361.588 301.943 362.493 301.742 363.315 301.342Z" fill="#263238"/>
<path d="M271.307 282.722C269.504 283.759 269.504 285.438 271.307 286.426L371.699 344.402C372.709 344.913 373.826 345.179 374.959 345.179C376.091 345.179 377.208 344.913 378.219 344.402L400.446 331.597L293.534 269.854L271.307 282.722Z" fill="#EBEBEB"/>
<path d="M272.048 292.786L264.034 288.167C263.699 287.997 263.329 287.908 262.954 287.908C262.578 287.908 262.208 287.997 261.873 288.167L256.823 291.081C256.218 291.427 256.218 291.983 256.823 292.316L257.514 292.724L254.958 294.082C254.662 294.243 254.686 294.341 255.032 294.317L259.527 293.885L264.837 296.947C265.175 297.113 265.547 297.199 265.923 297.199C266.3 297.199 266.672 297.113 267.01 296.947L272.048 294.033C272.175 293.985 272.284 293.9 272.361 293.788C272.438 293.677 272.479 293.545 272.479 293.409C272.479 293.274 272.438 293.142 272.361 293.03C272.284 292.919 272.175 292.834 272.048 292.786Z" fill="#EBEBEB"/>
<path d="M274.407 304.837L273.814 303.602C273.048 301.985 272.579 299.787 274.802 298.515C275.644 298.088 276.574 297.866 277.518 297.866C278.462 297.866 279.393 298.088 280.235 298.515C281.396 299.182 281.655 300.182 281.013 300.984C282.454 300.59 283.992 300.748 285.322 301.429C285.652 301.536 285.94 301.745 286.144 302.026C286.348 302.306 286.458 302.644 286.458 302.991C286.458 303.338 286.348 303.676 286.144 303.957C285.94 304.237 285.652 304.446 285.322 304.553C283.149 305.788 279.346 305.566 276.543 305.134L274.407 304.837Z" fill="#EBEBEB"/>
<path d="M164.383 348.205L264.787 406.18C265.798 406.691 266.915 406.958 268.047 406.958C269.18 406.958 270.297 406.691 271.307 406.18L349.497 361.022C351.287 359.985 351.287 358.306 349.497 357.318L249.093 299.293C248.082 298.781 246.965 298.515 245.833 298.515C244.7 298.515 243.583 298.781 242.573 299.293L164.383 344.451C162.58 345.488 162.58 347.167 164.383 348.205Z" fill="#EBEBEB"/>
<path d="M165.149 354.514L157.098 349.884C156.759 349.718 156.388 349.632 156.011 349.632C155.634 349.632 155.263 349.718 154.924 349.884L149.874 352.798C149.751 352.848 149.646 352.933 149.572 353.043C149.498 353.153 149.459 353.283 149.459 353.415C149.459 353.548 149.498 353.677 149.572 353.787C149.646 353.897 149.751 353.983 149.874 354.033L150.578 354.44L148.022 355.786C147.713 355.947 147.75 356.058 148.022 356.021L152.516 355.601L157.826 358.663C158.164 358.829 158.536 358.915 158.913 358.915C159.289 358.915 159.661 358.829 159.999 358.663L165.05 355.737C165.178 355.701 165.292 355.626 165.377 355.523C165.462 355.42 165.513 355.293 165.524 355.16C165.535 355.027 165.504 354.894 165.437 354.778C165.37 354.663 165.27 354.571 165.149 354.514Z" fill="#EBEBEB"/>
<path d="M167.445 366.554L166.865 365.319C166.087 363.701 165.63 361.503 167.853 360.219C168.693 359.793 169.621 359.571 170.563 359.571C171.505 359.571 172.434 359.793 173.274 360.219C174.509 360.898 174.706 361.899 174.052 362.689C175.499 362.309 177.034 362.467 178.374 363.133C178.702 363.244 178.987 363.455 179.19 363.736C179.392 364.017 179.501 364.355 179.501 364.702C179.501 365.048 179.392 365.386 179.19 365.667C178.987 365.949 178.702 366.159 178.374 366.27C176.2 367.505 172.397 367.282 169.582 366.85L167.445 366.554Z" fill="#EBEBEB"/>
<path d="M135.673 361.023C136.684 360.511 137.801 360.245 138.933 360.245C140.066 360.245 141.183 360.511 142.193 361.023L242.585 418.986C244.388 420.023 244.388 421.715 242.585 422.752L222.099 434.582L115.212 372.84L135.673 361.023Z" fill="#EBEBEB"/>
<path d="M247.24 347.674L190.092 363.023L264.812 406.168C265.823 406.679 266.939 406.946 268.072 406.946C269.204 406.946 270.321 406.679 271.332 406.168L272.949 405.23L305.191 357.923L236.72 371.358L247.24 347.674Z" fill="#E0E0E0"/>
<path d="M275.382 314.481L249.093 299.293C248.082 298.781 246.965 298.515 245.833 298.515C244.7 298.515 243.583 298.781 242.573 299.293L213.184 316.272C214.53 318.828 217.308 321.211 221.519 323.273C233.867 329.176 253.97 329.176 266.355 323.273C271.542 320.804 274.542 317.692 275.382 314.481Z" fill="#E0E0E0"/>
<path opacity="0.2" d="M402.162 309.134L270.381 233.018C269.372 232.507 268.258 232.241 267.127 232.241C265.997 232.241 264.882 232.507 263.873 233.018L92.2319 332.151C90.4414 333.188 90.4414 334.868 92.2319 335.855L120.09 351.908L224.05 411.959C225.059 412.47 226.173 412.736 227.304 412.736C228.434 412.736 229.549 412.47 230.558 411.959L385.06 322.692L402.15 312.813C403.965 311.863 403.965 310.171 402.162 309.134Z" fill="white"/>
<path d="M402.483 308.591L293.522 245.614L270.702 232.475C269.598 231.91 268.374 231.615 267.133 231.615C265.892 231.615 264.669 231.91 263.565 232.475L91.9232 331.608C91.434 331.797 91.0133 332.129 90.7165 332.561C90.4198 332.993 90.261 333.505 90.261 334.029C90.261 334.553 90.4198 335.065 90.7165 335.497C91.0133 335.929 91.434 336.261 91.9232 336.449L119.781 352.502L223.778 412.589C224.882 413.157 226.106 413.453 227.347 413.453C228.588 413.453 229.812 413.157 230.916 412.589L385.406 323.323L402.508 313.444C402.996 313.253 403.415 312.919 403.711 312.486C404.006 312.054 404.164 311.542 404.164 311.017C404.164 310.493 404.006 309.981 403.711 309.549C403.415 309.116 402.996 308.782 402.508 308.591H402.483ZM401.854 312.357L384.751 322.236L230.261 411.503C229.347 411.959 228.339 412.197 227.316 412.197C226.294 412.197 225.286 411.959 224.371 411.503L120.411 351.465L92.5653 335.412C92.2678 335.336 92.0041 335.163 91.8158 334.92C91.6275 334.677 91.5253 334.379 91.5253 334.072C91.5253 333.765 91.6275 333.466 91.8158 333.224C92.0041 332.981 92.2678 332.808 92.5653 332.732L264.207 233.599C265.122 233.145 266.13 232.909 267.152 232.909C268.174 232.909 269.182 233.145 270.097 233.599L292.929 246.75L401.891 309.727C402.188 309.803 402.452 309.976 402.64 310.219C402.828 310.461 402.931 310.76 402.931 311.067C402.931 311.374 402.828 311.672 402.64 311.915C402.452 312.157 402.188 312.33 401.891 312.407L401.854 312.357Z" fill="white"/>
<path d="M343.026 0.449341C344.841 -0.600274 346.323 0.251763 346.323 2.35099V245.108C346.259 246.253 345.928 247.366 345.355 248.359C344.783 249.353 343.985 250.197 343.026 250.826L248.29 305.529L237.176 342.574C236.176 345.933 234.176 346.081 232.719 342.883L222.544 320.421L194.883 336.388C193.068 337.437 191.586 336.585 191.586 334.486V91.7288C191.648 90.5838 191.979 89.4694 192.552 88.4761C193.124 87.4828 193.923 86.6384 194.883 86.0114L343.026 0.449341Z" fill="#FFC857"/>
<path d="M330.925 187.849C330.811 189.421 330.329 190.944 329.515 192.293C328.702 193.643 327.581 194.782 326.245 195.616L274.196 225.672C271.616 227.154 269.516 226.104 269.516 223.301C269.633 221.73 270.118 220.209 270.931 218.86C271.744 217.511 272.862 216.371 274.196 215.534L326.269 185.49C328.838 183.996 330.925 185.058 330.925 187.849Z" fill="white"/>
<path d="M321.33 217.868C321.214 219.439 320.73 220.961 319.917 222.31C319.104 223.659 317.985 224.798 316.65 225.635L273.419 250.628C270.838 252.122 268.751 251.06 268.751 248.257C268.865 246.689 269.346 245.169 270.157 243.822C270.968 242.474 272.086 241.337 273.419 240.502L316.699 215.509C319.28 214.015 321.33 215.077 321.33 217.868Z" fill="white"/>
<path d="M243.35 260.568L243.239 259.111C240.881 265.063 237.324 269.336 233.361 271.62C226.359 275.67 220.099 272.077 220.099 261.359C220.099 251.258 225.038 240.181 232.731 235.773C237.781 232.859 241.226 235.007 241.795 236.279V233.809C241.795 232.439 243.19 230.525 244.894 229.537C246.598 228.549 248.006 229.45 248.006 231.562V254.468C248.006 257.382 249.092 257.975 250.636 257.074C253.451 255.456 256.044 248.529 256.044 240.638C256.044 225.4 248.055 218.3 235.312 225.659C223.371 232.55 213.9 249.961 213.9 265.174C213.9 280.104 222.852 285.796 234.571 279.042C237.936 276.951 240.918 274.299 243.387 271.2C244.721 269.57 246.178 269.076 246.82 270.237C247.462 271.398 247.067 273.794 245.746 275.424C242.622 279.344 238.866 282.716 234.632 285.401C220.049 293.81 209.022 286.475 209.022 268.027C209.022 249.183 220.568 228.055 235.373 219.498C250.179 210.94 261.033 218.547 261.033 237.613C261.033 249.171 256.501 259.296 250.068 263.001C246.512 264.952 243.98 264.495 243.35 260.568ZM226.816 257.098C226.816 263.001 229.681 266.236 234.052 263.717C238.423 261.198 241.461 254.728 241.461 248.763C241.461 243.021 238.535 240.119 233.99 242.737C229.681 245.182 226.816 251.443 226.816 257.098Z" fill="white"/>
<path d="M268.924 78.5654C294.497 63.7473 315.218 75.7747 315.218 105.3C315.218 134.825 294.497 170.746 268.924 185.49C243.35 200.234 222.63 188.281 222.63 158.756C222.63 129.231 243.35 93.3835 268.924 78.5654Z" fill="white"/>
<path d="M268.924 78.5654C294.497 63.7473 315.218 75.7747 315.218 105.3C315.218 134.825 294.497 170.746 268.924 185.49C243.35 200.234 222.63 188.281 222.63 158.756C222.63 129.231 243.35 93.3835 268.924 78.5654Z" fill="#F5F5F5"/>
<path d="M252.044 117.771C249.922 118.138 248.027 119.316 246.759 121.056C244.487 123.982 244.956 128.156 246.759 137.553L253.785 136.479L252.044 117.771Z" fill="#263238"/>
<path d="M292.991 103.941C294.569 103.519 296.058 102.816 297.387 101.866C299.548 100.051 300.103 102.36 298.918 104.805C298.132 106.548 297.008 108.118 295.611 109.423C294.214 110.729 292.572 111.745 290.78 112.412C290.706 112.115 288.755 107.472 288.755 107.472L292.991 103.941Z" fill="#263238"/>
<path d="M256.082 166.238C256.082 166.238 242.992 174.685 240.152 177.661C237.312 180.637 236.139 189.91 235.089 201.258C235.089 201.258 249.994 207.544 273.369 195.973C296.745 184.403 298.856 175.253 298.856 175.253C298.856 175.253 295.831 161.509 294.707 157.693C293.287 152.865 290.546 149.383 274.604 156.619L256.082 166.238Z" fill="#263238"/>
<path d="M255.341 136.071C254.291 136.973 252.809 135.367 251.525 134.367C250.241 133.367 246.042 132.651 243.943 137.627C241.844 142.604 246.66 147.37 249.5 148.593C250.471 149.001 251.541 149.118 252.578 148.93C253.615 148.741 254.575 148.255 255.341 147.531L256.081 166.238C256.081 166.238 259.786 172.647 269.912 171.314C280.037 169.98 277.926 159.805 274.616 156.619V152.766C274.616 152.766 279.84 152.421 282.297 151.112C283.618 150.408 286.755 145.765 288.78 140.974C292.956 132.148 293.908 122.138 291.472 112.683C287.854 98.2604 271.319 102.224 261.465 111.066C251.611 119.907 255.341 136.071 255.341 136.071Z" fill="#FFA8A7"/>
<path d="M295.843 89.4685C294.954 86.5543 294.411 87.0729 287.261 92.0987C281.8 95.9435 275.706 98.7983 269.257 100.533C264.219 102.064 257.329 103.274 253.785 107.942C252.26 109.949 251.483 112.425 251.587 114.943C251.286 114.665 250.921 114.465 250.525 114.363C248.784 113.894 246.647 115.166 245.746 117.215L251.92 118.858C251.439 122.414 250.056 133.392 251.562 134.355C252.859 135.182 254.847 137.961 255.378 137.813C257.143 137.306 257.847 129.477 258.81 124.736C259.86 119.339 260.268 117.327 262.206 117.104C268.503 116.112 274.701 114.57 280.729 112.498C287.397 109.893 289.311 107.682 289.311 107.682L292.867 105.423C294.455 103.121 295.54 100.511 296.053 97.7622C296.565 95.0136 296.494 92.1878 295.843 89.4685Z" fill="#263238"/>
<path d="M274.592 152.766C274.592 152.766 265.244 153.396 261.984 152.532C260.106 152.084 258.481 150.912 257.464 149.272C257.926 150.989 258.809 152.563 260.033 153.853C262.416 156.323 274.592 155.261 274.592 155.261V152.766Z" fill="#F28F8F"/>
<path d="M272.208 141.912L276.481 142.369C276.305 143.003 275.926 143.561 275.401 143.958C274.877 144.355 274.237 144.569 273.579 144.567C272.394 144.444 271.789 143.258 272.208 141.912Z" fill="#F28F8F"/>
<path d="M278.383 125.242L279 136.343L284.89 132.774L278.383 125.242Z" fill="#F28F8F"/>
<path d="M272.344 129.193C272.333 129.749 272.146 130.286 271.811 130.73C271.477 131.173 271.011 131.5 270.48 131.663C270.258 131.739 270.02 131.759 269.789 131.721C269.557 131.683 269.339 131.588 269.153 131.445C268.967 131.302 268.82 131.115 268.724 130.901C268.628 130.687 268.586 130.452 268.603 130.218C268.617 129.662 268.806 129.124 269.143 128.681C269.48 128.238 269.947 127.911 270.48 127.748C270.701 127.672 270.938 127.651 271.169 127.689C271.4 127.727 271.618 127.822 271.803 127.966C271.989 128.109 272.135 128.296 272.23 128.511C272.324 128.725 272.363 128.96 272.344 129.193Z" fill="#263238"/>
<path d="M270.356 122.636L266.355 125.921C266.096 125.326 266.048 124.66 266.219 124.033C266.389 123.407 266.769 122.858 267.294 122.476C267.491 122.258 267.734 122.087 268.005 121.974C268.277 121.862 268.57 121.812 268.863 121.827C269.157 121.843 269.443 121.923 269.701 122.063C269.959 122.203 270.183 122.399 270.356 122.636Z" fill="#263238"/>
<path d="M289.052 119.179L285.347 117.351C285.626 116.78 286.102 116.328 286.688 116.081C287.273 115.833 287.929 115.807 288.533 116.005C288.785 116.171 289.001 116.388 289.165 116.642C289.329 116.895 289.439 117.18 289.488 117.478C289.537 117.776 289.523 118.082 289.448 118.374C289.373 118.667 289.238 118.941 289.052 119.179Z" fill="#263238"/>
<path d="M287.99 124.463C287.974 125.018 287.786 125.554 287.452 125.996C287.118 126.439 286.654 126.766 286.125 126.933C285.903 127.009 285.666 127.029 285.434 126.991C285.203 126.953 284.984 126.858 284.798 126.715C284.612 126.572 284.465 126.385 284.369 126.171C284.273 125.957 284.231 125.722 284.248 125.488C284.262 124.932 284.451 124.394 284.788 123.951C285.125 123.508 285.593 123.182 286.125 123.019C286.346 122.942 286.583 122.922 286.814 122.959C287.046 122.997 287.264 123.092 287.449 123.236C287.634 123.379 287.78 123.567 287.875 123.781C287.969 123.995 288.009 124.23 287.99 124.463Z" fill="#263238"/>
</g>
<defs>
<filter id="filter0_d" x="0" y="0" width="514.306" height="513.36" filterUnits="userSpaceOnUse" color-interpolation-filters="sRGB">
<feFlood flood-opacity="0" result="BackgroundImageFix"/>
<feColorMatrix in="SourceAlpha" type="matrix" values="0 0 0 0 0 0 0 0 0 0 0 0 0 0 0 0 0 0 127 0"/>
<feOffset dy="4"/>
<feGaussianBlur stdDeviation="2"/>
<feColorMatrix type="matrix" values="0 0 0 0 0 0 0 0 0 0 0 0 0 0 0 0 0 0 0.16 0"/>
<feBlend mode="normal" in2="BackgroundImageFix" result="effect1_dropShadow"/>
<feBlend mode="normal" in="SourceGraphic" in2="effect1_dropShadow" result="shape"/>
</filter>
</defs>
</svg>
