<svg width="142" height="47" viewBox="0 0 142 47" fill="none" xmlns="http://www.w3.org/2000/svg">
<g filter="url(#filter0_d)">
<path fill-rule="evenodd" clip-rule="evenodd" d="M24.4166 38.0583C35.2322 38.0583 43.9999 29.5386 43.9999 19.0291C43.9999 8.51963 35.2322 0 24.4166 0C13.601 0 4.83325 8.51963 4.83325 19.0291C4.83325 29.5386 13.601 38.0583 24.4166 38.0583ZM23.3218 6.84281C21.9636 6.41449 20.4876 7.15916 20.0251 8.50609L19.7261 9.37667H17.6785C16.3839 9.37667 15.3344 10.4262 15.3344 11.7208C15.3344 13.0155 16.3839 14.065 17.6785 14.065H18.1161L16.6955 18.2018H14.7026C13.4842 18.2018 12.4964 19.1896 12.4964 20.408C12.4964 21.6265 13.4842 22.6143 14.7026 22.6143H15.1802L13.3478 27.9503C12.8852 29.2972 13.6113 30.7363 14.9695 31.1646C16.3277 31.593 17.8037 30.8483 18.2662 29.5014L20.6313 22.6143L29.8734 22.6143C31.0919 22.6143 32.0797 21.6265 32.0797 20.408C32.0797 19.1896 31.0919 18.2018 29.8734 18.2018H22.1466L23.5672 14.065L36.547 14.065C37.8416 14.065 38.8911 13.0155 38.8911 11.7208C38.8911 10.4262 37.8416 9.37667 36.547 9.37667L25.0786 9.37667C25.1447 8.25582 24.4521 7.19928 23.3218 6.84281Z" fill="#FFC857"/>
</g>
<g filter="url(#filter1_d)">
<path fill-rule="evenodd" clip-rule="evenodd" d="M23.1667 38.0583C33.7521 38.0583 42.3333 29.5386 42.3333 19.0291C42.3333 8.51963 33.7521 0 23.1667 0C12.5812 0 4 8.51963 4 19.0291C4 29.5386 12.5812 38.0583 23.1667 38.0583ZM22.095 6.84281C20.7657 6.41449 19.3273 7.14044 18.8824 8.46428L18.5757 9.37667H16.6219C15.3273 9.37667 14.2778 10.4262 14.2778 11.7208C14.2778 13.0155 15.3273 14.065 16.6219 14.065H17L15.6096 18.2018H13.7063C12.4878 18.2018 11.5 19.1896 11.5 20.408C11.5 21.6265 12.4878 22.6143 13.7063 22.6143H14.1265L12.3191 27.9921C11.8741 29.3159 12.591 30.7363 13.9203 31.1646C15.2496 31.593 16.688 30.867 17.1329 29.5432L19.4617 22.6143L28.4604 22.6143C29.6789 22.6143 30.6667 21.6265 30.6667 20.408C30.6667 19.1896 29.6789 18.2018 28.4604 18.2018H20.9448L22.3352 14.065L34.4336 14.065C35.7283 14.065 36.7778 13.0155 36.7778 11.7208C36.7778 10.4262 35.7283 9.37667 34.4336 9.37667L23.8229 9.37667C23.896 8.26222 23.2115 7.20257 22.095 6.84281Z" fill="#2B3D51"/>
</g>
<path d="M71.175 9.275C71.6417 9.34167 71.9583 9.48333 72.125 9.7C72.3083 9.91667 72.4 10.2 72.4 10.55C72.4 11.7 71.7833 12.2333 70.55 12.15L69.675 12.075C68.6917 11.9917 67.7083 11.925 66.725 11.875C65.7583 11.825 64.7417 11.8 63.675 11.8H62.55C62.35 14.2667 62.1417 16.5167 61.925 18.55L66.225 18.475C66.8417 18.475 67.25 18.5833 67.45 18.8C67.6667 19.0167 67.775 19.3083 67.775 19.675C67.775 20.2417 67.6083 20.6917 67.275 21.025C66.9417 21.3417 66.4667 21.5 65.85 21.5H61.575L61.425 22.575C61.075 25.325 60.325 27.2833 59.175 28.45C58.0417 29.6167 56.475 30.2 54.475 30.2C53.3417 30.2 52.3 29.9583 51.35 29.475C50.4 28.975 49.7 28.375 49.25 27.675C49.0667 27.3917 48.975 27.05 48.975 26.65C48.975 26.25 49.0667 25.9 49.25 25.6C49.45 25.3 49.6917 25.15 49.975 25.15C50.175 25.15 50.3667 25.2167 50.55 25.35C50.75 25.4833 51 25.7417 51.3 26.125C52.1 27.175 53.0917 27.7 54.275 27.7C55.225 27.7 56.0167 27.3167 56.65 26.55C57.3 25.7667 57.7167 24.5417 57.9 22.875L58.05 21.5H56.85C56.4667 21.5 56.1333 21.3917 55.85 21.175C55.5833 20.9583 55.45 20.65 55.45 20.25C55.45 19.7333 55.5833 19.3417 55.85 19.075C56.1167 18.7917 56.5083 18.65 57.025 18.65C57.4917 18.65 57.95 18.6417 58.4 18.625C58.6 16.7917 58.8167 14.5667 59.05 11.95C57.25 12.1167 55.9833 12.4083 55.25 12.825C54.5167 13.2417 54.15 13.8583 54.15 14.675C54.15 15.2417 54.3167 15.7833 54.65 16.3C54.75 16.45 54.8 16.6 54.8 16.75C54.8 17.05 54.6333 17.3167 54.3 17.55C53.9667 17.7667 53.5917 17.875 53.175 17.875C52.725 17.875 52.3417 17.7417 52.025 17.475C51.825 17.3083 51.6333 16.9667 51.45 16.45C51.2667 15.9333 51.175 15.3583 51.175 14.725C51.175 12.6583 52.2333 11.1583 54.35 10.225C56.4833 9.29167 59.5917 8.825 63.675 8.825C66.5083 8.825 69.0083 8.975 71.175 9.275ZM77.6729 24.425C77.8895 24.425 78.0562 24.525 78.1729 24.725C78.3062 24.925 78.3729 25.2 78.3729 25.55C78.3729 26.2167 78.2145 26.7333 77.8979 27.1C77.1812 27.9833 76.3979 28.7083 75.5479 29.275C74.7145 29.8417 73.7645 30.125 72.6979 30.125C71.2312 30.125 70.1395 29.4583 69.4229 28.125C68.7229 26.7917 68.3729 25.0667 68.3729 22.95C68.3729 20.9167 68.6312 18.6 69.1479 16C69.6812 13.4 70.4562 11.1667 71.4729 9.3C72.5062 7.43333 73.7312 6.5 75.1479 6.5C75.9479 6.5 76.5729 6.875 77.0229 7.625C77.4895 8.35833 77.7229 9.41667 77.7229 10.8C77.7229 12.7833 77.1729 15.0833 76.0729 17.7C74.9729 20.3167 73.4812 22.9083 71.5979 25.475C71.7145 26.1583 71.9062 26.65 72.1729 26.95C72.4395 27.2333 72.7895 27.375 73.2229 27.375C73.9062 27.375 74.5062 27.1833 75.0229 26.8C75.5395 26.4 76.1979 25.725 76.9979 24.775C77.1979 24.5417 77.4229 24.425 77.6729 24.425ZM74.5979 8.975C74.2145 8.975 73.7812 9.66667 73.2979 11.05C72.8145 12.4333 72.3895 14.15 72.0229 16.2C71.6562 18.25 71.4562 20.2167 71.4229 22.1C72.6062 20.15 73.5479 18.2 74.2479 16.25C74.9479 14.2833 75.2979 12.4917 75.2979 10.875C75.2979 9.60833 75.0645 8.975 74.5979 8.975ZM79.1021 30.125C78.3521 30.125 77.7355 29.7833 77.2521 29.1C76.7855 28.4 76.5521 27.5333 76.5521 26.5C76.5521 25.25 76.6355 24.1083 76.8021 23.075C76.9688 22.025 77.2438 20.9167 77.6271 19.75C77.7938 19.25 78.0271 18.8917 78.3271 18.675C78.6271 18.4583 79.1021 18.35 79.7521 18.35C80.1188 18.35 80.3688 18.4083 80.5021 18.525C80.6521 18.6417 80.7271 18.8167 80.7271 19.05C80.7271 19.1833 80.6355 19.6333 80.4521 20.4C80.2855 21.0167 80.1521 21.575 80.0521 22.075C79.7188 23.825 79.5521 24.9917 79.5521 25.575C79.5521 25.925 79.5938 26.175 79.6771 26.325C79.7605 26.4583 79.8938 26.525 80.0771 26.525C80.3271 26.525 80.6355 26.275 81.0021 25.775C81.3855 25.275 81.7855 24.5167 82.2021 23.5C82.6355 22.4833 83.0521 21.2333 83.4521 19.75C83.5855 19.25 83.7855 18.8917 84.0521 18.675C84.3355 18.4583 84.7521 18.35 85.3021 18.35C85.6855 18.35 85.9521 18.4 86.1021 18.5C86.2521 18.5833 86.3271 18.75 86.3271 19C86.3271 19.4167 86.1188 20.5583 85.7021 22.425C85.2355 24.5583 85.0021 25.875 85.0021 26.375C85.0021 26.6917 85.0688 26.9417 85.2021 27.125C85.3355 27.2917 85.5105 27.375 85.7271 27.375C86.0605 27.375 86.4521 27.175 86.9021 26.775C87.3688 26.3583 87.9855 25.6917 88.7521 24.775C88.9521 24.5417 89.1771 24.425 89.4271 24.425C89.6438 24.425 89.8105 24.525 89.9271 24.725C90.0605 24.925 90.1271 25.2 90.1271 25.55C90.1271 26.2167 89.9688 26.7333 89.6521 27.1C88.9355 27.9833 88.1605 28.7083 87.3271 29.275C86.5105 29.8417 85.5771 30.125 84.5271 30.125C83.7271 30.125 83.1355 29.8167 82.7521 29.2C82.3855 28.5833 82.2021 27.7167 82.2021 26.6C81.9188 27.7333 81.4938 28.6083 80.9271 29.225C80.3605 29.825 79.7521 30.125 79.1021 30.125ZM99.45 24.425C99.6667 24.425 99.8333 24.525 99.95 24.725C100.083 24.925 100.15 25.2 100.15 25.55C100.15 26.2167 99.9917 26.7333 99.675 27.1C99.0583 27.85 98.1833 28.5417 97.05 29.175C95.9333 29.8083 94.7333 30.125 93.45 30.125C91.7 30.125 90.3417 29.65 89.375 28.7C88.4083 27.75 87.925 26.45 87.925 24.8C87.925 23.65 88.1667 22.5833 88.65 21.6C89.1333 20.6 89.8 19.8083 90.65 19.225C91.5167 18.6417 92.4917 18.35 93.575 18.35C94.5417 18.35 95.3167 18.6417 95.9 19.225C96.4833 19.7917 96.775 20.5667 96.775 21.55C96.775 22.7 96.3583 23.6917 95.525 24.525C94.7083 25.3417 93.3167 25.9917 91.35 26.475C91.7667 27.2417 92.5583 27.625 93.725 27.625C94.475 27.625 95.325 27.3667 96.275 26.85C97.2417 26.3167 98.075 25.625 98.775 24.775C98.975 24.5417 99.2 24.425 99.45 24.425ZM93.15 20.8C92.5333 20.8 92.0083 21.1583 91.575 21.875C91.1583 22.5917 90.95 23.4583 90.95 24.475V24.525C91.9333 24.2917 92.7083 23.9417 93.275 23.475C93.8417 23.0083 94.125 22.4667 94.125 21.85C94.125 21.5333 94.0333 21.2833 93.85 21.1C93.6833 20.9 93.45 20.8 93.15 20.8ZM100.089 30.125C99.4561 30.125 99.0061 29.7917 98.7395 29.125C98.4895 28.4583 98.3645 27.3917 98.3645 25.925C98.3645 23.7583 98.6728 21.7 99.2895 19.75C99.4395 19.2667 99.6811 18.9167 100.014 18.7C100.364 18.4667 100.848 18.35 101.464 18.35C101.798 18.35 102.031 18.3917 102.164 18.475C102.298 18.5583 102.364 18.7167 102.364 18.95C102.364 19.2167 102.239 19.8167 101.989 20.75C101.823 21.4167 101.689 22 101.589 22.5C101.489 23 101.406 23.6167 101.339 24.35C101.889 22.9167 102.506 21.75 103.189 20.85C103.873 19.95 104.539 19.3083 105.189 18.925C105.856 18.5417 106.464 18.35 107.014 18.35C108.098 18.35 108.639 18.8917 108.639 19.975C108.639 20.625 108.456 21.8 108.089 23.5C107.773 24.95 107.614 25.9083 107.614 26.375C107.614 27.0417 107.856 27.375 108.339 27.375C108.673 27.375 109.064 27.175 109.514 26.775C109.981 26.3583 110.598 25.6917 111.364 24.775C111.564 24.5417 111.789 24.425 112.039 24.425C112.256 24.425 112.423 24.525 112.539 24.725C112.673 24.925 112.739 25.2 112.739 25.55C112.739 26.2167 112.581 26.7333 112.264 27.1C111.548 27.9833 110.773 28.7083 109.939 29.275C109.123 29.8417 108.189 30.125 107.139 30.125C106.289 30.125 105.648 29.8833 105.214 29.4C104.781 28.9 104.564 28.1833 104.564 27.25C104.564 26.7833 104.681 25.95 104.914 24.75C105.131 23.7 105.239 22.975 105.239 22.575C105.239 22.3083 105.148 22.175 104.964 22.175C104.748 22.175 104.439 22.4583 104.039 23.025C103.656 23.575 103.256 24.3083 102.839 25.225C102.439 26.1417 102.114 27.1083 101.864 28.125C101.681 28.9083 101.464 29.4417 101.214 29.725C100.981 29.9917 100.606 30.125 100.089 30.125ZM115.692 30.125C114.058 30.125 112.783 29.6667 111.867 28.75C110.967 27.8167 110.517 26.5917 110.517 25.075C110.517 23.725 110.783 22.5417 111.317 21.525C111.85 20.5083 112.542 19.725 113.392 19.175C114.242 18.625 115.133 18.35 116.067 18.35C116.983 18.35 117.692 18.625 118.192 19.175C118.708 19.7083 118.967 20.4 118.967 21.25C118.967 21.95 118.808 22.5417 118.492 23.025C118.192 23.5083 117.792 23.75 117.292 23.75C116.975 23.75 116.717 23.675 116.517 23.525C116.333 23.375 116.242 23.1667 116.242 22.9C116.242 22.7833 116.258 22.65 116.292 22.5C116.325 22.35 116.35 22.2417 116.367 22.175C116.45 21.925 116.492 21.6917 116.492 21.475C116.492 21.2583 116.433 21.0917 116.317 20.975C116.217 20.8583 116.067 20.8 115.867 20.8C115.483 20.8 115.125 20.975 114.792 21.325C114.458 21.6583 114.192 22.1167 113.992 22.7C113.792 23.2833 113.692 23.925 113.692 24.625C113.692 26.5583 114.533 27.525 116.217 27.525C116.9 27.525 117.633 27.3 118.417 26.85C119.217 26.3833 120 25.6917 120.767 24.775C120.967 24.5417 121.192 24.425 121.442 24.425C121.658 24.425 121.825 24.525 121.942 24.725C122.075 24.925 122.142 25.2 122.142 25.55C122.142 26.1833 121.983 26.7 121.667 27.1C120.883 28.0667 119.942 28.8167 118.842 29.35C117.758 29.8667 116.708 30.125 115.692 30.125ZM129.271 25.175C129.488 25.175 129.654 25.275 129.771 25.475C129.904 25.675 129.971 25.95 129.971 26.3C129.971 26.9 129.829 27.4167 129.546 27.85C129.079 28.5667 128.463 29.125 127.696 29.525C126.946 29.925 126.046 30.125 124.996 30.125C123.396 30.125 122.154 29.65 121.271 28.7C120.388 27.7333 119.946 26.4333 119.946 24.8C119.946 23.65 120.188 22.5833 120.671 21.6C121.154 20.6 121.821 19.8083 122.671 19.225C123.538 18.6417 124.513 18.35 125.596 18.35C126.563 18.35 127.338 18.6417 127.921 19.225C128.504 19.7917 128.796 20.5667 128.796 21.55C128.796 22.7 128.379 23.6917 127.546 24.525C126.729 25.3417 125.329 25.9917 123.346 26.475C123.746 27.2417 124.421 27.625 125.371 27.625C126.054 27.625 126.613 27.4667 127.046 27.15C127.496 26.8333 128.013 26.3 128.596 25.55C128.796 25.3 129.021 25.175 129.271 25.175ZM125.171 20.8C124.554 20.8 124.029 21.1583 123.596 21.875C123.179 22.5917 122.971 23.4583 122.971 24.475V24.525C123.954 24.2917 124.729 23.9417 125.296 23.475C125.863 23.0083 126.146 22.4667 126.146 21.85C126.146 21.5333 126.054 21.2833 125.871 21.1C125.704 20.9 125.471 20.8 125.171 20.8Z" fill="#2B3D51"/>
<defs>
<filter id="filter0_d" x="0.833252" y="0" width="47.1667" height="46.0583" filterUnits="userSpaceOnUse" color-interpolation-filters="sRGB">
<feFlood flood-opacity="0" result="BackgroundImageFix"/>
<feColorMatrix in="SourceAlpha" type="matrix" values="0 0 0 0 0 0 0 0 0 0 0 0 0 0 0 0 0 0 127 0"/>
<feOffset dy="4"/>
<feGaussianBlur stdDeviation="2"/>
<feColorMatrix type="matrix" values="0 0 0 0 0 0 0 0 0 0 0 0 0 0 0 0 0 0 0.14 0"/>
<feBlend mode="normal" in2="BackgroundImageFix" result="effect1_dropShadow"/>
<feBlend mode="normal" in="SourceGraphic" in2="effect1_dropShadow" result="shape"/>
</filter>
<filter id="filter1_d" x="0" y="0" width="46.3333" height="46.0583" filterUnits="userSpaceOnUse" color-interpolation-filters="sRGB">
<feFlood flood-opacity="0" result="BackgroundImageFix"/>
<feColorMatrix in="SourceAlpha" type="matrix" values="0 0 0 0 0 0 0 0 0 0 0 0 0 0 0 0 0 0 127 0"/>
<feOffset dy="4"/>
<feGaussianBlur stdDeviation="2"/>
<feColorMatrix type="matrix" values="0 0 0 0 0 0 0 0 0 0 0 0 0 0 0 0 0 0 0.1 0"/>
<feBlend mode="normal" in2="BackgroundImageFix" result="effect1_dropShadow"/>
<feBlend mode="normal" in="SourceGraphic" in2="effect1_dropShadow" result="shape"/>
</filter>
</defs>
</svg>
