<svg width="224" height="70" viewBox="0 0 224 70" fill="none" xmlns="http://www.w3.org/2000/svg">
<g filter="url(#filter0_d)">
<path fill-rule="evenodd" clip-rule="evenodd" d="M37.177 61.8447C54.7524 61.8447 69 48.0003 69 30.9223C69 13.8444 54.7524 0 37.177 0C19.6017 0 5.35413 13.8444 5.35413 30.9223C5.35413 48.0003 19.6017 61.8447 37.177 61.8447ZM35.3977 11.1196C33.1906 10.4235 30.7921 11.6336 30.0405 13.8224L29.5547 15.2371H26.2279C24.1241 15.2371 22.4186 16.9426 22.4186 19.0464C22.4186 21.1502 24.1241 22.8556 26.2279 22.8556H26.9384L24.6299 29.5779H21.3918C19.4117 29.5779 17.8066 31.183 17.8066 33.1631C17.8066 35.1431 19.4117 36.7483 21.3918 36.7483H22.1675L19.1899 45.4192C18.4382 47.6079 19.6181 49.9465 21.8252 50.6425C24.0323 51.3386 26.4308 50.1285 27.1824 47.9397L31.0257 36.7483H46.0443C48.0243 36.7483 49.6295 35.1431 49.6295 33.1631C49.6295 31.183 48.0243 29.5779 46.0443 29.5779H33.488L35.7965 22.8556L56.8891 22.8556C58.9929 22.8556 60.6983 21.1502 60.6983 19.0464C60.6983 16.9426 58.9929 15.2371 56.8891 15.2371L38.2525 15.2371C38.3598 13.4157 37.2345 11.6988 35.3977 11.1196Z" fill="#FFC857"/>
</g>
<g filter="url(#filter1_d)">
<path fill-rule="evenodd" clip-rule="evenodd" d="M35.1458 61.8447C52.3472 61.8447 66.2917 48.0003 66.2917 30.9223C66.2917 13.8444 52.3472 0 35.1458 0C17.9445 0 4 13.8444 4 30.9223C4 48.0003 17.9445 61.8447 35.1458 61.8447ZM33.4043 11.1196C31.2442 10.4235 28.907 11.6032 28.1839 13.7544L27.6856 15.2371H24.5107C22.4069 15.2371 20.7014 16.9426 20.7014 19.0464C20.7014 21.1502 22.4069 22.8556 24.5107 22.8556H25.125L22.8656 29.5779H19.7727C17.7926 29.5779 16.1875 31.183 16.1875 33.1631C16.1875 35.1431 17.7927 36.7483 19.7727 36.7483H20.4557L17.5185 45.4871C16.7955 47.6383 17.9605 49.9465 20.1206 50.6425C22.2807 51.3386 24.618 50.1589 25.341 48.0077L29.1253 36.7483H43.7481C45.7282 36.7483 47.3333 35.1431 47.3333 33.1631C47.3333 31.183 45.7282 29.5779 43.7481 29.5779H31.5353L33.7946 22.8556L53.4546 22.8556C55.5584 22.8556 57.2639 21.1502 57.2639 19.0464C57.2639 16.9426 55.5584 15.2371 53.4546 15.2371L36.2122 15.2371C36.331 13.4261 35.2187 11.7042 33.4043 11.1196Z" fill="#2B3D51"/>
</g>
<path d="M114.48 15.84C115.227 15.9467 115.733 16.1733 116 16.52C116.293 16.8667 116.44 17.32 116.44 17.88C116.44 19.72 115.453 20.5733 113.48 20.44L112.08 20.32C110.507 20.1867 108.933 20.08 107.36 20C105.813 19.92 104.187 19.88 102.48 19.88H100.68C100.36 23.8267 100.027 27.4267 99.68 30.68L106.56 30.56C107.547 30.56 108.2 30.7333 108.52 31.08C108.867 31.4267 109.04 31.8933 109.04 32.48C109.04 33.3867 108.773 34.1067 108.24 34.64C107.707 35.1467 106.947 35.4 105.96 35.4H99.12L98.88 37.12C98.32 41.52 97.12 44.6533 95.28 46.52C93.4667 48.3867 90.96 49.32 87.76 49.32C85.9467 49.32 84.28 48.9333 82.76 48.16C81.24 47.36 80.12 46.4 79.4 45.28C79.1067 44.8267 78.96 44.28 78.96 43.64C78.96 43 79.1067 42.44 79.4 41.96C79.72 41.48 80.1067 41.24 80.56 41.24C80.88 41.24 81.1867 41.3467 81.48 41.56C81.8 41.7733 82.2 42.1867 82.68 42.8C83.96 44.48 85.5467 45.32 87.44 45.32C88.96 45.32 90.2267 44.7067 91.24 43.48C92.28 42.2267 92.9467 40.2667 93.24 37.6L93.48 35.4H91.56C90.9467 35.4 90.4133 35.2267 89.96 34.88C89.5333 34.5333 89.32 34.04 89.32 33.4C89.32 32.5733 89.5333 31.9467 89.96 31.52C90.3867 31.0667 91.0133 30.84 91.84 30.84C92.5867 30.84 93.32 30.8267 94.04 30.8C94.36 27.8667 94.7067 24.3067 95.08 20.12C92.2 20.3867 90.1733 20.8533 89 21.52C87.8267 22.1867 87.24 23.1733 87.24 24.48C87.24 25.3867 87.5067 26.2533 88.04 27.08C88.2 27.32 88.28 27.56 88.28 27.8C88.28 28.28 88.0133 28.7067 87.48 29.08C86.9467 29.4267 86.3467 29.6 85.68 29.6C84.96 29.6 84.3467 29.3867 83.84 28.96C83.52 28.6933 83.2133 28.1467 82.92 27.32C82.6267 26.4933 82.48 25.5733 82.48 24.56C82.48 21.2533 84.1733 18.8533 87.56 17.36C90.9733 15.8667 95.9467 15.12 102.48 15.12C107.013 15.12 111.013 15.36 114.48 15.84ZM124.877 40.08C125.223 40.08 125.49 40.24 125.677 40.56C125.89 40.88 125.997 41.32 125.997 41.88C125.997 42.9467 125.743 43.7733 125.237 44.36C124.09 45.7733 122.837 46.9333 121.477 47.84C120.143 48.7467 118.623 49.2 116.917 49.2C114.57 49.2 112.823 48.1333 111.677 46C110.557 43.8667 109.997 41.1067 109.997 37.72C109.997 34.4667 110.41 30.76 111.237 26.6C112.09 22.44 113.33 18.8667 114.957 15.88C116.61 12.8933 118.57 11.4 120.837 11.4C122.117 11.4 123.117 12 123.837 13.2C124.583 14.3733 124.957 16.0667 124.957 18.28C124.957 21.4533 124.077 25.1333 122.317 29.32C120.557 33.5067 118.17 37.6533 115.157 41.76C115.343 42.8533 115.65 43.64 116.077 44.12C116.503 44.5733 117.063 44.8 117.757 44.8C118.85 44.8 119.81 44.4933 120.637 43.88C121.463 43.24 122.517 42.16 123.797 40.64C124.117 40.2667 124.477 40.08 124.877 40.08ZM119.957 15.36C119.343 15.36 118.65 16.4667 117.877 18.68C117.103 20.8933 116.423 23.64 115.837 26.92C115.25 30.2 114.93 33.3467 114.877 36.36C116.77 33.24 118.277 30.12 119.397 27C120.517 23.8533 121.077 20.9867 121.077 18.4C121.077 16.3733 120.703 15.36 119.957 15.36ZM127.163 49.2C125.963 49.2 124.977 48.6533 124.203 47.56C123.457 46.44 123.083 45.0533 123.083 43.4C123.083 41.4 123.217 39.5733 123.483 37.92C123.75 36.24 124.19 34.4667 124.803 32.6C125.07 31.8 125.443 31.2267 125.923 30.88C126.403 30.5333 127.163 30.36 128.203 30.36C128.79 30.36 129.19 30.4533 129.403 30.64C129.643 30.8267 129.763 31.1067 129.763 31.48C129.763 31.6933 129.617 32.4133 129.323 33.64C129.057 34.6267 128.843 35.52 128.683 36.32C128.15 39.12 127.883 40.9867 127.883 41.92C127.883 42.48 127.95 42.88 128.083 43.12C128.217 43.3333 128.43 43.44 128.723 43.44C129.123 43.44 129.617 43.04 130.203 42.24C130.817 41.44 131.457 40.2267 132.123 38.6C132.817 36.9733 133.483 34.9733 134.123 32.6C134.337 31.8 134.657 31.2267 135.083 30.88C135.537 30.5333 136.203 30.36 137.083 30.36C137.697 30.36 138.123 30.44 138.363 30.6C138.603 30.7333 138.723 31 138.723 31.4C138.723 32.0667 138.39 33.8933 137.723 36.88C136.977 40.2933 136.603 42.4 136.603 43.2C136.603 43.7067 136.71 44.1067 136.923 44.4C137.137 44.6667 137.417 44.8 137.763 44.8C138.297 44.8 138.923 44.48 139.643 43.84C140.39 43.1733 141.377 42.1067 142.603 40.64C142.923 40.2667 143.283 40.08 143.683 40.08C144.03 40.08 144.297 40.24 144.483 40.56C144.697 40.88 144.803 41.32 144.803 41.88C144.803 42.9467 144.55 43.7733 144.043 44.36C142.897 45.7733 141.657 46.9333 140.323 47.84C139.017 48.7467 137.523 49.2 135.843 49.2C134.563 49.2 133.617 48.7067 133.003 47.72C132.417 46.7333 132.123 45.3467 132.123 43.56C131.67 45.3733 130.99 46.7733 130.083 47.76C129.177 48.72 128.203 49.2 127.163 49.2ZM159.72 40.08C160.067 40.08 160.333 40.24 160.52 40.56C160.733 40.88 160.84 41.32 160.84 41.88C160.84 42.9467 160.587 43.7733 160.08 44.36C159.093 45.56 157.693 46.6667 155.88 47.68C154.093 48.6933 152.173 49.2 150.12 49.2C147.32 49.2 145.147 48.44 143.6 46.92C142.053 45.4 141.28 43.32 141.28 40.68C141.28 38.84 141.667 37.1333 142.44 35.56C143.213 33.96 144.28 32.6933 145.64 31.76C147.027 30.8267 148.587 30.36 150.32 30.36C151.867 30.36 153.107 30.8267 154.04 31.76C154.973 32.6667 155.44 33.9067 155.44 35.48C155.44 37.32 154.773 38.9067 153.44 40.24C152.133 41.5467 149.907 42.5867 146.76 43.36C147.427 44.5867 148.693 45.2 150.56 45.2C151.76 45.2 153.12 44.7867 154.64 43.96C156.187 43.1067 157.52 42 158.64 40.64C158.96 40.2667 159.32 40.08 159.72 40.08ZM149.64 34.28C148.653 34.28 147.813 34.8533 147.12 36C146.453 37.1467 146.12 38.5333 146.12 40.16V40.24C147.693 39.8667 148.933 39.3067 149.84 38.56C150.747 37.8133 151.2 36.9467 151.2 35.96C151.2 35.4533 151.053 35.0533 150.76 34.76C150.493 34.44 150.12 34.28 149.64 34.28ZM160.743 49.2C159.73 49.2 159.01 48.6667 158.583 47.6C158.183 46.5333 157.983 44.8267 157.983 42.48C157.983 39.0133 158.476 35.72 159.463 32.6C159.703 31.8267 160.09 31.2667 160.623 30.92C161.183 30.5467 161.956 30.36 162.943 30.36C163.476 30.36 163.85 30.4267 164.063 30.56C164.276 30.6933 164.383 30.9467 164.383 31.32C164.383 31.7467 164.183 32.7067 163.783 34.2C163.516 35.2667 163.303 36.2 163.143 37C162.983 37.8 162.85 38.7867 162.743 39.96C163.623 37.6667 164.61 35.8 165.703 34.36C166.796 32.92 167.863 31.8933 168.903 31.28C169.97 30.6667 170.943 30.36 171.823 30.36C173.556 30.36 174.423 31.2267 174.423 32.96C174.423 34 174.13 35.88 173.543 38.6C173.036 40.92 172.783 42.4533 172.783 43.2C172.783 44.2667 173.17 44.8 173.943 44.8C174.476 44.8 175.103 44.48 175.823 43.84C176.57 43.1733 177.556 42.1067 178.783 40.64C179.103 40.2667 179.463 40.08 179.863 40.08C180.21 40.08 180.476 40.24 180.663 40.56C180.876 40.88 180.983 41.32 180.983 41.88C180.983 42.9467 180.73 43.7733 180.223 44.36C179.076 45.7733 177.836 46.9333 176.503 47.84C175.196 48.7467 173.703 49.2 172.023 49.2C170.663 49.2 169.636 48.8133 168.943 48.04C168.25 47.24 167.903 46.0933 167.903 44.6C167.903 43.8533 168.09 42.52 168.463 40.6C168.81 38.92 168.983 37.76 168.983 37.12C168.983 36.6933 168.836 36.48 168.543 36.48C168.196 36.48 167.703 36.9333 167.063 37.84C166.45 38.72 165.81 39.8933 165.143 41.36C164.503 42.8267 163.983 44.3733 163.583 46C163.29 47.2533 162.943 48.1067 162.543 48.56C162.17 48.9867 161.57 49.2 160.743 49.2ZM185.707 49.2C183.094 49.2 181.054 48.4667 179.587 47C178.147 45.5067 177.427 43.5467 177.427 41.12C177.427 38.96 177.854 37.0667 178.707 35.44C179.56 33.8133 180.667 32.56 182.027 31.68C183.387 30.8 184.814 30.36 186.307 30.36C187.774 30.36 188.907 30.8 189.707 31.68C190.534 32.5333 190.947 33.64 190.947 35C190.947 36.12 190.694 37.0667 190.187 37.84C189.707 38.6133 189.067 39 188.267 39C187.76 39 187.347 38.88 187.027 38.64C186.734 38.4 186.587 38.0667 186.587 37.64C186.587 37.4533 186.614 37.24 186.667 37C186.72 36.76 186.76 36.5867 186.787 36.48C186.92 36.08 186.987 35.7067 186.987 35.36C186.987 35.0133 186.894 34.7467 186.707 34.56C186.547 34.3733 186.307 34.28 185.987 34.28C185.374 34.28 184.8 34.56 184.267 35.12C183.734 35.6533 183.307 36.3867 182.987 37.32C182.667 38.2533 182.507 39.28 182.507 40.4C182.507 43.4933 183.854 45.04 186.547 45.04C187.64 45.04 188.814 44.68 190.067 43.96C191.347 43.2133 192.6 42.1067 193.827 40.64C194.147 40.2667 194.507 40.08 194.907 40.08C195.254 40.08 195.52 40.24 195.707 40.56C195.92 40.88 196.027 41.32 196.027 41.88C196.027 42.8933 195.774 43.72 195.267 44.36C194.014 45.9067 192.507 47.1067 190.747 47.96C189.014 48.7867 187.334 49.2 185.707 49.2ZM207.433 41.28C207.78 41.28 208.047 41.44 208.233 41.76C208.447 42.08 208.553 42.52 208.553 43.08C208.553 44.04 208.327 44.8667 207.873 45.56C207.127 46.7067 206.14 47.6 204.913 48.24C203.713 48.88 202.273 49.2 200.593 49.2C198.033 49.2 196.047 48.44 194.633 46.92C193.22 45.3733 192.513 43.2933 192.513 40.68C192.513 38.84 192.9 37.1333 193.673 35.56C194.447 33.96 195.513 32.6933 196.873 31.76C198.26 30.8267 199.82 30.36 201.553 30.36C203.1 30.36 204.34 30.8267 205.273 31.76C206.207 32.6667 206.673 33.9067 206.673 35.48C206.673 37.32 206.007 38.9067 204.673 40.24C203.367 41.5467 201.127 42.5867 197.953 43.36C198.593 44.5867 199.673 45.2 201.193 45.2C202.287 45.2 203.18 44.9467 203.873 44.44C204.593 43.9333 205.42 43.08 206.353 41.88C206.673 41.48 207.033 41.28 207.433 41.28ZM200.873 34.28C199.887 34.28 199.047 34.8533 198.353 36C197.687 37.1467 197.353 38.5333 197.353 40.16V40.24C198.927 39.8667 200.167 39.3067 201.073 38.56C201.98 37.8133 202.433 36.9467 202.433 35.96C202.433 35.4533 202.287 35.0533 201.993 34.76C201.727 34.44 201.353 34.28 200.873 34.28Z" fill="#2B3D51"/>
<defs>
<filter id="filter0_d" x="1.35413" y="0" width="71.6458" height="69.8447" filterUnits="userSpaceOnUse" color-interpolation-filters="sRGB">
<feFlood flood-opacity="0" result="BackgroundImageFix"/>
<feColorMatrix in="SourceAlpha" type="matrix" values="0 0 0 0 0 0 0 0 0 0 0 0 0 0 0 0 0 0 127 0"/>
<feOffset dy="4"/>
<feGaussianBlur stdDeviation="2"/>
<feColorMatrix type="matrix" values="0 0 0 0 0 0 0 0 0 0 0 0 0 0 0 0 0 0 0.25 0"/>
<feBlend mode="normal" in2="BackgroundImageFix" result="effect1_dropShadow"/>
<feBlend mode="normal" in="SourceGraphic" in2="effect1_dropShadow" result="shape"/>
</filter>
<filter id="filter1_d" x="0" y="0" width="70.2917" height="69.8447" filterUnits="userSpaceOnUse" color-interpolation-filters="sRGB">
<feFlood flood-opacity="0" result="BackgroundImageFix"/>
<feColorMatrix in="SourceAlpha" type="matrix" values="0 0 0 0 0 0 0 0 0 0 0 0 0 0 0 0 0 0 127 0"/>
<feOffset dy="4"/>
<feGaussianBlur stdDeviation="2"/>
<feColorMatrix type="matrix" values="0 0 0 0 0 0 0 0 0 0 0 0 0 0 0 0 0 0 0.25 0"/>
<feBlend mode="normal" in2="BackgroundImageFix" result="effect1_dropShadow"/>
<feBlend mode="normal" in="SourceGraphic" in2="effect1_dropShadow" result="shape"/>
</filter>
</defs>
</svg>
