<svg width="400" height="300" viewBox="0 0 400 300" fill="none" xmlns="http://www.w3.org/2000/svg">
<path d="M359.92 274.92H333.424V275.12H359.92V274.92Z" fill="#EBEBEB"/>
<path d="M264.976 277.096H258.024V277.296H264.976V277.096Z" fill="#EBEBEB"/>
<path d="M332.624 267.496H317.272V267.696H332.624V267.496Z" fill="#EBEBEB"/>
<path d="M76.5198 268.84H41.9678V269.04H76.5198V268.84Z" fill="#EBEBEB"/>
<path d="M88.712 268.84H83.6479V269.04H88.712V268.84Z" fill="#EBEBEB"/>
<path d="M180.12 272.216H105.176V272.416H180.12V272.216Z" fill="#EBEBEB"/>
<path d="M189.6 226.368H35.1279C33.9177 226.366 32.7579 225.884 31.903 225.027C31.048 224.171 30.5679 223.01 30.5679 221.8V4.65593C30.5784 3.45275 31.0632 2.30231 31.917 1.4545C32.7708 0.606696 33.9246 0.129991 35.1279 0.12793H189.6C190.811 0.12793 191.973 0.6092 192.83 1.46587C193.687 2.32253 194.168 3.48442 194.168 4.69593V221.8C194.168 223.011 193.687 224.173 192.83 225.03C191.973 225.887 190.811 226.368 189.6 226.368ZM35.1279 0.28793C33.9708 0.290049 32.8618 0.751182 32.0444 1.57011C31.227 2.38904 30.7679 3.49885 30.7679 4.65593V221.8C30.7679 222.957 31.227 224.067 32.0444 224.886C32.8618 225.705 33.9708 226.166 35.1279 226.168H189.6C190.758 226.166 191.867 225.705 192.686 224.886C193.505 224.068 193.966 222.958 193.968 221.8V4.65593C193.966 3.49811 193.505 2.38832 192.686 1.56962C191.867 0.750922 190.758 0.290045 189.6 0.28793H35.1279Z" fill="#EBEBEB"/>
<path d="M362.648 226.272H208.168C206.959 226.27 205.799 225.789 204.943 224.935C204.087 224.08 203.604 222.921 203.6 221.712V4.56C203.604 3.35053 204.087 2.19192 204.943 1.33744C205.799 0.482958 206.959 0.00210709 208.168 0H362.648C363.858 -1.85578e-06 365.019 0.480171 365.875 1.33511C366.732 2.19004 367.214 3.34988 367.216 4.56V221.728C367.21 222.935 366.726 224.091 365.87 224.943C365.014 225.794 363.855 226.272 362.648 226.272ZM208.168 0.2C207.011 0.199998 205.901 0.659099 205.082 1.47653C204.263 2.29396 203.802 3.40292 203.8 4.56V221.728C203.802 222.885 204.263 223.994 205.082 224.811C205.901 225.629 207.011 226.088 208.168 226.088H362.648C363.805 226.088 364.915 225.629 365.734 224.811C366.553 223.994 367.014 222.885 367.016 221.728V4.56C367.014 3.40292 366.553 2.29396 365.734 1.47653C364.915 0.659099 363.805 0.199998 362.648 0.2H208.168Z" fill="#EBEBEB"/>
<path d="M400 262.048H0V262.248H400V262.048Z" fill="#EBEBEB"/>
<path d="M308.272 230.304V20.5439H304.152V230.304H308.272Z" fill="#E8E8E8"/>
<path d="M300.44 217.192L301.56 214.04H309.744L311.992 217.192H300.44Z" fill="#E8E8E8"/>
<path d="M291.28 227.384L293.296 229.648L304.08 241.688H304.088H304.904H304.976H307.456H307.528H308.352L307.56 240.8L307.456 240.68L306.216 239.296L304.976 237.92L304.768 237.688L304.088 236.92L295.16 226.944L293.2 224.76H292.944L291.28 227.384Z" fill="#E8E8E8"/>
<path d="M321.144 227.384L319.192 229.568L308.352 241.688H304.08L304.088 241.68L304.872 240.792L304.976 240.68L306.216 239.296L307.456 237.92L307.664 237.68L308.352 236.912L317.328 226.888L319.232 224.76H319.48L321.144 227.384Z" fill="#E8E8E8"/>
<path d="M340.672 257.312H338.96L319.76 229.648L317.888 226.96L311.104 217.192L308.92 214.04H311.952C312.33 214.039 312.702 214.134 313.034 214.316C313.365 214.498 313.645 214.761 313.848 215.08L320 224.832L321.664 227.464L340.672 257.312Z" fill="#E8E8E8"/>
<path d="M272 257.312L298.84 215.08C299.044 214.762 299.324 214.5 299.655 214.318C299.987 214.136 300.358 214.041 300.736 214.04H303.776L274.032 257.312H272Z" fill="#E8E8E8"/>
<path d="M95.104 230.304L95.104 20.5439H90.984L90.984 230.304H95.104Z" fill="#E8E8E8"/>
<path d="M87.4639 217.032L88.5839 213.88H96.7679L99.0159 217.032H87.4639Z" fill="#E8E8E8"/>
<path d="M78.3042 227.304L80.3202 229.56L91.1042 241.608H91.9282H92.0002H94.4802H94.5522H95.3762L94.5842 240.72L94.4802 240.6L93.2402 239.216L92.0002 237.832L91.7842 237.6L91.1042 236.84L82.1842 226.864L80.2242 224.68H79.9682L78.3042 227.304Z" fill="#E8E8E8"/>
<path d="M108.168 227.304L106.216 229.488L95.376 241.608H91.104V241.6L91.896 240.712L92 240.6L93.24 239.216L94.48 237.832L94.688 237.6L95.376 236.832L104.352 226.8L106.256 224.68H106.504L108.168 227.304Z" fill="#E8E8E8"/>
<path d="M127.144 257.152H125.44L106.24 229.488L104.376 226.8L97.6 217.032L95.416 213.88H98.4C98.7783 213.878 99.1507 213.973 99.4824 214.155C99.814 214.337 100.094 214.6 100.296 214.92L106.496 224.672L108.16 227.304L127.144 257.152Z" fill="#E8E8E8"/>
<path d="M59.3281 257.152L86.1681 214.92C86.3718 214.602 86.6521 214.34 86.9834 214.158C87.3147 213.976 87.6863 213.881 88.0641 213.88H91.1041L61.3601 257.152H59.3281Z" fill="#E8E8E8"/>
<path d="M292.568 27.2158H106.056V218.216H292.568V27.2158Z" fill="#FAFAFA"/>
<path d="M305.552 22.4561H93.7119V26.576H305.552V22.4561Z" fill="#E8E8E8"/>
<path d="M293.744 20.5361H104.296L104.904 30.6961H294.352L293.744 20.5361Z" fill="#F0F0F0"/>
<path d="M200.001 299.335C285.667 299.335 355.113 295.281 355.113 290.279C355.113 285.278 285.667 281.223 200.001 281.223C114.335 281.223 44.8887 285.278 44.8887 290.279C44.8887 295.281 114.335 299.335 200.001 299.335Z" fill="#F5F5F5"/>
<path d="M227.136 149.471C223.576 161.399 228.88 174.359 226.616 186.591C226.238 189.138 225.277 191.564 223.808 193.679C220.888 197.591 176.112 197.471 173.192 193.559C171.725 191.443 170.764 189.018 170.384 186.471C168.12 174.231 173.424 161.271 169.864 149.351C169.205 147.597 168.72 145.783 168.416 143.935C167.984 139.423 170.816 135.271 174.016 132.055C177.216 128.839 180.928 125.983 183.024 121.975C184.016 120.087 184.624 117.975 185.576 116.111C186.562 114.196 187.922 112.499 189.576 111.119C191.935 109.183 194.892 108.126 197.944 108.127H198.024L199.008 108.175H199.36C202.033 108.249 204.619 109.143 206.768 110.735C208.713 112.205 210.301 114.095 211.416 116.263C212.384 118.151 213.016 120.263 213.968 122.119C216.064 126.119 219.792 128.983 222.976 132.199C226.16 135.415 229.016 139.575 228.576 144.087C228.268 145.923 227.786 147.726 227.136 149.471Z" fill="#56708E"/>
<path opacity="0.7" d="M227.136 149.471C223.576 161.399 228.88 174.359 226.616 186.591C226.238 189.138 225.277 191.564 223.808 193.679C220.888 197.591 176.112 197.471 173.192 193.559C171.725 191.443 170.764 189.018 170.384 186.471C168.12 174.231 173.424 161.271 169.864 149.351C169.205 147.597 168.72 145.783 168.416 143.935C167.984 139.423 170.816 135.271 174.016 132.055C177.216 128.839 180.928 125.983 183.024 121.975C184.016 120.087 184.624 117.975 185.576 116.111C186.562 114.196 187.922 112.499 189.576 111.119C191.935 109.183 194.892 108.126 197.944 108.127H198.024L199.008 108.175H199.36C202.033 108.249 204.619 109.143 206.768 110.735C208.713 112.205 210.301 114.095 211.416 116.263C212.384 118.151 213.016 120.263 213.968 122.119C216.064 126.119 219.792 128.983 222.976 132.199C226.16 135.415 229.016 139.575 228.576 144.087C228.268 145.923 227.786 147.726 227.136 149.471Z" fill="white"/>
<path d="M197.52 108.087L197.432 108.095V108.087H197.52Z" fill="#56708E"/>
<path opacity="0.4" d="M215.872 196.183C213.976 194.279 183.072 194.279 181.168 196.183C179.264 198.087 182.264 183.383 181.168 157.311C180.072 131.239 188.592 126.599 188.592 126.599H208.456C208.456 126.599 216.952 131.239 215.872 157.311C214.792 183.383 217.768 198.079 215.872 196.183Z" fill="black"/>
<path d="M190.104 130.007C189.248 131.143 188.264 132.815 188.688 134.095H196.368L197.432 126.599H191.544V126.791C191.335 127.964 190.84 129.069 190.104 130.007Z" fill="white"/>
<path d="M208.056 130.007C208.912 131.143 209.904 132.815 209.472 134.095H201.728L200.728 126.599H206.616V126.791C206.825 127.964 207.32 129.069 208.056 130.007Z" fill="white"/>
<path d="M215.848 118.527C215.472 120.583 214.976 124.207 215.512 127.095C215.976 129.543 210.016 129.495 204.824 129.015C200.633 128.623 196.415 128.623 192.224 129.015C187.04 129.503 181.064 129.543 181.528 127.095C182.072 124.207 181.576 120.583 181.2 118.527C181.165 118.331 181.173 118.13 181.224 117.938C181.275 117.746 181.367 117.568 181.495 117.415C181.622 117.263 181.781 117.14 181.961 117.055C182.141 116.971 182.337 116.927 182.536 116.927H214.536C214.733 116.931 214.926 116.977 215.103 117.063C215.28 117.149 215.436 117.272 215.561 117.424C215.686 117.576 215.776 117.754 215.826 117.944C215.875 118.134 215.883 118.333 215.848 118.527Z" fill="#56708E"/>
<path opacity="0.5" d="M215.848 118.527C215.472 120.583 214.976 124.207 215.512 127.095C215.976 129.543 210.016 129.495 204.824 129.015C200.633 128.623 196.415 128.623 192.224 129.015C187.04 129.503 181.064 129.543 181.528 127.095C182.072 124.207 181.576 120.583 181.2 118.527C181.165 118.331 181.173 118.13 181.224 117.938C181.275 117.746 181.367 117.568 181.495 117.415C181.622 117.263 181.781 117.14 181.961 117.055C182.141 116.971 182.337 116.927 182.536 116.927H214.536C214.733 116.931 214.926 116.977 215.103 117.063C215.28 117.149 215.436 117.272 215.561 117.424C215.686 117.576 215.776 117.754 215.826 117.944C215.875 118.134 215.883 118.333 215.848 118.527Z" fill="white"/>
<path d="M189.808 118.975C189.519 119.278 189.317 119.654 189.224 120.063C189.18 120.268 189.203 120.482 189.291 120.672C189.379 120.863 189.527 121.019 189.712 121.119C189.923 121.179 190.146 121.18 190.358 121.122C190.569 121.065 190.761 120.95 190.912 120.791C192.016 119.863 192.336 118.311 192.584 116.887C192.584 116.887 191.288 117.567 191.184 117.687C190.679 118.065 190.218 118.496 189.808 118.975Z" fill="#263238"/>
<path d="M209.064 144.727C199.6 143.623 192.96 143.871 183.464 144.983H183.32C182.722 145.084 182.15 145.301 181.636 145.623C181.123 145.945 180.678 146.365 180.326 146.859C179.975 147.353 179.724 147.911 179.589 148.502C179.453 149.093 179.435 149.705 179.536 150.303C182.218 166.578 183.465 183.057 183.264 199.551L217.592 198.911C217.832 182.823 219.192 158.327 218.008 150.839C219.696 146.887 212.376 145.287 209.064 144.727Z" fill="#56708E"/>
<path opacity="0.4" d="M209.064 144.727C199.6 143.623 192.96 143.871 183.464 144.983H183.32C182.722 145.084 182.15 145.301 181.636 145.623C181.123 145.945 180.678 146.365 180.326 146.859C179.975 147.353 179.724 147.911 179.589 148.502C179.453 149.093 179.435 149.705 179.536 150.303C182.218 166.578 183.465 183.057 183.264 199.551L217.592 198.911C217.832 182.823 219.192 158.327 218.008 150.839C219.696 146.887 212.376 145.287 209.064 144.727Z" fill="black"/>
<path d="M208 148.719C208 151.543 209.016 153.831 210.264 153.831C211.512 153.831 212.52 151.543 212.52 148.719C212.52 145.895 211.512 143.615 210.264 143.615C209.016 143.615 208 145.903 208 148.719Z" fill="#263238"/>
<path d="M187.536 146.239C187.448 146.039 185.592 141.215 188.24 137.503C190.256 134.663 194.272 133.359 200.16 133.615C204.88 133.831 208.088 135.087 209.688 137.367C211.608 140.095 210.608 143.327 210.232 144.567L210.192 144.711L208.32 144.127L208.368 143.975C208.696 142.919 209.456 140.439 208.096 138.495C206.856 136.743 204.16 135.759 200.096 135.583C194.912 135.351 191.464 136.383 189.848 138.647C187.816 141.503 189.36 145.487 189.376 145.527L187.536 146.239Z" fill="#263238"/>
<path d="M205.472 148.719C205.472 152.407 206.792 155.391 208.424 155.391C210.056 155.391 211.376 152.407 211.376 148.719C211.376 145.031 210.056 142.055 208.424 142.055C206.792 142.055 205.472 145.039 205.472 148.719Z" fill="#263238"/>
<path d="M193.208 148.719C193.208 152.407 191.888 155.391 190.256 155.391C188.624 155.391 187.312 152.407 187.312 148.719C187.312 145.031 188.632 142.055 190.256 142.055C191.88 142.055 193.208 145.039 193.208 148.719Z" fill="#263238"/>
<path d="M193.208 148.719C193.208 152.407 191.888 155.391 190.256 155.391C188.624 155.391 187.312 152.407 187.312 148.719C187.312 145.031 188.632 142.055 190.256 142.055C191.88 142.055 193.208 145.039 193.208 148.719Z" fill="#263238"/>
<path d="M190.72 148.719C190.72 151.543 189.704 153.831 188.456 153.831C187.208 153.831 186.192 151.543 186.192 148.719C186.192 145.895 187.208 143.615 188.456 143.615C189.704 143.615 190.72 145.903 190.72 148.719Z" fill="#263238"/>
<path d="M190.72 148.719C190.72 151.543 189.704 153.831 188.456 153.831C187.208 153.831 186.192 151.543 186.192 148.719C186.192 145.895 187.208 143.615 188.456 143.615C189.704 143.615 190.72 145.903 190.72 148.719Z" fill="#263238"/>
<g opacity="0.5">
<path opacity="0.5" d="M190.719 148.716C190.719 151.54 189.703 153.828 188.455 153.828C187.207 153.828 186.191 151.54 186.191 148.716C186.191 145.892 187.207 143.612 188.455 143.612C189.703 143.612 190.719 145.9 190.719 148.716Z" fill="white"/>
<path opacity="0.5" d="M190.719 148.716C190.719 151.54 189.703 153.828 188.455 153.828C187.207 153.828 186.191 151.54 186.191 148.716C186.191 145.892 187.207 143.612 188.455 143.612C189.703 143.612 190.719 145.9 190.719 148.716Z" fill="white"/>
</g>
<path d="M208 148.719C208 151.543 209.016 153.831 210.264 153.831C211.512 153.831 212.52 151.543 212.52 148.719C212.52 145.895 211.512 143.615 210.264 143.615C209.016 143.615 208 145.903 208 148.719Z" fill="#263238"/>
<path opacity="0.5" d="M208 148.719C208 151.543 209.016 153.831 210.264 153.831C211.512 153.831 212.52 151.543 212.52 148.719C212.52 145.895 211.512 143.615 210.264 143.615C209.016 143.615 208 145.903 208 148.719Z" fill="white"/>
<path d="M192.52 144.303C192.2 144.727 195.832 150.055 202.272 150.055C206.656 150.055 204.872 144.367 204.872 144.367C201.672 143.143 201.192 140.895 201.448 138.263C201.513 137.525 201.63 136.792 201.8 136.071L196.352 131.551L192.352 128.215C193.4 132.727 195.056 140.671 192.52 144.303Z" fill="#F9BBB2"/>
<path opacity="0.2" d="M196.48 133.183C196.43 133.877 196.457 134.575 196.56 135.263C196.816 137.335 199.52 139.487 201.552 139.895C201.621 139.158 201.738 138.425 201.904 137.703L196.48 133.183Z" fill="black"/>
<path d="M190.944 118.527C191.597 116.343 193.091 114.508 195.097 113.425C197.102 112.342 199.456 112.1 201.64 112.751C208.352 114.559 210.704 123.999 210.208 129.943C210.107 131.488 209.585 132.977 208.699 134.247C207.814 135.518 206.597 136.522 205.182 137.151C203.767 137.78 202.207 138.011 200.671 137.818C199.134 137.624 197.679 137.015 196.464 136.055C192.696 133.143 192.208 129.343 190.824 122.967C190.475 121.502 190.517 119.971 190.944 118.527Z" fill="#F9BBB2"/>
<path d="M205.48 129.727C205.535 129.824 205.62 129.902 205.722 129.948C205.824 129.994 205.938 130.006 206.048 129.983C206.137 129.939 206.21 129.87 206.26 129.785C206.31 129.7 206.334 129.602 206.328 129.503C206.344 129.277 206.285 129.052 206.16 128.863C206.072 128.743 205.928 128.631 205.792 128.671C205.464 128.767 205.328 129.463 205.48 129.727Z" fill="#263238"/>
<path d="M190.68 125.143C192.344 124.727 194.128 126.639 194.84 128.095C195.64 129.695 195.096 131.367 193.288 131.047C191.893 130.774 190.645 130.004 189.776 128.879C188.712 127.447 189.016 125.559 190.68 125.143Z" fill="#F9BBB2"/>
<path d="M201.432 122.255C201.784 122.167 202.136 122.559 202.232 123.055C202.328 123.551 202.088 124.039 201.752 124.079C201.416 124.119 201.064 123.727 200.952 123.199C200.84 122.671 201.08 122.335 201.432 122.255Z" fill="#263238"/>
<path d="M207.88 121.303C208.192 121.303 208.504 121.615 208.576 122.103C208.648 122.591 208.448 122.943 208.144 123.015C207.84 123.087 207.528 122.743 207.456 122.271C207.384 121.799 207.568 121.343 207.88 121.303Z" fill="#263238"/>
<path d="M206.256 127.327C206.626 127.406 207.009 127.402 207.377 127.315C207.745 127.228 208.089 127.06 208.384 126.823C207.385 125.697 206.545 124.44 205.888 123.087L206.256 127.327Z" fill="#ED847E"/>
<path d="M200.2 121.799C200.372 121.454 200.624 121.155 200.936 120.928C201.248 120.701 201.61 120.552 201.992 120.495C202.036 120.498 202.081 120.491 202.123 120.475C202.164 120.459 202.202 120.434 202.234 120.403C202.265 120.371 202.289 120.333 202.304 120.291C202.32 120.249 202.326 120.204 202.322 120.159C202.319 120.115 202.306 120.072 202.284 120.032C202.263 119.993 202.233 119.959 202.197 119.933C202.161 119.906 202.12 119.888 202.076 119.878C202.032 119.869 201.987 119.869 201.944 119.879C201.46 119.938 200.999 120.114 200.6 120.393C200.201 120.672 199.877 121.045 199.656 121.479C199.615 121.548 199.602 121.63 199.622 121.708C199.641 121.786 199.691 121.853 199.76 121.895C199.807 121.91 199.857 121.91 199.904 121.895C199.957 121.906 200.013 121.903 200.065 121.887C200.116 121.87 200.163 121.839 200.2 121.799Z" fill="#263238"/>
<path d="M209.048 120.599C209.077 120.57 209.099 120.537 209.115 120.5C209.13 120.463 209.138 120.423 209.138 120.383C209.138 120.343 209.13 120.303 209.115 120.266C209.099 120.229 209.077 120.195 209.048 120.167C208.692 119.817 208.26 119.555 207.784 119.402C207.309 119.249 206.805 119.21 206.312 119.287C206.272 119.295 206.235 119.311 206.202 119.335C206.168 119.358 206.14 119.388 206.119 119.422C206.097 119.456 206.082 119.494 206.076 119.534C206.069 119.574 206.071 119.615 206.08 119.655C206.099 119.734 206.148 119.803 206.216 119.848C206.285 119.892 206.368 119.909 206.448 119.895C206.845 119.838 207.25 119.874 207.63 120C208.01 120.126 208.356 120.34 208.64 120.623C208.678 120.656 208.723 120.68 208.772 120.692C208.82 120.705 208.871 120.705 208.92 120.695C208.97 120.674 209.014 120.641 209.048 120.599Z" fill="#263238"/>
<path d="M196.472 118.479C196.471 118.381 196.448 118.285 196.405 118.198C196.362 118.111 196.299 118.034 196.222 117.974C196.145 117.914 196.056 117.872 195.961 117.852C195.865 117.831 195.767 117.832 195.672 117.855L191.4 118.095C190.853 118.13 190.328 118.318 189.884 118.638C189.439 118.957 189.094 119.396 188.888 119.903C186.672 125.271 188.144 129.231 189.104 130.695C195.504 140.383 194.584 132.951 193.744 131.151C191.976 130.735 190.912 130.071 190.48 128.535C190.208 127.535 190.152 126.135 190.92 125.471C191.233 125.209 191.612 125.039 192.015 124.978C192.419 124.917 192.831 124.969 193.208 125.127C193.112 127.231 194.008 128.599 195.288 130.415C195.288 130.415 193.768 124.143 195.464 123.335C196.44 122.863 196.464 120.031 196.472 118.479Z" fill="#263238"/>
<path d="M191.672 113.327C191.066 113.903 190.59 114.602 190.279 115.378C189.967 116.154 189.825 116.987 189.864 117.823C189.87 118.009 189.94 118.187 190.064 118.327C190.213 118.439 190.397 118.496 190.584 118.487C193.808 118.695 197.043 118.671 200.264 118.415L198.112 117.031C199.607 117.793 201.238 118.252 202.912 118.383C204.432 118.511 206.112 118.383 207.36 119.183C208.608 119.983 209.24 121.583 209.76 123.023C210.589 121.303 211.047 119.427 211.104 117.519C211.144 115.601 210.494 113.733 209.272 112.255C207.689 110.675 205.577 109.74 203.344 109.631C193.688 108.687 191.672 113.327 191.672 113.327Z" fill="#263238"/>
<path d="M176.2 150.247C175.592 151.959 173.856 161.447 185.224 174.815C186.16 175.911 190.096 178.063 193.648 174.415C197.928 170.007 198.96 150.807 199.368 148.287C199.776 145.767 200.216 142.935 200.608 140.503C196.36 140.991 196.952 138.831 196.016 137.543C195.064 138.751 190.704 161.255 188.112 165.631C188.192 162.719 184.184 145.111 182.096 145.407C180.745 145.542 179.465 146.074 178.416 146.935C177.367 147.796 176.596 148.949 176.2 150.247Z" fill="#56708E"/>
<path d="M189.216 163.127C189.52 162.279 189.768 161.351 190.144 160.047L187.048 158.199C186.948 158.159 186.838 158.15 186.732 158.173C186.627 158.196 186.531 158.249 186.456 158.327L184.8 160.031C184.421 160.396 184.157 160.863 184.037 161.376C183.918 161.888 183.95 162.424 184.128 162.919C184.282 163.321 184.531 163.678 184.855 163.962C185.178 164.245 185.566 164.446 185.984 164.546C186.403 164.646 186.839 164.643 187.256 164.536C187.672 164.43 188.057 164.223 188.376 163.935L189.256 163.135L189.216 163.127Z" fill="#F9BBB2"/>
<path d="M213.144 151.263C212.952 151.919 210.112 168.863 210.216 168.511C209.512 169.311 208.736 168.911 208.224 168.759C204.264 167.575 199.256 163.751 195.296 162.567C194.752 162.407 194.072 162.271 193.696 162.679C193.489 162.945 193.371 163.27 193.36 163.607C193.216 164.687 192.624 166.807 192.48 167.863C192.422 168.108 192.441 168.365 192.536 168.599C192.656 168.776 192.822 168.917 193.016 169.007C197.912 171.831 199.832 173.279 204.72 176.111C206.848 177.335 213.96 180.719 216.376 178.447C218.928 176.047 225.688 150.975 216.264 146.887C215.256 146.455 214.768 145.727 213.144 151.263Z" fill="#56708E"/>
<path d="M207.736 136.127C207.696 136.279 207.664 136.431 207.64 136.575C207.505 137.202 207.153 137.761 206.647 138.154C206.141 138.548 205.512 138.75 204.872 138.727H204.552C204.328 138.775 202.328 139.751 200.776 140.503C200.025 140.882 199.164 140.984 198.345 140.793C197.526 140.601 196.801 140.127 196.296 139.455C196.045 138.886 195.933 138.267 195.968 137.647C195.968 137.527 198.44 135.071 199.968 133.511C200.302 133.177 200.707 132.921 201.152 132.762C201.598 132.603 202.073 132.544 202.544 132.591C203.344 132.671 204.896 132.695 205.848 132.791C207.512 132.927 208.072 134.527 207.736 136.127Z" fill="#E6A8A1"/>
<path d="M240.656 102.079C240.832 100.015 239.144 98.7109 236.408 98.7109C235.171 98.688 233.947 98.958 232.834 99.4989C231.722 100.04 230.754 100.836 230.008 101.823C227.336 100.175 227.352 96.0869 230.184 94.7429C232.502 93.6859 235.028 93.1611 237.576 93.2069C243.88 93.2069 247.976 96.0229 247.576 100.983C246.984 107.711 239.856 108.471 239.464 112.927H233.112C233.664 107.039 240.336 105.727 240.656 102.079ZM231.72 119.679C231.833 118.617 232.347 117.638 233.157 116.942C233.968 116.246 235.013 115.886 236.08 115.935C238.432 115.935 239.976 117.535 239.792 119.679C239.674 120.749 239.159 121.735 238.349 122.443C237.538 123.151 236.492 123.529 235.416 123.503C234.908 123.537 234.399 123.46 233.925 123.277C233.451 123.094 233.022 122.808 232.67 122.442C232.317 122.075 232.05 121.635 231.886 121.154C231.721 120.672 231.665 120.161 231.72 119.655V119.679Z" fill="#56708E"/>
<path d="M277.048 288.695H123.328L113.768 184.503H286.616L277.048 288.695Z" fill="#56708E"/>
<path d="M288.744 184.415H111.256V192.807H288.744V184.415Z" fill="#263238"/>
<path opacity="0.2" d="M288.744 184.415H111.256V192.807H288.744V184.415Z" fill="white"/>
<path d="M223.568 235.735L184.488 213.175V258.295L223.568 235.735Z" fill="white"/>
<path d="M350.168 236.482L351.512 276.602H353.096L354.44 236.482H350.168Z" fill="black"/>
<path d="M346.528 250.05L347.648 246.898H355.832L358.08 250.05H346.528Z" fill="#263238"/>
<path d="M337.368 260.322L339.384 262.586L350.168 274.626H350.992H351.064H353.544H353.616H354.44L353.648 273.746L353.544 273.626L352.304 272.242L351.064 270.858L350.856 270.626L350.168 269.858L341.248 259.882L339.288 257.698H339.032L337.368 260.322Z" fill="#263238"/>
<path d="M367.232 260.322L365.28 262.506L354.44 274.626H350.168V274.618L350.96 273.738L351.064 273.626L352.304 272.242L353.544 270.858L353.752 270.618L354.44 269.85L363.416 259.826L365.32 257.698H365.568L367.232 260.322Z" fill="#263238"/>
<path d="M353.544 267.386V100.834H351.064V267.386H353.544Z" fill="#263238"/>
<path opacity="0.2" d="M353.544 110.93H351.064V267.386H353.544V110.93Z" fill="white"/>
<path d="M386.208 290.178H384.504L365.28 262.53L363.416 259.85L356.624 250.074L354.44 246.93H357.472C357.851 246.927 358.224 247.021 358.556 247.203C358.888 247.385 359.168 247.649 359.368 247.97L365.6 257.73L367.264 260.354L386.208 290.178Z" fill="#263238"/>
<path d="M318.4 290.17L345.24 247.938C345.444 247.62 345.724 247.358 346.056 247.176C346.387 246.994 346.759 246.899 347.136 246.898H350.176L320.432 290.17H318.4Z" fill="#263238"/>
<path d="M355.993 100.834H348.625V110.93H355.993V100.834Z" fill="#263238"/>
<path opacity="0.3" d="M355.993 100.834H348.625V110.93H355.993V100.834Z" fill="white"/>
<path d="M344.081 94.9538L355.537 90.2979C357.129 91.2364 358.386 92.6527 359.129 94.3459C359.82 96.1224 359.843 98.0898 359.193 99.8819L348.241 104.682L344.081 94.9538Z" fill="#263238"/>
<path opacity="0.5" d="M344.081 94.9538L355.537 90.2979C357.129 91.2364 358.386 92.6527 359.129 94.3459C359.82 96.1224 359.843 98.0898 359.193 99.8819L348.241 104.682L344.081 94.9538Z" fill="white"/>
<path d="M341.152 147.018C341.152 147.018 356.032 119.65 346.808 98.322C344.069 91.8926 339.861 86.1947 334.522 81.6851C329.183 77.1754 322.861 73.9797 316.064 72.354L315.816 72.434L341.008 147.026L341.152 147.018Z" fill="#263238"/>
<path d="M316.064 72.354L299.4 77.73L324.344 147.898L341.152 147.018L316.064 72.354Z" fill="#263238"/>
<path opacity="0.8" d="M316.064 72.354L299.4 77.73L324.344 147.898L341.152 147.018L316.064 72.354Z" fill="white"/>
<path d="M316.945 74.978L303.457 79.426L325.721 143.154L339.521 142.162L316.945 74.978Z" fill="#56708E"/>
<path d="M316.945 74.978L303.457 79.426L325.721 143.154L339.521 142.162L316.945 74.978Z" fill="white"/>
<path d="M354.44 189.154H350.168V267.378H354.44V189.154Z" fill="#263238"/>
<path d="M47.8565 236.482L46.5125 276.602H44.9285L43.5845 236.482H47.8565Z" fill="black"/>
<path d="M51.4963 250.05L50.3683 246.898H42.1923L39.9443 250.05H51.4963Z" fill="#263238"/>
<path d="M60.6485 260.322L58.6405 262.586L47.8565 274.626H47.8485H47.0325H46.9605H44.4805H44.4005H43.5845L44.3765 273.746L44.4805 273.626L45.7205 272.242L46.9605 270.858L47.1685 270.626L47.8485 269.858L56.7765 259.882L58.7365 257.698H58.9845L60.6485 260.322Z" fill="#263238"/>
<path d="M30.7842 260.322L32.7362 262.506L43.5842 274.626H47.8562L47.8482 274.618L47.0642 273.738L46.9602 273.626L45.7202 272.242L44.4802 270.858L44.2722 270.618L43.5842 269.85L34.6082 259.826L32.7042 257.698H32.4482L30.7842 260.322Z" fill="#263238"/>
<path d="M46.9604 267.386L46.9604 100.834H44.4805L44.4805 267.386H46.9604Z" fill="#263238"/>
<path opacity="0.2" d="M46.9605 110.93H44.4805V267.386H46.9605V110.93Z" fill="white"/>
<path d="M11.8164 290.178H13.5204L32.7204 262.506L34.5924 259.826L41.3844 250.05L43.5684 246.906H40.5284C40.15 246.904 39.7773 246.998 39.4455 247.18C39.1137 247.362 38.8339 247.625 38.6324 247.946L32.4484 257.73L30.7844 260.354L11.8164 290.178Z" fill="#263238"/>
<path d="M79.6244 290.17L52.8004 247.938C52.5984 247.618 52.3185 247.355 51.9868 247.173C51.6552 246.991 51.2827 246.896 50.9044 246.898H47.8564L77.6004 290.17H79.6244Z" fill="#263238"/>
<path d="M42.0402 110.93H49.4082V100.834H42.0402V110.93Z" fill="#263238"/>
<path opacity="0.3" d="M42.0402 110.93H49.4082V100.834H42.0402V110.93Z" fill="white"/>
<path d="M53.9366 94.9538L42.4886 90.2979C40.8958 91.2364 39.639 92.6527 38.8966 94.3459C38.205 96.1224 38.1822 98.0898 38.8326 99.8819L49.7846 104.682L53.9366 94.9538Z" fill="#263238"/>
<path opacity="0.5" d="M53.9366 94.9538L42.4886 90.2979C40.8958 91.2364 39.639 92.6527 38.8966 94.3459C38.205 96.1224 38.1822 98.0898 38.8326 99.8819L49.7846 104.682L53.9366 94.9538Z" fill="white"/>
<path d="M56.8725 147.018C56.8725 147.018 41.9925 119.65 51.2005 98.322C53.94 91.8926 58.148 86.1947 63.487 81.6851C68.8261 77.1754 75.1475 73.9797 81.9445 72.354L82.1845 72.434L57.0165 147.026L56.8725 147.018Z" fill="#263238"/>
<path d="M81.9606 72.354L98.6246 77.73L73.6806 147.898L56.8726 147.018L81.9606 72.354Z" fill="#263238"/>
<path opacity="0.8" d="M81.9606 72.354L98.6246 77.73L73.6806 147.898L56.8726 147.018L81.9606 72.354Z" fill="white"/>
<path d="M81.0724 74.978L94.5684 79.426L72.3044 143.154L58.5044 142.162L81.0724 74.978Z" fill="#56708E"/>
<path d="M81.0724 74.978L94.5684 79.426L72.3044 143.154L58.5044 142.162L81.0724 74.978Z" fill="white"/>
<path d="M43.5844 267.386H47.8564L47.8564 189.162H43.5844L43.5844 267.386Z" fill="#263238"/>
<path d="M113.736 131.33C113.735 135.786 115.055 140.142 117.529 143.848C120.004 147.554 123.521 150.443 127.638 152.149C131.754 153.855 136.284 154.302 140.654 153.434C145.025 152.566 149.04 150.421 152.191 147.271C155.343 144.12 157.489 140.106 158.359 135.736C159.229 131.366 158.783 126.836 157.078 122.719C155.373 118.602 152.486 115.083 148.781 112.607C145.076 110.132 140.72 108.81 136.264 108.81C133.306 108.809 130.377 109.391 127.644 110.522C124.911 111.653 122.427 113.312 120.335 115.403C118.243 117.494 116.584 119.977 115.451 122.71C114.319 125.443 113.736 128.372 113.736 131.33ZM120.136 130.762C120.136 127.575 121.081 124.46 122.852 121.811C124.622 119.161 127.138 117.096 130.083 115.877C133.027 114.657 136.266 114.338 139.392 114.96C142.517 115.581 145.388 117.116 147.641 119.369C149.895 121.622 151.429 124.493 152.051 127.619C152.672 130.744 152.353 133.984 151.134 136.928C149.914 139.872 147.849 142.388 145.2 144.159C142.55 145.929 139.435 146.874 136.248 146.874C134.132 146.872 132.038 146.453 130.084 145.641C128.13 144.83 126.355 143.641 124.86 142.144C123.365 140.646 122.18 138.869 121.373 136.913C120.565 134.957 120.15 132.862 120.152 130.746L120.136 130.762Z" fill="#263238"/>
<g opacity="0.2">
<path opacity="0.2" d="M113.736 131.332C113.735 135.788 115.055 140.144 117.529 143.85C120.004 147.556 123.521 150.445 127.638 152.151C131.754 153.857 136.284 154.304 140.654 153.436C145.025 152.568 149.04 150.423 152.191 147.273C155.343 144.122 157.489 140.108 158.359 135.738C159.229 131.368 158.783 126.838 157.078 122.721C155.373 118.604 152.486 115.085 148.781 112.609C145.076 110.133 140.72 108.812 136.264 108.812C133.306 108.811 130.377 109.393 127.644 110.524C124.911 111.655 122.427 113.314 120.335 115.405C118.243 117.496 116.584 119.979 115.451 122.712C114.319 125.445 113.736 128.374 113.736 131.332ZM120.136 130.764C120.136 127.577 121.081 124.462 122.852 121.813C124.622 119.163 127.138 117.098 130.083 115.878C133.027 114.659 136.266 114.34 139.392 114.962C142.517 115.583 145.388 117.118 147.641 119.371C149.895 121.624 151.429 124.495 152.051 127.621C152.672 130.746 152.353 133.986 151.134 136.93C149.914 139.874 147.849 142.39 145.2 144.161C142.55 145.931 139.435 146.876 136.248 146.876C134.132 146.874 132.038 146.455 130.084 145.643C128.13 144.832 126.355 143.643 124.86 142.146C123.365 140.648 122.18 138.871 121.373 136.915C120.565 134.959 120.15 132.864 120.152 130.748L120.136 130.764Z" fill="white"/>
</g>
<path d="M140.288 165.122H142.408V162.298H140.288V165.122Z" fill="#263238"/>
<path d="M137.928 164.442H141.752V163.058H137.928V164.442Z" fill="#263238"/>
<path d="M132.384 165.874H130.264V168.698H132.384V165.874Z" fill="#263238"/>
<path d="M134.744 166.634H130.92V168.018H134.744V166.634Z" fill="#263238"/>
<path d="M141.88 157.202H144V154.378H141.88V157.202Z" fill="#263238"/>
<path d="M139.52 156.434H143.344V155.05H139.52V156.434Z" fill="#263238"/>
<path d="M135.344 194.474H137.928V162.618H135.344V194.474Z" fill="black"/>
<path d="M134.289 175.626H139.121V171.33H134.289V175.626Z" fill="#263238"/>
<path d="M135.865 162.298H137.521V157.154H135.865V162.298Z" fill="#263238"/>
<path d="M134.688 169.45H138.688V161.45C138.688 160.915 138.476 160.403 138.098 160.025C137.72 159.646 137.207 159.434 136.672 159.434C136.407 159.434 136.145 159.486 135.901 159.588C135.656 159.689 135.434 159.837 135.247 160.025C135.06 160.212 134.911 160.434 134.81 160.679C134.708 160.923 134.656 161.185 134.656 161.45L134.688 169.45Z" fill="black"/>
<path d="M133.577 171.242H139.889V169.45H133.577V171.242Z" fill="#263238"/>
<path d="M133.64 157.93H139.776V153.506H133.64V157.93Z" fill="#263238"/>
<path d="M131.36 184.538H142.904V180.81H131.36V184.538Z" fill="#263238"/>
<path opacity="0.1" d="M131.36 184.538H142.904V180.81H131.36V184.538Z" fill="black"/>
<path d="M138.985 183.962C138.985 183.962 136.841 178.65 134.521 183.962L135.449 295.434C135.449 295.434 137.049 297.962 138.057 295.434L138.985 183.962Z" fill="#263238"/>
<path d="M143.504 181.858C143.504 181.858 154.832 255.458 160.304 287.698C160.816 290.69 158.336 292.442 157.504 288.682C157.176 287.202 139.736 183.026 139.736 183.026C139.736 183.026 140.616 178.13 143.504 181.858Z" fill="#263238"/>
<path d="M129.905 181.858C129.905 181.858 118.577 255.458 113.105 287.698C112.593 290.69 115.073 292.442 115.905 288.682C116.233 287.202 133.673 183.026 133.673 183.026C133.673 183.026 132.801 178.13 129.905 181.858Z" fill="#263238"/>
<path d="M262.4 110.664C263.598 110.665 264.782 110.913 265.88 111.392L267.976 112.32C269.423 112.852 270.672 113.816 271.554 115.08C272.436 116.345 272.908 117.85 272.908 119.392C272.908 120.933 272.436 122.438 271.554 123.703C270.672 124.967 269.423 125.931 267.976 126.464L265.88 127.384C264.784 127.871 263.599 128.125 262.4 128.128C261.232 128.163 260.069 127.963 258.98 127.541C257.89 127.118 256.897 126.482 256.058 125.668C255.22 124.854 254.553 123.881 254.098 122.805C253.642 121.729 253.408 120.572 253.408 119.404C253.408 118.235 253.642 117.079 254.098 116.003C254.553 114.927 255.22 113.953 256.058 113.139C256.897 112.326 257.89 111.689 258.98 111.266C260.069 110.844 261.232 110.644 262.4 110.68V110.664Z" fill="#263238"/>
<path opacity="0.2" d="M262.4 110.664C263.598 110.665 264.782 110.913 265.88 111.392L267.976 112.32C269.423 112.852 270.672 113.816 271.554 115.08C272.436 116.345 272.908 117.85 272.908 119.392C272.908 120.933 272.436 122.438 271.554 123.703C270.672 124.967 269.423 125.931 267.976 126.464L265.88 127.384C264.784 127.871 263.599 128.125 262.4 128.128C261.232 128.163 260.069 127.963 258.98 127.541C257.89 127.118 256.897 126.482 256.058 125.668C255.22 124.854 254.553 123.881 254.098 122.805C253.642 121.729 253.408 120.572 253.408 119.404C253.408 118.235 253.642 117.079 254.098 116.003C254.553 114.927 255.22 113.953 256.058 113.139C256.897 112.326 257.89 111.689 258.98 111.266C260.069 110.844 261.232 110.644 262.4 110.68V110.664Z" fill="black"/>
<path d="M265.512 112.784H274.176C275.062 112.753 275.946 112.901 276.774 113.219C277.603 113.537 278.358 114.018 278.996 114.635C279.634 115.251 280.142 115.989 280.489 116.806C280.835 117.623 281.014 118.501 281.014 119.388C281.014 120.275 280.835 121.153 280.489 121.97C280.142 122.786 279.634 123.525 278.996 124.141C278.358 124.757 277.603 125.239 276.774 125.557C275.946 125.875 275.062 126.023 274.176 125.992H265.512C263.8 125.932 262.178 125.21 260.989 123.978C259.799 122.746 259.134 121.101 259.134 119.388C259.134 117.675 259.799 116.029 260.989 114.797C262.178 113.565 263.8 112.843 265.512 112.784Z" fill="#263238"/>
<path opacity="0.2" d="M265.512 112.784H274.176C275.062 112.753 275.946 112.901 276.774 113.219C277.603 113.537 278.358 114.018 278.996 114.635C279.634 115.251 280.142 115.989 280.489 116.806C280.835 117.623 281.014 118.501 281.014 119.388C281.014 120.275 280.835 121.153 280.489 121.97C280.142 122.786 279.634 123.525 278.996 124.141C278.358 124.757 277.603 125.239 276.774 125.557C275.946 125.875 275.062 126.023 274.176 125.992H265.512C263.8 125.932 262.178 125.21 260.989 123.978C259.799 122.746 259.134 121.101 259.134 119.388C259.134 117.675 259.799 116.029 260.989 114.797C262.178 113.565 263.8 112.843 265.512 112.784Z" fill="white"/>
<path opacity="0.2" d="M267.92 112.784H269.976C269.089 112.753 268.205 112.901 267.377 113.219C266.549 113.537 265.793 114.018 265.155 114.635C264.517 115.251 264.01 115.989 263.663 116.806C263.316 117.623 263.138 118.501 263.138 119.388C263.138 120.275 263.316 121.153 263.663 121.97C264.01 122.786 264.517 123.525 265.155 124.141C265.793 124.757 266.549 125.239 267.377 125.557C268.205 125.875 269.089 126.023 269.976 125.992H267.92C266.208 125.932 264.586 125.21 263.396 123.978C262.207 122.746 261.542 121.101 261.542 119.388C261.542 117.675 262.207 116.029 263.396 114.797C264.586 113.565 266.208 112.843 267.92 112.784Z" fill="white"/>
<path d="M272.712 106.912H278.472C278.756 106.912 279.034 106.999 279.268 107.16C279.502 107.322 279.682 107.55 279.784 107.816L281.136 111.344H269.976C269.976 111.344 271.768 106.912 272.712 106.912Z" fill="#263238"/>
<path opacity="0.2" d="M274.712 106.912H278.472C278.756 106.912 279.034 106.999 279.268 107.16C279.502 107.322 279.682 107.55 279.784 107.816L281.136 111.344H272.048L273.4 107.816C273.501 107.549 273.68 107.32 273.915 107.159C274.149 106.997 274.427 106.911 274.712 106.912Z" fill="white"/>
<path d="M283.128 127.456H265.176C264.327 127.456 263.513 127.118 262.913 126.518C262.313 125.918 261.976 125.104 261.976 124.256V112.96C261.976 112.535 262.144 112.128 262.444 111.828C262.744 111.528 263.151 111.36 263.576 111.36H284.728C285.152 111.36 285.559 111.528 285.859 111.828C286.159 112.128 286.328 112.535 286.328 112.96V124.256C286.328 125.104 285.99 125.918 285.39 126.518C284.79 127.118 283.976 127.456 283.128 127.456Z" fill="#263238"/>
<path opacity="0.2" d="M283.128 127.456H269.448C268.599 127.456 267.785 127.118 267.185 126.518C266.585 125.918 266.248 125.104 266.248 124.256V112.96C266.248 112.535 266.416 112.128 266.716 111.828C267.016 111.528 267.423 111.36 267.848 111.36H284.728C285.152 111.36 285.559 111.528 285.859 111.828C286.159 112.128 286.328 112.535 286.328 112.96V124.256C286.328 125.104 285.99 125.918 285.39 126.518C284.79 127.118 283.976 127.456 283.128 127.456Z" fill="white"/>
<path d="M274.984 124.104H284.712C285.154 124.104 285.512 123.745 285.512 123.304V115.608C285.512 115.166 285.154 114.808 284.712 114.808H274.984C274.542 114.808 274.184 115.166 274.184 115.608V123.304C274.184 123.745 274.542 124.104 274.984 124.104Z" fill="#56708E"/>
<path opacity="0.5" d="M274.984 124.104H284.712C285.154 124.104 285.512 123.745 285.512 123.304V115.608C285.512 115.166 285.154 114.808 284.712 114.808H274.984C274.542 114.808 274.184 115.166 274.184 115.608V123.304C274.184 123.745 274.542 124.104 274.984 124.104Z" fill="white"/>
<path d="M275.504 111.072H278.208C278.65 111.072 279.008 110.714 279.008 110.272V109.28C279.008 108.838 278.65 108.48 278.208 108.48H275.504C275.062 108.48 274.704 108.838 274.704 109.28V110.272C274.704 110.714 275.062 111.072 275.504 111.072Z" fill="#56708E"/>
<path opacity="0.5" d="M275.504 111.072H278.208C278.65 111.072 279.008 110.714 279.008 110.272V109.28C279.008 108.838 278.65 108.48 278.208 108.48H275.504C275.062 108.48 274.704 108.838 274.704 109.28V110.272C274.704 110.714 275.062 111.072 275.504 111.072Z" fill="white"/>
<path opacity="0.2" d="M272.928 117.656H274.184V116.4H272.928V117.656Z" fill="white"/>
<path opacity="0.2" d="M272.928 119.16H274.184V117.904H272.928V119.16Z" fill="white"/>
<path opacity="0.2" d="M272.928 120.664H274.184V119.408H272.928V120.664Z" fill="white"/>
<path opacity="0.2" d="M272.928 122.167H274.184V120.911H272.928V122.167Z" fill="white"/>
<path d="M267.2 119.255C267.2 119.784 267.356 120.301 267.65 120.74C267.944 121.179 268.361 121.522 268.849 121.724C269.337 121.926 269.875 121.979 270.393 121.876C270.911 121.773 271.387 121.519 271.761 121.145C272.135 120.771 272.389 120.295 272.492 119.777C272.595 119.258 272.543 118.721 272.34 118.233C272.138 117.745 271.796 117.327 271.356 117.034C270.917 116.74 270.4 116.583 269.872 116.583C269.163 116.583 268.483 116.865 267.982 117.366C267.481 117.867 267.2 118.547 267.2 119.255ZM268.32 119.255C268.318 118.948 268.408 118.647 268.577 118.391C268.747 118.135 268.989 117.935 269.272 117.816C269.556 117.697 269.868 117.665 270.17 117.724C270.471 117.783 270.748 117.931 270.966 118.147C271.184 118.364 271.333 118.64 271.393 118.942C271.454 119.243 271.424 119.555 271.306 119.84C271.189 120.124 270.99 120.366 270.735 120.537C270.479 120.708 270.179 120.799 269.872 120.799C269.666 120.804 269.462 120.767 269.271 120.691C269.08 120.616 268.906 120.503 268.759 120.359C268.612 120.215 268.496 120.043 268.416 119.854C268.337 119.664 268.296 119.461 268.296 119.255H268.32Z" fill="#263238"/>
<path d="M268.84 119.256C268.84 119.519 268.944 119.771 269.13 119.957C269.316 120.143 269.569 120.248 269.832 120.248C270.095 120.248 270.347 120.143 270.533 119.957C270.719 119.771 270.824 119.519 270.824 119.256C270.824 118.993 270.719 118.74 270.533 118.554C270.347 118.368 270.095 118.264 269.832 118.264C269.569 118.264 269.316 118.368 269.13 118.554C268.944 118.74 268.84 118.993 268.84 119.256Z" fill="#263238"/>
<path d="M273.167 112.784C273.167 112.887 273.209 112.987 273.282 113.061C273.356 113.134 273.456 113.176 273.56 113.176C273.611 113.176 273.661 113.165 273.708 113.146C273.755 113.126 273.798 113.097 273.834 113.06C273.87 113.024 273.898 112.98 273.917 112.933C273.935 112.885 273.945 112.835 273.944 112.784C273.945 112.733 273.935 112.682 273.917 112.635C273.898 112.588 273.869 112.545 273.833 112.51C273.798 112.474 273.755 112.445 273.708 112.427C273.661 112.408 273.61 112.398 273.56 112.4C273.508 112.398 273.458 112.408 273.41 112.426C273.363 112.445 273.319 112.473 273.283 112.509C273.246 112.545 273.217 112.588 273.197 112.635C273.178 112.682 273.167 112.732 273.167 112.784Z" fill="#56708E"/>
<path d="M278.752 140.424H281.12V137.264H278.752V140.424Z" fill="#263238"/>
<path d="M276.104 139.664H280.384V138.112H276.104V139.664Z" fill="#263238"/>
<path d="M269.904 141.264H267.536V144.424H269.904V141.264Z" fill="#263238"/>
<path d="M272.544 142.12H268.264V143.672H272.544V142.12Z" fill="#263238"/>
<path d="M280.527 131.56H282.896V128.4H280.527V131.56Z" fill="#263238"/>
<path d="M277.887 130.711H282.167V129.159H277.887V130.711Z" fill="#263238"/>
<path d="M273.216 170.6H276.104V147.264H273.216V170.6Z" fill="black"/>
<path d="M268.208 171.271H281.112V167.103H268.208V171.271Z" fill="#263238"/>
<path opacity="0.1" d="M268.208 171.271H281.112V167.103H268.208V171.271Z" fill="black"/>
<path d="M276.736 170.616C276.736 170.616 274.336 164.68 271.744 170.616L272.8 295.328C272.8 295.328 274.624 298.16 275.712 295.328L276.736 170.616Z" fill="#263238"/>
<path d="M281.792 168.272C281.792 168.272 294.464 250.6 300.616 286.672C301.184 290.024 298.408 291.976 297.472 287.768C297.112 286.096 277.6 169.576 277.6 169.576C277.6 169.576 278.56 164.128 281.792 168.272Z" fill="#263238"/>
<path d="M266.584 168.272C266.584 168.272 253.904 250.6 247.76 286.672C247.192 290.024 249.96 291.976 250.896 287.768C251.264 286.12 270.768 169.6 270.768 169.6C270.768 169.6 269.808 164.128 266.584 168.272Z" fill="#263238"/>
<path d="M272.039 161.864H277.439V157.064H272.039V161.864Z" fill="#263238"/>
<path d="M272.039 154.567H277.439V149.767H272.039V154.567Z" fill="#263238"/>
<path d="M273.808 137.271H275.656V131.519H273.808V137.271Z" fill="#263238"/>
<path d="M272.479 145.263H276.991V136.319C276.991 135.721 276.754 135.147 276.331 134.724C275.908 134.301 275.334 134.063 274.736 134.063C274.137 134.063 273.563 134.301 273.14 134.724C272.717 135.147 272.479 135.721 272.479 136.319V145.263Z" fill="black"/>
<path d="M271.232 147.271H278.296V145.271H271.232V147.271Z" fill="#263238"/>
<path d="M271.312 132.384H278.176V127.432H271.312V132.384Z" fill="#263238"/>
<path d="M185.344 84.6965H185.2C177.036 81.7744 169.999 76.3554 165.088 69.2085C165.026 69.1147 165.003 69.0003 165.024 68.8897C165.045 68.7792 165.108 68.6811 165.2 68.6165C165.246 68.5843 165.297 68.5615 165.352 68.5493C165.406 68.5371 165.462 68.5358 165.517 68.5455C165.573 68.5551 165.625 68.5756 165.672 68.6056C165.719 68.6356 165.76 68.6747 165.792 68.7205C170.627 75.7019 177.509 81.0124 185.488 83.9205C185.54 83.9393 185.589 83.9683 185.63 84.0058C185.672 84.0434 185.705 84.0887 185.729 84.1393C185.753 84.1898 185.766 84.2446 185.769 84.3004C185.771 84.3562 185.763 84.412 185.744 84.4645C185.706 84.5371 185.648 84.5974 185.578 84.6385C185.507 84.6796 185.426 84.6997 185.344 84.6965Z" fill="#56708E"/>
<path d="M191.8 86.4327H191.72C190.423 86.1985 189.139 85.8994 187.872 85.5367C187.763 85.505 187.671 85.432 187.616 85.3332C187.56 85.2345 187.546 85.118 187.576 85.0087C187.591 84.9551 187.617 84.905 187.652 84.8614C187.687 84.8179 187.731 84.7817 187.78 84.7549C187.829 84.7281 187.883 84.7113 187.938 84.7055C187.994 84.6996 188.05 84.7048 188.104 84.7207C189.336 85.0727 190.608 85.3687 191.872 85.6007C191.953 85.6366 192.021 85.6969 192.066 85.7733C192.111 85.8497 192.131 85.9382 192.123 86.0265C192.115 86.1148 192.079 86.1984 192.021 86.2655C191.963 86.3327 191.886 86.3799 191.8 86.4007V86.4327Z" fill="#56708E"/>
<path d="M206.792 86.4087C206.706 86.3879 206.628 86.3406 206.57 86.2735C206.512 86.2064 206.477 86.1228 206.469 86.0345C206.461 85.9462 206.481 85.8576 206.526 85.7813C206.571 85.7049 206.639 85.6445 206.72 85.6087C215.522 83.9392 223.53 79.4219 229.512 72.7527C229.549 72.7112 229.594 72.6774 229.645 72.6534C229.695 72.6293 229.75 72.6154 229.805 72.6124C229.861 72.6094 229.917 72.6175 229.969 72.6361C230.022 72.6546 230.07 72.6834 230.112 72.7207C230.153 72.758 230.187 72.8031 230.211 72.8534C230.235 72.9037 230.249 72.9583 230.252 73.0141C230.255 73.0698 230.247 73.1255 230.229 73.1781C230.21 73.2307 230.181 73.2792 230.144 73.3207C224.04 80.1337 215.861 84.7449 206.872 86.4407L206.792 86.4087Z" fill="#56708E"/>
<path d="M232.064 70.6966C231.971 70.6944 231.882 70.6636 231.808 70.6086C231.718 70.539 231.66 70.4372 231.645 70.325C231.63 70.2128 231.66 70.0992 231.728 70.0086C232.376 69.1526 232.992 68.2566 233.568 67.3446C233.628 67.2491 233.724 67.1816 233.834 67.1568C233.945 67.1321 234.06 67.1521 234.156 67.2126C234.251 67.2731 234.319 67.369 234.343 67.4793C234.368 67.5895 234.348 67.7051 234.288 67.8006C233.696 68.7286 233.064 69.6486 232.408 70.5206C232.367 70.5742 232.316 70.6179 232.256 70.6484C232.196 70.6789 232.131 70.6954 232.064 70.6966Z" fill="#56708E"/>
<path d="M239.44 37.7845C239.342 37.7848 239.248 37.7515 239.172 37.6903C239.096 37.6291 239.044 37.5437 239.024 37.4485C237.975 32.3025 235.932 27.4109 233.008 23.0485C232.976 23.003 232.954 22.9516 232.943 22.8974C232.931 22.8433 232.931 22.7873 232.941 22.7329C232.951 22.6785 232.973 22.6268 233.003 22.5807C233.034 22.5346 233.074 22.4951 233.12 22.4645C233.166 22.4327 233.218 22.4104 233.273 22.3988C233.328 22.3872 233.384 22.3866 233.439 22.397C233.494 22.4075 233.547 22.4287 233.593 22.4595C233.64 22.4903 233.681 22.53 233.712 22.5765C236.701 27.0273 238.791 32.0197 239.864 37.2725C239.875 37.3272 239.876 37.3837 239.865 37.4386C239.854 37.4934 239.833 37.5456 239.801 37.5919C239.77 37.6382 239.729 37.6777 239.683 37.708C239.636 37.7384 239.583 37.7589 239.528 37.7685L239.44 37.7845Z" fill="#56708E"/>
<path d="M231.784 21.0565C231.718 21.0574 231.654 21.0427 231.595 21.0134C231.537 20.9842 231.486 20.9413 231.448 20.8885C225.93 13.7253 218.188 8.59818 209.44 6.31247C209.331 6.28243 209.239 6.2113 209.182 6.11419C209.125 6.01709 209.109 5.90167 209.136 5.79247C209.15 5.73823 209.174 5.6873 209.208 5.6426C209.242 5.59791 209.284 5.56035 209.332 5.53208C209.381 5.50382 209.434 5.48541 209.49 5.47793C209.545 5.47044 209.602 5.47403 209.656 5.48847C218.587 7.81888 226.49 13.0536 232.12 20.3685C232.188 20.458 232.22 20.571 232.206 20.6832C232.193 20.7953 232.136 20.8977 232.048 20.9685C231.971 21.0246 231.879 21.0554 231.784 21.0565Z" fill="#56708E"/>
<path d="M176.36 11.9687C176.261 11.978 176.163 11.9526 176.081 11.8971C176 11.8417 175.94 11.7594 175.913 11.6647C175.885 11.5699 175.892 11.4686 175.931 11.378C175.97 11.2875 176.04 11.2135 176.128 11.1687C179.34 9.00576 182.841 7.30637 186.528 6.12074C186.582 6.09564 186.641 6.08229 186.701 6.08157C186.76 6.08086 186.82 6.09278 186.874 6.11657C186.929 6.14036 186.978 6.17548 187.019 6.21961C187.059 6.26375 187.09 6.31591 187.108 6.37267C187.127 6.42943 187.134 6.48952 187.127 6.54897C187.121 6.60843 187.103 6.66592 187.073 6.71768C187.043 6.76943 187.002 6.81428 186.954 6.84927C186.905 6.88427 186.85 6.90863 186.792 6.92074C183.177 8.08407 179.744 9.74826 176.592 11.8647C176.528 11.9247 176.447 11.9614 176.36 11.9687Z" fill="#56708E"/>
<path d="M172.288 15.0967C172.227 15.0944 172.167 15.0798 172.112 15.0537C172.057 15.0275 172.008 14.9904 171.968 14.9447C171.89 14.8641 171.847 14.7566 171.847 14.6447C171.847 14.5328 171.89 14.4252 171.968 14.3447C172.632 13.7767 173.312 13.2087 174.008 12.6807C174.098 12.6127 174.212 12.5831 174.324 12.598C174.436 12.613 174.538 12.6714 174.608 12.7607C174.643 12.8051 174.668 12.856 174.683 12.9104C174.697 12.9648 174.701 13.0216 174.694 13.0775C174.686 13.1333 174.668 13.1872 174.639 13.2358C174.611 13.2844 174.573 13.3269 174.528 13.3607C173.848 13.8807 173.176 14.4247 172.528 14.9607C172.466 15.032 172.381 15.08 172.288 15.0967Z" fill="#56708E"/>
<path d="M160.976 31.1605C160.925 31.168 160.874 31.168 160.824 31.1605C160.718 31.1194 160.633 31.0384 160.587 30.9352C160.54 30.832 160.536 30.7147 160.576 30.6085C162.689 25.194 165.922 20.2869 170.064 16.2085C170.144 16.129 170.253 16.0847 170.366 16.0855C170.423 16.0858 170.478 16.0972 170.53 16.1191C170.581 16.1409 170.628 16.1726 170.668 16.2126C170.707 16.2525 170.738 16.2998 170.759 16.3517C170.78 16.4037 170.791 16.4593 170.791 16.5154C170.79 16.5715 170.779 16.6269 170.757 16.6786C170.735 16.7303 170.704 16.7772 170.664 16.8165C166.605 20.8171 163.439 25.6322 161.376 30.9445C161.335 31.0136 161.276 31.0701 161.206 31.1082C161.135 31.1463 161.056 31.1644 160.976 31.1605Z" fill="#56708E"/>
<path d="M199 87.4021C194.592 87.4021 192.208 83.9781 192.096 77.4981C192.095 77.4497 192.103 77.4017 192.121 77.3566C192.138 77.3116 192.164 77.2704 192.198 77.2355C192.231 77.2006 192.271 77.1726 192.316 77.1531C192.36 77.1337 192.407 77.1231 192.456 77.1221C192.554 77.124 192.647 77.1632 192.717 77.2316C192.787 77.2999 192.828 77.3924 192.832 77.4901C192.936 83.5781 195.016 86.6661 199 86.6661C202.984 86.6661 205.08 83.6661 205.168 77.4901C205.17 77.3917 205.21 77.2981 205.281 77.2293C205.351 77.1606 205.445 77.122 205.544 77.1221C205.642 77.1242 205.736 77.1647 205.804 77.235C205.873 77.3053 205.912 77.3997 205.912 77.4981C205.808 84.0741 203.48 87.4021 199 87.4021Z" fill="#263238"/>
<path d="M205.544 77.8581H192.464C192.415 77.8592 192.367 77.8504 192.322 77.8323C192.277 77.8142 192.236 77.7871 192.201 77.7527C192.167 77.7183 192.14 77.6773 192.122 77.6322C192.103 77.587 192.095 77.5387 192.096 77.4901C192.096 77.3925 192.135 77.2989 192.204 77.2298C192.273 77.1608 192.366 77.1221 192.464 77.1221H205.544C205.641 77.1241 205.733 77.1635 205.802 77.2321C205.87 77.3007 205.91 77.3931 205.912 77.4901C205.912 77.5877 205.873 77.6813 205.804 77.7503C205.735 77.8193 205.641 77.8581 205.544 77.8581Z" fill="#263238"/>
<path d="M203.392 74.594H194.592L194.856 65.058L195.04 64.97C196.265 64.3468 197.621 64.022 198.996 64.022C200.371 64.022 201.726 64.3468 202.952 64.97L203.136 65.058L203.392 74.594Z" fill="#263238"/>
<g opacity="0.1">
<path opacity="0.1" d="M203.392 74.5955H194.592L194.856 65.0595L195.04 64.9715C196.265 64.3483 197.621 64.0234 198.996 64.0234C200.371 64.0234 201.726 64.3483 202.952 64.9715L203.136 65.0595L203.392 74.5955Z" fill="#FAFAFA"/>
</g>
<path d="M194.584 74.5938H203.384L203.128 84.1297L202.944 84.2257C201.718 84.8489 200.363 85.1738 198.988 85.1738C197.613 85.1738 196.258 84.8489 195.032 84.2257L194.848 84.1297L194.584 74.5938Z" fill="#56708E"/>
<path d="M203.664 73.8501H194.344V75.4501H203.664V73.8501Z" fill="#263238"/>
<path d="M203.664 73.8501H194.344V75.4501H203.664V73.8501Z" fill="#56708E"/>
<path opacity="0.2" d="M203.664 73.8501H194.344V75.4501H203.664V73.8501Z" fill="black"/>
<path d="M200.08 79.074C199.907 79.2862 199.676 79.4426 199.415 79.5235C199.154 79.6043 198.875 79.606 198.612 79.5284C198.35 79.4507 198.117 79.2972 197.942 79.0871C197.767 78.8771 197.658 78.6199 197.629 78.348C197.6 78.0762 197.653 77.8019 197.779 77.5596C197.906 77.3174 198.102 77.1182 198.342 76.987C198.582 76.8559 198.855 76.7987 199.127 76.8227C199.4 76.8468 199.659 76.9509 199.872 77.122C200.015 77.2355 200.134 77.3765 200.222 77.5366C200.31 77.6966 200.366 77.8727 200.385 78.0544C200.405 78.2361 200.387 78.4198 200.335 78.5949C200.283 78.77 200.196 78.9328 200.08 79.074Z" fill="#263238"/>
<path opacity="0.2" d="M200.392 78.2019C200.393 78.4775 200.313 78.7474 200.161 78.9774C200.009 79.2074 199.792 79.387 199.538 79.4936C199.284 79.6002 199.004 79.6289 198.733 79.5761C198.463 79.5233 198.214 79.3913 198.018 79.197C197.823 79.0026 197.69 78.7546 197.635 78.4844C197.581 78.2141 197.608 77.9339 197.713 77.679C197.818 77.4242 197.997 77.2063 198.226 77.053C198.455 76.8997 198.724 76.8179 199 76.8179C199.368 76.8179 199.721 76.9634 199.981 77.2227C200.242 77.4821 200.39 77.8341 200.392 78.2019Z" fill="white"/>
<path d="M199.6 77.5537C199.588 77.6248 199.552 77.6895 199.497 77.7362C199.442 77.7829 199.372 77.8085 199.3 77.8085C199.228 77.8085 199.158 77.7829 199.103 77.7362C199.048 77.6895 199.012 77.6248 199 77.5537C199.012 77.4825 199.048 77.4178 199.103 77.3711C199.158 77.3245 199.228 77.2988 199.3 77.2988C199.372 77.2988 199.442 77.3245 199.497 77.3711C199.552 77.4178 199.588 77.4825 199.6 77.5537Z" fill="#56708E"/>
<path d="M199 93.1381C198.903 93.136 198.81 93.0966 198.742 93.0281C198.673 92.9595 198.634 92.8671 198.632 92.7701V86.2261C198.645 86.1368 198.69 86.0552 198.758 85.9962C198.826 85.9373 198.914 85.9048 199.004 85.9048C199.094 85.9048 199.181 85.9373 199.25 85.9962C199.318 86.0552 199.363 86.1368 199.376 86.2261V92.7701C199.374 92.8684 199.333 92.962 199.263 93.0308C199.193 93.0996 199.098 93.1381 199 93.1381Z" fill="#263238"/>
<path d="M191.8 95.7778C191.8 95.7778 195 92.6338 199 92.6338C203 92.6338 206.2 95.7778 206.2 95.7778H191.8Z" fill="#56708E"/>
<path d="M153.967 32.8564H148.423V65.6724H153.967V32.8564Z" fill="#56708E"/>
<path opacity="0.1" d="M153.967 32.8564H148.423V65.6724H153.967V32.8564Z" fill="black"/>
<path d="M155.943 66.3046H146.071L148.423 64.5366H153.967L155.943 66.3046Z" fill="#263238"/>
<path d="M168.799 66.3363H167.023L167.039 64.8003L168.799 66.3363Z" fill="#263238"/>
<path d="M167.04 32.9204L167.024 66.3364L155.944 66.3044L153.968 64.5364V32.8564L167.04 32.9204Z" fill="#56708E"/>
<path opacity="0.3" d="M167.04 32.9204L167.024 66.3364L155.944 66.3044L153.968 64.5364V32.8564L167.04 32.9204Z" fill="black"/>
<path d="M141.8 57.0244V66.3364H142.856C143.349 66.3314 143.831 66.1944 144.253 65.9398C144.675 65.6851 145.022 65.3221 145.256 64.8884L148.344 59.2244L141.8 57.0244Z" fill="#56708E"/>
<path d="M149.12 57.1443C149.121 57.8693 148.908 58.5785 148.506 59.1821C148.104 59.7857 147.533 60.2565 146.863 60.5351C146.194 60.8136 145.457 60.8873 144.746 60.7468C144.034 60.6064 143.381 60.258 142.868 59.7459C142.354 59.2338 142.005 58.581 141.862 57.87C141.72 57.1591 141.793 56.422 142.07 55.752C142.347 55.082 142.816 54.5093 143.419 54.1063C144.022 53.7034 144.731 53.4883 145.456 53.4883C146.426 53.4883 147.357 53.8732 148.044 54.5586C148.73 55.244 149.117 56.1739 149.12 57.1443Z" fill="#56708E"/>
<path d="M157.024 60.6807C159.043 60.6807 160.68 59.0438 160.68 57.0247C160.68 55.0055 159.043 53.3687 157.024 53.3687C155.005 53.3687 153.368 55.0055 153.368 57.0247C153.368 59.0438 155.005 60.6807 157.024 60.6807Z" fill="#56708E"/>
<path d="M157.887 54.8643H156.719V58.0403H157.887V54.8643Z" fill="white"/>
<path d="M155.719 55.8725V57.0405H158.895V55.8725H155.719Z" fill="white"/>
<path d="M144.48 55.6724C144.481 55.785 144.449 55.8956 144.388 55.9901C144.326 56.0845 144.238 56.1586 144.135 56.2028C144.031 56.247 143.917 56.2594 143.806 56.2384C143.695 56.2174 143.593 56.1639 143.513 56.0848C143.433 56.0057 143.378 55.9045 143.355 55.7941C143.333 55.6838 143.343 55.5691 143.386 55.4649C143.429 55.3606 143.502 55.2714 143.595 55.2087C143.689 55.1459 143.799 55.1124 143.912 55.1124C143.986 55.1113 144.06 55.125 144.128 55.1527C144.197 55.1803 144.26 55.2214 144.313 55.2735C144.366 55.3256 144.408 55.3877 144.436 55.4562C144.465 55.5247 144.48 55.5981 144.48 55.6724Z" fill="white"/>
<path d="M146.8 55.6723C146.801 55.785 146.769 55.8956 146.708 55.99C146.646 56.0845 146.558 56.1585 146.454 56.2027C146.351 56.247 146.236 56.2594 146.126 56.2384C146.015 56.2173 145.913 56.1639 145.833 56.0848C145.753 56.0057 145.698 55.9045 145.675 55.7941C145.653 55.6837 145.663 55.5691 145.706 55.4648C145.749 55.3606 145.822 55.2714 145.915 55.2086C146.009 55.1458 146.119 55.1123 146.232 55.1123C146.381 55.1123 146.524 55.171 146.63 55.2758C146.737 55.3806 146.797 55.5231 146.8 55.6723Z" fill="white"/>
<path d="M144.48 57.7286C144.48 57.841 144.446 57.9508 144.384 58.0442C144.322 58.1376 144.233 58.2104 144.129 58.2534C144.025 58.2964 143.911 58.3077 143.801 58.2857C143.691 58.2638 143.59 58.2097 143.51 58.1303C143.431 58.0508 143.377 57.9496 143.355 57.8395C143.333 57.7293 143.344 57.6151 143.387 57.5113C143.43 57.4075 143.503 57.3188 143.596 57.2564C143.69 57.194 143.799 57.1606 143.912 57.1606C144.062 57.1606 144.207 57.2205 144.313 57.327C144.42 57.4335 144.48 57.578 144.48 57.7286Z" fill="white"/>
<path d="M146.8 57.7286C146.8 57.841 146.766 57.9508 146.704 58.0442C146.641 58.1376 146.553 58.2104 146.449 58.2534C146.345 58.2964 146.231 58.3077 146.121 58.2857C146.011 58.2638 145.909 58.2097 145.83 58.1303C145.75 58.0508 145.696 57.9496 145.674 57.8395C145.653 57.7293 145.664 57.6151 145.707 57.5113C145.75 57.4075 145.823 57.3188 145.916 57.2564C146.009 57.194 146.119 57.1606 146.232 57.1606C146.382 57.1606 146.527 57.2205 146.633 57.327C146.74 57.4335 146.8 57.578 146.8 57.7286Z" fill="white"/>
<path d="M155.023 55.5684H147.503V59.2244H155.023V55.5684Z" fill="#56708E"/>
<path d="M160.679 57.0244V66.3364H159.199C158.833 66.3357 158.473 66.2366 158.158 66.0494C157.843 65.8622 157.583 65.5939 157.407 65.2724L154.111 59.2244L160.679 57.0244Z" fill="#56708E"/>
<path opacity="0.2" d="M141.8 65.3606H143.144C143.485 65.361 143.819 65.267 144.11 65.0891C144.401 64.9112 144.637 64.6563 144.792 64.3526L148.064 57.9526H154.104V59.2646H148.376L145.112 65.2566C144.927 65.5956 144.654 65.8784 144.321 66.0755C143.989 66.2725 143.61 66.3766 143.224 66.3766H141.8V65.3606Z" fill="black"/>
<path opacity="0.2" d="M160.679 65.3606H159.335C158.995 65.3601 158.661 65.2658 158.37 65.088C158.079 64.9102 157.843 64.6558 157.687 64.3526L154.423 57.9526H148.375V59.2646H154.103L157.367 65.2566C157.553 65.595 157.827 65.8774 158.159 66.0744C158.491 66.2713 158.869 66.3757 159.255 66.3766H160.679V65.3606Z" fill="black"/>
<path d="M255.016 52.486C255.014 55.0087 254.272 57.4754 252.883 59.5812C251.494 61.6869 249.518 63.3393 247.2 64.334V64.246H236.8C234.529 63.2289 232.601 61.5768 231.249 59.4887C229.896 57.4007 229.176 54.9659 229.176 52.478C229.176 52.374 229.176 52.27 229.176 52.166C229.32 53.23 233.296 54.118 238.672 54.398L239.736 54.438H240.096H241.168H242.96C243.32 54.438 243.68 54.438 244.032 54.438H244.384H245.456C250.44 54.174 254.216 53.422 255.016 52.486Z" fill="#56708E"/>
<path d="M255.015 52.486C254.215 53.422 250.439 54.174 245.519 54.414H244.447H244.095C243.743 54.414 243.383 54.414 243.023 54.414H241.231H240.159H239.799L238.735 54.374C233.359 54.094 229.383 53.206 229.239 52.142C229.235 52.0941 229.235 52.0459 229.239 51.998C229.439 50.934 233.391 50.062 238.727 49.798C239.071 49.798 239.431 49.798 239.791 49.75H240.151C240.495 49.75 240.863 49.75 241.223 49.75H242.655C242.775 49.75 242.895 49.75 243.015 49.75H244.087H244.439L245.511 49.79C250.375 50.022 254.127 50.758 254.983 51.686C255.007 51.966 255.015 52.23 255.015 52.486Z" fill="#56708E"/>
<path opacity="0.3" d="M255.199 52.1261C255.197 52.2675 255.14 52.4023 255.039 52.5021C254.239 53.4381 250.463 54.1901 245.543 54.4301H244.471H244.119C243.767 54.4301 243.407 54.4301 243.047 54.4301H241.255H240.183H239.823L238.759 54.3901C233.383 54.1101 229.407 53.2221 229.263 52.1581C229.259 52.137 229.259 52.1152 229.263 52.0941C229.256 52.068 229.256 52.0402 229.263 52.0141C229.463 50.9501 233.415 50.0781 238.751 49.8141C239.095 49.8141 239.455 49.8141 239.815 49.7661H240.175C240.519 49.7661 240.887 49.7661 241.247 49.7661H242.679C242.799 49.7661 242.919 49.7661 243.039 49.7661H244.111H244.463L245.535 49.8061C250.399 50.0381 254.151 50.7741 255.007 51.7021C255.068 51.7549 255.116 51.8201 255.15 51.8932C255.183 51.9664 255.2 52.0458 255.199 52.1261Z" fill="black"/>
<path d="M227.936 41.9261V41.5741L233.344 41.3501H256.312V42.2461H233.344L227.936 41.9261Z" fill="#263238"/>
<path d="M227.936 42.7901V42.4301L233.344 42.2061H256.312V43.1021H233.344L227.936 42.7901Z" fill="#263238"/>
<path d="M239.799 41.534V54.446L238.735 54.406V41.534C238.726 41.4586 238.733 41.3822 238.756 41.3097C238.778 41.2372 238.816 41.1703 238.866 41.1135C238.916 41.0566 238.978 41.0111 239.047 40.9799C239.117 40.9487 239.192 40.9326 239.267 40.9326C239.343 40.9326 239.418 40.9487 239.488 40.9799C239.557 41.0111 239.619 41.0566 239.669 41.1135C239.719 41.1703 239.757 41.2372 239.779 41.3097C239.802 41.3822 239.809 41.4586 239.799 41.534Z" fill="#56708E"/>
<path d="M241.232 41.5341V54.526H240.16V41.5341C240.16 41.3919 240.216 41.2556 240.317 41.155C240.417 41.0545 240.554 40.998 240.696 40.998C240.838 40.998 240.974 41.0545 241.075 41.155C241.175 41.2556 241.232 41.3919 241.232 41.5341Z" fill="#56708E"/>
<path d="M242.664 41.534V54.526H241.6V41.534C241.6 41.3919 241.656 41.2556 241.757 41.155C241.857 41.0545 241.993 40.998 242.136 40.998C242.278 40.998 242.414 41.0545 242.515 41.155C242.615 41.2556 242.672 41.3919 242.672 41.534H242.664Z" fill="#56708E"/>
<path d="M244.095 41.534V54.462C243.743 54.462 243.383 54.462 243.023 54.462V41.534C243.023 41.3919 243.08 41.2556 243.18 41.155C243.281 41.0545 243.417 40.998 243.559 40.998C243.702 40.998 243.838 41.0545 243.938 41.155C244.039 41.2556 244.095 41.3919 244.095 41.534Z" fill="#56708E"/>
<path d="M245.519 41.534V54.414H244.447V41.534C244.447 41.3919 244.504 41.2556 244.604 41.155C244.705 41.0545 244.841 40.998 244.983 40.998C245.125 40.998 245.262 41.0545 245.362 41.155C245.463 41.2556 245.519 41.3919 245.519 41.534Z" fill="#56708E"/>
<g opacity="0.2">
<path opacity="0.2" d="M242.664 41.534V54.526H241.6V41.534C241.6 41.3919 241.656 41.2556 241.757 41.155C241.857 41.0545 241.993 40.998 242.136 40.998C242.278 40.998 242.414 41.0545 242.515 41.155C242.615 41.2556 242.672 41.3919 242.672 41.534H242.664Z" fill="white"/>
</g>
<path d="M247.223 64.2461H236.855V65.3741H247.223V64.2461Z" fill="#263238"/>
<path opacity="0.2" d="M239.271 40.998C239.129 40.998 238.993 41.0545 238.892 41.155C238.792 41.2556 238.735 41.3919 238.735 41.5341V54.406L239.799 54.446V41.5341C239.799 41.3933 239.744 41.2581 239.645 41.1578C239.546 41.0576 239.412 41.0001 239.271 40.998Z" fill="white"/>
<g opacity="0.2">
<path opacity="0.2" d="M241.232 41.5341V54.526H240.16V41.5341C240.16 41.3919 240.216 41.2556 240.317 41.155C240.417 41.0545 240.554 40.998 240.696 40.998C240.838 40.998 240.974 41.0545 241.075 41.155C241.175 41.2556 241.232 41.3919 241.232 41.5341Z" fill="white"/>
</g>
<g opacity="0.2">
<path opacity="0.2" d="M244.095 41.534V54.462C243.743 54.462 243.383 54.462 243.023 54.462V41.534C243.023 41.3919 243.08 41.2556 243.18 41.155C243.281 41.0545 243.417 40.998 243.559 40.998C243.702 40.998 243.838 41.0545 243.938 41.155C244.039 41.2556 244.095 41.3919 244.095 41.534Z" fill="white"/>
</g>
<g opacity="0.2">
<path opacity="0.2" d="M245.519 41.534V54.414H244.447V41.534C244.447 41.3919 244.504 41.2556 244.604 41.155C244.705 41.0545 244.841 40.998 244.983 40.998C245.125 40.998 245.262 41.0545 245.362 41.155C245.463 41.2556 245.519 41.3919 245.519 41.534Z" fill="white"/>
</g>
<path d="M182.967 9.55322L186.879 16.4572L186.903 16.4892H197.287L193.375 9.57722L193.351 9.55322H182.967Z" fill="#56708E"/>
<path opacity="0.3" d="M182.967 9.55322L186.879 16.4572L186.903 16.4892H197.287L193.375 9.57722L193.351 9.55322H182.967Z" fill="black"/>
<path d="M203.743 6.2893L202.399 21.3453C202.366 21.651 202.222 21.9342 201.995 22.1418C201.769 22.3494 201.474 22.4673 201.167 22.4733H193.919C193.774 22.4765 193.63 22.4487 193.497 22.3918C193.364 22.3349 193.244 22.2502 193.147 22.1434C193.049 22.0365 192.975 21.9101 192.93 21.7724C192.886 21.6348 192.871 21.4892 192.887 21.3453L194.239 6.2893C194.27 5.98216 194.412 5.69706 194.639 5.48778C194.866 5.27851 195.162 5.15953 195.471 5.1533H202.671C202.819 5.14541 202.967 5.16994 203.105 5.22516C203.243 5.28038 203.368 5.36497 203.47 5.47306C203.572 5.58116 203.649 5.71016 203.696 5.85111C203.743 5.99206 203.759 6.14159 203.743 6.2893Z" fill="#263238"/>
<path opacity="0.3" d="M203.255 6.28942L201.943 21.3454C201.91 21.6511 201.766 21.9343 201.54 22.1419C201.313 22.3496 201.018 22.4674 200.711 22.4734H193.951C193.806 22.4766 193.662 22.4488 193.529 22.3919C193.396 22.335 193.277 22.2503 193.179 22.1435C193.081 22.0367 193.008 21.9102 192.963 21.7726C192.918 21.6349 192.903 21.4893 192.919 21.3454L194.239 6.28942C194.27 5.98228 194.413 5.69718 194.64 5.48791C194.866 5.27863 195.162 5.15965 195.471 5.15342H202.223C202.368 5.15141 202.512 5.18027 202.645 5.23809C202.778 5.2959 202.897 5.38135 202.995 5.48877C203.093 5.59619 203.166 5.72312 203.211 5.86115C203.256 5.99919 203.271 6.14517 203.255 6.28942Z" fill="white"/>
<path d="M198.839 12.6815C198.839 12.3055 198.567 12.0735 198.039 12.0735C197.816 12.0691 197.596 12.1175 197.395 12.2149C197.195 12.3122 197.021 12.4557 196.887 12.6335C196.774 12.5692 196.68 12.4762 196.614 12.3637C196.549 12.2513 196.514 12.1235 196.514 11.9935C196.514 11.8634 196.549 11.7356 196.614 11.6232C196.68 11.5108 196.774 11.4177 196.887 11.3535C197.305 11.1593 197.762 11.0635 198.223 11.0735C199.367 11.0735 200.119 11.5855 200.039 12.4815C199.927 13.7055 198.639 13.8415 198.567 14.6495H197.415C197.599 13.5775 198.783 13.3455 198.839 12.6815ZM197.239 15.8815C197.257 15.6862 197.351 15.5058 197.5 15.3787C197.65 15.2517 197.843 15.1881 198.039 15.2015C198.13 15.1926 198.222 15.2042 198.308 15.2353C198.394 15.2665 198.472 15.3164 198.536 15.3816C198.601 15.4467 198.65 15.5254 198.68 15.6119C198.71 15.6983 198.721 15.7904 198.711 15.8815C198.685 16.0751 198.59 16.2528 198.443 16.381C198.295 16.5093 198.106 16.5791 197.911 16.5775C197.816 16.5867 197.72 16.5745 197.631 16.5416C197.542 16.5087 197.461 16.4561 197.395 16.3876C197.329 16.3192 197.279 16.2366 197.249 16.1462C197.219 16.0558 197.21 15.9598 197.223 15.8655L197.239 15.8815Z" fill="white"/>
<path d="M205.167 16.4893H186.863V31.5773H205.167V16.4893Z" fill="#56708E"/>
<path d="M211.631 16.4893H205.167V31.5773H211.631V16.4893Z" fill="#56708E"/>
<path opacity="0.3" d="M211.631 16.4893H201.231V31.5773H211.631V16.4893Z" fill="black"/>
<path d="M215.559 9.55322L211.639 16.4572L211.623 16.4892H201.231L205.151 9.57722L205.167 9.55322H215.559Z" fill="#56708E"/>
<path d="M211.639 16.4575L211.631 16.4895H211.623L211.639 16.4575Z" fill="black"/>
<path d="M205.167 9.55322L205.151 9.57722L205.159 9.55322H205.167Z" fill="black"/>
</svg>
