<svg width="199" height="212" viewBox="0 0 199 212" fill="none" xmlns="http://www.w3.org/2000/svg">
<g filter="url(#filter0_d)">
<path d="M70.9081 2.77032C69.377 0.340897 66.1618 0.0535999 63.9273 1.60097C61.6929 3.14835 60.5781 5.07878 60.0231 8.06264C59.9343 6.72695 59.5724 5.42728 58.9621 4.25278C58.3518 3.07828 57.5075 2.05674 56.4872 1.25823C54.3724 -0.490753 51.1237 -0.500834 49.3821 1.76226C48.3761 3.21575 47.93 5.01659 48.1333 6.80257C48.2768 8.58179 48.6787 10.4417 49.65 11.8076C53.1189 16.6715 55.0806 17.5939 59.6451 21.1473C64.4297 18.0273 65.9799 17.2662 69.8124 12.74C70.889 11.4699 71.4392 9.65034 71.7263 7.89127C72.0717 6.13658 71.7798 4.30921 70.9081 2.77032Z" fill="#EBEBEB"/>
<path d="M17.3779 22.2414C17.7565 21.8014 18.0038 21.2536 18.0889 20.6665C18.174 20.0794 18.0931 19.4789 17.8563 18.94C17.7331 18.5683 17.5384 18.2275 17.2843 17.9389C17.0302 17.6503 16.7222 17.4201 16.3797 17.2627C16.0372 17.1054 15.6676 17.0242 15.2939 17.0244C14.9202 17.0246 14.5507 17.1061 14.2083 17.2638C13.8659 17.4215 13.5582 17.652 13.3043 17.9409C13.0505 18.2297 12.856 18.5707 12.7332 18.9424C12.6103 19.3142 12.5616 19.7086 12.5902 20.1011C12.6189 20.4936 12.7241 20.8756 12.8995 21.2232C13.1186 21.7766 13.489 22.2489 13.9635 22.5801C14.438 22.9112 14.9953 23.0863 15.5645 23.0831C12.0095 25.4571 14.0143 29.7363 14.0143 29.7363L23.0285 25.5881C23.0285 25.5881 21.4017 21.0871 17.3779 22.2414Z" fill="#F5F5F5"/>
<path d="M177.136 94.5944C178.234 94.4403 179.265 93.9503 180.101 93.1852C180.937 92.4201 181.541 91.4135 181.84 90.29C182.73 87.1297 181.17 83.8585 178.356 82.9815C175.543 82.1045 172.548 83.9543 171.658 87.1146C171.326 88.2375 171.317 89.4389 171.632 90.5672C171.947 91.6956 172.572 92.7005 173.428 93.4553C165.242 92.296 163.113 101.384 163.113 101.384L181.639 107.165C181.639 107.165 184.572 98.2184 177.136 94.5944Z" fill="#E0E0E0"/>
<path d="M106.73 159.876C106.73 159.406 106.642 158.94 106.471 158.505C106.3 158.07 106.048 157.675 105.732 157.342C105.416 157.01 105.04 156.747 104.627 156.567C104.213 156.388 103.771 156.297 103.324 156.298L30.3343 156.414C29.8874 156.414 29.4449 156.507 29.0321 156.687C28.6194 156.868 28.2444 157.132 27.9289 157.466C27.6133 157.799 27.3633 158.195 27.1931 158.63C27.023 159.065 26.936 159.532 26.9373 160.002L26.9708 183.642C26.9714 184.112 27.06 184.578 27.2315 185.013C27.4031 185.447 27.6542 185.842 27.9705 186.174C28.2869 186.506 28.6622 186.77 29.0752 186.949C29.4882 187.129 29.9307 187.221 30.3774 187.22L93.7976 187.119L102.204 196.091V187.109H103.381C103.828 187.109 104.271 187.016 104.683 186.836C105.096 186.655 105.471 186.391 105.787 186.058C106.102 185.724 106.352 185.328 106.522 184.893C106.693 184.458 106.78 183.991 106.778 183.521L106.73 159.876Z" fill="#EBEBEB"/>
<path d="M39.521 184.206H39.5975L39.4492 181.686L39.521 184.206Z" fill="#F5F5F5"/>
<path d="M42.6644 158.914C40.0611 158.916 37.5269 159.796 35.4315 161.423C33.3361 163.05 31.7892 165.34 31.0166 167.959C30.2441 170.578 30.2863 173.388 31.137 175.98C31.9878 178.572 33.6026 180.809 35.7458 182.366C35.1364 178.826 34.8162 175.238 34.7889 171.64H34.7267C34.7267 171.429 34.7793 171.111 34.808 170.784C34.8382 170.38 34.8877 169.978 34.9564 169.579C36.3439 163.364 41.3486 162.114 42.3438 162.094C43.4108 162.094 45.2624 161.404 48.0375 164.402C48.8276 165.198 49.3767 166.222 49.6159 167.346C49.8551 168.47 49.7737 169.643 49.382 170.718C49.4346 172.734 49.4681 174.967 49.4155 176.368C49.3006 179.332 46.5447 179.705 46.5447 179.705C46.5447 179.705 46.4107 182.255 46.3725 184.045C49.1562 183.12 51.5336 181.176 53.074 178.565C54.6143 175.953 55.2157 172.847 54.7691 169.808C54.3225 166.77 52.8575 164 50.6396 162.002C48.4216 160.003 45.5974 158.908 42.6787 158.914H42.6644Z" fill="#F5F5F5"/>
<path d="M46.4826 180.436C43.7363 180.612 42.875 178.45 42.875 178.45C43.9509 179.236 45.2218 179.672 46.5305 179.705C46.5305 179.705 49.2912 179.332 49.4012 176.368C49.4539 174.967 49.4012 172.714 49.3678 170.718L48.8893 170.28L44.8941 169.236C45.1908 168.062 44.698 166.62 44.4157 165.95L44.387 165.925C43.6693 170.375 39.1526 170.93 39.1526 170.93L39.454 181.711L39.6023 184.231C41.8276 184.838 44.17 184.775 46.363 184.05C46.4013 182.26 46.5353 179.71 46.5353 179.71L46.4826 180.436ZM44.3583 172.024C44.2869 172.027 44.2164 172.007 44.1557 171.968C44.0949 171.928 44.0467 171.871 44.0172 171.802C43.9877 171.734 43.9782 171.657 43.99 171.583C44.0018 171.509 44.0343 171.44 44.0834 171.386C44.1325 171.331 44.1959 171.293 44.2656 171.277C44.3352 171.261 44.4079 171.266 44.4744 171.294C44.5409 171.321 44.5981 171.369 44.6388 171.43C44.6795 171.492 44.7017 171.565 44.7028 171.641C44.704 171.689 44.6961 171.738 44.6795 171.784C44.6629 171.83 44.6378 171.872 44.6058 171.907C44.5739 171.943 44.5355 171.971 44.493 171.991C44.4506 172.011 44.4048 172.022 44.3583 172.024ZM48.4252 171.943C48.3539 171.946 48.2833 171.926 48.2226 171.887C48.1618 171.848 48.1136 171.79 48.0841 171.721C48.0546 171.653 48.0452 171.577 48.057 171.503C48.0688 171.429 48.1013 171.36 48.1504 171.305C48.1994 171.251 48.2629 171.213 48.3325 171.196C48.4021 171.18 48.4749 171.186 48.5413 171.213C48.6078 171.24 48.6651 171.288 48.7057 171.35C48.7464 171.412 48.7687 171.485 48.7697 171.56C48.7716 171.609 48.7641 171.658 48.7478 171.704C48.7314 171.75 48.7064 171.792 48.6743 171.828C48.6421 171.864 48.6035 171.892 48.5608 171.912C48.518 171.932 48.4719 171.942 48.4252 171.943ZM47.8654 170.864C48.0286 170.743 48.2257 170.683 48.4252 170.693C48.6253 170.701 48.8171 170.779 48.9706 170.915C49.0855 171.021 49.1237 171.116 49.0998 171.136C49.0759 171.157 48.7936 170.955 48.4156 170.94C48.0376 170.925 47.7553 171.126 47.7171 171.076C47.6788 171.026 47.7649 170.965 47.8654 170.864ZM46.2147 171.081C46.5194 171.774 46.7753 172.49 46.9802 173.223L47.2434 174.07C47.3021 174.204 47.3172 174.354 47.2864 174.498C47.2726 174.535 47.2506 174.568 47.2223 174.595C47.194 174.621 47.1603 174.64 47.1238 174.65C47.0699 174.659 47.015 174.659 46.9611 174.65C46.7536 174.67 46.5445 174.662 46.3391 174.624C46.5396 174.562 46.7472 174.528 46.9563 174.524C47.052 174.524 47.1429 174.498 47.162 174.428C47.1699 174.315 47.1484 174.201 47.0998 174.1L46.8271 173.258C46.5711 172.55 46.3663 171.822 46.2147 171.081ZM46.9372 175.698C46.8057 175.907 46.6098 176.063 46.3824 176.138C46.155 176.213 45.9099 176.204 45.6884 176.111C45.5835 176.084 45.4848 176.034 45.3981 175.966C45.3114 175.898 45.2384 175.813 45.1832 175.715C45.128 175.617 45.0918 175.508 45.0767 175.396C45.0616 175.283 45.0678 175.168 45.0951 175.058C44.7075 174.791 46.1668 175.713 46.9372 175.698ZM43.6741 170.965C43.8396 170.846 44.0382 170.787 44.2386 170.799C44.4375 170.806 44.628 170.884 44.7793 171.021C44.8941 171.121 44.9324 171.217 44.9133 171.242C44.8941 171.268 44.6071 171.056 44.2291 171.046C43.8511 171.036 43.5688 171.232 43.5257 171.177C43.4827 171.121 43.5544 171.041 43.6741 170.965Z" fill="#EBEBEB"/>
<path d="M48.4108 171.187C48.3157 171.187 48.2244 171.227 48.1571 171.298C48.0898 171.369 48.052 171.465 48.052 171.565C48.052 171.665 48.0898 171.761 48.1571 171.832C48.2244 171.903 48.3157 171.943 48.4108 171.943C48.4575 171.942 48.5036 171.932 48.5464 171.912C48.5892 171.892 48.6278 171.864 48.6599 171.828C48.692 171.792 48.717 171.75 48.7334 171.704C48.7498 171.658 48.7573 171.609 48.7553 171.56C48.7554 171.463 48.7194 171.369 48.655 171.3C48.5907 171.23 48.5031 171.19 48.4108 171.187Z" fill="#E0E0E0"/>
<path d="M48.4156 170.965C48.7935 170.965 49.0567 171.212 49.0998 171.162C49.1428 171.112 49.0998 171.046 48.9706 170.94C48.8171 170.805 48.6252 170.727 48.4251 170.718C48.2256 170.708 48.0285 170.768 47.8653 170.89C47.7409 170.986 47.6979 171.076 47.717 171.101C47.7361 171.127 48.0376 170.92 48.4156 170.965Z" fill="#E0E0E0"/>
<path d="M44.3439 171.268C44.2727 171.268 44.2032 171.29 44.1441 171.332C44.085 171.373 44.039 171.433 44.012 171.502C43.9849 171.571 43.9781 171.648 43.9924 171.721C44.0066 171.795 44.0412 171.862 44.0919 171.915C44.1426 171.967 44.207 172.003 44.2769 172.017C44.3468 172.031 44.4191 172.023 44.4846 171.993C44.5501 171.964 44.6058 171.915 44.6446 171.852C44.6835 171.789 44.7037 171.716 44.7028 171.641C44.7015 171.541 44.6631 171.446 44.596 171.377C44.5288 171.307 44.4383 171.268 44.3439 171.268Z" fill="#E0E0E0"/>
<path d="M44.2292 171.026C44.6071 171.026 44.8703 171.273 44.9134 171.222C44.9564 171.172 44.9134 171.101 44.7794 171.001C44.6281 170.864 44.4376 170.786 44.2387 170.779C44.0383 170.767 43.8397 170.826 43.6741 170.945C43.5545 171.041 43.5067 171.132 43.5258 171.157C43.545 171.182 43.8512 171.006 44.2292 171.026Z" fill="#E0E0E0"/>
<path d="M47.0998 174.12C47.1483 174.221 47.1698 174.335 47.162 174.448C47.162 174.518 47.0519 174.539 46.9562 174.544C46.7471 174.548 46.5395 174.582 46.339 174.644C46.5444 174.682 46.7535 174.69 46.961 174.67C47.0149 174.679 47.0698 174.679 47.1237 174.67C47.1602 174.66 47.194 174.641 47.2222 174.615C47.2505 174.588 47.2725 174.555 47.2864 174.518C47.3171 174.374 47.302 174.224 47.2433 174.09L46.9801 173.243C46.7752 172.51 46.5193 171.794 46.2146 171.101C46.3653 171.849 46.57 172.584 46.827 173.299L47.0998 174.12Z" fill="#E0E0E0"/>
<path d="M45.6884 176.111C45.9099 176.204 46.155 176.213 46.3824 176.138C46.6098 176.063 46.8056 175.908 46.9371 175.698C46.1668 175.698 44.7075 174.791 45.0951 175.058C45.0678 175.168 45.0616 175.283 45.0767 175.396C45.0918 175.509 45.128 175.617 45.1832 175.715C45.2383 175.813 45.3114 175.898 45.3981 175.967C45.4848 176.035 45.5835 176.084 45.6884 176.111Z" fill="white"/>
<path d="M42.875 178.45C42.875 178.45 43.7362 180.612 46.4826 180.436L46.5305 179.705C45.2217 179.672 43.9509 179.236 42.875 178.45Z" fill="#E0E0E0"/>
<path d="M39.1526 170.93C39.1526 170.93 43.6693 170.376 44.387 165.925L44.4157 165.95C44.6932 166.621 45.186 168.062 44.8941 169.236L48.9276 170.28L49.406 170.718C49.7928 169.642 49.8693 168.47 49.6258 167.348C49.3824 166.226 48.8299 165.205 48.0376 164.413C45.2625 161.414 43.4109 162.084 42.3439 162.104C41.3487 162.104 36.344 163.375 34.9565 169.589C34.8878 169.988 34.8383 170.39 34.8081 170.794C34.7794 171.122 34.7507 171.439 34.7268 171.651H34.789C34.8163 175.248 35.1365 178.837 35.7459 182.377C36.895 183.213 38.172 183.835 39.521 184.216L39.4492 181.721L39.1526 170.93Z" fill="#E0E0E0"/>
<path d="M59.3155 167.648L97.6929 167.584L97.6895 165.357L59.3121 165.42L59.3155 167.648Z" fill="#F5F5F5"/>
<path d="M59.326 173.384L97.7034 173.32L97.7 171.093L59.3226 171.156L59.326 173.384Z" fill="#F5F5F5"/>
<path d="M78.6858 178.918L97.7095 178.887L97.7062 176.659L78.6825 176.69L78.6858 178.918Z" fill="#F5F5F5"/>
<path d="M163.778 70.1591C163.451 69.8598 163.027 69.707 162.595 69.7334C162.163 69.7598 161.758 69.9632 161.467 70.3002C161.177 70.607 160.955 70.9764 160.814 71.3828C160.674 71.7893 160.619 72.223 160.653 72.654C160.536 72.2338 160.334 71.8454 160.061 71.5155C159.787 71.1857 159.449 70.9224 159.07 70.7437C158.685 70.531 158.237 70.4841 157.82 70.6129C157.403 70.7418 157.05 71.0363 156.835 71.4343C156.612 71.9717 156.588 72.5778 156.768 73.1328C156.905 73.707 157.19 74.2302 157.591 74.6449C159.027 75.9403 159.711 76.0915 161.419 76.8879C162.749 75.532 163.184 75.1742 164.108 73.4453C164.347 72.9203 164.446 72.3367 164.395 71.7568C164.39 71.1609 164.169 70.5893 163.778 70.1591Z" fill="#F5F5F5"/>
<path d="M49.0519 25.4468L49.6835 26.7925L51.095 27.0093L50.0758 28.0577L50.3151 29.5395L49.0519 28.8389L47.7936 29.5395L48.0328 28.0577L47.0137 27.0093L48.4251 26.7925L49.0519 25.4468Z" fill="#E0E0E0"/>
<path d="M25.6457 57.2915L26.7893 59.731L29.3395 60.1191L27.4926 62.0143L27.928 64.6907L25.6457 63.4256L23.3635 64.6907L23.8037 62.0143L21.9568 60.1191L24.507 59.731L25.6457 57.2915Z" fill="#E0E0E0"/>
<path d="M41.9085 58.9497L42.2243 59.6201L42.9277 59.731L42.4205 60.2501L42.5401 60.991L41.9085 60.6432L41.277 60.991L41.4014 60.2501L40.8894 59.731L41.5927 59.6201L41.9085 58.9497Z" fill="#E0E0E0"/>
<path d="M147.888 184.237C138.032 176.984 135.797 163.521 136.185 151.419C136.252 149.403 136.041 147.266 136.95 145.497C137.859 143.728 139.993 142.513 141.735 143.36C143.17 144.07 143.778 145.814 144.577 147.256C145.639 149.185 147.198 150.758 149.074 151.792C150.295 152.457 151.806 152.866 153.007 152.165C154.663 151.207 154.859 148.798 154.845 146.787C154.826 143.044 154.805 139.299 154.783 135.552C154.783 133.536 154.783 131.495 155.357 129.59C155.931 127.684 157.271 125.91 159.074 125.371C160.878 124.832 163.132 125.94 163.514 127.891C163.677 128.708 163.514 129.559 163.572 130.411C163.629 131.263 163.993 132.17 164.744 132.402C165.495 132.634 166.27 132.069 166.84 131.48C168.806 129.464 170.141 126.838 171.39 124.242C172.639 121.646 173.849 118.98 175.639 116.767C177.428 114.554 179.897 112.8 182.624 112.639C185.351 112.478 188.27 114.252 188.959 117.075C189.648 119.897 188.083 122.785 186.375 125.073C183.843 128.476 180.857 131.474 177.509 133.975C176.911 134.428 176.256 134.912 176.026 135.658C175.615 136.994 176.82 138.324 178.074 138.768C179.509 139.272 181.036 139.111 182.524 139.272C184.012 139.433 185.624 140.149 186.184 141.631C186.969 143.682 185.337 145.834 183.734 147.246C180.52 150.066 176.868 152.283 172.94 153.798C171.533 154.343 170.069 154.806 168.926 155.855C167.782 156.903 167.112 158.697 167.797 160.114C168.481 161.53 170.237 161.984 171.706 161.696C173.175 161.409 174.49 160.567 175.892 160.013C178.509 158.97 181.897 159.161 183.576 161.525C184.677 163.092 184.777 165.28 184.218 167.15C183.658 169.02 182.529 170.628 181.347 172.115C177.146 177.306 171.777 181.485 165.687 183.707C159.596 185.93 153.974 186.53 147.931 184.211" fill="#FFC857"/>
<path d="M147.735 193.208C148.27 187.597 149.313 182.053 150.85 176.651C152.758 170.058 155.023 163.586 157.634 157.266L159.663 152.281C160.333 150.648 160.993 149.025 161.735 147.483C163.164 144.523 164.747 141.649 166.476 138.874C168.113 136.212 169.754 133.748 171.309 131.454C172.864 129.161 174.352 127.064 175.787 125.204C178.038 122.263 180.506 119.514 183.17 116.984C184.127 116.087 184.864 115.416 185.375 114.968L185.964 114.464C186.027 114.4 186.098 114.346 186.175 114.302C186.118 114.371 186.056 114.433 185.988 114.489L185.428 115.018C184.926 115.482 184.194 116.167 183.265 117.079C180.649 119.651 178.218 122.424 175.993 125.376C174.557 127.236 173.122 129.343 171.557 131.636C169.993 133.929 168.385 136.399 166.773 139.06C165.056 141.824 163.485 144.684 162.065 147.629C161.328 149.166 160.672 150.769 160.007 152.412L157.984 157.392C155.376 163.698 153.106 170.153 151.185 176.726C149.638 182.105 148.574 187.625 148.008 193.213" fill="#263238"/>
<path d="M161.835 147.467C161.745 147.189 161.683 146.902 161.649 146.61C161.548 146.056 161.428 145.249 161.295 144.246C161.027 142.23 160.744 139.468 160.443 136.409C160.141 133.349 159.821 130.582 159.524 128.591C159.376 127.583 159.251 126.792 159.156 126.237C159.09 125.95 159.054 125.656 159.051 125.36C159.158 125.633 159.238 125.917 159.29 126.207C159.424 126.751 159.591 127.553 159.768 128.546C160.127 130.532 160.491 133.304 160.792 136.368C161.094 139.433 161.342 142.124 161.543 144.216C161.639 145.159 161.72 145.95 161.783 146.59C161.831 146.879 161.849 147.174 161.835 147.467Z" fill="#263238"/>
<path d="M186.356 142.639C186.042 142.712 185.721 142.754 185.399 142.765C184.768 142.825 183.859 142.901 182.734 143.042C180.49 143.294 177.4 143.763 174.012 144.433C170.625 145.104 167.582 145.865 165.4 146.48C164.304 146.777 163.424 147.039 162.816 147.221C162.505 147.335 162.185 147.417 161.859 147.467C162.153 147.308 162.461 147.178 162.778 147.079C163.376 146.858 164.247 146.575 165.333 146.223C167.51 145.547 170.553 144.751 173.945 144.065C177.337 143.38 180.452 142.967 182.711 142.775C183.84 142.674 184.758 142.634 185.39 142.619C185.712 142.595 186.035 142.602 186.356 142.639Z" fill="#263238"/>
<path d="M151.156 176.172C151.156 176.172 151.084 176.071 150.983 175.859C150.883 175.648 150.735 175.3 150.567 174.927C150.204 174.11 149.711 172.911 149.132 171.439C147.95 168.48 146.438 164.337 144.826 159.746C143.213 155.154 141.74 150.996 140.62 148.017C140.07 146.565 139.615 145.376 139.28 144.489C139.137 144.105 139.017 143.788 138.921 143.526C138.872 143.417 138.837 143.302 138.816 143.183C138.884 143.279 138.941 143.384 138.984 143.496C139.098 143.748 139.237 144.055 139.405 144.433C139.764 145.245 140.256 146.449 140.84 147.916C142.022 150.875 143.534 155.018 145.146 159.614C146.759 164.211 148.228 168.359 149.352 171.338C149.902 172.79 150.352 173.979 150.692 174.866C150.835 175.25 150.955 175.567 151.05 175.829C151.097 175.939 151.132 176.054 151.156 176.172Z" fill="#263238"/>
<path d="M183.739 165.108C183.638 165.172 183.528 165.219 183.414 165.25L182.457 165.587L178.964 166.777C176.021 167.785 171.964 169.221 167.481 170.809C162.998 172.397 158.936 173.833 155.964 174.751C154.481 175.224 153.28 175.592 152.443 175.829L151.486 176.096C151.376 176.136 151.262 176.158 151.146 176.162C151.247 176.1 151.355 176.053 151.467 176.021L152.424 175.688L155.897 174.493C158.845 173.485 162.897 172.049 167.38 170.461C171.864 168.874 175.931 167.462 178.897 166.52C180.38 166.046 181.586 165.678 182.423 165.441L183.38 165.174C183.497 165.138 183.618 165.116 183.739 165.108Z" fill="#263238"/>
<path d="M189.299 13.2386V19.7557C189.299 20.4642 189.032 21.1437 188.556 21.6446C188.08 22.1456 187.435 22.4271 186.763 22.4271H176.093V26.1418L174.179 22.5884C173.612 22.545 173.082 22.2771 172.695 21.8386C172.308 21.4 172.093 20.8233 172.093 20.2245V13.2386C172.093 12.5314 172.36 11.8533 172.835 11.3532C173.309 10.8532 173.953 10.5723 174.624 10.5723H186.763C187.096 10.5716 187.425 10.6401 187.733 10.7738C188.041 10.9075 188.32 11.1038 188.556 11.3514C188.791 11.5991 188.978 11.8932 189.106 12.2171C189.233 12.5409 189.299 12.888 189.299 13.2386Z" fill="#455A64"/>
<path d="M184.524 17.931C185.1 17.931 185.567 17.439 185.567 16.8322C185.567 16.2253 185.1 15.7334 184.524 15.7334C183.948 15.7334 183.481 16.2253 183.481 16.8322C183.481 17.439 183.948 17.931 184.524 17.931Z" fill="#263238"/>
<path d="M180.562 17.931C181.138 17.931 181.605 17.439 181.605 16.8322C181.605 16.2253 181.138 15.7334 180.562 15.7334C179.986 15.7334 179.519 16.2253 179.519 16.8322C179.519 17.439 179.986 17.931 180.562 17.931Z" fill="#263238"/>
<path d="M175.562 16.8325C175.564 17.0494 175.627 17.2608 175.743 17.4402C175.858 17.6196 176.022 17.7588 176.213 17.8404C176.403 17.9221 176.613 17.9424 176.814 17.8989C177.016 17.8553 177.201 17.7499 177.346 17.5958C177.491 17.4418 177.589 17.246 177.629 17.0331C177.668 16.8202 177.647 16.5998 177.568 16.3996C177.489 16.1995 177.355 16.0284 177.184 15.9081C177.012 15.7878 176.811 15.7237 176.605 15.7236C176.467 15.723 176.33 15.7513 176.203 15.8069C176.076 15.8625 175.96 15.9443 175.863 16.0475C175.766 16.1508 175.689 16.2734 175.637 16.4081C175.586 16.5429 175.56 16.6872 175.562 16.8325Z" fill="#263238"/>
<path d="M44.9372 37.9313C44.933 38.0029 44.9218 38.0738 44.9037 38.143C44.875 38.2992 44.8319 38.5109 44.7793 38.7781C44.6644 39.3527 44.5018 40.1793 44.3008 41.2327C43.8606 43.3849 43.2291 46.4696 42.4587 50.2498V50.3456L42.363 50.3204L39.1478 49.5845C37.7124 49.4988 36.277 49.398 34.7077 49.277C33.1383 49.156 31.545 49.0452 29.88 48.7982C29.4396 48.7384 29.0157 48.583 28.6352 48.3418C28.2548 48.1006 27.9259 47.7789 27.6695 47.397C27.1473 46.6103 26.8988 45.6578 26.9661 44.7004C27.0125 44.2262 27.099 43.7573 27.2245 43.2992C27.3298 42.8405 27.4398 42.3819 27.5451 41.9182L28.2245 39.1158C28.4924 38.0271 28.7699 36.9585 29.0666 35.9051C29.2197 35.3759 29.3728 34.8567 29.545 34.3476C29.5881 34.2166 29.6551 34.0906 29.7125 33.9595C29.7569 33.8842 29.8117 33.8162 29.8752 33.7579C29.948 33.7226 30.0254 33.6988 30.1048 33.6874C30.3657 33.6597 30.6286 33.6597 30.8895 33.6874C32.8397 33.9148 34.7758 34.2598 36.6885 34.7206H36.7698V34.8113C36.7675 34.8365 36.7675 34.8618 36.7698 34.8869C36.7698 34.8869 36.7698 34.8869 36.7028 34.8466C36.6359 34.8063 36.6359 34.8769 36.6359 34.8466C36.6483 34.8245 36.6579 34.8008 36.6646 34.7761C36.7021 34.6654 36.7341 34.5526 36.7603 34.4384C36.8177 34.2015 36.8655 33.9646 36.9086 33.7277C36.9947 33.2539 37.076 32.7851 37.1478 32.3164C37.2539 31.3979 37.4137 30.4873 37.6263 29.5896C37.8602 28.7336 38.2926 27.9524 38.8846 27.3164C39.1723 27.014 39.526 26.7906 39.9148 26.6658C40.3035 26.5411 40.7154 26.5187 41.1143 26.6007H41.2052L41.1812 26.7015L40.3487 30.6077V30.5573C41.5975 33.6722 42.5353 36.0261 43.119 37.4827H43.0903L44.497 37.8355L44.8367 37.9212L44.942 37.9565H44.8223L44.4683 37.8859L43.076 37.5835C42.4779 36.1369 41.5066 33.7982 40.2052 30.6934V30.6682C40.454 29.4737 40.7219 28.1733 41.0138 26.7519L41.0808 26.8678C40.7149 26.7986 40.3384 26.8244 39.9841 26.9429C39.6298 27.0615 39.3082 27.2693 39.0473 27.5483C38.5016 28.1821 38.1151 28.9497 37.9229 29.7811C37.7123 30.6725 37.5525 31.5763 37.4445 32.4878C37.3727 32.9565 37.3009 33.4303 37.21 33.9091C37.167 34.146 37.1191 34.4132 37.0617 34.6248C37.0348 34.7494 37.0013 34.8723 36.9612 34.9928C36.9612 35.023 36.9612 35.0583 36.9229 35.0936C36.9122 35.1136 36.8994 35.1322 36.8847 35.149C36.8701 35.1736 36.8495 35.1936 36.8251 35.2069C36.8007 35.2202 36.7733 35.2263 36.7459 35.2246C36.6359 35.1894 36.6454 35.139 36.6215 35.1188C36.5976 35.0986 36.6215 35.0684 36.6215 35.0533V34.9424L36.7124 35.0533C34.8176 34.6066 32.9008 34.2701 30.9709 34.0452C30.7258 34.02 30.4791 34.02 30.234 34.0452C30.1874 34.0497 30.1419 34.0634 30.1001 34.0855C30.0712 34.1179 30.0455 34.1534 30.0235 34.1914C29.9667 34.3061 29.9156 34.4239 29.8704 34.5442C29.6838 35.0482 29.5307 35.5523 29.3919 36.0563C29.0953 37.0996 28.8226 38.1732 28.5498 39.2569C28.325 40.1994 28.0714 41.1319 27.8752 42.0543C27.7652 42.518 27.6599 42.9817 27.5499 43.4403C27.43 43.8841 27.3452 44.3376 27.2963 44.7962C27.2348 45.6905 27.4662 46.5799 27.9518 47.3163C28.1872 47.6707 28.49 47.9697 28.8408 48.1944C29.1917 48.4191 29.583 48.5646 29.99 48.6218C31.6311 48.8687 33.2483 48.9796 34.7746 49.1258L39.21 49.4484L42.4205 50.2044L42.3104 50.28C43.1142 46.5351 43.7745 43.4807 44.2243 41.3436C44.4587 40.2901 44.6405 39.4585 44.7649 38.8789C44.8271 38.6067 44.8798 38.3748 44.9132 38.2337C44.9126 38.1323 44.9206 38.0311 44.9372 37.9313Z" fill="#263238"/>
<path d="M50.4922 38.0974C50.3848 38.0914 50.2778 38.0796 50.1716 38.0621L49.2912 37.9361L46.0903 37.4321L46.186 37.3615C45.5353 40.5117 44.5975 45.0329 43.5592 50.0631L43.4588 50.5016L43.3631 50.3454L46.5496 51.0913L46.4061 51.177C47.5496 47.4573 48.5544 44.2063 49.2769 41.8474C49.6405 40.6982 49.9324 39.7658 50.1429 39.0904C50.2434 38.788 50.3199 38.541 50.3869 38.3444C50.4096 38.252 50.4417 38.1625 50.4826 38.0773C50.4682 38.1596 50.4474 38.2405 50.4204 38.3192L50.2194 39.05C50.0233 39.7204 49.741 40.6478 49.4252 41.797C48.7218 44.1861 47.7506 47.4825 46.6357 51.2577L46.607 51.3686H46.497L43.3104 50.6276L43.186 50.5974L43.2147 50.4714L43.3057 50.0278L46.009 37.3464V37.2607H46.0855L49.3295 37.8555L50.1812 38.0218C50.2865 38.0389 50.3904 38.0642 50.4922 38.0974Z" fill="#263238"/>
<path d="M157.342 20.1597L158.974 23.6425L162.624 24.1969L159.983 26.9086L160.605 30.7393L157.342 28.9298L154.079 30.7393L154.701 26.9086L152.06 24.1969L155.711 23.6425L157.342 20.1597Z" fill="#FFC857"/>
<path d="M184.51 74.2217L185.323 75.9606L187.151 76.2428L185.83 77.5987L186.141 79.509L184.51 78.6067L182.878 79.509L183.189 77.5987L181.868 76.2428L183.696 75.9606L184.51 74.2217Z" fill="#FFC857"/>
<path d="M30.6553 115.225L31.4734 116.969L33.2964 117.246L31.9758 118.602L32.2868 120.517L30.6553 119.615L29.0237 120.517L29.3347 118.602L28.0142 117.246L29.8419 116.969L30.6553 115.225Z" fill="#FFC857"/>
<path d="M136.056 203.158L75.6976 203.571C73.9718 203.584 72.2605 203.238 70.6616 202.554C69.0626 201.87 67.6073 200.86 66.3788 199.583C65.1502 198.307 64.1726 196.787 63.5015 195.112C62.8305 193.437 62.4794 191.639 62.4681 189.821L61.4107 30.4217C61.3878 26.7478 62.7509 23.2146 65.2004 20.5993C67.6499 17.9839 70.9851 16.5005 74.4727 16.4752L134.845 16.0568C136.572 16.0469 138.284 16.3955 139.882 17.0828C141.481 17.77 142.936 18.7825 144.163 20.0622C145.391 21.3419 146.366 22.8639 147.035 24.5411C147.704 26.2183 148.052 28.0179 148.06 29.837L149.118 189.237C149.134 192.906 147.768 196.433 145.319 199.043C142.871 201.653 139.539 203.133 136.056 203.158Z" fill="#263238"/>
<path d="M134.802 21.5607L123.099 21.6413C122.717 21.6531 122.341 21.744 121.993 21.909C121.644 22.0741 121.33 22.3099 121.068 22.603C120.807 22.8961 120.602 23.2407 120.467 23.6171C120.332 23.9935 120.269 24.3943 120.281 24.7966V27.0294C120.303 27.8414 120.018 28.6293 119.488 29.22C118.959 29.8107 118.229 30.1559 117.458 30.1796L94.6542 30.3409C94.2716 30.3363 93.8936 30.2521 93.542 30.0931C93.1904 29.9342 92.872 29.7035 92.6052 29.4146C92.3385 29.1256 92.1285 28.7839 91.9875 28.4092C91.8465 28.0345 91.7771 27.6341 91.7835 27.231V24.9982C91.7937 24.1849 91.4971 23.4006 90.9589 22.8175C90.4206 22.2345 89.6847 21.9002 88.9127 21.8883L84.7979 21.9135L74.5588 21.9891C73.3493 21.9964 72.1531 22.2548 71.0385 22.7495C69.9239 23.2443 68.9128 23.9657 68.0631 24.8725C67.2135 25.7793 66.5418 26.8536 66.0867 28.0341C65.6315 29.2146 65.4018 30.4781 65.4106 31.7522L66.4393 187.336C66.4475 188.61 66.6937 189.869 67.1638 191.042C67.634 192.216 68.3189 193.28 69.1795 194.174C70.0401 195.069 71.0595 195.776 72.1795 196.255C73.2996 196.735 74.4982 196.977 75.7071 196.968L135.941 196.555C137.15 196.546 138.346 196.287 139.461 195.791C140.575 195.296 141.586 194.574 142.435 193.667C143.285 192.76 143.956 191.685 144.412 190.505C144.867 189.324 145.097 188.061 145.089 186.787L144.06 31.2028C144.045 28.6312 143.061 26.1712 141.325 24.3633C139.589 22.5553 137.243 21.5473 134.802 21.5607Z" fill="#FAFAFA"/>
<path d="M117.702 193.526L118.549 193.662V193.606L117.343 193.47L117.702 193.526Z" fill="#B78876"/>
<path d="M103.975 196.767C103.975 196.641 103.946 196.51 103.936 196.389C103.84 195.312 103.827 194.228 103.898 193.148C103.927 192.77 103.965 192.473 103.999 192.276C104.01 192.181 104.028 192.087 104.051 191.994C102.262 191.792 100.645 191.621 99.3241 191.49L96.6638 191.208L97.0801 196.822L103.975 196.767Z" fill="#B78876"/>
<path d="M108.53 192.513C106.965 192.326 105.477 192.15 104.09 192.009C104.09 192.105 104.061 192.513 104.046 193.173C104.023 194.244 104.069 195.315 104.185 196.379C104.185 196.51 104.219 196.646 104.238 196.777L119.338 196.671C118.888 195.159 118.616 194.211 118.573 194.005C118.569 193.951 118.569 193.897 118.573 193.843L117.707 193.728C115.333 193.385 112.094 192.951 108.53 192.513Z" fill="#B78876"/>
<path d="M104.027 193.143C104.027 192.478 104.08 192.074 104.07 191.979C104.047 192.071 104.029 192.166 104.018 192.261C103.984 192.457 103.946 192.765 103.917 193.133C103.846 194.212 103.859 195.296 103.956 196.374C103.956 196.495 103.984 196.626 103.994 196.752H104.223C104.223 196.621 104.185 196.485 104.171 196.353C104.053 195.288 104.005 194.215 104.027 193.143Z" fill="#A36957"/>
<path d="M85.0852 101.843L82.6594 98.9394L82.8938 98.6874C81.1283 100.119 79.8173 100.991 79.7025 100.532C77.5829 92.3819 77.8413 81.883 78.0422 77.881C78.248 77.5282 78.4776 77.1401 78.7551 76.7167C79.078 76.2247 79.4756 75.7921 79.9321 75.4365C80.4835 74.97 81.0939 74.5866 81.7455 74.2973C82.3627 74.0907 82.4441 73.2137 81.8938 73.0171C81.3436 72.8205 79.6259 73.3397 78.0661 74.8014C76.5064 76.2631 77.0614 72.8861 77.248 71.6562C77.4346 70.4264 77.8317 66.5806 77.5159 66.2278C77.0374 65.7238 76.4298 66.1522 76.2719 67.3921C76.114 68.632 75.3963 72.3064 74.7791 72.1855C74.1619 72.0645 75.1954 65.7994 75.1954 65.7994C75.1954 65.7994 75.6212 64.494 74.9131 64.3327C73.6404 64.0454 72.9992 70.7792 72.9753 71.4244C72.9466 71.8679 72.272 71.7671 72.3294 71.2883C72.3868 70.8095 73.4873 65.0534 72.1906 64.7359C71.2002 64.504 71.6356 70.2802 70.7792 71.3538C69.9227 72.4274 70.8749 66.9284 69.9131 66.7419C69.5591 66.6714 69.2816 66.6764 69.1667 69.9022C69.1908 72.5019 69.3506 75.0982 69.6452 77.6794C69.0376 86.5554 68.1093 113.702 79.6929 112.427C84.4488 111.923 87.889 110.179 90.3626 108.153L85.2048 101.974L85.0852 101.843Z" fill="#B78876"/>
<path d="M111.96 133.763L121.63 134.06C121.673 130.955 121.716 127.931 121.759 125.018C121.706 124.879 121.659 124.738 121.62 124.594V124.146C118.836 124.075 115.64 123.995 112.18 123.899C112.097 127.081 112.024 130.369 111.96 133.763Z" fill="#455A64"/>
<path d="M106.855 123.753L101.305 123.586C101.19 126.762 101.075 130.063 100.96 133.445L106.075 133.586L111.711 133.748C111.778 130.356 111.86 127.059 111.946 123.884L106.855 123.753Z" fill="#455A64"/>
<path d="M121.219 174.746L111.764 174.494C111.764 175.356 111.764 176.207 111.788 177.014C111.826 179.811 111.86 182.291 111.889 184.418L121.314 184.715C121.29 182.82 121.247 180.683 121.238 178.289C121.228 177.175 121.223 176.006 121.219 174.746Z" fill="#455A64"/>
<path d="M121.515 189.756C121.515 191.097 121.549 192.145 121.558 192.866C121.558 193.214 121.558 193.486 121.558 193.677C121.558 193.869 121.558 193.954 121.558 193.954C121.558 193.954 122.362 190.396 123.386 184.973L121.472 184.927C121.448 186.807 121.491 188.43 121.515 189.756Z" fill="#455A64"/>
<path d="M121.415 178.314C121.415 180.693 121.443 182.851 121.458 184.746L123.419 184.811C123.965 181.918 124.573 178.511 125.156 174.832L121.41 174.751C121.41 175.984 121.411 177.172 121.415 178.314Z" fill="#455A64"/>
<path d="M121.51 192.871C121.51 192.145 121.458 191.102 121.419 189.756C121.381 188.41 121.343 186.807 121.319 184.927C118.687 184.867 115.472 184.786 111.888 184.69C111.888 186.157 111.927 187.458 111.941 188.551C111.941 189.907 111.975 190.956 111.984 191.686C111.984 192.034 111.984 192.306 111.984 192.498V192.694C114.018 192.967 115.841 193.239 117.338 193.471L118.544 193.607L121.553 193.954C121.553 193.954 121.553 193.859 121.553 193.677C121.553 193.496 121.525 193.219 121.51 192.871Z" fill="#455A64"/>
<path d="M125.955 134.202C124.104 127.821 122.745 126.868 122.003 125.532C121.97 128.289 121.931 131.142 121.888 134.071L125.955 134.202Z" fill="#455A64"/>
<path d="M111.554 144.136L105.276 143.96L100.587 143.829C100.458 147.226 100.338 150.517 100.224 153.682L104.492 153.803L111.487 154.005C111.496 150.804 111.52 147.528 111.554 144.136Z" fill="#455A64"/>
<path d="M121.788 140.562C121.769 141.782 121.751 142.991 121.735 144.191L127.702 144.398C127.624 142.02 127.322 139.656 126.797 137.341C126.525 136.232 126.262 135.249 126.003 134.362L121.884 134.267C121.855 136.338 121.821 138.43 121.788 140.562Z" fill="#455A64"/>
<path d="M111.707 134.015L106.066 133.859L100.951 133.712C100.913 134.798 100.874 135.888 100.836 136.984C100.756 139.218 100.675 141.414 100.592 143.571L105.281 143.697L111.558 143.879C111.578 142.286 111.598 140.676 111.621 139.05C111.649 137.353 111.678 135.675 111.707 134.015Z" fill="#455A64"/>
<path d="M121.477 144.388C118.687 144.322 115.4 144.236 111.802 144.141C111.764 147.533 111.74 150.829 111.726 154.01C115.324 154.115 118.592 154.216 121.338 154.307C121.376 151.111 121.448 147.78 121.477 144.388Z" fill="#455A64"/>
<path d="M121.625 134.267C118.812 134.201 115.53 134.116 111.956 134.02C111.927 135.68 111.898 137.36 111.87 139.06C111.844 140.69 111.823 142.301 111.807 143.894L121.482 144.191C121.482 142.987 121.515 141.782 121.539 140.562C121.568 138.425 121.597 136.334 121.625 134.267Z" fill="#455A64"/>
<path d="M121.812 88.2388C121.836 88.9646 121.864 90.008 121.903 91.3537C121.903 91.8124 121.931 92.3265 121.941 92.8658C121.941 93.0372 121.965 93.2035 121.97 93.3698L128.19 93.5664C127.118 90.3154 124.73 88.2136 122.156 86.8779C122.06 87.1061 121.938 87.321 121.793 87.5181C121.793 87.6995 121.802 87.9364 121.812 88.2388Z" fill="#455A64"/>
<path d="M121.764 88.2439C121.764 87.9566 121.764 87.7399 121.764 87.5483C121.735 87.5887 121.707 87.634 121.673 87.6743C121.629 87.7239 121.583 87.771 121.534 87.8155C121.26 88.4557 120.861 89.0277 120.362 89.4939C121.086 90.1874 121.596 91.0932 121.826 92.0947C121.826 91.8427 121.826 91.5907 121.826 91.3538C121.788 90.0131 121.774 88.9647 121.764 88.2439Z" fill="#455A64"/>
<path d="M101.855 102.513L93.5301 102.261C93.4248 103.269 93.31 104.277 93.1999 105.285C93.1042 106.202 93.0085 107.104 92.9128 107.987C92.9877 109.717 93.342 111.422 93.9607 113.027L101.463 113.223C101.602 109.357 101.736 105.764 101.855 102.513Z" fill="#455A64"/>
<path d="M112.879 102.568L116.228 102.664C116.394 102.625 116.561 102.598 116.731 102.583C116.654 102.468 116.62 102.367 116.654 102.342C116.664 102.335 116.676 102.332 116.687 102.332C116.699 102.332 116.711 102.335 116.721 102.342C116.326 101.936 116.098 101.385 116.085 100.804C116.085 99.6097 116.869 98.5512 117.611 97.5784C116.907 96.3379 116.589 94.8961 116.702 93.4555L113.281 93.3647C113.185 95.5573 113.07 98.143 112.941 101.076C112.922 101.565 112.903 102.064 112.879 102.568Z" fill="#455A64"/>
<path d="M107.649 113.652L101.654 113.506C101.549 116.631 101.434 119.927 101.31 123.365L106.865 123.516L111.951 123.662C112.047 120.22 112.147 116.918 112.257 113.803L107.649 113.652Z" fill="#455A64"/>
<path d="M121.869 86.7217C121.869 86.8376 121.817 86.9485 121.788 87.0594C121.845 86.9577 121.894 86.8515 121.936 86.7418L121.869 86.7217Z" fill="#455A64"/>
<path d="M109.898 112.09C108.819 111.937 107.797 111.49 106.932 110.794C106.671 110.587 106.429 110.354 106.209 110.099C106.123 110.011 106.052 109.909 105.999 109.796C106.032 109.761 106.372 110.164 107.037 110.643C107.798 111.203 108.664 111.586 109.576 111.767C110.488 111.949 111.426 111.925 112.329 111.696C112.448 108.511 112.568 105.532 112.688 102.815L106.865 102.659L102.037 102.518C101.922 105.769 101.798 109.363 101.664 113.224L107.654 113.39L112.267 113.521C112.267 112.982 112.305 112.452 112.324 111.923C111.533 112.144 110.709 112.201 109.898 112.09Z" fill="#455A64"/>
<path d="M121.96 93.6973C121.96 94.4937 121.994 95.3505 122.008 96.2729C122.032 98.1933 122.075 100.381 122.085 102.795V102.845C125.329 102.951 127.979 103.042 129.773 103.113C129.539 101.273 129.175 98.7628 128.62 95.3203C128.532 94.79 128.41 94.2663 128.257 93.7528L121.97 93.6016C121.969 93.6337 121.966 93.6657 121.96 93.6973Z" fill="#455A64"/>
<path d="M121.927 107.17C121.927 105.739 121.927 104.363 121.927 103.052L118.281 102.961C118.122 102.988 117.961 102.988 117.802 102.961H117.443C117.477 103.007 117.496 103.042 117.482 103.062C117.467 103.082 117.357 103.062 117.223 103.017C117.234 103.048 117.242 103.08 117.247 103.113C117.295 103.166 117.338 103.223 117.377 103.284C117.612 103.667 117.746 104.109 117.764 104.564C117.783 105.02 117.685 105.472 117.482 105.875C117.419 105.994 117.344 106.106 117.257 106.207C117.19 106.273 117.147 106.303 117.137 106.293C117.128 106.283 117.137 106.232 117.176 106.147C117.214 106.061 117.266 105.945 117.324 105.794C117.465 105.405 117.53 104.99 117.515 104.574C117.5 104.284 117.447 103.997 117.357 103.722C117.452 104.591 117.288 105.469 116.889 106.236C116.489 107.002 115.874 107.619 115.128 108.002L115.367 106.822C115.206 107.013 115.008 107.167 114.788 107.274C114.567 107.38 114.327 107.438 114.085 107.442C114.137 106.907 114.28 106.387 114.506 105.905L113.64 106.273C113.62 105.324 113.951 104.404 114.563 103.707C114.865 103.373 115.226 103.105 115.625 102.916L112.898 102.84C112.793 105.542 112.683 108.496 112.578 111.656C112.745 111.61 112.903 111.56 113.056 111.505C113.817 111.227 114.247 110.93 114.266 110.97C114.286 111.011 114.18 111.076 113.989 111.207C113.713 111.393 113.422 111.552 113.118 111.681C112.956 111.752 112.774 111.817 112.578 111.883C112.578 112.432 112.539 112.981 112.525 113.546L121.793 113.828L121.874 107.437C119.156 107.185 117.161 106.958 117.166 106.898C117.171 106.837 119.176 106.953 121.927 107.17Z" fill="#455A64"/>
<path d="M122.109 107.185L123.544 107.311C127.075 107.624 129.932 107.931 129.927 108.007C129.806 108.024 129.684 108.024 129.563 108.007L130.166 108.052C130.166 108.052 130.362 107.695 129.788 103.219C127.994 103.188 125.338 103.128 122.085 103.047C122.099 104.368 122.104 105.749 122.109 107.185Z" fill="#455A64"/>
<path d="M102.047 102.261L106.874 102.392L112.697 102.563C112.721 102.059 112.745 101.555 112.764 101.051C112.898 98.1229 113.027 95.5373 113.137 93.3447L110.96 93.2842L102.348 93.0322C102.286 94.9375 102.214 97.0998 102.138 99.4889C102.114 100.401 102.08 101.318 102.047 102.261Z" fill="#455A64"/>
<path d="M94.6543 92.6137C96.8887 92.6641 99.4389 92.7297 102.233 92.8053C102.305 91.0008 102.367 89.4333 102.42 88.148C102.472 86.8627 102.52 85.774 102.554 85.0583V84.6299C100.109 84.5976 97.684 85.0951 95.4294 86.0916C95.3002 87.145 95.1375 88.5008 94.9509 90.1238C94.86 90.8849 94.7548 91.7266 94.6543 92.6137Z" fill="#455A64"/>
<path d="M101.453 113.471L94.0659 113.249C94.1317 113.396 94.2051 113.539 94.286 113.677L97.8649 119.907L97.2812 123.234L101.109 123.335C101.214 119.897 101.353 116.601 101.453 113.471Z" fill="#455A64"/>
<path d="M112.19 123.647L121.63 123.929L121.75 114.025C118.989 113.96 115.85 113.874 112.477 113.783C112.357 116.898 112.281 120.2 112.19 123.647Z" fill="#455A64"/>
<path d="M100.587 136.973C100.632 135.875 100.672 134.784 100.707 133.702L95.219 133.541C94.3593 136.777 93.6645 140.06 93.1377 143.375L100.358 143.561C100.434 141.404 100.511 139.208 100.587 136.973Z" fill="#455A64"/>
<path d="M116.621 84.9527C115.769 84.7667 114.908 84.6304 114.042 84.5444C113.897 84.5884 113.747 84.6105 113.597 84.61C113.305 84.61 112.889 84.6553 112.367 84.6704C111.329 84.7108 109.898 84.7259 108.314 84.7208L104.262 84.6906C103.305 84.6906 102.716 84.6906 102.606 84.6402C102.606 84.7662 102.606 84.9073 102.606 85.0636C102.606 85.7793 102.559 86.8176 102.52 88.1533C102.482 89.489 102.425 91.0061 102.367 92.8055L110.98 93.0424L113.166 93.1029C113.238 91.7672 113.305 90.5827 113.362 89.5747C113.444 88.2239 113.506 87.1755 113.549 86.4497C113.573 86.0969 113.592 85.8297 113.601 85.6382C113.611 85.4467 113.63 85.361 113.63 85.361C113.63 85.361 113.63 85.4567 113.63 85.6382C113.63 85.8196 113.63 86.1019 113.597 86.4497C113.568 87.1755 113.52 88.2289 113.458 89.5797C113.415 90.5878 113.362 91.7722 113.305 93.1079L116.74 93.2087C116.881 91.8646 117.379 90.5895 118.176 89.5293C117.587 88.9539 117.138 88.2376 116.868 87.4411C116.597 86.6445 116.512 85.791 116.621 84.9527Z" fill="#455A64"/>
<path d="M121.927 102.795C121.927 100.381 121.898 98.1936 121.888 96.2783C121.888 95.6735 121.888 95.109 121.888 94.5596C121.65 95.75 121.03 96.8178 120.132 97.5838C120.379 98.2319 120.486 98.9294 120.447 99.6263C120.408 100.323 120.224 101.003 119.908 101.616C119.683 102.083 119.338 102.474 118.912 102.745L121.941 102.841L121.927 102.795Z" fill="#455A64"/>
<path d="M99.3384 191.293C101.697 191.495 104.951 191.797 108.539 192.256C109.731 192.397 110.879 192.548 111.979 192.694C111.979 192.647 111.979 192.582 111.979 192.498C111.979 192.306 111.979 192.034 111.951 191.686C111.927 190.961 111.898 189.907 111.86 188.556C111.826 187.463 111.798 186.157 111.764 184.69L103.267 184.459L99.0944 184.338C99.0944 184.842 99.0514 185.346 99.037 185.799C98.9796 187.135 98.9318 188.173 98.903 188.889C98.8839 189.225 98.8695 189.492 98.86 189.69C98.86 189.872 98.8361 189.963 98.8361 189.963C98.8361 189.963 98.8361 189.872 98.8361 189.69C98.8361 189.509 98.8361 189.232 98.8361 188.889C98.86 188.168 98.8887 187.13 98.927 185.799C98.927 185.346 98.9557 184.852 98.97 184.333L95.0706 184.222C95.7117 189.227 95.8744 191.016 95.8744 191.016L96.3815 191.071H96.5538C97.2045 191.127 98.1566 191.192 99.3384 191.293Z" fill="#455A64"/>
<path d="M101.08 123.586L97.2523 123.476L95.8934 131.147C95.7308 131.691 95.5202 132.422 95.281 133.314L100.716 133.455C100.841 130.063 100.965 126.767 101.08 123.586Z" fill="#455A64"/>
<path d="M121.448 164.629C121.42 168.188 121.4 171.525 121.4 174.569L125.166 174.7C125.673 171.525 126.156 168.148 126.568 164.735C125.276 164.715 123.544 164.68 121.448 164.629Z" fill="#455A64"/>
<path d="M98.9606 184.07C99.0419 181.55 99.1472 178.289 99.2716 174.433V174.161L93.6975 173.99C94.286 178.193 94.7214 181.459 95.042 183.954L98.9606 184.07Z" fill="#455A64"/>
<path d="M121.238 164.625C118.549 164.564 115.31 164.483 111.707 164.388C111.707 167.941 111.735 171.248 111.759 174.267C115.372 174.373 118.592 174.473 121.219 174.564C121.209 171.52 121.214 168.183 121.238 164.625Z" fill="#455A64"/>
<path d="M99.6543 163.793C99.7595 160.693 99.8744 157.397 99.9988 153.934L92.0611 153.697C91.9025 156.998 91.9745 160.307 92.2764 163.596L99.6543 163.793Z" fill="#455A64"/>
<path d="M99.3002 173.909C99.4055 170.935 99.5203 167.634 99.6447 164.05L92.3003 163.833C92.3864 164.705 92.4869 165.577 92.6161 166.449C93.0036 169.151 93.3481 171.575 93.6543 173.758L99.3002 173.909Z" fill="#455A64"/>
<path d="M103.697 164.166L99.8409 164.055C99.707 167.639 99.5873 170.94 99.4773 173.914L102.913 174.01L111.573 174.262C111.535 171.238 111.506 167.931 111.491 164.383L103.697 164.166Z" fill="#455A64"/>
<path d="M111.577 174.493L102.903 174.257L99.4676 174.156C99.4676 174.246 99.4676 174.342 99.4676 174.433C99.3145 178.284 99.1901 181.535 99.0896 184.065L103.257 184.181L111.754 184.423C111.707 182.296 111.664 179.821 111.621 177.029C111.601 176.227 111.587 175.376 111.577 174.493Z" fill="#455A64"/>
<path d="M121.731 144.393C121.683 147.8 121.635 151.117 121.592 154.317C124.065 154.398 126.099 154.469 127.539 154.524C127.77 151.197 127.826 147.858 127.707 144.524L121.731 144.393Z" fill="#455A64"/>
<path d="M121.587 154.509C121.554 156.853 121.52 159.136 121.491 161.343C121.491 162.397 121.491 163.425 121.463 164.443C123.554 164.509 125.29 164.574 126.592 164.625C126.994 161.273 127.324 157.896 127.549 154.635C126.089 154.615 124.061 154.569 121.587 154.509Z" fill="#455A64"/>
<path d="M111.482 154.257L104.487 154.065L100.214 153.944C100.085 157.402 99.9652 160.698 99.8503 163.798L103.678 163.904L111.463 164.131C111.477 161.011 111.472 157.704 111.482 154.257Z" fill="#455A64"/>
<path d="M100.003 153.677C100.118 150.512 100.233 147.215 100.348 143.818L93.0992 143.602C92.5784 146.868 92.2349 150.163 92.0706 153.47L100.003 153.677Z" fill="#455A64"/>
<path d="M121.333 154.504C118.592 154.438 115.324 154.357 111.721 154.262C111.721 157.709 111.721 161.016 111.721 164.136L121.252 164.433C121.252 163.425 121.252 162.392 121.276 161.338C121.281 159.136 121.305 156.852 121.333 154.504Z" fill="#455A64"/>
<path d="M94.4486 92.6091C94.5634 91.712 94.6735 90.8702 94.7787 90.089C94.9893 88.5013 95.1759 87.1706 95.3242 86.1475C93.5646 86.9544 91.9949 88.1589 90.7262 89.6757C89.8984 90.6837 89.1185 91.6061 88.3865 92.468C89.9128 92.5033 91.9749 92.5486 94.4486 92.6091Z" fill="#455A64"/>
<path d="M92.9558 105.26C93.0675 104.252 93.1775 103.244 93.286 102.236C90.0133 102.13 87.243 102.039 85.2 101.963L90.3482 108.163L90.8027 108.702L92.8123 106.485C92.8649 106.076 92.908 105.668 92.9558 105.26Z" fill="#455A64"/>
<path d="M85.085 101.843C87.1424 101.883 89.9701 101.949 93.3145 102.034C93.6973 98.627 94.0801 95.4818 94.4246 92.8054C91.9079 92.7248 89.817 92.6542 88.2907 92.5938C85.5012 95.8699 83.5348 98.002 82.8936 98.6875L82.6592 98.9395L85.085 101.843Z" fill="#455A64"/>
<path d="M93.5586 102.039C96.0705 102.099 98.8743 102.175 101.865 102.256C101.898 101.313 101.932 100.386 101.965 99.4986C102.061 97.1095 102.147 94.9623 102.219 93.047L94.6256 92.8403C94.305 95.4915 93.9366 98.6316 93.5586 102.039Z" fill="#455A64"/>
<path d="M111.802 144.141H111.554C111.52 147.533 111.496 150.829 111.487 154.01H111.726C111.74 150.829 111.764 147.533 111.802 144.141Z" fill="#263238"/>
<path d="M112.324 111.923C112.324 112.452 112.286 112.981 112.267 113.521H112.487C112.487 112.956 112.52 112.407 112.539 111.857L112.324 111.923Z" fill="#263238"/>
<path d="M112.257 113.778C112.147 116.893 112.047 120.194 111.951 123.637H112.19C112.281 120.189 112.377 116.888 112.477 113.773L112.257 113.778Z" fill="#263238"/>
<path d="M111.946 123.894C111.86 127.069 111.778 130.366 111.711 133.758H111.96C112.027 130.364 112.102 127.076 112.185 123.894H111.946Z" fill="#263238"/>
<path d="M113.582 86.4495C113.582 86.1018 113.606 85.8296 113.616 85.6381C113.625 85.4465 113.616 85.3608 113.616 85.3608C113.616 85.3608 113.616 85.4516 113.587 85.6381C113.558 85.8245 113.558 86.0967 113.534 86.4495C113.491 87.1754 113.429 88.2237 113.348 89.5745C113.29 90.5826 113.223 91.7671 113.152 93.1027H113.314C113.372 91.7671 113.424 90.5826 113.467 89.5745C113.506 88.2288 113.554 87.1754 113.582 86.4495Z" fill="#263238"/>
<path d="M112.697 102.564H112.879C112.903 102.06 112.922 101.556 112.941 101.052C113.07 98.118 113.185 95.5324 113.281 93.3398H113.137C113.027 95.5324 112.898 98.118 112.764 101.046C112.745 101.556 112.721 102.06 112.697 102.564Z" fill="#263238"/>
<path d="M111.955 134.02H111.707C111.678 135.68 111.649 137.36 111.621 139.06C111.598 140.69 111.577 142.3 111.558 143.889H111.807C111.826 142.296 111.847 140.685 111.869 139.055C111.898 137.358 111.927 135.68 111.955 134.02Z" fill="#263238"/>
<path d="M112.329 111.696L112.549 111.636C112.654 108.476 112.764 105.522 112.87 102.82H112.688C112.568 105.532 112.448 108.511 112.329 111.696Z" fill="#263238"/>
<path d="M111.721 154.262H111.482C111.482 157.709 111.482 161.016 111.482 164.136H111.702C111.702 161.016 111.707 157.709 111.721 154.262Z" fill="#263238"/>
<path d="M111.491 164.383C111.491 167.911 111.535 171.243 111.573 174.262H111.759C111.735 171.238 111.716 167.936 111.707 164.383H111.491Z" fill="#263238"/>
<path d="M111.984 191.686C111.984 190.956 111.96 189.907 111.941 188.551C111.941 187.458 111.908 186.157 111.888 184.69H111.75C111.783 186.157 111.812 187.463 111.845 188.556C111.884 189.907 111.912 190.961 111.936 191.686C111.936 192.034 111.96 192.306 111.965 192.498C111.965 192.582 111.965 192.647 111.965 192.694V192.498C111.989 192.306 111.989 192.034 111.984 191.686Z" fill="#263238"/>
<path d="M111.764 174.494H111.577C111.577 175.361 111.601 176.212 111.611 177.014C111.654 179.806 111.697 182.281 111.745 184.408H111.888C111.86 182.281 111.826 179.801 111.788 177.004C111.778 176.228 111.769 175.376 111.764 174.494Z" fill="#263238"/>
<path d="M121.889 134.07C121.932 131.142 121.97 128.289 122.003 125.532C121.911 125.37 121.829 125.202 121.759 125.028C121.716 127.941 121.673 130.965 121.63 134.07H121.889Z" fill="#263238"/>
<path d="M121.884 134.272H121.625C121.597 136.338 121.568 138.43 121.539 140.562C121.515 141.782 121.496 142.987 121.482 144.191H121.735C121.735 142.992 121.753 141.782 121.788 140.562C121.821 138.43 121.855 136.338 121.884 134.272Z" fill="#263238"/>
<path d="M121.927 102.795V102.841H122.104V102.79C122.104 100.376 122.051 98.1883 122.027 96.268C122.027 95.3456 121.998 94.4888 121.979 93.6924C121.966 93.9821 121.93 94.2703 121.874 94.5543C121.874 95.1037 121.874 95.6682 121.874 96.273C121.879 98.1934 121.927 100.401 121.927 102.795Z" fill="#263238"/>
<path d="M121.927 107.17H122.123C122.123 105.734 122.123 104.353 122.099 103.042H121.927C121.927 104.363 121.927 105.739 121.927 107.17Z" fill="#263238"/>
<path d="M121.812 88.239C121.812 87.9366 121.812 87.6997 121.788 87.5132L121.759 87.5485C121.759 87.7299 121.759 87.9567 121.759 88.244C121.759 88.9648 121.759 90.0132 121.802 91.3539C121.802 91.5908 121.802 91.8579 121.802 92.0948C121.859 92.3403 121.901 92.5895 121.927 92.8408C121.927 92.3116 121.927 91.7974 121.888 91.3287C121.865 90.0081 121.836 88.9648 121.812 88.239Z" fill="#263238"/>
<path d="M121.73 144.393H121.477C121.424 147.795 121.376 151.117 121.338 154.312H121.592C121.635 151.117 121.683 147.78 121.73 144.393Z" fill="#263238"/>
<path d="M121.558 192.866C121.558 192.145 121.534 191.097 121.515 189.756C121.496 188.415 121.467 186.807 121.458 184.927H121.319C121.319 186.807 121.381 188.43 121.42 189.756C121.458 191.081 121.491 192.145 121.51 192.871C121.51 193.219 121.534 193.486 121.539 193.677C121.544 193.869 121.539 193.954 121.539 193.954C121.539 193.954 121.539 193.859 121.539 193.677C121.539 193.496 121.563 193.214 121.558 192.866Z" fill="#263238"/>
<path d="M121.448 164.629H121.228C121.204 168.188 121.2 171.525 121.228 174.569H121.42C121.41 171.525 121.448 168.188 121.448 164.629Z" fill="#263238"/>
<path d="M121.41 174.751H121.219C121.219 175.986 121.219 177.18 121.219 178.32C121.219 180.699 121.271 182.856 121.295 184.746H121.439C121.439 182.846 121.391 180.714 121.396 178.314C121.405 177.175 121.41 175.988 121.41 174.751Z" fill="#263238"/>
<path d="M121.587 154.509H121.333C121.305 156.853 121.281 159.141 121.262 161.343C121.262 162.397 121.262 163.425 121.238 164.438H121.463C121.463 163.43 121.463 162.392 121.491 161.338C121.52 159.136 121.554 156.853 121.587 154.509Z" fill="#263238"/>
<path d="M100.587 143.829H100.348C100.233 147.226 100.118 150.522 100.004 153.687H100.224C100.339 150.517 100.458 147.226 100.587 143.829Z" fill="#263238"/>
<path d="M101.865 102.256H102.047C102.08 101.313 102.114 100.386 102.142 99.504C102.219 97.1149 102.291 94.9677 102.353 93.0474H102.219C102.147 94.9526 102.061 97.1098 101.965 99.499C101.932 100.401 101.898 101.313 101.865 102.256Z" fill="#263238"/>
<path d="M101.08 123.586C100.965 126.767 100.841 130.063 100.717 133.445H100.961C101.075 130.063 101.19 126.762 101.305 123.586H101.08Z" fill="#263238"/>
<path d="M101.453 113.471C101.338 116.601 101.214 119.897 101.09 123.335H101.31C101.434 119.897 101.549 116.601 101.654 113.476L101.453 113.471Z" fill="#263238"/>
<path d="M102.415 88.1482C102.362 89.4335 102.3 91.001 102.229 92.8054H102.358C102.415 91.006 102.468 89.4385 102.511 88.1532C102.554 86.868 102.578 85.7793 102.597 85.0635C102.597 84.9073 102.597 84.7661 102.597 84.6401H102.573V85.0686C102.516 85.7843 102.473 86.7923 102.415 88.1482Z" fill="#263238"/>
<path d="M101.855 102.513C101.736 105.764 101.602 109.358 101.463 113.219H101.664C101.798 109.358 101.922 105.764 102.037 102.513H101.855Z" fill="#263238"/>
<path d="M100.951 133.712H100.707C100.669 134.798 100.629 135.888 100.587 136.984C100.511 139.218 100.434 141.414 100.358 143.571H100.592C100.675 141.411 100.756 139.215 100.836 136.984C100.862 135.885 100.9 134.794 100.951 133.712Z" fill="#263238"/>
<path d="M99.4678 174.171H99.2907V174.443C99.1663 178.299 99.0611 181.55 98.9797 184.08H99.0898C99.1903 181.56 99.3147 178.299 99.4678 174.448C99.463 174.357 99.463 174.262 99.4678 174.171Z" fill="#263238"/>
<path d="M99.6448 164.05C99.5204 167.634 99.4056 170.935 99.3003 173.909H99.4773C99.5874 170.935 99.707 167.634 99.841 164.05H99.6448Z" fill="#263238"/>
<path d="M99.9988 153.934C99.8744 157.397 99.7596 160.693 99.6543 163.793H99.8505C99.9653 160.693 100.085 157.397 100.214 153.939L99.9988 153.934Z" fill="#263238"/>
<path d="M98.9176 185.799C98.8793 187.13 98.8506 188.168 98.8267 188.889C98.8267 189.225 98.8267 189.492 98.8267 189.69C98.8267 189.872 98.8267 189.962 98.8267 189.962C98.8267 189.962 98.8267 189.872 98.8506 189.69C98.8745 189.509 98.8506 189.232 98.8936 188.889C98.9224 188.173 98.9702 187.135 99.0276 185.799C99.0276 185.351 99.0659 184.852 99.085 184.337H98.9606C98.9606 184.852 98.9319 185.345 98.9176 185.799Z" fill="#263238"/>
<path d="M94.4487 92.609H94.6545C94.7597 91.7219 94.865 90.8802 94.9559 90.0889C95.1569 88.481 95.3195 87.1252 95.4344 86.0566L95.3147 86.1121C95.1664 87.1201 94.9798 88.4659 94.7693 90.0536C94.6545 90.8701 94.5636 91.7119 94.4487 92.609Z" fill="#263238"/>
<path d="M93.5299 102.261H93.2859C93.1774 103.239 93.0674 104.247 92.9557 105.285C92.9079 105.693 92.8648 106.101 92.8218 106.51L92.8696 106.459C92.8696 106.459 92.8696 107.089 92.9127 108.012C93.0084 107.13 93.1041 106.227 93.1998 105.31C93.3098 104.262 93.4246 103.249 93.5299 102.261Z" fill="#263238"/>
<path d="M94.6256 92.8403H94.4198C94.0754 95.5218 93.6926 98.6619 93.3098 102.069H93.5586C93.9366 98.6316 94.305 95.4915 94.6256 92.8403Z" fill="#263238"/>
<path d="M121.97 93.6016L128.257 93.7529L128.185 93.5613L121.965 93.3647C121.97 93.4404 121.974 93.521 121.97 93.6016Z" fill="#263238"/>
<path d="M94.42 92.8055H94.6258L102.219 93.0373H102.353L110.965 93.2893L113.142 93.3498H113.286L116.707 93.4406C116.707 93.3549 116.707 93.2692 116.731 93.1885L113.295 93.0877H113.157L110.97 93.0272L102.358 92.7904H102.229C99.4439 92.7147 96.8841 92.6492 94.6497 92.5988H94.4487C91.9751 92.5383 89.9129 92.493 88.3866 92.4678L88.2861 92.5837C89.8124 92.6543 91.9033 92.7248 94.42 92.8055Z" fill="#263238"/>
<path d="M106.865 102.659L112.688 102.815H112.869L115.597 102.891C115.799 102.792 116.011 102.714 116.228 102.659L112.879 102.563H112.697L106.874 102.417L102.047 102.286H101.865C98.8744 102.206 96.0706 102.13 93.5587 102.069H93.3099C89.9606 101.984 87.1377 101.918 85.0803 101.878L85.1999 102.019C87.243 102.095 90.0133 102.185 93.2859 102.291H93.53L101.855 102.543H102.037L106.865 102.659Z" fill="#263238"/>
<path d="M117.415 102.921H117.774C117.589 102.884 117.41 102.817 117.243 102.725C117.305 102.785 117.363 102.85 117.415 102.921Z" fill="#263238"/>
<path d="M121.927 102.84L118.898 102.745C118.767 102.823 118.627 102.884 118.482 102.926C118.416 102.943 118.348 102.955 118.281 102.961L121.927 103.052H122.104C125.357 103.133 128.013 103.193 129.807 103.223V103.108C128.013 103.037 125.362 102.946 122.118 102.84H121.927Z" fill="#263238"/>
<path d="M101.654 113.506L107.649 113.677L112.257 113.803H112.477C115.85 113.894 118.989 113.98 121.75 114.045V113.829L112.487 113.506H112.267L107.654 113.375L101.664 113.209H101.463L93.9607 113.002C93.9942 113.083 94.0277 113.153 94.066 113.229L101.453 113.451L101.654 113.506Z" fill="#263238"/>
<path d="M101.305 123.586L106.855 123.742L111.946 123.884H112.185C115.644 123.979 118.841 124.06 121.625 124.131V123.914L112.185 123.632H111.946L106.86 123.485L101.305 123.334H101.085L97.2572 123.233L97.2141 123.475L101.042 123.586H101.305Z" fill="#263238"/>
<path d="M100.951 133.712L106.066 133.859L111.707 134.015H111.956C115.53 134.111 118.812 134.196 121.625 134.262H121.884L126.003 134.358C126.003 134.302 125.975 134.247 125.955 134.191L121.888 134.06H121.63L111.96 133.763H111.712L106.075 133.602L100.961 133.46H100.717L95.2812 133.319C95.2573 133.395 95.2381 133.476 95.219 133.556L100.707 133.718L100.951 133.712Z" fill="#263238"/>
<path d="M100.587 143.829L105.276 143.96L111.554 144.136H111.803C115.401 144.232 118.688 144.318 121.477 144.383H121.731L127.707 144.514C127.704 144.472 127.704 144.43 127.707 144.388L121.74 144.181H121.487L111.812 143.884H111.563L105.286 143.703L100.597 143.577H100.363L93.1425 143.39C93.1425 143.466 93.1186 143.541 93.1042 143.617L100.353 143.834L100.587 143.829Z" fill="#263238"/>
<path d="M99.9986 153.934H100.214L104.487 154.055L111.482 154.246H111.721C115.324 154.342 118.592 154.423 121.333 154.488H121.587C124.06 154.549 126.089 154.594 127.534 154.614V154.503C126.099 154.448 124.06 154.377 121.587 154.297H121.333C118.587 154.206 115.319 154.105 111.721 153.999H111.482L104.487 153.798L100.219 153.677H99.9986L92.0657 153.47C92.0657 153.546 92.0657 153.621 92.0657 153.697L99.9986 153.934Z" fill="#263238"/>
<path d="M99.6446 164.05H99.8408L103.697 164.161L111.491 164.378H111.707C115.309 164.474 118.549 164.554 121.238 164.615H121.448C123.534 164.665 125.276 164.7 126.568 164.721V164.61C125.271 164.559 123.529 164.494 121.439 164.428H121.214L111.683 164.131H111.463L103.702 163.909L99.8743 163.803H99.6781L92.262 163.597C92.262 163.677 92.262 163.753 92.2859 163.834L99.6446 164.05Z" fill="#263238"/>
<path d="M99.2907 174.166H99.4677L102.903 174.267L111.578 174.504H111.764L121.219 174.736H121.41L125.156 174.816C125.159 174.773 125.159 174.729 125.156 174.685L121.391 174.554H121.199C118.573 174.463 115.353 174.363 111.74 174.257H111.554L102.894 174.005L99.4581 173.909H99.2811L93.6353 173.758L93.6687 174.005L99.2907 174.166Z" fill="#263238"/>
<path d="M98.9607 184.332H99.0707L103.243 184.453L111.75 184.685H111.879C115.463 184.781 118.678 184.861 121.31 184.922H121.448L123.362 184.967C123.362 184.912 123.362 184.861 123.396 184.806L121.434 184.74H121.291L111.865 184.443H111.721L103.267 184.196L99.0994 184.08H98.9607L95.0229 183.974L95.0517 184.226L98.9607 184.332Z" fill="#263238"/>
<path d="M104.262 84.6906L108.314 84.7208C109.898 84.7208 111.329 84.7208 112.367 84.6704C112.888 84.6704 113.324 84.6301 113.597 84.6099C113.747 84.6105 113.897 84.5884 114.042 84.5444C113.942 84.5156 113.838 84.5053 113.735 84.5141V84.5393L104.463 84.499H104.257C103.736 84.499 103.3 84.5393 103.027 84.5645C102.876 84.5628 102.724 84.5831 102.578 84.625H102.602C102.716 84.6704 103.324 84.6805 104.262 84.6906Z" fill="#263238"/>
<path d="M109.932 111.828C108.892 111.677 107.901 111.272 107.037 110.643C106.372 110.165 106.032 109.761 105.999 109.797C106.052 109.909 106.123 110.011 106.209 110.099C106.429 110.354 106.671 110.587 106.932 110.795C107.688 111.405 108.568 111.825 109.503 112.021C110.438 112.216 111.403 112.183 112.324 111.924L112.539 111.863C112.736 111.798 112.917 111.732 113.08 111.661C113.384 111.532 113.675 111.374 113.951 111.188C114.142 111.057 114.238 110.966 114.228 110.951C114.219 110.936 113.779 111.208 113.018 111.485C112.874 111.541 112.716 111.591 112.539 111.636L112.319 111.697C111.537 111.891 110.729 111.935 109.932 111.828Z" fill="#263238"/>
<path d="M129.927 108.007C129.927 107.931 127.056 107.624 123.544 107.311L122.108 107.185H121.912C119.176 106.959 117.128 106.833 117.128 106.893C117.128 106.954 119.118 107.18 121.836 107.432L123.51 107.589C126.305 107.836 128.678 108.007 129.549 108.032C129.675 108.042 129.802 108.033 129.927 108.007Z" fill="#263238"/>
<path d="M113.884 81.5253C114.171 82.6695 115.357 83.6523 117.07 83.4406C116.845 83.9161 116.693 84.4266 116.621 84.9527C116.511 85.7902 116.594 86.6432 116.863 87.4397C117.132 88.2362 117.579 88.9529 118.166 89.5293C117.369 90.5895 116.872 91.8646 116.731 93.2087C116.731 93.2894 116.731 93.3751 116.707 93.4608C116.594 94.9014 116.911 96.3432 117.616 97.5837C116.874 98.5565 116.099 99.5998 116.089 100.81C116.103 101.39 116.331 101.942 116.726 102.347C116.865 102.422 116.994 102.517 117.109 102.629L117.247 102.755C117.414 102.848 117.593 102.914 117.778 102.952C117.937 102.978 118.098 102.978 118.257 102.952C118.325 102.945 118.392 102.933 118.458 102.916C118.603 102.875 118.743 102.814 118.874 102.735C119.3 102.464 119.645 102.073 119.869 101.606C120.186 100.993 120.37 100.313 120.409 99.6162C120.448 98.9193 120.34 98.2218 120.094 97.5736C120.992 96.8077 121.612 95.7399 121.85 94.5495C121.907 94.2655 121.942 93.9773 121.955 93.6876C121.958 93.6557 121.958 93.6237 121.955 93.5918C121.955 93.5112 121.955 93.4305 121.955 93.3549C121.955 93.1835 121.955 93.0172 121.927 92.8509C121.903 92.5946 121.863 92.3404 121.807 92.0898C121.577 91.0883 121.067 90.1825 120.343 89.489C120.842 89.0228 121.241 88.4508 121.515 87.8106C121.257 88.0841 120.952 88.3031 120.616 88.4557C120.352 88.5762 120.07 88.6462 119.783 88.6624C119.705 88.6706 119.627 88.6706 119.549 88.6624C119.496 88.6624 119.467 88.6624 119.467 88.6624C119.467 88.6624 119.496 88.6624 119.549 88.6321C119.601 88.6019 119.673 88.6321 119.769 88.5868C120.437 88.4515 121.041 88.0799 121.482 87.5334C121.594 87.3932 121.691 87.2412 121.774 87.0797C121.802 86.9688 121.836 86.858 121.855 86.742C121.991 86.0437 121.991 85.3234 121.855 84.6251C121.695 84.2469 121.468 83.9046 121.185 83.617C120.898 83.3641 120.587 83.1429 120.257 82.9568C120.257 82.9568 120.286 82.9568 120.338 82.9568C120.415 82.9701 120.491 82.9921 120.563 83.0223C120.835 83.1242 121.086 83.278 121.305 83.4759C121.43 83.5871 121.545 83.7103 121.649 83.8439C121.412 83.1459 121.026 82.5148 120.52 81.9991C121.03 80.7538 121.228 79.3918 121.097 78.0428C120.965 76.6938 120.508 75.4027 119.769 74.2925C119.056 77.5334 117.381 80.6382 113.884 81.5253ZM119.372 89.6452C119.372 89.7158 119.099 89.7057 118.798 89.736C118.496 89.7662 118.243 89.8065 118.219 89.736C118.195 89.6654 118.429 89.494 118.778 89.4688C119.128 89.4436 119.391 89.5747 119.372 89.6452ZM118.501 97.619C118.022 97.5384 117.587 97.5333 117.578 97.4577C117.875 97.3046 118.214 97.2688 118.534 97.3569C119.07 97.4426 119.453 97.6795 119.424 97.745C119.396 97.8105 118.999 97.6946 118.501 97.619ZM118.228 82.3267C118.545 82.1854 118.898 82.1641 119.228 82.2662C119.228 82.3418 118.802 82.4225 118.295 82.5787C117.788 82.735 117.386 82.9064 117.338 82.8408C117.29 82.7753 117.688 82.488 118.228 82.3267Z" fill="#263238"/>
<path d="M106.391 60.6383C106.57 61.4369 106.853 62.2054 107.233 62.9215C107.454 63.3444 107.711 63.7458 107.999 64.1211C108.305 64.5268 108.646 64.9014 109.018 65.2401C109.395 65.5716 109.798 65.8684 110.224 66.1272C110.623 66.3659 111.041 66.5682 111.472 66.732C112.204 67.0099 112.969 67.1795 113.745 67.236H113.956V65.5425C113.956 65.5425 107.501 64.9477 106.142 58.6978C106.142 58.7734 106.142 58.8641 106.142 58.9699C106.177 59.5329 106.26 60.0914 106.391 60.6383Z" fill="#B78876"/>
<path d="M113.74 84.5143L113.85 81.5354H113.817L113.912 71.3591V71.3339C113.868 70.8436 113.88 70.3496 113.946 69.8621L113.97 67.4276H113.755C111.961 67.344 110.244 66.6348 108.874 65.4115C108.492 65.0611 108.142 64.6747 107.826 64.2573C107.533 63.8678 107.273 63.4511 107.051 63.0123C106.669 62.2738 106.394 61.4785 106.238 60.6535C106.127 60.1002 106.077 59.5353 106.09 58.97C106.091 58.8167 106.101 58.6636 106.118 58.5113C106.12 58.498 106.12 58.4844 106.118 58.471C106.118 58.471 106.118 58.471 106.118 58.4458L106.08 58.4861C105.702 59.4942 105.042 61.6162 105.525 63.3248L99.659 65.0335L99.0083 65.6938C99.0083 68.6171 99.0514 71.9236 99.1901 73.9699C99.4772 78.3096 103.535 78.728 103.535 78.728C105.452 78.6163 107.297 77.9154 108.841 76.7119C108.841 76.7119 107.664 79.9175 103.635 79.7814L103.535 78.7129C103.535 78.7129 103.865 83.2995 103.831 84.4538H104.487L113.759 84.4941L113.74 84.5143ZM100.425 67.473C100.285 67.473 100.151 67.4146 100.052 67.3106C99.9537 67.2066 99.8982 67.0656 99.8982 66.9186C99.8982 66.7715 99.9537 66.6305 100.052 66.5265C100.151 66.4225 100.285 66.3641 100.425 66.3641C100.564 66.3641 100.698 66.4225 100.797 66.5265C100.895 66.6305 100.951 66.7715 100.951 66.9186C100.951 67.0656 100.895 67.2066 100.797 67.3106C100.698 67.4146 100.564 67.473 100.425 67.473ZM101.429 66.1675C101.372 66.2482 100.951 65.9559 100.401 66.0012C99.8504 66.0466 99.4676 66.3944 99.4006 66.3238C99.3337 66.2532 99.4006 66.1524 99.5872 65.9911C99.8091 65.775 100.094 65.6451 100.396 65.6232C100.688 65.5977 100.979 65.6758 101.224 65.845C101.386 66.0012 101.458 66.1272 101.429 66.1675ZM102.439 71.3792C102.386 71.3654 102.336 71.3386 102.295 71.3009C102.253 71.2633 102.221 71.2159 102.2 71.1625C102.149 70.9527 102.165 70.731 102.247 70.5325C102.358 70.1343 102.472 69.7159 102.597 69.2774C102.866 68.1966 103.211 67.1385 103.63 66.1121C103.442 67.2142 103.173 68.2994 102.826 69.3581C102.697 69.7915 102.573 70.2048 102.458 70.603C102.384 70.7588 102.357 70.9347 102.381 71.107C102.41 71.2129 102.544 71.2331 102.688 71.2431C102.993 71.2395 103.297 71.2785 103.592 71.3591C103.293 71.4252 102.987 71.4472 102.683 71.4246C102.6 71.4213 102.518 71.406 102.439 71.3792ZM104.602 73.4508C104.282 73.5967 103.924 73.6223 103.589 73.5232C103.253 73.424 102.96 73.2062 102.759 72.9064C103.889 72.9064 105.984 71.475 105.429 71.8984C105.429 71.8833 105.779 72.8964 104.602 73.4508ZM106.386 67.4024C106.247 67.4024 106.113 67.344 106.014 67.24C105.915 67.1361 105.86 66.995 105.86 66.848C105.86 66.7009 105.915 66.5599 106.014 66.4559C106.113 66.352 106.247 66.2936 106.386 66.2936C106.526 66.2936 106.66 66.352 106.758 66.4559C106.857 66.5599 106.912 66.7009 106.912 66.848C106.912 66.995 106.857 67.1361 106.758 67.24C106.66 67.344 106.526 67.4024 106.386 67.4024ZM107.573 66.1272C107.515 66.2079 107.094 65.9155 106.544 65.9609C105.994 66.0063 105.611 66.354 105.544 66.2835C105.477 66.2129 105.568 66.1071 105.731 65.9508C105.95 65.7446 106.227 65.6206 106.52 65.598C106.812 65.5767 107.103 65.6563 107.348 65.8248C107.525 65.9307 107.597 66.0617 107.573 66.1272Z" fill="#B78876"/>
<path d="M100.396 66.3638C100.291 66.3628 100.189 66.3946 100.102 66.4551C100.014 66.5157 99.9461 66.6022 99.9057 66.7037C99.8653 66.8052 99.8545 66.9171 99.8746 67.0251C99.8948 67.1332 99.945 67.2324 100.019 67.3102C100.093 67.3881 100.187 67.441 100.29 67.4622C100.392 67.4835 100.498 67.4721 100.595 67.4295C100.691 67.3869 100.773 67.315 100.831 67.2231C100.888 67.1312 100.918 67.0233 100.917 66.9132C100.917 66.7675 100.862 66.6277 100.765 66.5247C100.667 66.4217 100.534 66.3638 100.396 66.3638Z" fill="#263238"/>
<path d="M101.204 65.8652C100.967 65.6933 100.683 65.6082 100.396 65.6233C100.103 65.6441 99.8257 65.7664 99.6063 65.9711C99.4388 66.1324 99.391 66.2735 99.4197 66.3037C99.4484 66.334 99.8646 66.0215 100.42 65.9811C100.975 65.9408 101.377 66.2281 101.448 66.1475C101.52 66.0668 101.386 66.0013 101.204 65.8652Z" fill="#263238"/>
<path d="M106.377 66.2984C106.272 66.2964 106.169 66.3274 106.081 66.3873C105.993 66.4472 105.924 66.5334 105.883 66.6348C105.842 66.7362 105.831 66.8482 105.85 66.9566C105.87 67.0649 105.92 67.1647 105.993 67.243C106.067 67.3214 106.161 67.3748 106.264 67.3964C106.366 67.4181 106.473 67.407 106.57 67.3645C106.666 67.3221 106.749 67.2503 106.806 67.1582C106.864 67.0662 106.894 66.9581 106.893 66.8478C106.893 66.703 106.839 66.564 106.742 66.4611C106.646 66.3582 106.514 66.2998 106.377 66.2984Z" fill="#263238"/>
<path d="M107.343 65.7995C107.098 65.631 106.807 65.5514 106.515 65.5727C106.223 65.5953 105.945 65.7194 105.726 65.9256C105.563 66.0818 105.511 66.2229 105.539 66.2582C105.568 66.2935 105.984 65.976 106.539 65.9356C107.094 65.8953 107.496 66.1826 107.568 66.102C107.64 66.0213 107.525 65.9306 107.343 65.7995Z" fill="#263238"/>
<path d="M102.688 71.2175C102.544 71.2175 102.41 71.1872 102.382 71.0814C102.358 70.9091 102.384 70.7332 102.458 70.5773C102.573 70.1792 102.697 69.7658 102.827 69.3324C103.173 68.2737 103.442 67.1885 103.63 66.0864C103.211 67.1129 102.866 68.1709 102.597 69.2517C102.473 69.6902 102.358 70.1086 102.248 70.5068C102.166 70.7053 102.149 70.927 102.2 71.1368C102.221 71.1902 102.253 71.2376 102.295 71.2753C102.336 71.3129 102.386 71.3397 102.439 71.3535C102.52 71.3651 102.602 71.3651 102.683 71.3535C102.988 71.3762 103.293 71.3542 103.592 71.288C103.295 71.2227 102.991 71.199 102.688 71.2175Z" fill="#263238"/>
<path d="M102.76 72.9064C102.961 73.2062 103.253 73.424 103.589 73.5232C103.924 73.6223 104.282 73.5967 104.602 73.4508C105.779 72.8963 105.429 71.8832 105.429 71.8832C105.984 71.475 103.889 72.8963 102.76 72.9064Z" fill="white"/>
<path d="M108.822 76.752C107.278 77.9555 105.433 78.6564 103.516 78.7681L103.616 79.8366C107.645 79.9576 108.822 76.752 108.822 76.752Z" fill="#A36957"/>
<path d="M105.506 63.3498C105.027 61.6412 105.683 59.5041 106.061 58.5111L106.099 58.4708C106.099 58.4708 106.099 58.4708 106.099 58.496C106.101 58.4563 106.109 58.4172 106.123 58.3801C106.123 58.3801 106.123 58.4355 106.123 58.5363C106.123 58.6371 106.123 58.6523 106.123 58.7228C107.482 64.9728 113.936 65.5675 113.936 65.5675V67.2611C114.391 67.2883 114.847 67.2765 115.3 67.2258C115.486 67.2258 115.63 67.1804 115.73 67.1704C115.831 67.1603 115.884 67.1704 115.884 67.1704C115.838 67.1955 115.79 67.2141 115.74 67.2258C115.6 67.2674 115.458 67.3011 115.314 67.3266C114.858 67.4118 114.395 67.449 113.931 67.4375L113.908 69.872C113.936 69.7149 113.975 69.56 114.022 69.4083C114.114 69.0953 114.283 68.8139 114.513 68.5932C114.743 68.3725 115.024 68.2206 115.329 68.1532C115.685 68.1253 116.039 68.2362 116.323 68.4647C116.607 68.6932 116.801 69.0236 116.869 69.3931C116.92 69.7661 116.865 70.1466 116.711 70.4866C116.557 70.8267 116.311 71.1109 116.003 71.3034C115.568 71.5648 115.063 71.6659 114.568 71.5907C114.568 71.6209 114.568 71.6411 114.568 71.6714C114.529 71.9159 114.576 72.1672 114.702 72.377C114.776 72.5025 114.876 72.6092 114.994 72.6894C115.113 72.7696 115.246 72.8214 115.385 72.8412C115.525 72.8609 115.666 72.8481 115.8 72.8035C115.935 72.759 116.058 72.684 116.161 72.5836C116.336 72.4178 116.447 72.1899 116.472 71.9435C116.478 71.7043 116.446 71.4657 116.376 71.2379C116.376 71.2379 116.644 71.4395 116.649 71.9536C116.645 72.2579 116.526 72.5479 116.319 72.7601C116.194 72.8934 116.042 72.9943 115.874 73.0549C115.706 73.1155 115.527 73.1341 115.351 73.1091C115.175 73.0842 115.007 73.0164 114.861 72.9112C114.714 72.806 114.592 72.6663 114.506 72.503C114.434 72.3724 114.387 72.2282 114.368 72.0785C114.349 71.9289 114.359 71.7769 114.396 71.631C114.394 71.6092 114.394 71.5873 114.396 71.5655C114.232 71.5342 114.072 71.4869 113.917 71.4244L113.869 71.3689L113.774 81.5453H113.807H113.841C117.338 80.6582 118.989 77.5534 119.754 74.3074C119.802 74.0907 119.85 73.874 119.893 73.6572C119.864 73.7177 119.836 73.7883 119.802 73.8488C119.591 74.2853 119.344 74.7018 119.065 75.0937C118.972 75.2468 118.857 75.3843 118.726 75.502C118.687 75.4717 119.147 74.8719 119.644 73.7681C119.805 73.4143 119.946 73.0508 120.065 72.6794C120.326 70.8348 120.422 68.9684 120.352 67.1048V66.8075C120.179 66.0283 119.922 65.2724 119.587 64.5545C119.07 63.4557 118.606 62.8659 118.63 62.8357C118.76 62.9509 118.875 63.085 118.97 63.2339C119.255 63.6224 119.51 64.0355 119.73 64.4688C119.956 64.9131 120.15 65.3747 120.309 65.8498V65.3458C120.309 65.3155 120.309 65.2752 120.309 65.2046C120.249 64.6138 120.16 64.0266 120.041 63.4456C117.759 54.4083 110.376 52.8005 108.922 52.8156C107.357 52.8156 104.616 51.9335 100.673 56.4547C96.7307 60.9758 98.9604 65.7288 98.9604 65.7288L99.6111 65.0686L105.506 63.3498Z" fill="#263238"/>
<path d="M116.946 102.83C116.863 102.76 116.79 102.677 116.731 102.583C116.562 102.598 116.394 102.625 116.228 102.664C115.585 102.826 114.998 103.176 114.534 103.672C113.922 104.369 113.591 105.289 113.611 106.238L114.477 105.87C114.251 106.352 114.109 106.872 114.056 107.407C114.299 107.403 114.538 107.345 114.759 107.239C114.98 107.132 115.177 106.978 115.338 106.787L115.099 107.967C115.845 107.584 116.461 106.967 116.86 106.201C117.259 105.434 117.423 104.556 117.329 103.687C117.291 103.57 117.246 103.456 117.195 103.345C117.061 103.052 116.941 102.891 116.97 102.841C116.999 102.79 117.089 102.896 117.219 103.057C117.213 103.025 117.205 102.993 117.195 102.962C117.107 102.928 117.024 102.884 116.946 102.83Z" fill="#263238"/>
<path d="M116.664 102.342C116.63 102.367 116.664 102.468 116.74 102.584C116.8 102.677 116.872 102.76 116.955 102.831C117.032 102.896 117.115 102.952 117.204 102.997C117.338 103.062 117.443 103.083 117.463 103.042C117.482 103.002 117.463 102.987 117.424 102.941C117.372 102.874 117.315 102.812 117.252 102.755L117.113 102.629C116.999 102.517 116.87 102.422 116.731 102.347C116.721 102.34 116.709 102.336 116.698 102.335C116.686 102.334 116.674 102.336 116.664 102.342Z" fill="#FFC857"/>
<path d="M118.534 97.3769C118.214 97.2888 117.875 97.3245 117.577 97.4777C117.577 97.5533 118.003 97.5583 118.501 97.639C118.998 97.7196 119.396 97.8355 119.424 97.765C119.453 97.6944 119.056 97.4424 118.534 97.3769Z" fill="#FFC857"/>
<path d="M118.219 89.7408C118.243 89.8063 118.496 89.7408 118.798 89.7408C119.099 89.7408 119.357 89.7408 119.372 89.6501C119.386 89.5594 119.128 89.4485 118.778 89.4787C118.429 89.509 118.19 89.6753 118.219 89.7408Z" fill="#FFC857"/>
<path d="M118.295 82.5788C118.802 82.4225 119.228 82.3419 119.228 82.2663C118.898 82.1641 118.545 82.1855 118.228 82.3268C117.687 82.488 117.319 82.7804 117.352 82.8308C117.386 82.8812 117.788 82.73 118.295 82.5788Z" fill="#FFC857"/>
<path d="M115.334 67.3266C115.477 67.3011 115.619 67.2674 115.759 67.2258C115.809 67.2141 115.858 67.1955 115.903 67.1704C115.903 67.1704 115.845 67.1704 115.75 67.1704C115.654 67.1704 115.506 67.2107 115.319 67.2258C114.866 67.2765 114.41 67.2883 113.956 67.2611H113.745C112.969 67.2046 112.204 67.035 111.472 66.7571C111.04 66.5933 110.623 66.3909 110.224 66.1522C109.798 65.8935 109.395 65.5967 109.018 65.2651C108.646 64.9265 108.305 64.5519 107.999 64.1462C107.711 63.7709 107.454 63.3694 107.233 62.9466C106.853 62.2305 106.57 61.462 106.391 60.6633C106.269 60.1239 106.194 59.5739 106.166 59.0202C106.166 58.9143 106.166 58.8236 106.166 58.748C106.166 58.6724 106.166 58.6119 106.166 58.5615C106.166 58.5111 106.166 58.4053 106.166 58.4053C106.152 58.4423 106.144 58.4815 106.142 58.5212C106.144 58.5346 106.144 58.5482 106.142 58.5615C106.125 58.7138 106.115 58.8669 106.114 59.0202C106.102 59.5855 106.151 60.1504 106.262 60.7037C106.418 61.5287 106.693 62.324 107.075 63.0625C107.297 63.5013 107.557 63.918 107.85 64.3075C108.166 64.7249 108.516 65.1112 108.898 65.4617C109.286 65.8068 109.704 66.1122 110.147 66.374C111.26 67.0319 112.504 67.4049 113.779 67.4627H113.994C114.444 67.4629 114.892 67.4173 115.334 67.3266Z" fill="#263238"/>
<path d="M119.018 63.2136C118.923 63.0647 118.808 62.9307 118.678 62.8154C118.64 62.8457 119.104 63.4354 119.635 64.5342C119.97 65.2522 120.227 66.008 120.4 66.7872C120.579 67.5545 120.674 68.3409 120.683 69.1309C120.685 70.3317 120.496 71.5244 120.123 72.6591C120.003 73.0305 119.863 73.394 119.702 73.7478C119.223 74.8517 118.745 75.4515 118.783 75.4817C118.915 75.3641 119.03 75.2265 119.123 75.0735C119.402 74.6815 119.649 74.265 119.86 73.8285C119.893 73.768 119.922 73.6974 119.951 73.637C120.994 71.4151 121.214 68.8633 120.568 66.4797C120.511 66.2529 120.439 66.0362 120.372 65.8295C120.212 65.3545 120.019 64.8928 119.793 64.4485C119.568 64.0147 119.308 63.6016 119.018 63.2136Z" fill="#263238"/>
<path d="M121.333 83.4708C121.115 83.2729 120.863 83.1191 120.592 83.0172C120.519 82.987 120.444 82.965 120.367 82.9517C120.314 82.9517 120.285 82.9517 120.285 82.9517C120.615 83.1378 120.926 83.359 121.214 83.6119C121.496 83.8995 121.724 84.2418 121.884 84.62V84.6553C122.084 85.1294 122.155 85.653 122.089 86.1674C122.054 86.373 121.998 86.5741 121.922 86.7672C121.88 86.8768 121.831 86.983 121.773 87.0847C121.691 87.2461 121.594 87.3981 121.482 87.5383C121.041 88.0848 120.437 88.4565 119.769 88.5918C119.673 88.5918 119.596 88.622 119.549 88.6371C119.501 88.6522 119.467 88.6371 119.467 88.6674C119.467 88.6976 119.496 88.6674 119.549 88.6674C119.627 88.6756 119.705 88.6756 119.783 88.6674C120.07 88.6512 120.352 88.5812 120.616 88.4607C120.952 88.308 121.257 88.089 121.515 87.8155C121.564 87.7711 121.61 87.724 121.654 87.6744C121.687 87.6341 121.716 87.5887 121.745 87.5484L121.773 87.5131C121.919 87.3161 122.041 87.1011 122.137 86.873C122.23 86.6509 122.296 86.4172 122.333 86.1775C122.385 85.7599 122.351 85.3357 122.236 84.9326C122.121 84.5295 121.925 84.1567 121.663 83.8388C121.564 83.7058 121.454 83.5827 121.333 83.4708Z" fill="#263238"/>
<path d="M116.97 102.876C116.941 102.906 117.061 103.067 117.195 103.38C117.246 103.491 117.291 103.605 117.329 103.723C117.418 103.998 117.471 104.284 117.487 104.574C117.502 104.99 117.437 105.405 117.295 105.794C117.238 105.945 117.185 106.066 117.147 106.147C117.109 106.228 117.094 106.283 117.109 106.293C117.123 106.303 117.161 106.293 117.228 106.207C117.315 106.106 117.39 105.994 117.453 105.875C117.657 105.472 117.754 105.02 117.736 104.564C117.717 104.109 117.583 103.667 117.348 103.284C117.31 103.223 117.266 103.166 117.219 103.113C117.089 102.921 116.984 102.861 116.97 102.876Z" fill="#263238"/>
<path d="M114.434 71.5654C114.578 71.1269 114.85 70.9908 114.855 71.016C114.753 71.1981 114.668 71.3906 114.602 71.5906C115.097 71.6658 115.602 71.5647 116.037 71.3033C116.344 71.1108 116.591 70.8266 116.745 70.4866C116.899 70.1465 116.954 69.766 116.903 69.3931C116.835 69.0235 116.64 68.6932 116.356 68.4646C116.072 68.2361 115.719 68.1253 115.362 68.1532C115.058 68.2205 114.777 68.3724 114.547 68.5931C114.317 68.8138 114.148 69.0952 114.056 69.4082C114.008 69.56 113.97 69.7149 113.941 69.8719C113.875 70.3594 113.864 70.8534 113.908 71.3437V71.3689L113.956 71.4243C114.111 71.4869 114.271 71.5341 114.434 71.5654ZM115.391 68.9898C115.497 68.9582 115.608 68.9518 115.716 68.971C115.825 68.9901 115.928 69.0345 116.018 69.1007C116.118 69.1955 116.195 69.3139 116.243 69.4461C116.292 69.5784 116.309 69.7209 116.295 69.8618C116.289 70.132 116.198 70.3924 116.037 70.6027C115.9 70.7763 115.708 70.891 115.496 70.9253C115.133 70.9707 114.956 70.7691 114.989 70.7439C115.023 70.7187 115.19 70.7892 115.468 70.6985C115.629 70.6336 115.768 70.5172 115.864 70.3654C115.96 70.2136 116.009 70.0341 116.003 69.8517C116.013 69.7615 116.004 69.6702 115.979 69.5836C115.953 69.4969 115.911 69.4166 115.855 69.3477C115.739 69.2552 115.593 69.2137 115.448 69.2318C115.171 69.2671 114.97 69.3527 114.97 69.3023C114.97 69.2519 115.037 69.1007 115.367 68.9898H115.391Z" fill="#B78876"/>
<path d="M115.405 69.2169C115.55 69.1988 115.696 69.2404 115.812 69.3328C115.868 69.4018 115.91 69.482 115.936 69.5687C115.961 69.6554 115.969 69.7466 115.96 69.8369C115.966 70.0192 115.917 70.1987 115.821 70.3505C115.725 70.5023 115.586 70.6187 115.424 70.6836C115.166 70.7744 114.984 70.6836 114.946 70.729C114.908 70.7744 115.089 70.9558 115.453 70.9105C115.665 70.8762 115.857 70.7614 115.994 70.5879C116.155 70.3775 116.246 70.1171 116.252 69.847C116.266 69.706 116.248 69.5636 116.2 69.4313C116.152 69.299 116.075 69.1806 115.975 69.0859C115.884 69.0196 115.781 68.9753 115.673 68.9561C115.565 68.9369 115.454 68.9434 115.348 68.975C115.018 69.0859 114.869 69.2371 114.898 69.2724C114.927 69.3076 115.128 69.2522 115.405 69.2169Z" fill="#A36957"/>
<path d="M114.434 71.5655C114.432 71.5873 114.432 71.6092 114.434 71.631C114.397 71.7769 114.388 71.9289 114.407 72.0785C114.426 72.2282 114.472 72.3724 114.544 72.503C114.631 72.6663 114.752 72.806 114.899 72.9112C115.046 73.0164 115.214 73.0842 115.39 73.1091C115.566 73.1341 115.745 73.1155 115.913 73.0549C116.081 72.9943 116.233 72.8934 116.357 72.7601C116.565 72.5479 116.683 72.2579 116.688 71.9536C116.688 71.4496 116.424 71.2127 116.415 71.2379C116.484 71.4657 116.517 71.7043 116.511 71.9435C116.485 72.1899 116.374 72.4178 116.2 72.5836C116.096 72.684 115.973 72.759 115.839 72.8035C115.705 72.8481 115.563 72.8609 115.424 72.8412C115.285 72.8214 115.151 72.7696 115.033 72.6894C114.915 72.6092 114.815 72.5025 114.74 72.377C114.615 72.1672 114.567 71.9159 114.606 71.6714C114.606 71.6411 114.606 71.6209 114.606 71.5907C114.672 71.3907 114.757 71.1982 114.86 71.0161C114.86 71.0161 114.578 71.127 114.434 71.5655Z" fill="#FFC857"/>
<path d="M104.051 191.993C105.439 192.15 106.922 192.326 108.491 192.497C112.075 192.936 115.314 193.369 117.659 193.697L118.525 193.813L120.438 194.075L121.194 194.166C121.283 194.179 121.374 194.179 121.462 194.166C121.378 194.136 121.292 194.114 121.204 194.1L120.453 193.959C119.974 193.868 119.319 193.758 118.539 193.632L117.692 193.495L117.333 193.44C115.836 193.208 114.013 192.936 111.979 192.664C110.879 192.518 109.73 192.366 108.539 192.225C104.951 191.787 101.697 191.464 99.3383 191.263C98.1565 191.162 97.2043 191.091 96.5441 191.051H96.3718L95.7833 191.021C95.6943 191.011 95.6044 191.011 95.5154 191.021C95.6008 191.049 95.6892 191.066 95.7785 191.071L96.5345 191.162H96.6637L99.3239 191.444C100.644 191.631 102.262 191.792 104.051 191.993Z" fill="#263238"/>
<path d="M89.9511 83.9849C89.9511 83.9849 83.4392 82.6694 74.0805 73.7178C64.7218 64.7662 60.119 52.6392 59.0041 52.73C57.8893 52.8207 52.9564 50.5878 44.2723 72.0797C35.5882 93.5715 39.3633 98.3901 41.2054 98.2893C43.0474 98.1884 55.4587 94.1512 63.296 94.8518C71.1332 95.5524 81.2909 99.5443 81.2909 99.5443L89.9511 83.9849Z" fill="#FFC857"/>
<path opacity="0.4" d="M89.9511 83.9849C89.9511 83.9849 83.4392 82.6694 74.0805 73.7178C64.7218 64.7662 60.119 52.6392 59.0041 52.73C57.8893 52.8207 52.9564 50.5878 44.2723 72.0797C35.5882 93.5715 39.3633 98.3901 41.2054 98.2893C43.0474 98.1884 55.4587 94.1512 63.296 94.8518C71.1332 95.5524 81.2909 99.5443 81.2909 99.5443L89.9511 83.9849Z" fill="white"/>
<path d="M104.013 96.1171L101.922 100.603L100.965 102.619C100.348 103.948 99.2704 104.976 97.9543 105.491C96.6381 106.006 95.1843 105.968 93.8937 105.386L79.8843 100.714L87.4392 81.0566L101.511 88.4205C102.806 89.0973 103.796 90.2854 104.265 91.7267C104.733 93.1679 104.643 94.7457 104.013 96.1171Z" fill="#FFC857"/>
<path d="M96.2044 103.425L92.0274 112.684L89.7978 112.105L75.6975 124.907L71.4392 116.706C71.4392 116.706 79.8649 112.578 81.3577 109.327C82.8505 106.076 81.0037 105.401 81.0037 105.401L84.8936 100.477L96.2044 103.425Z" fill="#FFC857"/>
<path d="M45.0282 73.4204C40.411 85.0635 38.6359 95.3659 41.0665 96.4344C43.4971 97.503 49.2004 88.9345 53.8223 77.2813C58.4443 65.6281 60.205 55.3509 57.8127 54.2824C55.4204 53.2138 49.6501 61.7824 45.0282 73.4204Z" fill="#263238"/>
<path d="M105.372 102.467L101.583 101.338L103.783 96.6055L106.649 98.3696L105.372 102.467Z" fill="#455A64"/>
<path d="M83.5588 102.175L93.8458 108.662L95.0371 106.021L83.5588 102.175Z" fill="#263238"/>
<path d="M103.783 96.6055L101.583 101.338L102.358 101.57L104.123 96.8172L103.783 96.6055Z" fill="#263238"/>
<path d="M80.4679 99.2369C80.4679 99.2369 77.8124 98.2994 77.8985 98.3246C77.9847 98.3498 86.1281 82.5132 86.1281 82.5132L86.774 82.8206L80.731 98.7127" fill="#263238"/>
<path d="M101.219 97.7599C101.166 97.891 99.2714 97.1803 96.9844 96.1672C94.6973 95.1541 92.8791 94.2368 92.9318 94.1107C92.9844 93.9847 94.8791 94.6904 97.171 95.6984C99.4628 96.7065 101.271 97.6289 101.219 97.7599Z" fill="#263238"/>
<path d="M102.31 94.9524C102.257 95.0784 100.539 94.3728 98.482 93.3798C96.4246 92.3869 94.7883 91.4746 94.8457 91.3637C94.9031 91.2528 96.6208 91.9434 98.6734 92.9363C100.726 93.9292 102.358 94.8214 102.31 94.9524Z" fill="#263238"/>
<path d="M99.8409 100.714C99.8409 100.784 99.3624 100.688 98.6543 100.477C98.2954 100.371 97.8696 100.24 97.3959 100.084C96.9223 99.9273 96.439 99.6753 95.9175 99.4485C93.8362 98.5009 92.2381 97.5634 92.286 97.4323C92.3338 97.3013 94.0419 98.0271 96.1137 98.9444C96.6304 99.1712 97.1136 99.4485 97.549 99.6097C97.9844 99.771 98.4103 99.9525 98.75 100.114C99.439 100.431 99.8552 100.648 99.8409 100.714Z" fill="#263238"/>
<path d="M55.0089 70.5674C55.0089 70.5674 49.2673 67.0392 46.4205 75.1592C43.5736 83.2791 49.5113 84.393 49.5113 84.393C51.9522 80.0799 53.8029 75.4255 55.0089 70.5674Z" fill="#FFC857"/>
<path d="M60.7313 60.8447C60.7123 61.3531 60.6531 61.8589 60.5542 62.3568C60.4011 63.3649 60.1858 64.7661 59.8748 66.5201C59.6595 67.387 59.4251 68.3346 59.1715 69.3477C59.0471 69.8517 58.9131 70.381 58.7791 70.9203C58.7122 71.1925 58.6404 71.4646 58.5686 71.7419C58.4969 72.0191 58.3916 72.2913 58.3007 72.5685C57.9275 73.6824 57.5304 74.8517 57.1237 76.0614C57.0232 76.3638 56.9179 76.6713 56.8127 76.9787C56.7074 77.2862 56.5639 77.5785 56.4395 77.886L55.6548 79.7358L54.8653 81.5755C54.7314 81.8779 54.6165 82.1854 54.4634 82.4727L54.0184 83.3245L52.3103 86.5654C52.1716 86.8225 52.0472 87.0694 51.9036 87.3265L51.4539 88.0321L50.5927 89.388L49.0424 91.8325C48.0042 93.2337 47.1286 94.3527 46.5353 95.1188C46.2451 95.5306 45.9252 95.9181 45.5784 96.2781C45.8157 95.8234 46.0928 95.3931 46.4061 94.9928C46.9803 94.1763 47.7937 93.022 48.7984 91.6107L50.2864 89.1662L51.1142 87.8003L51.5496 87.0946C51.6883 86.8477 51.8127 86.5906 51.9467 86.3335L53.6165 83.0977L54.0567 82.2509C54.2098 81.9686 54.3199 81.6612 54.4538 81.3588C54.7074 80.759 54.9706 80.1491 55.2337 79.5342C55.4969 78.9193 55.76 78.3043 56.0184 77.7045C56.1428 77.4021 56.2864 77.1148 56.3868 76.8074C56.4873 76.4999 56.5974 76.1975 56.7026 75.9001C57.1141 74.7005 57.516 73.5413 57.8988 72.4374C57.9897 72.1652 58.0949 71.8931 58.1763 71.6209L58.3916 70.8094L58.8079 69.2519C59.0758 68.2439 59.3294 67.3114 59.559 66.4546L60.3868 62.3367C60.4607 61.8298 60.576 61.3307 60.7313 60.8447Z" fill="#263238"/>
<path d="M117.257 106.873C117.257 106.873 111.735 117.644 110.252 117.811C102.061 118.708 93.2859 115.875 90.2093 114.751C89.8983 114.373 89.5395 113.924 89.1424 113.375C88.803 112.896 88.5411 112.361 88.3673 111.792C88.1268 111.089 87.9772 110.355 87.9223 109.61C87.94 109.468 87.9141 109.324 87.8483 109.198C87.7825 109.073 87.6803 108.973 87.5568 108.913C87.4332 108.854 87.2947 108.837 87.1615 108.866C87.0284 108.896 86.9077 108.969 86.817 109.076C86.463 109.58 86.3769 111.475 87.1902 113.506C88.0036 115.537 85.1376 113.945 84.085 113.385C83.0324 112.826 79.6927 111.263 79.2717 111.48C78.6593 111.792 78.8506 112.559 79.9176 113.093C80.9846 113.627 84.0707 115.462 83.7453 116.051C83.42 116.641 78.1138 113.708 78.1138 113.708C78.1138 113.708 77.0708 112.881 76.6784 113.551C76.0038 114.756 81.8889 117.412 82.4535 117.649C82.8458 117.816 82.5348 118.466 82.1233 118.269C81.7118 118.073 76.8602 115.215 76.1713 116.435C75.6402 117.372 80.9942 118.672 81.6879 119.862C82.3817 121.051 77.7215 118.43 77.243 119.358C77.066 119.701 76.9799 119.983 79.8602 121.072C81.9671 121.763 84.1092 122.328 86.2764 122.765V122.795C86.2764 122.795 113.931 136.404 121.204 122.901C125.96 114.086 126.405 112.967 128.089 107.987" fill="#B78876"/>
<path d="M5.36841 125.285H59.248C59.6114 125.286 59.9594 125.439 60.2159 125.711C60.4724 125.982 60.6164 126.349 60.6164 126.732V138.234C60.9753 143.118 60.6164 144.327 55.3294 144.726V149.917L50.4826 144.811H5.36841C5.00549 144.811 4.65743 144.659 4.40081 144.389C4.14418 144.119 4.00001 143.752 4.00001 143.37V126.737C3.99938 126.547 4.03427 126.359 4.1027 126.183C4.17113 126.007 4.27175 125.847 4.39882 125.712C4.52589 125.578 4.67692 125.471 4.84328 125.397C5.00964 125.324 5.18808 125.286 5.36841 125.285Z" fill="#455A64"/>
<path d="M50.2913 131.394H21.8037V132.679H50.2913V131.394Z" fill="#FFC857"/>
<path d="M50.2913 134.096H21.8037V135.381H50.2913V134.096Z" fill="#FFC857"/>
<path d="M36.2437 136.999H21.8037V138.284H36.2437V136.999Z" fill="#FFC857"/>
<path d="M19.2869 130.819H11.3301V139.201H19.2869V130.819Z" fill="#FFC857"/>
<path d="M194.787 40.4972C194.787 39.8288 194.535 39.1878 194.086 38.7152C193.638 38.2426 193.029 37.9771 192.395 37.9771L132.773 38.2845C132.139 38.2845 131.53 38.55 131.082 39.0226C130.633 39.4953 130.381 40.1363 130.381 40.8047L130.472 60.6181C130.472 60.9512 130.535 61.281 130.656 61.5884C130.778 61.8958 130.956 62.1747 131.181 62.4091C131.406 62.6434 131.672 62.8285 131.965 62.9537C132.258 63.0788 132.572 63.1416 132.888 63.1382H134.18L134.218 70.3912L140.946 63.103L192.49 62.8358C193.125 62.8358 193.733 62.5703 194.182 62.0977C194.631 61.6251 194.883 60.9841 194.883 60.3157L194.787 40.4972Z" fill="#FFC857"/>
<path d="M176.72 53.965C176.682 52.8258 176.72 51.1474 176.72 49.6505C176.4 48.7842 176.329 47.8377 176.517 46.9294C176.705 46.0212 177.144 45.1916 177.777 44.5446C179.997 42.1051 181.5 42.6394 182.361 42.6495C183.222 42.6596 187.213 43.6575 188.361 48.6525C188.42 48.974 188.461 49.2988 188.485 49.6253C188.509 49.8722 188.533 50.1293 188.552 50.2805C188.603 51.1758 188.87 52.0426 189.328 52.7986C189.786 53.5546 190.42 54.1747 191.17 54.6C191.718 53.2799 191.997 51.8527 191.988 50.4115C191.981 48.5931 191.521 46.8084 190.654 45.2359C189.787 43.6635 188.544 42.3584 187.047 41.4515C185.551 40.5445 183.855 40.0674 182.129 40.0679C180.403 40.0683 178.707 40.5464 177.211 41.4542C175.715 42.362 174.472 43.6677 173.606 45.2406C172.74 46.8135 172.281 48.5985 172.275 50.4169C172.27 52.2354 172.717 54.0235 173.574 55.6024C174.43 57.1812 175.665 58.4955 177.155 59.4135C176.691 57.6414 176.543 55.7939 176.72 53.965Z" fill="#E0E0E0"/>
<path d="M188.557 50.2856V50.326H188.505C188.505 52.3421 188.289 59.1616 185.093 60.4066C186.44 59.9585 187.679 59.2115 188.728 58.2159C189.777 57.2204 190.611 55.9994 191.175 54.6354C190.421 54.2074 189.785 53.5826 189.326 52.8209C188.868 52.0592 188.603 51.1862 188.557 50.2856Z" fill="#263238"/>
<path d="M176.73 54.2118C176.73 54.1312 176.73 54.0505 176.73 53.9648C176.552 55.7954 176.7 57.6447 177.165 59.4185C177.817 59.8278 178.512 60.1544 179.237 60.3912C179.198 58.9447 179.074 56.863 179.074 56.863C178.45 56.7802 177.874 56.4695 177.446 55.985C177.017 55.5005 176.764 54.873 176.73 54.2118Z" fill="#263238"/>
<path d="M184.983 49.7612C184.983 49.7612 181.337 49.3429 180.73 45.729C180.509 46.2734 180.117 47.4427 180.366 48.3903L177.112 49.2522L176.749 49.61C176.715 51.1221 176.701 52.7854 176.749 53.9245C176.749 54.0102 176.749 54.0909 176.749 54.1715C176.777 54.8356 177.027 55.4679 177.454 55.9573C177.881 56.4468 178.458 56.7621 179.084 56.8479C180.139 56.8226 181.163 56.4721 182.031 55.8399C182.031 55.8399 181.347 57.5888 179.127 57.4628L179.084 56.8731C179.084 56.8731 179.208 58.9296 179.246 60.4013C180.203 60.7152 181.201 60.8717 182.203 60.865C183.049 60.8554 183.889 60.7335 184.706 60.5021L184.983 49.7612ZM180.505 50.3661C180.508 50.3078 180.527 50.2517 180.559 50.2047C180.592 50.1577 180.638 50.122 180.69 50.1019C180.742 50.0819 180.798 50.0784 180.852 50.092C180.906 50.1055 180.955 50.1355 180.993 50.1781C181.031 50.2207 181.056 50.2741 181.065 50.3317C181.074 50.3892 181.067 50.4484 181.045 50.5017C181.022 50.5551 180.985 50.6003 180.939 50.6318C180.892 50.6632 180.838 50.6795 180.782 50.6786C180.744 50.6773 180.707 50.6682 180.673 50.6518C180.639 50.6353 180.608 50.6119 180.582 50.5829C180.556 50.5539 180.536 50.5198 180.523 50.4826C180.51 50.4454 180.503 50.4058 180.505 50.3661ZM180.438 49.8621C180.56 49.7527 180.713 49.6889 180.873 49.6806C181.034 49.6721 181.193 49.7181 181.328 49.8117C181.428 49.8873 181.466 49.9629 181.447 49.983C181.428 50.0032 181.189 49.8621 180.883 49.8772C180.576 49.8923 180.366 50.0838 180.332 50.0435C180.299 50.0032 180.342 49.9377 180.438 49.852V49.8621ZM177.055 49.8167C177.179 49.7066 177.333 49.6428 177.495 49.6352C177.655 49.6264 177.814 49.6743 177.945 49.7713C178.045 49.8469 178.084 49.9175 178.065 49.9377C178.045 49.9578 177.806 49.8167 177.5 49.8318C177.194 49.8469 176.983 50.0385 176.95 49.9981C176.916 49.9578 176.95 49.8923 177.055 49.8066V49.8167ZM177.218 50.3207C177.219 50.2609 177.236 50.2028 177.269 50.1536C177.301 50.1044 177.346 50.0665 177.399 50.0445C177.452 50.0225 177.51 50.0176 177.565 50.0302C177.621 50.0429 177.672 50.0726 177.711 50.1156C177.751 50.1585 177.777 50.2129 177.787 50.2717C177.797 50.3306 177.791 50.3913 177.768 50.4462C177.745 50.501 177.708 50.5476 177.66 50.58C177.612 50.6124 177.557 50.6292 177.5 50.6282C177.425 50.6269 177.353 50.5944 177.3 50.5378C177.247 50.4813 177.218 50.4051 177.218 50.3258V50.3207ZM178.562 52.8056C178.532 52.7992 178.505 52.7847 178.482 52.7634C178.459 52.7422 178.442 52.715 178.433 52.6846C178.407 52.568 178.419 52.4455 178.466 52.3368C178.529 52.1201 178.6 51.8933 178.672 51.6514C178.833 51.0598 179.036 50.4819 179.28 49.9225C179.162 50.5255 179.002 51.1185 178.801 51.6967C178.725 51.9319 178.653 52.1588 178.586 52.3772C178.546 52.4594 178.529 52.5522 178.538 52.6443C178.538 52.6997 178.624 52.7149 178.706 52.7199C178.868 52.7242 179.029 52.7513 179.184 52.8005C179.017 52.821 178.849 52.821 178.682 52.8005C178.642 52.8092 178.602 52.8126 178.562 52.8106V52.8056ZM179.73 53.9749C179.552 54.0523 179.354 54.0624 179.17 54.0036C178.986 53.9448 178.827 53.8207 178.72 53.6524C179.342 53.6524 180.514 52.9064 180.203 53.1483C180.241 53.3246 180.213 53.5095 180.125 53.6645C180.037 53.8194 179.895 53.9325 179.73 53.98V53.9749Z" fill="#455A64"/>
<path d="M177.787 50.3307C177.787 50.2709 177.77 50.2125 177.739 50.1627C177.707 50.113 177.662 50.0742 177.61 50.0513C177.557 50.0284 177.5 50.0225 177.444 50.0341C177.388 50.0458 177.337 50.0746 177.297 50.1169C177.257 50.1592 177.229 50.2131 177.218 50.2717C177.207 50.3304 177.213 50.3912 177.235 50.4465C177.256 50.5017 177.293 50.549 177.34 50.5822C177.388 50.6154 177.443 50.6332 177.5 50.6332C177.576 50.6332 177.649 50.6013 177.703 50.5446C177.757 50.4879 177.787 50.4109 177.787 50.3307Z" fill="#263238"/>
<path d="M178.064 49.9275C178.064 49.9275 178.064 49.8368 177.945 49.7612C177.814 49.6641 177.655 49.6162 177.495 49.6251C177.333 49.6326 177.179 49.6964 177.055 49.8065C176.959 49.8922 176.931 49.9678 176.95 49.988C176.969 50.0081 177.198 49.8368 177.5 49.8216C177.801 49.8065 178.036 49.998 178.064 49.9275Z" fill="#263238"/>
<path d="M181.069 50.376C181.069 50.2971 181.039 50.2215 180.987 50.1657C180.934 50.1099 180.862 50.0786 180.787 50.0786C180.712 50.0786 180.64 50.1099 180.587 50.1657C180.534 50.2215 180.505 50.2971 180.505 50.376C180.505 50.4549 180.534 50.5305 180.587 50.5863C180.64 50.642 180.712 50.6734 180.787 50.6734C180.862 50.6734 180.934 50.642 180.987 50.5863C181.039 50.5305 181.069 50.4549 181.069 50.376Z" fill="#263238"/>
<path d="M181.447 49.9982C181.447 49.9982 181.447 49.9025 181.328 49.8269C181.193 49.7333 181.034 49.6874 180.873 49.6958C180.713 49.7041 180.56 49.7679 180.438 49.8773C180.342 49.9629 180.313 50.0386 180.333 50.0587C180.352 50.0789 180.577 49.9075 180.883 49.8924C181.189 49.8773 181.419 49.9982 181.447 49.9982Z" fill="#263238"/>
<path d="M179.199 52.8053C179.043 52.756 178.882 52.7289 178.72 52.7246C178.639 52.7246 178.567 52.7246 178.553 52.649C178.544 52.5569 178.56 52.4641 178.601 52.3819C178.668 52.1668 178.739 51.94 178.816 51.7014C179.016 51.1232 179.176 50.5302 179.294 49.9272C179.051 50.4867 178.848 51.0646 178.687 51.6561C178.615 51.898 178.543 52.1248 178.481 52.3415C178.433 52.4502 178.421 52.5727 178.447 52.6893C178.457 52.7197 178.474 52.7469 178.497 52.7681C178.519 52.7894 178.547 52.8039 178.577 52.8103C178.621 52.8169 178.666 52.8169 178.711 52.8103C178.873 52.8279 179.037 52.8262 179.199 52.8053Z" fill="#263238"/>
<path d="M178.72 53.6572C178.827 53.8255 178.986 53.9496 179.17 54.0084C179.354 54.0672 179.552 54.0571 179.73 53.9797C179.9 53.9335 180.046 53.8178 180.136 53.6581C180.226 53.4984 180.252 53.3077 180.208 53.1279C180.514 52.9112 179.342 53.6672 178.72 53.6572Z" fill="white"/>
<path d="M182.012 55.855C181.144 56.4873 180.119 56.8377 179.064 56.863L179.108 57.4528C181.328 57.604 182.012 55.855 182.012 55.855Z" fill="#263238"/>
<path d="M188.504 50.3155H188.557V50.2752C188.557 50.1038 188.514 49.8669 188.49 49.62C188.466 49.2935 188.425 48.9687 188.366 48.6472C187.217 43.6371 183.17 42.6543 182.366 42.6442C181.562 42.6341 180.002 42.0998 177.782 44.5393C177.148 45.1863 176.71 46.0159 176.522 46.9241C176.334 47.8324 176.404 48.7789 176.725 49.6452L177.088 49.2873L180.342 48.4254C180.093 47.4778 180.485 46.3085 180.706 45.7641C181.313 49.3579 184.959 49.7964 184.959 49.7964L184.662 60.5272C184.796 60.4869 184.935 60.4566 185.069 60.4113C188.289 59.1512 188.524 52.3064 188.504 50.3155Z" fill="#263238"/>
<path d="M168.666 45.4259L137.681 45.5854L137.689 47.3848L168.674 47.2253L168.666 45.4259Z" fill="#263238"/>
<path d="M168.692 50.0529L137.707 50.2124L137.715 52.0118L168.7 51.8523L168.692 50.0529Z" fill="#263238"/>
<path d="M153.082 54.6289L137.723 54.708L137.732 56.5074L153.09 56.4283L153.082 54.6289Z" fill="#263238"/>
</g>
<defs>
<filter id="filter0_d" x="0" y="0" width="198.883" height="211.572" filterUnits="userSpaceOnUse" color-interpolation-filters="sRGB">
<feFlood flood-opacity="0" result="BackgroundImageFix"/>
<feColorMatrix in="SourceAlpha" type="matrix" values="0 0 0 0 0 0 0 0 0 0 0 0 0 0 0 0 0 0 127 0"/>
<feOffset dy="4"/>
<feGaussianBlur stdDeviation="2"/>
<feColorMatrix type="matrix" values="0 0 0 0 0 0 0 0 0 0 0 0 0 0 0 0 0 0 0.16 0"/>
<feBlend mode="normal" in2="BackgroundImageFix" result="effect1_dropShadow"/>
<feBlend mode="normal" in="SourceGraphic" in2="effect1_dropShadow" result="shape"/>
</filter>
</defs>
</svg>
