<svg width="459" height="483" viewBox="0 0 459 483" fill="none" xmlns="http://www.w3.org/2000/svg">
<g filter="url(#filter0_d)">
<path d="M160.119 6.46409C156.546 0.795426 149.044 0.125066 143.831 3.7356C138.617 7.34614 136.016 11.8505 134.721 18.8128C134.514 15.6962 133.669 12.6637 132.245 9.92316C130.821 7.18266 128.851 4.79906 126.47 2.93588C121.536 -1.14509 113.955 -1.16861 109.892 4.11195C107.544 7.50341 106.503 11.7054 106.978 15.8727C107.313 20.0242 108.251 24.3639 110.517 27.551C118.611 38.9001 123.188 41.0523 133.839 49.3436C145.003 42.0638 148.62 40.2879 157.562 29.7268C160.074 26.7631 161.358 22.5175 162.028 18.413C162.834 14.3187 162.153 10.0548 160.119 6.46409Z" fill="#EBEBEB"/>
<path d="M35.215 51.896C36.0985 50.8693 36.6756 49.5913 36.8741 48.2214C37.0726 46.8515 36.8839 45.4504 36.3314 44.1927C36.0439 43.3256 35.5895 42.5304 34.9966 41.857C34.4037 41.1836 33.6852 40.6464 32.886 40.2792C32.0868 39.912 31.2243 39.7227 30.3524 39.7231C29.4805 39.7236 28.6181 39.9137 27.8193 40.2817C27.0205 40.6497 26.3024 41.1875 25.7101 41.8615C25.1178 42.5355 24.6641 43.3312 24.3773 44.1985C24.0906 45.0659 23.9771 45.9863 24.0439 46.9021C24.1106 47.8179 24.3563 48.7093 24.7654 49.5203C25.2767 50.8116 26.1409 51.9137 27.2481 52.6864C28.3553 53.4591 29.6556 53.8676 30.9838 53.86C22.6888 59.3993 27.3666 69.3842 27.3666 69.3842L48.3998 59.7051C48.3998 59.7051 44.604 49.2028 35.215 51.896Z" fill="#F5F5F5"/>
<path d="M407.985 220.721C410.546 220.361 412.951 219.218 414.902 217.433C416.853 215.647 418.263 213.299 418.959 210.677C421.036 203.303 417.396 195.67 410.832 193.624C404.267 191.578 397.278 195.894 395.202 203.268C394.427 205.888 394.406 208.691 395.141 211.324C395.876 213.957 397.335 216.302 399.333 218.063C380.231 215.358 375.263 236.562 375.263 236.562L418.49 250.052C418.49 250.052 425.334 229.177 407.985 220.721Z" fill="#E0E0E0"/>
<path d="M243.705 373.045C243.705 371.947 243.499 370.859 243.099 369.845C242.7 368.83 242.114 367.908 241.375 367.133C240.637 366.357 239.76 365.742 238.796 365.324C237.832 364.906 236.799 364.692 235.756 364.695L65.4473 364.966C64.4045 364.966 63.3719 365.183 62.4088 365.604C61.4456 366.025 60.5708 366.642 59.8345 367.42C59.0982 368.198 58.5148 369.121 58.1177 370.137C57.7207 371.153 57.5178 372.241 57.5208 373.339L57.5989 428.497C57.6004 429.595 57.8072 430.682 58.2074 431.696C58.6077 432.71 59.1936 433.631 59.9317 434.406C60.6698 435.182 61.5457 435.797 62.5093 436.215C63.4729 436.634 64.5054 436.849 65.5478 436.847L213.528 436.612L233.144 457.546V436.589H235.89C236.933 436.589 237.965 436.372 238.928 435.951C239.892 435.53 240.766 434.912 241.503 434.135C242.239 433.357 242.822 432.433 243.219 431.418C243.616 430.402 243.819 429.313 243.816 428.215L243.705 373.045Z" fill="#EBEBEB"/>
<path d="M86.8824 429.814H87.0611L86.715 423.934L86.8824 429.814Z" fill="#F5F5F5"/>
<path d="M94.2172 370.799C88.1429 370.805 82.2297 372.857 77.3404 376.654C72.4511 380.451 68.8418 385.795 67.0391 391.905C65.2365 398.016 65.3349 404.573 67.32 410.621C69.3052 416.668 73.0731 421.889 78.0739 425.521C76.6518 417.262 75.9048 408.889 75.8411 400.495H75.6959C75.6959 400.001 75.8187 399.26 75.8857 398.495C75.9561 397.553 76.0717 396.615 76.2318 395.685C79.4694 381.184 91.1471 378.267 93.4692 378.22C95.9588 378.22 100.279 376.609 106.755 383.606C108.598 385.463 109.879 387.853 110.437 390.475C110.996 393.097 110.806 395.834 109.892 398.342C110.014 403.047 110.093 408.257 109.97 411.526C109.702 418.442 103.271 419.312 103.271 419.312C103.271 419.312 102.959 425.263 102.869 429.438C109.365 427.282 114.912 422.746 118.506 416.652C122.1 410.558 123.504 403.31 122.462 396.22C121.42 389.13 118.001 382.668 112.826 378.005C107.651 373.341 101.061 370.785 94.2507 370.799H94.2172Z" fill="#F5F5F5"/>
<path d="M103.126 421.017C96.7182 421.429 94.7086 416.384 94.7086 416.384C97.219 418.217 100.184 419.235 103.238 419.312C103.238 419.312 109.68 418.442 109.936 411.526C110.059 408.257 109.936 403 109.858 398.343L108.742 397.319L99.4199 394.885C100.112 392.145 98.9622 388.781 98.3035 387.217L98.2365 387.158C96.5619 397.543 86.0229 398.837 86.0229 398.837L86.7263 423.993L87.0724 429.873C92.2647 431.29 97.7302 431.143 102.847 429.45C102.937 425.275 103.249 419.324 103.249 419.324L103.126 421.017ZM98.1695 401.389C98.0031 401.396 97.8385 401.35 97.6968 401.258C97.555 401.166 97.4425 401.032 97.3737 400.872C97.3048 400.712 97.2828 400.534 97.3103 400.361C97.3378 400.188 97.4137 400.028 97.5282 399.901C97.6428 399.773 97.7908 399.685 97.9533 399.647C98.1158 399.608 98.2854 399.622 98.4405 399.686C98.5957 399.749 98.7292 399.86 98.8241 400.005C98.919 400.149 98.971 400.319 98.9733 400.495C98.9763 400.609 98.9579 400.723 98.9191 400.83C98.8803 400.937 98.8219 401.034 98.7472 401.117C98.6726 401.2 98.5831 401.267 98.484 401.314C98.3849 401.36 98.278 401.386 98.1695 401.389ZM107.659 401.2C107.493 401.207 107.328 401.162 107.186 401.07C107.045 400.978 106.932 400.844 106.863 400.684C106.794 400.524 106.772 400.346 106.8 400.173C106.827 400 106.903 399.84 107.018 399.712C107.132 399.585 107.28 399.497 107.443 399.458C107.605 399.42 107.775 399.434 107.93 399.497C108.085 399.561 108.219 399.672 108.314 399.816C108.409 399.961 108.46 400.131 108.463 400.307C108.467 400.421 108.45 400.536 108.412 400.643C108.373 400.751 108.315 400.849 108.24 400.932C108.165 401.016 108.075 401.082 107.975 401.128C107.876 401.175 107.768 401.199 107.659 401.2ZM106.353 398.684C106.734 398.401 107.193 398.26 107.659 398.284C108.126 398.303 108.574 398.485 108.932 398.801C109.2 399.048 109.289 399.272 109.233 399.319C109.177 399.366 108.519 398.895 107.637 398.86C106.755 398.825 106.096 399.295 106.007 399.178C105.917 399.06 106.118 398.919 106.353 398.684ZM102.501 399.189C103.212 400.807 103.809 402.478 104.287 404.188L104.901 406.164C105.038 406.476 105.074 406.827 105.002 407.163C104.97 407.249 104.918 407.326 104.852 407.387C104.786 407.449 104.708 407.493 104.622 407.516C104.497 407.537 104.369 407.537 104.243 407.516C103.759 407.564 103.271 407.544 102.791 407.457C103.259 407.311 103.744 407.232 104.232 407.222C104.455 407.222 104.667 407.163 104.712 406.999C104.73 406.735 104.68 406.47 104.567 406.234L103.93 404.27C103.333 402.617 102.855 400.919 102.501 399.189ZM104.187 409.962C103.88 410.451 103.423 410.813 102.892 410.989C102.362 411.165 101.79 411.143 101.273 410.927C101.028 410.862 100.798 410.747 100.596 410.588C100.394 410.43 100.223 410.23 100.094 410.002C99.9656 409.773 99.8812 409.52 99.8459 409.257C99.8106 408.994 99.8252 408.726 99.8888 408.469C98.9845 407.845 102.39 409.998 104.187 409.962ZM96.573 398.919C96.9594 398.64 97.4227 398.503 97.8904 398.531C98.3544 398.548 98.799 398.731 99.1519 399.048C99.4199 399.283 99.5092 399.507 99.4645 399.566C99.4199 399.625 98.75 399.131 97.8681 399.107C96.9861 399.084 96.3274 399.542 96.227 399.413C96.1265 399.284 96.2939 399.095 96.573 398.919Z" fill="#EBEBEB"/>
<path d="M107.625 399.437C107.403 399.437 107.19 399.529 107.033 399.695C106.876 399.86 106.788 400.085 106.788 400.319C106.788 400.553 106.876 400.777 107.033 400.942C107.19 401.108 107.403 401.201 107.625 401.201C107.734 401.199 107.842 401.175 107.942 401.129C108.042 401.083 108.132 401.016 108.207 400.933C108.281 400.849 108.34 400.751 108.378 400.643C108.416 400.536 108.434 400.421 108.429 400.307C108.429 400.08 108.345 399.862 108.195 399.7C108.045 399.537 107.841 399.443 107.625 399.437Z" fill="#E0E0E0"/>
<path d="M107.637 398.919C108.519 398.919 109.133 399.496 109.233 399.378C109.334 399.26 109.233 399.107 108.932 398.86C108.573 398.544 108.126 398.362 107.659 398.343C107.193 398.319 106.734 398.46 106.353 398.743C106.062 398.966 105.962 399.178 106.007 399.237C106.051 399.296 106.755 398.813 107.637 398.919Z" fill="#E0E0E0"/>
<path d="M98.1359 399.625C97.9699 399.625 97.8075 399.677 97.6696 399.774C97.5317 399.871 97.4244 400.01 97.3614 400.172C97.2983 400.334 97.2824 400.512 97.3156 400.683C97.3489 400.854 97.4297 401.012 97.5479 401.134C97.6661 401.257 97.8164 401.34 97.9795 401.373C98.1427 401.406 98.3114 401.387 98.4642 401.318C98.617 401.249 98.7469 401.135 98.8376 400.988C98.9282 400.841 98.9755 400.67 98.9732 400.495C98.9703 400.263 98.8808 400.042 98.7241 399.879C98.5674 399.716 98.3561 399.624 98.1359 399.625Z" fill="#E0E0E0"/>
<path d="M97.8679 399.06C98.7499 399.06 99.3639 399.636 99.4644 399.519C99.5649 399.401 99.4644 399.237 99.1518 399.001C98.7989 398.684 98.3542 398.501 97.8903 398.484C97.4225 398.456 96.9593 398.593 96.5729 398.872C96.2938 399.095 96.1822 399.307 96.2268 399.366C96.2715 399.425 96.986 399.013 97.8679 399.06Z" fill="#E0E0E0"/>
<path d="M104.566 406.281C104.68 406.517 104.73 406.781 104.712 407.045C104.712 407.21 104.455 407.257 104.232 407.269C103.744 407.279 103.259 407.358 102.791 407.504C103.271 407.591 103.759 407.611 104.243 407.563C104.368 407.584 104.497 407.584 104.622 407.563C104.707 407.54 104.786 407.496 104.852 407.434C104.918 407.373 104.969 407.296 105.002 407.21C105.074 406.874 105.038 406.523 104.901 406.21L104.287 404.235C103.809 402.525 103.212 400.854 102.501 399.236C102.853 400.981 103.33 402.696 103.93 404.364L104.566 406.281Z" fill="#E0E0E0"/>
<path d="M101.273 410.926C101.79 411.142 102.362 411.164 102.892 410.989C103.423 410.813 103.88 410.451 104.187 409.962C102.389 409.962 98.9844 407.845 99.8887 408.468C99.8251 408.726 99.8105 408.993 99.8458 409.257C99.8811 409.52 99.9655 409.773 100.094 410.002C100.223 410.23 100.393 410.429 100.596 410.588C100.798 410.747 101.028 410.862 101.273 410.926Z" fill="white"/>
<path d="M94.7085 416.384C94.7085 416.384 96.718 421.429 103.126 421.018L103.238 419.312C100.184 419.235 97.2189 418.217 94.7085 416.384Z" fill="#E0E0E0"/>
<path d="M86.0227 398.837C86.0227 398.837 96.5617 397.543 98.2363 387.158L98.3033 387.217C98.9508 388.781 100.101 392.145 99.4197 394.885L108.831 397.319L109.947 398.343C110.85 395.832 111.028 393.096 110.46 390.478C109.892 387.861 108.603 385.478 106.755 383.63C100.279 376.632 95.9588 378.197 93.4692 378.244C91.1471 378.244 79.4694 381.207 76.2318 395.708C76.0716 396.638 75.9561 397.577 75.8857 398.519C75.8187 399.283 75.7517 400.024 75.6959 400.518H75.8411C75.9048 408.912 76.6518 417.285 78.0739 425.545C80.7552 427.497 83.7346 428.949 86.8824 429.838L86.7149 424.016L86.0227 398.837Z" fill="#E0E0E0"/>
<path d="M133.069 391.178L222.617 391.03L222.609 385.832L133.062 385.98L133.069 391.178Z" fill="#F5F5F5"/>
<path d="M133.094 404.562L222.641 404.414L222.634 399.215L133.086 399.364L133.094 404.562Z" fill="#F5F5F5"/>
<path d="M178.267 417.475L222.656 417.402L222.648 412.204L178.259 412.277L178.267 417.475Z" fill="#F5F5F5"/>
<path d="M376.815 163.705C376.053 163.006 375.063 162.65 374.055 162.711C373.047 162.773 372.102 163.248 371.422 164.034C370.747 164.75 370.227 165.612 369.9 166.56C369.572 167.508 369.444 168.521 369.524 169.526C369.252 168.546 368.78 167.639 368.142 166.87C367.504 166.1 366.715 165.486 365.829 165.069C364.931 164.572 363.886 164.463 362.913 164.764C361.94 165.064 361.116 165.751 360.615 166.68C360.094 167.934 360.039 169.348 360.459 170.643C360.779 171.983 361.444 173.204 362.379 174.172C365.729 177.194 367.325 177.547 371.311 179.405C374.414 176.242 375.43 175.407 377.585 171.373C378.143 170.147 378.374 168.786 378.255 167.433C378.243 166.042 377.728 164.709 376.815 163.705Z" fill="#F5F5F5"/>
<path d="M109.121 59.3755L110.595 62.5156L113.888 63.0213L111.511 65.4675L112.069 68.9252L109.121 67.2904L106.185 68.9252L106.743 65.4675L104.365 63.0213L107.659 62.5156L109.121 59.3755Z" fill="#E0E0E0"/>
<path d="M54.5066 133.68L57.1748 139.372L63.1253 140.277L58.8159 144.699L59.8319 150.944L54.5066 147.992L49.1813 150.944L50.2084 144.699L45.899 140.277L51.8495 139.372L54.5066 133.68Z" fill="#E0E0E0"/>
<path d="M92.4534 137.549L93.1902 139.113L94.8314 139.372L93.648 140.583L93.9271 142.312L92.4534 141.5L90.9797 142.312L91.27 140.583L90.0754 139.372L91.7166 139.113L92.4534 137.549Z" fill="#E0E0E0"/>
<path d="M339.739 429.885C316.741 412.961 311.527 381.548 312.431 353.311C312.587 348.607 312.096 343.62 314.217 339.492C316.339 335.364 321.318 332.53 325.382 334.506C328.731 336.164 330.149 340.233 332.013 343.596C334.491 348.099 338.13 351.769 342.507 354.181C345.354 355.734 348.882 356.686 351.684 355.051C355.547 352.817 356.005 347.195 355.971 342.503C355.927 333.768 355.878 325.03 355.826 316.288C355.826 311.584 355.826 306.821 357.166 302.375C358.506 297.93 361.631 293.79 365.84 292.532C370.049 291.273 375.308 293.86 376.201 298.412C376.58 300.317 376.201 302.305 376.335 304.292C376.469 306.28 377.317 308.397 379.07 308.938C380.823 309.479 382.631 308.162 383.96 306.785C388.548 302.081 391.663 295.954 394.577 289.897C397.491 283.84 400.315 277.619 404.491 272.456C408.666 267.293 414.427 263.2 420.79 262.824C427.154 262.448 433.964 266.587 435.571 273.173C437.179 279.759 433.528 286.498 429.543 291.838C423.634 299.776 416.666 306.771 408.856 312.607C407.46 313.665 405.931 314.795 405.395 316.535C404.435 319.652 407.248 322.757 410.173 323.791C413.522 324.968 417.084 324.591 420.556 324.968C424.028 325.344 427.79 327.014 429.096 330.472C430.927 335.258 427.12 340.28 423.38 343.573C415.88 350.154 407.36 355.326 398.194 358.862C394.912 360.132 391.495 361.214 388.827 363.66C386.159 366.106 384.596 370.293 386.193 373.598C387.789 376.903 391.886 377.961 395.314 377.291C398.741 376.621 401.811 374.657 405.082 373.363C411.189 370.928 419.093 371.375 423.012 376.891C425.58 380.549 425.814 385.653 424.508 390.016C423.202 394.379 420.567 398.131 417.809 401.6C408.007 413.714 395.481 423.463 381.269 428.65C367.057 433.836 353.939 435.236 339.839 429.826" fill="#FFC857"/>
<path d="M339.381 450.819C340.63 437.727 343.064 424.79 346.649 412.185C351.102 396.802 356.388 381.7 362.48 366.953L367.213 355.322C368.776 351.512 370.317 347.725 372.047 344.126C375.382 337.221 379.075 330.515 383.111 324.039C386.929 317.829 390.758 312.078 394.387 306.727C398.015 301.376 401.487 296.483 404.836 292.143C410.088 285.28 415.848 278.866 422.063 272.962C424.296 270.868 426.015 269.304 427.209 268.258L428.583 267.081C428.73 266.934 428.895 266.808 429.074 266.705C428.942 266.865 428.796 267.01 428.638 267.14L427.332 268.375C426.16 269.457 424.452 271.057 422.286 273.185C416.181 279.185 410.508 285.655 405.317 292.543C401.967 296.883 398.618 301.799 394.967 307.15C391.317 312.501 387.566 318.264 383.803 324.474C379.798 330.922 376.131 337.597 372.818 344.467C371.099 348.054 369.569 351.794 368.017 355.628L363.295 367.247C357.211 381.961 351.914 397.023 347.431 412.361C343.821 424.912 341.339 437.791 340.018 450.831" fill="#263238"/>
<path d="M372.282 344.09C372.072 343.441 371.926 342.771 371.847 342.091C371.612 340.797 371.333 338.916 371.02 336.575C370.395 331.871 369.737 325.426 369.033 318.287C368.33 311.149 367.582 304.692 366.89 300.046C366.544 297.694 366.253 295.848 366.03 294.554C365.876 293.884 365.794 293.197 365.784 292.508C366.035 293.144 366.222 293.806 366.343 294.484C366.655 295.754 367.046 297.624 367.459 299.941C368.296 304.574 369.145 311.043 369.848 318.193C370.552 325.344 371.132 331.624 371.601 336.505C371.824 338.704 372.014 340.55 372.159 342.044C372.272 342.719 372.313 343.405 372.282 344.09Z" fill="#263238"/>
<path d="M429.498 332.824C428.764 332.994 428.017 333.092 427.265 333.118C425.792 333.259 423.67 333.435 421.047 333.765C415.811 334.353 408.599 335.446 400.695 337.011C392.79 338.575 385.69 340.351 380.599 341.785C378.043 342.479 375.988 343.091 374.571 343.514C373.845 343.78 373.098 343.973 372.338 344.09C373.023 343.717 373.741 343.414 374.481 343.185C375.877 342.667 377.909 342.009 380.443 341.186C385.523 339.61 392.623 337.751 400.538 336.152C408.454 334.553 415.722 333.588 420.991 333.141C423.626 332.906 425.769 332.812 427.243 332.777C427.994 332.722 428.749 332.737 429.498 332.824Z" fill="#263238"/>
<path d="M347.364 411.068C347.364 411.068 347.196 410.832 346.962 410.338C346.727 409.844 346.381 409.033 345.99 408.163C345.142 406.257 343.992 403.458 342.641 400.024C339.884 393.121 336.356 383.453 332.593 372.739C328.831 362.025 325.393 352.323 322.78 345.372C321.496 341.985 320.436 339.21 319.654 337.14C319.319 336.246 319.04 335.505 318.817 334.893C318.702 334.64 318.619 334.371 318.571 334.094C318.73 334.318 318.862 334.563 318.962 334.823C319.23 335.411 319.554 336.128 319.944 337.01C320.782 338.904 321.932 341.715 323.294 345.137C326.051 352.041 329.579 361.708 333.341 372.434C337.104 383.159 340.531 392.838 343.155 399.789C344.439 403.176 345.488 405.952 346.281 408.022C346.616 408.915 346.895 409.656 347.118 410.268C347.227 410.524 347.309 410.793 347.364 411.068Z" fill="#263238"/>
<path d="M423.391 385.253C423.155 385.401 422.899 385.512 422.632 385.582L420.399 386.37L412.25 389.146C405.384 391.498 395.916 394.85 385.456 398.554C374.995 402.259 365.517 405.611 358.584 407.751C355.123 408.857 352.321 409.715 350.367 410.268L348.134 410.891C347.879 410.984 347.611 411.036 347.341 411.044C347.576 410.9 347.827 410.79 348.089 410.715L350.322 409.939L358.427 407.151C365.304 404.799 374.76 401.447 385.221 397.743C395.682 394.038 405.172 390.745 412.093 388.546C415.554 387.44 418.368 386.582 420.321 386.029L422.554 385.406C422.827 385.322 423.108 385.271 423.391 385.253Z" fill="#263238"/>
<path d="M436.364 30.8909V46.0975C436.364 47.7506 435.741 49.336 434.631 50.505C433.521 51.6739 432.016 52.3306 430.447 52.3306H405.551V60.9983L401.085 52.707C399.762 52.6059 398.525 51.9808 397.622 50.9575C396.719 49.9341 396.217 48.5884 396.218 47.1912V30.8909C396.218 29.2408 396.84 27.6584 397.948 26.4917C399.055 25.3249 400.557 24.6694 402.124 24.6694H430.447C431.223 24.6679 431.993 24.8277 432.71 25.1396C433.428 25.4516 434.081 25.9096 434.63 26.4875C435.18 27.0654 435.616 27.7517 435.913 28.5073C436.211 29.2629 436.364 30.0729 436.364 30.8909Z" fill="#455A64"/>
<path d="M425.222 41.8401C426.566 41.8401 427.656 40.6922 427.656 39.2762C427.656 37.8603 426.566 36.7124 425.222 36.7124C423.878 36.7124 422.788 37.8603 422.788 39.2762C422.788 40.6922 423.878 41.8401 425.222 41.8401Z" fill="#263238"/>
<path d="M415.978 41.8401C417.322 41.8401 418.412 40.6922 418.412 39.2762C418.412 37.8603 417.322 36.7124 415.978 36.7124C414.634 36.7124 413.545 37.8603 413.545 39.2762C413.545 40.6922 414.634 41.8401 415.978 41.8401Z" fill="#263238"/>
<path d="M404.312 39.2763C404.316 39.7824 404.463 40.2758 404.733 40.6943C405.003 41.1128 405.384 41.4377 405.83 41.6282C406.275 41.8186 406.763 41.8661 407.234 41.7645C407.705 41.6629 408.136 41.4169 408.474 41.0574C408.812 40.698 409.042 40.2411 409.134 39.7444C409.226 39.2477 409.177 38.7334 408.992 38.2663C408.807 37.7992 408.495 37.4002 408.095 37.1195C407.696 36.8388 407.226 36.689 406.746 36.689C406.424 36.6874 406.105 36.7534 405.807 36.8832C405.51 37.0129 405.24 37.2038 405.013 37.4447C404.787 37.6856 404.608 37.9716 404.487 38.2861C404.367 38.6006 404.307 38.9373 404.312 39.2763Z" fill="#263238"/>
<path d="M99.5202 88.5067C99.5104 88.6737 99.4842 88.8393 99.442 89.0006C99.375 89.3652 99.2745 89.8591 99.1517 90.4825C98.8838 91.8232 98.5042 93.7519 98.0353 96.2099C97.0082 101.232 95.5346 108.429 93.7371 117.25V117.473L93.5139 117.414L86.0116 115.697C82.6623 115.497 79.3131 115.262 75.6513 114.98C71.9894 114.698 68.2718 114.439 64.3867 113.863C63.3591 113.723 62.3701 113.361 61.4823 112.798C60.5945 112.235 59.8272 111.484 59.2289 110.593C58.0104 108.758 57.4307 106.535 57.5877 104.301C57.696 103.195 57.8977 102.101 58.1906 101.032C58.4362 99.9616 58.693 98.8914 58.9386 97.8094L60.5239 91.2704C61.1491 88.7301 61.7966 86.2368 62.4888 83.7789C62.846 82.544 63.2033 81.3326 63.6052 80.1448C63.7057 79.839 63.862 79.545 63.9959 79.2392C64.0996 79.0634 64.2275 78.9049 64.3755 78.7688C64.5455 78.6864 64.726 78.6309 64.9114 78.6041C65.5202 78.5395 66.1335 78.5395 66.7423 78.6041C71.2926 79.1349 75.8103 79.9399 80.2732 81.0151H80.463V81.2268C80.4576 81.2855 80.4576 81.3445 80.463 81.4032C80.463 81.4032 80.463 81.4032 80.3067 81.3091C80.1504 81.215 80.1504 81.3797 80.1504 81.3091C80.1794 81.2575 80.2019 81.2022 80.2174 81.1445C80.3051 80.8862 80.3796 80.6231 80.4407 80.3565C80.5747 79.8037 80.6863 79.251 80.7868 78.6982C80.9877 77.5927 81.1775 76.499 81.345 75.4052C81.5924 73.2622 81.9653 71.1373 82.4614 69.0427C83.0072 67.0454 84.0162 65.2226 85.3976 63.7386C86.0688 63.033 86.8942 62.5118 87.8012 62.2206C88.7083 61.9295 89.6693 61.8773 90.6 62.0686H90.8121L90.7563 62.3038L88.8138 71.4184V71.3007C91.7276 78.5689 93.9158 84.0611 95.2778 87.46H95.2108L98.4931 88.2832L99.2857 88.4831L99.5313 88.5655H99.2522L98.4261 88.4008L95.1773 87.6952C93.7818 84.3199 91.5155 78.8629 88.4788 71.6183V71.5595C89.0594 68.7722 89.6846 65.7379 90.3656 62.4214L90.5219 62.6919C89.6681 62.5304 88.7898 62.5905 87.963 62.8672C87.1362 63.1438 86.3859 63.6286 85.7771 64.2796C84.5039 65.7586 83.602 67.5496 83.1536 69.4896C82.6621 71.5694 82.2893 73.6784 82.0372 75.8051C81.8697 76.8988 81.7022 78.0044 81.4901 79.1216C81.3896 79.6744 81.278 80.2977 81.144 80.7916C81.0814 81.0823 81.0031 81.3689 80.9096 81.6502C80.9096 81.7207 80.9096 81.8031 80.8203 81.8854C80.7953 81.932 80.7654 81.9754 80.731 82.0148C80.697 82.0721 80.649 82.1187 80.592 82.1497C80.5351 82.1808 80.4712 82.1951 80.4072 82.1912C80.1504 82.1088 80.1727 81.9912 80.1169 81.9442C80.0611 81.8971 80.1169 81.8266 80.1169 81.7913V81.5326L80.329 81.7913C75.9077 80.7491 71.4353 79.9639 66.9321 79.4392C66.3604 79.3802 65.7846 79.3802 65.2128 79.4392C65.1039 79.4496 64.9979 79.4815 64.9002 79.5332C64.8328 79.6089 64.7729 79.6916 64.7216 79.7802C64.5891 80.048 64.4699 80.3227 64.3643 80.6035C63.9289 81.7795 63.5717 82.9556 63.2479 84.1317C62.5558 86.5661 61.9194 89.0712 61.2831 91.5997C60.7583 93.799 60.1666 95.9747 59.7089 98.1269C59.4521 99.2089 59.2065 100.291 58.9498 101.361C58.67 102.397 58.4721 103.455 58.3581 104.525C58.2147 106.611 58.7545 108.687 59.8875 110.405C60.437 111.232 61.1434 111.93 61.9621 112.454C62.7807 112.978 63.6938 113.318 64.6435 113.451C68.4727 114.027 72.2462 114.286 75.8076 114.627L86.1567 115.38L93.6478 117.144L93.3911 117.32C95.2666 108.582 96.8073 101.455 97.8567 96.4687C98.4038 94.0107 98.828 92.0702 99.1182 90.7177C99.2634 90.0826 99.3862 89.5416 99.4643 89.2123C99.4627 88.9758 99.4814 88.7396 99.5202 88.5067Z" fill="#263238"/>
<path d="M112.482 88.8947C112.231 88.8805 111.982 88.853 111.734 88.8123L109.68 88.5183L102.211 87.3422L102.434 87.1776C100.916 94.528 98.7276 105.077 96.305 116.815L96.0706 117.838L95.8473 117.473L103.283 119.214L102.948 119.414C105.616 110.734 107.96 103.149 109.646 97.6446C110.495 94.9632 111.176 92.7875 111.667 91.2115C111.901 90.5059 112.08 89.9296 112.236 89.4709C112.289 89.2553 112.364 89.0464 112.459 88.8476C112.426 89.0397 112.377 89.2285 112.314 89.4121L111.845 91.1174C111.388 92.6816 110.729 94.8456 109.992 97.527C108.351 103.102 106.085 110.793 103.484 119.602L103.417 119.861H103.16L95.7245 118.132L95.4342 118.061L95.5012 117.767L95.7133 116.732L102.021 87.1423V86.9424H102.2L109.769 88.3301L111.756 88.7182C112.002 88.7581 112.244 88.817 112.482 88.8947Z" fill="#263238"/>
<path d="M361.799 47.0386L365.606 55.1652L374.124 56.4589L367.961 62.7862L369.413 71.7243L361.799 67.5022L354.185 71.7243L355.636 62.7862L349.474 56.4589L357.992 55.1652L361.799 47.0386Z" fill="#FFC857"/>
<path d="M425.189 173.184L427.087 177.241L431.351 177.9L428.27 181.063L428.996 185.521L425.189 183.415L421.382 185.521L422.107 181.063L419.026 177.9L423.291 177.241L425.189 173.184Z" fill="#FFC857"/>
<path d="M66.1954 268.857L68.1045 272.926L72.358 273.573L69.2767 276.737L70.0024 281.206L66.1954 279.101L62.3885 281.206L63.1141 276.737L60.0328 273.573L64.2975 272.926L66.1954 268.857Z" fill="#FFC857"/>
<path d="M312.13 474.035L171.294 474.999C167.268 475.029 163.275 474.222 159.544 472.626C155.813 471.029 152.417 468.674 149.551 465.695C146.684 462.715 144.403 459.17 142.837 455.262C141.271 451.353 140.452 447.158 140.426 442.916L137.958 70.9838C137.905 62.4113 141.086 54.1674 146.801 48.0649C152.517 41.9624 160.299 38.501 168.436 38.4419L309.305 37.4658C313.335 37.4426 317.329 38.256 321.059 39.8596C324.79 41.4632 328.184 43.8256 331.048 46.8116C333.911 49.7977 336.188 53.349 337.749 57.2625C339.309 61.176 340.122 65.375 340.141 69.6196L342.608 441.552C342.646 450.114 339.459 458.343 333.745 464.433C328.031 470.523 320.258 473.976 312.13 474.035Z" fill="#263238"/>
<path d="M309.205 50.3084L281.897 50.4966C281.006 50.524 280.129 50.7362 279.316 51.1213C278.503 51.5063 277.77 52.0565 277.159 52.7404C276.549 53.4243 276.072 54.2284 275.757 55.1067C275.441 55.985 275.293 56.9202 275.322 57.8588V63.0688C275.373 64.9634 274.708 66.8019 273.473 68.1802C272.237 69.5585 270.533 70.3639 268.735 70.4192L215.527 70.7956C214.634 70.7848 213.752 70.5884 212.931 70.2175C212.111 69.8465 211.368 69.3084 210.746 68.6341C210.123 67.9598 209.633 67.1626 209.304 66.2882C208.975 65.4139 208.813 64.4796 208.828 63.5392V58.3292C208.852 56.4316 208.16 54.6016 206.904 53.2411C205.648 51.8806 203.931 51.1007 202.13 51.0729L192.529 51.1317L168.637 51.3081C165.815 51.325 163.024 51.9279 160.423 53.0824C157.822 54.2368 155.463 55.9201 153.481 58.0359C151.498 60.1518 149.931 62.6586 148.869 65.4131C147.807 68.1676 147.271 71.1156 147.292 74.0886L149.692 437.118C149.711 440.09 150.285 443.028 151.382 445.766C152.479 448.503 154.078 450.987 156.086 453.074C158.094 455.161 160.472 456.81 163.086 457.929C165.699 459.048 168.496 459.613 171.317 459.593L311.862 458.628C314.684 458.608 317.475 458.003 320.075 456.847C322.675 455.69 325.034 454.006 327.016 451.89C328.998 449.773 330.565 447.266 331.627 444.512C332.69 441.757 333.227 438.809 333.208 435.836L330.807 72.8066C330.772 66.8064 328.477 61.0663 324.426 56.8478C320.375 52.6292 314.901 50.2771 309.205 50.3084Z" fill="#FAFAFA"/>
<path d="M269.304 451.56L271.28 451.878V451.748L268.467 451.431L269.304 451.56Z" fill="#B78876"/>
<path d="M237.274 459.122C237.274 458.828 237.207 458.523 237.185 458.24C236.959 455.727 236.929 453.197 237.096 450.678C237.163 449.796 237.252 449.102 237.33 448.644C237.357 448.422 237.398 448.202 237.453 447.985C233.278 447.515 229.504 447.115 226.423 446.809L220.216 446.15L221.187 459.252L237.274 459.122Z" fill="#B78876"/>
<path d="M247.903 449.196C244.252 448.761 240.78 448.349 237.542 448.02C237.542 448.243 237.475 449.196 237.442 450.737C237.387 453.235 237.495 455.734 237.766 458.217C237.766 458.522 237.844 458.84 237.888 459.146L273.122 458.899C272.073 455.37 271.437 453.159 271.336 452.677C271.328 452.552 271.328 452.426 271.336 452.301L269.315 452.03C263.778 451.231 256.22 450.219 247.903 449.196Z" fill="#B78876"/>
<path d="M237.397 450.666C237.397 449.114 237.52 448.173 237.498 447.95C237.443 448.166 237.402 448.386 237.375 448.608C237.297 449.067 237.207 449.784 237.14 450.643C236.974 453.162 237.004 455.691 237.23 458.205C237.23 458.487 237.297 458.793 237.319 459.087H237.855C237.855 458.781 237.766 458.464 237.732 458.158C237.457 455.672 237.345 453.169 237.397 450.666Z" fill="#A36957"/>
<path d="M193.198 237.633L187.538 230.859L188.085 230.271C183.966 233.611 180.907 235.645 180.639 234.575C175.693 215.558 176.296 191.061 176.765 181.722C177.245 180.899 177.781 179.994 178.428 179.006C179.182 177.858 180.11 176.848 181.175 176.019C182.461 174.93 183.885 174.036 185.406 173.361C186.846 172.878 187.036 170.832 185.752 170.373C184.468 169.915 180.46 171.126 176.821 174.537C173.181 177.947 174.476 170.068 174.912 167.198C175.347 164.328 176.274 155.355 175.537 154.532C174.42 153.356 173.003 154.355 172.634 157.248C172.266 160.142 170.591 168.715 169.151 168.433C167.711 168.151 170.122 153.532 170.122 153.532C170.122 153.532 171.116 150.486 169.464 150.11C166.494 149.439 164.998 165.152 164.942 166.657C164.875 167.692 163.301 167.457 163.435 166.339C163.569 165.222 166.137 151.791 163.111 151.051C160.8 150.51 161.816 163.987 159.818 166.492C157.819 168.997 160.041 156.166 157.797 155.731C156.971 155.567 156.323 155.578 156.055 163.105C156.112 169.171 156.484 175.229 157.172 181.252C155.754 201.963 153.588 265.306 180.616 262.33C191.714 261.154 199.741 257.085 205.512 252.357L193.478 237.939L193.198 237.633Z" fill="#B78876"/>
<path d="M255.907 312.113L278.47 312.807C278.57 305.563 278.671 298.506 278.771 291.709C278.647 291.386 278.539 291.056 278.448 290.721V289.674C271.95 289.509 264.492 289.321 256.421 289.098C256.227 296.523 256.056 304.194 255.907 312.113Z" fill="#455A64"/>
<path d="M243.995 288.756L231.045 288.368C230.777 295.777 230.509 303.481 230.241 311.372L242.175 311.701L255.327 312.078C255.483 304.163 255.673 296.471 255.874 289.062L243.995 288.756Z" fill="#455A64"/>
<path d="M277.51 407.74L255.45 407.152C255.45 409.163 255.45 411.15 255.505 413.032C255.595 419.559 255.673 425.346 255.74 430.309L277.733 431.003C277.677 426.581 277.577 421.594 277.555 416.008C277.532 413.409 277.521 410.68 277.51 407.74Z" fill="#455A64"/>
<path d="M278.202 442.763C278.202 445.892 278.28 448.338 278.302 450.02C278.302 450.831 278.302 451.466 278.302 451.913C278.302 452.36 278.302 452.56 278.302 452.56C278.302 452.56 280.178 444.257 282.567 431.602L278.101 431.497C278.046 435.883 278.146 439.67 278.202 442.763Z" fill="#455A64"/>
<path d="M277.968 416.067C277.968 421.618 278.035 426.651 278.068 431.073L282.645 431.226C283.918 424.476 285.336 416.525 286.698 407.94L277.956 407.752C277.956 410.629 277.96 413.401 277.968 416.067Z" fill="#455A64"/>
<path d="M278.191 450.031C278.191 448.338 278.068 445.903 277.979 442.763C277.889 439.623 277.8 435.883 277.744 431.497C271.604 431.355 264.102 431.167 255.74 430.944C255.74 434.366 255.829 437.4 255.863 439.953C255.863 443.116 255.941 445.562 255.963 447.268C255.963 448.079 255.963 448.714 255.963 449.161V449.62C260.708 450.255 264.961 450.89 268.456 451.431L271.269 451.749L278.291 452.56C278.291 452.56 278.291 452.337 278.291 451.913C278.291 451.49 278.224 450.843 278.191 450.031Z" fill="#455A64"/>
<path d="M288.562 313.137C284.242 298.248 281.071 296.025 279.341 292.908C279.263 299.341 279.173 305.998 279.073 312.831L288.562 313.137Z" fill="#455A64"/>
<path d="M254.958 336.317L240.311 335.905L229.37 335.6C229.069 343.526 228.79 351.206 228.522 358.592L238.48 358.874L254.802 359.344C254.824 351.876 254.88 344.232 254.958 336.317Z" fill="#455A64"/>
<path d="M278.838 327.978C278.794 330.824 278.753 333.647 278.716 336.446L292.637 336.928C292.457 331.379 291.75 325.864 290.527 320.463C289.891 317.876 289.277 315.582 288.674 313.513L279.062 313.289C278.995 318.123 278.917 323.003 278.838 327.978Z" fill="#455A64"/>
<path d="M255.316 312.701L242.153 312.337L230.219 311.996C230.129 314.528 230.04 317.072 229.951 319.628C229.765 324.842 229.575 329.966 229.381 335L240.322 335.294L254.969 335.717C255.014 332.001 255.063 328.245 255.115 324.45C255.182 320.491 255.249 316.574 255.316 312.701Z" fill="#455A64"/>
<path d="M278.113 336.905C271.604 336.752 263.934 336.552 255.539 336.329C255.45 344.244 255.394 351.935 255.36 359.356C263.756 359.603 271.381 359.838 277.789 360.05C277.878 352.594 278.046 344.82 278.113 336.905Z" fill="#455A64"/>
<path d="M278.459 313.289C271.894 313.136 264.236 312.936 255.896 312.713C255.829 316.586 255.762 320.506 255.695 324.474C255.636 328.276 255.587 332.036 255.55 335.752L278.124 336.446C278.124 333.635 278.202 330.824 278.258 327.978C278.325 322.992 278.392 318.111 278.459 313.289Z" fill="#455A64"/>
<path d="M278.894 205.891C278.95 207.584 279.017 210.019 279.106 213.159C279.106 214.229 279.173 215.429 279.196 216.687C279.196 217.087 279.252 217.475 279.263 217.863L293.776 218.322C291.275 210.736 285.704 205.832 279.698 202.715C279.474 203.248 279.189 203.749 278.85 204.209C278.85 204.632 278.872 205.185 278.894 205.891Z" fill="#455A64"/>
<path d="M278.783 205.902C278.783 205.232 278.783 204.726 278.783 204.279C278.716 204.373 278.649 204.479 278.57 204.573C278.468 204.689 278.36 204.799 278.247 204.903C277.607 206.396 276.675 207.731 275.511 208.819C277.2 210.437 278.39 212.551 278.928 214.887C278.928 214.299 278.928 213.711 278.928 213.159C278.838 210.03 278.805 207.584 278.783 205.902Z" fill="#455A64"/>
<path d="M232.329 239.197L212.903 238.609C212.658 240.961 212.39 243.313 212.133 245.665C211.91 247.806 211.686 249.911 211.463 251.969C211.638 256.007 212.464 259.984 213.908 263.73L231.413 264.188C231.737 255.168 232.05 246.783 232.329 239.197Z" fill="#455A64"/>
<path d="M258.051 239.327L265.866 239.55C266.252 239.459 266.643 239.396 267.038 239.362C266.859 239.091 266.781 238.856 266.859 238.797C266.883 238.783 266.91 238.775 266.937 238.775C266.965 238.775 266.992 238.783 267.016 238.797C266.095 237.852 265.562 236.564 265.531 235.21C265.531 232.423 267.362 229.953 269.092 227.684C267.449 224.789 266.707 221.425 266.971 218.063L258.989 217.852C258.765 222.967 258.497 229.001 258.196 235.845C258.151 236.986 258.107 238.151 258.051 239.327Z" fill="#455A64"/>
<path d="M245.848 265.188L231.86 264.847C231.614 272.138 231.346 279.83 231.056 287.851L244.017 288.203L255.885 288.544C256.108 280.512 256.343 272.809 256.599 265.541L245.848 265.188Z" fill="#455A64"/>
<path d="M279.028 202.351C279.028 202.621 278.905 202.88 278.838 203.139C278.971 202.901 279.087 202.654 279.184 202.398L279.028 202.351Z" fill="#455A64"/>
<path d="M251.096 261.542C248.578 261.185 246.193 260.143 244.174 258.52C243.565 258.035 243.001 257.492 242.488 256.897C242.288 256.692 242.122 256.454 241.997 256.191C242.075 256.109 242.868 257.05 244.419 258.167C246.196 259.472 248.215 260.366 250.343 260.79C252.471 261.214 254.661 261.157 256.767 260.625C257.046 253.192 257.325 246.241 257.604 239.902L244.017 239.538L232.753 239.208C232.485 246.794 232.195 255.18 231.882 264.188L245.86 264.576L256.622 264.882C256.622 263.624 256.711 262.389 256.756 261.154C254.911 261.669 252.988 261.801 251.096 261.542Z" fill="#455A64"/>
<path d="M279.24 218.627C279.24 220.485 279.319 222.485 279.352 224.637C279.408 229.118 279.508 234.222 279.531 239.855V239.973C287.1 240.22 293.285 240.432 297.471 240.596C296.924 236.304 296.076 230.447 294.781 222.414C294.574 221.177 294.291 219.955 293.932 218.757L279.263 218.404C279.26 218.479 279.253 218.553 279.24 218.627Z" fill="#455A64"/>
<path d="M279.162 250.063C279.162 246.723 279.162 243.513 279.162 240.455L270.655 240.243C270.285 240.306 269.908 240.306 269.539 240.243H268.701C268.779 240.349 268.824 240.431 268.791 240.478C268.757 240.525 268.5 240.478 268.188 240.373C268.213 240.445 268.232 240.52 268.244 240.596C268.355 240.72 268.456 240.854 268.545 240.996C269.094 241.889 269.407 242.92 269.45 243.983C269.493 245.046 269.265 246.102 268.791 247.041C268.644 247.32 268.468 247.58 268.266 247.817C268.11 247.97 268.009 248.041 267.987 248.017C267.964 247.994 267.987 247.876 268.076 247.676C268.165 247.476 268.288 247.206 268.422 246.853C268.752 245.946 268.904 244.977 268.869 244.007C268.832 243.33 268.709 242.661 268.5 242.019C268.721 244.046 268.339 246.095 267.407 247.883C266.475 249.672 265.039 251.112 263.298 252.004L263.856 249.252C263.479 249.698 263.019 250.057 262.504 250.306C261.989 250.555 261.431 250.688 260.864 250.698C260.987 249.451 261.32 248.236 261.847 247.111L259.826 247.97C259.779 245.755 260.551 243.609 261.981 241.984C262.685 241.205 263.527 240.578 264.459 240.137L258.095 239.961C257.85 246.265 257.593 253.156 257.347 260.53C257.738 260.425 258.107 260.307 258.464 260.178C260.239 259.531 261.244 258.837 261.288 258.931C261.333 259.025 261.087 259.178 260.641 259.484C259.998 259.918 259.317 260.288 258.609 260.589C258.229 260.754 257.805 260.907 257.347 261.06C257.347 262.342 257.258 263.623 257.225 264.941L278.85 265.599L279.039 250.687C272.698 250.099 268.043 249.569 268.054 249.428C268.065 249.287 272.743 249.558 279.162 250.063Z" fill="#455A64"/>
<path d="M279.586 250.099L282.936 250.393C291.175 251.123 297.84 251.84 297.829 252.016C297.547 252.055 297.262 252.055 296.98 252.016L298.387 252.122C298.387 252.122 298.844 251.287 297.505 240.844C293.318 240.773 287.122 240.632 279.531 240.444C279.564 243.525 279.575 246.748 279.586 250.099Z" fill="#455A64"/>
<path d="M232.775 238.609L244.04 238.915L257.627 239.315C257.682 238.139 257.738 236.963 257.783 235.786C258.095 228.953 258.397 222.92 258.654 217.804L253.574 217.663L233.479 217.075C233.333 221.521 233.166 226.566 232.987 232.141C232.932 234.269 232.853 236.41 232.775 238.609Z" fill="#455A64"/>
<path d="M215.527 216.099C220.74 216.217 226.691 216.37 233.211 216.546C233.378 212.336 233.523 208.678 233.646 205.679C233.769 202.68 233.88 200.14 233.959 198.47V197.47C228.254 197.395 222.596 198.556 217.335 200.881C217.034 203.339 216.654 206.502 216.219 210.289C216.007 212.065 215.761 214.029 215.527 216.099Z" fill="#455A64"/>
<path d="M231.391 264.765L214.154 264.248C214.307 264.591 214.478 264.924 214.667 265.247L223.018 279.783L221.656 287.546L230.587 287.781C230.833 279.76 231.157 272.068 231.391 264.765Z" fill="#455A64"/>
<path d="M256.443 288.51L278.47 289.168L278.749 266.059C272.307 265.906 264.984 265.706 257.113 265.494C256.834 272.762 256.655 280.466 256.443 288.51Z" fill="#455A64"/>
<path d="M229.37 319.605C229.474 317.041 229.567 314.497 229.649 311.973L216.844 311.596C214.838 319.148 213.217 326.807 211.988 334.541L228.834 334.976C229.013 329.943 229.192 324.819 229.37 319.605Z" fill="#455A64"/>
<path d="M266.781 198.223C264.793 197.789 262.785 197.471 260.764 197.27C260.426 197.373 260.077 197.424 259.725 197.423C259.044 197.423 258.073 197.529 256.856 197.564C254.434 197.658 251.096 197.693 247.4 197.682L237.944 197.611C235.711 197.611 234.338 197.611 234.081 197.493C234.081 197.787 234.081 198.117 234.081 198.481C234.081 200.151 233.97 202.574 233.88 205.691C233.791 208.807 233.657 212.347 233.523 216.546L253.619 217.099L258.721 217.24C258.888 214.123 259.044 211.359 259.178 209.007C259.368 205.855 259.513 203.409 259.614 201.716C259.67 200.892 259.714 200.269 259.737 199.822C259.759 199.375 259.804 199.175 259.804 199.175C259.804 199.175 259.804 199.399 259.804 199.822C259.804 200.245 259.804 200.904 259.725 201.716C259.658 203.409 259.547 205.867 259.402 209.019C259.301 211.371 259.178 214.135 259.044 217.251L267.06 217.487C267.389 214.35 268.55 211.375 270.409 208.901C269.036 207.559 267.989 205.887 267.357 204.029C266.726 202.17 266.528 200.179 266.781 198.223Z" fill="#455A64"/>
<path d="M279.162 239.856C279.162 234.222 279.095 229.118 279.073 224.649C279.073 223.238 279.073 221.921 279.073 220.639C278.516 223.416 277.069 225.908 274.976 227.695C275.55 229.208 275.801 230.835 275.71 232.461C275.62 234.087 275.19 235.673 274.451 237.104C273.927 238.194 273.122 239.107 272.129 239.738L279.196 239.962L279.162 239.856Z" fill="#455A64"/>
<path d="M226.456 446.35C231.96 446.821 239.552 447.526 247.925 448.597C250.705 448.926 253.384 449.279 255.952 449.62C255.952 449.51 255.952 449.357 255.952 449.161C255.952 448.714 255.952 448.079 255.885 447.268C255.829 445.574 255.762 443.116 255.673 439.964C255.595 437.412 255.528 434.366 255.45 430.944L235.622 430.403L225.887 430.121C225.887 431.297 225.786 432.473 225.753 433.531C225.619 436.648 225.507 439.071 225.44 440.741C225.396 441.525 225.362 442.148 225.34 442.61C225.34 443.034 225.284 443.246 225.284 443.246C225.284 443.246 225.284 443.034 225.284 442.61C225.284 442.187 225.284 441.54 225.284 440.741C225.34 439.059 225.407 436.636 225.496 433.531C225.496 432.473 225.563 431.32 225.597 430.109L216.498 429.85C217.994 441.528 218.374 445.704 218.374 445.704L219.557 445.833H219.959C221.477 445.962 223.699 446.115 226.456 446.35Z" fill="#455A64"/>
<path d="M230.52 288.368L221.589 288.109L218.418 306.009C218.039 307.279 217.547 308.985 216.989 311.066L229.672 311.396C229.962 303.481 230.252 295.789 230.52 288.368Z" fill="#455A64"/>
<path d="M278.046 384.136C277.979 392.439 277.934 400.224 277.934 407.328L286.72 407.634C287.904 400.224 289.031 392.345 289.991 384.383C286.977 384.336 282.936 384.253 278.046 384.136Z" fill="#455A64"/>
<path d="M225.574 429.497C225.764 423.617 226.01 416.008 226.3 407.011V406.376L213.294 405.976C214.667 415.785 215.683 423.405 216.431 429.227L225.574 429.497Z" fill="#455A64"/>
<path d="M277.554 384.124C271.28 383.983 263.722 383.795 255.316 383.571C255.316 391.863 255.383 399.578 255.438 406.622C263.867 406.869 271.381 407.104 277.51 407.316C277.487 400.213 277.499 392.427 277.554 384.124Z" fill="#455A64"/>
<path d="M227.193 382.184C227.439 374.951 227.707 367.259 227.997 359.18L209.476 358.627C209.106 366.329 209.274 374.049 209.978 381.725L227.193 382.184Z" fill="#455A64"/>
<path d="M226.367 405.787C226.613 398.849 226.881 391.145 227.171 382.784L210.034 382.278C210.235 384.312 210.469 386.347 210.771 388.382C211.675 394.685 212.479 400.342 213.193 405.435L226.367 405.787Z" fill="#455A64"/>
<path d="M236.627 383.054L227.628 382.795C227.316 391.157 227.037 398.861 226.78 405.799L234.796 406.023L255.003 406.611C254.914 399.554 254.847 391.839 254.813 383.56L236.627 383.054Z" fill="#455A64"/>
<path d="M255.014 407.152L234.774 406.599L226.758 406.364C226.758 406.575 226.758 406.799 226.758 407.011C226.4 415.996 226.11 423.581 225.876 429.485L235.6 429.756L255.427 430.32C255.315 425.357 255.215 419.583 255.115 413.067C255.07 411.197 255.036 409.21 255.014 407.152Z" fill="#455A64"/>
<path d="M278.704 336.917C278.593 344.867 278.481 352.606 278.381 360.074C284.152 360.262 288.897 360.427 292.258 360.556C292.797 352.792 292.928 345.002 292.648 337.223L278.704 336.917Z" fill="#455A64"/>
<path d="M278.37 360.521C278.291 365.989 278.213 371.317 278.146 376.468C278.146 378.926 278.146 381.325 278.079 383.701C282.958 383.854 287.011 384.007 290.047 384.124C290.985 376.303 291.755 368.424 292.28 360.815C288.875 360.767 284.141 360.662 278.37 360.521Z" fill="#455A64"/>
<path d="M254.791 359.932L238.469 359.485L228.499 359.203C228.198 367.271 227.919 374.962 227.651 382.195L236.582 382.442L254.746 382.972C254.78 375.692 254.769 367.977 254.791 359.932Z" fill="#455A64"/>
<path d="M228.008 358.58C228.276 351.194 228.544 343.503 228.812 335.576L211.898 335.07C210.683 342.692 209.882 350.38 209.498 358.098L228.008 358.58Z" fill="#455A64"/>
<path d="M277.778 360.509C271.381 360.356 263.756 360.168 255.349 359.944C255.349 367.989 255.349 375.704 255.349 382.984L277.588 383.677C277.588 381.325 277.588 378.914 277.644 376.456C277.655 371.317 277.711 365.989 277.778 360.509Z" fill="#455A64"/>
<path d="M215.047 216.087C215.315 213.994 215.571 212.03 215.817 210.207C216.308 206.502 216.743 203.398 217.09 201.01C212.984 202.893 209.321 205.704 206.361 209.243C204.429 211.595 202.61 213.747 200.902 215.758C204.463 215.84 209.275 215.946 215.047 216.087Z" fill="#455A64"/>
<path d="M211.563 245.607C211.824 243.254 212.081 240.902 212.334 238.55C204.698 238.303 198.234 238.091 193.466 237.915L205.479 252.381L206.54 253.639L211.229 248.464C211.351 247.512 211.452 246.559 211.563 245.607Z" fill="#455A64"/>
<path d="M193.198 237.633C197.999 237.727 204.597 237.88 212.401 238.08C213.294 230.129 214.187 222.791 214.991 216.546C209.118 216.358 204.24 216.193 200.678 216.052C194.17 223.696 189.581 228.671 188.085 230.27L187.538 230.859L193.198 237.633Z" fill="#455A64"/>
<path d="M212.97 238.091C218.831 238.232 225.373 238.409 232.351 238.597C232.429 236.398 232.507 234.234 232.585 232.164C232.809 226.589 233.01 221.579 233.177 217.11L215.46 216.628C214.712 222.814 213.852 230.141 212.97 238.091Z" fill="#455A64"/>
<path d="M255.539 336.329H254.958C254.88 344.244 254.824 351.935 254.802 359.356H255.36C255.394 351.935 255.45 344.244 255.539 336.329Z" fill="#263238"/>
<path d="M256.756 261.154C256.756 262.389 256.666 263.624 256.622 264.882H257.135C257.135 263.565 257.214 262.283 257.258 261.001L256.756 261.154Z" fill="#263238"/>
<path d="M256.6 265.482C256.343 272.751 256.108 280.454 255.885 288.486H256.443C256.655 280.442 256.879 272.739 257.113 265.471L256.6 265.482Z" fill="#263238"/>
<path d="M255.874 289.086C255.673 296.495 255.483 304.187 255.327 312.102H255.907C256.064 304.183 256.238 296.511 256.432 289.086H255.874Z" fill="#263238"/>
<path d="M259.692 201.716C259.692 200.904 259.748 200.269 259.77 199.822C259.792 199.375 259.77 199.175 259.77 199.175C259.77 199.175 259.77 199.387 259.703 199.822C259.636 200.257 259.636 200.892 259.58 201.716C259.48 203.409 259.335 205.855 259.145 209.007C259.011 211.359 258.855 214.123 258.687 217.24H259.067C259.201 214.123 259.323 211.359 259.424 209.007C259.513 205.867 259.625 203.409 259.692 201.716Z" fill="#263238"/>
<path d="M257.626 239.315H258.051C258.107 238.138 258.151 236.962 258.196 235.786C258.497 228.942 258.765 222.908 258.988 217.792H258.654C258.397 222.908 258.095 228.942 257.783 235.775C257.738 236.962 257.682 238.138 257.626 239.315Z" fill="#263238"/>
<path d="M255.896 312.713H255.316C255.249 316.586 255.182 320.506 255.115 324.474C255.063 328.276 255.014 332.032 254.969 335.74H255.55C255.595 332.024 255.643 328.264 255.695 324.462C255.762 320.502 255.829 316.586 255.896 312.713Z" fill="#263238"/>
<path d="M256.767 260.625L257.281 260.484C257.526 253.11 257.783 246.218 258.029 239.915H257.604C257.325 246.242 257.046 253.192 256.767 260.625Z" fill="#263238"/>
<path d="M255.349 359.944H254.791C254.791 367.989 254.791 375.704 254.791 382.984H255.304C255.304 375.704 255.316 367.989 255.349 359.944Z" fill="#263238"/>
<path d="M254.813 383.56C254.813 391.793 254.914 399.566 255.003 406.611H255.438C255.383 399.555 255.338 391.851 255.316 383.56H254.813Z" fill="#263238"/>
<path d="M255.963 447.268C255.963 445.562 255.907 443.116 255.863 439.953C255.863 437.4 255.784 434.366 255.74 430.944H255.416C255.494 434.366 255.561 437.412 255.639 439.964C255.729 443.116 255.796 445.574 255.851 447.268C255.851 448.079 255.907 448.714 255.918 449.161C255.918 449.357 255.918 449.51 255.918 449.62V449.161C255.974 448.714 255.974 448.079 255.963 447.268Z" fill="#263238"/>
<path d="M255.45 407.152H255.014C255.014 409.175 255.07 411.162 255.092 413.032C255.193 419.548 255.293 425.322 255.405 430.285H255.74C255.673 425.322 255.595 419.536 255.505 413.009C255.483 411.198 255.461 409.21 255.45 407.152Z" fill="#263238"/>
<path d="M279.073 312.831C279.173 305.998 279.263 299.341 279.341 292.908C279.125 292.53 278.935 292.137 278.772 291.732C278.671 298.53 278.571 305.586 278.47 312.831H279.073Z" fill="#263238"/>
<path d="M279.062 313.301H278.459C278.392 318.123 278.325 323.004 278.258 327.979C278.202 330.825 278.157 333.636 278.124 336.446H278.715C278.715 333.647 278.756 330.825 278.838 327.979C278.916 323.004 278.995 318.123 279.062 313.301Z" fill="#263238"/>
<path d="M279.162 239.856V239.961H279.575V239.844C279.575 234.21 279.452 229.106 279.397 224.625C279.397 222.473 279.33 220.474 279.285 218.616C279.253 219.292 279.171 219.964 279.039 220.627C279.039 221.909 279.039 223.226 279.039 224.637C279.05 229.118 279.162 234.269 279.162 239.856Z" fill="#263238"/>
<path d="M279.162 250.064H279.62C279.62 246.712 279.62 243.49 279.564 240.432H279.162C279.162 243.513 279.162 246.724 279.162 250.064Z" fill="#263238"/>
<path d="M278.894 205.891C278.894 205.185 278.894 204.632 278.838 204.197L278.771 204.28C278.771 204.703 278.771 205.232 278.771 205.903C278.771 207.584 278.771 210.031 278.872 213.159C278.872 213.712 278.872 214.335 278.872 214.888C279.005 215.461 279.102 216.042 279.162 216.628C279.162 215.393 279.162 214.194 279.073 213.1C279.017 210.019 278.95 207.584 278.894 205.891Z" fill="#263238"/>
<path d="M278.704 336.917H278.113C277.99 344.855 277.878 352.606 277.789 360.062H278.381C278.481 352.606 278.593 344.82 278.704 336.917Z" fill="#263238"/>
<path d="M278.303 450.02C278.303 448.338 278.247 445.892 278.202 442.763C278.157 439.635 278.09 435.883 278.068 431.497H277.744C277.744 435.883 277.89 439.67 277.979 442.763C278.068 445.856 278.146 448.338 278.191 450.031C278.191 450.843 278.247 451.466 278.258 451.913C278.269 452.36 278.258 452.56 278.258 452.56C278.258 452.56 278.258 452.337 278.258 451.913C278.258 451.49 278.314 450.831 278.303 450.02Z" fill="#263238"/>
<path d="M278.046 384.136H277.532C277.476 392.439 277.465 400.224 277.532 407.328H277.979C277.956 400.224 278.046 392.439 278.046 384.136Z" fill="#263238"/>
<path d="M277.956 407.752H277.51C277.51 410.633 277.51 413.421 277.51 416.079C277.51 421.63 277.633 426.663 277.688 431.073H278.023C278.023 426.64 277.912 421.665 277.923 416.067C277.945 413.409 277.956 410.637 277.956 407.752Z" fill="#263238"/>
<path d="M278.369 360.521H277.778C277.711 365.989 277.655 371.329 277.61 376.468C277.61 378.926 277.61 381.325 277.554 383.689H278.079C278.079 381.337 278.079 378.914 278.146 376.456C278.213 371.317 278.291 365.989 278.369 360.521Z" fill="#263238"/>
<path d="M229.37 335.6H228.812C228.544 343.526 228.276 351.218 228.008 358.604H228.522C228.79 351.206 229.069 343.526 229.37 335.6Z" fill="#263238"/>
<path d="M232.351 238.597H232.775C232.853 236.398 232.932 234.234 232.999 232.176C233.177 226.601 233.345 221.591 233.49 217.11H233.177C233.01 221.556 232.809 226.589 232.586 232.164C232.507 234.269 232.429 236.398 232.351 238.597Z" fill="#263238"/>
<path d="M230.52 288.368C230.252 295.789 229.962 303.481 229.672 311.372H230.241C230.509 303.481 230.777 295.777 231.045 288.368H230.52Z" fill="#263238"/>
<path d="M231.391 264.765C231.123 272.068 230.833 279.76 230.542 287.78H231.056C231.346 279.76 231.614 272.068 231.86 264.776L231.391 264.765Z" fill="#263238"/>
<path d="M233.635 205.679C233.512 208.678 233.367 212.336 233.199 216.546H233.501C233.635 212.347 233.758 208.69 233.858 205.691C233.959 202.692 234.014 200.152 234.059 198.482C234.059 198.117 234.059 197.788 234.059 197.494H234.003V198.493C233.869 200.163 233.769 202.515 233.635 205.679Z" fill="#263238"/>
<path d="M232.329 239.197C232.05 246.783 231.737 255.168 231.413 264.177H231.882C232.195 255.168 232.485 246.783 232.753 239.197H232.329Z" fill="#263238"/>
<path d="M230.219 311.996H229.649C229.56 314.528 229.467 317.072 229.37 319.628C229.191 324.842 229.013 329.966 228.834 335H229.381C229.575 329.958 229.765 324.834 229.951 319.628C230.01 317.064 230.1 314.52 230.219 311.996Z" fill="#263238"/>
<path d="M226.758 406.399H226.345V407.034C226.054 416.031 225.809 423.617 225.619 429.52H225.876C226.11 423.64 226.401 416.031 226.758 407.046C226.747 406.834 226.747 406.611 226.758 406.399Z" fill="#263238"/>
<path d="M227.171 382.784C226.88 391.146 226.613 398.849 226.367 405.788H226.78C227.037 398.849 227.316 391.146 227.628 382.784H227.171Z" fill="#263238"/>
<path d="M227.997 359.18C227.707 367.259 227.439 374.951 227.193 382.184H227.651C227.919 374.951 228.198 367.259 228.499 359.191L227.997 359.18Z" fill="#263238"/>
<path d="M225.474 433.531C225.385 436.636 225.318 439.058 225.262 440.74C225.262 441.524 225.262 442.147 225.262 442.61C225.262 443.033 225.262 443.245 225.262 443.245C225.262 443.245 225.262 443.033 225.318 442.61C225.373 442.187 225.318 441.54 225.418 440.74C225.485 439.07 225.597 436.647 225.731 433.531C225.731 432.484 225.82 431.32 225.865 430.12H225.574C225.574 431.32 225.507 432.472 225.474 433.531Z" fill="#263238"/>
<path d="M215.047 216.087H215.527C215.772 214.017 216.018 212.053 216.23 210.207C216.699 206.455 217.078 203.292 217.346 200.798L217.067 200.928C216.721 203.28 216.286 206.42 215.795 210.125C215.527 212.03 215.315 213.994 215.047 216.087Z" fill="#263238"/>
<path d="M212.903 238.609H212.334C212.081 240.89 211.824 243.243 211.563 245.665C211.452 246.618 211.351 247.571 211.251 248.523L211.363 248.406C211.363 248.406 211.362 249.876 211.463 252.028C211.686 249.97 211.91 247.865 212.133 245.724C212.39 243.278 212.658 240.914 212.903 238.609Z" fill="#263238"/>
<path d="M215.46 216.628H214.98C214.176 222.885 213.283 230.212 212.39 238.162H212.97C213.852 230.141 214.712 222.814 215.46 216.628Z" fill="#263238"/>
<path d="M279.263 218.404L293.932 218.757L293.765 218.31L279.251 217.852C279.263 218.028 279.274 218.216 279.263 218.404Z" fill="#263238"/>
<path d="M214.98 216.546H215.46L233.177 217.087H233.49L253.585 217.675L258.665 217.816H259L266.982 218.028C266.982 217.828 266.982 217.628 267.038 217.44L259.022 217.204H258.698L253.596 217.063L233.501 216.51H233.199C226.702 216.334 220.729 216.181 215.516 216.064H215.047C209.275 215.922 204.463 215.817 200.902 215.758L200.667 216.028C204.229 216.193 209.107 216.358 214.98 216.546Z" fill="#263238"/>
<path d="M244.018 239.538L257.604 239.902H258.029L264.392 240.079C264.865 239.848 265.359 239.667 265.866 239.538L258.051 239.314H257.627L244.04 238.973L232.775 238.667H232.351C225.374 238.479 218.831 238.303 212.97 238.162H212.39C204.575 237.962 197.988 237.809 193.187 237.715L193.466 238.044C198.234 238.221 204.698 238.432 212.334 238.679H212.903L232.329 239.267H232.753L244.018 239.538Z" fill="#263238"/>
<path d="M268.634 240.15H269.472C269.04 240.062 268.622 239.907 268.233 239.691C268.379 239.831 268.514 239.984 268.634 240.15Z" fill="#263238"/>
<path d="M279.162 239.961L272.095 239.738C271.79 239.922 271.464 240.064 271.124 240.161C270.97 240.2 270.813 240.228 270.655 240.244L279.162 240.455H279.575C287.167 240.643 293.363 240.785 297.55 240.855V240.585C293.363 240.42 287.178 240.208 279.609 239.961H279.162Z" fill="#263238"/>
<path d="M231.86 264.847L245.849 265.247L256.6 265.541H257.113C264.984 265.753 272.307 265.953 278.749 266.106V265.6L257.135 264.847H256.622L245.86 264.542L231.882 264.154H231.413L213.908 263.671C213.986 263.86 214.064 264.024 214.154 264.201L231.391 264.718L231.86 264.847Z" fill="#263238"/>
<path d="M231.045 288.368L243.995 288.733L255.874 289.062H256.432C264.504 289.286 271.961 289.474 278.459 289.638V289.133L256.432 288.474H255.874L244.006 288.133L231.045 287.78H230.531L221.6 287.545L221.5 288.109L230.431 288.368H231.045Z" fill="#263238"/>
<path d="M230.219 311.995L242.153 312.337L255.316 312.701H255.896C264.236 312.925 271.894 313.124 278.459 313.277H279.062L288.674 313.501C288.674 313.371 288.607 313.242 288.562 313.113L279.073 312.807H278.47L255.907 312.113H255.327L242.175 311.737L230.241 311.407H229.672L216.989 311.078C216.933 311.255 216.889 311.443 216.844 311.631L229.649 312.007L230.219 311.995Z" fill="#263238"/>
<path d="M229.37 335.6L240.311 335.906L254.958 336.317H255.539C263.934 336.541 271.604 336.741 278.113 336.894H278.704L292.648 337.199C292.643 337.101 292.643 337.003 292.648 336.905L278.727 336.423H278.135L255.561 335.729H254.981L240.333 335.306L229.392 335.012H228.845L211.999 334.577C211.999 334.753 211.943 334.929 211.909 335.106L228.823 335.612L229.37 335.6Z" fill="#263238"/>
<path d="M227.997 359.18H228.499L238.469 359.462L254.791 359.909H255.349C263.756 360.132 271.381 360.32 277.778 360.473H278.369C284.141 360.614 288.875 360.72 292.246 360.767V360.509C288.897 360.379 284.141 360.215 278.369 360.026H277.778C271.37 359.815 263.744 359.579 255.349 359.333H254.791L238.469 358.862L228.51 358.58H227.997L209.487 358.098C209.487 358.274 209.487 358.45 209.487 358.627L227.997 359.18Z" fill="#263238"/>
<path d="M227.171 382.784H227.629L236.627 383.042L254.813 383.548H255.316C263.722 383.771 271.28 383.96 277.554 384.101H278.046C282.913 384.218 286.977 384.301 289.991 384.348V384.089C286.966 383.971 282.902 383.818 278.023 383.666H277.499L255.26 382.972H254.746L236.638 382.454L227.707 382.207H227.249L209.945 381.725C209.945 381.913 209.945 382.09 210 382.278L227.171 382.784Z" fill="#263238"/>
<path d="M226.345 406.387H226.758L234.774 406.622L255.014 407.175H255.45L277.51 407.716H277.956L286.698 407.904C286.703 407.802 286.703 407.7 286.698 407.599L277.912 407.293H277.465C271.336 407.081 263.823 406.846 255.394 406.599H254.958L234.751 406.011L226.735 405.787H226.322L213.149 405.435L213.227 406.011L226.345 406.387Z" fill="#263238"/>
<path d="M225.575 430.108H225.831L235.566 430.391L255.416 430.932H255.718C264.08 431.155 271.582 431.343 277.722 431.484H278.046L282.512 431.59C282.512 431.461 282.512 431.343 282.59 431.214L278.012 431.061H277.677L255.684 430.367H255.349L235.622 429.791L225.898 429.52H225.575L216.386 429.273L216.453 429.861L225.575 430.108Z" fill="#263238"/>
<path d="M237.944 197.611L247.4 197.682C251.095 197.682 254.434 197.682 256.856 197.564C258.073 197.564 259.089 197.47 259.725 197.423C260.077 197.424 260.426 197.373 260.764 197.27C260.531 197.203 260.289 197.179 260.049 197.199V197.258L238.413 197.164H237.933C236.716 197.164 235.7 197.258 235.064 197.317C234.71 197.313 234.356 197.36 234.014 197.458H234.07C234.338 197.564 235.756 197.587 237.944 197.611Z" fill="#263238"/>
<path d="M251.174 260.931C248.748 260.58 246.434 259.633 244.419 258.167C242.868 257.05 242.075 256.109 241.997 256.192C242.122 256.454 242.288 256.693 242.488 256.897C243.001 257.492 243.565 258.035 244.174 258.52C245.939 259.946 247.992 260.924 250.174 261.381C252.355 261.838 254.607 261.76 256.756 261.155L257.258 261.013C257.716 260.861 258.14 260.708 258.52 260.543C259.228 260.242 259.908 259.872 260.552 259.437C260.998 259.132 261.221 258.92 261.199 258.885C261.177 258.849 260.15 259.485 258.375 260.131C258.04 260.261 257.671 260.378 257.258 260.484L256.745 260.625C254.92 261.078 253.033 261.182 251.174 260.931Z" fill="#263238"/>
<path d="M297.828 252.016C297.828 251.84 291.13 251.122 282.936 250.393L279.586 250.099H279.129C272.743 249.57 267.964 249.276 267.964 249.417C267.964 249.558 272.609 250.087 278.95 250.675L282.857 251.04C289.377 251.616 294.915 252.016 296.947 252.075C297.242 252.098 297.538 252.078 297.828 252.016Z" fill="#263238"/>
<path d="M260.395 190.226C261.065 192.895 263.834 195.189 267.831 194.695C267.304 195.804 266.95 196.995 266.781 198.223C266.525 200.177 266.72 202.167 267.347 204.026C267.975 205.884 269.017 207.557 270.387 208.902C268.528 211.376 267.367 214.351 267.038 217.487C267.038 217.675 267.038 217.875 266.982 218.075C266.718 221.437 267.46 224.801 269.103 227.695C267.373 229.965 265.564 232.4 265.542 235.222C265.573 236.576 266.106 237.864 267.027 238.809C267.352 238.985 267.652 239.206 267.92 239.468L268.244 239.762C268.633 239.978 269.051 240.133 269.483 240.221C269.853 240.283 270.229 240.283 270.599 240.221C270.757 240.205 270.914 240.177 271.068 240.138C271.408 240.041 271.734 239.899 272.039 239.715C273.033 239.083 273.837 238.171 274.362 237.08C275.1 235.649 275.53 234.064 275.621 232.438C275.712 230.812 275.461 229.184 274.886 227.672C276.98 225.885 278.427 223.393 278.984 220.615C279.115 219.953 279.197 219.28 279.229 218.604C279.234 218.53 279.234 218.455 279.229 218.381C279.229 218.193 279.229 218.005 279.229 217.828C279.229 217.428 279.229 217.04 279.162 216.652C279.107 216.054 279.014 215.461 278.883 214.876C278.345 212.539 277.155 210.426 275.467 208.808C276.63 207.72 277.562 206.385 278.202 204.891C277.6 205.53 276.888 206.04 276.103 206.397C275.488 206.678 274.83 206.841 274.161 206.879C273.979 206.898 273.795 206.898 273.614 206.879C273.491 206.879 273.424 206.879 273.424 206.879C273.424 206.879 273.491 206.879 273.614 206.808C273.736 206.738 273.904 206.808 274.127 206.702C275.686 206.387 277.096 205.52 278.124 204.245C278.385 203.917 278.613 203.563 278.805 203.186C278.872 202.927 278.95 202.669 278.995 202.398C279.313 200.769 279.313 199.088 278.995 197.459C278.622 196.576 278.091 195.777 277.432 195.106C276.762 194.516 276.036 194 275.266 193.566C275.266 193.566 275.333 193.566 275.456 193.566C275.635 193.597 275.811 193.648 275.98 193.719C276.614 193.956 277.201 194.315 277.711 194.777C278.003 195.037 278.272 195.324 278.515 195.636C277.961 194.007 277.06 192.534 275.88 191.331C277.069 188.426 277.532 185.248 277.226 182.1C276.919 178.952 275.852 175.94 274.127 173.349C272.464 180.911 268.556 188.156 260.395 190.226ZM273.201 209.172C273.201 209.337 272.564 209.313 271.861 209.384C271.157 209.454 270.566 209.549 270.51 209.384C270.454 209.219 271.001 208.819 271.816 208.761C272.631 208.702 273.245 209.008 273.201 209.172ZM271.169 227.778C270.052 227.59 269.036 227.578 269.014 227.401C269.708 227.044 270.5 226.961 271.247 227.166C272.497 227.366 273.39 227.919 273.323 228.072C273.256 228.225 272.33 227.954 271.169 227.778ZM270.532 192.096C271.271 191.766 272.096 191.716 272.866 191.955C272.866 192.131 271.872 192.319 270.689 192.684C269.505 193.048 268.567 193.448 268.456 193.295C268.344 193.142 269.271 192.472 270.532 192.096Z" fill="#263238"/>
<path d="M242.912 141.489C243.329 143.352 243.99 145.146 244.877 146.816C245.393 147.803 245.991 148.74 246.663 149.615C247.377 150.562 248.173 151.436 249.041 152.226C249.921 153 250.862 153.693 251.855 154.296C252.786 154.853 253.761 155.325 254.769 155.708C256.476 156.356 258.261 156.752 260.072 156.884H260.563V152.932C260.563 152.932 245.502 151.544 242.332 136.961C242.332 137.137 242.332 137.349 242.332 137.596C242.412 138.91 242.606 140.213 242.912 141.489Z" fill="#B78876"/>
<path d="M260.06 197.199L260.317 190.249H260.239L260.462 166.504V166.445C260.36 165.301 260.386 164.149 260.54 163.011L260.596 157.331H260.094C255.908 157.136 251.902 155.481 248.706 152.626C247.816 151.809 246.997 150.907 246.261 149.933C245.577 149.024 244.971 148.052 244.453 147.028C243.56 145.305 242.92 143.449 242.555 141.524C242.297 140.233 242.181 138.915 242.209 137.596C242.213 137.238 242.235 136.881 242.276 136.526C242.281 136.495 242.281 136.463 242.276 136.432C242.276 136.432 242.276 136.432 242.276 136.373L242.187 136.467C241.305 138.819 239.764 143.771 240.892 147.757L227.204 151.744L225.686 153.285C225.686 160.106 225.787 167.821 226.11 172.596C226.78 182.722 236.247 183.698 236.247 183.698C240.722 183.438 245.026 181.802 248.628 178.994C248.628 178.994 245.882 186.474 236.482 186.156L236.247 183.663C236.247 183.663 237.018 194.365 236.939 197.058H238.469L260.105 197.152L260.06 197.199ZM228.991 157.436C228.665 157.436 228.353 157.3 228.122 157.058C227.892 156.815 227.763 156.486 227.763 156.143C227.763 155.8 227.892 155.471 228.122 155.228C228.353 154.985 228.665 154.849 228.991 154.849C229.316 154.849 229.629 154.985 229.859 155.228C230.089 155.471 230.219 155.8 230.219 156.143C230.219 156.486 230.089 156.815 229.859 157.058C229.629 157.3 229.316 157.436 228.991 157.436ZM231.335 154.39C231.201 154.579 230.219 153.897 228.935 154.002C227.651 154.108 226.758 154.92 226.601 154.755C226.445 154.59 226.601 154.355 227.037 153.979C227.554 153.474 228.22 153.172 228.924 153.12C229.604 153.061 230.284 153.243 230.855 153.638C231.235 154.002 231.402 154.296 231.335 154.39ZM233.691 166.551C233.567 166.519 233.451 166.456 233.354 166.368C233.257 166.281 233.181 166.17 233.133 166.045C233.013 165.556 233.053 165.039 233.244 164.575C233.501 163.646 233.769 162.67 234.059 161.647C234.687 159.125 235.493 156.656 236.471 154.261C236.03 156.833 235.403 159.365 234.595 161.835C234.294 162.846 234.003 163.811 233.735 164.74C233.563 165.103 233.501 165.514 233.557 165.916C233.624 166.163 233.936 166.21 234.271 166.233C234.983 166.225 235.692 166.316 236.381 166.504C235.684 166.658 234.97 166.71 234.26 166.657C234.067 166.649 233.875 166.614 233.691 166.551ZM238.737 171.385C237.991 171.725 237.156 171.785 236.374 171.554C235.591 171.322 234.908 170.814 234.439 170.115C237.073 170.115 241.963 166.774 240.668 167.762C240.668 167.727 241.483 170.091 238.737 171.385ZM242.901 157.272C242.575 157.272 242.263 157.136 242.033 156.893C241.802 156.65 241.673 156.321 241.673 155.978C241.673 155.635 241.802 155.306 242.033 155.063C242.263 154.821 242.575 154.684 242.901 154.684C243.227 154.684 243.539 154.821 243.769 155.063C244 155.306 244.129 155.635 244.129 155.978C244.129 156.321 244 156.65 243.769 156.893C243.539 157.136 243.227 157.272 242.901 157.272ZM245.67 154.296C245.536 154.485 244.553 153.802 243.27 153.908C241.986 154.014 241.093 154.826 240.936 154.661C240.78 154.496 240.992 154.249 241.372 153.885C241.883 153.404 242.53 153.114 243.214 153.061C243.895 153.012 244.573 153.198 245.145 153.591C245.558 153.838 245.726 154.143 245.67 154.296Z" fill="#B78876"/>
<path d="M228.924 154.849C228.68 154.847 228.441 154.921 228.237 155.062C228.034 155.204 227.874 155.405 227.78 155.642C227.686 155.879 227.66 156.14 227.708 156.392C227.755 156.644 227.872 156.876 228.044 157.058C228.217 157.239 228.436 157.363 228.676 157.412C228.915 157.462 229.163 157.435 229.388 157.336C229.612 157.236 229.804 157.069 229.938 156.854C230.072 156.64 230.143 156.388 230.14 156.131C230.14 155.791 230.012 155.465 229.784 155.225C229.556 154.984 229.246 154.849 228.924 154.849Z" fill="#263238"/>
<path d="M230.81 153.685C230.257 153.284 229.594 153.086 228.924 153.121C228.241 153.169 227.594 153.455 227.082 153.932C226.691 154.309 226.579 154.638 226.646 154.708C226.713 154.779 227.684 154.05 228.979 153.956C230.274 153.862 231.212 154.532 231.38 154.344C231.547 154.156 231.235 154.003 230.81 153.685Z" fill="#263238"/>
<path d="M242.879 154.697C242.634 154.692 242.394 154.764 242.189 154.904C241.984 155.044 241.823 155.245 241.727 155.481C241.631 155.718 241.604 155.979 241.65 156.232C241.696 156.485 241.812 156.718 241.984 156.901C242.156 157.083 242.376 157.208 242.615 157.258C242.855 157.309 243.103 157.283 243.329 157.184C243.554 157.085 243.747 156.918 243.881 156.703C244.016 156.488 244.087 156.236 244.084 155.978C244.084 155.64 243.958 155.316 243.732 155.076C243.506 154.836 243.199 154.7 242.879 154.697Z" fill="#263238"/>
<path d="M245.134 153.532C244.562 153.139 243.884 152.953 243.202 153.003C242.519 153.056 241.871 153.345 241.36 153.826C240.981 154.191 240.858 154.52 240.925 154.602C240.992 154.685 241.963 153.944 243.258 153.85C244.553 153.756 245.491 154.426 245.659 154.238C245.826 154.05 245.558 153.838 245.134 153.532Z" fill="#263238"/>
<path d="M234.271 166.175C233.936 166.175 233.624 166.104 233.557 165.857C233.501 165.455 233.563 165.045 233.735 164.681C234.003 163.752 234.294 162.787 234.595 161.776C235.404 159.306 236.031 156.774 236.471 154.202C235.493 156.597 234.687 159.066 234.059 161.588C233.769 162.611 233.501 163.587 233.244 164.516C233.053 164.98 233.013 165.497 233.133 165.986C233.181 166.111 233.257 166.222 233.354 166.309C233.451 166.397 233.567 166.46 233.691 166.492C233.88 166.519 234.071 166.519 234.26 166.492C234.971 166.545 235.684 166.494 236.381 166.339C235.688 166.187 234.978 166.131 234.271 166.175Z" fill="#263238"/>
<path d="M234.439 170.114C234.908 170.814 235.591 171.322 236.374 171.554C237.156 171.785 237.991 171.725 238.737 171.385C241.483 170.091 240.668 167.727 240.668 167.727C241.963 166.774 237.073 170.091 234.439 170.114Z" fill="white"/>
<path d="M248.584 179.088C244.981 181.896 240.677 183.532 236.203 183.792L236.437 186.285C245.837 186.568 248.584 179.088 248.584 179.088Z" fill="#A36957"/>
<path d="M240.847 147.816C239.731 143.829 241.26 138.843 242.142 136.526L242.231 136.432C242.231 136.432 242.231 136.432 242.231 136.491C242.236 136.398 242.255 136.307 242.287 136.22C242.287 136.22 242.287 136.35 242.287 136.585C242.287 136.82 242.287 136.855 242.287 137.02C245.458 151.603 260.518 152.991 260.518 152.991V156.943C261.579 157.006 262.643 156.978 263.7 156.86C264.135 156.86 264.47 156.754 264.705 156.731C264.939 156.707 265.062 156.731 265.062 156.731C264.956 156.79 264.844 156.833 264.727 156.86C264.4 156.957 264.068 157.036 263.733 157.095C262.669 157.294 261.588 157.381 260.507 157.354L260.451 163.035C260.518 162.668 260.608 162.307 260.719 161.953C260.933 161.222 261.328 160.566 261.864 160.051C262.4 159.536 263.057 159.181 263.767 159.024C264.598 158.959 265.424 159.218 266.086 159.751C266.749 160.284 267.203 161.055 267.362 161.917C267.481 162.788 267.353 163.675 266.993 164.469C266.633 165.262 266.058 165.925 265.341 166.375C264.327 166.985 263.148 167.22 261.992 167.045C261.992 167.116 261.992 167.163 261.992 167.233C261.9 167.804 262.011 168.39 262.304 168.88C262.478 169.173 262.712 169.421 262.987 169.609C263.263 169.796 263.574 169.917 263.899 169.963C264.225 170.009 264.555 169.979 264.868 169.875C265.181 169.771 265.468 169.596 265.709 169.362C266.117 168.975 266.376 168.443 266.435 167.868C266.449 167.31 266.374 166.753 266.212 166.222C266.212 166.222 266.837 166.692 266.848 167.892C266.838 168.602 266.561 169.278 266.078 169.773C265.787 170.085 265.432 170.32 265.04 170.462C264.648 170.603 264.23 170.646 263.82 170.588C263.409 170.53 263.017 170.372 262.675 170.126C262.332 169.881 262.049 169.555 261.847 169.174C261.679 168.869 261.57 168.532 261.526 168.183C261.482 167.834 261.504 167.479 261.59 167.139C261.585 167.088 261.585 167.037 261.59 166.986C261.209 166.913 260.835 166.803 260.473 166.657L260.362 166.528L260.139 190.272H260.217H260.295C268.456 188.202 272.307 180.958 274.094 173.384C274.205 172.878 274.317 172.373 274.417 171.867C274.35 172.008 274.283 172.173 274.205 172.314C273.712 173.332 273.137 174.304 272.486 175.219C272.268 175.576 272.001 175.897 271.693 176.171C271.604 176.101 272.676 174.701 273.837 172.126C274.212 171.3 274.54 170.452 274.819 169.585C275.428 165.281 275.652 160.926 275.489 156.578V155.884C275.085 154.066 274.486 152.302 273.703 150.627C272.497 148.063 271.414 146.687 271.47 146.617C271.774 146.886 272.041 147.198 272.263 147.546C272.93 148.452 273.523 149.416 274.038 150.427C274.565 151.464 275.016 152.541 275.389 153.65V152.473C275.389 152.403 275.389 152.309 275.389 152.144C275.248 150.765 275.04 149.395 274.764 148.04C269.438 126.953 252.212 123.201 248.818 123.236C245.167 123.236 238.77 121.178 229.571 131.728C220.372 142.277 225.574 153.367 225.574 153.367L227.093 151.827L240.847 147.816Z" fill="#263238"/>
<path d="M267.54 239.938C267.346 239.774 267.177 239.579 267.038 239.362C266.643 239.396 266.252 239.459 265.866 239.55C264.365 239.929 262.996 240.744 261.914 241.902C260.484 243.527 259.712 245.674 259.759 247.888L261.78 247.03C261.253 248.155 260.92 249.369 260.797 250.617C261.364 250.607 261.922 250.473 262.437 250.224C262.952 249.975 263.412 249.616 263.789 249.17L263.231 251.922C264.972 251.03 266.408 249.59 267.34 247.802C268.272 246.013 268.654 243.964 268.433 241.937C268.346 241.664 268.241 241.397 268.121 241.138C267.808 240.456 267.529 240.079 267.596 239.962C267.663 239.844 267.875 240.091 268.177 240.467C268.165 240.391 268.146 240.316 268.121 240.244C267.917 240.165 267.722 240.062 267.54 239.938Z" fill="#263238"/>
<path d="M266.882 238.797C266.803 238.856 266.882 239.091 267.06 239.361C267.199 239.579 267.369 239.773 267.563 239.938C267.741 240.091 267.936 240.221 268.143 240.326C268.456 240.479 268.701 240.526 268.746 240.432C268.791 240.338 268.746 240.302 268.657 240.196C268.535 240.04 268.4 239.894 268.255 239.761L267.931 239.467C267.663 239.206 267.363 238.984 267.038 238.809C267.015 238.792 266.989 238.783 266.961 238.781C266.934 238.779 266.906 238.784 266.882 238.797Z" fill="#FFC857"/>
<path d="M271.247 227.213C270.5 227.007 269.708 227.091 269.014 227.448C269.014 227.624 270.008 227.636 271.169 227.824C272.33 228.013 273.256 228.283 273.323 228.118C273.39 227.954 272.464 227.366 271.247 227.213Z" fill="#FFC857"/>
<path d="M270.51 209.395C270.566 209.548 271.157 209.395 271.861 209.395C272.564 209.395 273.167 209.395 273.201 209.184C273.234 208.972 272.631 208.713 271.816 208.784C271.001 208.854 270.443 209.242 270.51 209.395Z" fill="#FFC857"/>
<path d="M270.689 192.684C271.872 192.319 272.866 192.131 272.866 191.955C272.096 191.716 271.271 191.766 270.532 192.096C269.271 192.472 268.411 193.154 268.489 193.272C268.567 193.389 269.505 193.037 270.689 192.684Z" fill="#FFC857"/>
<path d="M263.778 157.096C264.113 157.036 264.445 156.958 264.772 156.861C264.888 156.833 265.001 156.79 265.107 156.731C265.107 156.731 264.973 156.731 264.749 156.731C264.526 156.731 264.18 156.825 263.745 156.861C262.688 156.979 261.624 157.006 260.563 156.943H260.071C258.261 156.811 256.476 156.415 254.769 155.767C253.761 155.385 252.786 154.913 251.855 154.356C250.862 153.752 249.921 153.059 249.041 152.286C248.173 151.495 247.377 150.621 246.663 149.675C245.991 148.799 245.393 147.862 244.877 146.876C243.99 145.205 243.329 143.412 242.912 141.548C242.628 140.289 242.453 139.006 242.388 137.714C242.388 137.467 242.388 137.255 242.388 137.079C242.388 136.903 242.388 136.762 242.388 136.644C242.388 136.526 242.388 136.279 242.388 136.279C242.356 136.366 242.337 136.457 242.332 136.55C242.337 136.581 242.337 136.613 242.332 136.644C242.291 136.999 242.269 137.356 242.265 137.714C242.237 139.033 242.353 140.351 242.611 141.642C242.976 143.567 243.616 145.423 244.509 147.146C245.027 148.17 245.632 149.142 246.317 150.051C247.053 151.025 247.871 151.927 248.762 152.744C249.667 153.549 250.643 154.262 251.676 154.873C254.272 156.408 257.175 157.278 260.15 157.413H260.652C261.701 157.414 262.748 157.307 263.778 157.096Z" fill="#263238"/>
<path d="M272.374 147.499C272.153 147.151 271.886 146.839 271.582 146.57C271.493 146.64 272.575 148.016 273.815 150.58C274.597 152.256 275.197 154.019 275.601 155.837C276.018 157.628 276.239 159.463 276.26 161.306C276.265 164.108 275.824 166.891 274.953 169.539C274.674 170.405 274.346 171.253 273.971 172.079C272.855 174.654 271.738 176.054 271.827 176.124C272.135 175.85 272.402 175.529 272.62 175.172C273.271 174.257 273.846 173.285 274.339 172.267C274.418 172.126 274.484 171.961 274.551 171.82C276.987 166.636 277.5 160.682 275.992 155.12C275.858 154.591 275.69 154.085 275.534 153.603C275.162 152.494 274.71 151.417 274.183 150.38C273.658 149.368 273.053 148.404 272.374 147.499Z" fill="#263238"/>
<path d="M277.778 194.765C277.268 194.303 276.681 193.944 276.047 193.707C275.878 193.636 275.702 193.585 275.523 193.554C275.4 193.554 275.333 193.554 275.333 193.554C276.103 193.988 276.829 194.504 277.499 195.094C278.158 195.765 278.689 196.564 279.062 197.447V197.529C279.529 198.635 279.696 199.857 279.542 201.057C279.459 201.537 279.328 202.006 279.151 202.457C279.054 202.712 278.938 202.96 278.805 203.197C278.613 203.574 278.385 203.929 278.124 204.256C277.097 205.531 275.686 206.398 274.127 206.714C273.904 206.714 273.725 206.785 273.614 206.82C273.502 206.855 273.424 206.82 273.424 206.89C273.424 206.961 273.491 206.89 273.614 206.89C273.796 206.91 273.979 206.91 274.161 206.89C274.83 206.853 275.488 206.689 276.103 206.408C276.888 206.052 277.6 205.541 278.202 204.903C278.315 204.799 278.423 204.689 278.526 204.573C278.604 204.479 278.671 204.374 278.738 204.279L278.805 204.197C279.144 203.737 279.429 203.236 279.653 202.704C279.871 202.185 280.025 201.64 280.111 201.081C280.231 200.106 280.153 199.116 279.884 198.176C279.615 197.235 279.159 196.366 278.548 195.624C278.317 195.313 278.059 195.026 277.778 194.765Z" fill="#263238"/>
<path d="M267.596 240.044C267.529 240.114 267.808 240.491 268.121 241.22C268.241 241.479 268.346 241.746 268.433 242.02C268.642 242.661 268.766 243.33 268.802 244.007C268.837 244.978 268.685 245.946 268.355 246.853C268.221 247.206 268.098 247.488 268.009 247.676C267.92 247.865 267.886 247.994 267.92 248.018C267.953 248.041 268.043 248.018 268.199 247.818C268.401 247.581 268.577 247.32 268.724 247.041C269.198 246.102 269.426 245.047 269.383 243.984C269.34 242.921 269.027 241.889 268.478 240.996C268.389 240.854 268.288 240.72 268.177 240.596C267.875 240.15 267.63 240.008 267.596 240.044Z" fill="#263238"/>
<path d="M261.679 166.986C262.014 165.963 262.65 165.646 262.662 165.705C262.422 166.129 262.224 166.579 262.07 167.045C263.226 167.221 264.405 166.985 265.419 166.375C266.137 165.926 266.712 165.263 267.071 164.469C267.431 163.676 267.559 162.788 267.44 161.918C267.281 161.055 266.827 160.285 266.164 159.751C265.502 159.218 264.677 158.959 263.845 159.025C263.135 159.182 262.478 159.536 261.942 160.051C261.406 160.566 261.011 161.223 260.797 161.953C260.686 162.307 260.596 162.669 260.529 163.035C260.375 164.172 260.349 165.325 260.451 166.469V166.528L260.563 166.657C260.924 166.803 261.298 166.913 261.679 166.986ZM263.912 160.977C264.159 160.903 264.418 160.888 264.671 160.933C264.924 160.978 265.164 161.081 265.374 161.236C265.608 161.457 265.788 161.733 265.901 162.041C266.013 162.35 266.055 162.683 266.022 163.011C266.007 163.642 265.795 164.249 265.419 164.74C265.1 165.145 264.651 165.413 264.158 165.493C263.309 165.599 262.896 165.128 262.974 165.07C263.052 165.011 263.443 165.175 264.091 164.964C264.468 164.812 264.792 164.541 265.016 164.186C265.24 163.832 265.354 163.413 265.341 162.988C265.363 162.777 265.343 162.564 265.283 162.362C265.224 162.16 265.126 161.973 264.995 161.812C264.724 161.596 264.384 161.499 264.046 161.541C263.398 161.624 262.93 161.824 262.93 161.706C262.93 161.588 263.086 161.236 263.856 160.977H263.912Z" fill="#B78876"/>
<path d="M263.945 161.506C264.283 161.464 264.623 161.561 264.894 161.776C265.025 161.937 265.123 162.124 265.183 162.327C265.242 162.529 265.262 162.742 265.24 162.952C265.253 163.378 265.139 163.797 264.915 164.151C264.691 164.505 264.368 164.777 263.99 164.928C263.387 165.14 262.963 164.928 262.874 165.034C262.784 165.14 263.209 165.563 264.057 165.457C264.551 165.377 265 165.11 265.319 164.705C265.694 164.214 265.906 163.606 265.922 162.976C265.954 162.647 265.913 162.315 265.8 162.006C265.688 161.697 265.507 161.421 265.274 161.2C265.064 161.045 264.823 160.942 264.57 160.897C264.317 160.852 264.058 160.868 263.811 160.941C263.041 161.2 262.695 161.553 262.762 161.635C262.829 161.718 263.298 161.588 263.945 161.506Z" fill="#A36957"/>
<path d="M261.679 166.986C261.675 167.037 261.675 167.088 261.679 167.139C261.593 167.479 261.571 167.834 261.615 168.183C261.66 168.532 261.768 168.869 261.936 169.174C262.138 169.554 262.422 169.881 262.764 170.126C263.107 170.372 263.499 170.53 263.909 170.588C264.32 170.646 264.738 170.603 265.129 170.461C265.521 170.32 265.877 170.084 266.167 169.773C266.65 169.278 266.927 168.602 266.937 167.892C266.937 166.716 266.323 166.163 266.301 166.222C266.463 166.753 266.539 167.31 266.524 167.868C266.465 168.443 266.207 168.975 265.799 169.362C265.557 169.596 265.27 169.771 264.957 169.875C264.645 169.979 264.314 170.009 263.989 169.963C263.664 169.917 263.352 169.796 263.077 169.608C262.801 169.421 262.568 169.172 262.394 168.879C262.101 168.39 261.989 167.804 262.081 167.233C262.081 167.162 262.081 167.115 262.081 167.045C262.235 166.578 262.433 166.129 262.673 165.704C262.673 165.704 262.014 165.963 261.679 166.986Z" fill="#FFC857"/>
<path d="M237.453 447.985C240.691 448.35 244.151 448.761 247.813 449.161C256.175 450.184 263.733 451.196 269.204 451.96L271.224 452.231L275.69 452.842L277.454 453.054C277.661 453.085 277.872 453.085 278.079 453.054C277.883 452.983 277.681 452.932 277.476 452.901L275.724 452.572C274.607 452.36 273.078 452.101 271.258 451.807L269.282 451.49L268.445 451.36C264.95 450.819 260.697 450.184 255.952 449.549C253.384 449.208 250.705 448.855 247.925 448.526C239.552 447.503 231.96 446.75 226.456 446.28C223.699 446.045 221.477 445.88 219.936 445.786H219.535L218.161 445.715C217.954 445.692 217.744 445.692 217.536 445.715C217.736 445.781 217.942 445.82 218.15 445.833L219.914 446.045H220.216L226.423 446.703C229.504 447.138 233.278 447.515 237.453 447.985Z" fill="#263238"/>
<path d="M204.552 195.965C204.552 195.965 189.358 192.895 167.521 172.008C145.684 151.121 134.944 122.825 132.343 123.037C129.742 123.248 118.231 118.038 97.9686 168.186C77.7057 218.334 86.5142 229.577 90.8124 229.342C95.1106 229.107 124.07 219.686 142.357 221.321C160.644 222.956 184.345 232.27 184.345 232.27L204.552 195.965Z" fill="#FFC857"/>
<path opacity="0.4" d="M204.552 195.965C204.552 195.965 189.358 192.895 167.521 172.008C145.684 151.121 134.944 122.825 132.343 123.037C129.742 123.248 118.231 118.038 97.9686 168.186C77.7057 218.334 86.5142 229.577 90.8124 229.342C95.1106 229.107 124.07 219.686 142.357 221.321C160.644 222.956 184.345 232.27 184.345 232.27L204.552 195.965Z" fill="white"/>
<path d="M237.364 224.273L232.485 234.74L230.252 239.444C228.813 242.544 226.297 244.943 223.226 246.145C220.155 247.347 216.763 247.259 213.752 245.901L181.063 234.999L198.691 189.132L231.525 206.314C234.548 207.893 236.857 210.666 237.95 214.029C239.044 217.391 238.833 221.073 237.364 224.273Z" fill="#FFC857"/>
<path d="M219.144 241.326L209.398 262.93L204.195 261.578L171.294 291.45L161.358 272.315C161.358 272.315 181.018 262.683 184.502 255.098C187.985 247.512 183.675 245.936 183.675 245.936L192.752 234.446L219.144 241.326Z" fill="#FFC857"/>
<path d="M99.7324 171.314C88.959 198.481 84.8171 222.52 90.4885 225.014C96.1599 227.507 109.467 207.514 120.252 180.323C131.037 153.132 135.145 129.152 129.563 126.659C123.981 124.165 110.517 144.159 99.7324 171.314Z" fill="#263238"/>
<path d="M240.534 239.091L231.692 236.456L236.828 225.413L243.515 229.529L240.534 239.091Z" fill="#455A64"/>
<path d="M189.637 238.409L213.64 253.545L216.42 247.383L189.637 238.409Z" fill="#263238"/>
<path d="M236.828 225.413L231.692 236.456L233.501 236.997L237.62 225.907L236.828 225.413Z" fill="#263238"/>
<path d="M182.425 231.553C182.425 231.553 176.229 229.365 176.43 229.424C176.631 229.483 195.632 192.531 195.632 192.531L197.139 193.248L183.039 230.33" fill="#263238"/>
<path d="M230.844 228.107C230.721 228.413 226.3 226.754 220.964 224.39C215.627 222.027 211.385 219.886 211.508 219.592C211.63 219.298 216.051 220.945 221.399 223.297C226.747 225.649 230.967 227.801 230.844 228.107Z" fill="#263238"/>
<path d="M233.389 221.556C233.266 221.85 229.259 220.203 224.458 217.886C219.657 215.569 215.839 213.441 215.973 213.182C216.107 212.923 220.115 214.535 224.905 216.851C229.694 219.168 233.501 221.25 233.389 221.556Z" fill="#263238"/>
<path d="M227.629 234.999C227.629 235.163 226.512 234.94 224.86 234.446C224.022 234.199 223.029 233.893 221.924 233.529C220.818 233.164 219.691 232.576 218.474 232.047C213.618 229.836 209.889 227.648 210 227.342C210.112 227.037 214.098 228.73 218.932 230.871C220.137 231.4 221.265 232.047 222.281 232.423C223.297 232.799 224.29 233.223 225.083 233.599C226.691 234.34 227.662 234.846 227.629 234.999Z" fill="#263238"/>
<path d="M123.021 164.658C123.021 164.658 109.624 156.425 102.981 175.372C96.3386 194.318 110.193 196.917 110.193 196.917C115.889 186.853 120.207 175.993 123.021 164.658Z" fill="#FFC857"/>
<path d="M136.373 141.971C136.329 143.157 136.191 144.337 135.96 145.499C135.603 147.851 135.1 151.121 134.375 155.213C133.872 157.236 133.325 159.447 132.734 161.811C132.443 162.987 132.131 164.222 131.818 165.48C131.662 166.115 131.494 166.751 131.327 167.397C131.159 168.044 130.914 168.679 130.702 169.326C129.831 171.925 128.904 174.654 127.955 177.476C127.721 178.182 127.475 178.899 127.23 179.617C126.984 180.334 126.649 181.016 126.359 181.734L124.528 186.05L122.686 190.342C122.373 191.048 122.105 191.766 121.748 192.436L120.71 194.423L116.724 201.986C116.4 202.585 116.11 203.162 115.775 203.761L114.726 205.408L112.716 208.572L109.099 214.276C106.676 217.545 104.633 220.156 103.249 221.944C102.572 222.904 101.825 223.809 101.016 224.648C101.57 223.588 102.217 222.584 102.948 221.65C104.287 219.744 106.185 217.051 108.53 213.758L112.002 208.054L113.933 204.867L114.949 203.22C115.273 202.644 115.563 202.044 115.876 201.445L119.772 193.894L120.799 191.918C121.156 191.26 121.413 190.542 121.726 189.837C122.317 188.437 122.931 187.014 123.545 185.579C124.159 184.145 124.773 182.71 125.376 181.31C125.667 180.605 126.002 179.934 126.236 179.217C126.47 178.499 126.727 177.794 126.973 177.1C127.933 174.301 128.871 171.596 129.764 169.02C129.976 168.385 130.222 167.75 130.411 167.115L130.914 165.222L131.885 161.588C132.51 159.235 133.102 157.06 133.638 155.06L135.569 145.452C135.742 144.269 136.011 143.105 136.373 141.971Z" fill="#263238"/>
<path d="M268.266 249.37C268.266 249.37 255.383 274.503 251.922 274.891C232.809 276.984 212.334 270.375 205.155 267.752C204.43 266.87 203.592 265.823 202.666 264.541C201.874 263.424 201.263 262.176 200.857 260.849C200.296 259.208 199.947 257.495 199.819 255.756C199.86 255.425 199.8 255.088 199.646 254.796C199.493 254.503 199.254 254.27 198.966 254.131C198.677 253.991 198.354 253.953 198.044 254.021C197.733 254.089 197.451 254.26 197.24 254.51C196.414 255.686 196.213 260.108 198.111 264.847C200.008 269.587 193.321 265.87 190.865 264.565C188.409 263.26 180.616 259.614 179.634 260.119C178.205 260.849 178.652 262.636 181.141 263.883C183.631 265.129 190.832 269.41 190.072 270.786C189.313 272.162 176.932 265.318 176.932 265.318C176.932 265.318 174.498 263.389 173.583 264.953C172.009 267.764 185.741 273.962 187.058 274.515C187.974 274.903 187.248 276.42 186.288 275.961C185.328 275.502 174.007 268.834 172.4 271.68C171.16 273.868 183.653 276.902 185.272 279.677C186.891 282.453 176.017 276.337 174.9 278.501C174.487 279.301 174.286 279.96 181.007 282.5C185.923 284.112 190.921 285.431 195.978 286.452V286.522C195.978 286.522 260.507 318.276 277.476 286.769C288.573 266.2 289.612 263.589 293.541 251.969" fill="#B78876"/>
<path d="M7.19296 292.331H132.912C133.76 292.334 134.572 292.691 135.171 293.324C135.769 293.956 136.105 294.813 136.105 295.706V322.544C136.942 333.94 136.105 336.763 123.769 337.692V349.806L112.459 337.892H7.19296C6.34614 337.892 5.534 337.538 4.93521 336.907C4.33642 336.276 4.00002 335.421 4.00002 334.528V295.718C3.99855 295.275 4.07997 294.836 4.23964 294.426C4.39931 294.015 4.63409 293.643 4.93058 293.328C5.22707 293.013 5.57947 292.764 5.96765 292.592C6.35583 292.421 6.77219 292.333 7.19296 292.331Z" fill="#455A64"/>
<path d="M112.013 306.585H45.5417V309.584H112.013V306.585Z" fill="#FFC857"/>
<path d="M112.013 312.889H45.5417V315.888H112.013V312.889Z" fill="#FFC857"/>
<path d="M79.2351 319.663H45.5417V322.662H79.2351V319.663Z" fill="#FFC857"/>
<path d="M39.6693 305.245H21.1034V324.803H39.6693V305.245Z" fill="#FFC857"/>
<path d="M449.169 94.4927C449.169 92.9331 448.581 91.4374 447.534 90.3346C446.487 89.2318 445.068 88.6123 443.587 88.6123L304.471 89.3297C302.991 89.3297 301.571 89.9492 300.524 91.052C299.477 92.1548 298.889 93.6505 298.889 95.2101L299.101 141.441C299.101 142.219 299.247 142.988 299.531 143.705C299.815 144.423 300.232 145.074 300.756 145.62C301.28 146.167 301.902 146.599 302.586 146.891C303.269 147.183 304.001 147.33 304.739 147.322H307.753L307.843 164.245L323.539 147.239L443.81 146.616C445.291 146.616 446.711 145.997 447.758 144.894C448.804 143.791 449.393 142.295 449.393 140.736L449.169 94.4927Z" fill="#FFC857"/>
<path d="M407.014 125.917C406.924 123.259 407.014 119.343 407.014 115.85C406.266 113.829 406.101 111.62 406.54 109.501C406.979 107.382 408.002 105.446 409.481 103.936C414.661 98.2443 418.166 99.4909 420.176 99.5145C422.186 99.538 431.496 101.867 434.176 113.521C434.313 114.272 434.41 115.03 434.466 115.791C434.522 116.368 434.578 116.967 434.622 117.32C434.741 119.409 435.364 121.432 436.432 123.196C437.501 124.96 438.98 126.407 440.729 127.399C442.01 124.319 442.66 120.989 442.638 117.626C442.623 113.383 441.55 109.219 439.527 105.549C437.504 101.88 434.602 98.8354 431.111 96.7191C427.62 94.6029 423.662 93.4896 419.634 93.4907C415.606 93.4918 411.65 94.6073 408.16 96.7254C404.669 98.8436 401.769 101.89 399.747 105.56C397.726 109.231 396.656 113.396 396.642 117.639C396.629 121.882 397.674 126.054 399.672 129.738C401.671 133.422 404.553 136.488 408.029 138.631C406.946 134.496 406.602 130.185 407.014 125.917Z" fill="#E0E0E0"/>
<path d="M434.634 117.332V117.426H434.511C434.511 122.13 434.008 138.043 426.551 140.948C429.692 139.902 432.584 138.159 435.032 135.836C437.48 133.513 439.426 130.664 440.74 127.482C438.982 126.483 437.497 125.025 436.428 123.248C435.358 121.47 434.74 119.433 434.634 117.332Z" fill="#263238"/>
<path d="M407.036 126.493C407.036 126.305 407.036 126.117 407.036 125.917C406.623 130.188 406.967 134.503 408.052 138.642C409.572 139.597 411.195 140.359 412.886 140.912C412.797 137.537 412.506 132.679 412.506 132.679C411.051 132.486 409.707 131.761 408.707 130.631C407.707 129.5 407.116 128.036 407.036 126.493Z" fill="#263238"/>
<path d="M426.294 116.109C426.294 116.109 417.787 115.133 416.369 106.7C415.856 107.97 414.94 110.699 415.521 112.91L407.929 114.921L407.081 115.756C407.002 119.284 406.969 123.165 407.081 125.823C407.081 126.023 407.081 126.211 407.081 126.399C407.147 127.949 407.729 129.424 408.726 130.566C409.722 131.708 411.069 132.444 412.529 132.644C414.99 132.585 417.381 131.768 419.406 130.292C419.406 130.292 417.809 134.373 412.629 134.079L412.529 132.703C412.529 132.703 412.819 137.501 412.908 140.936C415.141 141.668 417.469 142.033 419.808 142.018C421.78 141.995 423.742 141.711 425.646 141.171L426.294 116.109ZM415.844 117.52C415.851 117.384 415.895 117.253 415.972 117.143C416.049 117.034 416.155 116.95 416.276 116.904C416.397 116.857 416.529 116.849 416.655 116.88C416.781 116.912 416.895 116.982 416.983 117.081C417.072 117.181 417.13 117.305 417.152 117.44C417.173 117.574 417.157 117.712 417.104 117.837C417.052 117.961 416.966 118.067 416.857 118.14C416.748 118.213 416.621 118.251 416.492 118.249C416.404 118.246 416.317 118.225 416.237 118.187C416.157 118.148 416.085 118.094 416.025 118.026C415.965 117.958 415.918 117.879 415.887 117.792C415.856 117.705 415.841 117.613 415.844 117.52ZM415.688 116.344C415.973 116.089 416.33 115.94 416.704 115.921C417.079 115.901 417.451 116.008 417.765 116.226C417.999 116.403 418.088 116.579 418.044 116.626C417.999 116.673 417.441 116.344 416.726 116.379C416.012 116.415 415.521 116.861 415.442 116.767C415.364 116.673 415.465 116.52 415.688 116.32V116.344ZM407.795 116.238C408.084 115.981 408.445 115.832 408.822 115.815C409.196 115.794 409.565 115.906 409.872 116.132C410.106 116.309 410.195 116.473 410.151 116.52C410.106 116.567 409.548 116.238 408.833 116.273C408.119 116.309 407.628 116.756 407.549 116.662C407.471 116.567 407.549 116.415 407.795 116.215V116.238ZM408.175 117.414C408.177 117.275 408.218 117.139 408.294 117.024C408.369 116.91 408.475 116.821 408.598 116.77C408.722 116.718 408.857 116.707 408.986 116.736C409.115 116.766 409.234 116.835 409.326 116.935C409.418 117.036 409.48 117.163 409.503 117.3C409.527 117.437 409.512 117.579 409.459 117.707C409.406 117.835 409.319 117.944 409.207 118.019C409.096 118.095 408.966 118.134 408.833 118.132C408.658 118.129 408.49 118.053 408.367 117.921C408.244 117.789 408.175 117.611 408.175 117.426V117.414ZM411.312 123.212C411.242 123.197 411.178 123.163 411.125 123.114C411.072 123.064 411.032 123.001 411.01 122.93C410.949 122.658 410.977 122.372 411.088 122.118C411.234 121.613 411.401 121.084 411.569 120.519C411.944 119.139 412.418 117.79 412.986 116.485C412.711 117.892 412.338 119.276 411.87 120.625C411.691 121.174 411.524 121.703 411.368 122.213C411.273 122.404 411.235 122.621 411.256 122.836C411.256 122.965 411.457 123.001 411.647 123.012C412.025 123.022 412.401 123.086 412.763 123.2C412.374 123.248 411.98 123.248 411.591 123.2C411.499 123.221 411.405 123.229 411.312 123.224V123.212ZM414.036 125.941C413.621 126.121 413.16 126.145 412.73 126.008C412.301 125.87 411.93 125.581 411.68 125.188C413.131 125.188 415.867 123.447 415.141 124.012C415.23 124.423 415.165 124.855 414.959 125.216C414.753 125.578 414.422 125.842 414.036 125.952V125.941Z" fill="#455A64"/>
<path d="M409.503 117.438C409.503 117.298 409.464 117.162 409.39 117.046C409.317 116.93 409.212 116.839 409.09 116.786C408.967 116.732 408.832 116.718 408.703 116.745C408.573 116.773 408.453 116.84 408.36 116.939C408.266 117.037 408.202 117.163 408.176 117.3C408.15 117.437 408.164 117.579 408.214 117.708C408.265 117.837 408.351 117.947 408.461 118.024C408.571 118.102 408.701 118.143 408.833 118.143C409.011 118.143 409.181 118.069 409.307 117.937C409.432 117.804 409.503 117.625 409.503 117.438Z" fill="#263238"/>
<path d="M410.151 116.497C410.151 116.497 410.151 116.285 409.872 116.109C409.565 115.883 409.196 115.771 408.822 115.791C408.445 115.809 408.084 115.958 407.795 116.215C407.572 116.415 407.505 116.591 407.549 116.638C407.594 116.685 408.13 116.285 408.833 116.25C409.537 116.215 410.084 116.662 410.151 116.497Z" fill="#263238"/>
<path d="M417.162 117.543C417.162 117.359 417.092 117.183 416.969 117.053C416.845 116.923 416.678 116.85 416.503 116.85C416.328 116.85 416.161 116.923 416.037 117.053C415.914 117.183 415.844 117.359 415.844 117.543C415.844 117.728 415.914 117.904 416.037 118.034C416.161 118.164 416.328 118.237 416.503 118.237C416.678 118.237 416.845 118.164 416.969 118.034C417.092 117.904 417.162 117.728 417.162 117.543Z" fill="#263238"/>
<path d="M418.044 116.662C418.044 116.662 418.044 116.438 417.765 116.262C417.451 116.043 417.079 115.936 416.704 115.956C416.33 115.975 415.973 116.124 415.688 116.379C415.465 116.579 415.398 116.756 415.443 116.803C415.487 116.85 416.012 116.45 416.726 116.415C417.441 116.379 417.977 116.662 418.044 116.662Z" fill="#263238"/>
<path d="M412.797 123.212C412.434 123.097 412.059 123.034 411.68 123.024C411.49 123.024 411.323 123.024 411.289 122.847C411.268 122.633 411.307 122.416 411.401 122.224C411.557 121.722 411.725 121.193 411.903 120.636C412.371 119.287 412.744 117.903 413.02 116.497C412.452 117.802 411.978 119.15 411.602 120.53C411.435 121.095 411.267 121.624 411.122 122.13C411.01 122.384 410.983 122.669 411.044 122.941C411.066 123.012 411.106 123.076 411.159 123.125C411.211 123.175 411.276 123.209 411.345 123.224C411.449 123.239 411.554 123.239 411.658 123.224C412.037 123.265 412.419 123.261 412.797 123.212Z" fill="#263238"/>
<path d="M411.68 125.2C411.93 125.592 412.301 125.882 412.73 126.019C413.16 126.156 413.621 126.133 414.036 125.952C414.434 125.844 414.775 125.574 414.984 125.202C415.193 124.829 415.254 124.384 415.152 123.965C415.867 123.459 413.131 125.223 411.68 125.2Z" fill="white"/>
<path d="M419.361 130.328C417.336 131.803 414.945 132.621 412.484 132.68L412.584 134.056C417.765 134.409 419.361 130.328 419.361 130.328Z" fill="#263238"/>
<path d="M434.511 117.402H434.634V117.308C434.634 116.908 434.533 116.356 434.477 115.779C434.421 115.017 434.324 114.26 434.187 113.509C431.508 101.819 422.063 99.526 420.187 99.5024C418.312 99.4789 414.672 98.2323 409.492 103.924C408.013 105.434 406.99 107.37 406.552 109.489C406.113 111.608 406.277 113.817 407.025 115.838L407.873 115.003L415.465 112.992C414.884 110.781 415.8 108.052 416.313 106.782C417.731 115.168 426.238 116.191 426.238 116.191L425.546 141.229C425.859 141.135 426.182 141.065 426.495 140.959C434.008 138.019 434.555 122.048 434.511 117.402Z" fill="#263238"/>
<path d="M388.22 105.993L315.922 106.365L315.941 110.564L388.239 110.192L388.22 105.993Z" fill="#263238"/>
<path d="M388.281 116.789L315.983 117.161L316.003 121.36L388.301 120.987L388.281 116.789Z" fill="#263238"/>
<path d="M351.857 127.467L316.021 127.651L316.04 131.85L351.877 131.665L351.857 127.467Z" fill="#263238"/>
</g>
<defs>
<filter id="filter0_d" x="0" y="0" width="453.393" height="483" filterUnits="userSpaceOnUse" color-interpolation-filters="sRGB">
<feFlood flood-opacity="0" result="BackgroundImageFix"/>
<feColorMatrix in="SourceAlpha" type="matrix" values="0 0 0 0 0 0 0 0 0 0 0 0 0 0 0 0 0 0 127 0"/>
<feOffset dy="4"/>
<feGaussianBlur stdDeviation="2"/>
<feColorMatrix type="matrix" values="0 0 0 0 0 0 0 0 0 0 0 0 0 0 0 0 0 0 0.16 0"/>
<feBlend mode="normal" in2="BackgroundImageFix" result="effect1_dropShadow"/>
<feBlend mode="normal" in="SourceGraphic" in2="effect1_dropShadow" result="shape"/>
</filter>
</defs>
</svg>
