<svg width="343" height="259" viewBox="0 0 343 259" fill="none" xmlns="http://www.w3.org/2000/svg">
<g filter="url(#filter0_d)">
<path d="M339 220.545H4V220.712H339V220.545Z" fill="#E0E0E0"/>
<path d="M84.1656 227.64H61.5598V227.808H84.1656V227.64Z" fill="#E0E0E0"/>
<path d="M56.6419 227.721H43.2285V227.888H56.6419V227.721Z" fill="#E0E0E0"/>
<path d="M207.09 224.13H143.581V224.297H207.09V224.13Z" fill="#E0E0E0"/>
<path d="M116.413 232.39H96.1653V232.558H116.413V232.39Z" fill="#E0E0E0"/>
<path d="M281.159 226.435H228.45V226.602H281.159V226.435Z" fill="#E0E0E0"/>
<path d="M162.79 190.663H33.4196C32.4061 190.661 31.4347 190.257 30.7187 189.54C30.0027 188.823 29.6006 187.851 29.6006 186.837V4.97921C29.6094 3.97155 30.0154 3.00806 30.7305 2.29802C31.4456 1.58798 32.4119 1.18874 33.4196 1.18701H162.79C163.805 1.18701 164.778 1.59008 165.495 2.30753C166.213 3.02499 166.616 3.99807 166.616 5.01271V186.837C166.616 187.852 166.213 188.825 165.495 189.543C164.778 190.26 163.805 190.663 162.79 190.663ZM33.4196 1.32101C32.4505 1.32279 31.5218 1.70899 30.8372 2.39484C30.1526 3.08069 29.7681 4.01016 29.7681 4.97921V186.837C29.7681 187.806 30.1526 188.736 30.8372 189.422C31.5218 190.108 32.4505 190.494 33.4196 190.496H162.79C163.76 190.494 164.689 190.108 165.375 189.422C166.06 188.736 166.446 187.807 166.448 186.837V4.97921C166.446 4.00954 166.06 3.08009 165.375 2.39443C164.689 1.70877 163.76 1.32278 162.79 1.32101H33.4196Z" fill="#E0E0E0"/>
<path d="M307.718 190.663H178.341C177.327 190.661 176.355 190.258 175.638 189.541C174.921 188.823 174.517 187.851 174.515 186.837V4.97921C174.526 3.97094 174.933 3.00745 175.649 2.2976C176.365 1.58774 177.333 1.18872 178.341 1.18701H307.718C308.724 1.1905 309.689 1.59052 310.403 2.30037C311.116 3.01022 311.521 3.97271 311.53 4.97921V186.837C311.53 187.85 311.129 188.821 310.414 189.538C309.7 190.255 308.73 190.659 307.718 190.663ZM178.341 1.32101C177.371 1.32278 176.442 1.70877 175.756 2.39443C175.07 3.08009 174.684 4.00954 174.683 4.97921V186.837C174.684 187.807 175.07 188.736 175.756 189.422C176.442 190.108 177.371 190.494 178.341 190.496H307.718C308.688 190.494 309.617 190.108 310.303 189.422C310.988 188.736 311.374 187.807 311.376 186.837V4.97921C311.374 4.00954 310.988 3.08009 310.303 2.39443C309.617 1.70877 308.688 1.32278 307.718 1.32101H178.341Z" fill="#E0E0E0"/>
<path d="M286.217 142.41H269.146V220.545H286.217V142.41Z" fill="#E0E0E0"/>
<path d="M282.975 220.545H286.218V211.319H279.578L282.975 220.545Z" fill="#F0F0F0"/>
<path d="M222.42 142.41H205.348V220.545H222.42V142.41Z" fill="#E0E0E0"/>
<path d="M286.217 142.41H219.586V214.884H286.217V142.41Z" fill="#F0F0F0"/>
<path d="M253.99 179.393V203.353H283.705V179.393H253.99Z" fill="#E0E0E0"/>
<path d="M222.105 179.393V203.353H251.82V179.393H222.105Z" fill="#E0E0E0"/>
<path d="M239.9 181.98H234.018C232.754 181.98 231.505 181.722 230.344 181.222C229.184 180.722 228.138 179.99 227.271 179.072H246.647C245.779 179.99 244.734 180.722 243.573 181.222C242.413 181.722 241.164 181.98 239.9 181.98Z" fill="#F0F0F0"/>
<path d="M272.087 181.98H266.211C264.947 181.98 263.696 181.722 262.535 181.222C261.374 180.722 260.326 179.991 259.458 179.072H278.841C277.971 179.99 276.924 180.721 275.763 181.221C274.602 181.721 273.351 181.979 272.087 181.98Z" fill="#F0F0F0"/>
<path d="M253.99 147.863V171.822H283.705V147.863H253.99Z" fill="#E0E0E0"/>
<path d="M222.098 147.87V171.83H251.813V147.87H222.098Z" fill="#E0E0E0"/>
<path d="M239.9 150.449H234.018C232.755 150.449 231.506 150.191 230.346 149.693C229.186 149.194 228.14 148.464 227.271 147.548H246.647C245.778 148.464 244.732 149.194 243.572 149.693C242.412 150.191 241.163 150.449 239.9 150.449Z" fill="#F0F0F0"/>
<path d="M272.087 150.449H266.211C264.948 150.449 263.697 150.192 262.536 149.693C261.375 149.194 260.328 148.464 259.458 147.548H278.841C277.97 148.464 276.922 149.193 275.761 149.692C274.601 150.19 273.35 150.448 272.087 150.449Z" fill="#F0F0F0"/>
<path d="M222.829 220.545H219.586V211.319H226.232L222.829 220.545Z" fill="#F0F0F0"/>
<path d="M236.068 130.169C236.068 133.157 238.145 135.234 235.157 135.234C232.168 135.234 225.254 133.157 225.254 130.169C225.254 128.735 225.824 127.359 226.838 126.345C227.852 125.331 229.227 124.762 230.661 124.762C232.095 124.762 233.47 125.331 234.484 126.345C235.498 127.359 236.068 128.735 236.068 130.169Z" fill="#E0E0E0"/>
<path d="M245.321 132.748C245.321 135.73 247.398 137.813 244.409 137.813C241.421 137.813 234.48 135.73 234.48 132.748C234.48 131.314 235.05 129.939 236.064 128.925C237.078 127.911 238.453 127.341 239.887 127.341C241.321 127.341 242.696 127.911 243.71 128.925C244.724 129.939 245.294 131.314 245.294 132.748H245.321Z" fill="#E0E0E0"/>
<path d="M254.185 131.167C254.185 134.149 256.262 136.232 253.274 136.232C250.285 136.232 243.371 134.149 243.371 131.167C243.371 129.733 243.941 128.358 244.955 127.344C245.969 126.33 247.344 125.76 248.778 125.76C250.212 125.76 251.587 126.33 252.601 127.344C253.615 128.358 254.185 129.733 254.185 131.167Z" fill="#E0E0E0"/>
<path d="M221.944 131.837C221.944 131.837 222.387 142.383 239.331 142.383C256.275 142.383 256.711 131.837 256.711 131.837H221.944Z" fill="#E6E6E6"/>
<path d="M286.928 13.9102H201.013V108.983H286.928V13.9102Z" fill="#E0E0E0"/>
<path d="M296.12 10.9756H195.453C195.34 10.9747 195.229 10.9961 195.125 11.0385C195.021 11.0808 194.926 11.1434 194.847 11.2225C194.767 11.3016 194.704 11.3957 194.66 11.4993C194.617 11.603 194.595 11.7142 194.595 11.8265C194.595 12.054 194.685 12.2721 194.846 12.4329C195.007 12.5938 195.225 12.6841 195.453 12.6841H296.12C296.232 12.6841 296.344 12.6619 296.447 12.6187C296.551 12.5755 296.645 12.5123 296.724 12.4325C296.803 12.3528 296.866 12.2582 296.908 12.1542C296.951 12.0502 296.972 11.9388 296.971 11.8265C296.971 11.6008 296.881 11.3844 296.722 11.2248C296.562 11.0653 296.346 10.9756 296.12 10.9756Z" fill="#E0E0E0"/>
<path d="M290.572 13.9102H202.715V108.983H290.572V13.9102Z" fill="#E6E6E6"/>
<path d="M286.928 108.983H201.013V115.757H286.928V108.983Z" fill="#E0E0E0"/>
<path d="M296.643 108.983H208.785V115.757H296.643V108.983Z" fill="#E6E6E6"/>
<path d="M285.467 103.871V19.0093L207.82 19.0093V103.871H285.467Z" fill="#F5F5F5"/>
<path d="M225.448 103.878L255.404 19.0156H269.541L239.585 103.878H225.448Z" fill="#FAFAFA"/>
<path d="M242.62 103.878L272.576 19.0156H278.09L248.134 103.878H242.62Z" fill="#FAFAFA"/>
<path d="M285.467 103.878V19.0156H284.817V103.878H285.467Z" fill="#E0E0E0"/>
<path d="M207.881 9.44824H199.097V91.3356H207.881V9.44824Z" fill="#EBEBEB"/>
<path d="M211.298 9.44824H204.458V91.3356H211.298V9.44824Z" fill="#E0E0E0"/>
<path d="M216.665 9.44824H207.881V91.3356H216.665V9.44824Z" fill="#EBEBEB"/>
<path d="M220.082 9.44824H213.241V91.3356H220.082V9.44824Z" fill="#E0E0E0"/>
<path d="M225.448 9.44824H216.665V91.3356H225.448V9.44824Z" fill="#EBEBEB"/>
<path d="M282.197 9.44824H277.139V91.3356H282.197V9.44824Z" fill="#EBEBEB"/>
<path d="M284.174 9.44824H280.228V91.3356H284.174V9.44824Z" fill="#E0E0E0"/>
<path d="M287.256 9.44824H282.197V91.3356H287.256V9.44824Z" fill="#EBEBEB"/>
<path d="M289.232 9.44824H285.286V91.3356H289.232V9.44824Z" fill="#E0E0E0"/>
<path d="M292.321 9.44824H287.263V91.3356H292.321V9.44824Z" fill="#EBEBEB"/>
<path d="M77.9479 35.1162H68.7957V60.0871H77.9479V35.1162Z" fill="#E6E6E6"/>
<path d="M56.287 65.8018L53.3792 73.7346H56.287L74.0822 65.8018H56.287Z" fill="#F0F0F0"/>
<path d="M53.3792 65.8018V73.7346L71.181 65.8018H53.3792Z" fill="#E0E0E0"/>
<path d="M126.074 65.8018L123.173 73.7346H126.074L143.876 65.8018H126.074Z" fill="#F0F0F0"/>
<path d="M123.173 65.8018V73.7346L140.968 65.8018H123.173Z" fill="#E0E0E0"/>
<path d="M40.3209 66.1768H59.6772V60.1401H40.3209V66.1768Z" fill="#E0E0E0"/>
<path d="M155.903 60.1401H59.6704V66.1768H155.903V60.1401Z" fill="#F0F0F0"/>
<path d="M93.1904 60.0867H70.9129L68.1592 29.8228H90.4367L93.1904 60.0867Z" fill="#E0E0E0"/>
<path d="M94.343 60.0867H72.0722L69.3118 29.8228H91.5893L94.343 60.0867Z" fill="#F0F0F0"/>
<path d="M75.1137 56.7368L72.9697 33.1729H88.5472L90.6912 56.7368H75.1137Z" fill="#FAFAFA"/>
<path d="M103.334 50.2583C103.334 50.2583 103.743 60.0872 119.535 60.0872C135.327 60.0872 135.735 50.2583 135.735 50.2583H103.334Z" fill="#E6E6E6"/>
<path d="M86.9192 218.374H62.5111C61.9585 218.385 61.4169 218.219 60.9661 217.899C60.5154 217.579 60.1794 217.123 60.0075 216.597C59.8356 216.072 59.8371 215.505 60.0116 214.981C60.1861 214.457 60.5244 214.002 60.9768 213.684L61.3721 214.22C61.0505 214.461 60.8126 214.796 60.6921 215.18C60.5716 215.563 60.5745 215.974 60.7004 216.355C60.8262 216.737 61.0688 217.069 61.3937 217.305C61.7186 217.541 62.1095 217.669 62.5111 217.671H86.9192C88.4148 217.669 89.8487 217.074 90.9063 216.017C91.9639 214.959 92.5588 213.525 92.5606 212.029V139.797C92.5623 138.169 93.2093 136.608 94.3597 135.457C95.51 134.305 97.07 133.656 98.6978 133.653H106.001V134.323H98.6978C97.2477 134.326 95.8582 134.904 94.8334 135.93C93.8087 136.956 93.2323 138.347 93.2306 139.797V212.063C93.227 213.736 92.561 215.339 91.3781 216.522C90.1953 217.705 88.592 218.371 86.9192 218.374Z" fill="#E0E0E0"/>
<path d="M168.451 135.033H124.493V220.545H168.451V135.033Z" fill="#E0E0E0"/>
<path d="M170.106 135.033H166.482V220.545H170.106V135.033Z" fill="#EBEBEB"/>
<path d="M83.8171 141.445H171.225V135.033H83.8171V141.445Z" fill="#EBEBEB"/>
<path d="M83.2944 135.033H39.3357V220.545H83.2944V135.033Z" fill="#E0E0E0"/>
<path d="M84.9428 135.033H81.3181V220.545H84.9428V135.033Z" fill="#EBEBEB"/>
<path d="M69.6799 109.506H110.644L116.58 133.693H75.6161L69.6799 109.506Z" fill="#E0E0E0"/>
<path d="M75.6165 133.693L75.784 135.033H116.748L116.587 133.693H75.6165Z" fill="#E0E0E0"/>
<path d="M70.9465 109.506H111.91L117.847 133.693H76.8827L70.9465 109.506Z" fill="#F0F0F0"/>
<path d="M77.747 132.587L72.3535 110.611H111.039L116.433 132.587H77.747Z" fill="#FAFAFA"/>
<path d="M87.5557 133.693L87.7165 135.033H132.828L132.66 133.693H87.5557Z" fill="#F0F0F0"/>
<path d="M55.637 128.936C55.637 128.936 49.607 118.544 57.9753 110.27C57.9753 110.27 60.1528 111.697 60.1193 113.62C60.0858 115.542 57.7877 116.018 58.2768 117.64C58.7659 119.261 60.9568 120.802 59.523 122.122C58.0892 123.442 59.7508 124.614 59.657 126.236C59.5632 127.857 55.637 128.936 55.637 128.936Z" fill="#F0F0F0"/>
<path d="M56.0924 129.887C56.0924 129.887 58.5379 118.122 47.9921 112.91C47.9921 112.91 46.3707 114.953 47.0072 116.755C47.6437 118.558 49.982 118.29 50.0155 119.965C50.049 121.64 48.4745 123.804 50.25 124.608C52.0255 125.412 50.8128 127.047 51.4158 128.547C52.0188 130.048 56.0924 129.887 56.0924 129.887Z" fill="#F0F0F0"/>
<path d="M46.8799 127.281C46.8799 127.281 47.0809 135.033 54.7658 135.033C62.4507 135.033 62.6316 127.281 62.6316 127.281H46.8799Z" fill="#E0E0E0"/>
<path d="M155.246 220.545H153.718L149.343 198.998L148.579 195.226L143.809 171.776H125.525L115.615 220.545H114.088L124.185 170.844C124.217 170.675 124.308 170.523 124.442 170.414C124.575 170.305 124.743 170.246 124.915 170.248H144.419C144.591 170.246 144.758 170.305 144.892 170.414C145.025 170.523 145.116 170.675 145.149 170.844L149.336 191.467L150.107 195.239L155.246 220.545Z" fill="#EBEBEB"/>
<path d="M184.598 220.545H183.064L173.155 171.749H154.877L150.107 195.239L149.343 198.998L144.968 220.545H143.44L148.579 195.226L149.336 191.467L153.53 170.844C153.563 170.675 153.654 170.523 153.788 170.414C153.921 170.305 154.088 170.246 154.261 170.248H173.764C173.937 170.247 174.105 170.306 174.239 170.415C174.373 170.524 174.466 170.675 174.501 170.844L184.598 220.545Z" fill="#EBEBEB"/>
<path d="M139.534 170.999H173.128C176.21 170.996 179.168 169.786 181.369 167.628C183.569 165.47 184.837 162.536 184.9 159.455L186.153 108.401C186.171 107.263 185.962 106.132 185.539 105.076C185.116 104.019 184.488 103.057 183.69 102.245C182.892 101.433 181.94 100.788 180.891 100.348C179.842 99.9067 178.715 99.6789 177.577 99.6772H156.519C154.411 99.6783 152.377 100.454 150.804 101.858C149.231 103.261 148.23 105.194 147.99 107.288L139.534 170.999Z" fill="#E6E6E6"/>
<path d="M157.852 170.999H122.054C121.61 170.999 121.184 170.822 120.87 170.508C120.555 170.194 120.379 169.768 120.379 169.324V169.163C120.379 167.942 120.864 166.771 121.727 165.908C122.59 165.045 123.761 164.56 124.982 164.56H157.852V170.999Z" fill="#E6E6E6"/>
<path d="M171.5 250.802C243.245 250.802 301.406 247.406 301.406 243.218C301.406 239.029 243.245 235.633 171.5 235.633C99.7548 235.633 41.5938 239.029 41.5938 243.218C41.5938 247.406 99.7548 250.802 171.5 250.802Z" fill="#F5F5F5"/>
<path d="M189.215 78.7861L189.65 79.1546C189.811 79.2953 189.992 79.4293 190.166 79.5633C190.515 79.838 190.836 80.1127 191.238 80.374C191.962 80.9033 192.732 81.3857 193.503 81.8681C195.057 82.8261 196.686 83.6574 198.374 84.3538C200.054 85.07 201.785 85.6612 203.553 86.1226C203.995 86.2432 204.451 86.3236 204.893 86.4241L205.563 86.5715C205.703 86.5715 205.563 86.5715 205.563 86.605C205.471 86.6264 205.385 86.6651 205.308 86.7189C205.248 86.7792 205.248 86.7792 205.275 86.7658C205.407 86.5694 205.511 86.3551 205.583 86.1293C205.821 85.3563 205.967 84.558 206.018 83.7508C206.099 82.8731 206.126 81.9485 206.119 81.0172C206.119 79.1479 205.972 77.2384 205.824 75.3222C205.677 73.406 205.442 71.4831 205.194 69.5535C204.946 67.6239 204.672 65.6943 204.384 63.7915L206.903 63.2153C208.012 67.0394 208.907 70.9225 209.583 74.8465C209.934 76.8421 210.177 78.8549 210.313 80.8765C210.392 81.9198 210.416 82.9664 210.387 84.0121C210.377 85.1666 210.231 86.3158 209.951 87.4358C209.762 88.1521 209.454 88.8315 209.04 89.4458C208.75 89.8646 208.39 90.2297 207.975 90.5245C207.498 90.8651 206.951 91.0941 206.373 91.1945C205.877 91.2782 205.369 91.2782 204.873 91.1945L204.102 91.0672C203.586 90.9801 203.064 90.9131 202.554 90.7992C200.5 90.3912 198.483 89.813 196.524 89.0706C194.566 88.3194 192.673 87.4096 190.863 86.3504C189.958 85.8077 189.074 85.2382 188.217 84.6151C187.788 84.3069 187.366 83.9451 186.943 83.6503C186.736 83.4761 186.528 83.3086 186.32 83.121C186.113 82.9334 185.918 82.7793 185.65 82.5247L189.215 78.7861Z" fill="#E4897B"/>
<path d="M181.932 75.738C189.302 74.7397 195.225 80.6826 195.225 80.6826L188.485 91.081C188.485 91.081 181.262 86.458 179.989 83.309C178.676 80.0327 178.16 76.2271 181.932 75.738Z" fill="#72A276"/>
<path opacity="0.6" d="M181.932 75.738C189.302 74.7397 195.225 80.6826 195.225 80.6826L188.485 91.081C188.485 91.081 181.262 86.458 179.989 83.309C178.676 80.0327 178.16 76.2271 181.932 75.738Z" fill="#FAFAFA"/>
<path d="M204.444 64.6963L201.999 59.7919L208.41 59.7383C208.41 59.7383 208.538 63.162 206.916 65.0983L204.444 64.6963Z" fill="#E4897B"/>
<path d="M203.138 54.519L207.908 55.3699L208.41 59.7383L201.999 59.7919L203.138 54.519Z" fill="#E4897B"/>
<path d="M155.869 237.61L161.872 238.186L166.026 224.089L160.023 223.506L155.869 237.61Z" fill="#E4897B"/>
<path d="M117.699 216.759L122.148 220.94L131.756 210.381L127.307 206.2L117.699 216.759Z" fill="#E4897B"/>
<path d="M124.205 218.937L120.855 212.907C120.798 212.804 120.705 212.724 120.595 212.684C120.484 212.643 120.362 212.644 120.252 212.686L115.099 214.642C114.972 214.697 114.857 214.778 114.763 214.88C114.668 214.982 114.597 215.102 114.552 215.233C114.507 215.365 114.49 215.504 114.503 215.642C114.515 215.781 114.556 215.915 114.624 216.036C115.823 218.113 116.513 219.058 117.974 221.704C118.878 223.339 120.654 227.064 121.893 229.329C123.133 231.593 125.431 230.461 125.116 229.416C123.682 224.726 123.957 222.093 124.359 220.036C124.439 219.663 124.385 219.273 124.205 218.937Z" fill="#263238"/>
<path d="M162.575 236.357H155.299C155.169 236.358 155.043 236.402 154.94 236.482C154.837 236.562 154.763 236.673 154.73 236.799L153.142 242.554C153.104 242.691 153.099 242.834 153.127 242.972C153.154 243.111 153.213 243.241 153.3 243.353C153.386 243.465 153.497 243.555 153.625 243.616C153.752 243.678 153.892 243.709 154.033 243.707C156.599 243.707 157.812 243.707 161.014 243.707H170.79C173.47 243.707 174.006 241.027 172.907 240.772C167.976 239.687 165.128 238.179 163.607 236.752C163.325 236.495 162.957 236.354 162.575 236.357Z" fill="#263238"/>
<path d="M166.026 224.089L163.882 231.359H157.705L160.016 223.513L166.026 224.089Z" fill="#CE6F64"/>
<path d="M127.3 206.207L131.755 210.381L126.797 215.822L122.349 211.647L127.3 206.207Z" fill="#CE6F64"/>
<path d="M189.195 71.5767C189.148 66.7058 184.739 65.004 184.739 65.004C184.739 65.004 190.253 54.5654 187.419 47.6376C184.585 40.7098 175.245 39.4904 172.284 42.7265C167.078 42.5054 165.423 49.9826 165.423 49.9826C165.423 49.9826 161.068 50.7129 159.896 53.882C158.723 57.0511 162.294 60.6222 162.294 60.6222C162.294 60.6222 157.323 61.2922 155.494 65.1179C153.665 68.9436 154.79 74.0222 160.284 78.404C168.271 84.769 182.95 76.7826 182.95 76.7826C182.95 76.7826 189.248 77.1779 189.195 71.5767Z" fill="#263238"/>
<path d="M188.25 76.4213C188.25 76.4213 190.93 77.5938 181.979 112.95L157.189 110.799C158.475 100.749 159.031 94.5046 155.996 73.3594C159.533 72.9411 163.096 72.7821 166.656 72.8837C170.431 72.9406 174.196 73.2652 177.925 73.8552C181.407 74.5376 184.853 75.394 188.25 76.4213Z" fill="#72A276"/>
<path opacity="0.6" d="M188.25 76.4213C188.25 76.4213 190.93 77.5938 181.979 112.95L157.189 110.799C158.475 100.749 159.031 94.5046 155.996 73.3594C159.533 72.9411 163.096 72.7821 166.656 72.8837C170.431 72.9406 174.196 73.2652 177.925 73.8552C181.407 74.5376 184.853 75.394 188.25 76.4213Z" fill="#FAFAFA"/>
<path d="M181.825 74.6927C180.538 74.3845 179.145 74.0897 177.872 73.8552C174.143 73.263 170.377 72.9361 166.602 72.877C165.309 72.8301 164.016 72.8301 162.803 72.877L163.634 74.4582C163.782 74.7396 167.319 81.3391 174.039 85.0844L175.889 86.1162L177.61 84.8901C181.952 81.788 182.595 77.7546 181.825 74.6927Z" fill="#FAFAFA"/>
<path d="M168.82 60.2876C169.215 63.9793 169.349 70.686 166.609 72.8836C166.609 72.8836 169.744 78.8399 175.681 82.143C180.933 78.4044 177.878 73.8551 177.878 73.8551C173.919 72.5151 174.28 69.5537 175.198 66.7933L168.82 60.2876Z" fill="#E4897B"/>
<path d="M171.426 62.9409L175.219 66.7934C174.988 67.4336 174.813 68.0927 174.696 68.7632C173.175 68.4081 170.964 66.8202 170.937 65.1854C170.968 64.4144 171.133 63.6547 171.426 62.9409Z" fill="#CE6F64"/>
<path d="M168.659 51.9128C167.929 57.9428 167.493 60.4955 169.952 64.1202C173.651 69.5606 181.235 69.1318 183.747 63.4502C186.012 58.318 186.823 49.2998 181.402 45.8493C180.214 45.0843 178.85 44.6355 177.44 44.5453C176.029 44.455 174.619 44.7264 173.343 45.3336C172.067 45.9409 170.967 46.8639 170.147 48.0152C169.327 49.1665 168.815 50.5081 168.659 51.9128Z" fill="#E4897B"/>
<path d="M173.336 44.4819C177.992 45.6879 173.389 59.8517 165.966 55.7446C165.966 55.7446 166.301 49.7615 168.364 47.2222C169.612 45.7094 171.39 44.7294 173.336 44.4819Z" fill="#263238"/>
<path d="M172.84 45.2665C174.85 48.5361 189.758 54.7336 184.746 47.6986C179.734 40.6636 172.84 45.2665 172.84 45.2665Z" fill="#263238"/>
<path d="M166.743 57.1319C166.659 58.3066 167.042 59.4669 167.808 60.3613C168.84 61.5338 170.2 60.8236 170.629 59.4032C171.011 58.1302 170.937 55.9862 169.564 55.3296C169.261 55.1959 168.929 55.1392 168.599 55.1646C168.269 55.1899 167.95 55.2966 167.67 55.4749C167.391 55.6533 167.161 55.8979 166.999 56.187C166.837 56.4761 166.749 56.8007 166.743 57.1319Z" fill="#E4897B"/>
<path d="M181.952 112.95C181.952 112.95 190.347 150.095 184.746 176.278C180.994 193.819 167.453 229.249 167.453 229.249L156.867 228.981C156.867 228.981 167.112 191.796 169.236 177.176C172.86 152.158 163.782 111.375 163.782 111.375L181.952 112.95Z" fill="#263238"/>
<path d="M172.271 120.447L166.978 128.795C168.573 138.695 169.584 148.679 170.006 158.698C177.45 145.371 173.925 127.502 172.271 120.447Z" fill="#263238"/>
<path d="M168.324 229.798L155.246 229.463L156.003 225.449L170.28 226.126L168.324 229.798Z" fill="#72A276"/>
<path opacity="0.6" d="M168.324 229.798L155.246 229.463L156.003 225.449L170.28 226.126L168.324 229.798Z" fill="#FAFAFA"/>
<path d="M176.525 112.548C176.525 112.548 171.601 151.944 160.921 173.451C152.298 190.797 129.29 215.587 129.29 215.587L123.407 209.523C123.407 209.523 138.951 182.65 145.363 171.106C161.082 142.812 148.231 121.224 157.142 110.806L176.525 112.548Z" fill="#263238"/>
<path d="M129.88 216.364L122.282 208.961L124.808 205.53L133.082 214.086L129.88 216.364Z" fill="#72A276"/>
<path opacity="0.6" d="M129.88 216.364L122.282 208.961L124.808 205.53L133.082 214.086L129.88 216.364Z" fill="#FAFAFA"/>
<path d="M156.887 109.311L155.581 111.435C155.474 111.603 155.668 111.797 155.949 111.817L181.979 114.068C182.207 114.068 182.401 113.995 182.428 113.854L182.843 111.656C182.843 111.502 182.689 111.355 182.441 111.335L157.309 109.157C157.232 109.144 157.152 109.152 157.078 109.179C157.004 109.206 156.938 109.251 156.887 109.311Z" fill="#72A276"/>
<path opacity="0.3" d="M156.887 109.311L155.581 111.435C155.474 111.603 155.668 111.797 155.949 111.817L181.979 114.068C182.207 114.068 182.401 113.995 182.428 113.854L182.843 111.656C182.843 111.502 182.689 111.355 182.441 111.335L157.309 109.157C157.232 109.144 157.152 109.152 157.078 109.179C157.004 109.206 156.938 109.251 156.887 109.311Z" fill="black"/>
<path d="M160.023 112.407L159.353 112.347C159.219 112.347 159.125 112.26 159.138 112.173L159.708 109.318C159.708 109.231 159.849 109.171 159.983 109.184L160.653 109.245C160.787 109.245 160.88 109.332 160.867 109.419L160.304 112.273C160.277 112.367 160.157 112.407 160.023 112.407Z" fill="#263238"/>
<path d="M180.069 114.149L179.399 114.089C179.265 114.089 179.171 114.001 179.185 113.914L179.754 111.053C179.754 110.973 179.895 110.913 180.029 110.926L180.699 110.986C180.833 110.986 180.927 111.074 180.913 111.154L180.351 114.015C180.324 114.102 180.21 114.156 180.069 114.149Z" fill="#263238"/>
<path d="M170.046 113.277L169.376 113.224C169.242 113.224 169.148 113.13 169.162 113.05L169.731 110.189C169.731 110.108 169.872 110.048 170.006 110.061L170.676 110.115C170.81 110.115 170.904 110.209 170.89 110.289L170.327 113.15C170.301 113.231 170.16 113.291 170.046 113.277Z" fill="#263238"/>
<path d="M177.416 55.2423C177.329 55.7247 177.517 56.1669 177.832 56.2272C178.146 56.2875 178.502 55.9391 178.569 55.45C178.636 54.9609 178.475 54.5187 178.153 54.4651C177.832 54.4115 177.53 54.7867 177.416 55.2423Z" fill="#263238"/>
<path d="M182.89 56.2476C182.803 56.73 182.99 57.1722 183.305 57.2325C183.62 57.2928 183.975 56.9444 184.042 56.4553C184.109 55.9662 183.949 55.524 183.627 55.4704C183.305 55.4168 183.011 55.7585 182.89 56.2476Z" fill="#263238"/>
<path d="M183.513 55.457L184.739 55.3364C184.739 55.3364 183.975 56.127 183.513 55.457Z" fill="#263238"/>
<path d="M181.309 56.7969C181.543 57.9859 181.937 59.1376 182.481 60.2206C182.2 60.3517 181.894 60.4197 181.583 60.4197C181.273 60.4197 180.967 60.3517 180.686 60.2206L181.309 56.7969Z" fill="#DE5753"/>
<path d="M178.649 61.8284C177.995 61.7271 177.375 61.4704 176.841 61.0798C176.307 60.6893 175.875 60.1763 175.58 59.5839C175.569 59.5545 175.57 59.522 175.583 59.4933C175.595 59.4645 175.618 59.4417 175.647 59.4298C175.661 59.4232 175.676 59.4195 175.692 59.419C175.707 59.4185 175.723 59.4211 175.737 59.4268C175.752 59.4324 175.765 59.4409 175.776 59.4518C175.787 59.4627 175.796 59.4757 175.801 59.4901C176.084 60.0423 176.492 60.52 176.994 60.8844C177.496 61.2488 178.077 61.4896 178.689 61.5872C178.721 61.5872 178.752 61.5999 178.774 61.6225C178.797 61.6451 178.81 61.6758 178.81 61.7078C178.81 61.7398 178.797 61.7705 178.774 61.7931C178.752 61.8157 178.721 61.8284 178.689 61.8284H178.649Z" fill="#263238"/>
<path d="M176.11 51.4369C176.058 51.4378 176.008 51.4225 175.966 51.393C175.924 51.3636 175.893 51.3215 175.876 51.273C175.86 51.2245 175.86 51.1721 175.875 51.1232C175.89 51.0744 175.921 51.0317 175.962 51.0014C176.315 50.7171 176.731 50.5218 177.176 50.432C177.62 50.3422 178.079 50.3606 178.515 50.4855C178.545 50.496 178.572 50.5123 178.596 50.5335C178.62 50.5547 178.639 50.5803 178.652 50.609C178.666 50.6376 178.674 50.6687 178.676 50.7004C178.677 50.732 178.673 50.7637 178.662 50.7937C178.652 50.8236 178.635 50.8512 178.614 50.8748C178.593 50.8984 178.567 50.9176 178.539 50.9313C178.51 50.945 178.479 50.9529 178.447 50.9546C178.416 50.9563 178.384 50.9517 178.354 50.9411C177.995 50.8422 177.617 50.8308 177.252 50.9078C176.887 50.9847 176.546 51.1477 176.257 51.3833C176.214 51.4154 176.163 51.4341 176.11 51.4369Z" fill="#263238"/>
<path d="M186.026 54.3985C185.99 54.3983 185.955 54.3905 185.922 54.3754C185.89 54.3604 185.861 54.3386 185.838 54.3114C185.609 54.0162 185.314 53.7793 184.977 53.6198C184.639 53.4603 184.268 53.3827 183.895 53.3935C183.831 53.3992 183.768 53.3801 183.718 53.3402C183.668 53.3002 183.635 53.2425 183.627 53.1791C183.623 53.1478 183.626 53.116 183.635 53.0857C183.644 53.0554 183.659 53.0272 183.679 53.0028C183.699 52.9784 183.723 52.9583 183.751 52.9437C183.779 52.9291 183.81 52.9203 183.842 52.9178C184.295 52.8944 184.747 52.9809 185.16 53.1699C185.573 53.3588 185.935 53.6447 186.213 54.0032C186.257 54.0493 186.282 54.1104 186.282 54.174C186.282 54.2376 186.257 54.2988 186.213 54.3449C186.16 54.3857 186.093 54.4048 186.026 54.3985Z" fill="#263238"/>
<path d="M157.825 82.257C156.818 84.2563 155.699 86.1978 154.475 88.0726C153.269 89.9218 151.996 91.7308 150.623 93.4728C149.235 95.221 147.747 96.8876 146.167 98.4643C145.35 99.2348 144.553 100.019 143.675 100.742L143.005 101.292L142.844 101.426L142.63 101.593C142.488 101.708 142.341 101.816 142.187 101.915C141.578 102.332 140.916 102.666 140.218 102.906C138.903 103.335 137.514 103.488 136.137 103.355C134.904 103.232 133.69 102.964 132.519 102.558C130.351 101.801 128.283 100.782 126.362 99.5229C122.666 97.1255 119.262 94.3059 116.218 91.1211L118 89.2518C119.602 90.5382 121.29 91.8179 123.019 92.977C124.712 94.163 126.475 95.2459 128.298 96.2198C130.034 97.1734 131.867 97.9393 133.766 98.5045C135.575 99.007 137.39 99.0941 138.643 98.5715C139.351 98.2637 139.984 97.8066 140.499 97.2315C141.243 96.5615 141.933 95.8178 142.636 95.0942C144.01 93.6001 145.283 91.9988 146.536 90.4042C147.789 88.8096 148.921 87.0542 150.02 85.3122C150.576 84.4412 151.105 83.5568 151.628 82.6724C152.15 81.788 152.653 80.8567 153.088 80.0259L157.825 82.257Z" fill="#E4897B"/>
<path d="M119.696 90.0489L117.31 85.1177L113.344 90.1561C113.344 90.1561 115.97 92.347 118.523 92.2666L119.696 90.0489Z" fill="#E4897B"/>
<path d="M114.704 83.6772L112.46 87.9719L113.344 90.1561L117.311 85.1178L114.704 83.6772Z" fill="#E4897B"/>
<path d="M155.943 73.359C152.901 73.895 148.633 82.6251 148.633 82.6251L156.988 90.176C156.988 90.176 162.401 82.9065 162.08 78.9401C161.805 75.5566 159.815 72.6756 155.943 73.359Z" fill="#72A276"/>
<path opacity="0.6" d="M155.943 73.359C152.901 73.895 148.633 82.6251 148.633 82.6251L156.988 90.176C156.988 90.176 162.401 82.9065 162.08 78.9401C161.805 75.5566 159.815 72.6756 155.943 73.359Z" fill="#FAFAFA"/>
<path d="M125.377 222.173C125.297 222.174 125.218 222.161 125.143 222.133C124.412 221.892 123.937 220.545 123.716 219.761C123.709 219.739 123.709 219.714 123.717 219.692C123.724 219.669 123.737 219.649 123.756 219.634C123.776 219.622 123.799 219.616 123.823 219.616C123.846 219.616 123.869 219.622 123.89 219.634C124.111 219.748 126.054 220.793 126.114 221.557C126.123 221.641 126.109 221.725 126.072 221.801C126.035 221.877 125.978 221.941 125.907 221.986C125.756 222.105 125.57 222.171 125.377 222.173ZM124.037 219.976C124.372 221.055 124.808 221.765 125.223 221.905C125.318 221.934 125.418 221.937 125.515 221.915C125.611 221.892 125.7 221.845 125.773 221.778C125.809 221.757 125.839 221.725 125.858 221.687C125.877 221.649 125.884 221.606 125.88 221.564C125.84 221.095 124.701 220.351 124.031 219.976H124.037Z" fill="#72A276"/>
<path d="M125.679 220.277C125.016 220.274 124.363 220.121 123.769 219.828C123.75 219.819 123.735 219.804 123.724 219.786C123.713 219.769 123.708 219.748 123.709 219.727C123.709 219.705 123.715 219.683 123.727 219.664C123.739 219.645 123.756 219.63 123.776 219.62C123.836 219.62 125.377 218.742 126.208 219.037C126.31 219.07 126.403 219.126 126.481 219.2C126.559 219.275 126.619 219.365 126.657 219.466C126.71 219.563 126.728 219.674 126.709 219.783C126.689 219.891 126.633 219.99 126.55 220.062C126.29 220.227 125.985 220.302 125.679 220.277ZM124.097 219.727C124.767 220.009 126.034 220.183 126.396 219.875C126.456 219.828 126.509 219.741 126.436 219.553C126.409 219.485 126.368 219.424 126.314 219.374C126.261 219.324 126.197 219.287 126.128 219.265C125.558 219.064 124.533 219.513 124.097 219.727Z" fill="#72A276"/>
<path d="M165.805 237.536C165.128 237.52 164.454 237.435 163.795 237.281C163.77 237.276 163.747 237.262 163.731 237.243C163.714 237.224 163.703 237.2 163.701 237.174C163.698 237.15 163.702 237.124 163.714 237.103C163.726 237.081 163.745 237.064 163.768 237.054C164.07 236.913 166.703 235.714 167.373 236.142C167.433 236.184 167.48 236.24 167.511 236.306C167.541 236.372 167.554 236.445 167.547 236.518C167.539 236.649 167.502 236.777 167.44 236.893C167.377 237.008 167.291 237.109 167.185 237.188C166.771 237.44 166.29 237.561 165.805 237.536ZM164.237 237.121C165.021 237.268 166.468 237.456 167.065 237.007C167.143 236.948 167.208 236.872 167.255 236.785C167.301 236.699 167.328 236.603 167.333 236.504C167.336 236.474 167.332 236.443 167.321 236.415C167.309 236.387 167.29 236.362 167.266 236.343C166.89 236.089 165.329 236.638 164.237 237.121Z" fill="#72A276"/>
<path d="M163.849 237.281C163.823 237.292 163.794 237.292 163.768 237.281C163.751 237.266 163.739 237.248 163.732 237.226C163.725 237.205 163.723 237.183 163.728 237.161C163.728 237.053 164.358 234.447 165.785 234.615C166.147 234.655 166.24 234.836 166.261 234.976C166.354 235.646 164.686 236.986 163.895 237.301L163.849 237.281ZM165.658 234.822C164.74 234.822 164.21 236.337 164.029 236.946C164.894 236.491 166.08 235.405 166.039 234.983C166.039 234.95 166.039 234.856 165.778 234.829L165.658 234.822Z" fill="#72A276"/>
<path d="M178.012 54.4652L179.238 54.3379C179.238 54.3379 178.475 55.1419 178.012 54.4652Z" fill="#263238"/>
<path opacity="0.6" d="M127.608 16.2822L107.971 143.227L218.467 160.299L238.105 33.3471L127.608 16.2822ZM173.008 88.4881C167.936 87.7032 163.211 85.4316 159.43 81.9607C155.65 78.4898 152.984 73.9755 151.77 68.9891C150.555 64.0027 150.847 58.7682 152.609 53.9477C154.37 49.1273 157.521 44.9375 161.664 41.9086C165.807 38.8797 170.756 37.1476 175.883 36.9316C181.011 36.7155 186.087 38.0252 190.471 40.6949C194.854 43.3646 198.346 47.2744 200.507 51.9296C202.668 56.5848 203.399 61.7762 202.608 66.8471C201.549 73.6405 197.837 79.7355 192.286 83.7933C186.736 87.8511 179.802 89.5397 173.008 88.4881Z" fill="#72A276"/>
<g style="mix-blend-mode:multiply" opacity="0.3">
<path d="M215.13 155.481H214.963L104.299 138.336V138.168L123.99 11.0762H124.151L234.815 28.2215V28.389L215.13 155.481ZM104.681 138.061L214.849 155.099L234.433 28.4694L124.265 11.4581L104.681 138.061Z" fill="#72A276"/>
</g>
<path d="M176.987 89.8013C175.603 89.7997 174.221 89.6922 172.854 89.4797C165.98 88.4073 159.789 84.7145 155.579 79.1761C151.37 73.6377 149.469 66.6841 150.276 59.7744C151.082 52.8647 154.533 46.5359 159.905 42.1159C165.277 37.696 172.153 35.5284 179.088 36.0679C186.024 36.6075 192.481 39.8123 197.105 45.0099C201.729 50.2075 204.16 56.9939 203.888 63.9452C203.616 70.8966 200.663 77.4725 195.647 82.2932C190.632 87.114 183.944 89.8048 176.987 89.8013ZM173.162 87.4965C178.034 88.2493 183.021 87.5404 187.49 85.4595C191.96 83.3786 195.713 80.0191 198.273 75.8057C200.834 71.5924 202.088 66.7144 201.876 61.7886C201.665 56.8627 199.997 52.1102 197.085 48.1318C194.173 44.1535 190.146 41.128 185.514 39.4379C180.883 37.7478 175.854 37.469 171.064 38.6367C166.274 39.8044 161.937 42.3662 158.603 45.9982C155.269 49.6302 153.086 54.1693 152.331 59.0416C151.328 65.5761 152.958 72.2417 156.863 77.5762C160.768 82.9106 166.63 86.4783 173.162 87.4965Z" fill="#FAFAFA"/>
<path d="M151.663 96.3423L127.323 92.5786L126.478 98.0478L150.818 101.811L151.663 96.3423Z" fill="#72A276"/>
<path opacity="0.6" d="M151.663 96.3423L127.323 92.5786L126.478 98.0478L150.818 101.811L151.663 96.3423Z" fill="#FAFAFA"/>
<path d="M171.337 99.3847L154.87 96.8384L154.024 102.308L170.491 104.854L171.337 99.3847Z" fill="#72A276"/>
<path opacity="0.6" d="M171.337 99.3847L154.87 96.8384L154.024 102.308L170.491 104.854L171.337 99.3847Z" fill="#FAFAFA"/>
<path d="M213.623 117.271L125.606 103.661L124.76 109.13L212.777 122.74L213.623 117.271Z" fill="#FAFAFA"/>
<path d="M168.293 121.867L124.449 115.224L123.619 120.702L167.463 127.346L168.293 121.867Z" fill="#FAFAFA"/>
<path d="M204.346 127.744L175.067 123.216L174.221 128.686L203.501 133.213L204.346 127.744Z" fill="#FAFAFA"/>
<path d="M192.377 137.803L122.013 126.923L121.167 132.392L191.532 143.273L192.377 137.803Z" fill="#FAFAFA"/>
<path d="M239.284 160.299H238.614C238.616 158.636 238.412 156.98 238.004 155.368L238.674 155.207C239.089 156.872 239.293 158.583 239.284 160.299ZM236.658 151.642C235.183 148.557 232.955 145.893 230.179 143.897L230.567 143.354C233.435 145.413 235.738 148.159 237.267 151.341L236.658 151.642Z" fill="#72A276"/>
<path opacity="0.6" d="M239.284 160.299H238.614C238.616 158.636 238.412 156.98 238.004 155.368L238.674 155.207C239.089 156.872 239.293 158.583 239.284 160.299ZM236.658 151.642C235.183 148.557 232.955 145.893 230.179 143.897L230.567 143.354C233.435 145.413 235.738 148.159 237.267 151.341L236.658 151.642Z" fill="#FAFAFA"/>
<path d="M218.467 141.826C214.814 141.826 211.242 142.91 208.205 144.939C205.167 146.969 202.799 149.854 201.401 153.229C200.003 156.604 199.637 160.319 200.35 163.902C201.063 167.485 202.822 170.776 205.405 173.36C207.989 175.943 211.28 177.702 214.863 178.415C218.447 179.128 222.161 178.762 225.536 177.364C228.911 175.966 231.796 173.598 233.826 170.56C235.856 167.523 236.939 163.951 236.939 160.298C236.939 155.399 234.993 150.701 231.529 147.236C228.064 143.772 223.366 141.826 218.467 141.826ZM218.467 176.378C215.287 176.378 212.178 175.435 209.533 173.668C206.889 171.901 204.828 169.39 203.611 166.452C202.394 163.513 202.076 160.28 202.696 157.161C203.316 154.042 204.848 151.177 207.097 148.928C209.346 146.679 212.211 145.147 215.33 144.527C218.449 143.907 221.682 144.225 224.621 145.442C227.559 146.659 230.07 148.72 231.837 151.364C233.604 154.009 234.547 157.118 234.547 160.298C234.547 164.563 232.853 168.653 229.837 171.668C226.822 174.684 222.732 176.378 218.467 176.378Z" fill="#72A276"/>
<path opacity="0.6" d="M218.467 141.826C214.814 141.826 211.242 142.91 208.205 144.939C205.167 146.969 202.799 149.854 201.401 153.229C200.003 156.604 199.637 160.319 200.35 163.902C201.063 167.485 202.822 170.776 205.405 173.36C207.989 175.943 211.28 177.702 214.863 178.415C218.447 179.128 222.161 178.762 225.536 177.364C228.911 175.966 231.796 173.598 233.826 170.56C235.856 167.523 236.939 163.951 236.939 160.298C236.939 155.399 234.993 150.701 231.529 147.236C228.064 143.772 223.366 141.826 218.467 141.826ZM218.467 176.378C215.287 176.378 212.178 175.435 209.533 173.668C206.889 171.901 204.828 169.39 203.611 166.452C202.394 163.513 202.076 160.28 202.696 157.161C203.316 154.042 204.848 151.177 207.097 148.928C209.346 146.679 212.211 145.147 215.33 144.527C218.449 143.907 221.682 144.225 224.621 145.442C227.559 146.659 230.07 148.72 231.837 151.364C233.604 154.009 234.547 157.118 234.547 160.298C234.547 164.563 232.853 168.653 229.837 171.668C226.822 174.684 222.732 176.378 218.467 176.378Z" fill="#FAFAFA"/>
<path d="M218.467 176.372C227.344 176.372 234.54 169.175 234.54 160.298C234.54 151.421 227.344 144.225 218.467 144.225C209.59 144.225 202.394 151.421 202.394 160.298C202.394 169.175 209.59 176.372 218.467 176.372Z" fill="#72A276"/>
<path opacity="0.2" d="M218.467 176.372C227.344 176.372 234.54 169.175 234.54 160.298C234.54 151.421 227.344 144.225 218.467 144.225C209.59 144.225 202.394 151.421 202.394 160.298C202.394 169.175 209.59 176.372 218.467 176.372Z" fill="black"/>
<path d="M215.968 170.469L206.534 161.036L208.906 158.67L215.968 165.732L228.034 153.666L230.4 156.037L215.968 170.469Z" fill="#FAFAFA"/>
</g>
<defs>
<filter id="filter0_d" x="0" y="1.18701" width="343" height="257.615" filterUnits="userSpaceOnUse" color-interpolation-filters="sRGB">
<feFlood flood-opacity="0" result="BackgroundImageFix"/>
<feColorMatrix in="SourceAlpha" type="matrix" values="0 0 0 0 0 0 0 0 0 0 0 0 0 0 0 0 0 0 127 0"/>
<feOffset dy="4"/>
<feGaussianBlur stdDeviation="2"/>
<feColorMatrix type="matrix" values="0 0 0 0 0 0 0 0 0 0 0 0 0 0 0 0 0 0 0.16 0"/>
<feBlend mode="normal" in2="BackgroundImageFix" result="effect1_dropShadow"/>
<feBlend mode="normal" in="SourceGraphic" in2="effect1_dropShadow" result="shape"/>
</filter>
</defs>
</svg>
