<svg width="439" height="380" viewBox="0 0 439 380" fill="none" xmlns="http://www.w3.org/2000/svg">
<g filter="url(#filter0_d)">
<path d="M67.0721 343.567C151.174 380.79 287.525 380.802 371.627 343.567C455.729 306.333 455.717 245.986 371.627 208.763C287.537 171.54 151.174 171.54 67.0721 208.763C-17.0301 245.986 -17.0179 306.344 67.0721 343.567Z" fill="#F5F5F5"/>
<path d="M371.334 316.058C386.824 316.058 399.381 310.501 399.381 303.646C399.381 296.791 386.824 291.235 371.334 291.235C355.845 291.235 343.288 296.791 343.288 303.646C343.288 310.501 355.845 316.058 371.334 316.058Z" fill="#EBEBEB"/>
<path d="M60.6891 305.426L70.6115 300.11C76.1515 295.911 80.3681 290.401 82.8162 284.162C85.8796 276.318 85.4524 270.356 83.2556 267.364C80.5583 263.68 73.5651 264.326 73.2844 272.079C72.6985 287.358 67.9021 297.956 60.6891 305.426Z" fill="#7E98B6"/>
<path opacity="0.2" d="M60.6891 305.426L70.6115 300.11C76.1515 295.911 80.3681 290.401 82.8162 284.162C85.8796 276.318 85.4524 270.356 83.2556 267.364C80.5583 263.68 73.5651 264.326 73.2844 272.079C72.6985 287.358 67.9021 297.956 60.6891 305.426Z" fill="black"/>
<path d="M60.6891 305.993C60.5599 305.991 60.4345 305.952 60.3311 305.88C60.2276 305.808 60.1514 305.707 60.1133 305.593C60.0753 305.478 60.0775 305.355 60.1196 305.241C60.1617 305.128 60.2414 305.03 60.3474 304.961C83.2921 290.226 78.8496 269.676 78.8008 269.472C78.784 269.398 78.7831 269.321 78.7982 269.246C78.8134 269.171 78.8442 269.1 78.8889 269.036C78.9337 268.973 78.9915 268.918 79.0591 268.875C79.1267 268.832 79.2028 268.802 79.2829 268.786C79.3631 268.771 79.4457 268.77 79.5262 268.784C79.6067 268.798 79.6834 268.827 79.7519 268.868C79.8205 268.91 79.8796 268.963 79.9258 269.026C79.972 269.089 80.0045 269.16 80.0213 269.234C80.0213 269.449 84.7079 290.702 61.0797 305.891C60.965 305.963 60.8278 305.999 60.6891 305.993Z" fill="white"/>
<path d="M40.8077 316.092C40.8077 316.092 37.3538 313.485 38.1837 309.948C39.0136 306.412 41.2471 303.873 37.427 299.316C33.607 294.76 32.5452 288.684 37.1097 285.397C40.588 282.847 46.0191 286.452 47.9719 279.73C49.412 274.811 48.9238 263.918 55.673 260.291C62.4222 256.664 66.6572 262.127 65.5954 269.517C64.6678 276.126 63.3497 282.484 64.3749 284.253C66.3521 287.653 69.7328 287.188 69.5741 293.4C69.4399 299.18 63.545 303.964 63.545 303.964L40.8077 316.092Z" fill="#7E98B6"/>
<path d="M52.1458 310.549C51.9966 310.548 51.853 310.496 51.741 310.405C51.629 310.313 51.5561 310.188 51.5356 310.05C49.7903 296.619 53.9765 273.428 57.3938 266.536C57.4226 266.46 57.4687 266.39 57.529 266.331C57.5892 266.273 57.6623 266.227 57.7433 266.197C57.8242 266.167 57.9112 266.153 57.9983 266.157C58.0854 266.161 58.1706 266.182 58.2482 266.219C58.321 266.249 58.3866 266.293 58.4409 266.347C58.4953 266.402 58.5373 266.466 58.5647 266.535C58.592 266.605 58.6039 266.679 58.5999 266.753C58.5958 266.828 58.5758 266.9 58.5411 266.967C55.1604 273.768 51.1206 297.027 52.7927 309.869C52.8098 310.018 52.763 310.167 52.6624 310.283C52.5618 310.4 52.4156 310.475 52.2557 310.492L52.1458 310.549Z" fill="white"/>
<path d="M51.8163 300.087C51.7229 300.091 51.6301 300.072 51.5478 300.031C47.3128 298.115 44.6278 291.28 44.5179 290.963C44.488 290.892 44.4737 290.817 44.4756 290.741C44.4776 290.665 44.496 290.591 44.5295 290.522C44.5631 290.453 44.6113 290.391 44.6712 290.339C44.731 290.288 44.8014 290.248 44.8781 290.222C44.9549 290.196 45.0364 290.185 45.1178 290.189C45.1993 290.193 45.2791 290.212 45.3525 290.245C45.4259 290.278 45.4914 290.325 45.5451 290.382C45.5988 290.439 45.6396 290.505 45.6652 290.577C45.6652 290.645 48.2892 297.265 52.0848 298.976C52.2093 299.032 52.3097 299.126 52.3694 299.242C52.429 299.358 52.4446 299.489 52.4133 299.614C52.3821 299.739 52.3061 299.851 52.1976 299.931C52.0891 300.011 51.9547 300.054 51.8163 300.053V300.087Z" fill="white"/>
<path d="M51.7431 304.621C51.6208 304.621 51.5014 304.586 51.4011 304.521C51.3007 304.457 51.2241 304.365 51.1817 304.258C51.121 304.12 51.1215 303.965 51.1832 303.827C51.2449 303.689 51.3628 303.579 51.5112 303.521C58.6387 300.869 63.0812 292.992 63.13 292.901C63.2045 292.767 63.3331 292.666 63.4876 292.621C63.6421 292.575 63.8098 292.588 63.9539 292.657C64.0979 292.726 64.2065 292.846 64.2557 292.989C64.3049 293.133 64.2907 293.288 64.2163 293.422C64.021 293.762 59.5175 301.765 52.0116 304.576C51.928 304.612 51.8353 304.628 51.7431 304.621Z" fill="white"/>
<path d="M300.877 243.64C300.877 243.64 295.543 235.615 295.019 226.899C294.494 218.182 296.556 214.555 299.388 213.512C302.219 212.47 302.439 215.677 303.891 217.57C305.344 219.463 308.309 218.386 309.408 212.481C310.506 206.576 314.509 196.612 322.833 194.674C331.986 192.566 327.08 202.54 324.774 206.428C322.467 210.316 320.685 215.621 322.198 217.06C323.712 218.5 326.067 215.836 328.301 218.307C331.022 221.288 322.564 232.022 317.707 234.618L300.877 243.64Z" fill="#7E98B6"/>
<path d="M308.187 240.274C308.107 240.271 308.028 240.253 307.956 240.222C307.883 240.191 307.817 240.147 307.763 240.092C307.708 240.037 307.666 239.973 307.639 239.903C307.611 239.833 307.598 239.759 307.602 239.684C308.428 225.663 313.136 212.077 321.271 200.239C321.317 200.178 321.376 200.125 321.444 200.086C321.513 200.046 321.589 200.019 321.669 200.007C321.749 199.996 321.831 199.999 321.909 200.018C321.987 200.036 322.061 200.069 322.125 200.115C322.253 200.203 322.339 200.334 322.364 200.48C322.389 200.627 322.351 200.776 322.259 200.897C314.27 212.561 309.647 225.938 308.834 239.741C308.83 239.816 308.809 239.888 308.774 239.956C308.739 240.023 308.69 240.083 308.63 240.132C308.57 240.182 308.5 240.22 308.424 240.244C308.348 240.268 308.268 240.278 308.187 240.274Z" fill="white"/>
<path d="M308.883 233.575C308.781 233.574 308.681 233.551 308.59 233.507C305.173 231.75 303.281 226.536 303.208 226.321C303.181 226.25 303.169 226.175 303.174 226.1C303.178 226.025 303.199 225.952 303.234 225.885C303.269 225.817 303.318 225.757 303.379 225.707C303.439 225.657 303.51 225.619 303.586 225.595C303.74 225.549 303.907 225.561 304.051 225.629C304.196 225.697 304.305 225.815 304.355 225.958C304.355 225.958 306.186 230.979 309.237 232.509C309.375 232.585 309.477 232.708 309.52 232.851C309.563 232.995 309.545 233.149 309.469 233.28C309.414 233.378 309.329 233.458 309.224 233.51C309.12 233.563 309.001 233.585 308.883 233.575Z" fill="white"/>
<path d="M309.481 230.14C309.346 230.139 309.215 230.096 309.109 230.018C309.003 229.94 308.928 229.832 308.895 229.71C308.875 229.638 308.871 229.564 308.882 229.491C308.893 229.418 308.92 229.347 308.961 229.284C309.002 229.221 309.056 229.166 309.12 229.122C309.184 229.078 309.257 229.047 309.335 229.03C318.146 226.955 321.198 222.671 321.222 222.626C321.265 222.562 321.322 222.508 321.388 222.464C321.454 222.421 321.528 222.391 321.607 222.375C321.686 222.358 321.767 222.356 321.847 222.369C321.926 222.382 322.002 222.41 322.07 222.45C322.138 222.49 322.197 222.542 322.244 222.604C322.29 222.665 322.323 222.734 322.34 222.807C322.358 222.88 322.36 222.956 322.346 223.03C322.332 223.104 322.303 223.174 322.259 223.238C322.125 223.43 318.952 227.93 309.64 230.129L309.481 230.14Z" fill="white"/>
<path d="M168.09 226.026C168.09 226.026 156.386 223.374 155.776 203.016C155.129 181.05 158.644 155.411 144.791 153.336C130.939 151.262 123.25 166.938 123.421 185.244C123.58 201.271 130.536 236.069 168.041 242.892L168.09 226.026Z" fill="#7E98B6"/>
<path opacity="0.2" d="M168.09 226.026C168.09 226.026 156.386 223.374 155.776 203.016C155.129 181.05 158.644 155.411 144.791 153.336C130.939 151.262 123.25 166.938 123.421 185.244C123.58 201.271 130.536 236.069 168.041 242.892L168.09 226.026Z" fill="black"/>
<path d="M168.09 240.806H167.98C159.547 239.378 152.676 235.06 147.562 227.987C132.404 206.983 137.176 167.765 138.75 160.919C138.785 160.773 138.88 160.646 139.014 160.563C139.148 160.481 139.312 160.45 139.47 160.477C139.628 160.512 139.766 160.602 139.854 160.729C139.943 160.856 139.976 161.009 139.946 161.157C138.396 167.958 133.649 206.677 148.575 227.352C150.747 230.558 153.614 233.31 156.992 235.433C160.371 237.556 164.187 239.004 168.2 239.684C168.28 239.698 168.355 239.726 168.423 239.767C168.491 239.808 168.549 239.861 168.595 239.924C168.64 239.986 168.672 240.056 168.688 240.13C168.704 240.203 168.704 240.279 168.688 240.353C168.662 240.482 168.588 240.598 168.478 240.681C168.369 240.764 168.231 240.809 168.09 240.806Z" fill="white"/>
<path d="M168.09 293.048C155.995 294.567 136.358 294.544 125.02 286.247C113.682 277.95 116.049 270.81 120.407 267.828C124.764 264.847 128.547 261.447 121.053 254.828C113.56 248.208 101.526 237.576 97.6204 221.628C93.7149 205.68 95.6433 195.706 103.308 192.384C110.74 189.165 112.705 194.289 117.258 204.853C121.81 215.417 132.05 206.36 140.813 209.659C149.576 212.957 149.222 219.486 149.771 225.097C150.32 230.707 153.213 232.26 158.18 232.26C163.147 232.26 168.09 234.912 168.09 240.194V293.048Z" fill="#7E98B6"/>
<path d="M168.09 274.527C168.038 274.538 167.984 274.538 167.931 274.527C167.407 274.391 154.897 271.013 136.675 255.474C117.27 238.925 108.116 214.102 108.019 213.852C107.972 213.71 107.987 213.555 108.059 213.422C108.132 213.289 108.258 213.188 108.409 213.138C108.561 213.091 108.727 213.102 108.871 213.168C109.015 213.233 109.125 213.349 109.178 213.49C109.264 213.739 118.332 238.29 137.505 254.635C155.47 269.971 168.127 273.405 168.261 273.439C168.338 273.46 168.41 273.495 168.472 273.541C168.535 273.588 168.587 273.645 168.625 273.711C168.664 273.776 168.688 273.848 168.697 273.922C168.705 273.996 168.698 274.07 168.676 274.142C168.636 274.256 168.558 274.356 168.452 274.425C168.347 274.495 168.219 274.531 168.09 274.527Z" fill="white"/>
<path d="M141.765 259.418C141.642 259.42 141.522 259.386 141.421 259.321C141.32 259.256 141.244 259.163 141.203 259.055C137.286 249.716 136.395 229.732 136.321 228.882C136.318 228.733 136.377 228.588 136.486 228.478C136.596 228.368 136.746 228.302 136.907 228.293C137.067 228.295 137.219 228.352 137.337 228.452C137.454 228.553 137.527 228.69 137.542 228.837C137.542 229.041 138.457 249.478 142.302 258.647C142.331 258.717 142.345 258.792 142.343 258.867C142.341 258.942 142.323 259.016 142.291 259.084C142.258 259.153 142.21 259.215 142.151 259.266C142.093 259.318 142.023 259.358 141.948 259.384C141.889 259.404 141.827 259.415 141.765 259.418Z" fill="white"/>
<path d="M141.667 272.85C140.542 272.858 139.417 272.805 138.299 272.691C138.218 272.682 138.141 272.659 138.071 272.622C138 272.585 137.938 272.536 137.888 272.477C137.839 272.418 137.802 272.351 137.78 272.278C137.758 272.206 137.752 272.131 137.762 272.056C137.771 271.982 137.796 271.91 137.836 271.845C137.876 271.779 137.929 271.722 137.992 271.676C138.055 271.629 138.128 271.595 138.206 271.575C138.284 271.554 138.365 271.549 138.445 271.558C138.555 271.558 149.917 272.759 155.129 267.828C155.183 267.769 155.25 267.72 155.325 267.686C155.401 267.651 155.483 267.632 155.567 267.628C155.651 267.624 155.735 267.637 155.814 267.665C155.892 267.693 155.963 267.736 156.023 267.791C156.083 267.845 156.13 267.911 156.162 267.984C156.193 268.056 156.207 268.134 156.205 268.212C156.202 268.29 156.182 268.367 156.146 268.437C156.11 268.508 156.059 268.571 155.995 268.622C152.224 272.238 145.646 272.85 141.667 272.85Z" fill="white"/>
<path d="M132.88 58.2152L131.562 51.1536L124.776 55.3022C124.156 54.1688 123.277 53.1746 122.201 52.3891L125.447 44.2281L119.345 42.97L114.878 50.9043C113.262 51.1575 111.695 51.6311 110.228 52.3098L108.287 46.3251L101.038 51.6184L101.514 58.6459C100.037 60.1817 98.6985 61.827 97.5105 63.5652L91.5303 63.2818L87.3319 72.0209L92.47 74.0612C91.9336 75.8687 91.5943 77.7219 91.457 79.5925L84.9276 85.1692L86.2334 92.2421L93.0314 88.0936C93.6479 89.2259 94.5275 90.217 95.6066 90.9953L92.4212 99.1676L98.5235 100.414L104.919 94.6337C106.396 94.4183 106.029 91.834 107.64 91.0973L109.581 97.0593L116.818 91.7774L116.635 89.0117C118.1 87.4928 123.641 84.1491 124.837 82.4035L126.338 80.1366L130.536 71.3975L128.584 68.1104L126.411 63.8259L132.88 58.2152ZM110.728 81.4627C105.163 85.5206 103.405 86.416 102.466 80.9867C101.526 75.5573 104.711 67.3056 110.277 63.2365C115.842 59.1673 117.966 58.8839 118.966 64.3019C119.967 69.7199 116.306 77.4502 110.728 81.4627Z" fill="#E0E0E0"/>
<path d="M119.394 42.97L127.314 47.2092L122.847 55.1208L114.927 50.8816L119.394 42.97Z" fill="#F5F5F5"/>
<path d="M139.482 55.3928L132.697 59.5413L124.776 55.3021L131.562 51.1536L139.482 55.3928Z" fill="#F5F5F5"/>
<path d="M138.396 75.6026L133.258 73.5737L125.337 69.3345L130.475 71.3634L138.396 75.6026Z" fill="#E0E0E0"/>
<path d="M92.409 99.1677L100.33 103.396L103.576 95.2345L95.6554 90.9954L92.409 99.1677Z" fill="#E0E0E0"/>
<path d="M117.429 101.298L109.52 97.0592L107.579 91.0972L115.5 95.3364L117.429 101.298Z" fill="#E0E0E0"/>
<path d="M140.788 62.4544L139.482 55.3929L132.697 59.5414C132.072 58.4075 131.189 57.4135 130.109 56.6284L133.356 48.4674L127.314 47.2092L122.835 55.1435C121.219 55.3968 119.652 55.8704 118.185 56.5491L116.257 50.587L109.007 55.8803L109.483 62.9078C108.005 64.4545 106.667 66.1112 105.48 67.8611L99.4877 67.5778L95.2893 76.3168L100.427 78.3571C99.8959 80.1695 99.5567 82.0259 99.4145 83.8998L92.8972 89.3971L94.2031 96.47L100.989 92.3215C101.614 93.4521 102.497 94.4424 103.576 95.2232L100.33 103.384L106.432 104.642L110.899 96.708C112.521 96.4576 114.093 95.9799 115.561 95.2912L117.49 101.253L124.739 95.9713L124.263 88.9437C125.739 87.4079 127.078 85.7627 128.266 84.0244L134.259 84.2965L138.457 75.5574L133.246 73.5285C133.786 71.7174 134.13 69.8605 134.271 67.9858L140.788 62.4544ZM118.661 85.7473C113.108 89.8052 107.787 88.7057 106.774 83.2877C105.761 77.8697 109.459 70.1734 115.024 66.1156C120.59 62.0577 125.899 63.1685 126.912 68.5865C127.925 74.0045 124.227 81.6895 118.661 85.7473Z" fill="#EBEBEB"/>
<path d="M116.257 50.5641L108.336 46.325L101.087 51.6183L109.007 55.8575L116.257 50.5641Z" fill="#F5F5F5"/>
<path d="M101.087 51.6184L101.563 58.6459L109.483 62.8851L109.007 55.8576L101.087 51.6184Z" fill="#E0E0E0"/>
<path d="M105.48 67.8044L97.5594 63.5653L91.5791 63.2932L99.4877 67.5324L105.48 67.8044Z" fill="#F5F5F5"/>
<path d="M91.5791 63.2932L87.3807 72.021L95.2893 76.2602L99.4877 67.5324L91.5791 63.2932Z" fill="#E0E0E0"/>
<path d="M99.4145 83.8317L91.5059 79.5925L84.9764 85.1692L92.885 89.4084L99.4145 83.8317Z" fill="#F5F5F5"/>
<path d="M94.2031 96.4813L86.2823 92.2421L84.9764 85.1692L92.885 89.4084L94.2031 96.4813Z" fill="#E0E0E0"/>
<path d="M127.314 47.2092L119.393 42.97L125.447 44.2281L133.356 48.4673L127.314 47.2092Z" fill="#F5F5F5"/>
<path d="M97.4129 26.1606V15.6079L88.3693 19.3937C87.8902 17.6034 87.063 15.9093 85.9283 14.3951L91.6279 3.72913L84.6712 0L77.5681 9.91789C75.5887 9.75729 73.5943 9.9379 71.6855 10.4506L70.6847 1.28083L60.8478 6.56281L59.8592 16.7641C57.7183 18.5259 55.7498 20.4603 53.9765 22.5448L46.8734 20.2778L39.9168 31.4766L45.6041 36.0105C44.5533 38.4786 43.7365 41.0273 43.1632 43.6274L34.1196 49.5328V60.0968L43.1632 56.311C43.6422 58.1014 44.4694 59.7954 45.6041 61.3096L39.9412 71.9869L46.8978 75.716L54.0009 65.7981C55.9804 65.9582 57.9747 65.7776 59.8836 65.2654L60.8722 74.4352L70.7091 69.1532L71.7099 58.952C74.7802 57.9116 77.5 56.1364 79.5941 53.806L84.6957 55.4722L91.6523 44.2848L87.3807 40.8844C88.308 38.0488 88.6516 35.0764 88.3937 32.1226L97.4129 26.1606ZM65.7662 52.5252C58.2238 56.5717 53.5616 53.6586 53.5616 45.5996C53.5616 37.5406 59.7982 27.5774 67.3528 23.5309C74.9075 19.4844 79.4721 22.3974 79.4721 30.5244C79.4721 38.6515 73.3209 48.4673 65.7662 52.5252Z" fill="#E0E0E0"/>
<path d="M92.5798 4.22786L84.6712 0L77.5681 9.91789L85.4767 14.1571L92.5798 4.22786Z" fill="#F5F5F5"/>
<path d="M105.334 19.8471L97.4129 15.6079L88.3693 19.3937L96.2901 23.6329L105.334 19.8471Z" fill="#F5F5F5"/>
<path d="M68.7564 78.6744L60.8478 74.4352L59.8592 65.2654L67.7678 69.5046L68.7564 78.6744Z" fill="#E0E0E0"/>
<path d="M39.9045 71.987L47.8254 76.2262L53.5249 65.5602L45.6041 61.321L39.9045 71.987Z" fill="#E0E0E0"/>
<path d="M105.334 30.4564V19.9038L96.2901 23.6556C95.8161 21.8636 94.9885 20.1687 93.8492 18.6569L99.5487 7.99095L92.5921 4.25049L85.489 14.1797C83.5095 14.0135 81.514 14.1942 79.6063 14.7125L78.6055 5.51998L68.7686 10.802L67.7678 21.0032C65.63 22.768 63.6617 24.7022 61.8852 26.7839L54.7821 24.517L47.8254 35.7157L53.525 40.2496C52.4685 42.716 51.6517 45.2651 51.0841 47.8666L42.0404 53.772V64.3359L51.0841 60.5501C51.5578 62.3422 52.3854 64.0371 53.525 65.5488L47.8254 76.2147L54.7821 79.9439L61.8852 70.026C63.8647 70.1866 65.859 70.006 67.7678 69.4932L68.7686 78.663L78.6055 73.381L79.5941 63.1798C81.735 61.418 83.7036 59.4835 85.4768 57.3991L92.5799 59.666L99.5365 48.4786L93.837 43.9447C94.8931 41.4783 95.71 38.9292 96.2779 36.3278L105.334 30.4564ZM73.6871 56.821C66.1324 60.8675 60.0057 57.5804 60.0057 49.4874C60.0057 41.3944 66.108 31.5445 73.6871 27.4867C81.2662 23.4289 87.3563 26.7273 87.3563 34.8203C87.3563 42.9133 81.2295 52.7065 73.6871 56.7643V56.821Z" fill="#EBEBEB"/>
<path d="M53.9765 22.5674L61.8851 26.8066L54.782 24.5057L46.8734 20.2551L53.9765 22.5674Z" fill="#F0F0F0"/>
<path d="M46.8726 20.2667L39.9141 31.4692L47.8322 35.7115L54.7908 24.509L46.8726 20.2667Z" fill="#F5F5F5"/>
<path d="M39.9045 31.4539L47.8254 35.6931L53.5249 40.2496L45.6041 36.0218L39.9045 31.4539Z" fill="#E0E0E0"/>
<path d="M43.1632 43.6387L51.084 47.8779L42.0404 53.7833L34.1196 49.5441L43.1632 43.6387Z" fill="#F5F5F5"/>
<path d="M34.1196 49.5442L42.0404 53.7834V64.3474L34.1196 60.1082V49.5442Z" fill="#E0E0E0"/>
<path d="M78.6055 5.51995L70.6847 1.28076L60.8478 6.56274L68.7564 10.8019L78.6055 5.51995Z" fill="#F5F5F5"/>
<path d="M180.148 308.214L294.872 246.689C295.125 246.607 295.344 246.453 295.499 246.25C295.653 246.047 295.737 245.805 295.737 245.556C295.737 245.307 295.653 245.064 295.499 244.861C295.344 244.658 295.125 244.505 294.872 244.422L284.266 238.755C283.609 238.448 282.884 238.288 282.149 238.288C281.413 238.288 280.688 238.448 280.031 238.755L165.271 300.223C165.018 300.306 164.799 300.459 164.644 300.662C164.489 300.865 164.406 301.108 164.406 301.357C164.406 301.606 164.489 301.848 164.644 302.051C164.799 302.254 165.018 302.408 165.271 302.49L175.913 308.158C176.565 308.473 177.288 308.643 178.024 308.653C178.759 308.663 179.487 308.512 180.148 308.214Z" fill="#E0E0E0"/>
<path d="M291.723 9.14723L188.277 64.6194C186.739 65.5515 185.459 66.8068 184.541 68.2837C183.623 69.7606 183.092 71.4176 182.992 73.1205V301.028C182.992 304.156 185.36 305.426 188.277 303.862L291.723 248.389C293.263 247.459 294.544 246.205 295.463 244.727C296.381 243.25 296.911 241.592 297.008 239.888V11.9809C297.008 8.85252 294.652 7.58303 291.723 9.14723Z" fill="#455A64"/>
<path d="M188.277 64.6194L291.723 9.1472C294.335 7.74169 296.495 8.61447 296.935 11.0514C296.691 9.51926 296.1 8.05243 295.202 6.74742C294.304 5.44241 293.118 4.32879 291.723 3.47983L287.427 1.21289C285.79 0.441219 283.979 0.0390625 282.143 0.0390625C280.306 0.0390625 278.496 0.441219 276.858 1.21289L173.399 56.6398C171.841 57.5472 170.556 58.8068 169.664 60.3009L184.542 68.2352C185.433 66.7529 186.719 65.508 188.277 64.6194Z" fill="#37474F"/>
<path d="M168.09 293.048C168.19 294.751 168.721 296.408 169.639 297.885C170.557 299.362 171.837 300.617 173.375 301.549L177.683 303.816C179.174 304.509 180.806 304.902 182.472 304.968C184.137 305.034 185.799 304.773 187.349 304.202C184.908 305.086 182.968 303.782 182.968 300.983V73.1204C183.029 71.4104 183.562 69.7436 184.518 68.2805L169.64 60.3462C168.698 61.7983 168.165 63.4471 168.09 65.1408V293.048Z" fill="#263238"/>
<path d="M191.12 94.985L288.916 42.5619C290.674 41.6325 292.089 42.3919 292.089 44.2621V212.946C292.031 213.968 291.713 214.963 291.161 215.849C290.61 216.736 289.841 217.489 288.916 218.046L191.157 270.469C189.399 271.41 187.984 270.651 187.984 268.769V100.086C188.039 99.0666 188.352 98.074 188.897 97.1879C189.442 96.3019 190.203 95.5473 191.12 94.985Z" fill="white"/>
<path d="M240 45.5204C239.46 45.8495 239.011 46.2918 238.689 46.8115C238.367 47.3312 238.18 47.9139 238.145 48.5128C238.145 49.6462 238.975 50.0656 240 49.5102C240.542 49.1831 240.992 48.7414 241.315 48.2212C241.637 47.7011 241.822 47.1173 241.855 46.5179C241.855 45.4184 241.025 44.9763 240 45.5204Z" fill="#37474F"/>
<path d="M240 252.323C237.866 253.619 236.092 255.364 234.819 257.416C233.547 259.468 232.813 261.769 232.677 264.134C232.677 268.475 235.96 270.243 240 268.067C242.133 266.77 243.907 265.025 245.179 262.973C246.451 260.921 247.186 258.62 247.323 256.256C247.347 251.915 244.052 250.146 240 252.323Z" fill="#37474F"/>
<path d="M222.437 63.0665C221.365 63.7278 220.475 64.614 219.839 65.6535C219.203 66.6931 218.839 67.857 218.776 69.0513C218.776 71.2502 220.436 72.1456 222.437 71.0462C223.521 70.3912 224.424 69.5077 225.07 68.4678C225.717 67.4278 226.091 66.2607 226.16 65.0614C226.16 62.8625 224.5 61.9671 222.437 63.0665Z" fill="#37474F"/>
<path d="M231.554 62.3183C231.554 63.7919 232.775 64.3473 234.203 63.5652L258.612 50.4509C259.368 50.0123 260.002 49.4142 260.462 48.7051C260.923 47.9961 261.196 47.1961 261.26 46.3704C261.26 44.9082 260.04 44.3528 258.612 45.1349L234.203 58.2492C233.448 58.6866 232.815 59.283 232.355 59.9899C231.895 60.6969 231.621 61.4946 231.554 62.3183Z" fill="#37474F"/>
<path d="M176.34 102.285C177.207 102.809 177.928 103.515 178.445 104.346C178.962 105.177 179.262 106.11 179.318 107.068C179.318 108.836 177.988 109.55 176.34 108.666C175.477 108.14 174.759 107.434 174.244 106.603C173.729 105.772 173.431 104.84 173.375 103.883C173.375 102.126 174.705 101.412 176.34 102.285Z" fill="#37474F"/>
<path d="M176.34 123.571C177.207 124.095 177.928 124.801 178.445 125.632C178.962 126.464 179.262 127.396 179.318 128.355C179.318 130.112 177.988 130.826 176.34 129.953C175.477 129.427 174.759 128.72 174.244 127.889C173.729 127.058 173.431 126.127 173.375 125.17C173.375 123.401 174.705 122.687 176.34 123.571Z" fill="#37474F"/>
<path d="M175.413 102.715C176.279 103.239 177 103.945 177.517 104.776C178.035 105.608 178.334 106.54 178.391 107.499C178.391 109.256 177.061 109.97 175.413 109.097C174.547 108.573 173.826 107.867 173.308 107.036C172.791 106.205 172.492 105.272 172.435 104.314C172.447 102.545 173.777 101.865 175.413 102.715Z" fill="#455A64"/>
<path d="M175.413 123.991C176.281 124.516 177.003 125.224 177.52 126.057C178.038 126.89 178.336 127.825 178.391 128.785C178.391 130.542 177.061 131.256 175.413 130.372C174.545 129.85 173.822 129.145 173.305 128.313C172.787 127.482 172.489 126.548 172.435 125.589C172.447 123.832 173.777 123.118 175.413 123.991Z" fill="#455A64"/>
<path d="M311.885 49.6009C311.885 47.7193 310.47 46.9599 308.712 47.9007L297.008 54.1688L210.953 100.324C210.028 100.882 209.259 101.634 208.708 102.521C208.156 103.407 207.838 104.402 207.78 105.424V274.063C207.78 275.944 209.195 276.704 210.953 275.763L297.044 229.597L308.712 223.34C309.636 222.782 310.406 222.029 310.957 221.143C311.509 220.256 311.827 219.261 311.885 218.239V49.6009Z" fill="white"/>
<path d="M313.106 49.601C313.183 49.0325 313.077 48.4557 312.803 47.9426C312.529 47.4295 312.097 47.0029 311.563 46.7162C311.029 46.4295 310.416 46.2954 309.8 46.3307C309.185 46.366 308.594 46.5691 308.102 46.9146L296.935 52.9107L210.343 99.3831C209.228 100.037 208.301 100.932 207.642 101.993C206.983 103.053 206.611 104.246 206.559 105.47V274.063C206.51 274.629 206.627 275.196 206.898 275.705C207.169 276.214 207.583 276.645 208.097 276.953C208.534 277.189 209.032 277.31 209.537 277.304C210.253 277.284 210.95 277.092 211.563 276.749L298.216 230.277L309.359 224.303C310.467 223.643 311.389 222.746 312.048 221.687C312.706 220.628 313.081 219.438 313.142 218.217L313.106 49.601ZM296.959 228.338L295.958 228.882L210.391 274.766C210.248 274.868 210.081 274.94 209.904 274.975C209.726 275.01 209.543 275.008 209.366 274.97C209.208 274.879 209.049 274.561 209.049 274.04V105.425C209.112 104.602 209.376 103.803 209.82 103.088C210.264 102.373 210.876 101.761 211.612 101.299L297.093 55.393L309.298 48.8302C309.442 48.7276 309.608 48.656 309.786 48.6207C309.963 48.5855 310.147 48.5873 310.323 48.6262C310.482 48.7169 310.64 49.0342 310.64 49.5556V218.239C310.577 219.062 310.314 219.861 309.87 220.576C309.426 221.29 308.813 221.902 308.077 222.365L296.935 228.338H296.959Z" fill="#7E98B6"/>
<path d="M259.833 88.7851C270.817 82.9137 279.665 87.6516 279.665 99.4284C279.665 111.205 270.78 125.498 259.833 131.324C248.885 137.15 240 132.458 240 120.692C240 108.927 248.885 94.6678 259.833 88.7851Z" fill="#7E98B6"/>
<path d="M259.833 98.0342C263.384 96.13 266.264 97.6715 266.264 101.435C266.144 103.508 265.498 105.525 264.381 107.323C263.263 109.121 261.705 110.649 259.833 111.783C256.281 113.688 253.401 112.146 253.401 108.383C253.521 106.31 254.167 104.292 255.284 102.494C256.402 100.696 257.96 99.1682 259.833 98.0342Z" fill="#7E98B6"/>
<path d="M272.367 118.346C272.367 112.089 267.643 109.55 261.797 112.679L258.136 114.64C252.302 117.768 247.567 125.385 247.567 131.642V133.331C250.948 134.362 255.195 133.807 259.771 131.324C264.841 128.42 269.129 124.477 272.306 119.797L272.367 118.346Z" fill="#7E98B6"/>
<path opacity="0.7" d="M259.833 98.0342C263.384 96.13 266.264 97.6715 266.264 101.435C266.144 103.508 265.498 105.525 264.381 107.323C263.263 109.121 261.705 110.649 259.833 111.783C256.281 113.688 253.401 112.146 253.401 108.383C253.521 106.31 254.167 104.292 255.284 102.494C256.402 100.696 257.96 99.1682 259.833 98.0342Z" fill="white"/>
<path opacity="0.7" d="M272.367 118.346C272.367 112.089 267.643 109.55 261.797 112.679L258.136 114.64C252.302 117.768 247.567 125.385 247.567 131.642V133.331C250.948 134.362 255.195 133.807 259.771 131.324C264.841 128.42 269.129 124.477 272.306 119.797L272.367 118.346Z" fill="white"/>
<path d="M221.461 157.224L246.981 143.543C248.201 142.92 249.092 143.419 249.092 144.677V145.459C249.054 146.14 248.842 146.803 248.475 147.394C248.108 147.985 247.596 148.487 246.981 148.859L221.461 162.54C220.302 163.164 219.35 162.654 219.35 161.407V160.625C219.389 159.944 219.601 159.281 219.968 158.69C220.335 158.099 220.846 157.597 221.461 157.224Z" fill="#7E98B6"/>
<path opacity="0.1" d="M221.461 157.224L246.981 143.543C248.201 142.92 249.092 143.419 249.092 144.677V145.459C249.054 146.14 248.842 146.803 248.475 147.394C248.108 147.985 247.596 148.487 246.981 148.859L221.461 162.54C220.302 163.164 219.35 162.654 219.35 161.407V160.625C219.389 159.944 219.601 159.281 219.968 158.69C220.335 158.099 220.846 157.597 221.461 157.224Z" fill="black"/>
<path d="M220.411 173.739L297.618 132.344C298.192 132.027 298.668 132.276 298.668 132.911V141.276C298.646 141.616 298.54 141.946 298.358 142.241C298.176 142.536 297.923 142.788 297.618 142.976L220.411 184.371C219.826 184.688 219.35 184.427 219.35 183.804V175.439C219.371 175.098 219.478 174.767 219.662 174.471C219.847 174.176 220.103 173.925 220.411 173.739Z" fill="#7E98B6"/>
<path opacity="0.2" d="M220.411 173.739L297.618 132.344C298.192 132.027 298.668 132.276 298.668 132.911V141.276C298.646 141.616 298.54 141.946 298.358 142.241C298.176 142.536 297.923 142.788 297.618 142.976L220.411 184.371C219.826 184.688 219.35 184.427 219.35 183.804V175.439C219.371 175.098 219.478 174.767 219.662 174.471C219.847 174.176 220.103 173.925 220.411 173.739Z" fill="white"/>
<path d="M221.461 194.436L246.981 180.755C248.201 180.132 249.092 180.642 249.092 181.889V182.671C249.055 183.352 248.844 184.015 248.477 184.607C248.11 185.198 247.597 185.699 246.981 186.071L221.461 199.752C220.302 200.387 219.35 199.877 219.35 198.619V197.837C219.391 197.156 219.604 196.494 219.97 195.903C220.337 195.313 220.848 194.81 221.461 194.436Z" fill="#7E98B6"/>
<path opacity="0.1" d="M221.461 194.436L246.981 180.755C248.201 180.132 249.092 180.642 249.092 181.889V182.671C249.055 183.352 248.844 184.015 248.477 184.607C248.11 185.198 247.597 185.699 246.981 186.071L221.461 199.752C220.302 200.387 219.35 199.877 219.35 198.619V197.837C219.391 197.156 219.604 196.494 219.97 195.903C220.337 195.313 220.848 194.81 221.461 194.436Z" fill="black"/>
<path d="M220.411 210.951L297.618 169.556C298.192 169.239 298.668 169.5 298.668 170.123V178.488C298.646 178.828 298.54 179.158 298.358 179.453C298.176 179.748 297.923 180 297.618 180.188L220.411 221.583C219.826 221.9 219.35 221.651 219.35 221.016V212.651C219.371 212.31 219.478 211.979 219.662 211.683C219.847 211.388 220.103 211.137 220.411 210.951Z" fill="#7E98B6"/>
<path opacity="0.2" d="M220.411 210.951L297.618 169.556C298.192 169.239 298.668 169.5 298.668 170.123V178.488C298.646 178.828 298.54 179.158 298.358 179.453C298.176 179.748 297.923 180 297.618 180.188L220.411 221.583C219.826 221.9 219.35 221.651 219.35 221.016V212.651C219.371 212.31 219.478 211.979 219.662 211.683C219.847 211.388 220.103 211.137 220.411 210.951Z" fill="white"/>
<path d="M251.204 215.7L281.715 199.367C282.936 198.732 283.839 199.242 283.839 200.5V209.251C283.799 209.933 283.586 210.597 283.217 211.188C282.848 211.779 282.333 212.28 281.715 212.651L251.204 228.996C249.983 229.619 249.092 229.109 249.092 227.862V219.101C249.135 218.42 249.348 217.759 249.714 217.168C250.081 216.578 250.591 216.075 251.204 215.7Z" fill="#7E98B6"/>
<path opacity="0.1" d="M251.204 215.7L281.715 199.367C282.936 198.732 283.839 199.242 283.839 200.5V209.251C283.799 209.933 283.586 210.597 283.217 211.188C282.848 211.779 282.333 212.28 281.715 212.651L251.204 228.996C249.983 229.619 249.092 229.109 249.092 227.862V219.101C249.135 218.42 249.348 217.759 249.714 217.168C250.081 216.578 250.591 216.075 251.204 215.7Z" fill="black"/>
<path d="M323.455 178.771C323.455 178.771 308.468 159.57 307.589 157.235C306.894 155.513 307.589 152.951 307.809 151.761C308.029 150.571 308.224 147.918 308.444 147.227C308.81 145.935 307.016 146.195 306.003 147.374C304.99 148.553 304.648 150.911 304.123 151.296C303.598 151.681 299.607 146.275 297.52 143.781C295.433 141.287 294.128 139.769 292.846 140.698C291.931 141.367 292.614 142.818 294.128 144.949C295.011 146.096 295.826 147.288 296.569 148.519C296.8 148.984 295.556 149.018 294.884 149.981C294.36 150.729 294.884 151.942 294.152 152.52C293.701 152.839 293.393 153.3 293.285 153.816C293.176 154.333 293.277 154.868 293.566 155.32C294.925 157.301 296.677 159.025 298.729 160.398C300.974 161.837 301.878 162.347 303.208 164.308C304.538 166.269 316.474 186.298 317.28 187.499C318.085 188.701 319.635 191.149 321.991 191.217C324.346 191.285 343.63 175.87 344.618 175.099C347.791 172.639 348.804 172.288 349.341 174.498C349.527 175.284 349.665 176.079 349.756 176.879C350.135 179.69 352.197 189.732 352.197 189.732C352.197 189.732 361.961 194.119 369.98 191.999C377.998 189.879 380.707 186.717 380.707 186.717L376.692 180.642C377.778 178.137 382.794 167.981 384.418 160.874L359.276 157.099C358.763 156.997 357.934 156.805 356.835 156.544C355.456 156.204 351.953 155.082 349.305 157.235C340.664 164.229 323.48 178.771 323.48 178.771" fill="#FFA8A7"/>
<path d="M373.299 296.585L368.796 302.399C370.842 303.287 373.079 303.733 375.337 303.703C379.377 303.839 380.488 302.569 380.634 302.32C381.318 300.96 380.256 298.512 379.963 296.403L373.299 296.585Z" fill="#37474F"/>
<path d="M369.052 299.611C369.052 299.611 363.584 299.282 359.813 298.852C356.042 298.421 353.052 300.121 353.93 301.561C354.809 303 356.896 304.202 360.143 305.21C362.913 306.083 366.245 306.707 369.125 307.477C372.006 308.248 374.007 309.257 375.679 308.713C377.546 308.112 378.352 307.421 378.193 306.151C377.786 304.345 377.281 302.56 376.68 300.801L369.052 299.611Z" fill="#37474F"/>
<path d="M380.634 290.747C380.634 290.747 379.951 296.029 379.902 297.163C379.853 298.296 374.349 298.659 373.299 296.585L373.128 290.124L380.634 290.747Z" fill="#F28F8F"/>
<path d="M375.093 293.989L377.058 302.014C377.058 302.014 377.241 302.989 372.75 303.612C368.259 304.236 361.204 301.425 359.996 300.858C358.788 300.291 358.654 299.146 363.072 299.373C367.49 299.6 369.052 299.611 369.052 299.611L367.612 296.063L375.093 293.989Z" fill="#FFA8A7"/>
<path d="M384.344 160.806L387.457 160.001C387.457 160.001 393.962 179.123 394.682 180.97C395.402 182.818 396.22 184.768 394.816 187.046C393.144 189.755 384.344 200.648 384.344 200.648L378.755 195.57L385.101 184.779L379.487 174.238L384.344 160.806Z" fill="#F28F8F"/>
<path d="M352.38 135.972C351.651 134.699 351.28 133.276 351.304 131.835C351.327 130.394 351.744 128.982 352.515 127.731C355.615 122.393 362.522 119.797 370.748 120.783C374.556 121.248 379.048 124.183 381.501 128.57C384.21 133.433 384.466 143.226 385.162 146.932L352.38 135.972Z" fill="#37474F"/>
<path d="M352.161 138.069C352.161 138.069 350.208 141.526 350.55 141.843C351.056 142.118 351.609 142.309 352.185 142.41L352.161 138.069Z" fill="#FFA8A7"/>
<path d="M358.092 127.142C355.969 128.423 352.307 130.78 352.149 138.545C351.978 146.479 353.198 149.097 354.467 150.015C355.322 150.639 360.338 150.321 362.486 149.857C364.634 149.392 370.822 146.547 373.055 142.228C375.679 137.15 375.142 129.76 371.249 127.493C369.267 126.405 367.021 125.802 364.719 125.74C362.418 125.679 360.138 126.161 358.092 127.142Z" fill="#FFA8A7"/>
<path d="M380.634 186.672C384.393 192.113 387.957 196.873 388.738 203.017C390.349 215.927 385.077 230.685 383.942 240.24C386.076 242.958 387.307 246.197 387.481 249.557C387.481 253.513 380.634 290.747 380.634 290.747C380.634 290.747 375.655 292.153 373.128 290.124L368.43 221.628L370.87 213.286L380.634 186.672Z" fill="#7E98B6"/>
<path opacity="0.2" d="M380.634 186.672C384.393 192.113 387.957 196.873 388.738 203.017C390.349 215.927 385.077 230.685 383.942 240.24C386.076 242.958 387.307 246.197 387.481 249.557C387.481 253.513 380.634 290.747 380.634 290.747C380.634 290.747 375.655 292.153 373.128 290.124L368.43 221.628L370.87 213.286L380.634 186.672Z" fill="black"/>
<path d="M368.43 221.628L370.87 213.286C375.544 212.143 380.052 210.48 384.296 208.333C384.296 208.333 381.757 212.628 374.459 214.986L370.687 225.697L370.37 250.237L368.43 221.628Z" fill="#7E98B6"/>
<path opacity="0.3" d="M368.43 221.628L370.87 213.286C375.544 212.143 380.052 210.48 384.296 208.333C384.296 208.333 381.757 212.628 374.459 214.986L370.687 225.697L370.37 250.237L368.43 221.628Z" fill="black"/>
<path d="M380.634 186.672C382.648 189.732 387.457 194.946 386.431 199.967C385.211 206.043 381.672 210.316 370.907 213.286L360.802 247.29C360.802 247.29 366.062 251.824 367.673 256.21C369.284 260.597 375.093 294.012 375.093 294.012C375.093 294.012 373.287 296.743 367.612 296.086C367.612 296.086 347.828 254.148 346.437 251.416C344.748 248.649 344.156 245.421 344.765 242.291C345.387 237.894 352.088 189.755 352.088 189.755L380.634 186.672Z" fill="#7E98B6"/>
<path opacity="0.2" d="M380.634 186.672C382.648 189.732 387.457 194.946 386.431 199.967C385.211 206.043 381.672 210.316 370.907 213.286L360.802 247.29C360.802 247.29 366.062 251.824 367.673 256.21C369.284 260.597 375.093 294.012 375.093 294.012C375.093 294.012 373.287 296.743 367.612 296.086C367.612 296.086 347.828 254.148 346.437 251.416C344.748 248.649 344.156 245.421 344.765 242.291C345.387 237.894 352.088 189.755 352.088 189.755L380.634 186.672Z" fill="black"/>
<path d="M384.344 160.806L359.203 157.031C358.69 156.929 357.86 156.737 356.762 156.476C356.762 156.476 355.688 171.121 349.232 174.476C349.39 175.178 349.525 175.96 349.647 176.856C350.025 179.667 352.088 189.71 352.088 189.71C352.088 189.71 361.851 194.096 369.87 191.976C377.888 189.857 380.598 186.694 380.598 186.694L376.582 180.619C377.705 178.091 382.758 167.936 384.344 160.806Z" fill="#7E98B6"/>
<path opacity="0.7" d="M384.344 160.806L359.203 157.031C358.69 156.929 357.86 156.737 356.762 156.476C356.762 156.476 355.688 171.121 349.232 174.476C349.39 175.178 349.525 175.96 349.647 176.856C350.025 179.667 352.088 189.71 352.088 189.71C352.088 189.71 361.851 194.096 369.87 191.976C377.888 189.857 380.598 186.694 380.598 186.694L376.582 180.619C377.705 178.091 382.758 167.936 384.344 160.806Z" fill="white"/>
<path d="M377.717 178.205C374.378 180.067 370.88 181.67 367.258 182.999C370.546 182.938 373.764 182.112 376.619 180.596L377.717 178.205Z" fill="#7E98B6"/>
<path d="M357.47 127.527C357.47 127.527 356.249 134.895 359.13 139.225C359.13 139.225 360.204 136.289 362.876 136.844C365.549 137.4 365.696 140.675 363.816 142.512C363.338 143.027 362.714 143.406 362.015 143.607C361.315 143.807 360.569 143.821 359.862 143.645C359.862 143.645 359.435 148.972 359.203 153.438C358.971 157.904 357.702 167.641 363.108 171.574C368.515 175.507 382.087 176.89 388.445 168.638C391.985 164.048 387.286 155.932 385.101 146.83C383.087 138.465 381.952 126.065 372.396 124.07C362.84 122.075 357.47 127.527 357.47 127.527Z" fill="#37474F"/>
<path d="M392.534 26.8634L390.52 27.9968C390.689 27.3314 390.783 26.6514 390.801 25.9679C390.801 22.1708 387.933 20.6406 384.393 22.5675C383.316 23.1709 382.355 23.9371 381.55 24.8344C381.55 19.7338 377.693 17.6596 372.933 20.2099C370.425 21.729 368.338 23.7759 366.84 26.1844C365.343 28.593 364.479 31.2953 364.317 34.0723C364.317 34.333 364.317 34.5823 364.317 34.8317C363.09 34.6884 361.849 34.9535 360.814 35.5798C358.949 36.7084 357.397 38.2296 356.283 40.0198C355.17 41.81 354.527 43.8188 354.406 45.8831C354.406 46.3629 354.459 46.8416 354.565 47.3112L353.491 47.8893C350.574 49.4535 348.206 52.5025 348.206 54.6901C348.206 56.8778 350.574 57.3991 353.491 55.8236L392.546 34.911C395.463 33.3468 397.831 30.2978 397.831 28.1102C397.831 25.9226 395.451 25.2878 392.534 26.8634Z" fill="#EBEBEB"/>
</g>
<defs>
<filter id="filter0_d" x="0" y="0" width="438.699" height="379.489" filterUnits="userSpaceOnUse" color-interpolation-filters="sRGB">
<feFlood flood-opacity="0" result="BackgroundImageFix"/>
<feColorMatrix in="SourceAlpha" type="matrix" values="0 0 0 0 0 0 0 0 0 0 0 0 0 0 0 0 0 0 127 0"/>
<feOffset dy="4"/>
<feGaussianBlur stdDeviation="2"/>
<feColorMatrix type="matrix" values="0 0 0 0 0 0 0 0 0 0 0 0 0 0 0 0 0 0 0.16 0"/>
<feBlend mode="normal" in2="BackgroundImageFix" result="effect1_dropShadow"/>
<feBlend mode="normal" in="SourceGraphic" in2="effect1_dropShadow" result="shape"/>
</filter>
</defs>
</svg>
