<svg width="44" height="44" viewBox="0 0 44 44" fill="none" xmlns="http://www.w3.org/2000/svg">
<path d="M0 4C0 1.79086 1.79086 0 4 0H39.75C41.9591 0 43.75 1.79086 43.75 4V39.75C43.75 41.9591 41.9591 43.75 39.75 43.75H4C1.79086 43.75 0 41.9591 0 39.75V4Z" fill="black"/>
<path d="M11.5539 27.0601C11.7676 25.2911 12.4931 24.3006 13.8603 23.2853C15.8166 21.9102 18.2602 22.688 18.2602 22.688V18.0736C18.8543 18.0584 19.4486 18.0936 20.0362 18.1788V24.1172C20.0362 24.1172 17.5933 23.3393 15.6371 24.7151C14.2706 25.7298 13.5436 26.7209 13.3307 28.4899C13.324 29.4505 13.5043 30.7061 14.3344 31.7919C14.1291 31.6866 13.9199 31.5667 13.7068 31.4321C11.8781 30.2042 11.545 28.3619 11.5539 27.0601ZM30.1261 9.54139C28.7804 8.06675 28.2715 6.57788 28.0875 5.53198H29.7804C29.7804 5.53198 29.4428 8.27436 31.9028 10.9712L31.9369 11.0075C31.2739 10.5905 30.6659 10.0982 30.1261 9.54139ZM38.2812 13.7222V19.5411C38.2812 19.5411 36.121 19.4565 34.5223 19.0498C32.2901 18.481 30.8553 17.6086 30.8553 17.6086C30.8553 17.6086 29.8642 16.9864 29.7841 16.943V28.9592C29.7841 29.6282 29.6009 31.2991 29.0422 32.6927C28.313 34.5158 27.1876 35.7124 26.9807 35.957C26.9807 35.957 25.6119 37.5745 23.1972 38.6638C21.0207 39.6464 19.1097 39.6215 18.5384 39.6464C18.5384 39.6464 15.235 39.7773 12.2624 37.8454C11.6196 37.4196 11.0196 36.9374 10.4701 36.4049L10.4849 36.4156C13.4583 38.3474 16.761 38.2166 16.761 38.2166C17.3329 38.1917 19.2439 38.2166 21.4198 37.234C23.8323 36.1447 25.2032 34.5271 25.2032 34.5271C25.4079 34.2825 26.5385 33.0859 27.2648 31.2622C27.8219 29.8693 28.0066 28.1977 28.0066 27.5286V15.5139C28.0868 15.558 29.0771 16.1801 29.0771 16.1801C29.0771 16.1801 30.5126 17.0533 32.7448 17.6214C34.3442 18.0281 36.5037 18.1127 36.5037 18.1127V13.5529C37.2426 13.7186 37.8725 13.7634 38.2812 13.7222Z" fill="#EE1D52"/>
<path d="M36.5046 13.5529V18.1112C36.5046 18.1112 34.3451 18.0266 32.7457 17.6199C30.5135 17.0511 29.078 16.1787 29.078 16.1787C29.078 16.1787 28.0876 15.5566 28.0075 15.5125V27.53C28.0075 28.1991 27.8243 29.8707 27.2657 31.2636C26.5364 33.0873 25.4111 34.284 25.2041 34.5286C25.2041 34.5286 23.8346 36.1461 21.4207 37.2354C19.2448 38.218 17.3338 38.1931 16.7619 38.218C16.7619 38.218 13.4591 38.3488 10.4858 36.417L10.471 36.4063C10.1571 36.1024 9.86158 35.7814 9.58596 35.4451C8.63714 34.2882 8.05553 32.9202 7.90939 32.5299C7.90913 32.5282 7.90913 32.5266 7.90939 32.5249C7.67422 31.8466 7.18015 30.2177 7.24766 28.6399C7.3671 25.8563 8.34634 24.1478 8.60524 23.7197C9.29093 22.5525 10.1828 21.5082 11.241 20.6332C12.1749 19.8782 13.2334 19.2775 14.3731 18.8557C15.6052 18.3604 16.9245 18.095 18.2604 18.0736V22.688C18.2604 22.688 15.8167 21.913 13.8612 23.2853C12.494 24.3006 11.7685 25.2911 11.5548 27.0601C11.5459 28.3619 11.879 30.2042 13.7062 31.4328C13.9193 31.5679 14.1285 31.6878 14.3338 31.7926C14.653 32.2075 15.0415 32.5691 15.4837 32.8626C17.2685 33.9925 18.7641 34.0714 20.6766 33.3376C21.9518 32.847 22.9118 31.7414 23.3569 30.5163C23.6366 29.7513 23.6328 28.9812 23.6328 28.1849V5.53198H28.0839C28.2679 6.57788 28.7768 8.06675 30.1225 9.54139C30.6624 10.0982 31.2704 10.5905 31.9334 11.0075C32.1292 11.2101 33.1307 12.212 34.4163 12.827C35.0811 13.1449 35.7818 13.3885 36.5046 13.5529Z" fill="white"/>
<path d="M6.13767 31.113V31.1166L6.24811 31.4159C6.23543 31.3811 6.19438 31.2751 6.13767 31.113Z" fill="#69C9D0"/>
<path d="M14.373 18.8558C13.2333 19.2776 12.1748 19.8783 11.2409 20.6334C10.1823 21.5103 9.2907 22.5568 8.60587 23.7263C8.34697 24.1529 7.36773 25.8629 7.24829 28.6465C7.18078 30.2242 7.67485 31.8532 7.91002 32.5315C7.90976 32.5331 7.90976 32.5348 7.91002 32.5364C8.05839 32.9232 8.63777 34.2912 9.58659 35.4516C9.86221 35.788 10.1577 36.1089 10.4716 36.4129C9.46581 35.7462 8.5688 34.9401 7.80987 34.021C6.86921 32.8742 6.28908 31.5204 6.13774 31.1208C6.13757 31.118 6.13757 31.1151 6.13774 31.1123V31.1073C5.90184 30.4297 5.40628 28.8001 5.47528 27.2202C5.59471 24.4366 6.57395 22.728 6.83286 22.3C7.51749 21.1304 8.40912 20.0838 9.4679 19.2071C10.4016 18.4518 11.4601 17.851 12.6 17.4295C13.311 17.1468 14.0516 16.9382 14.8092 16.8074C15.9509 16.6164 17.1169 16.5998 18.264 16.7583V18.0737C16.9269 18.0947 15.6062 18.3601 14.373 18.8558Z" fill="#69C9D0"/>
<path d="M28.0874 5.53212H23.6363V28.1857C23.6363 28.9821 23.6363 29.75 23.3603 30.5172C22.9108 31.7415 21.9545 32.8472 20.68 33.3378C18.7668 34.0744 17.2713 33.9926 15.4871 32.8628C15.0442 32.5705 14.6547 32.2102 14.3343 31.7963C15.8543 32.5734 17.2149 32.5599 18.9003 31.9115C20.1741 31.4209 21.1318 30.3152 21.5799 29.0902C21.8603 28.3251 21.8566 27.5551 21.8566 26.7594V4.10156H28.0028C28.0028 4.10156 27.9338 4.66469 28.0874 5.53212ZM36.5044 12.2924V13.5531C35.7828 13.3884 35.0834 13.1448 34.4198 12.8271C33.1342 12.2121 32.1327 11.2103 31.9368 11.0076C32.1641 11.1506 32.3999 11.2807 32.6431 11.3973C34.2061 12.1453 35.7455 12.3685 36.5044 12.2924Z" fill="#69C9D0"/>
</svg>
