<svg width="195" height="69" viewBox="0 0 195 69" fill="none" xmlns="http://www.w3.org/2000/svg">
<g filter="url(#filter0_d)">
<rect width="11.3382" height="58.4018" rx="5.66911" transform="matrix(0.950094 0.311964 -0.313229 0.949678 22.3232 0)" fill="#FFC857"/>
</g>
<g filter="url(#filter1_d)">
<rect x="50.7219" y="26.2222" width="10.9259" height="46.7219" rx="5.46297" transform="rotate(90 50.7219 26.2222)" fill="#2B3D51"/>
</g>
<g filter="url(#filter2_d)">
<rect x="66.7827" y="9.46914" width="10.9259" height="59.1325" rx="5.46296" transform="rotate(90 66.7827 9.46914)" fill="#2B3D51"/>
</g>
<g filter="url(#filter3_d)">
<path d="M61.7559 52.5849C61.7559 53.415 61.9593 54.0253 62.3662 54.416C63.0824 55.0996 63.8392 55.4414 64.6367 55.4414H64.8809C65.4831 55.4414 65.9469 55.6041 66.2725 55.9296C66.8258 56.483 67.1025 56.9876 67.1025 57.4433C67.1025 57.899 67.0456 58.2652 66.9316 58.5419C66.8177 58.8024 66.6631 59.0302 66.4678 59.2255C66.012 59.6487 65.4831 59.8603 64.8809 59.8603H63.1963C61.2106 59.8603 59.5098 59.1523 58.0938 57.7363C56.6777 56.3203 55.9697 54.6194 55.9697 52.6337V25.1923C55.9697 24.3785 56.1732 23.7682 56.5801 23.3613C57.2799 22.6614 58.0368 22.3115 58.8506 22.3115C59.6807 22.3115 60.2992 22.5149 60.7061 22.9218C61.4059 23.6217 61.7559 24.3785 61.7559 25.1923V52.5849ZM84.0309 34.4208C84.454 34.0139 84.8365 33.7373 85.1783 33.5908C85.5364 33.428 85.9107 33.3466 86.3014 33.3466C86.7083 33.3466 87.0826 33.4199 87.4244 33.5664C87.7825 33.7128 88.0917 33.9163 88.3521 34.1767C88.9218 34.7464 89.2066 35.4218 89.2066 36.2031V57.4189C89.2066 58.2164 89.0032 58.8349 88.5963 59.2744C87.8964 59.9905 87.2291 60.3486 86.5943 60.3486C85.9758 60.3486 85.512 60.2753 85.2027 60.1289C84.8935 59.9986 84.6412 59.844 84.4459 59.665C84.1367 59.4046 83.9169 59.1442 83.7867 58.8837C83.6728 58.607 83.567 58.4036 83.4693 58.2734C83.3717 58.1432 83.2171 58.0781 83.0055 58.0781C82.8102 58.0781 82.6474 58.1513 82.5172 58.2978C82.387 58.428 82.1754 58.6396 81.8824 58.9326C80.9059 59.8766 79.8316 60.3486 78.6598 60.3486C77.5042 60.3486 76.5357 60.1614 75.7545 59.7871C74.9732 59.3964 74.2896 58.8675 73.7037 58.2001C72.4667 56.7841 71.8482 55.0914 71.8482 53.122V36.2031C71.8482 34.9661 72.4342 34.0953 73.6061 33.5908C73.9479 33.428 74.3141 33.3466 74.7047 33.3466C75.1116 33.3466 75.4941 33.4199 75.8521 33.5664C76.2102 33.7128 76.5195 33.9163 76.7799 34.1767C77.3495 34.7464 77.6344 35.4218 77.6344 36.2031V53.0488C77.6344 53.8626 77.8378 54.4729 78.2447 54.8798C78.9609 55.596 79.7096 55.954 80.4908 55.954C81.7766 55.954 82.6718 55.4495 83.1764 54.4404C83.3391 54.1149 83.4205 53.7486 83.4205 53.3417V36.2031C83.4205 35.4055 83.624 34.8115 84.0309 34.4208ZM110.237 55.4414C110.855 55.4414 111.376 55.6611 111.799 56.1005C112.222 56.54 112.434 57.069 112.434 57.6874C112.434 58.2897 112.222 58.8024 111.799 59.2255C111.376 59.6487 110.855 59.8603 110.237 59.8603H104.475C102.489 59.8603 100.788 59.1523 99.3723 57.7363C97.9562 56.3203 97.2482 54.6194 97.2482 52.6337V40.6464C97.2482 38.4329 97.9969 36.6669 99.4943 35.3486C101.057 34.0139 103.205 33.3466 105.94 33.3466C108.641 33.3466 110.774 34.0139 112.336 35.3486C113.85 36.6832 114.607 38.4654 114.607 40.6953V47.5312C114.607 48.345 114.403 48.9554 113.996 49.3623C113.296 50.0621 112.531 50.4121 111.701 50.4121H103.034V52.5849C103.034 53.415 103.238 54.0253 103.645 54.416C104.361 55.0996 105.118 55.4414 105.915 55.4414H110.237ZM108.821 40.6464C108.821 39.8326 108.617 39.2223 108.21 38.8154C107.494 38.0992 106.737 37.7412 105.94 37.7412C105.126 37.7412 104.507 37.9527 104.084 38.3759C103.384 39.0758 103.034 39.8326 103.034 40.6464V46.1396H108.821V40.6464ZM127.8 59.2988C127.393 59.6894 127.01 59.958 126.652 60.1044C126.31 60.2672 125.936 60.3486 125.529 60.3486C125.138 60.3486 124.764 60.2753 124.406 60.1289C124.064 59.9824 123.763 59.7789 123.503 59.5185C122.933 58.9488 122.648 58.2734 122.648 57.4921V36.2763C122.648 35.4788 122.86 34.8603 123.283 34.4208C123.967 33.7047 124.618 33.3466 125.236 33.3466C125.871 33.3466 126.335 33.4199 126.628 33.5664C126.937 33.6966 127.197 33.8512 127.409 34.0302C127.718 34.2906 127.93 34.5592 128.044 34.8359C128.174 35.0963 128.288 35.2916 128.386 35.4218C128.483 35.552 128.63 35.6171 128.825 35.6171C129.037 35.6171 129.207 35.552 129.338 35.4218C129.468 35.2753 129.679 35.0556 129.972 34.7626C130.949 33.8186 132.015 33.3466 133.171 33.3466C134.343 33.3466 135.319 33.5419 136.1 33.9326C136.882 34.3069 137.557 34.8277 138.127 35.4951C139.38 36.9111 140.007 38.6038 140.007 40.5732V57.4921C140.007 58.7291 139.429 59.5999 138.273 60.1044C137.915 60.2672 137.533 60.3486 137.126 60.3486C136.735 60.3486 136.361 60.2753 136.003 60.1289C135.645 59.9824 135.335 59.7789 135.075 59.5185C134.505 58.9488 134.221 58.2734 134.221 57.4921V40.6464C134.221 39.8489 134.025 39.2386 133.635 38.8154C132.935 38.0992 132.186 37.7412 131.388 37.7412C130.086 37.7412 129.183 38.2457 128.679 39.2548C128.516 39.5804 128.434 39.9466 128.434 40.3535V57.4921C128.434 58.2897 128.223 58.8919 127.8 59.2988ZM159.401 39.0351C158.701 38.1725 157.846 37.7412 156.837 37.7412C155.958 37.7412 155.307 37.9527 154.884 38.3759C154.184 39.0758 153.834 39.8326 153.834 40.6464V52.5849C153.834 53.415 154.038 54.0253 154.445 54.416C155.161 55.0996 155.918 55.4414 156.715 55.4414H162.721C163.681 55.4414 164.357 55.9052 164.747 56.833C164.861 57.0934 164.918 57.3782 164.918 57.6874C164.918 57.9804 164.861 58.2652 164.747 58.5419C164.634 58.8024 164.479 59.0302 164.284 59.2255C163.86 59.6487 163.34 59.8603 162.721 59.8603H155.275C153.289 59.8603 151.588 59.1523 150.172 57.7363C148.756 56.3203 148.048 54.6194 148.048 52.6337V40.5244C148.048 38.4248 148.756 36.732 150.172 35.4462C151.718 34.0465 153.899 33.3466 156.715 33.3466C160.508 33.3466 163.038 34.2255 164.308 35.9833C164.715 36.5205 164.918 37.0657 164.918 37.6191C164.918 38.1562 164.845 38.6038 164.699 38.9619C164.552 39.3037 164.349 39.6048 164.088 39.8652C163.535 40.4186 162.908 40.6953 162.208 40.6953C161.069 40.6953 160.133 40.1419 159.401 39.0351ZM186.437 55.4414C187.055 55.4414 187.576 55.6611 187.999 56.1005C188.422 56.54 188.634 57.069 188.634 57.6874C188.634 58.2897 188.422 58.8024 187.999 59.2255C187.576 59.6487 187.055 59.8603 186.437 59.8603H180.675C178.689 59.8603 176.988 59.1523 175.572 57.7363C174.156 56.3203 173.448 54.6194 173.448 52.6337V40.6464C173.448 38.4329 174.197 36.6669 175.694 35.3486C177.257 34.0139 179.405 33.3466 182.14 33.3466C184.841 33.3466 186.974 34.0139 188.536 35.3486C190.05 36.6832 190.807 38.4654 190.807 40.6953V47.5312C190.807 48.345 190.603 48.9554 190.196 49.3623C189.496 50.0621 188.731 50.4121 187.901 50.4121H179.234V52.5849C179.234 53.415 179.438 54.0253 179.845 54.416C180.561 55.0996 181.318 55.4414 182.115 55.4414H186.437ZM185.021 40.6464C185.021 39.8326 184.817 39.2223 184.41 38.8154C183.694 38.0992 182.937 37.7412 182.14 37.7412C181.326 37.7412 180.707 37.9527 180.284 38.3759C179.584 39.0758 179.234 39.8326 179.234 40.6464V46.1396H185.021V40.6464Z" fill="#2B3D51"/>
</g>
<defs>
<filter id="filter0_d" x="1.51904" y="1.48398" width="34.0874" height="64.032" filterUnits="userSpaceOnUse" color-interpolation-filters="sRGB">
<feFlood flood-opacity="0" result="BackgroundImageFix"/>
<feColorMatrix in="SourceAlpha" type="matrix" values="0 0 0 0 0 0 0 0 0 0 0 0 0 0 0 0 0 0 127 0"/>
<feOffset dy="4"/>
<feGaussianBlur stdDeviation="2"/>
<feColorMatrix type="matrix" values="0 0 0 0 0 0 0 0 0 0 0 0 0 0 0 0 0 0 0.25 0"/>
<feBlend mode="normal" in2="BackgroundImageFix" result="effect1_dropShadow"/>
<feBlend mode="normal" in="SourceGraphic" in2="effect1_dropShadow" result="shape"/>
</filter>
<filter id="filter1_d" x="0" y="26.2222" width="54.7219" height="18.9259" filterUnits="userSpaceOnUse" color-interpolation-filters="sRGB">
<feFlood flood-opacity="0" result="BackgroundImageFix"/>
<feColorMatrix in="SourceAlpha" type="matrix" values="0 0 0 0 0 0 0 0 0 0 0 0 0 0 0 0 0 0 127 0"/>
<feOffset dy="4"/>
<feGaussianBlur stdDeviation="2"/>
<feColorMatrix type="matrix" values="0 0 0 0 0 0 0 0 0 0 0 0 0 0 0 0 0 0 0.25 0"/>
<feBlend mode="normal" in2="BackgroundImageFix" result="effect1_dropShadow"/>
<feBlend mode="normal" in="SourceGraphic" in2="effect1_dropShadow" result="shape"/>
</filter>
<filter id="filter2_d" x="3.65015" y="9.46913" width="67.1325" height="18.9259" filterUnits="userSpaceOnUse" color-interpolation-filters="sRGB">
<feFlood flood-opacity="0" result="BackgroundImageFix"/>
<feColorMatrix in="SourceAlpha" type="matrix" values="0 0 0 0 0 0 0 0 0 0 0 0 0 0 0 0 0 0 127 0"/>
<feOffset dy="4"/>
<feGaussianBlur stdDeviation="2"/>
<feColorMatrix type="matrix" values="0 0 0 0 0 0 0 0 0 0 0 0 0 0 0 0 0 0 0.25 0"/>
<feBlend mode="normal" in2="BackgroundImageFix" result="effect1_dropShadow"/>
<feBlend mode="normal" in="SourceGraphic" in2="effect1_dropShadow" result="shape"/>
</filter>
<filter id="filter3_d" x="51.9697" y="22.3115" width="142.837" height="46.0371" filterUnits="userSpaceOnUse" color-interpolation-filters="sRGB">
<feFlood flood-opacity="0" result="BackgroundImageFix"/>
<feColorMatrix in="SourceAlpha" type="matrix" values="0 0 0 0 0 0 0 0 0 0 0 0 0 0 0 0 0 0 127 0"/>
<feOffset dy="4"/>
<feGaussianBlur stdDeviation="2"/>
<feColorMatrix type="matrix" values="0 0 0 0 0 0 0 0 0 0 0 0 0 0 0 0 0 0 0.25 0"/>
<feBlend mode="normal" in2="BackgroundImageFix" result="effect1_dropShadow"/>
<feBlend mode="normal" in="SourceGraphic" in2="effect1_dropShadow" result="shape"/>
</filter>
</defs>
</svg>
